<?xml version="1.0" encoding="utf-8"?>
<!-- Generator: Adobe Illustrator 24.1.2, SVG Export Plug-In . SVG Version: 6.00 Build 0)  -->
<svg version="1.1" id="Layer_1" xmlns="http://www.w3.org/2000/svg" xmlns:xlink="http://www.w3.org/1999/xlink" x="0px" y="0px"
	 viewBox="0 0 320 210" enable-background="new 0 0 320 210" xml:space="preserve">
<path fill="#64BC41" d="M298.6,190.2c-1-2.8-2.6-5.8-2.6-8.6c-0.2-35.9-0.1-71.8-0.1-107.7c0-13.5-7-23.6-19.6-28.2
	c-14.7-5.4-33.1,4.5-35.7,19.3c-0.3,3.1-0.5,6.1-0.8,9.2l0,0l0,0c-5.3-5.7-10.7-11.3-15.9-17c-2-2.2-4-3.5-7.3-3.2
	c-16,1.3-32.1,2.4-48.1,3.4c-1.3,0.1-3.2-0.1-3.8-0.9c-1.8-2.6,0.2-7.5,3.5-9.1c-1.9-1.7-3.8-3.3-5.7-4.9
	c-4.7-4.3-11.4-7.3-9.8-15.7c0.2-0.9-2.2-2.4-3.4-3.5c-0.9,1.3-2.7,2.6-2.5,3.8c1,7.3-4.3,10.5-8.9,14.1c-1.9,1.6-3.8,3.2-5.8,4.8
	c-1.1,0.9-1.6,1.1-0.4,3c1.5,2.7,1.2,6.7,0.8,9.9c-0.1,0.9-3.6,1.7-5.6,1.8c-7.9,0.7-15.9,1-23.9,1.6c-4.9,0.4-9.4,0.7-13.5,4.7
	C78.8,77.4,67.3,87.3,56.2,97.6c-1.4,1.3-2.6,3.4-3,5.4c-3.3,14.1-6.4,28.4-9.7,42.5c-0.6,2.7-0.1,4.2,3.1,3.5
	c3.8-0.8,5.2,0.9,4.6,4.6c-0.2,1.5-0.2,3,0,4.5c0.3,2.7-0.7,4-3.4,4.3c-7.8,1.1-11.5,6.3-13.5,13.4c-0.4,1.5-1.5,3.3-2.8,3.9
	c-12.6,6.1-20,16-22.2,29.8c16,0,31.9,0,47.9,0c35.9,0,71.9,0,107.8,0c9,0,18,0,27,0c3,0,6,0,9,0c11.6,0,23.3,0,34.9,0
	c2.3,0,4.7,0,7,0c5.7,0,11.3,0,17,0c4.7,0,9.3,0,14,0c10.6,0,21.3,0,31.9,0C303.5,203.1,301,196.7,298.6,190.2z M245.4,70.2
	c0,0,0,0.1,0,0.1c0,0-0.1-0.1-0.1-0.1C245.3,70.2,245.3,70.2,245.4,70.2z"/>
<path opacity="0.2" fill="#060606" d="M273.9,209.5c10.6,0,21.3,0,31.9,0c-2.4-6.4-4.9-12.8-7.3-19.3c-1-2.8-2.6-5.8-2.6-8.6
	c-0.2-35.9-0.1-71.8-0.1-107.7c0-13.5-7-23.6-19.6-28.2c-14.7-5.4-33.1,4.5-35.7,19.3c1.4,1.6,2.7,3.1,4.6,5.2c0,0,0.1,0,0.1,0
	c1.9-7.3,5-13,11.4-16.5c10.9-6,22.2,0.6,22,13.1c0,0.8-1.6,2.2-2.5,2.3c-3.3,0.3-6.7-0.3-9.9,0.2c-1.7,0.3-3.2,2.1-4.8,3.2
	c1.5,1.2,2.9,3.2,4.5,3.4c8.3,1,8.3,0.8,8.3,9.1c0,39.4,0,78.8,0,118.1C274.3,205.3,274.1,207.4,273.9,209.5z"/>
<path opacity="0.2" fill="#060606" d="M268.5,138.6c-2.4-11.5-5.2-23-7.2-34.7c-1.3-7.5-4.6-13.7-9.8-19.2c-3.1-3.2-6.4-6.3-9.2-9.8
	c-0.6-0.7-1.3-1.7-2.4-0.8c-5.3-5.7-10.7-11.3-15.9-17c-2-2.2-4-3.5-7.3-3.2c-16,1.3-32.1,2.4-48.1,3.4c-1.3,0.1-3.2-0.1-3.8-0.9
	c-1.8-2.6,0.2-7.5,3.5-9.1c-1.9-1.7-3.8-3.3-5.7-4.9c-4.7-4.3-11.4-7.3-9.8-15.7c0.2-0.9-2.2-2.4-3.4-3.5c-0.9,1.3-2.7,2.6-2.5,3.8
	c1,7.3-4.3,10.5-8.9,14.1c-1.9,1.6-3.8,3.2-5.8,4.8c-1.1,0.9-1.6,1.1-0.4,3c1.5,2.7,1.2,6.7,0.8,9.9c-0.1,0.9-3.6,1.7-5.6,1.8
	c-7.9,0.7-15.9,1-23.9,1.6c-4.9,0.4-9.4,0.7-13.5,4.7C78.8,77.4,67.3,87.3,56.2,97.6c-1.4,1.3-2.6,3.4-3,5.4
	c-3.3,14.1-6.4,28.4-9.7,42.5c-0.6,2.7-0.1,4.2,3.1,3.5c3.8-0.8,5.2,0.9,4.6,4.6c-0.2,1.5-0.2,3,0,4.5c0.3,2.7-0.7,4-3.4,4.3
	c-7.8,1.1-11.5,6.3-13.5,13.4c-0.4,1.5-1.5,3.3-2.8,3.9c-12.6,6.1-20,16-22.2,29.8c16,0,31.9,0,47.9,0c0.1-15.6,0.3-31.2,0.2-46.8
	c0-3.6,0.8-4.8,4.6-4.9c32.9-0.8,65.8-1.7,98.7-2.8c3.6-0.1,4.1,1.2,4.1,4.2c0,16.8,0.1,33.5,0.2,50.3c9,0,18,0,27,0
	c0.1-17.9,0.3-35.8,0.1-53.7c0-4.1,0.9-5.4,5.2-5.1c13.6,1,27.2,1.6,40.8,2.1c3.8,0.1,4.6,1.5,4.6,5c-0.2,16.1-0.1,32.2-0.1,48.3
	c0,1.1,0.2,2.3,0.3,3.4c5.7,0,11.3,0,17,0c1.5-1.6,1.5-3.6,1.6-5.6c0-3.3,0-6.6,0-10c0-13.5,0-26.9,0-40.4c0-2.2-0.6-5.2,2.4-5.9
	C269.6,146.5,269.4,142.9,268.5,138.6z M143.6,47.2c3.9-0.1,2.4,2.6,2.7,4.4c0.2,1.3,0,2.6,0,3.9c0,1.6-0.2,3.3,0,4.9
	c0.3,3-1.3,3.4-3.8,3.6c-2.8,0.2-3.4-0.8-3.3-3.3c0.2-3,0.3-5.9,0-8.9C138.9,48.5,140.2,47.2,143.6,47.2z M197,73.8
	c-4.9,4.2-9.4,9-14.7,12.6c-7.1,4.8-9.9,11.4-11.1,19.5c-1.6,10-4.1,19.8-6,29.8c-0.5,2.8-1.7,3.7-4.6,3.8
	c-35.1,0.9-70.2,1.8-105.2,2.9c-3.5,0.1-4.2-0.7-3.4-4.2c2.3-9.5,4.4-19.1,6.3-28.7c0.6-2.8,1.9-3.3,4.4-3.4
	c26.6-1.3,53.2-2.6,79.7-4c0.5,0,1-0.1,1.5,0c2.8,0,5.5-0.7,5-3.9c-0.2-1.3-3.4-2.9-5.2-2.9c-7.8,0-15.6,0.7-23.4,1.1
	c-18.2,0.9-36.4,1.9-55.6,2.8c1.2-1.5,1.8-2.3,2.6-3c9-8.2,17.9-16.4,27-24.4c1.4-1.2,3.3-2.4,5.1-2.5c9.8-0.9,19.6-1.6,29.3-2.2
	c1.1-0.1,3.3,0.6,3.3,0.8c-0.1,5.8,4,3.4,6.7,3.4c3.3,0,6.7-0.1,9.9-0.8c2.8-0.6,5.3-2.1,8-3.2c2.1-0.9,4-2.6,6.1-2.8
	c15.4-1.3,30.8-2.4,46.3-3.5c0.4,0,0.8,0.2,2.1,0.6C206.1,65.9,201.5,69.8,197,73.8z M227.5,118.8c0,13.2,0,13.3-13.2,11.2
	c-1.1-0.2-2.6-1.9-2.7-2.9c-0.3-6.5-0.1-12.9-0.2-19.4c0-2.5,0.8-2.9,3.2-2.8C227.5,105.7,227.5,105.7,227.5,118.8z M257.7,139.4
	c-1.4-0.5-3.5-1.3-3.8-2.4c-1.7-6.6-3.6-13.2-4.4-19.9c-1.3-10.8-5.7-19.6-13.5-27.3c-6.5-6.4-12-13.7-18-20.5
	c-1.3-1.5-2.5-2.4-0.3-4.3c2-1.8,3.1-1.5,4.7,0.4c9,10.2,18.2,20.2,27.2,30.4c0.8,1,1.7,2.2,1.9,3.4c2.7,12.5,5.3,25,7.9,37.5
	c0.1,0.3,0.1,0.6,0.4,1.7C259.3,138.5,258.3,139.6,257.7,139.4z"/>
<path opacity="0.2" fill="#060606" d="M107.1,183.9c0,10.3-0.5,10.8-10.8,9.4c-0.9-0.1-2.3-1.7-2.4-2.6c-0.3-4.6-0.3-9.3,0-13.9
	c0.1-1,1.7-2.7,2.8-2.8C107.1,172.7,107.1,172.8,107.1,183.9z"/>
<path opacity="0.2" fill="#060606" d="M85.4,183.8c0,0.2,0,0.3,0,0.5c0,10.2,0,10.3-10.3,9.2c-1-0.1-2.6-1.8-2.7-2.8
	c-0.3-4.3,0-8.6-0.2-12.9c-0.1-2.5,0.8-3.4,3.4-3.5C85.4,173.7,85.4,173.6,85.4,183.8z"/>
<path opacity="0.2" fill="#060606" d="M201.1,209.5c0.1-0.8,0-1.7,0.4-2.3c5.2-6.4,10.4-12.9,15.7-19.2c0.5-0.6,2.5-0.8,2.8-0.4
	c5.6,6.7,11.1,13.6,16.6,20.4c0.2,0.2-0.4,0.9-0.6,1.4C224.4,209.5,212.7,209.5,201.1,209.5z"/>
<path opacity="0.2" fill="#060606" d="M197.3,204.7c0-15.6,0-29.6,0-45c6.3,7.8,11.9,14.6,17.4,21.5c0.4,0.5,0.2,1.9-0.3,2.5
	C209,190.4,203.6,197,197.3,204.7z"/>
<path opacity="0.2" fill="#060606" d="M200.4,155.8c12.3,0.6,23.4,1.2,35.4,1.8c-5.6,6.9-10.6,13.1-15.8,19.3
	c-0.3,0.4-2.2,0.2-2.7-0.3C211.8,170,206.5,163.4,200.4,155.8z"/>
<path opacity="0.2" fill="#060606" d="M237.7,162.9c0,13.4,0,25.3,0,38.8c-5.5-6.7-10.2-12.5-14.8-18.4c-0.4-0.5,0-2.2,0.5-2.9
	C227.8,174.9,232.4,169.4,237.7,162.9z"/>
</svg>
