<?xml version="1.0" encoding="utf-8"?>
<!-- Generator: Adobe Illustrator 24.1.2, SVG Export Plug-In . SVG Version: 6.00 Build 0)  -->
<svg version="1.1" id="Layer_1" xmlns="http://www.w3.org/2000/svg" xmlns:xlink="http://www.w3.org/1999/xlink" x="0px" y="0px"
	 viewBox="0 0 320 210" enable-background="new 0 0 320 210" xml:space="preserve">
<path fill="#64BC41" d="M199,103.9c-0.5-0.2-1.1-0.3-1.6-0.3c-3.1,0.2-6.1,0.4-9.2,0.6c-0.4,0-0.9,0-1.1,0.3
	c-1.1,1.3-2.2,2.6-3.3,3.9c-0.5,0.6-1.4,1.5-1.9,1.3c-1.1-0.4-2.7-1.1-3-1.9c-1.1-4.7-3.7-9.2-3.2-14.3c0.2-2.4-1.2-4.4-2.9-5.3
	c-2.7-1.5-3.8-3.5-4.1-6.2c-0.2-1.5,0.1-3.1,0.1-4.7c0-3.2-0.1-6.4-0.1-9.6c3.2-0.2,6.4-0.4,9.8-0.6c-3.5-0.7-6.8-1.3-10-1.9
	c0-0.6,0-1.2,0-1.7c2.4-0.8,4.8-1.6,7.2-2.4c-0.1-0.2-0.1-0.3-0.2-0.5c-2.7,0.4-5.4,0.8-8.1,1.2c-0.5-0.7-1-1.5-1.5-2.2
	c1.1-1.7,2.2-3.5,3.4-5.2c-1.7,1.4-3.5,2.9-5.2,4.3c-1.1-0.2-2.2-0.4-3.3-0.7c-0.6-2.6-1.2-5.2-1.8-7.7c-0.1,0-0.3,0-0.4,0.1
	c-0.3,2.6-0.6,5.2-0.8,7.8c-1.1,0.2-2.3,0.4-3.4,0.6c-1.7-1.4-3.2-3-5.7-3.2c1.4,1.5,2.8,3,4.2,4.5c-0.5,0.7-0.9,1.3-1.4,2l0,0
	c-2.4-0.2-4.9-0.4-7.3-0.7c-0.1-1.5,0-3.1-0.3-4.6c-1.4-6.9-2.8-13.9-4.4-20.8c-0.5-2.2-1.4-4.4-2.6-6.4c-1.6-2.7-1.4-4.4,1.4-5.9
	c1.7-0.9,3.1-1.9,1.9-4.2c-0.1-0.3,0.3-0.8,0.2-1.2c-0.1-0.7-0.2-1.8-0.6-2c-1-0.6-2.3-0.8-3.4-1.2c0.8-1.7,1.6-3.4,2.5-5.1
	c0.5-1,1-1.9,1.5-2.7c-2.2-0.1-4.1-0.5-5.9-0.2c-1.6,0.2-3.3,0.7-4.5,1.7c-1.4,1-1,2.7-0.3,4.2c0.2,0.5,0.2,1.1,0.4,1.6l0,0
	c-3.4,0.6-3.8,1.1-4.1,4.2c0,0.2,0,0.5-0.2,0.7c-1.2,2,0.1,3,1.6,4.1c1,0.8,1.8,2.2,2.1,3.5c0.3,1.4-0.1,2.9,0.1,4.3
	c0.3,2.6,1.1,5,0.9,7.8c-0.1,1.6,1.3,4,2.7,5c1.1,0.7,1.4,1.1,1.4,2.2c0.1,5.2-0.1,10.3,1.5,15.4c0.9,3,0.7,5.9-1.3,8.7
	c-3.3,4.7-3.4,9.9-1.8,15.3c0.4,1.6,0.7,3.2,1.1,4.8c1.6,3,0.9,6.1,0.6,9.2c0.2,0.7,0.4,1.3,0.5,2c0.7,1.2,1.4,2.3,2.1,3.5
	c2.9,4.6,3.9,7.1,0.1,11c-2.4,2.4-3.5,5.6-4.2,8.9c-0.4,2,0.4,3.5,2.3,4.1c0.9,0.3,1.9,0.7,2.8,0.6c1.6-0.1,1.9,0.8,2,2
	c0,1.6,0,3.2,0.1,4.9c-0.6,2-1.3,3.9-1.9,5.9c0,0,0,0,0,0c-0.2,0.6-0.5,1.2-0.5,1.8c0.2,4.6,0.5,9.2,0.8,13.8
	c0.1,2.3,1.4,4.6-0.4,6.8c-1.4,1.8-1.3,3.6-0.1,5.4c0.1,0.3,0.2,0.6,0.3,0.9c-1.6,4.4-3.6,8.7-4.6,13.2c-1.2,5.4-2.3,11,0.1,16.4
	c0,0.3,0.1,0.7,0.1,1c-0.1,1.3-0.1,2.6-0.2,3.8c-1.5-0.1-2.8-0.3-2.8,2c0,2.1,1,2.3,2.7,2.3c15.5,0,31,0,46.5,0
	c1.7,0,2.5-0.3,2.5-2.2c0-2-0.8-2.4-2.5-2.1c0-0.4-0.1-0.8-0.1-1.2c0.4-5.6-0.5-11.2,1.1-16.8c1.1-3.8,0.4-8,0.5-12.1
	c0.2-1.8,0.5-3.6,0.7-5.4l0,0c0.4-1.5,1.1-2.9,1.2-4.4c0-3.8-0.2-7.7-0.4-11.5c-0.2-4.6-0.4-9.1-0.6-13.7c0.2-0.3,0.3-0.6,0.6-0.8
	c3.7-2.2,3.8-5.6,3.6-9.5c-0.1-1.9,1.4-4,2.2-5.9c0.1-0.2,0.5-0.4,0.8-0.5c2.9-1.1,4.6-3.4,6-6c0.6-1.2,1.2-2.5,1.9-3.6
	c1.3-1.9,1.8-3.7,0.5-5.8c0.4-0.5,0.9-1,1.3-1.4C201.1,105.7,201,104.9,199,103.9z M149.9,67.3c-0.1,1.2-0.1,2.5-0.7,3.9
	c-0.9-1.4-1.1-2.7-1.3-4C148.5,67.2,149.2,67.3,149.9,67.3z M149.8,64.3c0,0.3,0,0.6,0,1c-0.8,0.1-1.7,0.3-2.5,0.4
	c0-0.1,0-0.1,0-0.2c0-0.7-0.5-1.1-0.9-1.5C147.5,64.4,148.6,64.6,149.8,64.3z"/>
<path opacity="0.2" d="M133.8,205.8c6.4,0,12.8-0.1,19.2,0.1c3.3,0.1,4.9-1.8,5.6-4.5c0.4-1.4,0.4-2.9,0.6-4.3
	c0.2-1.2,0.4-2.3,0.9-3.4c0,3.3,0,6.6,0,9.8c0,1.4,0.2,2.4,1.9,2.3c1.9-0.1,1.9-1.3,1.7-2.7c-0.4-3.1-0.6-6.2-0.9-9.3
	c0.3-0.1,0.6-0.1,0.9-0.2c0.2,0.9,0.5,1.8,0.7,2.7c0.3,2.2,0.5,4.5,0.7,6.8c0.2,1.9,1.2,2.9,3.2,2.8c4-0.1,7.9,0,11.9-0.1
	c1.7-0.3,2.5,0.2,2.5,2.1c0,1.9-0.8,2.2-2.5,2.2c-15.5,0-31,0-46.5,0c-1.7,0-2.7-0.2-2.7-2.3C131,205.5,132.3,205.7,133.8,205.8z"/>
<path opacity="0.2" d="M182.6,140.7c-3.9-2.3-4.2-7.6-0.5-10c3.6-2.3,5.5-5.9,7.3-9.5c2.2-4.7,4.9-9.1,8.9-12.5
	c1.3,2,0.8,3.9-0.5,5.8c-0.8,1.1-1.3,2.4-1.9,3.6c-1.4,2.6-3.1,4.9-6,6c-0.3,0.1-0.7,0.2-0.8,0.5c-0.8,2-2.3,4-2.2,5.9
	c0.2,3.9,0.1,7.3-3.6,9.5C182.9,140.1,182.7,140.4,182.6,140.7z"/>
<path opacity="0.2" d="M136.4,15.2c-2.2-0.2-4.3-0.3-6.5-0.5c-0.1-0.5-0.1-1.1-0.4-1.6c-0.7-1.5-1-3.2,0.3-4.2
	c1.2-0.9,3-1.5,4.5-1.7c1.8-0.2,3.7,0.1,5.9,0.2c-0.4,0.8-1,1.7-1.5,2.7C138,11.8,137.2,13.5,136.4,15.2z"/>
<path opacity="0.2" d="M134.5,99.8c3.8-0.5,6.2-2.9,7.8-6.2c1.4-2.8,2.6-5.7,4.1-8.9c0.4,6.9-4.8,14.4-11.4,17
	C134.8,101.2,134.7,100.5,134.5,99.8z"/>
<path opacity="0.2" d="M140.2,136.8c3.5-4.3,5.1-9.5,7-14.6c0.2-0.6,0.4-1.2,0.9-1.8c0,0.5,0,1-0.1,1.4c-1.6,6.8-4.5,13.1-8,19.2
	c-0.4,0.7-1.1,1.1-1.7,1.7C139,140.7,139.6,138.8,140.2,136.8z"/>
<path opacity="0.2" d="M132.8,85.8c2.7-2.6,5.5-5.1,8.2-7.7c0.2,0.2,0.5,0.4,0.7,0.7c-0.4,0.6-0.8,1.3-1.3,1.7c-2.8,1.5-4,4.1-5,6.9
	c-0.4,1.1-1,2.2-1.5,3.3C133.6,89,133.2,87.4,132.8,85.8z"/>
<path opacity="0.2" d="M181.7,175.7c-1.5-1-3.1-1.9-4.4-3.2c-1.2-1.1-0.9-2,0.8-2.1c1.4-0.1,2.9-0.1,4.3-0.1
	C182.2,172.1,181.9,173.9,181.7,175.7z"/>
<path opacity="0.2" d="M138.1,170.4c4.9-3.6,9.7-7.3,14.5-10.8c0,0-0.1,0.5-0.3,0.7c-3.4,3.2-6.9,6.3-10.4,9.4
	c-0.9,0.8-2.3,1.1-3.5,1.6C138.3,171,138.2,170.7,138.1,170.4z"/>
<path opacity="0.2" d="M160.7,58c-1,0-2,0-3,0.1c0.3-2.6,0.6-5.2,0.8-7.8c0.1,0,0.3,0,0.4-0.1C159.5,52.8,160.1,55.4,160.7,58z"/>
<path opacity="0.2" d="M168.7,67.7c-0.1-0.9-0.1-1.7-0.2-2.6c3.2,0.6,6.5,1.2,10,1.9C175,67.3,171.9,67.5,168.7,67.7z"/>
<path opacity="0.2" d="M168.5,63.4c-0.4-0.6-0.7-1.1-1.1-1.7c2.7-0.4,5.4-0.8,8.1-1.2c0.1,0.2,0.1,0.3,0.2,0.5
	C173.2,61.8,170.9,62.6,168.5,63.4z"/>
<path opacity="0.2" d="M151.4,62.1c-0.2,0.6-0.3,1.2-0.5,1.8c-2.5,1.3-4.6,0.3-6.8-0.9c0-0.5,0-1,0-1.6
	C146.6,61.6,149,61.8,151.4,62.1z"/>
<path opacity="0.2" d="M154.3,58.7c-0.5,0.5-1,0.9-1.5,1.4c-1.4-1.5-2.8-3-4.2-4.5C151.1,55.7,152.6,57.3,154.3,58.7z"/>
<path opacity="0.2" d="M165.9,59.5c-0.6-0.3-1.2-0.6-1.8-0.9c1.8-1.5,3.6-3,5.3-4.5c0,0,0,0,0,0C168.2,55.9,167,57.7,165.9,59.5z"/>
<path opacity="0.2" d="M133.9,201c1-0.2,2-0.4,3-0.6c0.1,0.1,0.1,0.3,0.2,0.4c-1,0.4-2,0.7-3.1,1.1C134,201.6,133.9,201.3,133.9,201
	z"/>
<path opacity="0.2" d="M169.4,54.2c0-0.1,0-0.1,0.1-0.2c0,0,0.1,0,0.2,0C169.5,54,169.4,54.1,169.4,54.2
	C169.3,54.1,169.4,54.2,169.4,54.2z"/>
<path opacity="0.2" d="M145.1,108.7c2.9-7.2,10.4-10.5,14.4-16.8c0.2,0.1,0.3,0.2,0.5,0.3c-0.5,1-0.8,2.3-1.5,3.1
	C154.1,99.8,149.6,104.2,145.1,108.7z"/>
<path opacity="0.2" d="M149.4,111.5c1.7-2,3.5-4,5.2-6.1c1.9-2.2,3.6-4.6,5.5-6.8c0.6-0.7,1.3-1.2,2-1.7l0,0
	C159,102.8,154.8,107.6,149.4,111.5L149.4,111.5z"/>
<path opacity="0.2" d="M138.7,126.3c-0.5-3.6,3.1-9.5,7.3-11.8C143.5,118.4,141.1,122.3,138.7,126.3z"/>
<path opacity="0.2" d="M154.3,188.8c3.5-2.1,6.9-4.3,10.4-6.4c0.3-0.2,0.7-0.2,1.2,0C162.5,185.3,158.4,187.1,154.3,188.8
	L154.3,188.8z"/>
<path opacity="0.2" d="M149.9,128.5c1.6-3.8,3.2-7.6,4.9-11.4c0.2,0.1,0.5,0.2,0.7,0.3C154.4,121.5,152.6,125.2,149.9,128.5
	C149.9,128.5,149.9,128.5,149.9,128.5z"/>
<path opacity="0.2" d="M173.3,168.8c-2.2,1.7-4.3,3.4-6.9,5.4C167,171.6,170.2,169.1,173.3,168.8z"/>
<path opacity="0.2" d="M147.3,134c-1.3,2.9-2.6,5.9-4,8.8c-0.2-0.1-0.5-0.2-0.7-0.3c1.3-2.9,2.6-5.9,3.9-8.8
	C146.8,133.8,147.1,133.9,147.3,134z"/>
<path opacity="0.2" d="M175.2,119.8c-2.4-1.8-2.6-4.5-3.4-7.1c0.2-0.1,0.5-0.2,0.7-0.3C173.4,114.9,174.3,117.3,175.2,119.8
	C175.2,119.8,175.2,119.8,175.2,119.8z"/>
<path opacity="0.2" d="M146.5,65.8c1.4-0.2,2.8-0.5,4.2-0.7c0,0.8,0.1,1.5,0.1,2.3c-1.4-0.1-2.8-0.1-4.2-0.2
	C146.6,66.7,146.6,66.3,146.5,65.8z"/>
<path opacity="0.2" d="M140.2,75c-1.2,0.8-2.6,1.5-3.7,0.3c-0.5-0.6-0.3-1.9-0.1-3.1C136.4,75.3,138.4,75.1,140.2,75L140.2,75z"/>
<path opacity="0.2" d="M179.6,114.9c-0.4-1.2-0.7-2.5-1.1-3.7c0.3-0.1,0.6-0.1,0.9-0.2C179.5,112.3,179.5,113.6,179.6,114.9
	C179.6,114.9,179.6,114.9,179.6,114.9z"/>
<path opacity="0.2" d="M175.9,167c-0.1,0-0.1-0.1-0.2-0.1c0,0,0.1-0.1,0.1-0.1c0,0,0.1,0,0.1,0.1C175.9,166.9,175.9,166.9,175.9,167
	z"/>
<path opacity="0.2" d="M154.3,188.8c-0.2,0.1-0.4,0.2-0.5,0.4c0-0.1-0.1-0.1-0.1-0.2C153.9,188.9,154.1,188.9,154.3,188.8
	L154.3,188.8z"/>
<path opacity="0.2" d="M175.7,121.2c-0.2-0.5-0.3-1-0.5-1.4c0,0,0,0,0,0C175.4,120.3,175.5,120.8,175.7,121.2L175.7,121.2z"/>
<polygon opacity="0.2" points="175.7,121.2 175.8,121.4 175.7,121.2 "/>
<polygon opacity="0.2" points="141.7,74.1 141.8,74 141.7,74.1 "/>
<path opacity="0.2" d="M141.2,74.6c-0.3,0.2-0.6,0.3-1,0.5l0,0C140.5,74.9,140.9,74.7,141.2,74.6C141.2,74.6,141.2,74.6,141.2,74.6z
	"/>
<polygon opacity="0.2" points="162.1,96.9 162.2,96.8 162.1,96.9 "/>
<path opacity="0.2" d="M149.4,111.5L149.4,111.5L149.4,111.5z"/>
<path opacity="0.2" d="M149.9,128.5L149.9,128.5L149.9,128.5z"/>
<path opacity="0.2" d="M179.6,114.9c0.2,0.2,0.3,0.3,0.5,0.5c0,0,0,0,0,0C179.9,115.2,179.7,115.1,179.6,114.9
	C179.6,114.9,179.6,114.9,179.6,114.9z"/>
<path opacity="0.2" d="M180.1,115.4L180.1,115.4L180.1,115.4z"/>
<path opacity="0.2" d="M141.7,74.1c-0.2,0.2-0.3,0.3-0.5,0.5c0,0,0,0,0,0C141.3,74.4,141.5,74.2,141.7,74.1
	C141.7,74.1,141.7,74.1,141.7,74.1z"/>
</svg>
