<?xml version="1.0" encoding="utf-8"?>
<!-- Generator: Adobe Illustrator 24.1.2, SVG Export Plug-In . SVG Version: 6.00 Build 0)  -->
<svg version="1.1" id="Layer_1" xmlns="http://www.w3.org/2000/svg" xmlns:xlink="http://www.w3.org/1999/xlink" x="0px" y="0px"
	 viewBox="0 0 639.9 210" enable-background="new 0 0 639.9 210" xml:space="preserve">
<path class="bg" fill="#64BC41" d="M425.4,40.1c-77.2,4.8-106.2,37.3-129.4,74.1c0.9,1.8,1.7,3.5,2.6,5.3c16,32.6,31.5,66.7,59.7,90.5h271.1
	h9.9C543,163.1,574.5,50,425.4,40.1z"/>
<path class="bg" fill="#64BC41" d="M298.6,119.5c-0.9-1.8-1.7-3.5-2.6-5.3c-22.5-45.3-47.6-86.4-111.9-91.8C58.8,32.2,93.6,169.2,0,210h11.3
	h199.4h10.7h130.1h6.8C330.1,186.1,314.7,152.1,298.6,119.5z"/>
<path class="fg" fill="#000000" opacity="0.2" d="M425.4,40.1c-77.2,4.8-106.2,37.3-129.4,74.1c0.9,1.8,1.7,3.5,2.6,5.3c23-37.1,50.5-69.5,126.8-74.4
	c85.3,5.8,109.2,45.9,134.5,88.3c15.3,25.6,31.1,52,60.6,71.5l8.9,5h9.9C543,163.1,574.5,50,425.4,40.1z"/>
<path class="fg" fill="#000000" opacity="0.2" d="M184.1,22.4C58.8,32.2,93.6,169.2,0,210h11.3l8.5-5.1c30.5-20.5,44.6-52.6,58.5-83.9
	c20.1-45.4,39.1-88.2,105.8-93.6c66.8,5.7,89.4,52,113.3,100.9c13.2,27,26.8,54.7,48.2,76.6l5.9,5h6.8
	C289.1,151.5,296.9,31.8,184.1,22.4z"/>
</svg>
