<?xml version="1.0" encoding="utf-8"?>
<!-- Generator: Adobe Illustrator 24.1.2, SVG Export Plug-In . SVG Version: 6.00 Build 0)  -->
<svg version="1.1" id="Layer_1" xmlns="http://www.w3.org/2000/svg" xmlns:xlink="http://www.w3.org/1999/xlink" x="0px" y="0px"
	 viewBox="0 0 320 210" enable-background="new 0 0 320 210" xml:space="preserve">
<path fill="#64BC41" d="M257.2,202.9c-14.3-32.1-28.1-38.9-57.9-54.7c1.9-4.9,3.9-14.1,2.7-19.3c6.1-5.2,10.5-6.8,18.4-7.6l-8.1-4
	L242,96.1c-7.4,0.8-25.3,3.1-32.3,5.4c2-22.6-2.2-20.8,21.1-24.7l-16.6-9l3.1-10.8c5.5-16.8,5-10.7,20.6-13.9l-15.3-7.6l-17.5-3.1
	c9.9-5.1,15.8-11.3,22-20.2l-16.6,0.9l-17.9,6.3L177.8,8.6v9.9c-3.3-1.8-10.4-4.9-13.9-6.3l2.7,10.8c2,2.9,6.1,8.2,4.9,12.1
	c-19,12.4-10.1,11.2-33,6.8c-0.2,0.2,2.4,8.9,2.5,9.4c0,1.1,0,17.1,0,17.5c-2.3,4-2.5,13.5-2.2,17.9l-25.1-11.2l-1.8,4
	c1.5,7,6.2,20,10.8,25.5c0,0,16.1,9.5,16.1,9.5s-3.1,15.3-3.1,15.3c3.4,6.3,3.4,7.2,0.9,13.9C92.2,159.1,79,165.2,60,210h199
	L257.2,202.9z"/>
<path opacity="0.2" d="M87.2,173.7l-6.7,34.1c19.4-13.1,14.8-13.2,21.1-34.1H87.2z"/>
<polygon opacity="0.2" points="148.2,190.7 135.2,210 159.5,210 "/>
<polygon opacity="0.2" points="229.4,200.4 234.3,210 253.6,210 248.2,200.4 "/>
<path opacity="0.2" d="M177.8,18.5V8.6l14.8,10.8l17.9-6.3l16.6-0.9c-6.8,10.4-17.4,19.7-29.6,22.9c-3.1-0.3-15.9,1.3-17.7-2.4
	l8.7-6.5L177.8,18.5z"/>
<path opacity="0.2" d="M206.2,118.2c6.2-2,9.1,0.4,14.2,3c-7.9,0.8-12.3,2.4-18.4,7.6L206.2,118.2z"/>
<path opacity="0.2" d="M145,81.7l0.5-11.4c1.7-3,16.2-20.5,14.5-24.2c-1.5-0.4-19.3-3.6-21.5-4.2c-0.3-0.1,2.5,9.1,2.5,9.4
	c0,0,0,15.5,0,15.5C140.7,69.8,144,78.7,145,81.7z"/>
<path opacity="0.2" d="M161.4,54.4l12.8-4c5.5,0,14.6,0.9,19.2-3.2c6.8,0.5,22.1,1.9,28.4-1.8l-7.6,22.4c-0.2,3.7,0.3,13.6-3.1,16.1
	c-0.9-17.4-10.3-22-22.5-31.2C181.7,52.1,168.1,52.8,161.4,54.4z"/>
<path opacity="0.2" d="M100.9,207.8c7-13.8,29.9-42.6,40-54.6l14.8,13.5c0,0-11.6-42.1-11.6-42.1c0.4-4-0.5-46.6,3.2-48.4
	c16.6-9.3,18.3-15.1,39.2-13.3c0,0,20.9,14.1,20.9,14.1c3.8,13.2-2.6,24.4-6.2,36.2c0.6-6.1,5.6-28.9,1.3-34.3
	c-12.9-8.8-16.4-11.9-32.6-13.3c0,0-14.1,8.1-14.1,8.1l-9.4,16l0.2,32.5c4.3,10.8,5.8,11.4,15.6,17c6.9,0.9,19.2,0.4,25.9-1.3
	c0.2,2.4-8.8,4-10.2,4.7c-10.1,1.3-15.8,0.2-25.1-3.9l3.5,30.6l-15.3-14.3c0,0-25.9,33.6-25.9,33.6c-0.9,0.5-12,24-14.1,21.5V207.8z
	"/>
<path opacity="0.2" d="M196.3,127.4l-8.2,10.3l-1,1.9l-13.3,34.1c-0.6,0.8-6.3,5.1-5.2,6.6C177.9,177.4,192.4,135.2,196.3,127.4z"/>
<path opacity="0.2" d="M185.2,163.9l13.8-10.1c-0.1,1.4,31.7,44.2,27.1,45.1l-0.5-2.7l-26.9-40.9L185.2,166V163.9z"/>
<path opacity="0.2" d="M152.2,81.7c0,0,2.8-2.9,2.8-2.9c5,1,13.6,5.3,17.6,8.4c0,0,0,10.1,0,10.1c-2.8,4.4-5.7,8.8,1.9,9.8
	c-4.2,1.9-6.6,2.6-11.1,0.8c-1.8-3.7,1.6-5,3.9-7.2c0,0,2.2-10.8,2.2-10.8C165,86.2,158.9,78.6,152.2,81.7z"/>
<path opacity="0.2" d="M178.8,86.2c6.5-0.1,14.5-2.9,20,2.5l-7.2-1.8l-11.5,1.8L178.8,86.2z"/>
<path opacity="0.2" d="M161.4,119.2c4.4-2.3,10.3-2.1,14.6-2c0,0,6.3,4.5,6.3,4.5C176.4,119.2,167.8,119.4,161.4,119.2z"/>
<path opacity="0.2" d="M176.7,106.6h3.2v2c-0.7-0.3-2.4-1.3-3.2-1"/>
<path opacity="0.2" d="M190.4,91.3c0.1,2.4-5.3,2.4-5.2,0C185.1,88.9,190.4,88.9,190.4,91.3z"/>
<path opacity="0.2" d="M163.5,88.1c0.1,2.4-5,2.4-5,0C158.4,85.7,163.5,85.7,163.5,88.1z"/>
<path d="M161.4,46.7"/>
<path opacity="0.2" d="M161.4,47.7l14.6-18l20.2,15.7C172.2,30.7,181.5,24.9,161.4,47.7z"/>
</svg>
