<?xml version="1.0" encoding="utf-8"?>
<!-- Generator: Adobe Illustrator 24.1.2, SVG Export Plug-In . SVG Version: 6.00 Build 0)  -->
<svg version="1.1" id="Layer_1" xmlns="http://www.w3.org/2000/svg" xmlns:xlink="http://www.w3.org/1999/xlink" x="0px" y="0px"
	 viewBox="0 0 201.3 476.3" enable-background="new 0 0 201.3 476.3" xml:space="preserve">
<g>
	<path fill="#101012" d="M177.2,129.2c4.1,1,8.2,1.8,12.3,2.9c3.4,0.9,7,1.6,9.7,4c0.2,2.3-2.2,1.3-3,2.3c-0.4,0.1-0.8,0-1.2-0.1
		c-0.2-0.2-0.5-0.4-0.8-0.4c-0.1,0.3-0.1,0.6,0,1c0.3,1.1,0.7,2.1,1,3.2c0.3,1.6,0.3,3.2,0.2,4.8c-1,6.5-0.9,12.9-0.2,19.4
		c0.7,5.7-0.2,11.3-0.8,16.9c-1.2,11.8-1.3,23.6-2.6,35.3c-0.4,3.3-0.4,6.7,0.2,10c2,12.4,1,24.8,0.1,37.2
		c-0.6,8.4-0.2,16.9-0.3,25.4c-0.2,17.8-1.4,35.7,0,53.4c0.7,8.6-0.5,17.1,0.9,25.8c0.8,5-0.2,10.8-0.6,16.2
		c-0.5,6.5,0.1,12.9,0.5,19.4c0.7,13.4-0.9,26.6-2.3,39.8c-0.1,1.3-0.4,2.6-0.1,3.7c0.7,1.8,2.3,2.1,3.5,3c0.8,0.7,1,1.5,0.3,2.3
		c-1.3,0.6-2.6,1.1-3.9,1.7c-4.7,2.5-9.6,4.4-15.1,2.7c-3.5-2-3.6-5.3-3.6-8.7c0-14,0-27.9,0-41.9c0-30.1,0-60.1,0.2-90.2
		c-0.3-10.3,0-20.6,0-31c-0.1-11.7-0.6-23.3-0.9-35c-0.6-28.3,0.7-56.6,1-84.8c0.1-8.1,0.9-16.3,0.9-24.4c0.1-1.4,0-2.8,0.1-4.2
		c0.1-2,0.1-4-0.7-5.9c-0.4-1.2-1.3-2.2-1.3-3.5c0.2-0.5,0.5-0.9,1-1.2C173.8,127.8,175.6,127.7,177.2,129.2z"/>
	<path fill="#54525C" d="M0.8,315.3c-0.2-2.5-0.5-4.9-0.5-7.4c0.2-9.3,0.5-18.5,0.7-27.8c0.3-0.3,0.7-0.4,1.1-0.4
		c0.5,0.2,1,0.5,1.3,0.9c0.8-0.3,0-0.7,0.1-1.1c-1.1-4.1-1-8.3-0.4-12.4c0.6-4,0.7-7.9,0.2-11.9c0.1-1,0.9-1.7,0.9-2.7
		c-0.1-0.8-0.7-1.5-0.9-2.3c-0.3-1.3-0.1-2.6,0.5-3.8c1.3-1.9,1-4.2,1-6.3c-0.5-15.9,1.3-31.8-0.1-47.7c-0.4-4.4,1.7-8.5,0.7-12.8
		c-0.1-0.9,0-1.8,0.5-2.7c1.3-1.2,2.5-2,4-0.3c1.3,3.8,1.6,7.8,1.6,11.8c0.1,15.3,0.2,30.5,0.2,45.8c-0.1,1.2-0.1,2.4,0,3.6
		c0.2,1.5,0.8,3,0.9,4.5c0.4,31.6,0.4,63.2,0,94.8c-0.9,8-1.2,15.9-0.1,23.9c0,0.9,0,1.8-0.2,2.7c-1.4,6-0.5,12-0.6,18
		c0.3,19.5,0.1,39,0.1,58.6c0,1.3-0.1,2.6-0.5,3.9c-2.7,3.3-0.6,8.6-4.5,11.4c-2.4,0.3-3.9-0.8-5-2.6c0-6.8,1.1-13.5-0.1-20.3
		c0-9.6,0-19.2,0-28.7c0.1-5.2-0.2-10.4-0.9-15.6c-0.8-5.4-1.2-10.8,0.3-16.2c1.4-8.6,0.2-17.2,0.6-25.8
		C1.5,336,1.4,325.6,0.8,315.3z"/>
	<path fill="#333239" d="M2.3,453.2c1.3,0.6,2.6,1.2,4.1,1.9c2.2-2.6,1.8-5.9,1.9-9.3c0.7-0.2,1.3-0.4,1.8-0.6
		c2.7,2.3,0.6,6.1,2.8,9.1c5.3,0.9,11.1,0.3,16.7,1.5c8-0.1,15.9,1.4,23.9,1c26.8,2.8,53.6,1.5,80.4,2c6.4-0.1,12.8-0.1,19.2,0
		c1.7,0.2,3.3-0.1,5-0.4c0.8-0.2,1.6-0.3,2.4-0.4c1.9,0,3.8-0.2,5.6,0.8c0.7,0.6,0.9,1.3,0.7,2.1c-0.5,1.3-1.5,1.9-2.9,2
		c-2.1-0.5-3.9-0.1-5.3,1.7c-0.7,0.6-1.5,1.1-2.3,1.6c-2.6,1.5-2.5,5-5,6.5c-9.9,2.1-19.9,1-29.8,0.7c-4.1-0.2-8.3-0.6-12.4-0.6
		c-28.4,0-56.8-1.9-85.2-3.1c-1.7-0.1-3.3-0.3-4.7-1.5c-7.1-2-12.1-6.9-17-11.9c-0.7-0.7-0.7-2-1-3.1c0.2-0.2,0.4-0.4,0.6-0.5
		C1.9,452.8,2.1,453,2.3,453.2z"/>
	<path fill="#222225" d="M194.2,146.2c0-1.7,0-3.3,0-5c0.6-1,1.4-2,2-3c0-0.4,0.1-0.9,0.1-1.1c1-0.3,2-0.6,2.9-0.9
		c0.7,0.6,1.4,1.2,1.5,1.3c0,10.4,0,20,0,29.6c0.1,26.1,0.4,52.3,0.5,78.4c0.1,33.5,0.1,66.9,0,100.4c-0.1,23.8-0.7,47.6-0.9,71.4
		c-0.1,11.3,0.4,22.6,0.6,34c-1.6,2.2-4.2,2.8-6.7,3.6c0-0.5,0-1.1,0-1.6c-0.7-8.1-1.1-16.1-0.7-24.3c0.6-12.6,0.2-25.3,0.1-37.9
		c0-7.2,0.8-14.3,0.8-21.4c-0.1-16.1-1.5-32.2-0.7-48.3c0.6-11.8-1.5-23.5,0.5-35.3c0.6-3.3,0.4-6.6,0.4-10
		c-0.2-19.8-0.1-39.6,0.2-59.3c0.4-20.4,0.9-40.9,0.8-61.3C195.6,152.3,196.3,149,194.2,146.2z"/>
	<path fill="#E4E7EA" d="M19.2,468.2c5.3,0.2,10.6,0.4,15.9,0.6c1.3,0.1,2.7,0.2,4,0.2c13.1,0.5,26.2,1,39.3,1.4
		c12.9,0.4,25.9,0.7,38.8,1.1c9.8,0.3,19.6,0.6,29.4,0.7c1.9,0,3.8-0.8,5.7-1.2c1.2-2.2,3.4-2.2,5.5-2.3c1.5-0.1,2.9-0.7,4.4-0.9
		c4.9-0.6,8.3-3,9.9-7.8c1.2-1.1,2.6-1.7,4.2-0.9c4.7-0.9,9.4-1.8,14.1-2.7c-0.3,1.7-0.7,3.4-1.2,6c3.2-1.8,5.8-3.2,9.2-5.2
		c-0.6,2.5-0.9,3.8-1.2,5.1c-1.4,1.2-2.8,2.3-3.7,3c-2.6,1-4.6,1.8-6.6,2.5c-9.4,3.2-18.9,5.8-28.5,8.2c-0.3,0.1-0.7,0.2-1,0.1
		c-5.2-2.1-10.3,0.6-15.5,0.1c-5.3-0.4-10.7,0.5-15.9-0.2c-11.6-1.6-23.2-0.5-34.7-0.9c-1,0-2-0.2-2.9-0.5c-2.8-0.8-5.5-0.9-8,0.4
		c-5.8-1.3-11.5-1.4-17.3-0.3c-0.8,0.1-1.7,0.6-2.4,0.3c-4.2-1.6-8.5-0.5-12.8-1c-3.4-0.4-6.7-1.1-10.6-1.8
		c-5.3,1.7-13.6,1.2-17.9-1.4C19.4,470.2,19.3,469.2,19.2,468.2z"/>
	<path fill="#AFABBB" d="M80.2,1.9c0.7-0.2,1.4-0.4,2.1-0.7c0.7,0.7,1.8,0.4,2.5,1.1c0.7,0.8,1.1,1.6,1.2,2.7
		c-1.9,4.5-2.8,9.2-2,14.1c0.8,15.3-2.4,30.4-2.9,45.6c-0.3,7.7,0.6,15.2,1,22.7c-0.3,0.7-0.9,1.2-1.7,1.4c-1.2,0.2-2.7-1.5-3.5,0.8
		c0,2,1.6,1.2,2.6,1.4c1.8,0.3,3.7,0.1,4.7,2.2c0.7,3.5,1.1,6.9-0.6,10.2c-4,2.3-8.1,3.2-12.4,1.2c-2.9-4.8-1.2-10.1-1.3-15.1
		c-0.3-12.1-0.3-24.1-0.1-36.2c0-2.5-0.3-5,1.5-7.1c0.7-0.3,1.4-0.7,2.1-1c2.6-4.7,1.5-9.7,0.9-14.6c-0.9-7.5-0.4-14.9-0.5-22.4
		c0-1.5,0.4-2.9,1.4-4.2l-0.1,0.1c0.4-0.3,0.8-0.6,1.1-1l-0.1,0C77.3,2.1,79.3,3.5,80.2,1.9z"/>
	<path fill="#101012" d="M79.4,88.4c0.7,0,1.3,0,2,0c0.5-0.7,1.1-1.1,1.9-1.3c1.5-0.3,3.1-0.2,4.6,0c1.3,0.1,2.5,0.8,3.6,0.6
		c1.7-0.1,2-1.8,3.2-2.2c3.6-1.5,7.8,0.5,11.3-1.8c1-0.4,2-0.4,3.1-0.2c3.6,1.8,7.7,1.6,11.6,2.3c1.2,0,2.3-0.1,3.5-0.2
		c1.6,0,2.9,1.1,4.5,1.4c2.6,0.6,5.5,2,6.6-2.2c0.1-0.5,0.2-1.1,0.2-1.6c0.5-10.7,0-21.3,0.2-31.9c0-2.5-0.3-5,1.6-7.1
		c0.8,0,1.6,0,2.7,0c0.1,1.1,0.4,2,0.4,2.9c0.2,12.4,0.3,24.9,0.5,37.3c0,1.6,0.6,3.1,1,5.4c-1.5,3.7-1.5,8.5-1,13.3
		c-0.6,0.6-1.3,0.7-2.2,0.5c-3.1-2.4-0.7-6.3-2.9-9.4c-1.4-1.7-3.7-1.4-6-1.3c-1.8,0-3.7-0.6-5.5,0c-1.8,0.3-3.3,1.5-5.2,1.7
		c-1,0-1.7-1-3-0.7c-0.9,1.8-1,3.8-1,5.8c1.2,1.6,2.8,1,4.2,1.1c1.6,0,3.2,0,4.6,0.7c0.5,0.3,0.8,0.8,0.8,1.4c0,1-0.6,1.6-1.5,2
		c-10.9,1-21.9,0.8-32.8,0.1c-2.2-0.8-1.8-2.4-1.2-4.1c0.9-2.6,0.2-5.2,0-7.5c-2-1.6-4.3,0.3-5.9-1.5c-3.1,0-6.2,0-9.2,0
		c-1-2.6,1-2.6,2.1-3.3C77.2,88.2,78.3,88.1,79.4,88.4z"/>
	<path fill="#AFABBB" d="M137.3,44.2c0.1,12.2,0.1,24.4,0.1,36.6c0,1.5,0.9,3.4-1.1,4.5c-1.1,0.8-2.2,1.5-3.6,1.8
		c-1.6,0.4-3.3,0.1-4.9-0.3c-0.8-0.4-1.4-1.1-1.3-2c1.2-11.6,0.4-23.1-0.7-34.7c-0.2-2,0.1-4,0.6-6.1c-3.2-2.3-4-5.5-3.7-9.2
		c0.6-8.7-1.5-17.2-1-25.8c0.1-2.1-0.2-4.3,1.4-7.3c0.2-0.5,2,0.5,3-0.5c0.7,0.1,1.4,0.1,2.1,0.2c0.3,0.3,0.4,0.7,0.3,1.1
		c1.5,0.9,3.4,1.3,3.8,3.4c0.6,9.6,1,19.2,0.9,28.9c0,2.8-0.3,5.7,1.7,8.1C135.7,43.3,136.5,43.7,137.3,44.2z"/>
	<path fill="#161619" d="M111.4,0.8c0.7,0,1.4,0,2.1-0.1c5,6.6,4.5,14.4,3.3,21.7c-1,6,1.2,11.5,0.7,17.3c-0.1,1.1,1.3,1.9,2.2,2.5
		c0.4,0.3,0.8,0.8,1,1.3c0.2,0.8,0.1,1.7-0.2,2.4c-1.5,3.2-0.9,6.6-0.6,9.8c0.9,8.4,0.1,16.9,0.2,25.3c0,1.4-0.5,2.6-2,3.6
		c-1.8,0.8-3.9,0.8-6-0.1c-2-2-2.6-4.3-2.5-7.1c0.1-5.9-1.2-11.8-1.3-17.8c0.4-6-0.1-11.9-1.6-17.6c-0.6-2.3-0.9-4.5-1-6.9
		c-0.1-8.6,0.3-17.2-0.9-25.8c-0.4-2.7-0.7-5.7,1.4-8.1c1-0.2,2.1-0.4,3.1-0.6C109.9,2.1,110.6,2,111.4,0.8z"/>
	<path fill="#030203" d="M106.2,1.2c0.5,12.9,0.9,25.7,1.4,39.5c0.2,0.3,0.9,1.4,1.1,1.6c0.6,4.8,1.2,8.7,1.4,12.6
		c0.1,1.7-0.6,3.5-0.9,5.2c-3.3,1-3-1.7-3.2-3.4c-0.5-3.2,0.2-6.5-1-9.6c0.1,7.4-2,14.9,3.3,21.7c2.7,3.5,1.4,8.8-1.8,11.5
		c0.9,1.2,3.3,0.9,3,3.2c-0.1,0.2-0.3,0.4-0.4,0.6c-1,0-2,0-3,0c-2.1,1.3-4.2,1.4-6.4,0.1c-1.6-2.4-1.2-5.1-1.2-7.7
		c0-15.9,0-31.8,0-47.7c0-4-0.3-7.9-1.4-11.8c-0.5-2.3-0.5-4.6-0.2-6.8c1.7-2.6,0.8-5.6,1.2-8.4c1.3-0.7,2.7-1.1,4.2-0.9
		C103.7,1.1,105,1.2,106.2,1.2z"/>
	<path fill="#161619" d="M184.2,127.2c-2.3,0.1-4.6,0.1-6.9,0.2c-1.7,1.1-3.6,0.7-5.4,0.8c-1,0-2,0.2-3-0.1
		c-0.4-0.2-0.8-0.4-1.2-0.6c-1.3-1.2-2.8-0.7-4.3-0.7c-3-0.4-5.9-0.5-8.9,0.4c-1.4,0.3-2.8,0.6-4.2,0.9c-1,0.1-2,0.1-2.9-0.3
		c-1-0.5-1.5-1.3-1.7-2.3c0.1-1,0.5-1.9,1.2-2.6c0.4-0.3,0.8-0.5,1.3-0.7c1.1-0.3,2.2-0.6,3.3-0.9c1.9-0.5,3.9-0.8,5.7-2.6
		c0.6-3.2,2.2-6.8-1.8-9.5c-1-0.5-2.2-0.8-3.1-1.5c-0.4-0.4-0.5-0.8-0.6-1.3c0-0.6,0.4-0.8,0.9-0.9c7.7,1.8,15.5,3.4,23.2,5.3
		c2.5,0.6,4.9,1.9,7.6,2.9c0.3,1.7,0.5,3.1,0.8,4.5c-1.4,0.9-2.2,0.3-2.3-0.2c0.5,1-0.6,2.9-0.1,5
		C181.7,124.8,184.7,125,184.2,127.2z"/>
	<path fill="#96949F" d="M126.2,1.2c-0.9,0.5-1.8,1.1-3,1.8c0.5,6.5-0.5,13.2,0.9,20c0.9,4.5,0.1,9.3,0.2,13.9
		c0,1.6,0.2,3.1,0.4,4.8c2.1,0.3,3.7,0.5,6.3,0.9c-1.7,1.1-2.6,1.6-3.3,2.1c0,4.1,0,8.1,0,12.1c-0.2,0-0.3,0-0.5,0.1
		c0.7,1.5,1.4,3,1.6,3.4c0,3.8,0,6.4,0,9.1c-0.5,3-1.2,6,0.2,9.1c0.2,0.4-0.8,4.4-1.1,4.9c-0.7,1.1-1,2.1,0.5,2.8
		c0.6,0.6,0.6,1.2,0.1,1.9c-1.4-0.5-2.7-1-4.1-1.5c-0.7-0.6-1.1-1.5-1.2-2.4c-0.5-7.3-0.2-14.6-0.2-21.9c0-6-0.9-11.9-1.4-17.8
		c-0.3-0.5-0.6-1-0.9-1.5l0,0c-1.5-1.3-1.7-3.2-1.7-5c-0.2-11.8,0.3-23.6-0.3-35.3c0-0.7,0.2-1.3,0.6-1.9
		C121.5-0.7,123.8,1.3,126.2,1.2z"/>
	<path fill="#222225" d="M71.2,46.1c0,12.8,0.1,25.6,0.2,38.3c0,0.4,0.8,0.9,1.3,1.4c-0.9,1-1.7,2-2.8,3.3c1,0.7,1.8,1.4,2.6,2
		c-2.4,4.2-0.8,8.7-1.3,13.1c0,0.9-0.3,1.6-0.9,2.3c-0.4,0.2-0.8,0.4-1.2,0.5c-0.7,0.1-1.3-0.1-1.9-0.4c-0.2-0.2-0.3-0.5-0.3-0.7
		c0-0.3,0.1-0.4,0.2-0.4c0.3-0.2,0.7-0.4,0.7-0.6c0.2-4.9,0.4-9.9-1.2-14.2c0.3-2.4,0.7-4.5,0.7-6.6c0-11.6-0.1-23.3-0.1-34.9
		c0-0.6,0.1-1.3,0.2-2.6C68.8,46.4,70,46.2,71.2,46.1z"/>
	<path fill="#54525C" d="M17.3,128.4c0.1-1.4,0.1-2.8,0.2-4.2c0.6-1.9,1-4.1,3.6-4.3c3.3,1.4,6.6,2.1,10.2,2
		c1.8-0.1,3.7-0.1,5.2,1.3c0.4,0.8,0.4,1.6-0.2,2.4c-4.5,2.1-9.4,0.7-14.1,1.3c-0.7,0-1.4-0.3-2.3,0c-0.5,0.1,0.1,0.6,0.3,0.4
		c0.6-1,1.6-0.3,2.5-0.3c19.1,0,38.2-1.6,57.3-1.2c2.8,0.1,5.8-0.6,8.4,1.1c0.8,1.2,0.8,2.4,0,3.6c-1.6,1.2-3.4,1.3-5.2,1.2
		c-8.5-0.2-17,0.7-25.4-1c-2.9-0.1-5.9-0.4-8.8,0.6c-8.2,0.6-16.5,0.5-24.7,1.3c-0.8-0.1-1.7-0.2-2.5-0.4c-1.5-0.5-3.2-0.7-4.5-1.7
		C16.7,129.8,16.6,129.1,17.3,128.4z"/>
	<path fill="#54525C" d="M70,106.1c0.4-0.7,0.8-1.3,1.3-2c3.9-0.3,7.8-0.7,11.7-1c2.3-1,4.4-0.4,6.2,1.1c11.7,0,23.3-0.1,35-0.1
		c1.5-1.4,3.6-1.3,5.3-2c2.8-0.3,5.6-1.1,8.1,0.9c1,0,2.1,0,3.1,0.1c0.2,0.9,0.4,1.9,0.6,2.8c-0.8,1.2-2.1,1.4-3.4,1.6
		c-13.9,0.1-27.8,1.7-41.7,1.2c-5.8-0.2-11.6,0.1-17.4,0.8c-2.3,0.3-4.6,0.3-6.9-0.5C70.8,108.6,70.1,107.5,70,106.1z"/>
	<path fill="#333239" d="M118.9,0.8c0.4,2.6,1.2,5.2,1.2,7.7c0.2,11.5,0.2,23,0.3,34.5c-2.6,0.8-4-0.7-4.7-1.9c0-3.8,0-6.8,0-10.5
		c-1.6-1.5-1.9-3.9-0.6-6.8c1.6-3.5,1.5-7.2,0.5-11c-0.7-2.7-0.4-5.6-0.5-7.3c-0.8-2.2-1.3-3.4-1.7-4.7
		C115.3,0.7,117.1,0.7,118.9,0.8z"/>
	<path fill="#030203" d="M138.3,106.4c1.1-0.1,2.1-0.3,3.2-0.4c0.5,0,1-0.1,1.5-0.1c2.2-1,4.1-0.6,5.8,1.2c0.5,0.8,0.8,1.7,0.9,2.6
		c-0.2,4.5,1.4,9.3-1.5,13.5l-0.4-0.1l-0.4,0c-1.4,1.3-3.1,0.3-4.6,0.4c-1.8-0.1-3.8,0.1-5.4-1C134.2,117,136.5,111.7,138.3,106.4z"
		/>
	<path fill="#96949F" d="M4.3,254.2c2.3,6.1-0.4,12.2,0,18.3c0.2,2.6,0.6,5.1,0.8,7.7c0,0.3-0.6,0.6-0.9,1c-0.3,0.5-0.6,0.5-1,0
		c-0.3-0.3-0.7-0.6-1-1c-1.6-3-1-6-0.5-9.1c0.5-11-0.5-22-0.5-33c0-1-0.1-2-0.8-2.8c-0.2-5.4-1-10.8,0.6-16.1c0.5-0.4,1-0.6,1.6-0.7
		c1,0,1.8,0.3,2.2,1.2c0.2,9.2,1.4,18.4-0.6,27.5c0,1.3,0,2.6,0,3.9C5,252.2,5,253.2,4.3,254.2z"/>
	<path fill="#AFABBB" d="M4.2,219.1c-0.6,0-1.3,0-1.9,0.1c-1.1-10.6-0.2-21.3-0.4-31.9c-0.1-3.3-0.1-6.6-1.2-9.8
		c-0.6-5.8-1.1-11.5,0.2-17.3c1.9-1.4,0.9-3.3,0.9-5c0-6,0.2-12.1-1.3-18c0.2-1,0.4-2,0.6-3.1c0.4-0.4,0.9-0.5,1.4-0.2
		c0.9,0.7,1.4,1.7,1.8,2.8c0.3,0.8,0.4,1.7,0.5,2.6c1.2,11.8,1.5,23.6,0.7,35.4c-1,2.9-0.7,5.9-0.7,8.9c0.3,10.9-0.3,21.8,0.4,32.8
		C5.2,217.4,5,218.4,4.2,219.1z"/>
	<path fill="#222225" d="M75.2,4.1c0.3,13.2,0.5,26.5,0.8,39.9c-0.9,0.4-1.8,0.8-2.6,1.2c-0.5-13.3-1-26.5-1.5-40.2
		C73.2,4.6,74.2,4.3,75.2,4.1z"/>
	<path fill="#161619" d="M134.9,42.8c-0.8,0-1.5,0.1-2.5,0.1c-0.4-13.1-0.8-26-1.2-38.8c0.4-0.5,0.9-0.6,1.5-0.4
		c2.2,1.1,1.5,3.1,1.6,4.8c0.2,9.8,0.3,19.6,0.5,29.4c0,1.1-0.2,2.3,0.3,3.3C135,41.8,135,42.3,134.9,42.8z"/>
	<path fill="#AFABBB" d="M20.1,120.3c-0.4,1.2-0.7,2.3-1.1,3.8c-0.4,0-1,0.1-1.5,0.2c-0.3-0.2-0.8-0.3-0.8-0.5
		c-0.2-4.2-1.1-8.4,0.6-12.5c0.4-0.3,0.7-0.7,0.9-1.1l0,0c0.5-0.3,0.9-0.8,1-1.4c0.1-0.3,0.3-0.4,0.5-0.5c0.5-0.2,1-0.3,1.6-0.2
		c1.1,0.5,1.5,1.4,1.4,2.6C21.3,113.6,22.5,117.4,20.1,120.3z"/>
	<path fill="#54525C" d="M21.2,108.4c-0.5-0.1-1-0.2-1.5-0.3c3.9-2.5,8.3-2.1,12.6-1.8c5.1,0.8,10.3,0.2,15.4,0.4
		c1.5-0.4,3.4,1,4.4-1.1c0.7,0,1.4,0,2.1,0c0.8,1.2,0.8,2.3-0.4,3.2c-7.6,1.3-15.2,1.2-22.9,1.5c-1.9-0.5-3.8-0.9-5.8-0.8
		C23.8,109.6,22.5,108.9,21.2,108.4z"/>
	<path fill="#222225" d="M83.3,18.2c-1.5-4-1.5-8,0.9-11.7C84.6,5.8,84.7,5,85,4.2c0.4-1,1.2-1.3,2-1.4c-0.5-0.2-1.3,0.2-1.9-0.4
		c-0.2-0.4-0.2-0.8,0.1-1.1c2.3-0.3,4.6-0.6,7-0.9c0.6,0.5,0.7,1.1,0.6,1.8c-0.2,1.1-0.6,2.1-1.1,3.1c-0.3,0.4-0.6,0.7-1,0.9
		c-0.5,0.4-1.1,0.7-1.7,1.1c-4.6,2.5-3,7.2-3.9,11C84.5,18.7,83.9,18.7,83.3,18.2z"/>
	<path fill="#54525C" d="M0.5,235.3c0.5,0.1,1,0.1,1.7,0.3c0,11.9,0,23.7,0,35.6c-0.4,0.4-0.7,0.4-1.1,0.1
		C0.9,259.2,0.7,247.3,0.5,235.3z"/>
	<path fill="#222225" d="M0.8,315.3c1.4,0,1.4,1,1.4,2c-0.1,9.6-0.1,19.3-0.1,28.9c-0.3,0.4-0.6,0.4-0.8-0.1
		C1.1,335.9,1,325.6,0.8,315.3z"/>
	<path fill="#333239" d="M184.2,127.2c-1.2-0.7-2.4-1.4-4-2.3c0.2-2.2,0.4-4.6,0.5-6.2c-0.5-1.8-0.8-3-1.1-4.2
		c0.4-0.1,0.7-0.3,1.1-0.4c0.5,1.1,0.9,2.2,1.6,3.1c0.4,0.5,1.2,0.7,1.9,1.1C185.1,121.2,185.9,124.2,184.2,127.2z"/>
	<path fill="#54525C" d="M0.6,177.4c0.3,0,0.7,0,1.6,0c0,13.9,0,27.8,0,41.7c-0.4,0-0.8,0-1.2,0c0-10.9,0-21.9,0-32.8
		C1,183.4,0.7,180.4,0.6,177.4z"/>
	<path fill="#333239" d="M54.2,108.2c0-0.8,0.1-1.7,0.1-2.5c4.3-0.1,8.6-0.1,13-0.2c0,0.3,0.1,0.5,0.1,0.8c0.8,2.4-1,2.8-2.6,3.1
		c-2.1,0.4-4.2,0.4-6.3,0.2C56.9,109.5,55.3,109.5,54.2,108.2z"/>
	<path fill="#222225" d="M2.3,453.2c-0.4,0-0.8,0-1.1,0c0-6.7,0.1-13.3,0.1-20c0.3-0.4,0.6-0.4,0.9,0c1.8,4.8,0.9,9.8,0.7,14.7
		C2.8,449.6,2.5,451.4,2.3,453.2z"/>
	<path fill="#81818C" d="M0.3,137.2c0.5,0.1,1,0.1,1.9,0.2c0,7.2,0,14.4-0.1,21.6c0,0.4-0.9,0.7-1.3,1.1c-0.1-6.5-0.3-13-0.4-19.5
		C0.3,139.5,0.3,138.4,0.3,137.2z"/>
	<path fill="#030203" d="M2.2,433.2l-0.5,0l-0.5,0c0-10,0-20,0-30c0.3-0.5,0.6-0.5,0.9,0C2.2,413.2,2.2,423.2,2.2,433.2z"/>
	<path fill="#030203" d="M1.3,346.2c0.3,0,0.6,0,0.8,0.1c0,7.7,0.1,15.4,0.1,23.1c0,0.9-0.7,1.9-1,2.8
		C1.2,363.5,1.2,354.8,1.3,346.2z"/>
	<path fill="#333239" d="M17.3,128.4c0,0.6-0.1,1.1-0.1,1.7c-0.9,1.3-2.5,1.4-3.9,1.9c-2.6,0.2-5.2-0.2-7.9-0.2
		c-0.7-0.3-1.2-0.8-1.4-1.6c2.8-0.5,5.5-1.2,8.3-1.6C14,128.3,15.6,128.4,17.3,128.4z"/>
	<path fill="#101012" d="M2.1,403.2c-0.3,0-0.6,0-0.9,0c-0.1-4.9-0.3-9.9-0.4-14.8c1.5-0.1,1.4,0.9,1.4,2
		C2.2,394.6,2.2,398.9,2.1,403.2z"/>
	<path fill="#333239" d="M92.2,2.2c0-0.6,0-1.2,0-1.8c3.4,0,6.9-1.1,10.2,0.7c-1.4,0.4-2.8,0.8-4.1,1.2C96.2,3.9,94.2,3.8,92.2,2.2z
		"/>
	<path fill="#81818C" d="M1.1,271.2c0.4,0,0.8,0,1.1-0.1c0,3,0,6.1,0,9.1c-0.4,0-0.7,0-1.1-0.1C-0.1,277.2-0.1,274.2,1.1,271.2z"/>
	<path fill="#222225" d="M48.2,107.2c-4.5,0-8.9,0-13.3,0c-0.9,0-1.7-0.5-2.6-0.8c5.3-0.1,10.6-0.2,15.9-0.3
		c0.3,0.3,0.4,0.5,0.3,0.7C48.4,107,48.3,107.2,48.2,107.2z"/>
	<path fill="#54525C" d="M147.8,107.3c-1.6-0.5-3.2-0.9-4.8-1.4c2.2-2,3.3-2.1,6.3-0.7c0.2,0.2,0.4,0.5,0.4,0.8c0,0.3,0,0.5-0.1,0.5
		C149.1,107,148.6,107.4,147.8,107.3z"/>
	<path fill="#AFABBB" d="M171.3,127.2c2,0,4,0.1,6.1,0.1c0,0.6-0.1,1.3-0.1,1.9c-1.9-0.1-3.9-0.3-5.8-0.4c-0.3-0.1-0.5-0.4-0.6-0.8
		C170.8,127.7,170.9,127.4,171.3,127.2z"/>
	<path fill="#54525C" d="M132.7,3.7c-0.5,0.1-1,0.3-1.5,0.4c-1.2-0.4-2.3-0.9-3.5-1.3c0,0,0-0.3,0.1-0.4c0.1-0.1,0.3-0.1,0.4-0.2
		c0.3-0.4,0.7-0.5,1.1-0.2C130.5,2.6,131.6,3.2,132.7,3.7z"/>
	<path fill="#81818C" d="M80.2,1.9c-0.8,2.3-2.6,1-4,1.3C77.5,2.7,78.9,2.3,80.2,1.9z"/>
	<path fill="#333239" d="M48.2,107.2c0-0.4,0-0.7,0-1.1c1.3-0.2,2.6-0.3,3.9-0.5C51.7,108.4,49.6,106.8,48.2,107.2z"/>
	<path fill="#222225" d="M4.1,130.1c0.4,0.2,0.7,0.5,1.1,0.7c0.1,0.7-0.2,1.3-0.8,1.7c-0.6,0.3-1.3,0.3-1.9,0
		c-0.1-0.2-0.3-0.3-0.4-0.5C2.8,131.4,3.4,130.8,4.1,130.1z"/>
	<path fill="#81818C" d="M135,41.3c-0.1-1.1-0.2-2.2-0.3-3.3C134.8,39.1,134.9,40.2,135,41.3z"/>
	<path fill="#161619" d="M149.3,106.1c0-0.3,0-0.6,0-0.9c1.2,0.1,2.3,0.2,3.5,0.3c-0.3,0.4-0.7,0.9-1,1.3
		C150.7,107,149.9,106.9,149.3,106.1z"/>
	<path fill="#333239" d="M85.2,1.3c0,0.3,0,0.5,0,0.8c-0.3,0.4-0.7,0.5-1.1,0.2c-0.6-0.3-1.3-0.7-1.9-1C83.3,1.2,84.2,1.3,85.2,1.3z
		"/>
	<path fill="#222225" d="M2.2,134.1c-0.4,0-0.8,0-1.2,0.1c0.4-0.7,0.7-1.4,1.1-2.1c0.2,0.2,0.5,0.5,0.7,0.7
		C2.9,133.3,2.7,133.8,2.2,134.1z"/>
	<path fill="#030203" d="M111.4,0.8c-0.4,0.4-0.8,0.8-1.2,1.2c-0.3-0.5-0.6-0.9-0.9-1.4C110,0.7,110.7,0.7,111.4,0.8z"/>
	<path fill="#81818C" d="M18.2,110.1c-0.3,0.4-0.6,0.7-0.9,1.1C17.5,110.8,17.9,110.5,18.2,110.1z"/>
	<path fill="#96949F" d="M129.4,2c-0.4,0.1-0.7,0.2-1.1,0.2c0-0.3,0-0.6,0-0.9C128.7,1.6,129,1.8,129.4,2z"/>
	<path fill="#81818C" d="M19.1,108.7c-0.3,0.5-0.6,1-1,1.4C18.5,109.6,18.8,109.2,19.1,108.7z"/>
	<path fill="#222225" d="M76.2,3.1c-0.4,0.3-0.7,0.7-1.1,1C75.5,3.8,75.9,3.5,76.2,3.1z"/>
	<path fill="#96949F" d="M173.7,142.1c0,6.8,0.1,13.6,0.1,20.4c0,2.8-0.5,5.6-0.5,8.4c-0.2,10.6-0.2,21.3-0.3,31.9
		c-0.1,10.1-0.5,20.2-0.6,30.4c0,3.8,0.5,7.6,0.5,11.4c0,4.9-0.5,9.8-0.4,14.7c0.1,12,0.5,23.9,0.6,35.8c0.1,7.6-0.1,15.3-0.1,22.9
		c-1.2,1.1-1.4,2.6-1.3,4.1c0.5,7.6-1.3,15.2-0.2,22.8c0.4,3.1-0.7,5.8-2.8,8.2c-3,3.3-4.2,7.1-2.3,11.5c0.9,2.3,1.3,4.6-1.7,5.9
		c-2.6,0-4.2-1.6-4.2-3.9c0.1-4.7-2.5-8.6-3.3-13c-0.6-4.2-0.6-8.4-0.1-12.6c0.6-1.8,0.8-3.7,0.3-5.6c-0.1-0.9,0-1.7,0.2-2.6
		c0.5-22.3,0.1-44.5,0.2-66.8c0-1-0.2-2-0.6-2.9c-0.4-0.7-0.6-1.5-0.6-2.3c0.6-1.9,1.9-3.7,0.9-5.8c-0.2-0.9-0.2-1.8-0.1-2.6
		c0.5-1.3,0-2.4-0.7-3.5c-0.3-0.8-0.3-1.6-0.1-2.5c0.7-1.2,0.2-2.3-0.2-3.4c-0.2-1.2-0.1-2.4,0.5-3.5c1.6-5.8,2-11.5-0.5-17.1
		c-0.9-7.5-1-15.1,0.1-22.6c0.4-0.7,0.9-1.2,1.8-1c-0.3-0.5-1.4-0.5-1.7-1.4c-1.2-9-1.6-18,1-26.8c3.2-2.4,4.1-0.2,4.4,2.4
		c0.9,6.8,0.1,13.6,0.5,20.4c0.5,8.1-1.7,16.2,0.2,24.3c0.4,1.6-0.1,3.4,1.9,4.5c2.7-0.9,2.3-3.2,2.3-5.3c0.2-8.7-0.5-17.3-0.4-25.9
		c0.1-6.1,1-12.1-0.4-18.1c-0.2-0.8,0-1.7,0.2-2.5c2.1-5.8,3.1-11.6,0.3-16.8c0.5-2.5,2.2-3.2,3.4-4.3c0.4-1.8-1.7-2.9-0.9-5.3
		C169.9,142.8,170.9,140.8,173.7,142.1z"/>
	<path fill="#81818C" d="M158.2,354.2c1.3,3.1,2.7,6.1,4.1,9.4c-0.4,1-0.8,2.3-1.4,4.2c0.9,0.9,1.9,1.9,3.1,3.1
		c1.1-1.2,1.8-1.9,2.3-2.5c-1.1-3-2.1-5.6-3.2-8.6c2.1-3.4,4.2-6.8,7.3-11.8c0.7-3.3-1.6-8.3-0.4-13.7c1.1-5,0.2-10.5,0.2-15.9
		c1.2-0.1,2-0.2,2.8-0.3c0.1,12,0.3,24,0.3,35.9c0,34,0,67.9,0,102.5c0.2,1,3.5,0,2.9,2.6c-1.3,0.5-2.6,1-3.8,1.5
		c-0.4,0-0.9-0.1-1.3-0.1c-1.5-0.3-3.1-0.1-4.3-1.3c-2.2-0.9-4.4-1-6.6,0c-0.6-0.1-1.2-0.2-1.8-0.3c-2-1.8-1.6-4.2-1.6-6.5
		c-0.2-27.7-0.1-55.4-0.1-83.1c0-3.3-0.2-6.6-0.5-9.9C155.9,357.5,155.2,355,158.2,354.2z"/>
	<path fill="#161619" d="M194.2,146.2c1,0.4,2,0.8,3,1.2c0,16.6,0.3,32.7-0.2,48.8c-0.1,3.7,0.9,7.5,0.1,11
		c-1.5,6.3-0.5,12.5-0.8,18.8c-0.1,1.9,0.6,3.9,0.8,5.8c0.1,1.3,0.2,2.7,0.1,4c-0.3,3.3-0.9,6.5-0.9,9.8c-0.1,11,0.1,22-0.1,33
		c-0.1,8.8-0.8,17.5-0.9,26.3c0,4.1,0.7,8.2,1.1,12.4c-0.8,0.6-1.6,1.2-2.6,2c0.8,1.4,1.6,2.7,2.3,3.9c-1.7,6.3-1.2,12.8-0.6,19.2
		c0.2,2.4-0.6,4.4-0.4,6.6c0.6,6.2,1.4,12.6,1,18.8c-1.7,21.4-0.4,42.8-0.9,64.3c0,1.8-1,3.5-0.9,5.3c0.3,4.4,1,8.7,1.6,13.4
		c-0.4,0.6-1.1,1.5-1.7,2.5c-1.9-0.3-3.8-0.6-6-1c0.4-3.7,0.7-6.9,1.1-10.1c0.5-4.1,1.1-8.1,1.6-12.1c0.1-1.1,0.4-2.3,0.4-3.4
		c0-9.2,0-18.3,0-27.5c-0.6-0.8-1.2-1.6-2.1-2.7c4-7,0.4-14.6,1.1-22c3.2-3.8,2.4-5-0.2-8.3c0.4-4.2,1-8.6,1.1-13
		c0-2.5-0.8-5.1-1.4-8.8c0.8-4.1,0.7-9.5,0-14.9c-0.2-1.3-0.6-2.6-0.5-3.9c0.2-4,0.8-7.9,0.9-11.9c0.2-5.8,0.1-11.7,0-17.5
		c0-4.7,0.6-9.4,0.1-14.1c-0.3-2.5,0.4-5.2,0.6-7.8c-0.3-3.2-0.6-6.5-0.9-9.5c0.8-1.6,1.4-3,2.1-4.3c-1.5-3.8-1.3-7.8-0.5-11.7
		c0.7-3.5,0.2-6.7,0-10.2c-0.5-8.1-3-16.3-0.4-24.5c0.2-0.6,0-1.3,0.1-2c0.3-7.8,0.5-15.5,1-23.3c0.4-6,1.3-12,1.9-18.1
		c0.1-1.2,0.3-2.4-0.1-3.5c-1.9-5.7-0.5-11.5-0.8-17.3C193.2,148.7,193.9,147.4,194.2,146.2z"/>
	<path fill="#AFABBB" d="M173.7,142.1c-2.6-0.5-2.6,2.5-5,2.8c1.7,1.9,2.9,3.2,4.1,4.6c-1.9,1.1-3.8,2.2-5.9,3.5
		c1.2,2.3,2.3,4.3,3,5.7c-0.4,3.3-0.7,5.9-1.1,9.1c-0.3,0.5-1,1.4-2.2,3c0.6,2.9,1.2,6.2,2,9.5c0.5,2,1,3.8-0.6,5.6
		c-0.5,0.6-0.9,1.5-0.9,2.2c0.2,3.3,0.5,6.6,0.8,9.9c0.1,1,0.2,2,0.2,3c0,7.2,0,14.3,0,21.5c-1.4,1-2.6,2-4.5,3.3
		c-0.9-1.1-1.7-2.1-2-2.4c-0.6-4.1-1.3-7.3-1.4-10.6c-0.1-2.6,0.3-5.2,0.6-7.8c0.4-3,0.7-5.9-0.2-7.8c0-3.6,0-6.3,0-9
		c0.9-4.5,1.2-9-1.2-13.3c2.5-2.8,2.3-3.4-1.6-4.4c-1.7-1.4-2.1-3.4-2.1-5.4c0-9.5-0.4-19,0.1-28.5c0.1-1,0.7-1.8,0.8-2.8
		c0-0.4,0.1-0.9,0.2-1.3c0.2-0.4,0.5-0.7,0.8-0.9c0.9-0.7,0.9-1.8,1.7-2.6c1-0.8,2.2-0.9,3.4-1c3,0,5.9,0.3,8.4,2.3
		c0.7,0.7,1.5,1.3,2.2,2c-0.5,0.6-1.4,0.8-1.8,1.7c0.3,1.6,1.5,2.8,2.1,4.3C173.7,139.5,173.7,140.8,173.7,142.1z"/>
	<path fill="#96949F" d="M173.7,138.3c-3.1-0.6-2.8-3.7-4.6-6c1.7,0,3,0,4.3,0C173.5,134.2,173.6,136.2,173.7,138.3z"/>
	<path fill="#222225" d="M171.2,130.2c-2.9-0.4-5.8-0.8-8.7-1.2c-0.3-0.2-0.5-0.4-0.5-0.6c0-0.3,0.1-0.5,0.1-0.5
		c0.7-0.8,1.6-1,2.5-1.3c1-0.4,1.9-0.4,2.8,0.2c0.9,1.5,2.8,0.3,3.9,1.4c0.1,0.2,0.2,0.4,0.1,0.6
		C171.3,129.3,171.3,129.8,171.2,130.2z"/>
	<path fill="#161619" d="M196.2,138.2c0.3,0.8,0.7,1.6,1.1,2.8c-1.3,0.1-2.2,0.2-3.1,0.2c-0.3-1-0.7-2-1-3c0.7-0.5,1.3-0.6,2,0
		C195.6,138.2,195.9,138.2,196.2,138.2z"/>
	<path fill="#222225" d="M195.2,138.2c-0.7,0-1.4,0-2,0c-0.7-1.7-0.7-1.7,1.8-2.9C195.1,136.3,195.2,137.2,195.2,138.2z"/>
	<path fill="#161619" d="M21.2,131.1c0.7,0,1.3,0.1,2,0.1c1.2,1.4,1.1,2.7,0,4c-1.1,0.8-2.3,0.3-3.5,0.4c-3.9,0.3-5.8,2.5-5.1,6.3
		c1.8,10.9,1.4,21.8-0.5,32.7c-0.7,3.9,1.7,7.7,1.5,12.2c-1.9,2.3-2.1,5.4-2,8.7c0.1,4.8,0.4,9.7-0.1,14.5
		c-0.9,8.2,2.3,15.3,5.2,22.5c1,2.5,1.7,4.9,1.9,7.6c0.2,3.1,0.1,6.4,2.4,8.8c2.2,0.6,3.3-0.3,4-2.1c0.2-1.8-1.4-3.1-1.2-5.9
		c4.9-5.6,10.1-12.1,9.2-21.2c0.1-1.1,0.4-2,1.2-2.8c0.6-0.5,1.2-0.9,2-1.1c0.5-0.1,0.9,0,1.4,0.2c2.5,3,5.6,1.6,8.6,1.1
		c0.9-0.1,1.8,0,2.7,0.2c0.9,0.2,1.7,0.5,2.6,0.5c1.4,0.1,2.7-0.4,4-0.2c0.7,0.2,1.3,0.5,1.9,0.9c1.5,0.8,3.3,0.3,4.9,1.6
		c1.6,2.4,0.7,4-1.8,5.4c-6.1,3.5-6.9,8.6-2,13.5c3.4,3.4,4.3,8.2,1.5,12.2c-2.5,3.6-2.8,7.3-2,11.4c0.7,3.5,0.5,6.7-2.1,9.3
		c-2.9,2.8-1.2,6.3-1.8,9.5c-0.9,5.1-1.7,10,2.6,14.5c1.9,2,2.1,5.5,1.2,8.5c-0.6,1.9-2.9,0.7-3.7,2.1c-4.1,7.4,1.3,14.6,0.6,21.9
		c1.1,1.3,3.3,0.8,4.8,3c1.5,3.3-0.8,5.1-4.3,6c-3.3,0.8-5.6,2.6-6.7,6c-0.3,2.3,0.1,4.7-1.7,6.6c-2,1.4-4.1,0.6-6.9-0.1
		c-1.6,0.3,0.3-4.4-2.9-3.1c-1.1,2.4-0.7,4.8-0.3,7.2c0.1,0.7,0.1,1.4,0.1,2c-0.2,1.4-0.9,2.9,0.2,4.3c0.9,0.8,2,0.6,3,0.4
		c0.6-0.1,1.3-0.1,1.9,0.1c1.1,0.5,2.2,1.1,3.5,0.9c0.7,0,1.3,0.1,1.9,0.6c0.3,0.4,0.4,0.8,0.5,1.3c-1,6.4-0.3,12.9-1.4,19.2
		c5.1,7.9,5,9.5-0.8,12.6c0.6,1.6,3.3,1.9,2.9,3.4c-0.2,2.8-3.6,2.6-3.4,5.2c1.9,0.7,3.8-1.4,6.4,0.7c1,1.1,1.4,3.4,2.1,5.4
		c-0.1,1.8-1.5,2.3-2.5,3.2c-0.6,0.4-1.2,0.8-1.9,1c-1.1,0.3-2.3,0.3-3.4,0.5c-0.4,0.1-0.9,0.1-1.3,0.3c-1.7,1.3-1.3,4.2-4.2,4.9
		c-1.7,0.2-2.5-1.1-3.1-2.7c0.2,1.7,1.2,2.6,1.9,2.9c3,0.7,3.4-2.4,5.5-1.9c4.4,1.4,6.8,5.8,11.1,7.3c1.3,0.4,1.5,2.1,1.7,3.4
		c0.3,2.5-0.2,5-0.2,7.5c0,2.6,3.1,4,2.6,7.2c-4.2,3.9-3.4,11.1-8.6,14.8c-8-0.3-16-0.7-24-1c-1.5-2.1,1.2-3.2,1.2-3.9
		c-0.1-6.1,0.2-11.2-1.1-16.3c-0.8-3.4,1.9-6.2,2.8-9.4c0.2-0.3,0.3-0.5,0.2-0.8c-0.3,0.1-0.6,0.2-1,0.2c-3.5-0.8-6.2-3-9.4-4.5
		c-1.9-0.9-3-2.7-3-4.9c0-4-0.3-8.1,1.4-11.8c4.8-10.8,5.2-21.6,0.6-32.5c-1.6-3.7-0.1-6.8,2.1-9.7c1.2-1.2,3-1,4.2-2.1
		c1.4-1.1,3.3-1.5,4.3-3.8c-2-0.3-3.3,1.6-5.2,1.2c-4.4-1.9-6.2-4.7-5.1-8.5c1-3.6,3.6-4.5,9.9-3.4c0.5-1.6-1-1.8-1.7-2.6
		c-0.5-0.3-1.1-0.7-1.6-1c-0.4-0.2-0.7-0.4-1.1-0.6c-2-0.9-3,0.5-4.1,1.7c-0.9,0.9-1.8,1.6-3.2,1.5c-2-0.4-2.6-2.2-1.7-3.4
		c4-5.5,1.4-11.5,1.6-17.3c0.1-2.5,0.2-4.9,1.4-7.4c-2-3.2-2.4-6.6-1.9-10.4c0.4-3.1-0.3-6.3-1.3-9.3c-1.4-4.3-2.1-8.7-1.6-13.2
		c0.1-0.7,0.3-1.4,0-2c-3.3-7-0.8-14.4-1.2-21.6c-0.3-6.9-2.3-13.5-3.7-20.2c-0.2-1-0.5-2-0.7-3c0.8-1,0.8-2,0-2.9
		c-0.1-14.4-0.1-28.9-0.3-43.3c-0.1-5.3-0.6-10.5-0.9-15.8c-0.6-0.7-1-1.4-1.2-2.3c-0.3-3.2-0.2-6.4-0.2-9.6c-0.1-2-0.1-4,0-6
		c0.2-5.8-0.3-11.7,0.2-17.4c0.2-2.3-1.4-4.1-1.3-6.2c1.1-3.3,4.3-2.1,6.5-2.9C15.8,131.3,18.5,130.3,21.2,131.1z"/>
	<path fill="#101012" d="M33.2,426.2c0.7,3.8-2.3,6.4-3.1,9.7c0.7,4.6,3.8,9,0.8,13.7c0.9,1.4,1.6,2.6,2.5,3.9
		c-1.8,1-4.4,0.8-4.1,3.7c-6.2-0.5-12.3-0.9-19.1-1.5c0-3.5,0-7,0-10.6c0-19.3,0.1-38.6,0.1-57.9c0-2,0.1-4,0.1-6
		c1.9-5.9,0.6-12,0.8-18c0-0.6,0-1.2,0-1.9c0.2-7.7,2.2-15.4,0-23.1c0-32.3,0-64.7,0-97c0.9,0.1,1.9,0.2,3.1,0.3
		c-0.4,2.1-0.8,3.8-1.3,6.1c0.6,0.4,1.5,0.8,1.5,0.8c0.3,2.1,0.4,3.5,0.7,4.8c1.5,6.2,1.6,12.3,0.3,18.5c-0.8,3.8,0.2,7.1,2.7,10.2
		c-1.9,4.8-1.1,9.7,0.3,14.4c1.1,3.5,2,6.9,1.9,10.6c0,0.8,0.5,1.5,0.9,2.5c-0.6,0.8-1.2,1.7-1.9,2.8c1.4,2.2,2.9,4.5,4.5,7.1
		c-1.4,0.7-2.4,1.1-3,1.4c0,3.2,0,6.2,0,10.1c5,4.7-1.3,8.8-2.5,13.9c0.8,0.2,1.5,0.4,2.2,0.6c0.4,2.2-0.9,3.9-1.6,5.7
		c-0.3,0.4-0.6,0.6-1,0.8c0.5,0.1,0.8,0.4,1,0.7c0.6,4,3.9,6.4,5.9,9.5c0,0.5-0.2,0.9-0.5,1.2c-0.9,2-1.9,4.1-3.1,6.8
		c1.1,2.4,2.4,5.3,4.1,9.1c-0.2,0.6-0.6,2.2-1,4.1c1.9,2.2,2.5,4.5,1.3,7.8c-1.2,3.4-1,7.4-1.5,11.7c-0.6,0.7-1.5,1.8-2.7,3.3
		c-0.4,4.1-0.8,8.5-1.2,13.4C24.2,421.9,28.3,424.9,33.2,426.2L33.2,426.2z"/>
	<path fill="#81818C" d="M4.2,219.1c-1.7-11.9-0.6-23.9-0.9-35.9c1.6-0.9,0.1-4,2.9-4c2.1,1.5,1.2,3.7,0.8,5.4c-1,4.8-1,9.4,0,14.2
		c0.4,1.8-0.1,3.8,0,5.8c-0.1,2.4-0.3,4.7-0.4,7.1c-0.1,1.5-0.3,3-0.3,4.4c0,10.1,0,20.3,0,30.7c-0.8,0.2-1.4,0.4-2,0.5
		C4.2,237.9,4.2,228.5,4.2,219.1z"/>
	<path fill="#81818C" d="M9.2,174.2c0,0.7,0,1.3,0,2c-1,0.3-2,0.7-3,1c-1.7,0.4-1.7-0.9-2-2c0-8.4,0.1-16.9,0-25.3
		c-0.1-3.9-0.6-7.8-0.8-11.7c4.2-1.6,4.7,1.4,4.5,4.2c-0.5,4.7,1.3,9.2,0.2,13.9c-0.2,0.9,0.6,1.5,1.1,2.2c0,1.9,0,3.9,0,5.8
		C7.1,167.5,7.9,170.8,9.2,174.2z"/>
	<path fill="#030203" d="M11.2,338.2c1,0.4,2,0.8,2.5,0.9c-0.2,4.2-0.2,7.9-0.7,11.6c-0.5,3.5,0.8,7.4-1.8,10.6
		c-0.7-4.3-1.4-8.7-0.1-13.1c0.3-1-0.5-2.2-0.5-3.3C10.7,342.6,11,340.4,11.2,338.2z"/>
	<path fill="#030203" d="M11.1,363.1c0.4,0.6,1,1.3,1.1,1.9c0.1,5.1,0,10.3,0,15.7c-0.7,0.2-1.3,0.3-1.9,0.4c0-4.6-0.1-9.2,0-13.8
		C10.3,365.9,10.8,364.5,11.1,363.1z"/>
	<path fill="#96949F" d="M4.2,175.2c0.7,0.7,1.3,1.3,2,2c0,0.7,0,1.4,0,2c-0.4,1.1-0.9,2.2-1.5,3.7c-0.2,0-0.8,0.2-1.4,0.3
		C3.7,180.5,2.2,177.7,4.2,175.2z"/>
	<path fill="#101012" d="M10.4,235.2c1.2,0,2.1,0.4,1.7,1.7c-0.2,0.5-1.1,0.8-1.7,1.3C10.5,237.2,10.5,236.2,10.4,235.2z"/>
	<path fill="#81818C" d="M4.3,254.2c0-1,0-2.1,0-3.1c1,0,1.9,0.2,1.9,1.5C6.2,254,5.3,254.2,4.3,254.2z"/>
	<path fill="#81818C" d="M3.2,281.2c0.3,0,0.7,0,1,0c-0.1,0.6-0.1,1.2-0.2,1.7c-0.2,0-0.3,0-0.5,0C3.4,282.3,3.3,281.8,3.2,281.2z"
		/>
	<path fill="#101012" d="M49.3,343.3c0-0.7,0-1.3,0-2c1.4-1.6,2.8-3.1,4.5-5c1.2-0.1,2.9-0.2,5-0.3c0.7-0.8,1.7-1.8,2.8-3.1
		c-0.7-1.1-1.3-2-2-3c-1.4,0.4-2.7,0.7-4,1.1c-0.6-0.7-1.1-1.3-1.7-2.1c0.8-1.4,1.5-2.6,2.2-3.8c-2.5-5-3.1-10.4-2.9-15.4
		c1-2.7,1.8-5,2.8-7.8c0.8,1.1,1.5,2.1,2.3,3.3c2.5-3.5-1.3-6.3,0.1-9.4c-1.4-0.6-2.6-1.1-3.7-1.6c-1.4-4.6-0.9-9,0-13.5
		c0.4-2.1-0.3-4.4-0.5-7.1c1.4-1.5,3-3.1,5-5.2c-0.4-4.5-0.8-9.4-1.2-14.3c1.4-1.6,2.7-3.1,4-4.5c0.3-7.5,1.6-7.5-5.7-12
		c0-1.3,0-3,0-4.6c0-1.7,0-3.3,0-4.9c1.4-3.6,5.2-3.1,7.8-4.7c0-0.9,0-1.9,0-3.4c-1.9,0.3-3.6,0.5-5.5,0.8c-0.1-0.6-0.2-1.2-0.3-1.8
		c0.5-3.2-0.3-6.6,1.9-9.4c2.2-1.6,4.4-3.5,7.1-0.6c2.5,2.3,0,6.2,2.5,8.5c0.9,0.1,1.7,0,2.6,0.2c0.4,0.2,0.8,0.5,1.1,0.8
		c0.3,0.3,0.5,0.7,0.7,1.1c2.7,4.5,4.4,0.5,6.3-0.8c1.5-1.3,3.4-0.8,5.1-1.2c2.1-0.5,3.5-1.6,4-4c-0.2-1.6-1-2.9-2.1-3.7
		c-2.3-1-4.2-0.2-6.1-0.2c-0.4,0-0.6-0.5-1-0.6c-0.1,0.6,0.5,0.8,0.6,1.2c-0.7,2.9,1.3,6.1-0.9,8.9c-0.8,0.7-1.7,0.7-2.7,0.2
		c-2.1-2.2-1.2-4.9-1.5-7.9c-1.6,1.5-3.3,2-5.2,1.2c-1.6-0.9-2.1-3-3.8-3.8c-1.3-1.8-1.1-3.7-0.1-5.7c4-3.5,7.9-2.5,11.5,0.9
		c1.5-1.5,0.6-3.1,1-4.4c0.6-1.9-0.1-3.8,0-5.7c0.1-0.4,0.3-0.8,0.5-1c0.3-0.2,0.8-0.1,1-0.3c0.4-0.6,0.2,0.2-0.3-0.2
		c-0.8-0.4-1.4-0.8-1.8-1.6c-0.1-0.4,0-0.9,0.2-1.3c2.2-4.3-2.3-3.7-3.8-5.3c-0.3-0.4-0.4-0.9-0.4-1.3c0-0.5,0.2-0.9,0.4-1.3
		c1.3-1.9,3.5-3,4.3-5.8c-3.9-0.6-6.8-2.3-7.1-6.5c-0.4-4.4,2.4-6.6,6.1-7.7c-0.4-2-2.9-1.8-2.8-3.9c0.7-6.2,6.4-5.9,10.9-7.7
		c-1.8-0.1-3,1.1-5.1,0.4c-2.4-1.3-2.7-3.9-2.4-6.9c2.6-2.4,5.3-1.4,8-0.9c-1-5.1,1.2-9.2,4.4-12.9c0.9-0.5,1.9-0.5,2.8-0.1
		c4,4.1,7,0.7,10.2-1.4c4-0.8,8-0.3,12-0.5c5.8,0.1,11.7-0.4,17.5,0.3c2.6,0.9,4.6,3.1,7.5,3c2,0.1,2.1-2.1,3.6-2.5
		c1.5-0.3,2.7,0.2,3.1,1.8c0,2,0.4,4-0.6,5.7c-2,1.7-4.4-0.1-6.4,1c-1.5,1.6-0.7,3.4-0.1,5.1c1.7,4.3,2.2,8.7,1.9,13.3
		c-0.3,6.3,0.8,12.6,0.7,18.9c-0.2,27.3-1.7,54.5-2,81.8c-0.2,14-0.3,27.9-0.8,41.9c-0.5,13.4-0.5,26.9-0.6,40.3
		c-0.1,15.8,0.3,31.6,0.7,47.3c0.2,8.8-0.6,17.6-0.3,26.4c0.1,2.6,0.9,4.8,1.8,7.2c2.4,6.8,4.4,13.7,0.3,20.7
		c-0.5,0.9-1,1.9-0.8,2.8c1.2,7.3-3.9,12-7.3,17.4c-18.5,0-37,0.1-55.4-0.1c-7-0.1-14-1.2-21.1-1.8c-1.5-0.1-3,0-4.5-0.1
		c-0.7-3.3,2.5-4.4,4-6.9c0-1.6,0-3.6,0-5.8c1.3-0.7,2.6-1.3,3.9-1.9c0.7-3.1-2.9-3.7-3.7-6.7c1-3.1,1.5-6.9,0.5-10.4
		c-2.7-1.4-6.1-2-6.9-3.8c-1.1-2.5-4.4-2.1-4.9-4.8c-0.4-0.6-0.5-1.2-0.4-1.9c0.2-1.1,0.7-2.1,1.5-2.8c1.3,0,2.6,0,4,0
		c1.9,1.6,0.7,4.2,1.7,5.9c1.1,0.9,2,0.6,2.8,0c0.3-0.3,0.6-0.6,0.8-0.9c1.8-4.3-3.2-3.6-4.3-5.7c0.8-0.6,1.6-1.3,2.4-1.9
		c-0.7-1.8-1.4-3.8-2.3-6.2c-2.5-2.3-3.8,3.7-6.9,1.2c0-1.1,0-2.7,0-4.5c1.5-0.5,3-0.9,4.6-1.5c-0.6-3.4-6.1-1.8-5.7-6.4
		c1.4,0.3,2.8,0.5,4.6,0.8c0.5-0.6,1.2-1.5,2.1-2.6c0.5-3.9-2-6.2-5.1-8.2c1.2-3,4-5.8,1.2-8.9c0.7-4.3,1.4-8.3,2.1-12.3
		c3.1-1.4,1.7-5.8,4.7-7.3c1.9,0.2,2.2,1.7,2.7,3c0.4,0.8,0.1,2,1.6,2.5c2.1-0.8,3.5-4.4,6.8-2.7c1.4,1.2,3.2,1.3,4.9,1.8
		c1.7,0.9,3.5,1.7,4.7-0.7c1.2-1.2,1.2-3.5,3.3-4c3.3,0.7,0.6,3.9,2.3,5.3c0.9,0.5,1.5-0.1,2-0.8c1-1.8,0.5-4.3,2.8-5.4
		c4,0.2,4.2,5.3,8.2,6.2c1-4.6,0.5-9.1,0.3-14.1c-1.8,1.7-0.9,3.6-1.8,5c-0.3,0.7-0.9,1.1-1.6,1.4c-2.5-0.2-3.3-2.5-4.7-4
		c-1.3-1.4-2.2-3.4-4.7-3.3c-2.9,2-0.5,5.7-2.5,8c-1.7,0.6-1.8-0.8-2.5-2.2c-1.7,1.1-3.5,0.9-5.2-0.4c-0.9-0.9-1.4-1.9-1.2-3.2
		c0.9-2,0.9-3.8-1.5-5.4c-4.4-0.6-9.4-2-12.8,3.3c-0.4,0.5-1.2,0.5-1.8,0.4C52,345,50.5,344.3,49.3,343.3z"/>
	<path fill="#030203" d="M134.2,460.2c0.1-4.5,3-7.5,6.1-10.7c-0.1-2.3-0.3-4.7-0.4-7.1c-0.3-0.1-0.5-0.1-0.8-0.2
		c1.3-1.9,2.5-3.8,4.2-6.2c0-6.6,0.5-13.9-5.1-19.9c0.8-2.2,1.7-4.4,0.3-6.9c-0.5-0.9,0-2.6,0.3-3.8c0.8-2.8,0.8-5.5-0.3-7.9
		c1.3-9,1-17.7,0-26.3c0.5-2.5,0.6-4.8,0.2-7.6c-0.7-4.8,0.2-9.9,0.4-14.8c0.1-1.8,0.6-3.8,0.1-5.4c-1.4-3.8-1.1-7.4,0.4-11
		c-1.2-3.1-1.7-6-0.4-9.2c0.6-1.3-0.2-3.2-0.3-4.8c-0.2-2.8-0.7-5.7-0.3-8.3c1.5-8.4,0.6-16.8,0.5-25.2c0-1.7,0.2-3.4,0.3-5.1
		c0.3-12.6,0.7-25.2,1-37.8c0.1-7.2-0.5-14.4,0.2-21.5c0.9-9.9,0.7-19.8,0.9-29.8c0.1-3.9,1.1-7.9,0.9-11.8
		c-0.6-9.1-1-18.2-0.9-27.4c0-3.7-0.9-7.1-2.9-10c0-2.3,0-4.5,0-7.1c2.9,0.6,5.5,1.2,8.1,1.8c1.7-1.6,0.4-2.5-0.6-3.1
		c0.5-1,0.9-2,1.3-2.9c0.7-0.9,1.2-2,2.4-2.3c0.5,0,1-0.1,1.5-0.2c1.4-0.3,2.7-0.4,3.6,1.1c0.2,0.6,0.2,1.2,0.1,1.8
		c-0.9,4.9,0.7,9.6,0.7,14.4c0.2,19.6,0.3,39.3-0.1,58.9c-0.2,9.5-0.3,18.9-0.3,28.4c0,10.8,0.3,21.6,0,32.3
		c-0.6,17.1-0.8,34.3,0.2,51.4c0.8,12.3,0.4,24.6,0.4,36.9c0.1,27.1,0,54.3,0.1,81.4c0,5.3,1.2,10.6,0.8,15.9c-0.3,3.5-0.2,7-2.5,10
		C147.6,460.2,140.9,460.2,134.2,460.2z"/>
	<path fill="#161619" d="M154.2,460.2c0.3-5.3,1.3-10.6,0.9-15.8c-1.8-20.9-0.6-41.8-0.8-62.7c-0.3-20.8,0.7-41.7-0.3-62.4
		c-0.8-16.9-0.3-33.8-0.7-50.8c-0.1-2.4,0.7-4.8,0.9-7.3c0.2-1.8,0.4-3.7,0-5.5c-1.4-6.4-1.4-12.7,0-19.1c0.4-1.6,0.5-3.4,0-5
		c-1.8-5.6-0.5-11.2-0.9-16.8c-0.1-0.8,0.3-1.6,0.3-2.4c0.1-2.2,0.2-4.4-0.1-6.6c0.3-1.9,0.7-3.9,0.7-5.8c0.1-18,0.1-36,0-54
		c0-4.5-1.1-9.1-1.7-14.2c0.3-0.5,1.1-1.6,1.8-2.7c0.5-0.5,1-0.3,1.6-0.1c0.3,0.2,0.6,0.5,0.8,0.8c0.3,0.5,0.5,1,0.6,1.6
		c0,0.2,0,0.4,0,0.6c-0.1,0.3-0.1,0.7,0,1c0.2,0.3,0.3,0.7,0.1,1.1c0,10.4-0.1,20.8,0,31.2c0,1.6,0.4,3.3,0.6,4.9
		c-0.2,7.7-0.5,15.4-0.7,23.1c0,1.6,0.2,3.2,0.3,4.9c0.2,0.3,0.2,0.6,0,0.9c0,8-0.1,16-0.1,24c1.2,5.7,1,11.4,0.1,17.1
		c0,1.3,0,2.6,0,3.9c0.3,0.7,0.3,1.4,0,2.1c0,1,0,1.9,0,2.9c0.6,1,0.6,2,0.3,3.1c0,1,0,1.9,0,2.9c0.3,1.7,0.5,3.5-0.3,5.1
		c0,0.6,0,1.3,0,1.9c0.6,1.4,0.6,2.9,0.6,4.4c0,22.6,0.1,45.1,0,67.7c0,0.7,0,1.3,0,2c0,1.3,0,2.7,0,4c0,4.7,0,9.3,0,14
		c-0.3,1.6-0.8,3.1-0.7,4.7c0.1,3.3,0.6,6.6,0.6,9.9c0.1,29.6,0.1,59.2,0.2,88.8c0,0.5,0.1,1,0.1,1.5
		C157.4,461,155.6,459.9,154.2,460.2z"/>
	<path fill="#AFABBB" d="M172.4,460.7c-0.6,4.9-1.9,6.5-6.5,7.5c-2.6,0.6-5.3,1.2-7.9,1.7c-1.3-4.6,3.1-5.5,5.2-7.9
		c1-0.3,2-0.6,3-0.9c1.8-1.6,3.9-1,6-1L172.4,460.7z"/>
	<path fill="#54525C" d="M163.2,462.1c-0.5,1.2-0.9,2.4-1.5,3.8c-2.5,0-3.7,1.4-3.7,4c-1.9,0.4-3.9,0.7-5.8,1.1
		c0.2-2.7,0.4-5.3,3.8-5.9c0.7-0.5,1.9-0.3,2.2-1.4C159.5,460.7,160.3,460.5,163.2,462.1z"/>
	<path fill="#54525C" d="M172.2,460.2c-2,0.3-4,0.7-6,1c0-0.6-0.1-1.2-0.1-1.8c0.1-0.2,0.3-0.5,0.4-0.7c0.2,0.1,0.4,0.3,0.7,0.4
		C168.8,459.7,170.9,458.1,172.2,460.2z"/>
	<path fill="#96949F" d="M167.2,459.1c-0.4,0.1-0.7,0.2-1.1,0.3c-2,0-4-0.1-6-0.1C162.7,457.8,164.5,457.7,167.2,459.1z"/>
	<path fill="#81818C" d="M158.2,463.7c0,1.7-1.1,1.5-2.2,1.4C156.7,464.7,157.5,464.2,158.2,463.7z"/>
	<path fill="#81818C" d="M83.3,18.2c0.7,0,1.5-0.1,2.2-0.1c0.2,0.2,0.3,0.5,0.5,0.7c0.5,1.1,0.5,2.3,0.7,3.5c1,13.5-3.1,26.6-2,40.1
		c0.6,6.9-0.2,13.9,0.4,20.9c0.2,1.9,0,3.7-1.7,4.9c-0.7,0.1-1.4,0.1-2,0.2c-0.1-2.5-0.1-5-1.5-7.2c-0.3-0.5-0.6-1.2-0.6-1.9
		c0.2-4.8-0.7-9.6,0.9-14.9c-0.8-1.8-0.7-4-0.2-6.5c0.8-4,0.2-8.3,0.2-12.8c0.6-0.9,1.4-1.9,2.1-3c0-7.1,0-14,0-21
		C82.3,20.2,82.9,19.2,83.3,18.2z"/>
	<path fill="#161619" d="M89.2,104.2c-2.1-0.4-4.2-0.7-6.2-1.1c0.1-3.7,0.2-7.3,0.4-11c2.5-0.3,5-0.7,7.5-1c0,3.7,0,6.9,0,10.3
		C90.4,102.1,89.8,103.2,89.2,104.2z"/>
	<path fill="#E4E7EA" d="M79.4,88.4c-1,0.2-2,0.3-3,0.5c0-0.8,0-1.6,0-2.3C78.6,85.5,79.3,86.5,79.4,88.4z"/>
	<path fill="#54525C" d="M84.2,2.2c0.4-0.1,0.7-0.1,1.1-0.2c0.9,0.1,1.7,0.2,3.2,0.4C86.9,3.3,86,3.7,85,4.2
		C84.7,3.5,84.4,2.9,84.2,2.2z"/>
	<path fill="#222225" d="M83.4,88.2c0.3-0.8,0.6-1.5,0.7-1.7c-0.3-2.9-0.7-5.1-0.7-7.4c-0.1-9.3-0.1-18.6-0.1-28c0-3.8,0-7.5,1-11.3
		c0.9-3.5,0.8-7.2,1-10.8c0.1-2.7,0.1-5.3,0.1-8c0.8-0.8,1.8-1.2,2.9-1.2c0.8-0.1,1.6,0,2.4,0.1c0.8,0.2,1.6,0.5,2.2,1
		c1.9,2.3,3.2,5,1.8,7.8c-1.8,3.6-1.5,7,0.6,10.8c-4.5,4-3.6,8.9-2.8,14.2c1.1,7.5-0.9,14.9-1.1,22.4c0,1.6-0.7,3.3,0.3,4.9
		c2.2,2.7,6.2,0.6,8.7,2.9c2,0,4,0,6,0c-0.1,0.5-0.2,1-0.3,2c-3.9,0-7.8,0-11.7,0c-1.6,1.8-4.2,0.9-6,2C86.6,88.2,85,88.2,83.4,88.2
		z"/>
	<path fill="#222225" d="M121.2,43c0.6,0.1,1.2,0.2,1.9,0.3c1.3,13.7,1.5,27.2,0.9,40.7c-0.8,1.2-2.2,1.8-2.8,3.1
		c-3.3-0.3-6.7-0.6-10-1.1c-0.7-0.1-1.3-1.2-2-1.9l0,0c1-0.8,2-0.8,3,0c2.3-0.3,5,1,7.1-1.7c-1.1-3.2-1.7-6.6-0.1-9.9
		c0.1-0.3,0.1-0.7,0-1c-1.5-4.9,0.6-9.9-0.8-14.9c-0.9-3.4-0.2-7.2-0.2-11.1c0.8-0.2,1.4-0.3,2-0.4C121.6,44.9,120.3,43.5,121.2,43z
		"/>
	<path fill="#AFABBB" d="M137.7,103.1c-2.8,0-5.6,0-8.4,0.1c-1.2-0.1-2.6,0.2-3.3-1.3c1.1-3.3,1.4-6.8,3.1-10c2.7,0,5.4,0,8.2,0
		C138.3,96,138.2,99.5,137.7,103.1z"/>
	<path fill="#161619" d="M119.2,102.2c-1.8,0-3.6,0-6,0c0.5-3.8,0.9-7.3,1.3-10.6c2.9-1.3,3.2,1.7,4.7,2.6c0.8,0.7,0.9,1.5,0.8,2.5
		c-0.4,1.4-0.6,2.9-0.3,4.4C119.7,101.5,119.6,101.9,119.2,102.2z"/>
	<path fill="#81818C" d="M129.1,91.9c0.5,3.9,0,7.5-2.9,10.4c-0.7,0.5-1.3,0.5-2,0l0,0c-2-3.4-2.1-6.7,0-10.1
		C125.7,90.6,127.4,91.3,129.1,91.9z"/>
	<path fill="#333239" d="M124.2,92.1c0,3.4,0,6.7,0,10.1c-1.6,0-3.3,0-4.9,0c0-0.3,0-0.7,0-1c0-1.3,0-2.7,0-4c0-1,0-2,0-3
		c0.5-0.6,1.1-1.1,1.9-2C121.9,92.1,123.1,92.1,124.2,92.1z"/>
	<path fill="#E4E7EA" d="M128.3,88c0-0.6,0-1.2-0.1-1.9c1.7,0,3.3,0,5,0c1-0.5,2-1,2.7,0.3c0.1,0.5,0.3,0.9,0.5,1.4
		C133.7,89.9,131,88.6,128.3,88z"/>
	<path fill="#161619" d="M88.2,88.2c0.1-0.5,0.1-1,0.3-2c1.9,0,3.8,0,5.7,0c0,0.8-0.1,1.6-0.1,2.5C92,89.7,90.1,89.2,88.2,88.2z"/>
	<path fill="#54525C" d="M121.2,87.2c-0.3-0.7-0.6-1.5-1.1-2.6c1.4-0.2,2.6-0.4,3.9-0.6c0.1,0.8,0.1,1.7,0.2,2.5
		C123.2,86.8,122.2,87,121.2,87.2z"/>
	<path fill="#333239" d="M124.2,102.2c0.7,0,1.3,0,2,0c1,0.3,2,0.6,3.1,0.9c-1.4,2-3.4,0.6-5,1C124.2,103.5,124.2,102.9,124.2,102.2
		z"/>
	<path fill="#54525C" d="M136,86.5c-0.9-0.1-1.8-0.2-2.7-0.3c1-0.3,2-0.6,3.1-0.9C136.2,85.7,136.1,86.1,136,86.5z"/>
	<ellipse fill="#AFABBB" cx="137.7" cy="88.7" rx="0.2" ry="0.7"/>
	<path fill="#101012" d="M112.2,84.2c-1,0-2,0-3,0c-0.1-0.5-0.1-1-0.3-1.7c-1.7-0.2-3.5-0.3-5.5-0.5c0-1.2,0-2.2,0-3.7
		c1.5,0.2,2.9,0.4,4.5,0.7c0-3,0-6,0-9.3c-4.1-2.6-4.9-6.9-4.8-11.7c0.1-4.8,0-9.6,0-15.3c1.8,1.3,2.9,2.1,4,2.9c0,4.8,0,9.4,0,14.3
		c0.8,0.2,1.4,0.3,2,0.4c0.2,0.4,0.6,0.8,0.6,1.3c0.5,5.5,0.9,10.9,1.3,16.4c0,0.7-0.5,1.5-0.5,1.5
		C111.3,81.4,111.8,82.8,112.2,84.2z"/>
	<path fill="#333239" d="M121.2,43c-0.5,1.7,2.4,3.3-0.3,5.5c-0.3-1.4-0.5-2.4-0.7-3.3c0.1-0.7,0.1-1.4,0.2-2.2
		C120.7,42.9,120.9,42.9,121.2,43z"/>
	<path fill="#161619" d="M100.3,84.1c-2.7,0-5.3,0-8.3,0c-0.8-0.7-1.7-1.6-2.8-2.6c0.6-5.7,1.4-11.4,1.9-17
		c0.4-5.9,0.8-11.8-1.4-17.6c-0.2-0.6-0.3-1.3-0.5-2c1.7-1.9,3.4-3.7,5.1-5.5c-3.7-4.4-3.7-4.4,0-12.7c-0.7-2-1.4-4-2.1-5.9
		c1.5-2.3,3.5-3.8,6-4.9c1.7,3.1,2.2,6.4,2.2,10C100.2,45.3,100.2,64.7,100.3,84.1z"/>
	<path fill="#E4E7EA" d="M98.1,15.9c-1.6,2.2-3.2,4.2-6,4.9c-0.5,0-1-0.1-1.5-0.1c-0.9,0.1-1.7-0.2-2.6-0.1
		c-1.5-0.2-1.9-1.6-2.8-2.5l0.2,0c-2.2-6.4-1.4-9,3.5-12.1c0.5,0,0.8-0.4,1.3-0.5c0.3-0.1,0.6-0.3,1-0.4c0.5-0.4,1-0.5,1.7-0.5
		C93.5,4.7,94,5,94.6,5.2c0.4,0.2,0.7,0.4,1.1,0.6c0.5,0.4,1,0.8,1.4,1.2c0.6,0.6,0.8,1.5,1.1,2.2C98.1,11.5,98.1,13.7,98.1,15.9z"
		/>
	<path fill="#161619" d="M93.2,5.6c-0.6-0.2-1.3-0.4-1.9-0.6c0.3-0.9,0.7-1.9,1-2.8c2,0,4,0,6.1,0.1c0.7,1.5,1.4,3.1,2.5,5.3
		c-0.9,0.6-1.7,1.2-2.6,1.8c-0.7-0.7-1.4-1.4-2-2.1c-0.2-0.4-0.5-0.7-0.9-0.8c-0.2-0.2-0.5-0.3-0.8-0.3C94,5.8,93.6,5.6,93.2,5.6z"
		/>
	<path fill="#54525C" d="M149.3,128.4c-0.2,1.2-0.8,1.8-2.1,1.6c-1-0.2-2-0.5-3.1-0.7c-3,2-6,1.3-9-0.1c-6.3,0-12.7-0.1-19-0.1
		c-2.4-1.8-0.8-2.8,0.8-3.8c3.7-1,7.4-0.3,11.2-0.5c2.5,0.1,5.1-0.1,7.6,0c2.7,0,5.5,0.2,8.2-0.3c0.9-0.1,1.7,0.1,2.3,0.8
		c0.3,0.5,0.6,0.9,0.9,1.4C147.4,127.8,148.9,127.5,149.3,128.4z"/>
	<path fill="#96949F" d="M155.4,107.9c1.2,0.4,2.4,0.8,3.7,1.2c0,3.6,0,6.8,0,10.1c-2,2.5-4.9,2.9-7.9,2.9
		C148,117.1,150,110.2,155.4,107.9z"/>
	<path fill="#AFABBB" d="M155.4,107.9c-0.8,0.7-1.7,1.4-2.8,2.4c-0.9,3.6-2.7,7.5-1.4,11.8c-1,0.4-2.1,0.7-3.1,1.1
		c0.1-4.7,0.2-9.4,0.3-14.1c1-1.1,2.1-2,3.8-1.7C153.2,107.6,154.3,107.7,155.4,107.9z"/>
	<path fill="#54525C" d="M156.2,130.2c-0.7-0.3-1.3-0.6-2-0.9c-0.1-0.2-0.1-0.5,0-0.7c-0.5-0.9-0.7-1.8,0.4-2.5c3.2-1.5,6.5-1,9.7,0
		c1.3-0.5,2.6-0.7,3.9,0.2c0,0.3,0,0.6,0.1,0.8c-0.2,0.2-0.4,0.4-0.5,0.6c-0.2-0.1-0.4-0.3-0.6-0.4c-1,0-2,0.1-3,0.1
		c-1.5,0.5-3.1,0.6-4.5,1.2C158.5,129,157.5,129.9,156.2,130.2z"/>
	<path fill="#E4E7EA" d="M152.1,107.4c-1.3,0.6-2.5,1.2-3.8,1.7c-0.2-0.6-0.4-1.2-0.6-1.9c0.5-0.4,1-0.8,1.5-1.2
		c0.8,0.2,1.6,0.5,2.4,0.7C151.9,106.9,152,107.1,152.1,107.4z"/>
	<path fill="#AFABBB" d="M146.3,125.3c-0.7,0-1.3-0.1-2-0.1c-0.7-0.1-1.2-0.5-1.5-1.1c0-0.6-0.3-1.4,0.8-1.2
		c1.2,0.1,2.4,0.2,3.6,0.4C146.9,123.9,146.6,124.6,146.3,125.3z"/>
	<path fill="#96949F" d="M154.6,126c-0.1,0.8-0.3,1.6-0.4,2.5c-1.3-0.1-2.6-0.2-3.9-0.3c-0.1-0.3-0.2-0.5-0.3-0.8
		c0.3-0.1,0.5-0.3,0.8-0.4C151.7,125.3,153.2,126.1,154.6,126z"/>
	<path fill="#030203" d="M168.2,126.2c-1.3-0.1-2.6-0.1-3.9-0.2C165.7,124.7,167,124.6,168.2,126.2z"/>
	<path fill="#81818C" d="M167.2,127.2c0.4,0,0.8-0.1,1.2-0.1c1,0.1,1.9,0.1,2.9,0.2c0,0.3,0,0.6,0,0.9
		C169.9,127.8,168.5,127.5,167.2,127.2z"/>
	<path fill="#E4E7EA" d="M150.7,127c-0.1,0.4-0.3,0.8-0.4,1.2c-0.3,0.1-0.6,0.1-0.9,0.2c-0.7-0.6-1.4-1.2-2.1-1.8
		C148.4,126.8,149.5,126.9,150.7,127z"/>
	<path fill="#161619" d="M58.2,108.2c2.8,0,5.6,0,8.5,0c0.3-0.8,0.4-1.4,0.6-2c0.6,0,1.1,0,1.7,0c0.7,0.5,1,1.2,1,2
		c-0.1,3.3-1.8,5.9-3.2,8.1c-1.1,2.8,1.8,5.8-1.4,7.7c-4.4,0.9-8.9,0.7-13.3,0.1c-4.3-3.6-4.6-5.5-1.3-9.3c1.3-1.5,2.6-3,2.9-4.5
		C55.4,108.9,57.2,109.5,58.2,108.2z"/>
	<path fill="#333239" d="M69.2,108.2c-0.1-0.7-0.1-1.3-0.2-2c0.3,0,0.7-0.1,1-0.1c0.4,0.6,0.8,1.3,1.3,1.9
		C70.6,108.7,70,108.8,69.2,108.2z"/>
	<path fill="#222225" d="M35.7,218.1c0.3,3,0.5,5.9,0.8,8.4c-1.7,3.8-3.3,7-5,10.9c-0.4,0.2-1.4,0.7-2.8,1.3
		c-0.6,0.9-1.5,2.1-2.5,3.5c0.9,0.9,1.8,1.7,3,2.8c0,0.6,0,1.6,0,2.7c-1,1.1-2.2,2.3-3.4,3.7c-1.9-0.6-3.6-1.1-5.2-1.6
		c-0.5-5.1-1-9.8-1.5-15.1c-0.5-0.4-1.5-1.2-2.5-2.1c0-1.6,0-3,0-4.2c-1.5-2.7-2.8-5.1-4.1-7.5c0-11,0-22,0-33.2
		c0.9-0.4,1.9-0.9,3.8-1.8c-1.5-0.7-2.3-1.1-3.1-1.4c0.6-1.8,0.9-3,1.5-4.8c-0.6-0.4-1.4-0.9-2.2-1.4c0-1.8,0-3.4,0-5.7
		c0.5-0.2,1.3-0.7,1.5-0.8c0-5,0-9.3,0-14.3c0,0,0.5-0.5,0.8-0.7c0-4.3,0-8.4,0-13c-0.8-0.4-1.7-0.9-2.2-1.1c0.4-2.3,0.7-4,1.1-6.1
		c1.7-1.1,3.6-2.3,5.6-3.5c1.1,0.8,2.2,1.4,3.8,2.5c0.1-1.8,0.2-3.1,0.3-4.3c8.7-0.4,17.3-0.8,26-1.1c0.3,0.4,0.4,0.9,0.3,1.5
		c-1.2,2.4-1.6,4.9-1.2,7.7c0.6,4.5-1.5,8.8-2,13.2c-0.2,2-1,4,0.1,5.8c1.9,3,1.5,6,0.6,8.9c1.6,5.2,5.2,9.6,3.9,15.3
		c-0.4,1.9-3.4,0.8-3.5,3.1c-0.3,2.6,0.6,5.3-1.5,7.9c-4.7-0.8-5.2-7.3-10.1-7.6c-2.4,0.7-2,5.9-6.7,3.5c-1-0.7,0.7-3.9-2.2-4.1
		c-0.4-0.1-0.8-0.3-1.2-0.6c-0.5-0.3-1-0.7-1.6-0.7c-0.7,0.1-0.9,0.7-1.2,1.2c-1.7,3.3-2.6,7-4.1,10.4c-0.4,1-1.5,2.7,1.1,2.5
		c2.7-1,5.3-1,7.8,0.4c0.6,0.2,1.1,0.4,1.6,0.7c0.5,0.2,1,0.4,1.5,0.4c0.4-0.1,0.7-0.2,1.1-0.3c1-0.3,1.9-0.7,2.9-1
		c1.1-0.2,2.3-0.3,3.4-0.1c0.7,0.1,1.4,0.3,2,0.7c1.2,1.4,1.8,3.2,1.7,5c0,2.2-0.9,3.5-3.4,2.3c-0.4,1.4,0.5,2.7-0.1,4
		c-0.5,0.9-1.3,1.3-2.3,1.5c-2.1,0.2-3.5-1.7-5.4-1.8c-1.6,0.2-2.7,1.7-4.3,2c-0.5,0-0.9,0-1.4-0.1c-1.3-0.5-2.3-1.4-3.4-2.2
		c-0.6-0.4-1.1-1.1-1.9-1.2c-0.6,0.2-0.3,0.8-0.6,1.2c-0.6,0.5-1.3,0.7-2,1c-0.5,0.4-0.3,1-0.2,1.5c1,1.9-0.8,4.5,1.7,5.9
		c1.3-0.1,2.3-0.8,3.4-1.3c1.5-0.7,3-0.9,4.5-0.1c1,0.5,1.7,1.3,2.4,2.2c0.8,1.3,1.8,1.3,3,0.6C33.2,218.6,34.3,218,35.7,218.1z"/>
	<path fill="#161619" d="M38.3,210.2c-0.5-1.2-1-2.3-1.3-3.2c0.3-1.3,0.6-2.4,1.1-4.1c0.8,1.3,1.5,2.3,2.2,3.5
		c2.3-2.8-0.6-4.9,0-7.2c-0.6-0.6-0.6-1.3-0.2-2.1c1.7-1.2,3.3-0.2,4.9,0.1c1.2,0.4,2.5,0.8,3.8,0.5c2.4-1.6-0.2-2.9-0.4-4.3
		c-0.6-2.3-0.5-4.5-0.1-6.8c0.3-1.3,1-2.4,1.9-3.4c0-1.7,0-3.3,0-5c-1.4-3.3-2.8-6.5-4.2-9.7c-0.4,0-0.8,0-1.1,0
		c0.7-1.9,1.4-3.8,2.3-6.1c-0.4-0.5-1-1.4-1.6-2.4c-1-1.9-1.7-3.6-0.9-6c1.2-3.7,2-7.6,2.4-11.4c0.3-2.7-0.5-5.5-0.8-8.4
		c0.9-0.9,1.9-1.9,2.9-2.9c2.3-2.1,5.7,0.2,8-2c10.3,1.6,20.6,0.7,30.9,0.8c1.1-0.6,2.1-0.8,3.1,0.1c-0.1,0.8,0.1,2-0.3,2.4
		c-2.7,2.3-2.5,5.8-4,8.9c1.1,0.4,2,0.8,3,1.2c0,0.7,0,1.4,0,2.6c-1.9-0.8-3.5-1.7-5.1-2c-1.7-0.3-3.6-0.1-5.7-0.1
		c0.8,2.7,1.4,4.8,2.1,7.3c2.7-1.2,4.9-2.2,7.1-3.2c1.4,1.3,1,2.4-0.1,3.3c-0.9,0.7-2.1,1.6-3,1.5c-3.7-0.3-6.1,1.9-8.9,4
		c0,0.8,0.1,1.8,0.1,3c1.7,0.1,3.1,0.3,4.8,0.4c-0.2,1.2-0.3,2.1-0.4,2.9c-8.4,2.8-9.6,5.6-5,11.8c2,0.1,4.1,0.3,6.9,0.4
		c-2.4,3.2-3.8,6.5-7.4,7.7c-1.2,0.2-2.4,0.3-3.3,1.1c-0.3,0.3-0.7,0.5-1.1,0.7c-1.9,1.3-3.9,1.7-6.1,0.9c-1.5-0.5-3-0.5-4.5-0.9
		c-2.2-0.5-4.3-1.1-6.4,0.1c-1.1,1.7,0.7,2.3,1.3,3.4c2.1,2.7,0.7,6.2,2,9.1c0.7,0.9,1.7,1.3,2.8,1.1c1.4-0.7,1.1-2.3,1.6-3.4
		c0.8-2.1,2.4-3.8,2.6-6.1c0.1-0.5,0.2-0.9,0.4-1.4c0.2-0.4,0.6-0.8,1-1c1.6-0.3,2.9,0.2,4,1.3c0.9,3.2-1.3,5.4-2.6,7.9
		c-0.5,0.6-1.3,1.1-1.1,2.1c0.3,0.7,0.6,1.4,0.7,2.1c2.8,0.1,4.5-2.7,7.2-2.6c0.4-0.1,0.9,0,1.3,0.1c1,0.7,2.1,1.3,3.4,1.5
		c0.6,0.2,1.2,0.4,1.6,1c0.2,1.3,0.4,2.5,0.7,4.5c-0.2,0.6-0.7,2-1.3,3.8c-1.9-1.8-3.7-3.4-5.8-5.4c-1.7,0.4-3.9,0.9-6.5,1.4
		c0,2,0,3.9,0,5.9l0,0c-1.1-0.3-2.2-0.6-2.2-0.6c-2.3,0.7-3.7,1.2-5.1,1.6c-1.7,0.3-3-1-4.6-1.3c-0.8-0.3-1.7-0.4-2.5,0.2
		c-0.5,0.4-1.1,0.7-1.7,0.9c-0.6,0.2-1.2,0.3-1.8,0.3c-0.4,0.1-0.8,0.1-1.2,0.2c-1.2,0.2-2.2,1-3.5,1.1c-0.8-0.1-1.3-0.7-2-1
		c-0.4-0.1-0.7-0.2-1.1-0.2c-0.8,0-1.5,0.2-2.2,0.3C38.9,210.6,38.6,210.5,38.3,210.2z"/>
	<path fill="#101012" d="M69.2,108.2c0.7,0,1.4-0.1,2.1-0.1c15.6-0.3,31.2-0.2,46.7-1.2c6.8-0.4,13.5-0.6,20.3-0.5
		c0.6,0.9,1.1,1.8,1.8,2.9c-0.8,0.7-1.8,1.5-2.8,2.4c0,3.5,0,6.9,0,10.4c-0.4,0.6-1,0.9-1.7,1c-0.4,0-0.9,0-1.3,0
		c-1.1-0.2-2-0.7-2.9-1.2c-0.7-0.4-1.4-0.5-2.1-0.1c-0.6,0.2-1.1,0.2-1.7,0.1c-1-0.4-1.3,0.7-1.9,1.1c-2.5,1-5.1,0.6-7.7,0.7
		c-4.4,0-8.7,0.3-13-0.2c-0.3,0-0.7-0.4-1.1,0c0.3-0.1,0.6-0.1,0.9,0c1.8,0.4,3.6,0.1,5.3,0.5c1.5,0.3,3.5,0,3.4,2.5
		c-2.7,2.9-6.2,1.4-9.4,1.8c-1.8,0.2-3.6,0.5-5.4,0.4c-0.6,0-1.1,0-1.7,0c-0.5,0-1.1,0-1.6,0c-0.8,0-1.6,0-2.4,0
		c-1.6,0-3.3-0.1-4.5-1.3c-2.7,0-5.3,0-8,0c-0.6-0.7-0.7-1.4-0.5-2.3c3.1-3.4,7.2-0.8,10.2-1.7c-5.6-0.1-11.9,0-18,1.1
		c-1.9,0.3-4,0.5-5.6-1.2c-0.5-2-1.1-4-1.7-6.5c0.8-0.9,2-2.2,3.2-3.6C68.2,111.5,68.7,109.9,69.2,108.2z"/>
	<path fill="#222225" d="M58.2,108.2c-0.1,0.5-0.2,1-0.3,1.6c-1.1,0.2-2.1,0.4-3.6,0.7c0.2,0.9,0.5,1.7,0.7,2.5
		c-2,1.8-4,3.6-5.9,5.3c0.9,2,1.5,3.4,2.1,4.8c-5,2.2-10,2.1-15.1,0.1c-2.8,0-5.6-0.1-8.3,0c-3,0.1-5.6-0.9-7.7-3
		c0-1.5,0.1-3-0.1-4.4c-0.2-2.3,0.3-4.2,2.2-5.7c0.9-1,2.1-1.4,3.5-1.5c1.5,0.2,3.1-0.5,4.5,0.5c8-0.3,16-0.7,24-1
		C55.5,108.2,56.9,108.2,58.2,108.2z"/>
	<path fill="#222225" d="M80.2,125.2c0,0.7,0,1.3,0,2c-3,0-6,0-9,0.1c-14.8,0.3-29.5,0.7-44.3,0.9c-1.9,0-3.9-0.6-5.8-0.9
		c-0.3-0.2-0.4-0.5-0.3-0.7c0.1-0.2,0.2-0.4,0.3-0.4c4.9-1.6,10-0.7,15-1c1.4-1.1,3.1-0.9,4.8-1c11.6-0.3,23.1,0.5,34.7-0.4
		C77.3,123.6,79,123.8,80.2,125.2z"/>
	<path fill="#333239" d="M80.2,125.2c-14.7,0-29.3,0-44,0c0-0.6,0-1.3,0-1.9c5,0,10.1,0,15.1-0.1c5,0,10,0,15,0
		c8.9-0.3,17.8-0.7,26.7-0.9c1.4,0,2.7,0.2,4.1,0.3c0,0.3,0.1,0.7,0.1,1c-0.8,0.2-1.6,0.6-2.4,0.6c-4,0.1-8,0-12,0.1
		C81.9,124.3,81.1,124.8,80.2,125.2z"/>
	<path fill="#333239" d="M88.2,127.2c1.7,0,3.3,0,5,0c0.6,0.7,1.7,0.3,2.3,1c0.2,0.4,0.2,0.8,0.2,1.3c-0.3,0.6-0.7,1.1-1.5,0.7
		c-1,0-2,0-3,0c-1,0-2.1-0.1-3.1-0.1C88.2,129.1,88.2,128.1,88.2,127.2z"/>
	<path fill="#333239" d="M57.3,129.2c-0.1,0.5-0.2,1-0.4,2c-2.5,0-5.1,0-7.7,0c0-0.3,0-0.7,0-1C51.7,128.2,54.6,129.6,57.3,129.2z"
		/>
	<path fill="#81818C" d="M21.2,131.1c-2.7,0.3-5.3,0.7-8,1c-0.2-0.2-0.4-0.4-0.6-0.6c0.2-0.2,0.3-0.5,0.5-0.7c1.3-0.3,2.7-0.5,4-0.8
		C18.4,130.7,20.3,129.2,21.2,131.1z"/>
	<path fill="#333239" d="M21.2,126.1c0,0.4,0,0.7,0,1.1c-0.9-0.1-1.8-0.2-2.7-0.3c0-0.2,0-0.4,0-0.6
		C19.4,126.3,20.3,126.2,21.2,126.1z"/>
	<path fill="#54525C" d="M135.2,122.2c0.7,0,1.4,0,2.1-0.1c2.1,0.2,4.2,0.5,6.3,0.7c-0.1,0.3-0.1,0.6-0.1,1c-2,2.4-4.6,1.1-7,1.2
		C135.2,124.5,134.4,123.7,135.2,122.2z"/>
	<path fill="#54525C" d="M9.1,158.3c-0.8-0.1-1.6-0.2-2.7-0.3c0.2-3.9,2.5-7.9-0.6-11.6c0.3-1.5,0.7-3.2,1.2-5.5
		c-0.2-0.5-0.7-1.5-1.2-2.6c-0.9-0.1-1.7-0.1-2.5-0.2c0-0.6-0.1-1.3-0.1-1.9c-0.4-1.7,0.6-2.3,1.9-2.7c0.8-0.1,1.5,0.1,2.1,0.7
		c0,0.5,0.1,1,0.1,1.5c0.9,0.3,1.8,0.6,2.6,0.9c0.1,0.5,0.3,0.8,0.3,1.1c-0.3,2.7-0.9,5.5-1,8.2C9,150,9.1,154.2,9.1,158.3z"/>
	<path fill="#E4E7EA" d="M5.3,134.2c-0.7,0.6-1.4,1.3-2.1,1.9c-0.3-0.7-0.7-1.4-1-2.1c0.2-0.5,0.4-0.9,0.6-1.4
		c0.4-0.3,0.8-0.5,1.2-0.8c0.8-0.3,1.5-0.4,2.2,0.3C6.5,133.2,5.9,133.7,5.3,134.2z"/>
	<path fill="#96949F" d="M25.2,109.2c-1,0.3-2,0.6-3,1c-0.3-0.6-0.7-1.1-1-1.7c1.3-0.1,2.7-0.1,4-0.2c0.4,0.2,0.5,0.4,0.4,0.6
		C25.5,109.1,25.4,109.2,25.2,109.2z"/>
	<path fill="#81818C" d="M25.2,109.2c0-0.3,0-0.6-0.1-0.9c1.7,0.3,3.6-1,5,0.9C28.6,109.2,26.9,109.2,25.2,109.2z"/>
	<path fill="#AFABBB" d="M90.3,5.5C89.9,5.6,89.4,5.8,89,6C89.4,5.8,89.9,5.6,90.3,5.5z"/>
	<path fill="#96949F" d="M5.3,134.2c0.2-0.6,0.4-1.2,0.6-1.9c-0.6-0.1-1.3-0.2-1.9-0.3c0.4-0.4,0.8-0.8,1.1-1.2c2.7,0,5.3,0,8,0
		c0,0.4,0.1,0.9,0.1,1.3c-2,0.7-4,1.4-6,2.1C6.6,134.2,5.9,134.2,5.3,134.2z"/>
	<path fill="#81818C" d="M158.2,334.2c-0.3-0.7-0.8-1.4-0.8-2.1c-0.1-22.7-0.1-45.3-0.1-68c0-0.6,0.2-1.3,0.3-1.9
		c0.5,0.5,1.4,1,1.5,1.5c0.2,2,0.1,4,0.1,6c0,20,0,40.1,0,60.1C159.2,331.2,160.2,333.1,158.2,334.2z"/>
	<path fill="#81818C" d="M157.6,240.2c0-5.7-0.1-11.4-0.1-17.1c0.5,0.1,0.9,0.3,1.5,0.5c0,5.4,0,10.8,0,16.2
		C158.5,239.9,158.1,240.1,157.6,240.2z"/>
	<ellipse fill="#81818C" cx="170.7" cy="296.2" rx="0.3" ry="7.8"/>
	<path fill="#81818C" d="M157.7,260.2c0.1-1.7,0.2-3.4,0.3-5.1C159.8,257.3,159.7,258.6,157.7,260.2z"/>
	<path fill="#81818C" d="M158.2,340.2c-1.4-1.3-1.4-2.7,0-4C159.8,337.5,159.7,338.8,158.2,340.2z"/>
	<path fill="#81818C" d="M158,252.2c-0.1-1-0.2-2.1-0.3-3.1C159.7,250.2,159.8,250.7,158,252.2z"/>
	<path fill="#81818C" d="M169.7,310c0-0.9,0-1.7,0-2.6c0.3,0,0.7-0.1,1-0.1c0.1,0.9,0.2,1.8,0.3,2.6
		C170.5,309.9,170.1,310,169.7,310z"/>
	<path fill="#81818C" d="M157.6,246.2c0-0.7,0-1.4,0-2.1c0.5,0.2,1,0.4,2.2,0.9C158.7,245.6,158.2,245.9,157.6,246.2z"/>
	<path fill="#AFABBB" d="M157.6,199.1c-0.3-0.3-0.3-0.6,0-0.9c0.4,0.1,0.8,0.1,2.3,0.3C158.5,198.9,158,199,157.6,199.1z"/>
	<path fill="#96949F" d="M156.2,130.2c0.1-0.5,0.1-1,0.2-1.7c0.9-0.1,1.9-0.2,2.8-0.3c1-0.5,1.9-0.7,2.8,0.2
		c0.1,0.3,0.2,0.5,0.4,0.7c-1.1,0.3-2.2,0.7-3.3,1c0.1,0.9-0.3,1.6-1,2.2c-0.3,0-0.6,0-0.9,0l-0.2,0.1
		C156.7,131.6,156.9,130.7,156.2,130.2L156.2,130.2z"/>
	<path fill="#E4E7EA" d="M158.2,132.2c0.3-0.7,0.7-1.4,1-2.2c0.3,0.5,0.6,0.9,1,1.4C159.5,131.6,158.8,131.9,158.2,132.2z"/>
	<path fill="#81818C" d="M157.4,134.2c0-0.4-0.1-0.7-0.1-1.1c0.2,0.2,0.5,0.3,0.6,0.5C157.8,133.8,157.6,134,157.4,134.2z"/>
	<path fill="#161619" d="M162,128.3c-0.9-0.1-1.8-0.1-2.8-0.2c1.4-1.7,3.2-0.6,4.9-0.8C163.5,127.6,162.7,128,162,128.3z"/>
	<path fill="#E4E7EA" d="M49.3,343.3c1.6,0,3.8-1,4.1,1.9c2.1,4.6,2.1,7.2,0.2,9.6c-0.2,2.2-0.3,4.5-0.5,7.3c-1.2,0-2.4,0-3.6,0
		l0,0.1c-1.7-1.4-1.3-3.3-1.5-5.1c-0.1-0.6-0.3-1.1-1-1.4c-1.6-0.2-3.1-0.4-3.3,1.9c-0.1,0.7-0.1,1.4-0.3,2
		c-0.2,0.7-0.6,1.3-1.2,1.7c-1.4,1.1-2.7,1.5-4.1,0c-0.4-1.7-0.3-3.4-0.1-5.1c0-0.6,0-1.3,0-1.9c-0.2-2.7-0.2-5.4,0-8.1
		c0.1-0.8,0.1-1.6,0.2-2.7c1.1-0.1,2.2-0.1,3.6-0.2c0.2,2.1,0.4,4,0.6,6.2c2.2,0.2,4.2,0.3,6.7,0.5
		C49.1,347.5,49.2,345.4,49.3,343.3z"/>
	<path fill="#E4E7EA" d="M18,351.2c0.8-2,1.6-3.9,2.5-5.9c0.6-0.5,1.3-1.1,1.9-1.6c1.3-1.5,2.8-2.3,4.9-1.5c0.2,0.2,0.4,0.2,0.7,0.1
		c0.4,0.2,0.8,0.4,1.2,0.5c1.8,1.4,3.6,2.7,5.8,4.4c-1.4,1.1-2.2,1.7-3.2,2.5c-2-1.8-3.9-3.5-6.8-2.3c-4.3,4.3-3.8,7.6,2.1,10.8
		c1.4-1,3-2,4.8-3.3c0.8,0.5,1.7,1.2,2.7,1.9c-1.6,3.3-4.1,4.9-7.4,5.6c-1.1,0.6-2.1,0.8-2.9-0.4c-3.8-2.1-6-5.3-6.4-9.7
		C17.9,351.8,17.9,351.5,18,351.2z"/>
	<path fill="#E4E7EA" d="M34.2,419.3c-1.3,0.3-2.6,0.6-4.8,1.1c-1.3-0.1-3.6-0.2-6.2-0.3c0-2.7,0-5,0-7.6c1.9,0,3.7,0,5.5,0
		c0.1,0.3,0.1,0.6,0.2,0.9c-1.2,0.5-2.4,0.9-3.7,1.4c1,0.3,1.9,0.6,3.7,1.1c-1.6,0.9-2.6,1.4-3.9,2.1c1.7,0.3,3,0.5,4.5,0.7
		c1.1-2.2,2.1-4.3,3.4-6.8c3.1,2.3,3.5,5.3,4.5,8.3c-0.8,0-1.3,0-1.8,0C35.1,420,34.7,419.6,34.2,419.3z"/>
	<path fill="#E4E7EA" d="M28.3,219c-0.6-0.6-1.1-1.3-1.7-1.9c-1.7-2-2.5-3.9,0.2-5.7c1.1-0.9,2.2-1.9,3-2.6c2.9-0.5,4.6,1.1,6.4,2.4
		c2.6,1.8,2.8,3.7,0.3,5.8c-0.3,0.4-0.6,0.8-0.9,1.2c-1.1,0.7-2.3,1.3-3.4,2C30.5,221.2,29.4,220.1,28.3,219z"/>
	<path fill="#E4E7EA" d="M51.2,209.2c0.4-0.3,0.7-0.5,1.1-0.8c0.9-1.1,1.9-0.8,2.9-0.2c1.6,0.7,3.2,1.4,4.7,2.1
		c-0.2,1.8-0.4,3.7-0.7,6.3c0.1,0.1,0.5,1.1,1.2,2.5c-1.1,0-1.7,0-2.3,0c-0.3-0.3-0.6-0.6-0.9-1c-1.7-0.9-3-0.3-4.1,1
		c-0.7-0.3-1.4-0.7-2.2-1C49.2,215.1,49.3,212.1,51.2,209.2z"/>
	<path fill="#E4E7EA" d="M44.4,211.7c0.6-0.5,1.1-1.1,1.8-1.5c0.7-0.4,1.5-0.7,2.2-1.1c0.7,1,1.1,2.1,1.2,3.4
		c-0.1,2,0.6,4.3-1.9,5.6c-4.9,2.2-5.7,2-8.6-1.9c-0.5-0.7-0.7-1.4-0.8-2.2c0-1.3-0.3-2.6,0.6-3.8c0.6-1.4,1.5-1.3,2.6-0.7
		c3,0.6,0.9,3.7,2.6,5c0.1-0.6,0-1,0-1.5C44,212.5,44.1,212.1,44.4,211.7z"/>
	<path fill="#E4E7EA" d="M57.3,419.2c-1.1,2.8-3.3,1.9-6,1.8c0-2.7-0.1-5.2-0.1-7.8c0.4-0.2,0.7-0.5,1.1-0.7
		c1.6,0.3,3.1,0.6,4.7,0.9C58,415.5,60.1,417.2,57.3,419.2c-0.9-0.7-1.4-1.7-2.5-2.4C55.4,417.9,56.6,418.3,57.3,419.2z"/>
	<path fill="#E4E7EA" d="M46.2,416.2c-0.1,0.6-0.1,1.1-0.2,1.7c-1.1,1.2-2.2,2.3-3.2,3.3c-5-2.1-5.7-4.1-3.5-8.9
		c2.1,1.8-0.7,5.6,2.6,6.7c3.2-0.9,1.6-3.7,2.3-5.7c0.6,0,1.2,0,1.7,0C47.2,414.1,46.8,415.1,46.2,416.2z"/>
	<path fill="#030203" d="M49,355.2c0.1,2.3,0.3,4.6,0.4,6.9c-0.7,0-1.4,0.1-2.1,0.1c-0.6-0.4-0.9-1.1-1-1.7
		c-0.2-0.7-0.2-1.6-0.8-2.1c-1-0.6-2.3-0.2-3.1-1.1c-0.1-0.8-0.1-1.6-0.2-2.8c2.1,0,4.2,0,6.2,0C48.6,354.6,48.8,354.8,49,355.2z"/>
	<path fill="#030203" d="M47.7,218.1c0.4-2,0.8-4,1.2-6c-0.1-1-0.5-2,0.4-2.9c0.6,0,1.2,0,1.9,0c0,3-0.1,6-0.1,9
		C49.9,218.1,48.8,218.1,47.7,218.1z"/>
	<path fill="#54525C" d="M9.2,174.2c-0.5-0.1-1-0.2-1.6-0.3c-0.3-2.3-0.6-4.6-1.1-7.7c0.5-0.5,1.5-1.3,2.5-2.2
		C9.1,167.5,9.2,170.8,9.2,174.2z"/>
	<path fill="#030203" d="M38.9,210.2c0,1.3,0,2.7,0,4c-0.2,0.7,0,1.5-0.6,2c-0.6,0.3-1.1,0.5-1.7,0.8c0.9-2,0.8-3.9-0.3-5.8
		c0.7-0.3,1.4-0.7,2-1C38.5,210.2,38.7,210.2,38.9,210.2z"/>
	<path fill="#101012" d="M53.2,219.2c0.2-0.9,0.4-1.9,0.5-2.7c2-0.8,2.9,0.2,3.6,1.7C56,218.5,54.6,218.8,53.2,219.2z"/>
	<path fill="#101012" d="M47.2,360.2c0,0.7,0,1.3,0,2c-1.9,2.3-2.2-0.1-3-1c-0.3-0.5-0.3-0.9,0.2-1.3
		C45.4,359.3,46.4,359.4,47.2,360.2z"/>
	<path fill="#54525C" d="M37.9,346.1c0,2.7,0,5.4,0,8.1C37.9,351.5,37.9,348.8,37.9,346.1z"/>
	<path fill="#101012" d="M27.2,342.2c-1.6,0.5-3.2,1-4.9,1.5c0-3,2.9-2,4.5-3.4C27,341,27.1,341.6,27.2,342.2z"/>
	<path fill="#54525C" d="M37.9,356.1c0,1.7,0.1,3.4,0.1,5.1C36.7,359.5,37,357.8,37.9,356.1z"/>
	<path fill="#030203" d="M24.3,361.9c1,0.1,1.9,0.3,2.9,0.4c-0.1,0.6-0.2,1.1-0.4,1.9c-1.1-0.4-1.8-0.7-2.6-1
		C24.3,362.8,24.3,362.3,24.3,361.9z"/>
	<path fill="#101012" d="M33.2,426.2c0.3-0.6,0.6-1.3,1.2-2.5C35.5,426.1,34.3,426.1,33.2,426.2L33.2,426.2z"/>
	<path fill="#030203" d="M44.2,360.2c0,0.3,0,0.7,0,1c-0.7,0-1.4,0-2.1,0c0-0.7,0.1-1.3,0.1-2C43.4,358.5,44.2,358.5,44.2,360.2z"/>
	<path fill="#030203" d="M46.2,416.2c-0.1-1-0.2-1.9-0.3-2.9c0.4,0,0.8-0.1,1.3-0.1C46.9,414.2,46.6,415.2,46.2,416.2z"/>
	<path fill="#222225" d="M38.3,216.2c0.2-0.7,0.4-1.3,0.6-2c0.1,0.7,0.1,1.3,0.2,2C38.8,216.2,38.5,216.2,38.3,216.2z"/>
	<path fill="#030203" d="M34.2,419.3c0.5,0.3,1,0.5,1.4,0.8C35.2,419.8,34.7,419.5,34.2,419.3z"/>
	<path fill="#101012" d="M29.2,342.8c-0.4-0.2-0.8-0.4-1.2-0.5C28.3,342.5,28.8,342.6,29.2,342.8z"/>
	<path fill="#222225" d="M18,351.2c0,0.3,0,0.7,0,1c-0.2-0.2-0.4-0.3-0.6-0.5C17.6,351.5,17.8,351.3,18,351.2z"/>
	<path fill="#E4E7EA" d="M78.4,353.2c0-3.1,0-6.2,0-9.6c2-0.2,3.4-0.3,4.9-0.4c2.4,3.2,4.7,6.2,6.9,9.3c0.6-0.3,0.6-0.9,0.6-1.4
		c0-2.4,0-4.9,0-7.7c1.7,0.2,2.7,0.3,4,0.4c0,6.2,0,12.1,0,18.1c-1.9,1.4-3.2,0.5-4.5-1.2c-1.7-2.2-3.4-4.5-5.1-6.7
		c-0.6-0.2-1-0.6-1.2-1.1c-0.3,0.6,0,1.1-0.1,1.6c-0.7,1.8,0.3,3.9-0.8,5.6c-0.5,2.9-2.3,2.7-4.5,1.7c-0.1-2.3-0.2-4.6-0.3-6.8
		C77.6,354.5,77.6,353.8,78.4,353.2z"/>
	<path fill="#E4E7EA" d="M113.1,350.8c0,1.4,0.1,2.8,0.1,4.3c-1,1.3-2.5,1.2-4.1,1.4c2,0.9,4.6-0.4,5.9,1.9l0.2-0.2l-0.2,0.2
		c1.6,1.1,1.3,2.4,0.3,3.7c-3.5,0.9-9.3,1-14.2,0c0-5.9,0-12,0-18.5c2.3-0.2,4.8-0.4,7.2-0.5c0.3-0.3,0.6-0.3,1,0
		c1.4,0.1,2.9,0.3,4.6,0.5c0.7,1.8,0.9,3.4-0.8,4.8c-1.2,2.4-3.4,0.7-5,1.2c-0.3,0.1-0.6,0-0.9-0.1c-0.2-0.1-0.3,0-0.4,0
		c-0.5,0.4,0,0.9-0.1,0.3c-0.1-0.7-0.2,0.1,0.5-0.2C108.9,350.3,111.4,348.4,113.1,350.8z"/>
	<path fill="#E4E7EA" d="M75.2,359.2c0.1,0.8,0.3,1.6,0.4,2.6c-2.4,1.7-3.9,0.3-5.2-1.5c-0.3-0.2-0.6-0.4-0.7-0.7
		c-0.5-0.4-0.9,0.4-1.5,0.2c-1.1-0.1-2-0.6-3-1.1c-1.1-0.1-2.3-0.2-3.5-0.3c-0.7,1.2-1.3,2.4-2,3.7c-1.3,0-2.7,0-4.3,0
		c0.5-1.4,0.9-2.5,1.3-3.6c-0.1-5.6,2.9-10,5.4-14.6c1-1.7,3-1.9,4.9-1.5c2.5,0.7,3.4,2.4,3.1,4.9c0.4,1,0.8,2,1.2,3
		C73.3,352.9,75.8,355.3,75.2,359.2z"/>
	<path fill="#E4E7EA" d="M120.5,343.3c1.2,0.3,2.4,0.6,3.6,1c1.5,1.9,1.4,3.9,0.2,6c0,1,0,2,0,3c1.4,1.4,0.3,3.7,1.9,5.1
		c1.3,0,2.6,0,4,0c0.7-0.7,1.4-0.7,2,0c2.5,1.1,1.7,2.9,1,4.6c-3,2-6,1.6-9,0.2c-1.8-0.2-3.5-0.4-5.3-0.6c-0.1-0.6-0.2-1.1-0.2-1.6
		c-0.3-0.1-0.6-0.2-0.8-0.3c0.3-0.1,0.5-0.2,0.8-0.4c-0.1-0.9-0.2-1.7-0.2-2.6c0.1-3.4-0.5-6.8-0.2-10.2
		C118.4,345.8,118.3,343.9,120.5,343.3z"/>
	<path fill="#161619" d="M70.2,347.2c-0.7-1.2-1.5-2.5-2.3-3.8c-1.5,0-3,0-4.6,0c-2.2,5-4.4,10-6.6,15c-0.5-0.5-1-1-1.5-1.6
		c-0.6-0.7-1.2-1.3-1.7-2c-0.1-3.2-0.1-6.4-0.2-9.6c0.6-0.4,1.4-0.6,1.8-1.2c0.9-1.2,1.6-2.6,2.3-3.8c4,0,7.5,0,11.4,0
		c1.1,1.4,2.3,3.1,3.7,5C71.6,346,70.9,346.6,70.2,347.2z"/>
	<path fill="#E4E7EA" d="M80.2,199.2c-0.5,0-1.1-0.1-1.6-0.1c-1.5-0.2-2-1.8-3.2-2.4c-0.4-0.1-0.8-0.3-1.1-0.4
		c-2.9,0.5-5,3.1-8.1,3.1c-0.4-0.7-0.9-1.4-1.3-2.1c-0.3-0.9,0.5-1.4,0.9-1.9c1.1-2.7,2.1-5.4,3.2-8c-0.6-2.1,0.8-3,2.2-4l0,0
		c1.4-1.1,2.7-1.3,3.9,0.2c-0.1,0.3,0,0.5,0.3,0.7c1.7,1.7,4.7,2.7,2.8,6c0.1,0.4,0.3,0.8,0.4,1.2c1.4,0.2,1.2,1,0.7,1.9
		c0.5,1.1,1.2,2.2,1.4,3.4C81,197.5,80.5,198.3,80.2,199.2z"/>
	<path fill="#E4E7EA" d="M125,185.9c-0.4,0.4-0.7,0.9-1.7,1.9c3.9,0.7,7.8,0.1,9.7,3.9c0.1,3.8-0.5,5.2-3.2,6.2
		c-3.4,1.3-7,0.3-9.7-2.7c1-1.7,2.2-1.4,3.7-0.7c2.2,1.1,4.5,1.3,6.4-1c-1.9-2.6-4.9-1.5-8.1-2.7c-0.6-1-1.5-2.6-2.6-4.5
		c1.9-1.6,3.3-2.9,4.8-4.1c2.7-2,4.8-0.6,7,1c0.5,0.6,1,1.2,1.4,1.7c-1.1,2.5-2.6,1.6-4.1,1C127.3,185.5,126.1,185.6,125,185.9z"/>
	<path fill="#FDFDFD" d="M96.2,182.9c0.2,0.3,0.5,0.4,0.8,0.3c1,1,1.1,1.9-0.1,2.8c-2.8,0-5.5,0-8.5,0c0,1.2,0,1.9,0,2.9
		c2.5,0.1,4.9,0.3,7.5,0.4c0.1,1,0.1,1.8,0.2,2.6c-0.7,1.3-1.9,1.4-3.2,1.5c-0.5,0-1,0.1-1.5,0.1c0.8,0.8,1.7,0.2,2.4,0.4
		c1.3,0,2.4,0.4,3.4,1.3c0.1,0.8,0.2,1.6,0.3,2.9c-4.1,0-8,0-12.3,0c0-4.7,0-9.5,0-14.7c2.5-0.2,5.2-0.3,8-0.5
		C94.2,182.2,95.2,182.3,96.2,182.9z"/>
	<path fill="#E4E7EA" d="M101,183.1c0.9-0.1,1.8-0.2,3.1-0.4c0,3.7,0,6.9,0,9.8c3.6,3.7,5.4,3.6,9.2-0.4c0-2.9,0-6.3,0-10
		c1.1,0.2,1.7,0.3,2.6,0.5c0,3.9,0,7.6,0,11.6c-4.4,5.6-9.9,5.8-14.6,0c-0.2-2.6-0.3-5.4-0.5-8.2C100.2,185.1,100.4,184.1,101,183.1
		z"/>
	<path fill="#E4E7EA" d="M102.4,214.2c-1.2,1.2-0.6,3.8-3.3,4.2c-0.7-1.3-1.5-2.7-2.5-4.6c-0.6,1.9-1,3.4-1.6,5.2
		c-2-2.8-2.1-5.1-1-10.6c0.6-0.1,1.2-0.1,2.2-0.2c1.2,2.2,2.3,4.3,3.5,6.6c1.1-2.2,2.2-4.3,3.2-6.5c1,0,1.8,0.1,2.9,0.1
		c0,3.4,0,6.6,0,10.8c-1.2-1.2-2.1-1.6-2.3-2.3c-0.3-0.9,0-2,0-3c0,0-0.3-0.2-0.3-0.2s-0.2-0.3-0.2-0.3s-0.2,0.3-0.2,0.3
		C102.7,213.9,102.5,214,102.4,214.2z"/>
	<path fill="#E4E7EA" d="M132.5,212.1c0,0.5-0.1,1-0.2,1.7c-1.7,0.3-3.4,0.5-5.1,0.8c0,0.3-0.1,0.6-0.1,0.9c0.9,0.2,1.8,0.5,2.7,0.7
		c1.1,0.2,2.2,0.2,3.6,0.3c-0.2,0.9-0.4,1.4-0.5,2.1c-2.7,0-5.1,0-7.7,0c-1.2-3.5-0.8-6.9-0.4-10.6c1.6-0.3,3-0.5,4.4-0.8
		c0.7-0.6,1.3-0.6,2,0c0.6,0.2,1.2,0.5,1.9,0.7c0,0.7,0,1.3,0,2c-0.5,1-1.3,1-2.3,0.8C131.5,211.2,132.2,211.3,132.5,212.1z"/>
	<path fill="#E4E7EA" d="M121.7,214.2c-0.2,1.4-0.4,2.7-0.6,4.3c-3-1.3-1.1-3.8-2.3-5.4c-1.1,1.8-2.1,3.5-3.6,6.1
		c-1.4-2.7-2.4-4.6-3.5-6.6c-1.4,1.6,1,4.5-2.2,5.9c-0.2-2-0.4-3.8-0.5-5.5c-0.2-0.7-0.2-1.4,0-2c0.1-0.8,0.2-1.6,0.3-2.7
		c0.7-0.1,1.4-0.3,2.4-0.5c1.1,2,2.2,4,3.4,6.2c2.5-1.7,1.7-6,5.9-6.8c0.3,1.7,0.6,3.2,0.9,4.8C121.7,212.8,121.7,213.5,121.7,214.2
		z"/>
	<path fill="#E4E7EA" d="M67.3,209.3c0.6-0.3,1.1-0.7,2-1.2c0.4,1.4,0.7,2.6,1.2,4c1.2,0,2.4,0,3.9,0c0.1-0.3,0.2-0.7,0.3-1.1
		c0.2-0.9,0.5-1.8,1.2-2.7c1.7,3.5,1.1,7.1,1,10.6c-0.1,0.2-0.2,0.4-0.3,0.6c-0.6,0.4-1.3,0.4-2,0.3c-0.4-0.2-0.8-0.5-1-0.9
		c-0.5-0.6-0.5-1.6-1.5-1.8c-1.4,0-1.3,1.8-2.5,2c-0.6-0.1-1.3-0.2-2.4-0.3C67.4,215.5,67.4,212.4,67.3,209.3L67.3,209.3z"/>
	<path fill="#E4E7EA" d="M80.7,209.3c0.3,0,0.7,0,1-0.1c5.4-2.3,7.5-1.3,9.5,4.5c-2.3,5.2-3.1,5.6-8.6,5c-0.6-0.1-1.3,0.1-2,0.2
		c-0.2,0.2-0.3,0.3-0.3,0.3c-0.1,0.1-0.1-0.1,0.2-0.4c-0.3-1.7-0.6-3.4-1-5.5c0.2-0.9,0.6-2.3,1-3.7C80,209,80.1,209,80.7,209.3z"/>
	<path fill="#E4E7EA" d="M121.1,416c-0.6,0.1-1.2,0.2-1.8,0.3c-1.1,1.1-0.3,2.2-0.2,3.4c-0.3,0.8-0.6,1.7-0.9,2.8
		c-1.5-2.5-1.5-2.5-2-6.5c-1.5-0.1-3-0.1-4.7-0.2c-0.2,2.3-0.3,4.2-0.5,6.5c-2.9-1.4-1.1-4-2.1-5.8c-0.6-0.5-1.3-1.2-2.1-1.9
		c0.5-0.4,0.8-1,1.2-1c4.2-0.1,8.5,0,13.1,0C121,414.7,121,415.3,121.1,416L121.1,416z"/>
	<path fill="#E4E7EA" d="M94.5,422.8c-0.5,0-1.1,0-1.6-0.1c-0.1,0.2-0.3,0.5-0.4,0.7c0-0.3,0-0.5-0.1-0.8c-0.3-1.2-0.5-2.4-0.8-3.5
		c-0.3,0-0.6,0-0.9,0c-0.3,0.8-0.5,1.6-0.9,2.8c-0.7-0.4-1.3-0.8-2-1.2c1.3-2.3-0.8-5.2,1.9-7.8c0.3,2.1,0.5,3.6,0.8,5.2
		c2.9-0.2,0.7-3.2,2.5-4.1c0.3,0,0.8,0.1,1.2,0.2c1,1,1,2.3,1.3,3.6c0.2,0.9,1,1.2,1.7,1.6c0.4,0.2,0.7,0.5,0.9,0.8
		c0.2,2.4-1.7,2.3-3.2,2.6c-0.1,0.2-0.1,0.5-0.2,0.7C94.7,423.3,94.6,423,94.5,422.8z"/>
	<path fill="#E4E7EA" d="M72.2,379.6c0-2.2,0-4.4,0-6.7c2.8-1.4,5.1-1.5,6.6,0.6c0,2.6,0,4.5,0,6.8c-1.1-0.7-2.2-1.3-3.4-2
		C74.2,378.4,74.1,381.3,72.2,379.6z"/>
	<path fill="#161619" d="M75.2,359.2c-1.3-3-2.6-6-3.8-9c1.1,0.3,2.2,0.5,3.3,0.8c0.4-1.3,0.8-2.5,1.3-3.8c0.3,0,0.6,0.1,0.9,0.1
		c0.1,1.2,0.2,2.4,0.4,3.5c0.2,0.8,0.8,1.6,1.2,2.3c0,0.6,0,1.2,0,1.9c-0.6,1.1-1.2,2.3-2,3.9C76.3,359,75.8,359.1,75.2,359.2z"/>
	<path fill="#E4E7EA" d="M122,416.2c0.2-0.6,0.4-1.2,0.6-1.9c2,0,3.9,0,5.8,0c-0.3,3.1-2.9,1-4.1,2.4c1.4,0.3,2.6,0.6,5,1.1
		c-1.6,0.7-2.2,1.1-2.8,1.2c-0.6,0.1-1.2,0-1.9,0.8c1.5,0.3,3,0.6,4.8,1c-3.2,2.3-5.1,2-7.3-0.6C121.2,418.8,121.7,417.5,122,416.2z
		"/>
	<path fill="#E4E7EA" d="M85.2,415.1c0.7,0.8,1.4,1.6,2.5,2.7c-1.6,1.7-3,3.2-4.2,4.5c-5.2-1.7-5.5-2.1-5.3-7.1l-0.1,0.1
		C82.4,412.4,82.4,412.4,85.2,415.1c-0.6,0.9-1.8,1.2-2.9,2.6C83.9,416.9,84.4,415.9,85.2,415.1z"/>
	<path fill="#333239" d="M97.1,127.2c2.6,0,5.3,0.1,7.9,0c2.7-0.2,5.5-0.6,8.2-0.9c0.7-0.8,1.6-0.8,2.5-0.4c0.1,0.2,0.3,0.4,0.4,0.5
		c-0.8,0.9-0.6,1.9,0,2.8c-4.3,0-8.7,0.1-13,0.1C100.5,130.6,98,131.3,97.1,127.2z"/>
	<path fill="#E4E7EA" d="M66.2,419.3c0,0.5,0,1,0,1.8c-1.9,0-3.7,0-6,0c0-2.8,0-5.4,0-7.9c2-1.3,4-1.3,6,0.1c-0.1,0.5-0.1,1-0.2,1.6
		c-1.2,0.1-2.5,0.3-3.8,0.5c0.9,1.7,3.7-0.1,3.9,2.4c-0.2,1.1-1.1,1-1.9,1c-0.3,0-0.5-0.2-0.5,0C64,419.4,65.7,418.1,66.2,419.3z"/>
	<path fill="#E4E7EA" d="M70.7,380.8c-2.2-1.3-3.3-2-4.6-2.8c-1.2,0.7-2.3,1.3-3.4,1.9c-1.1-1.6,0.4-5.2,3.6-8.1
		C68.8,373.9,69.2,376.9,70.7,380.8z"/>
	<path fill="#E4E7EA" d="M99.2,414.2c2-0.6,4-0.9,6-0.4c0,0.3,0.1,0.7,0.1,1c-1.3,0.3-2.7,0.6-4,1c0,0.2-0.1,0.5-0.1,0.7
		c1.3,0.3,2.5,0.7,3.9,1c-0.3,0.4-0.6,1-0.9,1.1c-0.9,0.3-1.9,0.3-3,1.2c1.6,0.3,3.1,0.7,5.1,1.1c-4,2-5,1.8-7.4-0.6
		C97.6,418.1,97.7,416.1,99.2,414.2z"/>
	<path fill="#E4E7EA" d="M62,374.9c-2.2,1.6-4,3-6.5,4.9c-0.3-2.4-0.6-4.6-0.9-6.6C57.9,370.7,58.2,370.7,62,374.9z"/>
	<path fill="#161619" d="M97.1,127.2c1.2,3.1,4,1.7,6.1,2.1c-0.1,0.8-0.1,1.6-0.2,2.6c-2.8,0.5-5.5,1-8.5,1.6
		c-0.1-1.4-0.2-2.4-0.3-3.3c0.4-0.3,0.7-0.6,1.1-1c0.6-0.5,0.2-1.6,1-2C96.6,127.2,96.8,127.2,97.1,127.2z"/>
	<path fill="#E4E7EA" d="M88.2,376.4c-0.5-0.6-0.9-1.3-1.3-1.9c2.7-3.1,2.7-3.1,6.4-0.9c-1.5,0.3-2.6,0.6-3.6,0.8
		c1.3,0.8,2.7,1.6,3.9,2.4c-2,4.1-2.2,4.2-6.7,2.3c0.5-0.5,0.9-0.9,1.3-1.3C89.4,377.4,88.7,376.9,88.2,376.4z"/>
	<path fill="#030203" d="M120.5,343.3c-0.3,1.2-0.9,2.4-1,3.6c-0.1,2.8,0.1,5.6,0,8.4c0,0.8-0.7,1.6-1.1,2.5
		c-0.6-1.5-1.1-2.9-1.7-4.3c0.2-3.3,0.5-6.6,0.8-10.3C118.6,343.3,119.5,343.3,120.5,343.3z"/>
	<path fill="#030203" d="M115,358.5c-3.1,0-6.2,0-9.5,0c0-1.2,0-2,0-3.4c2.6,0,5.1,0,7.7,0C113.3,356.5,116.2,356.4,115,358.5z"/>
	<path fill="#E4E7EA" d="M77.2,413c0.3,0.7,0.6,1.5,1,2.2l0.1-0.1c-0.8,0.1-1.6,0.1-2.7,0.2c-0.2,2-0.3,3.9-0.5,6.2
		c-2.9-1.4-1-4-2-5.7c-0.7-0.5-1.4-1-2.8-2c1.8-0.3,2.9-0.5,3.9-0.7C75.2,412.3,76.2,412.3,77.2,413z"/>
	<path fill="#030203" d="M135.2,129.2c3,0,6,0.1,9,0.1c-0.3,1.3-0.7,2.6-1,4c-3-1-5.4-1.8-7.7-2.6
		C135.4,130.2,135.3,129.7,135.2,129.2z"/>
	<path fill="#030203" d="M99.2,414.2c0,2-0.1,4-0.1,6c-0.3,0-0.6,0-0.9,0c-0.3,0-0.6-0.1-0.9-0.3c-0.8-0.6-2.1,0.1-2.8-0.8
		c0-1.7-0.1-3.3-0.1-5C95.9,414.2,97.6,414.2,99.2,414.2z"/>
	<path fill="#161619" d="M74.9,219l0.3,0c0.7,0.9,1.3,1,1.9-0.1l-0.1,0c1.1,0,2.2-0.1,3.4-0.1l0.2,0.1c-0.6,1.3-1.1,2.7-1.7,4.1
		c-1.8,0-3.4,0-5.3,0c-0.1-1.3-0.2-2.6-0.3-3.8C73.7,218.6,74.3,218.5,74.9,219z"/>
	<path fill="#161619" d="M78.3,190.2c-0.9-2-1.9-4-2.8-6c2.7-0.4,4.7,0.5,5.8,3C81.2,189.2,80.2,190.2,78.3,190.2z"/>
	<path fill="#030203" d="M124.2,363.2c3-0.1,6-0.2,9-0.2c-0.1,0.6-0.2,1.2-0.3,2c-2.8,0-5.5,0-8.4,0
		C124.5,364.3,124.3,363.8,124.2,363.2z"/>
	<path fill="#E4E7EA" d="M83,372.3c1.6,2.5,1.5,5.1,0.5,8.4C81.1,377.7,82,375,83,372.3z"/>
	<path fill="#030203" d="M97.2,195.2c-1.3-0.1-2.7-0.2-4-0.3c-1.2-0.7-3,0.4-4.1-1c0.3-2,2.1-0.8,3.1-1.5c1.3-0.2,2.6-0.4,3.9-0.5
		C96.5,193,96.9,194.1,97.2,195.2z"/>
	<path fill="#161619" d="M65.7,302.6c-0.8,1.5-1.3,2.6-2,4c-1.1-0.9-1.8-1.4-2.5-2C61.7,302.5,62.9,301.9,65.7,302.6z"/>
	<path fill="#030203" d="M131.2,183.3c-2.3-0.3-4.7-0.7-7-1c0.1-0.5,0.1-1,0.2-1.5c2.5-1.5,4.4,0.7,6.6,0.9
		C131.1,182.3,131.2,182.8,131.2,183.3z"/>
	<path fill="#030203" d="M124.3,350.2c-0.1-2-0.1-4-0.2-6c0.5,0,1,0.1,1.8,0.2c0,1.7,0,3.4,0,5.4C125.5,349.9,124.9,350,124.3,350.2
		z"/>
	<path fill="#030203" d="M83.1,350.6c0.7,1.1,1.5,2.2,2.2,3.3c-0.4,1.4-0.7,2.8-1.1,4.2c-0.2,0.7-0.7,1.3-1,2
		c-0.1-2.3-0.2-4.6-0.4-6.9C82.7,352.4,82.7,351.5,83.1,350.6z"/>
	<path fill="#030203" d="M66.2,413.2c-2,0-4,0-6-0.1c0.1-0.5,0.2-1,0.3-1.7c1.7,0,3.4,0,5.4,0C66,412,66.1,412.6,66.2,413.2z"/>
	<path fill="#030203" d="M74.9,219c-0.6,0.1-1.1,0.1-1.7,0.2l0,0c-0.4-0.3-0.2-1.2-1-1c-0.8,0.3-1.6,0.6-2.5,0.9
		c0.2-1.2,0.4-2.5,0.6-3.8c1.3,0,2.5,0,4,0C74.6,216.5,74.8,217.8,74.9,219z"/>
	<path fill="#030203" d="M101,183.1c-0.1,1-0.2,2-0.3,3c-1.3,0-2.6-0.1-3.9-0.1c0-0.9,0.1-1.9,0.1-2.8
		C98.4,183.2,99.7,183.2,101,183.1z"/>
	<path fill="#161619" d="M132.5,212.1c-1.7-0.2-3.5-0.5-5.2-0.7c0-0.3,0-0.6,0-1c2-0.2,3.9-0.3,5.9-0.5
		C132.9,210.7,132.7,211.4,132.5,212.1z"/>
	<path fill="#030203" d="M126.2,358.2c-0.6,0-1.2,0-1.9,0c0-1.8,0-3.4,0-5.1c0.5,0.1,1,0.2,1.9,0.3
		C126.2,355,126.2,356.6,126.2,358.2z"/>
	<path fill="#030203" d="M96.2,182.9c-1,0-2,0-3-0.1c-0.8-0.4-1.6-0.7-3.2-1.5c2.3-0.1,3.9-0.2,5.7-0.3
		C95.9,181.8,96.1,182.4,96.2,182.9z"/>
	<path fill="#161619" d="M95.7,200.9c-2.7,0-5.3,0-8,0c0-0.2,0-0.3,0-0.5c2.6,0,5.3,0,7.9,0C95.6,200.6,95.6,200.8,95.7,200.9z"/>
	<path fill="#030203" d="M118.7,360.3c-0.1,0.2-0.1,0.5,0,0.7c-1.2,0.4-2.3,0.8-3.5,1.1c-0.1-1.2-0.2-2.5-0.3-3.7
		C117.1,357.3,117.1,360.3,118.7,360.3z"/>
	<path fill="#030203" d="M106.8,348.8c2.1-0.1,4.1-0.3,6.2-0.4c0,0.8,0.1,1.6,0.1,2.4c-2.1,0-4.2,0-6.3-0.2
		c-0.5-0.1-0.9-0.9-1.4-1.5C105.8,348.9,106.3,348.8,106.8,348.8z"/>
	<path fill="#030203" d="M75.1,183.5c-1.3-0.1-2.6-0.2-3.9-0.2c0-0.5,0.1-1,0.2-1.6c1.4-0.5,2.7-1.3,3.8,0.5
		C75.2,182.6,75.2,183,75.1,183.5z"/>
	<path fill="#030203" d="M69.9,359.2c0.1,0.3,0.3,0.7,0.4,1c-1.4,0-2.9,0-4.6,0c-0.2-0.6-0.4-1.1-0.5-1.7c1.1,0.1,2.2,0.2,3.4,0.3
		C69.1,358.8,69.5,358.9,69.9,359.2z"/>
	<path fill="#222225" d="M88.2,376.4c1,0.4,2,0.8,3,1.2c-0.9,2.3-2,0.6-3,0.3C88.2,377.4,88.2,376.9,88.2,376.4z"/>
	<path fill="#161619" d="M122,416.2c0,1.3,0,2.7,0,4c-0.6-0.1-1.1-0.3-1.6-0.4c0.2-1.4,0.4-2.6,0.6-3.8c0,0,0,0,0,0
		C121.4,416,121.7,416.1,122,416.2z"/>
	<path fill="#030203" d="M77.2,413c-1,0-2,0-3,0c0-1,0.2-2.1,1.5-1.7C76.3,411.4,76.7,412.4,77.2,413z"/>
	<path fill="#161619" d="M79.4,193.3c-0.2-0.6-0.5-1.3-0.7-1.9c0.6,0,1.3-0.1,2.2-0.1c0.1,0.7,0.3,1.3,0.4,1.9l0,0
		C80.6,193.2,80,193.3,79.4,193.3z"/>
	<path fill="#030203" d="M66.2,419.3c-1.3-0.1-2.6-0.2-3.8-0.4c0-0.1,0-0.3,0-0.4c1.3-0.3,2.5-0.6,3.8-0.9
		C66.1,418.2,66.2,418.8,66.2,419.3z"/>
	<path fill="#161619" d="M60.6,292c0-0.5,0-1,0.1-1.4c0-0.1,0.8-0.2,0.8-0.1c0.2,0.5,0.2,1,0.4,1.5C61.5,292,61.1,292,60.6,292z"/>
	<path fill="#161619" d="M56.6,370c0-0.5,0-1,0.1-1.4c0-0.1,0.8-0.2,0.8-0.1c0.2,0.5,0.2,1,0.4,1.5C57.5,370,57.1,370,56.6,370z"/>
	<path fill="#161619" d="M72.2,218.2c0.1-0.5,0.2-1.1,0.3-1.6c0.2,0,0.4,0,0.5,0c0.1,0.9,0.1,1.7,0.2,2.6
		C72.9,218.8,72.6,218.5,72.2,218.2z"/>
	<path fill="#54525C" d="M125,185.9c1.2,0,2.3,0,3.5,0.1C127.3,185.9,126.1,185.9,125,185.9z"/>
	<path fill="#161619" d="M119.1,419.7c-0.5-1.1-1.4-2.3,0.2-3.4C119.2,417.4,119.1,418.6,119.1,419.7z"/>
	<path fill="#030203" d="M131.2,207.2c-0.7,0-1.3,0-2,0C129.9,205.8,130.6,205.8,131.2,207.2z"/>
	<path fill="#333239" d="M108.9,211.2c0,0.7,0,1.4,0,2C108.9,212.5,108.9,211.8,108.9,211.2z"/>
	<path fill="#54525C" d="M90.8,351.1c0,0.6-0.1,1.3-0.1,1.9c-0.2-0.2-0.4-0.3-0.5-0.5C90.4,352,90.6,351.6,90.8,351.1z"/>
	<path fill="#54525C" d="M121.7,214.2c0-0.7,0.1-1.4,0.1-2.1C121.8,212.8,121.7,213.5,121.7,214.2z"/>
	<path fill="#030203" d="M132.3,358.3c-0.7,0-1.4,0-2,0C130.9,356.7,131.6,356.8,132.3,358.3z"/>
	<path fill="#161619" d="M90.9,423.5c0.1,0.4,0.1,0.8,0.2,1.2c-0.1,0-0.3,0-0.4,0c0-0.4,0-0.8,0-1.2
		C90.7,423.5,90.8,423.5,90.9,423.5z"/>
	<polygon fill="#161619" points="55,364.7 54.6,364.8 54.7,364.5 	"/>
	<path fill="#030203" d="M109.2,343.1c-0.3,0-0.7,0-1,0c0.2-0.3,0.3-0.5,0.5-0.8C108.9,342.6,109.1,342.9,109.2,343.1z"/>
	<path fill="#54525C" d="M102.4,214.2c0.2-0.4,0.5-0.8,0.7-1.2l0.4,0.1l0.1,0.4l-0.1,0.4C103.1,214,102.7,214.1,102.4,214.2z"/>
	<path fill="#161619" d="M92.4,422.6c0.1,0.2,0.3,0.2,0.5,0.1c0,0.4,0,0.7-0.1,1.1c-0.1,0-0.2,0-0.3,0
		C92.5,423.4,92.5,423,92.4,422.6z"/>
	<path fill="#161619" d="M94.5,422.8c0,0,0.4,0,0.4,0c0,0.4,0,0.7,0,1.1c-0.1,0-0.2,0-0.3,0C94.6,423.5,94.5,423.1,94.5,422.8z"/>
	<polygon fill="#161619" points="86,426.7 85.6,426.8 85.7,426.5 	"/>
	<path fill="#161619" d="M80.4,209.6c-0.4-0.2-0.8-0.3-1.2-0.5c0.2-0.2,0.4-0.4,0.6-0.6c0.3,0.3,0.6,0.5,0.9,0.8l-0.3,0
		C80.4,209.3,80.4,209.6,80.4,209.6z"/>
	<path fill="#161619" d="M81.2,193.2c0.3,0.1,0.5,0.3,0.8,0.4C81.7,193.5,81.5,193.3,81.2,193.2L81.2,193.2z"/>
	<path fill="#54525C" d="M156.2,130.2c0.3,0.7,0.6,1.4,0.8,2C156.8,131.6,156.5,130.9,156.2,130.2z"/>
	<path fill="#333239" d="M85.3,18.1c1,0.6,2,1.2,3.1,1.8c0.3,0.4,0.3,0.8,0,1.2c-1,0-2,0.1-3.1,0.1C85.3,20.2,85.3,19.1,85.3,18.1z"
		/>
	<path fill="#54525C" d="M88.3,21.1c0-0.4,0-0.8,0-1.2c0.8,0.3,1.5,0.6,2.3,0.9C89.9,20.9,89.1,21,88.3,21.1z"/>
	<path fill="#101012" d="M119.2,97.2c1.5,1.3,1.5,2.7,0,4C117.7,99.8,117.6,98.5,119.2,97.2z"/>
	<path fill="#AFABBB" d="M95.2,6.4c0.3,0.3,0.6,0.5,0.9,0.8C95.8,7,95.5,6.7,95.2,6.4z"/>
	<path fill="#AFABBB" d="M93.2,5.6c0.4,0.2,0.8,0.3,1.2,0.5C94,5.9,93.6,5.8,93.2,5.6z"/>
	<path fill="#161619" d="M135.2,122.2c0.3,0.7,0.7,1.4,1,2.1c0.6,0.6,0.6,1.2,0,1.8c-2.7,0-5.3,0-8,0c-0.3-0.4-0.5-0.8-0.4-1.3
		c1.4-2.7,4.4-1.6,6.5-2.7C134.6,122.2,134.9,122.2,135.2,122.2z"/>
	<path fill="#222225" d="M136.2,126.1c0-0.6,0-1.2,0-1.8c2.4-0.2,4.9-0.4,7.3-0.5c0.3,0.5,0.5,0.9,0.8,1.4
		C141.8,127.3,138.9,125.7,136.2,126.1z"/>
	<path fill="#101012" d="M128.2,125.1c0,0.4,0,0.7,0,1.1c-4,0-8,0.1-12,0.1l0-0.1c-0.1-1.7,1.2-1.9,2.4-2.2
		C121.9,123.8,125.2,122.9,128.2,125.1z"/>
	<path fill="#E4E7EA" d="M49.3,186.2c0,2.7,0,5.4,0,8c1.1,1.7,1.3,3.4-0.3,4.9c-1.3-0.3-2.5-0.6-3.8-0.9c-2.1-1.1-3.7-2.6-4.8-4.6
		c-0.8-1-0.9-0.4-1,0.5c-0.1,1.8,0.3,3.7-1.3,5.1c-1.1-0.3-2.3-0.5-3.4-0.8c-2-4.8-0.9-9.5,0.5-14.2c1.1,0,2.3,0,3.5,0
		c2.3,3,4.5,5.9,7.5,9.7c0-4.1,0-7.1,0-10C48,183.5,50,183,49.3,186.2z"/>
	<path fill="#E4E7EA" d="M29.4,199.6c-0.3-0.2-0.7-0.5-1-0.7c-2.8-1.5-5.6-2.1-8.3,0.2c-1.1,0.7-2.2,1.6-3.8,0.1
		c1.9-4.9,3.9-9.9,5.9-14.9c1.3-1.2,2.6-1.3,3.8,0l-0.1-0.1c3,4.8,7.5,9.2,5,15.7l0.1-0.1C30.4,200.9,29.7,200.9,29.4,199.6z"/>
	<path fill="#161619" d="M31,200c-0.1-1.4,0.1-2.8-0.3-4.1c-1.4-3.9-3.1-7.8-4.7-11.7c1.6,0,3.2,0,5.6,0c-0.8,1.9-1.3,3.3-2,4.7
		c1,0,2,0,3.2,0c0.2-1.4,0.4-2.8,0.6-4.5c0.5-0.1,1.1-0.2,1.7-0.4c-0.2,4.7-0.4,9.5-0.5,14.2C34.2,200.4,32.6,200.3,31,200z"/>
	<path fill="#E4E7EA" d="M22.2,209c0.9,0.7,1.9,1.4,2.8,2.1c1.7,2.7,0,4.1-2.1,5.4c-1.7,0.2-2.9,1.4-4,2.6c-0.6,0.3-1.1,0.5-2.3,1.1
		c-0.2-3.3-0.3-6.2-0.5-9.1c-0.4-0.8-0.8-1.6,0.5-1.9c0.8-0.1,1.7-0.2,2.5-0.4C20.2,208.2,21.2,208.3,22.2,209z"/>
	<path fill="#101012" d="M38.1,199.1c0-3.2,0-6.4,0-9.6c0.2-0.1,0.4-0.2,0.7-0.3c0.8,1.3,1.7,2.6,2.5,3.8c0.4,1.6,0,2.9-1,4.1
		c0,0.7,0,1.3,0,2C39.5,199.2,38.8,199.1,38.1,199.1z"/>
	<path fill="#101012" d="M20.1,199.1c0.2-0.6,0.3-1.2,0.5-2c1.9-0.1,3.7-0.2,5.5-0.3c1.4,0,2.1,0.7,2.3,2.1
		c-0.3,0.4-0.5,0.8-1.3,1.9c-0.6-1.1-1.1-1.9-1.6-2.9C23.6,198.4,21.8,198.8,20.1,199.1z"/>
	<path fill="#101012" d="M22.2,216.4c2-1.2,3.4-2.7,2.8-5.3c0.6,0.1,1.2,0.1,1.8,0.2c-0.1,1.9-0.2,3.8-0.2,5.7
		c-1.5,0-2.9,0.1-4.4,0.1c0,0-0.3-0.4-0.3-0.4L22.2,216.4z"/>
	<path fill="#101012" d="M22.2,209c-1,0-2-0.1-3-0.1c-0.5-0.4-1-0.8-1.8-1.4c1.6,0,2.8,0,4.5,0C21.9,207.9,22.1,208.4,22.2,209z"/>
	<path fill="#030203" d="M49.3,186.2c-0.1-0.6-0.2-1.2-0.4-2.1c-0.9-0.1-1.8-0.2-2.7-0.3c0.2-0.6,0.4-1.1,0.6-1.6
		c1.3,0.4,2.4,0.7,3.4,1C49.9,184.2,49.6,185.2,49.3,186.2z"/>
	<path fill="#161619" d="M26.1,184.3c-1.3,0-2.6,0-3.8,0c0.1-0.6,0.1-1.2,0.2-1.9c1.2,0,2.3,0,3.5,0C26,183.2,26.1,183.8,26.1,184.3
		z"/>
	<path fill="#030203" d="M22.2,216.4c0,0.3,0,0.5,0,0.8c-1.1,0.7-2.2,1.3-3.3,2c0-0.7,0-1.5,0-2.5C20.2,216.5,21.2,216.5,22.2,216.4
		z"/>
	<path fill="#101012" d="M28.3,219c1.3,0.4,2.6,0.8,3.9,1.2c-1,0.4-2,0.9-3.4,1.5C28.6,220.4,28.4,219.7,28.3,219z"/>
	<path fill="#161619" d="M34,227.8c-0.9,0-1.7,0-2.9,0C32,225.6,33,226.1,34,227.8z"/>
	<path fill="#101012" d="M16.7,209.3c-0.2,0.6-0.4,1.2-0.5,1.9c-0.6-0.2-1.2-0.5-1.8-0.7c0-0.3,0-0.5,0-0.8
		C15.1,209.6,15.9,209.4,16.7,209.3z"/>
	<path fill="#030203" d="M35.6,200.6c0.4-0.1,0.7-0.2,1.1-0.2c0,0.1,0.1,0.3,0.1,0.4c-0.4,0.1-0.7,0.1-1.1,0.2
		C35.6,200.9,35.6,200.7,35.6,200.6z"/>
	<path fill="#161619" d="M29.4,199.6c0.6,0.1,1.2,0.2,1.8,0.3c-0.3,0.4-0.7,0.7-1,1.1C29.8,200.6,29.6,200.1,29.4,199.6z"/>
	<path fill="#E4E7EA" d="M65.4,186.2l-0.3,0.4c-0.2,1.8-2.3,1.7-2.9,3c-1.6,3,0.5,6.9-2.3,9.5c-1-0.3-2.1-0.7-3.1-1
		c-1.8-1.6-0.9-3.7-0.7-5.5c0.2-2.1,0.1-4-1.7-5.3c-1-0.3-2-0.7-3.3-1.1c0.6-1.1,1-1.9,1.3-2.7c2.6-1.2,5.3-0.8,7.9-0.2
		c1.7,0.4,3.4,0.7,5.1,1.1C65.8,184.8,65.8,185.5,65.4,186.2z"/>
	<path fill="#030203" d="M59.8,199.1c0.2-3.9,0.3-7.8,0.5-12c1.6-0.2,3.2-0.3,4.7-0.5c0,0.6,0.1,1.1,0.1,1.7c-2,1.5-2,3.9-3,5.9
		c0,1.4,0,2.9,0,4.6C61.3,198.9,60.6,199,59.8,199.1z"/>
	<path fill="#101012" d="M66.2,199.3c1.2-1,2.4-2,4.2-3.5c0.8,0.1,2.3,0.2,3.9,0.4c0,0.3,0.1,0.9-0.1,0.9c-3.2,1.2-5.8,4.1-9.9,4
		C65.1,200.3,65.7,199.8,66.2,199.3z"/>
	<path fill="#030203" d="M54.2,187.2c0.8-0.1,1.5-0.1,2.4-0.2c0,3.9,0,7.5,0,11c-1.8,0-1.3-1.4-1.4-2.4
		C54.9,192.8,54.6,190,54.2,187.2z"/>
	<path fill="#101012" d="M44.4,211.7c0.7,1.3,1.5,2.6,2.5,4.4c-1.8,0.6-2.9,1-4.8,1.7c-0.2-3.1-0.4-5.7-0.6-8.2
		c0.6-0.1,1.2-0.2,1.7-0.3c1.2,1.8-0.2,4.1,1,6.2c0.1,0.4,0.6-0.6,0-0.3c-0.2,0.1-0.3,0-0.4-0.3C43.7,213.7,43.5,212.6,44.4,211.7z"
		/>
	<path fill="#030203" d="M65.4,186.2c0-0.7,0-1.3,0-2c1.2-0.2,2.7,1.4,3.6-0.8c0.1-0.3,1.5-0.2,2.3-0.2c-0.7,1.3-1.5,2.6-2.2,4
		C67.8,186.8,66.6,186.5,65.4,186.2z"/>
	<path fill="#222225" d="M62.2,194.2c0-1.8,0-3.6,0-5.7c1.1-0.1,2.1-0.2,3-0.2C65.7,190.9,63.6,192.4,62.2,194.2z"/>
	<path fill="#222225" d="M40.2,197.2c0.3-1.4,0.7-2.7,1-4.1c1.3,1.7,2.6,3.4,4,5.1C43.6,197.8,41.9,197.5,40.2,197.2z"/>
	<path fill="#030203" d="M49,199.1c0.1-1.6,0.2-3.3,0.3-4.9c0.5,0.1,1,0.2,1.7,0.3c0,1.4,0,2.8,0,4.5C50.3,199,49.6,199,49,199.1z"
		/>
	<path fill="#030203" d="M60.2,183.1c-2.6,0.1-5.3,0.1-7.9,0.2C54.9,181.3,57.5,181.7,60.2,183.1z"/>
	<path fill="#222225" d="M44.4,211.7c-0.1,1.4-0.3,2.8-0.4,4.1c-0.2,0-0.5,0-0.7,0c0-2.2,0-4.4,0-6.6C43.6,210,44,210.9,44.4,211.7
		C44.4,211.7,44.4,211.7,44.4,211.7z"/>
	<path fill="#101012" d="M75.4,196.6c0.4-0.1,0.9-0.2,1.4-0.3c0.6,0.9,1.2,1.8,1.8,2.7c-0.9,0-1.9,0-3.2,0
		C75.4,198.1,75.4,197.4,75.4,196.6z"/>
	<path fill="#030203" d="M65.9,195.2c-0.3,0.6-0.6,1.3-0.9,1.9c-0.5-0.2-1.1-0.3-1.6-0.5c0-0.3,0-0.5-0.1-0.8
		C64.1,195.6,65,195.4,65.9,195.2z"/>
	<path fill="#222225" d="M44.2,201.2c-0.6-0.3-1.3-0.6-2.5-1.2C44.2,198.9,44.2,200.1,44.2,201.2L44.2,201.2z"/>
	<path fill="#222225" d="M44.2,201.2c0.9,0.1,1.8,0.1,2.7,0.2c-0.1,0.3-0.2,0.6-0.3,0.9C45.8,201.9,45,201.5,44.2,201.2
		C44.2,201.2,44.2,201.2,44.2,201.2z"/>
	<path fill="#222225" d="M49.3,209.2c-0.1,1-0.3,1.9-0.4,2.9c-0.2-1-0.3-2-0.5-3C48.7,209.1,49,209.2,49.3,209.2z"/>
	<path fill="#030203" d="M55.2,208.2c-1,0.1-2,0.2-2.9,0.2C53.1,206.4,54.1,206.6,55.2,208.2z"/>
	<polygon fill="#222225" points="43.7,203.9 43.6,203.6 43.9,203.6 	"/>
	<path fill="#333239" d="M128.2,125.1c-3.3,0-6.6,0-10,0c-0.8-1-0.8-2,0-3c2.6-0.5,5.5,1,8-0.9c0.3-0.4,0.7-0.4,1,0c0.7,0,1.3,0,2,0
		c0.7-0.6,1.4-0.6,2,0c1,0.3,2,0.6,3.1,1c-0.6,1.7-1.9,2-3.5,2.1C129.9,124.2,129.1,124.8,128.2,125.1z"/>
	<path fill="#222225" d="M118.2,122.2c0,1,0,2,0,3c-0.7,0.3-1.4,0.7-2,1c-1,0-2,0-3,0c-1.1-2-2.9-0.7-4.4-1c-1.9-0.4-3.7-0.7-5.6-1
		c-0.6-0.7-0.6-1.3,0-2C108.2,122.2,113.2,122.2,118.2,122.2z"/>
	<path fill="#333239" d="M103.2,122.2c0,0.7,0,1.3,0,2c-1.3-0.1-2.6-0.2-3.9-0.3c0-0.4,0-0.9,0-1.3
		C100.6,122.4,101.9,122.3,103.2,122.2z"/>
	<path fill="#030203" d="M131.2,121.2c-0.7,0-1.4,0-2,0c0.2-0.7,0.4-1.3,1-3C130.8,119.9,131,120.6,131.2,121.2z"/>
	<path fill="#54525C" d="M95.3,128.2c-0.7-0.4-1.4-0.7-2-1.1c0.7,0,1.4,0,2,0c0.3,0.2,0.3,0.5,0.3,0.7
		C95.4,128.1,95.3,128.2,95.3,128.2z"/>
	<path fill="#222225" d="M95.3,128.2c0-0.4,0-0.7,0-1.1c0.3,0,0.7,0,1,0c-0.3,0.7-0.7,1.3-1,2C95.3,128.9,95.2,128.5,95.3,128.2z"/>
	<path fill="#030203" d="M127.3,121.2c-0.3,0-0.7,0-1,0c0.1-0.2,0.2-0.5,0.3-0.7C126.8,120.8,127,121,127.3,121.2z"/>
	<path fill="#161619" d="M44.2,360.2c-0.7-0.3-1.3-0.7-2-1c0-0.7,0-1.3,0-2c1.3-0.4,2.7-0.7,4.6-1.2c0.1,1.6,0.2,2.9,0.3,4.2
		C46.2,360.2,45.2,360.2,44.2,360.2z"/>
	<path fill="#222225" d="M49,355.2c-0.3-0.3-0.5-0.5-0.8-0.8C48.5,354.7,48.7,354.9,49,355.2z"/>
	<path fill="#161619" d="M28.3,214.2c0.9-2.1,2-3.7,4.2-3c2.4,0.9,2.3,2.9,1.5,4.9C30.5,217.8,30.5,217.8,28.3,214.2z"/>
	<path fill="#222225" d="M53.6,211.3c1.5,0,3,0,4.5,0c0.1,2.4-1.3,2.9-2.8,2.7c-0.8-0.1-1.4-1.2-2.1-1.8
		C53.3,211.8,53.4,211.5,53.6,211.3z"/>
	<path fill="#222225" d="M57.3,419.2c-1.2-0.1-2.5-0.2-3.9-0.3c0-1.5,0-2.9,0-4.3C56.7,414.6,56.8,417.1,57.3,419.2L57.3,419.2z"/>
	<path fill="#81818C" d="M83.1,350.6c-0.1,0.9-0.2,1.8-0.3,2.7c-0.2-0.8-0.4-1.7-0.6-2.5C82.5,350.7,82.8,350.7,83.1,350.6z"/>
	<path fill="#101012" d="M106.8,348.8c-0.5,0.1-1,0.2-1.5,0.4C105.5,347.6,106.1,348.2,106.8,348.8z"/>
	<path fill="#333239" d="M68.3,353.9c-2,0-3.4,0-5.2,0c0.8-2.1,1.5-3.8,2.4-6.2C66.6,350,67.3,351.7,68.3,353.9z"/>
	<path fill="#101012" d="M69.9,359.2c-0.4-0.1-0.9-0.2-1.3-0.3C69.1,359,69.5,359.1,69.9,359.2z"/>
	<path fill="#161619" d="M72.8,186.4c1.1,2.4,1.7,3.9,2.5,5.7c-1.5,0-2.7,0-4.3,0C71.5,190.3,72,188.8,72.8,186.4z"/>
	<path fill="#101012" d="M92.2,192.5c-0.8,0.4-1.6,0.8-2.6,1.2c1.2,0.5,2.4,0.9,3.5,1.3c-1.5,0.1-3.1,0.1-4.8,0.2c0-1.1,0-1.7,0-2.7
		C89.8,192.5,91,192.5,92.2,192.5z"/>
	<path fill="#54525C" d="M103.1,213c0.2-0.2,0.3-0.5,1.1-1.5c-0.3,1.2-0.4,1.6-0.5,2C103.4,213.4,103.3,213.2,103.1,213z"/>
	<path fill="#030203" d="M77.1,218.9c-0.1,0.7-0.2,1.4-0.3,2.1c-0.2,0-0.5,0.1-0.7,0.1c-0.3-0.7-0.6-1.4-0.9-2.1
		C75.8,219,76.5,219,77.1,218.9z"/>
	<path fill="#161619" d="M85.6,217.2c-3.4-0.9-4.2-2.7-3.3-5.3c3-2,4.6-2.1,5.7-0.1c0.4,0.8,0.6,2.1,0.3,2.8
		C87.6,215.6,86.4,216.4,85.6,217.2z"/>
	<path fill="#222225" d="M94.4,419.1c0.9,0.3,1.9,0.5,2.8,0.8C96.2,419.9,94.9,421,94.4,419.1z"/>
	<path fill="#333239" d="M76.9,375.1c-0.8,0-1.6,0-2.4,0c0-0.2,0-0.5,0-0.7c0.8,0,1.6,0,2.4,0C76.9,374.6,76.9,374.9,76.9,375.1z"/>
	<path fill="#222225" d="M85.2,415.1c-0.3,2,0,4.3-3,4.9c-2.3-0.9-2.6-2.4-1.1-4.6C82.5,415.3,83.9,415.3,85.2,415.1L85.2,415.1z"/>
	<path fill="#333239" d="M57.2,375.2c0.1-0.8,0.2-1.2,0.3-2.1c0.8,0.6,1.3,1,2.2,1.7C58.6,375,58,375.1,57.2,375.2z"/>
	<path fill="#222225" d="M96.9,416.5c0,0.4,0.1,0.8,0.1,1.2c-0.1,0-0.3,0-0.4,0c0-0.4,0-0.8,0-1.2C96.7,416.5,96.8,416.5,96.9,416.5
		z"/>
	<path fill="#333239" d="M22,193.3c0.8-2.2,1.3-3.5,2.1-5.6c0.9,2,1.4,3.4,2.2,5.2C24.9,193,23.7,193.1,22,193.3z"/>
	<path fill="#333239" d="M18.3,212.9c1.6-2.3,3-2.3,4.6-0.4C21.7,214.5,20.4,214.6,18.3,212.9z"/>
	<path fill="#222225" d="M30.1,214.1c0.5-0.6,1-1.1,1.7-2.1c0.5,0.6,0.9,1,1.6,1.6c-1.2,0.5-2,0.9-2.8,1.2
		C30.4,214.6,30.3,214.3,30.1,214.1z"/>
</g>
</svg>
