<svg xmlns="http://www.w3.org/2000/svg" viewBox="0 0 355.74 1233.41"><defs><style>.a{fill:#231f19;}.b{fill:#c3b9ac;}.c{fill:#e9e3d9;}.d{fill:#90876e;}.e{fill:#d6cec3;}.f{fill:#5d551f;}.g{fill:#8f3833;}</style></defs><path class="a" d="M641.25,622.56l6.7,15.22,2.87,6.84q3.06,8.07,6.13,16.15c.42,1.25.85,2.51,1.28,3.76L672,705.39c.65,2.05,1.3,4.09,1.94,6.14.47,2,.93,4,1.4,6l.65,1.88q2.47,10.44,4.94,20.87c.33,1.39.67,2.78,1,4.18l4,22.89c-.12.09-.37.22-.35.27a4.68,4.68,0,0,0,.36.75q1.49,39.92,3,79.83v13.18q-.5,27.39-1,54.76v7.2q-.5,18.38-1,36.77l-.63,21q-.19,15-.37,30-.33,14.49-.65,29t-.35,29l-.63,33q-.18,12-.37,24-.32,11.51-.65,23,2.57,18.4,5.11,36.81c.34,2.42.54,4.87.81,7.31,0,3,0,5.92,0,8.88l-1.17,7-.66,1.86-12,16.93c-2.15.12-4.94-.58-6.35.51-5.51,4.27-10.58,9.11-15.22,13.21l-8.83-1.24c-.23,2.39-.37,3.82-.51,5.25L631.24,1248l-.85.5L581.3,1254l-1.88.6c-7.83.3-15.66.7-23.49.85-2.83,0-5.68-.53-10.68-1l-5.84,1.56h-1.87l-1.18-.57c-7.69,0-12.67,0-17.66,0H504.28c0-.57-.07-1.15-.11-1.72l-7.58,3.37-.29-1.92-12.92.92-2.66,0-11.14-1.46-14.55-1,0,.58-14.42-2.13h-24l-17.1-3h-1.88l-28-7c-.65-6-14.78-16-23.85-16.9-16-12.08-13.36-29.19-9.48-44.56,6-23.62,2.44-47.14,3.09-70.69.15-5.3-.39-10.62-.47-15.93-.47-31.91-.84-63.83-1.38-95.75-.48-28.71-1.22-57.42-1.69-86.14-.44-27.6,0-55.23-1.16-82.8-2.49-58.95,11.09-114.56,32.83-168.74,18.26-45.5,36.13-91.15,54.18-136.73l5.81-2.65,5.81,7.65.57.86-.66,2,.28,1.07,2,2c-5.26,22-9.55,44.24-16,65.86q-13.1,43.85-29,86.86c-12,32.62-20.13,65.93-20.7,100.69-.26,16.17,2,32.36,2.73,48.56q2.19,45.84,4,91.71c1.1,26.84,2.27,53.69,3,80.55,1.19,45,1.89,90,3.19,135,.27,9.3,2.27,18.56,3.44,27.59-11.65,6.81-14.67,17.73-13.75,28.22.48,5.43,7.29,12,12.87,14.86,7.08,3.67,15.39,2.48,20.65-5.38,4.32-6.45,5.92-12.86,3.18-20.92s-3.48-16.66-4.28-25.11c-.2-2.07,2.78-4.44,4.31-6.67l3.5.37,3.78,1.37,45,10,1.57.33c3.77.59,7.54,1.16,11.31,1.76,30.62,4.85,61.13,3.7,91.56-1.76l1.57-.33,5.8-.61,1.33,1.62.91-2,31.35-6.66,1.57-.33c7.2-2.39,16.32-2.32,16.86-13.21l7.72,6c3.73-6.7,8.78-12.3,10-18.65a229.19,229.19,0,0,0,4.11-40.23c.24-20.55-2.13-41.17-1.32-61.68,1.24-30.92,4.63-61.74,6.39-92.64.87-15.35-.1-30.81.23-46.21.35-16.41,2.34-32.86,1.68-49.21-1.22-30.26-1.14-61-6.6-90.56-6.43-34.85-17.74-68.85-27.75-103-7.79-26.56-16.91-52.74-25.29-79.14-4.37-13.76-8.42-27.63-12.62-41.45l.69-3.53.88-1.17.93-.91,16.88-.91q3.88,10.08,7.75,20.16l1.29,3.76,6.7,16.23c.62,1.27,1.25,2.55,1.87,3.83L625,582.84l1,2.75q3.47,8.11,6.94,16.24l1,2.75q3,7.11,6,14.23Zm26.31,320.71,3.09.11c.56-4,1.59-8.09,1.61-12.14.14-30.47-.06-60.94.12-91.41.23-37.84,1.77-75.85-9.16-112.67-7.67-25.85-16.58-51.34-25-77-1.17-3.54-2.82-6.93-4.24-10.39a21,21,0,0,0,.41,11.57c6.62,23.88,16.3,47.36,19.35,71.68,5.6,44.55,7.78,89.55,10.45,134.42,1.49,25,1,50.07,1.64,75.1C665.89,936.16,667,939.71,667.56,943.27Zm-51.7,247.19c2.42-.92,4.46-1.11,5.45-2.24.85-1,1.2-3.46.54-4.44-1.17-1.71-3.28-2.78-6-4.89Zm9.15,20,.15-3.15h-6.55l-.12,2.72Z" transform="translate(-333.41 -23.58)"/><path class="b" d="M433.27,531.53l.66-2,2.59.11c.67.93,1.31,1.89,2,2.8,6.61,8.65,20.13,13.92,26.06,10.17,2-3.78,4.9-7.35,5.78-11.37,3.09-14.14,5.48-28.42,8.14-42.65,0-.31.06-.62.08-.93q1.37-8.07,2.72-16.13c2-.23,4.14-2.56,3.84-4.53s-3-3.57-4.63-5.33l-1.94-1.07-.61-2.87,2.63-3,2-2,1.91-2.08,1.07-1.93q.49-5.54,1-11.07l-1.08-1.93.48-5.26,6-1.59-2.72-3,6.19-2.12,1.07,1.93,2.94,3.06,1,1L522,431.13c-.17.53-.81,2.54-1.44,4.55l-2.07,2.94-2.06,4.24c10.74,1.91,13.36-.65,12.25-9.82-.47-3.84.21-7.83-.3-11.66-.4-3-1.84-5.83-2.81-8.74l-3.06-3.94c.33-2.8.91-5.6,1-8.41.41-25,1-50,1-75,.15-40.5.21-81-.26-121.5-.07-6.68-3.05-13.32-4.69-20l-1-1-13,1-3,3c-1.31,3.09-2.62,6.18-3.62,8.56l5.43,5.78-6.64,2.56-3.41-1.9c-1.81-6.19-3.24-11.09-4.67-16-.67-.66-1.34-1.33-2-2l-18.06-1.91-2-2q-1-7.53-2-15l1-1c1.28-3.44,2.57-6.88,3.93-10.5l3.7,4.41,3.42-4.83.93-.07,2.07-1.93.93-.08,3.06-1.91,3.94-3.07,8.29-1.75,3.68,3.55,5.31,11.08,8.63-4.49-7.23-6.8c.06-1.37.13-2.73.19-4.1q3.5-13.93,7-27.86c.81,1.41.45,2.63.51,3.84.45,8.72-4.38,18.4,4.57,25.6,0,.31,0,.62.08.93-1.84,5.75-4,11.44-5.36,17.3-.49,2,.79,4.49,1.27,6.75l0,0,11.16-1.42c-1.84-13.42-3.51-25.53-5.17-37.64l.09-.93c.91-1.36,2.51-2.67,2.63-4.1.87-11,1.51-22,2.06-33,0-.94-1.09-2-1.68-2.92l-.09-.92c-1.24-11.56-2.47-23.12-3.73-35l-2.91-1.87c.13-4.12-.71-8.48-3.21-9.91-3.54-2-8.32-1.88-15.51-3.21L509,48.19,500.49,47l-.93-.09-8.63-2.17L486.49,39v0l1.08-5,.94-.08L490.56,32l.93-.08H506l2.81,3.76c3.95-2,6.55-4.13,9.43-4.6,6.67-1.09,13.47-1.37,20.21-2l20.4,4.43c3.75,4.25,6.14,7.12,8.7,9.84,9.42,10,5.24,22.86,6.47,34.33,1.91,17.75,1.66,35.73,2.34,53.6.14,3.94.37,7.87.56,11.8-2.16-4-5.34-7.71-6.24-11.94-1.71-8.08-2.13-16.44-3.08-24.68l-1.24-.27c-2.54,9.5-5.07,19-7.69,28.81-6.28,0-12.08-.59-17.68.21a17,17,0,0,0-9.56,5c-1.32,1.49-.92,6.86.56,7.94,2.2,1.61,6,1.3,9.18,1.18s6.49-1.26,9.76-1.46c10.72-.65,19.23,5,17.09,12.9-2.33,8.56,1,14.43,4.42,21l-2,1c-1.27,1.24-3.45,2.32-3.69,3.74-1.91,11.25-4.93,22.57-4.87,33.85.43,71.81-4.27,143.85,7.88,215.19,3.29,19.31,8.55,38.29,12.37,57.52,1.87,9.44,2.5,19.12,3.7,28.69l-1.14,1-7.31,6.59c-11.49,4.92-14.88,4.41-18.8-5.24-3.48-8.58-6.37-17.42-9.16-26.26-1.89-6-3.16-12.18-4-15.36l8.64-6.67-3.69-2.72v-10.9l-9.22-8.52c-1.28-5.07-1.63-7.75-2.73-10.07-.34-.71-2.72-.46-4.36-.67-.4,3.16-.71,5.55-1,7.81-12.6,3.57-3.66,10.08-3.65,15.6.65,4.33,1.3,8.66,2.08,13.78l-2,1.47c1.77,5.12,4.58,9.67,4.72,14.3.38,12.58-.12,25.21-.79,37.8-.25,4.73-.76,10.25-3.33,13.84s-7.8,4.91-11.87,7.25L505.4,558c4.67-3.29,12.84-6.06,13.41-10,2.46-16.66,2.68-33.65,3.71-50.52l-.23.05c.51-5.63,1-11.27,1.49-16.56l-4.59-2.06c0-6.55-.45-12.69.11-18.74.76-8.15-5.69-10.35-10.59-13.63-2.45-1.64-5.8-1.94-8.74-2.85.48,3.12.42,6.46,1.56,9.31,1.56,3.89,4,7.41,6,10.86-2.51,2.27-3.71,3.37-5.68,5.16L506,480.5c-14.15-1.18-7.51,11-11.37,16.29l3.82,4.79c-2.67,12-4.81,23.52-7.84,34.77-3.61,13.4-1.05,18.71,11.85,22-3,.14-6.44,1.28-9,.26-19.39-7.74-38.61-15.9-57.88-23.93l-2-2C433.46,532.25,433.36,531.89,433.27,531.53ZM545.6,47c1-4.57,1.52-7.14,2.38-11.12l-20.55-2.33c2.09,5.7,3.64,10,5.72,15.63l14,1.11Zm-17.44,75.13,3.91.67q1.3-7.59,2.59-15.18l-4-.68Zm4.32,297.68c1.64,6.58,2.58,10.38,3.54,14.24-1,1.68-2.16,3.51-3.95,6.4C540.84,437.62,541.31,429.28,532.48,419.84ZM567.06,50.92l0-3.14-7.36.43.12,2.71Z" transform="translate(-333.41 -23.58)"/><path class="c" d="M488.5,145.86l-3.94,3.06-3.06,1.92-.93.08-2.07,1.93-.93.07-4.61.69.54-5.76,1-1,3-2,2.07-2.92,1.93-2.06c0-.31,0-.62.08-.93.64-.69,1.28-1.38,1.93-2.06,0-.31.05-.62.08-.93l0-4.08-2.12-3.91c1.44-10.21,3-20.41,4.26-30.64a73.64,73.64,0,0,0,.06-9l-3.34-.3c-2,8-4,16-5.91,24.06-.39,1.6-.15,3.64-1.07,4.75-3.78,4.54-7.9,8.8-11.89,13.17l-.09.92c0,1.7,0,3.39,0,5.08l0,5.94-3.45,8,7,5.41c-.17,2.66-.35,5.61-.53,8.57l-1,1q1,7.53,2,15l2,2c1.14.65,2.25,1.81,3.41,1.85,4.88.2,9.76.07,14.65.06.66.67,1.33,1.34,2,2q.74,8.35,1.46,16.68l2.56,2.32c.39,3.93.69,7,1,10.06-.37,1-.74,1.93-1.12,2.9v8.09l1.12,2.91c1.05,1.63,1.76,3.88,3.25,4.67,1,.54,3.12-1,4.74-1.56l4-3c.39-1.26,1.33-2.66,1.06-3.75-.78-3.17-2-6.21-3.13-9.3,0-.31,0-.62.08-.93-.09-1.51.31-3.34-.4-4.45-.92-1.44-2.73-2.31-3.48-2.9l5.62-8.24-5-4.4c.4-2.62.81-5.34,1.22-8.05l3-3,13-1,1,1c.33,16.69.57,33.37,1,50.06.59,23.22,1.6,46.45,1.91,69.68.33,25.05.24,50.11,0,75.17-.09,8.66-1.27,17.31-2.2,29.14l2.27.82,3.06,3.94c.53,9,1.07,18,1.61,27.26l-7.9,2.52c-.34-1.64-.57-2.72-.79-3.8l2.07-2.94c1.52-2.48,3.05-4.95,4.83-7.84l-24.87,1.86-1-1-2.94-3.06-1.07-1.93c.68-8.38,1.8-16.76,1.92-25.15.16-10.34-.46-20.7-.83-31q-1-27.4-2.1-54.81l.09-.93a77.73,77.73,0,0,0,.92-8.3c.09-14.05.19-28.1-.05-42.15-.07-4.46-1.17-8.9-1.79-13.35l-3.34.2c0,7.18.12,14.36,0,21.53-.53,27.52-1.18,55.05-1.65,82.58,0,1.48,1.2,3,1.84,4.48v2.91c-.64,1.32-1.7,2.6-1.87,4q-2.52,20.8-4.72,41.67c-.11,1.06,1,2.25,1.61,3.39l.09.92c1.3,2.69,2.59,5.39,3.89,8.08l1,2v7.21c-5.19,1.36-9.92,2.61-5,8.78l1.08,1.93q-.49,5.53-1,11.07l-1.07,1.93-1.91,2.08-2,2-8.88,1.41c3.91,2.55,5.39,3.51,6.86,4.48l1.94,1.07,3,5.7-4.89,2.14v18.15c0,.31-.05.62-.08.93-.74,4.11-1.2,8.3-2.28,12.32-3.76,13.93-7.74,27.8-11.64,41.7-5.93,3.75-19.45-1.52-26.06-10.17-.69-.91-1.33-1.87-2-2.81l-1-3c-.53-1-1.07-2.08-1.61-3.12a1.19,1.19,0,0,1-.42-.8l-.87-3.19a28.45,28.45,0,0,1,.47-4.9c4.92-18.62,10.32-37.12,14.71-55.86,2.22-9.47,2.65-19.35,3.88-29.05.06-.61.12-1.23.19-1.85.27-1.05.54-2.1.82-3.15,0-.62.07-1.24.11-1.86.3-1.38.59-2.75.88-4.13.07-1.29.14-2.57.2-3.86.52-.59,1.42-1.14,1.49-1.79,1.11-10,2.75-20,3-30,.7-27,.82-54.1,1.08-81.15,0-1.7-.71-3.41-1.09-5.11q.16-21.94.34-43.89c.6-1,1.7-2,1.71-3.06q.18-21.42,0-42.84c0-1.08-1-2.15-1.55-3.22l-.12-1.93-3.16-6.89-.12-7.07c.64-.57,1.92-1.41,1.81-1.66-1.67-3.91-3.52-7.73-5.28-11.47l-4.6,1.69-4.76-5.45c.29-4.69.68-9.38.83-14.07s0-9.14,0-14l1.95.2c2.81-29.62,5.6-59,8.38-88.35l5.5,2.82c1.47-2.16,3.56-4.36,4.63-7,2.43-6,4.36-12.14,6.49-18.23,9.53-2.79,18.91-6.55,28.63-8.08,8.6-1.35,17.59-.21,26.41-.18.15,1.42.29,2.84.43,4.17-7,.54-13.72.93-20.46,1.62-4.69.49-9.35,1.38-14,2.09l-.93.08-2.06,1.92-.94.08-1.08,5v0l3.06,8.78,10-.9.93.09,9.15,4.15c-.39-3.84-.55-5.43-.85-8.33,2.32.64,4.55.61,5.47,1.69a8,8,0,0,1,1.88,5.64c-.95,6.27-3,12.41-3.6,18.71-.34,3.61,1.29,7.42,2,11.14l2.75-.25c.77-2.59,1.53-5.18,2.12-7.19,1.7,5.54,3.36,11,5,16.41l.09.92L522,96.56v23.89h-.44v9.48l-.09.93c-.5,1.27-1.57,2.62-1.42,3.81,1.34,10.34,2.9,20.65,4.29,30.27l-8.86,5,0,0c.9-2.83,2.19-5.6,2.62-8.49.76-5.15,1-10.37,1.47-15.56,0-.31-.06-.62-.08-.93-.72-9-1.28-18-2.25-27-.34-3.09-1.72-6.06-3.05-10.52-3.64,13.32-6.65,24.34-9.67,35.37l-3.94-.05Z" transform="translate(-333.41 -23.58)"/><path class="d" d="M585.79,521.85c-1.2-9.57-1.83-19.25-3.7-28.69-3.82-19.23-9.08-38.21-12.37-57.52-12.15-71.34-7.45-143.38-7.88-215.19-.06-11.28,3-22.6,4.87-33.85.24-1.42,2.42-2.5,3.69-3.74-1,4.76-3,9.51-3,14.27-.21,52.42-1.86,104.91.48,157.22,1.54,34.52,7.92,69,14.11,103.07,3.77,20.79,11.31,40.9,17.15,61.31Z" transform="translate(-333.41 -23.58)"/><path class="d" d="M572.43,181.82c-3.43-6.55-6.75-12.42-4.42-21,2.14-7.91-6.37-13.55-17.09-12.9-3.27.2-6.49,1.34-9.76,1.46s-7,.43-9.18-1.18c-1.48-1.08-1.88-6.45-.56-7.94a17,17,0,0,1,9.56-5c5.6-.8,11.4-.21,17.68-.21,2.62-9.82,5.15-19.31,7.69-28.81l1.24.27c.95,8.24,1.37,16.6,3.08,24.68.9,4.23,4.08,8,6.24,11.94l3.3,27.75L578,180Z" transform="translate(-333.41 -23.58)"/><path class="b" d="M451.91,427.82c-.07.62-.13,1.24-.19,1.85-.23.24-.59.45-.65.72-6.72,27.85-13.46,55.7-20,83.59-.38,1.63,1,3.66,1.57,5.5l.87,3.19-9.88-4c14.28-37.45,23.16-76.21,27.84-116,1.58-13.36,2.61-26.79,3.89-40.19.42,2,1.29,4,1.19,6-.77,15.44-1.74,30.86-2.64,46.28l-.21,3.86c-.29,1.38-.58,2.75-.88,4.13l-.12,1.86Z" transform="translate(-333.41 -23.58)"/><path class="d" d="M458.75,252.84q-.17,21.95-.34,43.89c-.31,13.2-.57,26.39-1,39.59-.06,1.72-1,3.41-1.57,5.12q.07-58.11.14-116.23c.86,1.32,2.41,2.61,2.46,4C458.73,237.06,458.68,245,458.75,252.84Z" transform="translate(-333.41 -23.58)"/><path class="e" d="M455.83,341.44c.54-1.71,1.51-3.4,1.57-5.12.44-13.2.7-26.39,1-39.59.38,1.7,1.1,3.41,1.09,5.11-.26,27.05-.38,54.11-1.08,81.15-.26,10-1.9,20-3,30-.07.65-1,1.2-1.49,1.79.91-15.42,1.88-30.84,2.65-46.28.1-2-.77-4-1.19-6Z" transform="translate(-333.41 -23.58)"/><path class="b" d="M470.5,32.32c-2.13,6.09-4.06,12.26-6.49,18.23-1.07,2.61-3.16,4.81-4.63,7l-5.5-2.82C455.05,40.89,460,34.66,470.5,32.32Z" transform="translate(-333.41 -23.58)"/><path class="e" d="M491.49,31.94c4.67-.71,9.33-1.6,14-2.09,6.74-.69,13.51-1.08,20.46-1.62-.14-1.33-.28-2.75-.43-4.17l12.91,5.06c-6.75.61-13.55.89-20.22,2-2.88.47-5.48,2.6-9.43,4.6L506,31.94Z" transform="translate(-333.41 -23.58)"/><path class="f" d="M644.4,1245.57c.14-1.43.28-2.86.51-5.25l8.83,1.24c4.64-4.1,9.71-8.94,15.22-13.21,1.41-1.09,4.2-.39,6.35-.51C667.25,1237.66,656.6,1243,644.4,1245.57Z" transform="translate(-333.41 -23.58)"/><path class="e" d="M458.75,252.84c-.07-7.89,0-15.78-.32-23.66-.05-1.36-1.6-2.65-2.46-4q-.12-5.73-.26-11.44l3.21-10.05c.54,1.07,1.55,2.14,1.55,3.22q.16,21.42,0,42.84C460.45,250.8,459.35,251.82,458.75,252.84Z" transform="translate(-333.41 -23.58)"/><path class="f" d="M345.82,1225c9.07.93,23.2,10.94,23.85,16.9-5.14-3.21-10.41-6.25-15.4-9.69C351.24,1230.13,348.63,1227.43,345.82,1225Z" transform="translate(-333.41 -23.58)"/><path class="e" d="M442.69,170.94l4.76,5.45,4.6-1.69c1.76,3.74,3.61,7.56,5.28,11.47.11.25-1.17,1.09-1.81,1.66-1.09-2.81-2.17-5.61-3.5-9l-3,4.75-6.87-4.83C442.39,175.52,442.54,173.23,442.69,170.94Z" transform="translate(-333.41 -23.58)"/><path class="f" d="M684.25,1102.07l.63-33Z" transform="translate(-333.41 -23.58)"/><path class="f" d="M685.23,1040.1q.33-14.49.65-29Q685.55,1025.6,685.23,1040.1Z" transform="translate(-333.41 -23.58)"/><path class="f" d="M585.79,521.85l13.35-3.12,2.1,5-16.88.91.3-1.76Z" transform="translate(-333.41 -23.58)"/><path class="f" d="M683.23,1149q.33-11.51.65-23Q683.57,1137.51,683.23,1149Z" transform="translate(-333.41 -23.58)"/><path class="f" d="M423.65,518.68l9.88,4a1.19,1.19,0,0,0,.42.8l.36,3.23-.95,2L427.55,521l-5.81,2.65C422.38,522,423,520.35,423.65,518.68Z" transform="translate(-333.41 -23.58)"/><path class="f" d="M686.25,981.16l.63-21Z" transform="translate(-333.41 -23.58)"/><path class="b" d="M458.92,203.72l-3.21,10.05c0-4,0-7.91,0-11.87l3.1-.11Z" transform="translate(-333.41 -23.58)"/><path class="b" d="M578,180l2.22-9.08Z" transform="translate(-333.41 -23.58)"/><path class="f" d="M689.11,1202c0-3,0-5.92,0-8.88C689.14,1196.1,689.12,1199.06,689.11,1202Z" transform="translate(-333.41 -23.58)"/><path class="f" d="M688.88,861.42v0Z" transform="translate(-333.41 -23.58)"/><path class="e" d="M458.8,201.79l-3.1.11-.06-7C456.69,197.2,457.74,199.49,458.8,201.79Z" transform="translate(-333.41 -23.58)"/><path class="f" d="M687.88,923.38v0Z" transform="translate(-333.41 -23.58)"/><path class="f" d="M673.9,711.53c-.64-2-1.29-4.09-1.94-6.14Q672.94,708.47,673.9,711.53Z" transform="translate(-333.41 -23.58)"/><path class="f" d="M650.82,644.62,648,637.78Z" transform="translate(-333.41 -23.58)"/><path class="f" d="M681.9,744.5c-.34-1.4-.68-2.79-1-4.18C681.22,741.71,681.56,743.1,681.9,744.5Z" transform="translate(-333.41 -23.58)"/><path class="f" d="M618.85,567.68c-.62-1.28-1.25-2.56-1.87-3.83C617.6,565.12,618.23,566.4,618.85,567.68Z" transform="translate(-333.41 -23.58)"/><path class="f" d="M641.25,622.56,640,618.81Z" transform="translate(-333.41 -23.58)"/><path class="f" d="M610.28,547.62,609,543.86Z" transform="translate(-333.41 -23.58)"/><path class="f" d="M658.23,664.53c-.43-1.25-.86-2.51-1.28-3.76C657.37,662,657.8,663.28,658.23,664.53Z" transform="translate(-333.41 -23.58)"/><path class="f" d="M537.54,1255.94h0Z" transform="translate(-333.41 -23.58)"/><path class="f" d="M634,604.58l-1-2.75Z" transform="translate(-333.41 -23.58)"/><path class="f" d="M397.67,1248.94h0Z" transform="translate(-333.41 -23.58)"/><path class="f" d="M416.65,1251.94h0Z" transform="translate(-333.41 -23.58)"/><path class="f" d="M626,585.59l-1-2.75Z" transform="translate(-333.41 -23.58)"/><path class="f" d="M480.72,1256l2.66,0Z" transform="translate(-333.41 -23.58)"/><path class="f" d="M676,719.45l-.65-1.88Z" transform="translate(-333.41 -23.58)"/><path class="f" d="M687.28,1210.91l.66-1.86Z" transform="translate(-333.41 -23.58)"/><path class="f" d="M579.42,1254.58l1.88-.6Z" transform="translate(-333.41 -23.58)"/><path class="f" d="M685.9,768.41a4.68,4.68,0,0,1-.36-.75s.23-.18.35-.27C685.89,767.73,685.9,768.07,685.9,768.41Z" transform="translate(-333.41 -23.58)"/><path class="f" d="M630.39,1248.5l.85-.5Z" transform="translate(-333.41 -23.58)"/><path class="f" d="M505.4,558l12.77-3.08,63.69-24.66c4.2,13.82,8.25,27.69,12.62,41.45,8.38,26.4,17.5,52.58,25.29,79.14,10,34.13,21.32,68.13,27.75,103,5.46,29.59,5.38,60.3,6.6,90.56.66,16.35-1.33,32.8-1.68,49.21-.33,15.4.64,30.86-.23,46.21-1.76,30.9-5.15,61.72-6.39,92.64-.81,20.51,1.56,41.13,1.32,61.68a229.19,229.19,0,0,1-4.11,40.23c-1.21,6.35-6.26,12-10,18.65l-7.72-6c.27-3.28.61-6.56.79-9.86,1.13-21.22,2.31-42.45,3.32-63.68,2.17-45.6,4.51-91.2,5.94-136.83.14-4.52-4.67-12-8.72-13.35a270.32,270.32,0,0,0-45.31-10.54c-46.14-6.26-92.33-6-138.28,2.18-10.3,1.84-20.41,4.79-30.61,7.24l-6.88,2-1.78-.21c-1-4.85-2.86-9.7-2.84-14.54.08-27.25-1.31-54.71,1.49-81.71,3.52-34,11.24-67.55,15.94-101.47,3.4-24.55,5-49.36,7-74.08.37-4.4-.78-8.94-1.23-13.41-4.14,2.28-6.36,4.75-7.56,7.64-9.05,21.89-19.47,43.38-26.35,65.94-6.51,21.38-12.72,43.89-12.94,66-.52,51.57,2.59,103.18,4.34,154.77q.7,20.64,2.07,41.24c2.2,33.87,4.76,67.73,6.79,101.61.86,14.51.61,29.08,1.18,43.61.17,4.24,1.41,8.44,2.16,12.66,3.39-1.52,5.21-3.33,5.41-5.31.51-4.94.07-10,.48-15,.12-1.36,1.92-2.59,2.95-3.88q1.05,19.5,2.11,39c0,.68,0,1.36,0,2l4.38,7.35c-1.53,2.23-4.51,4.6-4.31,6.67.8,8.45,1.57,17.16,4.28,25.11s1.14,14.47-3.18,20.92c-5.26,7.86-13.57,9-20.65,5.38-5.58-2.89-12.39-9.43-12.87-14.86-.92-10.49,2.1-21.41,13.75-28.22-1.17-9-3.17-18.29-3.44-27.59-1.3-45-2-90-3.19-135-.72-26.86-1.89-53.71-3-80.55q-1.86-45.87-4-91.71c-.77-16.2-3-32.39-2.73-48.56.57-34.76,8.68-68.07,20.7-100.69q15.81-43,29-86.86c6.46-21.62,10.75-43.89,16-65.86,19.27,8,38.49,16.19,57.88,23.93,2.56,1,6-.12,9-.26ZM385.83,1177.58c-7.63,8.92-11.06,23.24-6.41,28.37,5.61,6.19,12.77,7.53,20.27,3.85,6.64-3.25,8.92-13.66,5.57-23.22S394.74,1175.73,385.83,1177.58Z" transform="translate(-333.41 -23.58)"/><path class="b" d="M412.45,922.18c10.2-2.45,20.31-5.4,30.61-7.24,45.95-8.21,92.14-8.44,138.28-2.18a270.32,270.32,0,0,1,45.31,10.54c4.05,1.3,8.86,8.83,8.72,13.35-1.43,45.63-3.77,91.23-5.94,136.83-1,21.23-2.19,42.46-3.32,63.68-.18,3.3-.52,6.58-.79,9.86-.54,10.89-9.66,10.82-16.86,13.21l-1.57.33-31.35,6.66-2.24.39-5.8.61-1.57.33c-30.43,5.46-60.94,6.61-91.56,1.76-3.77-.6-7.54-1.17-11.31-1.76l-1.57-.33-45-10,27.85,3.31,2.32-1.73c-2.21-2.59-3.9-6.27-6.7-7.56-12-5.51-16.19-6.88-13.32-20.54.72-3.46.6-7.1.82-10,2.5-9.34,5.86-18,7-26.93,1.56-12.65,1.45-25.51,2.06-38.29.11-2.44.24-4.88.33-7.32.4-11.76,1.49-23.55,1-35.26-.51-11.24-3.89-22.43-3.59-33.57.12-4.48-2.79-15.42,9.26-13.93a69.23,69.23,0,0,0,12.35.7c1.92-.11,3.73-1.9,5.59-2.93-1.19-1.76-2-4.2-3.65-5.14-3.23-1.83-6.94-2.82-10.88-4.32,1.2-1.84,1.67-2.69,2.26-3.45,3.67-4.75,8.27-9.06,10.72-14.37,1.71-3.71,2.09-9.65.23-13-3.89-7.13-11.36-8.54-19.14-7.11C431.41,918.47,421.94,920.35,412.45,922.18Zm116,123,.73-2.31-1.8-1.2,2.66-4.36v-9l-5.7-2.84,2.32-1.83,1.83-.1,2.15-.93,4.54-1.77,11.25-9.56c.34-.34.67-.69,1-1,4.53-.67,9.13-1,13.57-2.08,6.58-1.58,13-3.65,19.56-5.52l1.84-.35,4.18-.62,2.79-.32,2.22-.68,1.76-.42,2,.86-.67-2.41q-.12-13.7-.26-27.39c.3-1.44.59-2.87.65-3.16l-48.9-4.55c-8.86-10.78-21-12.09-33.77-11.81,1.93-.49,3.89-.91,5.81-1.48,4.89-1.47,9.75-3,16.14-5-3.85-5.36-6.58-8.81-8.91-12.52-1.6-2.54-3.31-5.3-3.81-8.17-.79-4.44-.59-9.06-.89-15.33l-27.18,3.15c-2.59,11-.63,19.23-8.09,26.22C479.79,944,479,953,481.27,960.11L500,954.74l-17.43,16.35h-44V1001c3.66.6,7,1.38,10.42,1.66,11.51,1,23,1.74,34.54,2.6l7.1,8.83,4.85,4.31c.72.55,1.45,1.09,2.18,1.63a.74.74,0,0,1,0,.81c-2.32,1.51-6.58,2.92-6.65,4.53-.56,12.37-.31,24.78-.31,37.18l2.95,1.53c2.32-1.58,4.73-3,6.95-4.77,6-4.65,11.95-9.41,17.92-14.12,0,1.87,0,3.75,0,5.63l-12.73,14.12-7,1.49-7.08.79.12,2h6.63l4.7.38-2.95,7.59c-6.82-3.08-10,.71-12.2,5.8,2.63,3.26,4.94,6.12,7.26,9l-7,11.12,12.43,21.27,26.92-10.77c.32-2.4.59-4.36,1.17-8.7l-10.44-12.23,2.77-4,10.18-1.46-.14-2.11-19.47-2.23-.09.58-10.09-1,5.94-10.36.29-.08.27.14q-.69,3.25-1.39,6.49l2.32,1.44,3.57-5,8.83-7v13l4.9-1.18c0,.46,0,.91,0,1.37l6.11.43,11.37,1.27c-.48-2.56-.75-4-.84-4.46,2.1-5.07,3.85-9.31,5.61-13.55-3.61.82-4.78,2.75-6.3,4.36-3.48,3.72-7.13,7.29-10.71,10.92q5.45-9.72,10.88-19.43l13.36-5.55-1.29-2.6h-4.81l.81-7.08-4.51,2.89L528,1074.3c-2.69-2.9-4.52-4.89-6.35-6.87l6.39-7,1.31,1.16,5.16-6.42c-.33-3-.66-5.9-.9-8.06Zm-9,116.9,5.38-7.45,4.2,3.08c10.44-2.06,18.14-14.8,15.19-25.11-.36-1.24-2.21-3.24-2.73-3.06-5.76,2-11.39,4.36-17.06,6.62l-6.94,0-4,.36-2.77,0-3.75-1.44c-1.66,2-2.91,3.44-2.39,2.82l-15.86.89c.23,11.91,9.33,19.43,19.05,16.53l5.85,7.48-3.95-1.76L484,1157.94c-.29,1-.59,1.9-.88,2.84a34.88,34.88,0,0,0,4.49,3.8c13.66,8.21,28.31,3.37,42.58,2.85,1.24,0,2.36-3.09,4.08-5.51l-10.11-1.74Zm89.21-239c-.42,2.55-1.33,5.43-1.28,8.29.12,7.87,1,15.74,1,23.61-.14,14.45-2.06,29-.9,43.33,2.06,25.67,5.92,51.18,8.9,76.77.8,6.83,2.19,13,10.35,15a14.18,14.18,0,0,0,.54-2.19c2.07-48.72,4.21-97.42,6.11-146.14C633.85,929.31,621.78,920.07,608.69,923.09Zm-14.38,196.26c-21.65-3-27.67,1-28.31,21.14l14.87-1.26c0-.33,0-.67-.07-1l3.66.85c7.27-3.26,19.39,1.17,19.6-12.11ZM614.39,1154c8.53-4.1,15.93-43.56,8.51-57.66q-2.29,21.78-4.59,43.53l-9.09,6.76Z" transform="translate(-333.41 -23.58)"/><path class="c" d="M412.45,922.18c9.49-1.83,19-3.71,28.46-5.46,7.78-1.43,15.25,0,19.14,7.11,1.86,3.4,1.48,9.34-.23,13-2.45,5.31-7.05,9.62-10.72,14.37-.59.76-1.06,1.61-2.26,3.45,3.94,1.5,7.65,2.49,10.88,4.32,1.66.94,2.46,3.38,3.65,5.14-1.86,1-3.67,2.82-5.59,2.93a69.23,69.23,0,0,1-12.35-.7c-12.05-1.49-9.14,9.45-9.26,13.93-.3,11.14,3.08,22.33,3.59,33.57.52,11.71-.57,23.5-1,35.26-.09,2.44-.22,4.88-.33,7.32-.61,12.78-.5,25.64-2.06,38.29-1.1,8.93-4.46,17.59-7,26.93-.22,2.86-.1,6.5-.82,10-2.87,13.66,1.35,15,13.32,20.54,2.8,1.29,4.49,5,6.7,7.56l-2.32,1.73-27.85-3.31-3.78-1.37-7-9.75a1,1,0,0,0-.86,0q-1.05-19.5-2.11-39c0-1.65,0-3.29,0-4.94a13.09,13.09,0,0,0,.79-3.27c-.3-16.43-.43-32.87-1.16-49.28-.31-7.16-1.88-14.25-2.87-21.38-.07-.91-.14-1.83-.2-2.75q-.44-8.13-.86-16.24l-.21-6.71q-.4-7.14-.79-14.27c0-1.59-.08-3.17-.13-4.76l-.87-15.23c0-1.25-.08-2.5-.13-3.75l-.87-18.23c0-1.59-.08-3.17-.13-4.76-1.8-9,5.94-12.7,10.25-18.3Z" transform="translate(-333.41 -23.58)"/><path class="f" d="M667.56,943.27c-.61-3.56-1.67-7.11-1.75-10.69-.6-25-.15-50.12-1.64-75.1-2.67-44.87-4.85-89.87-10.45-134.42-3.05-24.32-12.73-47.8-19.35-71.68a21,21,0,0,1-.41-11.57c1.42,3.46,3.07,6.85,4.24,10.39,8.44,25.62,17.35,51.11,25,77,10.93,36.82,9.39,74.83,9.16,112.67-.18,30.47,0,60.94-.12,91.41,0,4-1,8.09-1.61,12.14Z" transform="translate(-333.41 -23.58)"/><path class="d" d="M581.86,530.22l-63.69,24.66c4.07-2.34,9.38-3.78,11.87-7.25s3.08-9.11,3.33-13.84c.67-12.59,1.17-25.22.79-37.8-.14-4.63-2.95-9.18-4.72-14.3l2-1.47c-.78-5.12-1.43-9.45-2.08-13.78,0-5.52-8.95-12,3.65-15.6.29-2.26.6-4.65,1-7.81,1.64.21,4,0,4.36.67,1.1,2.32,1.45,5,2.73,10.07l9.22,8.52v10.9l3.69,2.72-8.64,6.67c.8,3.18,2.07,9.37,4,15.36,2.79,8.84,5.68,17.68,9.16,26.26,3.92,9.65,7.31,10.16,18.8,5.24l7.31-6.59c-.09.59-.19,1.17-.29,1.76l-.93.91-.88,1.17Z" transform="translate(-333.41 -23.58)"/><path class="f" d="M615.86,1190.46v-11.57c2.71,2.11,4.82,3.18,6,4.89.66,1,.31,3.48-.54,4.44C620.32,1189.35,618.28,1189.54,615.86,1190.46Z" transform="translate(-333.41 -23.58)"/><path class="b" d="M405.68,1147.05l7,9.75-3.5-.37-4.38-7.35Z" transform="translate(-333.41 -23.58)"/><path class="f" d="M625,1210.44l-6.52-.43.12-2.72h6.55Z" transform="translate(-333.41 -23.58)"/><path class="e" d="M433.36,528.67c.32-.65.63-1.31.95-2l1.25-.11,1,3-2.59-.1Z" transform="translate(-333.41 -23.58)"/><path class="f" d="M573.3,1167.61l2.24-.39-.91,2Z" transform="translate(-333.41 -23.58)"/><path class="f" d="M606.89,1160.56l1.57-.33Z" transform="translate(-333.41 -23.58)"/><path class="f" d="M461.49,1168.22l1.57.33Z" transform="translate(-333.41 -23.58)"/><path class="f" d="M565.93,1168.55l1.57-.33Z" transform="translate(-333.41 -23.58)"/><path class="f" d="M433.27,531.53l.28,1.07Z" transform="translate(-333.41 -23.58)"/><path class="f" d="M582.55,526.69l.88-1.17Z" transform="translate(-333.41 -23.58)"/><path class="c" d="M505.4,558l-3,.35c-12.9-3.25-15.46-8.56-11.85-22,3-11.25,5.17-22.75,7.84-34.77l-3.82-4.79c3.86-5.31-2.78-17.47,11.37-16.29L501.84,469c2-1.79,3.17-2.89,5.68-5.16-1.95-3.45-4.43-7-6-10.86-1.14-2.85-1.08-6.19-1.56-9.31,2.94.91,6.29,1.21,8.74,2.85,4.9,3.28,11.35,5.48,10.59,13.63-.56,6.05-.11,12.19-.11,18.74l4.59,2.06c-.47,5.29-1,10.93-1.49,16.56l.23-.05c-1,16.87-1.25,33.86-3.71,50.52C518.24,551.9,510.07,554.67,505.4,558Z" transform="translate(-333.41 -23.58)"/><path class="e" d="M494.46,312.71q1.07,27.41,2.1,54.81c.37,10.34,1,20.7.83,31-.12,8.39-1.24,16.77-1.92,25.15l-6.19,2.12,2.72,3-6,1.59-.48,5.26c-4.91-6.17-.18-7.42,5-8.78V419.7c1.6-3.65,4.48-7.28,4.57-11,.33-13.25-.4-26.53-.51-39.8-.14-15.94,0-31.89-.1-47.83,0-1.34-.82-2.67-1.25-4l-2.75.27v39.4c-.64-1.5-1.87-3-1.84-4.48.47-27.53,1.12-55.06,1.65-82.58.14-7.17,0-14.35,0-21.53l3.34-.2c.62,4.45,1.72,8.89,1.79,13.35.24,14.05.14,28.1.05,42.15a77.73,77.73,0,0,1-.92,8.3V269.24c-2.22,3.22-2.85,3.71-2.86,4.21-.09,12.27-.17,24.55,0,36.82C491.68,311.09,493.49,311.9,494.46,312.71ZM491.86,267l1,0v-9.46l-1,0Z" transform="translate(-333.41 -23.58)"/><path class="e" d="M522.47,408.7l-2.27-.82c.93-11.83,2.11-20.48,2.2-29.14.26-25.06.35-50.12,0-75.17-.31-23.23-1.32-46.46-1.91-69.68-.42-16.69-.66-33.37-1-50.06,1.64,6.66,4.62,13.3,4.69,20,.47,40.49.41,81,.26,121.5-.09,25-.63,50-1,75C523.38,403.1,522.8,405.9,522.47,408.7Z" transform="translate(-333.41 -23.58)"/><path class="e" d="M524.46,89c-1.66-5.44-3.32-10.87-5-16.41-.59,2-1.35,4.6-2.12,7.19l-2.75.25c-.74-3.72-2.37-7.53-2-11.14.61-6.3,2.65-12.44,3.6-18.71a8,8,0,0,0-1.88-5.64c-.92-1.08-3.15-1-5.47-1.69.3,2.9.46,4.49.85,8.33L500.49,47l8.55,1.2L499.1,39c7.19,1.33,12,1.18,15.51,3.21,2.5,1.43,3.34,5.79,3.21,9.91L520.73,54C522,65.84,523.22,77.4,524.46,89Z" transform="translate(-333.41 -23.58)"/><path class="d" d="M545.6,47l1.5,3.29-14-1.11c-2.08-5.68-3.63-9.93-5.72-15.63L548,35.91C547.12,39.89,546.58,42.46,545.6,47Z" transform="translate(-333.41 -23.58)"/><path class="e" d="M502.47,186.82c-.41,2.71-.82,5.43-1.22,8.05l5,4.4-5.62,8.24c.75.59,2.56,1.46,3.48,2.9.71,1.11.31,2.94.4,4.45l-7.72-8.24c-.84,3.1-1.55,5.68-2.25,8.26-.3-3.07-.6-6.13-1-10.06L491,202.5q-.74-8.31-1.46-16.68c1.43,4.91,2.86,9.81,4.67,16l3.41,1.9,6.64-2.56-5.43-5.78C499.85,193,501.16,189.91,502.47,186.82Z" transform="translate(-333.41 -23.58)"/><path class="e" d="M504.48,142.8c3-11,6-22.05,9.67-35.37,1.33,4.46,2.71,7.43,3.05,10.52,1,9,1.53,18,2.25,27-9-7.2-4.12-16.88-4.57-25.6-.06-1.21.3-2.43-.51-3.84q-3.5,13.94-7,27.86Z" transform="translate(-333.41 -23.58)"/><path class="c" d="M507.18,147.45l7.23,6.8-8.63,4.49-5.31-11.08Z" transform="translate(-333.41 -23.58)"/><path class="e" d="M473.5,147.85l-.54,5.76,4.61-.69-3.42,4.83-3.7-4.41c-1.36,3.62-2.65,7.06-3.93,10.5.18-3,.36-5.91.53-8.57l-7-5.41,3.45-8Z" transform="translate(-333.41 -23.58)"/><path class="e" d="M464.58,542.61c3.9-13.9,7.88-27.77,11.64-41.7,1.08-4,1.54-8.21,2.28-12.32-2.66,14.23-5.05,28.51-8.14,42.65C469.48,535.26,466.56,538.83,464.58,542.61Z" transform="translate(-333.41 -23.58)"/><path class="e" d="M515.46,169.93l8.86-5c-1.39-9.62-3-19.93-4.29-30.27-.15-1.19.92-2.54,1.42-3.81,1.66,12.11,3.33,24.22,5.17,37.64Z" transform="translate(-333.41 -23.58)"/><path class="e" d="M521.54,129.94v-9.48H522V96.56l2.57-6.68c.59,1,1.72,2,1.68,2.92-.55,11-1.19,22-2.06,33C524.05,127.27,522.45,128.58,521.54,129.94Z" transform="translate(-333.41 -23.58)"/><path class="e" d="M518.45,438.62c.22,1.08.45,2.16.79,3.8l7.9-2.52c-.54-9.26-1.08-18.26-1.61-27.26,1,2.91,2.41,5.76,2.81,8.74.51,3.83-.17,7.82.3,11.66,1.11,9.17-1.51,11.73-12.25,9.82Z" transform="translate(-333.41 -23.58)"/><path class="e" d="M528.16,122.16,530.62,107l4,.68q-1.29,7.59-2.59,15.18Z" transform="translate(-333.41 -23.58)"/><path class="d" d="M532.48,419.84c8.83,9.44,8.36,17.78-.41,20.64,1.79-2.89,2.91-4.72,3.95-6.4C535.06,430.22,534.12,426.42,532.48,419.84Z" transform="translate(-333.41 -23.58)"/><path class="e" d="M478.58,487.66V469.51l4.89-2.14-3-5.7c1.64,1.76,4.34,3.36,4.63,5.33s-1.8,4.3-3.84,4.53Q479.95,479.6,478.58,487.66Z" transform="translate(-333.41 -23.58)"/><path class="e" d="M500.48,429.7l24.87-1.86c-1.78,2.89-3.31,5.36-4.83,7.84.63-2,1.27-4,1.44-4.55Z" transform="translate(-333.41 -23.58)"/><path class="e" d="M519.53,145.86c-.46,5.19-.71,10.41-1.47,15.56-.43,2.89-1.72,5.66-2.62,8.49-.48-2.26-1.76-4.72-1.27-6.75C515.57,157.3,517.69,151.61,519.53,145.86Z" transform="translate(-333.41 -23.58)"/><path class="d" d="M507.18,147.45l-6.71.21c-1.23-1.18-2.45-2.37-3.69-3.55l3.76-1.36,3.94.05,2.89.55C507.31,144.72,507.24,146.08,507.18,147.45Z" transform="translate(-333.41 -23.58)"/><path class="e" d="M499.56,46.9l-10,.9L486.49,39l4.44,5.71Z" transform="translate(-333.41 -23.58)"/><path class="e" d="M487.56,183.82c-4.89,0-9.77.14-14.65-.06-1.16,0-2.27-1.2-3.41-1.85Z" transform="translate(-333.41 -23.58)"/><path class="d" d="M567.06,50.92h-7.27l-.12-2.71,7.36-.43Z" transform="translate(-333.41 -23.58)"/><path class="e" d="M467.5,179.89q-1-7.53-2-15Q466.52,172.37,467.5,179.89Z" transform="translate(-333.41 -23.58)"/><path class="e" d="M518.52,182.83l-13,1Z" transform="translate(-333.41 -23.58)"/><path class="e" d="M500.54,142.75l-3.76,1.36-8.28,1.75Z" transform="translate(-333.41 -23.58)"/><path class="e" d="M478.57,460.6c-1.47-1-2.95-1.93-6.86-4.48l8.88-1.41-2.63,3Z" transform="translate(-333.41 -23.58)"/><path class="e" d="M485.57,448.69q.49-5.54,1-11.07Q486.08,443.16,485.57,448.69Z" transform="translate(-333.41 -23.58)"/><path class="e" d="M486.48,39l1.08-5Z" transform="translate(-333.41 -23.58)"/><path class="e" d="M496.54,425.64l2.94,3.06Z" transform="translate(-333.41 -23.58)"/><path class="e" d="M481.5,150.84l3.06-1.92Z" transform="translate(-333.41 -23.58)"/><path class="e" d="M488.5,33.94,490.56,32Z" transform="translate(-333.41 -23.58)"/><path class="e" d="M482.59,452.7l1.91-2.08Z" transform="translate(-333.41 -23.58)"/><path class="e" d="M478.5,152.85l2.07-1.93Z" transform="translate(-333.41 -23.58)"/><path class="b" d="M490.46,356.77v-39.4l2.75-.27c.43,1.33,1.24,2.66,1.25,4,.09,15.94,0,31.89.1,47.83.11,13.27.84,26.55.51,39.8-.09,3.69-3,7.32-4.57,11-.35-.66-.7-1.32-1-2-1.3-2.69-2.59-5.39-3.89-8.08l-.09-.92,5-49Z" transform="translate(-333.41 -23.58)"/><path class="b" d="M473.5,147.85l-10-6,0-5.94c0-1.69,0-3.38,0-5.08l.09-.92c5.13-3,10.25-6.08,14.76-8.74.32.69,1.73,3.71,3.13,6.74l2.12,3.91,0,4.08c0,.31-.06.62-.08.93-.65.68-1.29,1.37-1.93,2.06,0,.31-.05.62-.08.93l-1.93,2.06-2.07,2.92-3,2Zm-4.61-12.06-2.81,2c.85,1.87,1.44,3.93,2.69,5.48.4.5,2.5-.38,5.76-1Z" transform="translate(-333.41 -23.58)"/><path class="b" d="M494.57,214.88c.7-2.58,1.41-5.16,2.25-8.26l7.72,8.24c0,.31-.07.62-.08.93-.29,1.4-1.06,2.92-.77,4.19.68,3,1.86,5.91,2.84,8.86q-2,1.51-4,3l-3.94-.2-4.05-2.91-1.12-2.91v-8.09C493.83,216.81,494.2,215.85,494.57,214.88Z" transform="translate(-333.41 -23.58)"/><path class="e" d="M481.48,127.94c-1.4-3-2.81-6-3.13-6.74-4.51,2.66-9.63,5.7-14.76,8.74,4-4.37,8.11-8.63,11.89-13.17.92-1.11.68-3.15,1.07-4.75,1.95-8,3.94-16,5.91-24.06l3.34.3a73.64,73.64,0,0,1-.06,9C484.45,107.53,482.92,117.73,481.48,127.94Z" transform="translate(-333.41 -23.58)"/><path class="e" d="M432.66,519.48c-.57-1.84-2-3.87-1.57-5.5,6.52-27.89,13.26-55.74,20-83.59.06-.27.42-.48.65-.72-1.23,9.7-1.66,19.58-3.88,29.05-4.39,18.74-9.79,37.24-14.71,55.86A28.45,28.45,0,0,0,432.66,519.48Z" transform="translate(-333.41 -23.58)"/><path class="b" d="M494.46,312.71c-1-.81-2.78-1.62-2.79-2.44-.15-12.27-.07-24.55,0-36.82,0-.5.64-1,2.86-4.21v42.54Z" transform="translate(-333.41 -23.58)"/><path class="e" d="M490.46,359.68l-5,49c-.57-1.14-1.72-2.33-1.61-3.39q2.17-20.86,4.72-41.67C488.76,362.28,489.82,361,490.46,359.68Z" transform="translate(-333.41 -23.58)"/><path class="e" d="M506.53,228.84c-1-3-2.16-5.85-2.84-8.86-.29-1.27.48-2.79.77-4.19,1.08,3.09,2.35,6.13,3.13,9.3C507.86,226.18,506.92,227.58,506.53,228.84Z" transform="translate(-333.41 -23.58)"/><path class="e" d="M494.57,228.78l4.05,2.91,3.94.2c-1.62.59-3.72,2.1-4.74,1.56C496.33,232.66,495.62,230.41,494.57,228.78Z" transform="translate(-333.41 -23.58)"/><path class="e" d="M493.45,217.78v0Z" transform="translate(-333.41 -23.58)"/><path class="e" d="M485.57,409.64c1.3,2.69,2.59,5.39,3.89,8.08C488.16,415,486.87,412.33,485.57,409.64Z" transform="translate(-333.41 -23.58)"/><path class="e" d="M463.5,130.86c0,1.7,0,3.39,0,5.08C463.49,134.25,463.5,132.56,463.5,130.86Z" transform="translate(-333.41 -23.58)"/><path class="e" d="M452.84,422.81c.3-1.38.59-2.75.88-4.13C453.43,420.06,453.14,421.43,452.84,422.81Z" transform="translate(-333.41 -23.58)"/><path class="e" d="M483.57,135.93l0-4.08Z" transform="translate(-333.41 -23.58)"/><path class="b" d="M435.56,526.59l-1.25.11-.36-3.23C434.49,524.51,435,525.55,435.56,526.59Z" transform="translate(-333.41 -23.58)"/><path class="e" d="M451.91,427.82l.81-3.15Z" transform="translate(-333.41 -23.58)"/><path class="e" d="M474.51,146.85l3-2Z" transform="translate(-333.41 -23.58)"/><path class="e" d="M479.55,141.91l1.93-2.06Z" transform="translate(-333.41 -23.58)"/><path class="e" d="M481.56,138.92c.64-.69,1.28-1.38,1.93-2.06C482.84,137.54,482.2,138.23,481.56,138.92Z" transform="translate(-333.41 -23.58)"/><path class="d" d="M399.31,1026.44c.06.92.13,1.84.2,2.75.23,18.33.28,36.66.81,55,.18,6.34,1.59,12.64,2.43,18.95,0,1.65,0,3.29,0,4.94-1,1.29-2.83,2.52-2.95,3.88-.41,5,0,10-.48,15-.2,2-2,3.79-5.41,5.31-.75-4.22-2-8.42-2.16-12.66-.57-14.53-.32-29.1-1.18-43.61-2-33.88-4.59-67.74-6.79-101.61q-1.33-20.61-2.07-41.24c-1.75-51.59-4.86-103.2-4.34-154.77.22-22.07,6.43-44.58,12.94-66,6.88-22.56,17.3-44.05,26.35-65.94,1.2-2.89,3.42-5.36,7.56-7.64.45,4.47,1.6,9,1.23,13.41-2.07,24.72-3.63,49.53-7,74.08-4.7,33.92-12.42,67.47-15.94,101.47-2.8,27-1.41,54.46-1.49,81.71,0,4.84,1.84,9.69,2.84,14.54-9,2.66-13.06,11.57-8.47,18.51.05,1.59.09,3.17.13,4.76l.87,18.23c.05,1.25.09,2.5.13,3.75l.87,15.23c.05,1.59.09,3.17.13,4.76q.39,7.14.79,14.27l.21,6.71Q398.89,1018.32,399.31,1026.44Zm11.48-330.32C389,704,372.59,805,389.65,825.7c2.19-3.22,5-5.74,5.78-8.78,2.29-8.94,4.12-18,5.51-27.18,4.05-26.6,8-53.24,11.5-79.91C413,705.54,411.43,701,410.79,696.12Z" transform="translate(-333.41 -23.58)"/><path class="d" d="M385.83,1177.58c8.91-1.85,16.1-.49,19.43,9s1.07,20-5.57,23.22c-7.5,3.68-14.66,2.34-20.27-3.85C374.77,1200.82,378.2,1186.5,385.83,1177.58ZM388.7,1204l5.54.7c1.42-4.88,3.19-9.71,4-14.69.17-1-3.06-3.49-4.93-3.73-1.57-.2-4.83,1.75-4.93,3C388,1194.06,388.52,1199,388.7,1204Z" transform="translate(-333.41 -23.58)"/><path class="b" d="M395.32,942.49c-4.59-6.94-.52-15.85,8.47-18.51l1.78.21C401.26,929.79,393.52,933.47,395.32,942.49Z" transform="translate(-333.41 -23.58)"/><path class="d" d="M405.68,1147.05l-.87,2c0-.67,0-1.35,0-2A1,1,0,0,1,405.68,1147.05Z" transform="translate(-333.41 -23.58)"/><path class="c" d="M608.69,923.09c13.09-3,25.16,6.22,24.67,18.65-1.9,48.72-4,97.42-6.11,146.14a14.18,14.18,0,0,1-.54,2.19c-8.16-2-9.55-8.15-10.35-15-3-25.59-6.84-51.1-8.9-76.77-1.16-14.32.76-28.88.9-43.33.08-7.87-.83-15.74-1-23.61C607.36,928.52,608.27,925.64,608.69,923.09Z" transform="translate(-333.41 -23.58)"/><path class="a" d="M582.43,1002.25c-47.71,3.53-96.37,4.82-143.91-1.26-12.12-50.09,47.94-24,79.79-28.88,25.41-1.94,50.66-.7,76.16-.84C593,983.61,601.52,1004,582.43,1002.25Zm-41.89-24.1c-15.35-3-24.79,6.49-40.94-3.07V998c6.54,1.67,23.4,4.36,17-4.73,7.67-27.85,12.21,19.26,17.69-.08C531.72,984.48,542,983.89,540.54,978.15Zm-54,17,.09,0a2.57,2.57,0,0,1,1,.56,15.32,15.32,0,0,0,4.38,2.44,1.74,1.74,0,0,0,1.59,0,1.54,1.54,0,0,0,.49-1.22,9.84,9.84,0,0,0-1.07-4.16c-.56-1.3-7.8-16.43-7.88-16.39-5.8,2.82-11.19,8.68-12.57,15.09a5.28,5.28,0,0,0,.23,3.66c1,1.72,3.26,2.09,5.22,2a21.17,21.17,0,0,0,7.22-1.66A2.62,2.62,0,0,1,486.54,995.19Zm-19.67-9.92c2.09-12.71-4.59-7.69-11.47-2.91-13.88-13.76-8.26,4.51-9.35,14.41C457.23,979.91,469.07,1013.74,466.87,985.27Zm90.31-10c-1.21,36.13.27,9.68,20.14,23.88C576.07,961.29,575.51,990.29,557.18,975.28ZM551,997.09V975.82C541.53,977.8,542.19,1003.39,551,997.09Zm30.35-.84c8.06,2,2.37-13.77,4-19.37C579.05,976.65,583.13,990.93,581.33,996.25Z" transform="translate(-333.41 -23.58)"/><path class="c" d="M500,954.74l-18.68,5.37c-2.28-7.1-1.48-16.1,4.25-21.47,7.46-7,5.5-15.21,8.09-26.22l27.18-3.15c.3,6.27.1,10.89.89,15.33.5,2.87,2.21,5.63,3.81,8.17,2.33,3.71,5.06,7.16,8.91,12.52-6.39,2-11.25,3.51-16.14,5-1.92.57-3.88,1-5.81,1.48Z" transform="translate(-333.41 -23.58)"/><path class="c" d="M501.43,1082.46l10.09,1,.09-.58,19.47,2.23.14,2.11L521,1088.71l-2.77,4L528.71,1105c-.58,4.34-.85,6.3-1.17,8.7l-26.92,10.77-12.43-21.27,7-11.12c-2.32-2.89-4.63-5.75-7.26-9,2.18-5.09,5.38-8.88,12.2-5.8C500.58,1079,501,1080.71,501.43,1082.46Zm-.73,7.85.14,5.07,10.68-.5-.12-4.57Z" transform="translate(-333.41 -23.58)"/><path class="c" d="M524.37,1025.43l5.7,2.83v9l-2.66,4.36-4.62.92-2.44,1.37-1.86,1.22c-6,4.71-11.9,9.47-17.92,14.12-2.22,1.72-4.63,3.19-6.95,4.77l-2.95-1.53c0-12.4-.25-24.81.31-37.18.07-1.61,4.33-3,6.65-4.53l25.7,3.91Z" transform="translate(-333.41 -23.58)"/><path class="g" d="M500,954.74l12.5-3c12.73-.28,24.91,1,33.77,11.81l3.24,6.72c-10.39.65-20.77,1.74-31.16,1.84-11.92.11-23.86-.65-35.79-1Z" transform="translate(-333.41 -23.58)"/><path class="g" d="M523.33,1024.74l-25.7-3.91a.74.74,0,0,0,0-.81c-.73-.54-1.46-1.08-2.18-1.63l-4.85-4.31-6.09-9c9.39-.29,18.78-.83,28.17-.82,12.22,0,24.44.47,36.67.73l-1.87,5.19c-.33.34-.66.69-1,1l-11.25,9.56-4.54,1.77-2.15.93-1.83.09Z" transform="translate(-333.41 -23.58)"/><path class="d" d="M513.68,1162.86l-5.85-7.48c-9.72,2.9-18.82-4.62-19.05-16.53l15.86-.89c-.52.62.73-.85,2.39-2.82l3.75,1.44c-.49,1.91-1,3.82-1.72,6.78l5.65-1.25-1.16-5.55,4-.36v19.6l2.79.63c2.31-5.46,4.61-10.92,6.68-15.82l-2.53-4.45c5.67-2.26,11.3-4.62,17.06-6.62.52-.18,2.37,1.82,2.73,3.06,3,10.31-4.75,23.05-15.19,25.11l-4.2-3.08-5.38,7.45-1.91,1.13-3.07-.12Zm-1.42-17.08-3.26,1.55,3.5,6.81,2.32-1Q513.53,1149.46,512.26,1145.78Zm-15-.5,2.11-1-1.8-4.29-1.94.73Q496.47,1143,497.27,1145.28Z" transform="translate(-333.41 -23.58)"/><path class="d" d="M594.31,1119.35l9.75,7.62c-.21,13.28-12.33,8.85-19.6,12.11l-3.66-.85c0,.33,0,.67.07,1L566,1140.49C566.64,1120.39,572.66,1116.38,594.31,1119.35Z" transform="translate(-333.41 -23.58)"/><path class="c" d="M517.57,1163.21l1.91-1.13,4.66-1.9,10.11,1.74c-1.72,2.42-2.84,5.46-4.08,5.51-14.27.52-28.92,5.36-42.58-2.85a34.88,34.88,0,0,1-4.49-3.8c.29-.94.59-1.89.88-2.84l25.75,3.16,3.95,1.76.82.23,1.22,1.78Z" transform="translate(-333.41 -23.58)"/><path class="c" d="M614.39,1154l-5.17-7.37,9.09-6.76q2.3-21.73,4.59-43.53C630.32,1110.48,622.92,1149.94,614.39,1154Z" transform="translate(-333.41 -23.58)"/><path class="c" d="M534.54,1055.23l-5.16,6.41-1.31-1.16-6.39,7a.83.83,0,0,1-.42.66l-8.82,7-4.51-2.94-.27-.14-.29.08c.95-1,1.89-2.09,2.83-3.13l3.43.27-.42-6.51-.1-.34.25-.25,1.68-2.7,3.91-5.87,7.7-6.8,8,1.9-3.46,3.53Z" transform="translate(-333.41 -23.58)"/><path class="f" d="M521.26,1068.09a.83.83,0,0,0,.42-.66c1.83,2,3.66,4,6.35,6.87l17.79-25.8c.61.92,2,2.18,1.72,2.69-1.57,3.31-3.48,6.46-5.28,9.66q-5.43,9.72-10.88,19.43l.87,1.46-6.11-.43c0-.46,0-.91,0-1.37l-4.9,1.18Z" transform="translate(-333.41 -23.58)"/><path class="d" d="M549.46,970.28l-3.24-6.72,48.9,4.55c-.06.29-.35,1.72-.65,3.16-12.56,0-25.12,0-37.68-.07A61.17,61.17,0,0,1,549.46,970.28Z" transform="translate(-333.41 -23.58)"/><path class="f" d="M510.2,1069c-.94,1-1.88,2.09-2.83,3.13l-5.94,10.36c-.42-1.75-.85-3.49-1.27-5.24l2.95-7.59-4.7-.38.33-2.83,7-1.49,12.73-14.12c.16.92.31,1.84.47,2.76l-3.91,5.87-1.68,2.7-.25.25.11.34c-.78,1.11-1.55,2.23-2.33,3.35Z" transform="translate(-333.41 -23.58)"/><path class="d" d="M547.46,1010.2l1.87-5.19,31.26-2.41c-6.52,1.87-13,3.94-19.56,5.52C556.59,1009.18,552,1009.53,547.46,1010.2Z" transform="translate(-333.41 -23.58)"/><path class="g" d="M524.46,1136.16l2.53,4.45c-2.07,4.9-4.37,10.36-6.68,15.82l-2.79-.63v-19.6Z" transform="translate(-333.41 -23.58)"/><path class="d" d="M532.25,1081.74l-.87-1.46c3.58-3.63,7.23-7.2,10.71-10.92,1.52-1.61,2.69-3.54,6.3-4.36-1.76,4.24-3.51,8.48-5.61,13.55.09.48.36,1.9.84,4.46Z" transform="translate(-333.41 -23.58)"/><path class="d" d="M542.26,1060.85c1.8-3.2,3.71-6.35,5.28-9.66.24-.51-1.11-1.77-1.72-2.69l4.51-2.88-.81,7.08h4.81l1.29,2.6Z" transform="translate(-333.41 -23.58)"/><path class="d" d="M519,1053.57c-.16-.92-.31-1.84-.47-2.76,0-1.88,0-3.76,0-5.63.62-.41,1.24-.82,1.87-1.22l2.43-1.37,4.62-.92,1.8,1.2-.73,2.31-1.83,1.59Z" transform="translate(-333.41 -23.58)"/><path class="e" d="M526.65,1046.77l1.83-1.59,5.16,2c.24,2.16.57,5.11.9,8.06l-3.33-3,3.46-3.53Z" transform="translate(-333.41 -23.58)"/><path class="g" d="M513.55,1136.56l1.16,5.55-5.65,1.25c.75-3,1.23-4.87,1.72-6.78Z" transform="translate(-333.41 -23.58)"/><path class="d" d="M535.21,1020.79l11.25-9.56Z" transform="translate(-333.41 -23.58)"/><path class="e" d="M507.93,1072.16l4.5,2.94-3.57,5-2.32-1.44Z" transform="translate(-333.41 -23.58)"/><path class="d" d="M484.49,1005.1l6.09,9-7.1-8.83Z" transform="translate(-333.41 -23.58)"/><path class="d" d="M498.74,1066.42l-.33,2.83h-6.63l-.12-2Z" transform="translate(-333.41 -23.58)"/><path class="d" d="M582.43,1002.25l4.18-.62Z" transform="translate(-333.41 -23.58)"/><path class="d" d="M523.33,1024.74l3.36-1.16-2.32,1.84Z" transform="translate(-333.41 -23.58)"/><path class="d" d="M495.43,1018.39c.72.55,1.45,1.09,2.18,1.63C496.88,1019.48,496.15,1018.94,495.43,1018.39Z" transform="translate(-333.41 -23.58)"/><path class="d" d="M528.52,1023.49l2.15-.93Z" transform="translate(-333.41 -23.58)"/><path class="d" d="M593.38,1000.21l1.36-1.55c.15.58.31,1.15.66,2.41Z" transform="translate(-333.41 -23.58)"/><path class="d" d="M589.4,1001.31l2.22-.68Z" transform="translate(-333.41 -23.58)"/><path class="b" d="M402.75,1103.12c-.84-6.31-2.25-12.61-2.43-18.95-.53-18.32-.58-36.65-.81-55,1,7.13,2.56,14.22,2.87,21.38.73,16.41.86,32.85,1.16,49.28A13.09,13.09,0,0,1,402.75,1103.12Z" transform="translate(-333.41 -23.58)"/><path class="b" d="M396.32,965.48l-.87-18.23Z" transform="translate(-333.41 -23.58)"/><path class="b" d="M399.31,1026.44q-.44-8.13-.86-16.24Q398.89,1018.32,399.31,1026.44Z" transform="translate(-333.41 -23.58)"/><path class="b" d="M397.32,984.46l-.87-15.23Z" transform="translate(-333.41 -23.58)"/><path class="b" d="M398.24,1003.49q-.4-7.14-.79-14.27Q397.84,996.36,398.24,1003.49Z" transform="translate(-333.41 -23.58)"/><path class="b" d="M491.86,267v-9.41l1,0V267Z" transform="translate(-333.41 -23.58)"/><path class="d" d="M468.89,135.79l5.64,6.49c-3.26.6-5.36,1.48-5.76,1-1.25-1.55-1.84-3.61-2.69-5.48Z" transform="translate(-333.41 -23.58)"/><path class="b" d="M410.79,696.12c.64,4.86,2.22,9.42,1.65,13.71-3.54,26.67-7.45,53.31-11.5,79.91-1.39,9.14-3.22,18.24-5.51,27.18-.78,3-3.59,5.56-5.78,8.78C372.59,805,389,704,410.79,696.12ZM398,745.84c-7.41,4-11.2,31.13-5.08,36.37C399.05,779.05,402.69,753,398,745.84Z" transform="translate(-333.41 -23.58)"/><path class="b" d="M388.7,1204c-.18-4.93-.71-9.89-.32-14.77.1-1.2,3.36-3.15,4.93-3,1.87.24,5.1,2.7,4.93,3.73-.81,5-2.58,9.81-4,14.69Z" transform="translate(-333.41 -23.58)"/><path class="d" d="M557.18,975.28l12,7.85c1.13-2.56,2.13-4.79,3.13-7l3.29,0c.49,6.6,1,13.21,1.7,23l-13.84-7.52c-.5,1.48-1.1,3.24-1.84,5.44l-4.46.22Z" transform="translate(-333.41 -23.58)"/><path class="b" d="M519.19,986.4a70.45,70.45,0,0,1-4.77,11.06l-6.19-4.22L499.6,998V975.08C508.06,979.48,518.56,977.47,519.19,986.4Zm-7.31,1.25c2.46-4.51-2.83-3.52-5.94-4.63C503.58,987.37,508.93,986.48,511.88,987.65Z" transform="translate(-333.41 -23.58)"/><path class="b" d="M466.77,992.36a.83.83,0,0,1,.14.46,12.48,12.48,0,0,1-.13,3.76,1.57,1.57,0,0,1-.33.81c-.5.52-1.37.17-2-.22-1.84-1.2-3.53-2.62-5.44-3.71a9.78,9.78,0,0,0-6.29-1.46c-2.72.45-4.88,2.52-6.64,4.65a87.37,87.37,0,0,1-.5-12.94c.2-5.34,3.08-4.2,6.88-3.78,5.41.6,10.2-1.44,14.39-4.8,1.11,3.37-.21,6.67-1.82,9.61-.89,1.64-4.59,6-1.35,7.15a8.44,8.44,0,0,0,2.41.24A.87.87,0,0,1,466.77,992.36Zm-17.18-8.16c2.26,6.47,10.32,9,9.76,1.53Z" transform="translate(-333.41 -23.58)"/><path class="b" d="M479.48,995c-19,10.66,6.32-43.46,15.74,2.69C484.42,1002.31,482.57,975.79,479.48,995Z" transform="translate(-333.41 -23.58)"/><path class="d" d="M551,997.09c-8.78,6.3-9.46-19.28,0-21.27Z" transform="translate(-333.41 -23.58)"/><path class="b" d="M581.33,996.25c1.8-5.31-2.28-19.6,4-19.38C583.7,982.48,589.39,998.25,581.33,996.25Z" transform="translate(-333.41 -23.58)"/><path class="b" d="M535.09,984.46c-.13,17.34-7.53.89-10.24-6.77C530.86,977.57,540.43,975.78,535.09,984.46Z" transform="translate(-333.41 -23.58)"/><path class="d" d="M524.85,977.69c2,4.5,3.78,9.07,6,13.45.5,1,2.29,1.35,3.48,2-.56,1.8-1.13,3.6-1.69,5.39l-1.27.12-1.84-.41c-.45-1-.91-2-1.36-3,0-1,0-1.94,0-2.91q-1.35-5.42-2.71-10.83l-2.75.53c-.07-1.28-.14-2.56-.2-3.84Z" transform="translate(-333.41 -23.58)"/><path class="f" d="M499.6,998l8.63-4.71,6.19,4.22c.91-1.75,1.55-3,2.2-4.24.64,1.43,1.29,2.86,2.11,4.67l-4.06,2.65c-.26-.86-.51-1.71-.77-2.56a85.53,85.53,0,0,1-9.7,1.67C502.71,999.74,501.13,998.56,499.6,998Z" transform="translate(-333.41 -23.58)"/><path class="f" d="M522.44,978.21c1,4.63,5.34,6.67,5.66,14.14C526.79,982.46,511.06,986.61,522.44,978.21Z" transform="translate(-333.41 -23.58)"/><path class="e" d="M466.86,992.19l-4,1v-8.47l4,.52C466.87,987.58,466.87,989.88,466.86,992.19Z" transform="translate(-333.41 -23.58)"/><path class="e" d="M479.48,995c-.2-.93-.4-1.86-.64-3l2.69-1.72,2,.09,2.72,1.59c.09.91.19,2,.29,3.09Z" transform="translate(-333.41 -23.58)"/><path class="d" d="M536.4,982.13l-.09-4.6,3.22-.35c.34.32.68.64,1,1l1,3-2.78,1.67Z" transform="translate(-333.41 -23.58)"/><path class="f" d="M536.4,982.13l2.33.66-3.64,1.67Z" transform="translate(-333.41 -23.58)"/><path class="f" d="M528.15,995.26c.45,1,.91,2,1.36,3C529.06,997.24,528.6,996.25,528.15,995.26Z" transform="translate(-333.41 -23.58)"/><path class="f" d="M531.35,998.65l1.27-.12Z" transform="translate(-333.41 -23.58)"/><path class="f" d="M540.54,978.15c-.33-.33-.67-.65-1-1C539.87,977.5,540.21,977.82,540.54,978.15Z" transform="translate(-333.41 -23.58)"/><path class="b" d="M500.7,1090.31h10.7l.12,4.57-10.68.5Z" transform="translate(-333.41 -23.58)"/><path class="b" d="M522.79,1042.59l-2.43,1.37Z" transform="translate(-333.41 -23.58)"/><path class="g" d="M512.26,1145.78q1.28,3.67,2.56,7.35l-2.32,1-3.5-6.81Z" transform="translate(-333.41 -23.58)"/><path class="b" d="M497.27,1145.28q-.81-2.28-1.63-4.56l1.94-.73,1.8,4.29Z" transform="translate(-333.41 -23.58)"/><path class="b" d="M517.57,1163.21l-1.85,1.66-1.22-1.78Z" transform="translate(-333.41 -23.58)"/><path class="e" d="M510.89,1066.08c.78-1.12,1.55-2.24,2.33-3.35q.19,3.26.41,6.51C512.72,1068.18,511.8,1067.13,510.89,1066.08Z" transform="translate(-333.41 -23.58)"/><path class="b" d="M510.89,1066.08c.91,1.05,1.83,2.1,2.74,3.16l-3.43-.27Z" transform="translate(-333.41 -23.58)"/><path class="e" d="M513.36,1062.14l1.68-2.7Z" transform="translate(-333.41 -23.58)"/><path class="c" d="M398,745.84c4.74,7.15,1.1,33.21-5.08,36.37C386.75,777,390.54,749.8,398,745.84Z" transform="translate(-333.41 -23.58)"/><path class="d" d="M511.88,987.65,505.15,986l.79-3,6.79,1.5C512.45,985.57,512.17,986.61,511.88,987.65Z" transform="translate(-333.41 -23.58)"/><path class="e" d="M449.59,984.2l9.76,1.53c-.1,1.45-.19,2.77-.29,4.26h-5.81Z" transform="translate(-333.41 -23.58)"/><path class="d" d="M483.53,990.38l-2-.09-.84-3.51,2.05-.56C483,987.61,483.27,989,483.53,990.38Z" transform="translate(-333.41 -23.58)"/></svg>