<svg xmlns="http://www.w3.org/2000/svg" viewBox="0 0 981.72 1409.1"><defs><style>.a{fill:#d9b8a4;}.b{fill:#af8d79;}.c{fill:#ec7ea7;}.d{fill:#8c6c58;}.e{fill:#a2836e;}.f{fill:#990302;}</style></defs><path class="a" d="M776.2,378c34.75-3.81,69.78-5.47,104.58-9.11,9.15,1.77,9.58,11.11,10.15,18.74,2.66,23.3,4.9,46.65,7,70,11.37,109.21,22.4,218.45,33.79,327.66,16.62,162.62,32.93,325.45,50,487.95-2,6.26-5,11.72-12.14,12.81-12.55,1.93-25.16,3.51-37.75,5.16-16,2.1-32.09,4-48.09,6.22q-140.24,20.08-280.35,40.9c-132.15,20-264.12,41.61-395.17,68-8.75,3.12-18.41,5.75-25.73-5.21Q179.73,914.09,179.61,427c42-4,84-6.59,126-10.2m27.89-2.8C472,403.17,610.41,391.42,748.85,379.93"/><path class="b" d="M182.49,1401.17c-46.88-43.65-96.06-85.78-152.7-116.28C-15,1262.4,2.3,1266.6,8.59,1216.63,24.26,1107.88,32,998.13,41.64,888.71q15.86-186.15,28-372.56c3.28-42.95,6.42-85.91,9-128.91,1.34-11.66-2.26-29.3,11-34.33,21.36,22.54,43.11,44.71,64.7,67,6.73,6.06,17,4.74,25.36,7.06Q179.39,914.08,182.49,1401.17Z"/><path class="c" d="M584.38,754.92c20.69-30.49,43.06-66.79,82.57-72.1,37.21-5.26,79.6,2.41,101,36.43,21.29,33.3,18.72,82.84,11.36,120.28C772.5,878.58,749,911.18,726,942.5a476.1,476.1,0,0,1-115.95,98.82c-15.88,6.73-34.09,3.48-48.48-6.19-21-13-43-24.66-63-39.15-57.64-40-116-98.52-124.07-171.37-1.67-26.63-3.61-53.77,6.2-79.21,9.46-27,32.82-51.85,62.52-53.46C508.46,683,544.58,705.18,584.38,754.92Z"/><path class="d" d="M874.57,366.85c-20.19-5.11-41.7-7.79-61.25-14.1,2.7-12.37,16.71-25.94,7-37.8-6.06-10.81-68,0-81.24-1-57.46,4.67-126.18,8.3-183.88,11-155,9.19-311.06,17.75-465.67,27.93,21.36,22.54,43.11,44.71,64.7,67,6.7,6.06,17,4.74,25.36,7.06,54.54-4.65,115.06-9.6,169.79-14.15q199.74-16.17,399.45-32.92h0c43.46-3.95,88.61-6.76,131.93-11A58.64,58.64,0,0,0,874.57,366.85Z"/><path class="e" d="M136.54,773.55c2.06,165.45-4,331.92,2.29,496.89,8.32,29,22.79,57.5,28.16,86.59-17.61-25.64-34.14-52-51.19-78-1.7-2.63-3.7-3.51-6.84-3.91-13.8-1.75-27.54-3.95-41.29-6-16.45-3.59-34.28-3-49.85-9.17q42.53-5.66,85.34-8.61c4.13-.29,7.63-.62,7.68-6.5,1-18.17,2.34-36.39,2.75-54.63,8-138.82,12.77-277.84,21.35-416.63Z"/><path class="f" d="M459.23.17c16.82,2.41,34.18,3.54,50.46,10,11.47,2.38,23.53.16,35.19,1.08,199.51,12.57,219.52,262.64,236,417.34.15,12.36-25.11,14.25-25.88,0-4.81-25.66-5.7-51.94-10.08-77.71C725.69,234,701.47,64.32,560.64,40.76c68.68,74.6,69.19,183.6,78.65,279.11A97.08,97.08,0,0,1,609.88,321c-3-76.73-15.13-259.69-106.33-279.61-65.56,11.92-105.24,71.52-127.07,130-35.25,95-44.08,197.79-44.14,298.43,0,7.55-3.75,11.56-11.26,12-10.14.65-15.59-4.28-15.61-14.53-.05-16.83.1-33.66.16-50.49,5.8-126.84,26-314.68,144.65-386.73-.06-.42-.11-.85-.16-1.27C297.63,29,267.47,223.48,256.42,342.06a1.07,1.07,0,0,0-.29.79l-.7,1c-9.7.74-19.41,3.51-28.92.25C240.67,204.42,279.48-6.87,459.23.17ZM253.15,340.69v-.44H232.07v.44Z"/></svg>