<?xml version="1.0" encoding="utf-8"?>
<!-- Generator: Adobe Illustrator 24.1.2, SVG Export Plug-In . SVG Version: 6.00 Build 0)  -->
<svg version="1.1" id="Layer_1" xmlns="http://www.w3.org/2000/svg" xmlns:xlink="http://www.w3.org/1999/xlink" x="0px" y="0px"
	 viewBox="0 0 148.4 250.9" style="enable-background:new 0 0 148.4 250.9;" xml:space="preserve">
<style type="text/css">
	.st0{fill:#848086;}
	.st1{fill:#C6C9CB;}
	.st2{fill:#7D99A5;}
	.st3{fill:#767D94;}
	.st4{fill:#B9B8C4;}
	.st5{fill:#CED4BF;}
	.st6{fill:#92979B;}
	.st7{fill:#3FA1EC;}
</style>
<path class="st0" d="M6.2,104.6l1-3.6l6.5,5.9c1.6,5.2-0.8,9.1-2.6,13.1l-1.1,0.1c-2.6-1.4-6-2-5.9-6c2.6,0.2,4.4-1.1,4.9-3.6
	S9.2,105.5,6.2,104.6z"/>
<path class="st1" d="M143.5,94l2.9,3.1c0.6,1.3,1.2,2.6,1.9,3.9c-1.7,2.6-3.4,5-4.8,7.6c-1.6,2.9-3.9,3.7-6.9,2.5c0.3-2,0.6-4,0.9-6
	l0,0l1.9,2.8l1.4-0.1c0.2-3.2,0.4-6.5,0.7-9.7C141.6,96.5,140.9,94.4,143.5,94z"/>
<path class="st1" d="M6.2,104.6c3,1,3.4,3.3,2.8,5.8s-2.2,3.8-4.9,3.6c-1.6-0.1-3.8-1.6-4.1-3.2c-0.3-1.6,0.8-3.3,1.2-4.8"/>
<path class="st2" d="M74.9,118l-3.6-0.2l-6.1-1l-6.1,0.1l-9.1-0.7l-17.9-1l1.6,3.7l2.4,25.1l0.1,18.9c-0.5,0.8-0.8,1.7-1.1,2.6
	c-0.4,10.2-0.6,20.5-1.1,30.7c-0.6,12.4-1.3,24.7-2,37c-0.2,4-3,5.4-6.6,3.5c-1.3-0.7-2.5-1.6-3.8-2.3c-1.2-0.6-2.4-1-4.4-1.8
	c0.4-4.8,0.7-9.9,1.1-14.9c0.6-6.4,1.7-12.8,1.7-19.2c0.2-24.9,0.1-49.7,0-74.6c0-3-1.2-6-1.9-9c-2,2-3.1,5.4-6.9,5l-1.1,0.1
	c-0.3,34.8,2,69.7-1.9,104.4c-0.3,2.8,0.7,4.7,2.6,6.6c9,9.1,20.3,13.5,32.4,16.3c18.3,4.3,37.2,4.7,55.7,1.1
	c13.6-2.6,26.5-7.2,37.3-16.3c2.4-2.1,3.8-4.3,3.4-7.7c-0.9-8.9-1.5-17.8-2.2-26.7c-1-12.5-2.6-25-2.7-37.6
	c-0.1-16.4,1.2-32.7,1.9-49.1c0.3-2,0.6-4,0.9-6c-2,1.1-3.9,2.3-5.9,3.3c-1.6,0.7-3.3,1.3-5,1.7c-3.3,4.5-7.9,5.4-13,4.1
	c-0.6,0.6-1.2,1.6-1.9,1.7c-5,0.5-9.9,0.8-14.9,1.2l-6.7,0.9l-8.8,0.1 M126.1,234.4c-4.3-3.2-5.2-6.9-5.4-10.6
	c-0.9-14.9-1.7-29.7-2.1-44.6c-0.5-15.1-0.7-30.1-0.8-45.2c0-3.5,0.5-6.9,1.5-10.2c0.6-2.1,2.3-4,3.6-5.9l1.4,0.7
	c-0.2,4.6-0.7,9.2-0.6,13.7c0.6,22.8,1.2,45.7,2,68.5c0.3,8.4,1.4,16.8,1.8,25.2C127.6,228.5,126.7,231,126.1,234.4z"/>
<path class="st3" d="M33.1,120c0.2,0.2,0.6,0.5,0.6,0.7c0.4,6.9,0.6,13.9,1.1,20.8c0,0.8,0.8,1.6,1.3,2.3c0,6.3,0.1,12.6,0.1,18.9
	c-0.5,0.8-0.8,1.7-1.1,2.6c-0.4,10.2-0.6,20.5-1.1,30.7c-0.6,12.4-1.3,24.7-2,37c-0.2,4-3,5.4-6.6,3.5c-1.3-0.7-2.5-1.6-3.8-2.3
	c-1.2-0.6-2.4-1-4.4-1.8c0.4-4.8,0.7-9.9,1.1-14.9c0.6-6.4,1.7-12.8,1.7-19.2c0.2-24.9,0.1-49.7,0-74.6c0-3-1.2-6-1.9-9l0.9-3l8,2"
	/>
<path class="st1" d="M124.3,118.6c-0.2,4.6-0.7,9.2-0.6,13.7c0.6,22.8,1.2,45.7,2,68.5c0.3,8.4,1.4,16.8,1.8,25.2
	c0.1,2.5-0.7,5-1.3,8.4c-4.3-3.2-5.2-6.9-5.4-10.6c-0.9-14.9-1.7-29.7-2.1-44.6c-0.5-15.1-0.7-30.1-0.8-45.2c0-3.5,0.5-6.9,1.5-10.2
	c0.6-2.1,2.3-4,3.6-5.9L124.3,118.6z"/>
<path class="st4" d="M19,112l-0.9,3c-2,2-3.1,5.4-6.9,5c1.8-4,4.2-7.9,2.6-13.1L7.3,101c0.3-2,1-5,1.3-7c5,3.8,9.8,8.1,16.2,9l1.1,8
	c-1.4-0.3-2.8-0.5-4.2-0.5C20.8,110.5,19.9,111.4,19,112z"/>
<path class="st4" d="M126.6,110c0.8-3.1,1.2-6.2-1-9c7.7-1.3,13-5.7,15.9-13c0.7,2,1.3,4,2,6c-2.7,0.3-1.9,2.4-2.1,4.1l-4,7l0,0
	c-2,1.1-3.9,2.3-5.9,3.3C130,109,128.3,109.6,126.6,110z"/>
<path class="st4" d="M96.7,117c-0.4-2.1-0.8-4.3-1.3-7.1c7.3-1.2,12.7,1.6,18.2,4.3c-0.6,0.6-1.2,1.6-1.9,1.7
	C106.7,116.3,101.7,116.6,96.7,117z"/>
<path class="st4" d="M81.8,118c-1.9-4-3.7-7.9-1.9-13.4c5.2,3.6,8,8.1,10,13.3L81.8,118z"/>
<path class="st4" d="M71.3,117.8l2.5-9.4l2.1,0.4l-1,9.2L71.3,117.8z"/>
<path class="st4" d="M59.5,116.8c-0.3-1.4,0.7-5.7,2.5-5.7c2.1,0,2.1,5.7,3.2,5.7C63.3,116.9,61.4,116.9,59.5,116.8z"/>
<path class="st5" d="M12.9,76.7c2.8-3,9.3-3.4,12.8-4.3c21.3-5.1,43.6-5.5,65.5-4.1c12.3,0.8,24.7,2.4,36.5,6.2
	c6,2,10.8,4.6,13.8,10.4l0.1,1.3l0,1.8c-3,7.2-8.2,11.6-15.9,13l-4.9-4l7.7-4c6.5-4.3,6.6-7.6,0.3-11.7c-2.1-1.3-4.3-2.5-6.6-3.3
	c-11.2-4.4-23.1-5.8-34.9-6.5c-15.7-0.9-31.4-0.5-46.9,2.8c-7.3,1.6-14.6,3.1-20.6,7.9c-4.7,3.7-4.2,7.2,1.2,10.1l0,0l1.1,1
	c0.4,2.6,0.2,5.3,3.1,6.9c0.3,0.2-0.2,1.9-0.4,2.8c-0.2,1.7-14.9-6.6-15.9-7.3c-0.4-0.2-0.6-0.5-0.8-0.8c-0.1-0.3,0-0.6,0-0.9
	l3.1-13.2c0.2-1.2,0.6-2.4,1.3-3.5C12.6,77.1,12.7,76.9,12.9,76.7z"/>
<path class="st4" d="M141.6,86.2l-0.1-1.3l1.8,0.1L141.6,86.2z"/>
<path class="st6" d="M137.5,105.1l3.8-6.7c0,0,0.1,0,0.1,0c-0.5,2.1,2,9.5,0.1,10C138.3,109.3,138,105.8,137.5,105.1z"/>
<path class="st0" d="M21,92.2c-5.4-2.9-5.9-6.4-1.3-10.1c6-4.8,13.4-6.3,20.7-7.9c15.5-3.3,31.2-3.7,46.9-2.8
	c11.8,0.7,23.7,2.1,34.9,6.5c2.3,0.9,4.5,2,6.6,3.3c6.3,4.2,6.2,7.5-0.3,11.7c0.3-6.3,0.2-6.5-5.5-8.9c-8-3.6-16.6-5.6-25.3-5.9
	c-12.7-0.5-25.4-1.3-38.1-0.8C48.3,77.7,37,79.2,26.4,84C22.5,85.8,20.6,88,21,92.2z"/>
<path class="st2" d="M38.3,120c-0.8,8-1.5,15.9-2.3,23.9c-0.4-0.8-1.2-1.5-1.3-2.3c-0.4-6.9-0.7-13.9-1.1-20.8
	c0-0.3-0.4-0.5-0.6-0.7l2.2-4.9l1.5,0L38.3,120z"/>
<path class="st2" d="M19,112c0.9-0.5,1.7-1.4,2.7-1.5c1.4,0,2.8,0.2,4.2,0.5l1.2,3L19,112z"/>
<path class="st6" d="M147.7,97c-0.7-19.9-3.3-40.2-12.1-58.1c-9.1-18.6-25.7-34.4-46-38.1C73.1-2.2,55.7,3.1,42.3,13
	S19.1,37.4,12.6,52.8C5.7,69.4,1.8,87.5,0.3,105.2c-0.2,2.1,2.3,4.1,4.2,2.7c0.9-0.9,1.6-2.1,1.8-3.3c4.2-13.8,7.2-28,11.7-41.7
	s10.6-27.2,20.2-38S61.1,6,75.5,5.2c11.6-0.7,23.3,3.4,32.8,10.2s16.9,16.2,22.4,26.5c6.4,12,10.4,25.3,10.6,38.9
	c0,3.5-0.2,7,0.6,10.4s2.8,6.7,5.9,8.1C147.7,98.5,147.7,97.8,147.7,97z"/>
<path class="st7" d="M123,84c-8-3.6-16.6-5.6-25.3-5.9c-12.7-0.5-25.4-1.3-38.1-0.8C48.3,77.7,37,79.2,26.4,84
	c-3.9,1.8-5.8,4-5.4,8.3l0,0l1.1,1c0.4,2.6,0.2,5.3,3.1,6.9c0.3,0.2-0.2,1.9-0.4,2.8l1.1,8c0.4,1,0.8,2,1.2,3
	c3.9,7.6,2.1,15.9-2.1,22.8c-0.9,1.6-1.9,3.4-1.5,5.1c0.5,1.8,2.3,3,4.2,2.5c0.8-0.2,1.4-0.6,1.9-1.3c0.5-0.8,0.8-1.6,1-2.5
	c0.9-3.7,1.5-7.5,1.9-11.2c0.2-2.2-0.1-4.5,0-6.7c0.2-2.6,1.5-4.9,2.6-7.2c0.1-0.3,0.3-0.5,0.6-0.4l0.7,0c0.2,0,0.4,0.1,0.5,0.3
	c0,0,0,0,0,0c0.8,1.8,1.2,3.7,1.2,5.7c-0.2,2.4-0.5,4.8-0.7,7.2L36,142.9c0,4.5,0.1,8.9,0.1,13.4c-0.1,1.8,0.1,3.5,0.6,5.2
	c0.5,1.2,1.4,2.1,2.5,2.6c0.3,0.2,0.7,0.3,1,0.3c0.7,0,1.4-0.2,1.9-0.7c2.2-1.8,1.9-5.2,1.4-8.1c-1.1-6-1.7-12-1.8-18.1
	c-0.1-3-0.1-6.1,0-9.1c0.1-2.1-0.6-6.7,1.1-8.1c1.3-1.1,2.7-2.2,4.1-3.1c1-0.8,2.4-1.2,3.7-1.1c0.8,0.2,1.6,0.7,2.2,1.3
	c0.9,0.8,1.8,1.7,2.6,2.7c1,1.2,0.7,2.9,0.7,4.3c0,1.8-0.1,3.7-0.2,5.5c-0.3,3.6-1,7.3-2.1,10.7c-0.5,1.3-0.8,2.8-0.7,4.2
	c0.8,6.8,6.9,1.4,6.6-3c-0.3-4.8-0.5-9.6-0.8-14.3c-0.1-1.9-0.9-4.2-0.7-6.1c0.2-1.7,1.5-3.3,1.9-5.1c0.1-1.3,0.3-2.5,0.5-3.7
	c0.1-0.4,0.4-0.8,0.8-0.9c0.4-0.1,0.8,0.3,1.2,0.4c0.3,0,0.6-0.1,0.9,0.1c0.1,0.1,0.2,0.3,0.3,0.5c5.4,14.1,0.4,32.5-1.5,46.9
	c-0.3,2.1-0.5,4.4,0.4,6.4s3.6,3.2,5.4,2s1.6-3.9,1.2-6c-1.1-6.4-2.4-12.6-2.4-19.1c0-3,0.3-5.9,0.7-8.8c0.1-0.9,0.7-2.2,0.8-3.4
	c0.3-3.3,1.5-6.9,2.2-10.2c0.8-3.3,1.3-6.9,2.9-10c0.1-0.3,0.3-0.5,0.6-0.7c0.3-0.2,0.6-0.1,0.8,0.1c-0.6,5.5-3.8,11.7,0,16.7
	c0.9,0.5,1.8,1,2.8,1.3c1,0,2-0.1,2.9-0.2c1.9-1.5,2.3-2.8,2.7-5.1c0.6-3.1-1.2-6.7-2-9.6c-0.8-2.6-2.3-5.8-1.4-8.5
	c0.2-0.6,3.6,2.8,3.8,3.1c1.2,1.4,2.2,3.7,3.1,5.3c2.4,3.8,1.4,7,5,9.8c1.6,0.2,3.2,0.3,4.7,0.1c0.4-0.2,2.4-1.7,2.7-1.9
	c4-3.3-5.2-8.4-2.4-10.6c5-3,10.3,2.1,16.5,3.6c5.2,1.3,9.7,0.5,13-4.1c0.8-3.1,1.2-6.2-1-9l-4.9-4l7.7-4
	C128.8,86.7,128.6,86.5,123,84z"/>
</svg>
