<svg xmlns="http://www.w3.org/2000/svg" viewBox="0 0 310.6 889.43"><defs><style>.a{fill:#aa8059;}.b{fill:#dfc1a2;}.c{fill:#fceedc;}.d{fill:#cea983;}.e{fill:#f7e9d7;}.f{fill:#fdf0df;}.g{fill:#c59d74;}.h{fill:#c69e74;}.i{fill:#e8522b;}.j{fill:#c69f75;}.k{fill:#e85029;}.l{fill:#ddbf9f;}.m{fill:#a98059;}.n{fill:#dcbd9c;}.o{fill:#f8e7d3;}.p{fill:#e2c5a7;}.q{fill:#805a40;}.r{fill:#7f5940;}.s{fill:#ebd0b6;}.t{fill:#7e583f;}.u{fill:#f4e1cc;}.v{fill:#866045;}</style></defs><path class="a" d="M185.64,899.16c-65.61-3.65-99,10.67-91.87-71.85C82.62,734.17,108.58,637.18,96,543.51c4.43-5.62,2.09-35,10.21-23.94.63,13.06,7.38,24.2,1.73,37.1-7,23.51,10,46.27.36,70-1.93,13.29,5.77,25.86-1.67,38.41-1.15,11.3,3.91,26.66,10.7,35.55,12.32,10-17.57,8.43-7.8,21.54,21.09,35.42,84.67,24.37,34.49-12-3.75-.85-3.8-4.38-.52-6.74,9.27-7,.69-18.59,16.82-19.26,5.4-5.83.78-12.49,13-4.59,5.5,4.86,7.79,4.85,13.94.78,10.3-11.68,38.48,16.92,57.64,10.74,8.68-5.8,14.16,1.82,11.78,9.9-5.23,14.62-27.45.69-37,9.67,10.66,6,26.22.11,35.79,11.45-31-14.24-74.5,3.45-73.08,40.11-12,12.29,6.2,28.1,11.53,39.83,36.27,44.64,111.65-15.84,80.42-62.84,5.06.81,26.68,1,16.09,8-15.64,4-1.49,22.38,2,31.43,3.68,5.68,11.42,7.45,17.8,8.71,9.45,9-24,5.81-25,15.07,3.32,1.82,9.41,1.18,11.28,3.77,44.41,57.76-12.81,27.19-46.33,44.72-11.52,14.27,35.8,2.89,43,5,9.78-2,16.85,4.42,25,7.64,4.48-1.7,7.53,1.87,8.42,4.23,1.5,6.27-7.79,6.48-12,9.56,9.67,2,42,7.11,43.69-6.76,4.14-18.1,1.62-28.68-14.76-37,3.36-8.45,12-7.15,6.55-17.72-3-10.12-6.07-21.16-19.35-21.4-23.27-7.44,15.54-6,11.57-18-.23-10.58,4.42-28.9-10.2-28.22-2.06,0-4.17-2.62-4.47-4.18,3.25-5.82,15.75-1.11,15.68-10.51C343,713,327.83,695.15,324.4,674.48c-6.22-35,1.4-18.51-30.95-26,8-12.84,34.57,3.07,46.17-8.21,13.06-15.34,9.84-43.51-13.37-44.79,2.55-2.05,2.82-2.69,5.34-3,22.87.25,16.81-38.57.47-44.12-23.7-1.43-47.11,4.75-70.65,6.74-10.64,1-8.65,10.5-12.59,18.7-11.4-15-17.7-38.79-40.49-37.73-9.29.65-18.78-.8-28.12-1.86-8.05-.88-15.25-18.8-3-18.78,17.46-.63,33.68-1.67,51.32-3.91,16.23.6,33.8,6.21,48-4.91,24.53-.17,22.16,26.54.57,31.45,15.94,8,35.69,5.84,52.73,2,12.58-10-3.58-25.42,19.55-29.5,15.11-2.16,8.19-21.48,8.74-32.15.18-11.6-4.07-21.43-15.83-17.1-5.23-5.06-24.55-5.13-33-7,20.33-6.59-10.79,1.82-18.9-3-9,0-3.37,3.65,2.52,2.39-5.92,6.23-10.57-2.44-16.85,1-24.42,21.19-23.33-2.06-43.5-10.11-31.81-3.23-47.62,24.53-42.9-25.6-1.8-19.76,37.85-11,30.86-25.28,25.72-2.21,70-34,62.06,16.41,1.14,10,12,2.06,17.53.68,10-3.26,10.26-3.84,4.68-12.46-4.82-8.81,14.12-4.25,13.42,1.5,4.85,13.31-18,12.66-14.65,24.31,6.52,17.77,57.36,17.4,43.2-.78-7.41-8.71-8.68-22.8-4.64-33,14.2-15.24-5.35-32.33,2.84-48.05,21.49-8.49,15.88-14,16.26-34.67-.8-12.09-36.13,3.82-21.43-18.61,13.22-15-1.31-36.21,9.55-53.27,18.1-31,37.17,21.48,30.63,37.57-3.64,133.2-4.62,271.23-3,406.5,10.15,59.83,3.4,124.08,6.72,185.81-8.81,45.27-69.38,30.26-102.57,32.54C250.11,897.21,217.48,896.91,185.64,899.16Zm80.8-470.54c13.52,1.17,19.19-48.24.19-41.65-9,8.85-50.57,11.17-48,20.66-6,1-15.62-3.28-17.89,4.47-3,9.69-13.76,19.25-4.06,28.32-1.19,12.26,33.57-2.15,42.62-.9C264.94,440.12,254.84,431,266.44,428.62ZM126.75,795.12c-14.49,0-17.62,1.83-20.17,11.6-.93,7.36-5.76,17.71.44,23.67,12.44,7.14,68.2,12.3,70.63-6.36C181.74,785.49,149.81,800.37,126.75,795.12ZM143.64,882c17.62,1.12,4.62-21.42,17.7-25.31,6.43-1.09,16.28-7.71,6.23-11.44-29.6,1.28-85.69-13.35-36.53,28C134,879.39,136.52,882,143.64,882ZM105.18,767.38c-.78,8.54,9.08,19.6,17.23,14.24,8.55-5.11,1-16.1.44-23.66.24-8-12.74-7.78-15-1C106.57,760.28,106,763.88,105.18,767.38Zm68.36-27.17c6.2-.17,17.12-13.56,15.85-18.22-6.09-6.39-13.54,7.06-19.1,10.09C167.29,735.2,171.06,739.14,173.54,740.21Zm74,81.84c.91,7.7,18.87,5.53,23.72,1.82C270,810.51,254.77,819.21,247.51,822.05Z" transform="translate(-77.37 -12.11)"/><path class="b" d="M96,543.51c1.16,86-5.9,171.18-4,257.49,6.84,28.1-18.36,67.89,8.66,88.15-40.9,3.23-12.86-148.54-18.74-180.9,4.58-90.8,3.51-181.81,2.88-272.72-2.64-39.45-2.54-79.19-3.94-118.85-1.39-40-17.79-96.29,34.94-107.81,88.39-21.05,94.43-47.32,185.59-14.11v0c97.17,33.08,82.92,19.4,82.84,121.85-12.87-30.71,16.18-86.21-30-98-17-.33-44.54-8.68-53.64,10.15-1,2.45-4.44,5.29-6.93,5.46-33.65,1.33-66.72-9.76-100.55-6-17.07,2.75-36.22,5-52.36-3.21-8.71-7.79-19.56-5.59-29.37-1.53C79.67,235.63,96,271.24,93.68,296.15c-1.37,56,2,112.48,3.53,168.09,18.22-25.44,17.36-19.64,15.87-50.87,5.07-33.24,47.25,34.69,67.61,27.31-3.84,3.46-7.38,17.05-2.36,16.82.07,3.62,1.25,7.9-4.72,7.89-1.15-3.77-1.34-8.51-3.81-10.95-3.51-1.95-12.34,3.36-16.73,3.89-6.93-.3-7,6.85-10.19,11.08-1-8.45,2.22-18.24-2.36-25.71-4.33-2.68-12.46-10.44-15.58-3.31l2,.21c-26.34,10-27.69,46-16.08,68.67L96,498Z" transform="translate(-77.37 -12.11)"/><path class="c" d="M253.39,179.85c-21.81-4.92-43.69-1.5-63.79,7.92,41-13.11-46.72-35.88-54.84-50.05,27.91-8.62,57.13-8.8,85.32-16.11,33.47,2.34,70.44,3.49,98.07,24.8,4.74,3.64,9.06,8.65,16.13,7.3-9.06,12.38-65,19.09-43.78,38C277.8,186.45,267.72,178.46,253.39,179.85Z" transform="translate(-77.37 -12.11)"/><path class="d" d="M334.28,153.71c-7.07,1.35-11.39-3.66-16.13-7.3-27.63-21.31-64.6-22.46-98.07-24.79-22,3.28-42.66,10.61-65.39,10.33-11.19,1.27-24.14,11.54-33.68.74-43.24-30.84-42.36-25.6-7.94-66.61,32.81-48.34,93.12-55.37,147.3-53.76,53.29,9.62,96.46,47.31,123.75,92.87C388.44,129.83,352.66,144.6,334.28,153.71ZM368.36,128c31.27-27.69-22.26-56.73-38.73-77.91C308,25.69,306.09,68.58,291.49,75.74,286,67.51,283.71,51.06,293,44.86c1.91-1.17,3.8-6.33,2.92-7.42C286,21.85,232.94-.22,227.38,26.3c-5.54,8.66-8.71-12.18-5.11,16C213,37.07,216,26.06,207.5,22.41c-25.33-3.68-53.57,9.53-71.92,26.41C113.14,70.49,69.39,104.24,116.65,125c10.21,10,21.28,9.58,33.25,3.17,14.94-.85,29.57-1.58,43.71-7,23.55-11.71,47.91,1.89,72.79-2,15.25,6.09,30.93,10.07,46.75,14C331.26,154.52,351.37,146.2,368.36,128Z" transform="translate(-77.37 -12.11)"/><path class="e" d="M384.22,316.64c.13-102.72,14.16-88.73-82.84-121.85,28.47,9.14,80.67,10,85.8,46-1.74,45.33,2.91,92.56-3.78,136.89C382.88,357.29,383.58,337,384.22,316.64Z" transform="translate(-77.37 -12.11)"/><path class="e" d="M282.45,898.16C404.25,904.66,382,880,383,778,393.22,878.57,398.88,913.28,282.45,898.16Z" transform="translate(-77.37 -12.11)"/><path class="e" d="M93.76,888.11c17.7,6,35.24,8,53.91,10C128.87,900.84,110.6,896.37,93.76,888.11Z" transform="translate(-77.37 -12.11)"/><path class="e" d="M383.4,674.2c3.67,4,1.88,8.56.92,12.81-4.17,13.29.32,26.91-2.36,40.56C381.47,709.71,380.19,691.89,383.4,674.2Z" transform="translate(-77.37 -12.11)"/><path class="e" d="M253.39,179.85c17.05-1,30.51,10.08,46,14.91C282.79,192.55,268.93,183.91,253.39,179.85Z" transform="translate(-77.37 -12.11)"/><path class="e" d="M382,733.11c2.27,13.13,3.22,27,.68,40.2C382.17,759.91,381.41,746.52,382,733.11Z" transform="translate(-77.37 -12.11)"/><path class="e" d="M386.21,470.48c-1.35,8.09,1.41,18-2.81,25,.63-12.37,1.34-24.71,0-37.06C385.06,462.36,386.74,466.14,386.21,470.48Z" transform="translate(-77.37 -12.11)"/><path class="e" d="M383.4,560.33c5.33,9.08,3.16,21.41,0,31.06Z" transform="translate(-77.37 -12.11)"/><path class="f" d="M85.79,513.42c-.55,10.6,1.41,21.65-.87,32C83.73,535.36,81.85,522.65,85.79,513.42Z" transform="translate(-77.37 -12.11)"/><path class="e" d="M383.33,380.58c1.46,7.49,5,15.11.07,22Q383.36,391.59,383.33,380.58Z" transform="translate(-77.37 -12.11)"/><path class="e" d="M383.4,509.39c4.37,7.63,3.78,17.3,0,25.06Z" transform="translate(-77.37 -12.11)"/><path class="e" d="M386.18,422.52l-2.78,5.05V407.5C386.36,412.15,386.45,417.17,386.18,422.52Z" transform="translate(-77.37 -12.11)"/><path class="f" d="M83.8,679.23q-.45,9-.88,18C81.67,691.17,80.08,685.07,83.8,679.23Z" transform="translate(-77.37 -12.11)"/><path class="e" d="M154.64,898.19l14,1C164.58,898.53,154.1,903.86,154.64,898.19Z" transform="translate(-77.37 -12.11)"/><path class="f" d="M84.8,618.3q-.45,8-.88,16C82.72,628.9,81.05,623.45,84.8,618.3Z" transform="translate(-77.37 -12.11)"/><path class="f" d="M84.92,478.44l.87,16C81.72,490.73,85.48,483.55,84.92,478.44Z" transform="translate(-77.37 -12.11)"/><path class="f" d="M81.92,361.57c.25,2.68.49,5.37.74,8.06C79.37,367.22,80.57,364.4,81.92,361.57Z" transform="translate(-77.37 -12.11)"/><path class="f" d="M83.92,428.49c.29,2.35.58,4.69.88,7C81.26,433.59,82.71,431,83.92,428.49Z" transform="translate(-77.37 -12.11)"/><path class="c" d="M114.92,128.56,121,132.7Z" transform="translate(-77.37 -12.11)"/><path class="f" d="M80.8,768.13l-.87,6C78.43,771.9,77.6,769.72,80.8,768.13Z" transform="translate(-77.37 -12.11)"/><path class="f" d="M81,337.58c.28,2,.55,4,.82,6.05C78.61,342,79.38,339.85,81,337.58Z" transform="translate(-77.37 -12.11)"/><path class="c" d="M133,44.11l-4.13,5.1C128.56,46.12,129.67,44.2,133,44.11Z" transform="translate(-77.37 -12.11)"/><path class="f" d="M82.8,703.21c-.29,1.68-.58,3.36-.88,5C80.52,706.27,79.71,704.4,82.8,703.21Z" transform="translate(-77.37 -12.11)"/><path class="f" d="M115.79,208.86l-5,2Z" transform="translate(-77.37 -12.11)"/><path class="c" d="M299.37,194.76l-3-2,5,2Z" transform="translate(-77.37 -12.11)"/><path class="c" d="M303.22,27.27l-3.93-2C301.8,23.54,302.94,24.54,303.22,27.27Z" transform="translate(-77.37 -12.11)"/><path class="c" d="M309.34,30.08l-4.06-1.79Z" transform="translate(-77.37 -12.11)"/><path class="f" d="M84.79,612.31c0,1,0,2,0,3C83.17,614,82.69,613.37,84.79,612.31Z" transform="translate(-77.37 -12.11)"/><path class="c" d="M113.07,66.08c-.72,1-1.43,2.07-2.14,3.1C111.64,68.15,112.36,67.12,113.07,66.08Z" transform="translate(-77.37 -12.11)"/><path class="f" d="M97.87,216.8l-3,2Z" transform="translate(-77.37 -12.11)"/><path class="c" d="M106.08,73.07l-2.14,3.11Z" transform="translate(-77.37 -12.11)"/><path class="c" d="M353.16,144.7l2.95-2.15Z" transform="translate(-77.37 -12.11)"/><path class="c" d="M97,114.58l3.12,2.12Z" transform="translate(-77.37 -12.11)"/><path class="c" d="M105.94,121.57l3.1,2.14Z" transform="translate(-77.37 -12.11)"/><path class="f" d="M81.8,232.73l-.87,2Z" transform="translate(-77.37 -12.11)"/><path class="c" d="M294.49,192.69l-2.11-1Z" transform="translate(-77.37 -12.11)"/><path class="f" d="M81.93,879l1,2Z" transform="translate(-77.37 -12.11)"/><path class="c" d="M338.2,152.5c.65-.32,1.3-.64,1.94-1C339.9,153.17,339.63,153.6,338.2,152.5Z" transform="translate(-77.37 -12.11)"/><path class="c" d="M351.18,145.51l1.95-.84C352.82,146.28,352.52,146.62,351.18,145.51Z" transform="translate(-77.37 -12.11)"/><path class="c" d="M158.78,26.3c-.65.32-1.3.64-1.94,1C157.08,25.63,157.35,25.2,158.78,26.3Z" transform="translate(-77.37 -12.11)"/><path class="c" d="M222.64,12.32l-2.11.6Z" transform="translate(-77.37 -12.11)"/><path class="c" d="M172.74,22.3l-2.09.69Z" transform="translate(-77.37 -12.11)"/><path class="c" d="M187.71,18.31l-2.11.6Z" transform="translate(-77.37 -12.11)"/><path class="c" d="M262.48,12.92l-2.11-.61Z" transform="translate(-77.37 -12.11)"/><path class="f" d="M82.93,407.52l.87,2Z" transform="translate(-77.37 -12.11)"/><path class="e" d="M229.55,898.16c9.3-2.72,18.6-2.27,27.9,0Z" transform="translate(-77.37 -12.11)"/><path class="e" d="M185.64,899.16l11-1Z" transform="translate(-77.37 -12.11)"/><path class="e" d="M280.67,898.13c.22-.37.29-.37.51,0A1.46,1.46,0,0,1,280.67,898.13Z" transform="translate(-77.37 -12.11)"/><path class="g" d="M96,543.51V498c5.86,3.55,10.47,10,16.78,11.39,4.07,8.33,18.94.15,16.44,10.18,1,9.35,12.59,18.41,22,18.63,4.66-1.18,16.35.15,14.64-7.12-4.61-15.34-11.73-40.26,5.37-49.5,9.37,17.8-3.21,32.45,26.4,31a34.4,34.4,0,0,1-20.36,2.89c-12.28,0-5.12,17.9,3,18.78,9.34,1.06,18.83,2.51,28.12,1.86,22.79-1.05,29.09,22.76,40.49,37.73,3.91-8.2,2-17.67,12.59-18.7,23.54-2,46.95-8.17,70.65-6.75,16.35,5.55,22.39,44.38-.47,44.13-2.53.26-2.79.9-5.34,3,23.21,1.29,26.43,29.44,13.38,44.8-11.61,11.26-38.19-4.63-46.18,8.19,31.91,7.45,24.88-8.91,30.94,26,3.44,20.68,18.56,38.49,18.93,58.95.05,9.41-12.44,4.69-15.69,10.51.29,1.56,2.41,4.18,4.47,4.18,14.62-.68,10,17.65,10.2,28.21,4,12.06-34.85,10.59-11.57,18.06,13.27.23,16.31,11.27,19.35,21.39,5.46,10.49-3.18,9.37-6.55,17.71,16.3,8.19,19,19.22,14.76,37-1.78,14.16-34,8.49-43.69,6.76,4.29-2.93,13.41-3.4,12-9.56-1.48-6-7.4-3.26-11.9-5-17.49-14.6-42.75-2.57-63.28-4.79-15.78-14,47.16-14.34,55.82-14.83,18.08-4.26-7.14-27.48-10.7-36.91-23.17-6,.08-11.32,13.14-13.2,10.26-7.57-15.53-6.44-17.2-14.35-6.67-14.64-16.8-26,1.86-34.82-15.18-4.49-28-8.14-38.81-21.75-9.58-11.33-25.13-5.45-35.79-11.43,11.18-9.25,39.67,7.12,37.67-16.6-5-10.53-17,2.31-34.33-5.85-12.52-.26-25.12-18.66-35.8-7.87-8.24,11.07-22-14-24.44.47-1.65,7-15.65,2.41-14.13,12.08C151.86,700,134.86,706,144,710.12c24.93,13.41,26.51,42.44-8.16,32.08C125,738.63,94,718.14,115.67,709.29c9.66-2.38,2.71-7.37-1.51-11.68-3-8.93-5.78-17.9-8.33-27,6.12-16.84,2.43-27.08,2.47-44,2.47-13.27,5.73-26.35.29-39.74-9.57-19.16,8.21-38.63-1.43-57.52C102.5,496.77,99.94,533.43,96,543.51Zm102.62,46.93c62.86-10.31-32.92-59.8-27-26.63C177.32,591.33,169.15,582.78,198.63,590.44Zm45,31.21c-.47-10.6-9.43-24.2-21.12-20-4.27,6.66,1.75,18.42,3.27,25.88C228.72,638.6,245.2,632.9,243.58,621.65Zm-78.29-40.34c1-13-19.77-40.43-26.31-21C139,570.93,157,595.82,165.29,581.31Zm146.25,16.54c-5.3-8.3-24.78,1.56-33.76-7.37-1.11-3,.17-10.64-3.79-14-5.77,5-5.64,14.33-15.1,14.5-1.1.08-3.14,2.83-2.89,3.93C259.38,614.65,295.09,593.63,311.54,597.85Zm-9.43,108.8c29.87-3.38-13.08-25-23.18-8.61C271.47,707.84,296.52,704.52,302.11,706.65Zm-34.5,9c-.67,10.16,14,19.6,17.42,8.88C287.44,713.87,271.52,700.25,267.61,715.62Zm61,114.31c-3.91-.19-14.47,3.43-6.42,7C329.74,838.55,344.51,831.46,328.6,829.93ZM248,656.4c-5.57,2.8-3.79,10.42,1.91,12.39C256.21,668,250.42,659.18,248,656.4Zm-50.64-5.88c.17-3.8-7.93-.89-11-1.75C186.31,652.57,194.29,649.66,197.37,650.52Zm-4-109.24c.26,3.32,7.71.67,10.67,1.48C203.78,539.44,196.33,542.08,193.37,541.28Z" transform="translate(-77.37 -12.11)"/><path class="h" d="M180.69,440.68c-20.41,7.33-62.59-60.57-67.6-27.31,1.51,31.2,2.25,25.55-15.88,50.87-1.52-55.61-4.89-112.11-3.53-168.09,2.3-24.91-14-60.52,17.69-72.67,27.54-11.74,40.06,17.13,81.74,4.74,33.83-3.72,66.89,7.37,100.55,6.05,9.87-3.94,10.6-18.54,24.29-16.74,25.21-3.06,65.17.94,62.07,33.31-6.09-13.76-16.88-39.7-30.66-15.13-10.87,17,3.69,38.36-9.54,53.28-14.77,22.16,20.64,6.76,21.44,18.6,6.93,47-25.77,18.46-17.15,52.31,10.91,18.29-8.83,33.34-3.17,52.33.34,8,17.35,18.52,3,22.21-11,9.34-52.07-3.28-37.15-18.88,29.3-11.92-4.59-32.21-2-17.25,5.58,8.63,5.33,9.21-4.68,12.47-34.6,19.13-1.62-32.81-31.33-28.35C250.92,379.48,238,394,220.55,393.69c-19.77-3.78-41,1.37-59.14-9.52-22.19,1.15,4.79,29.82,14.19,34.3,21.32,7.49-28.15-39.73,47.84-20.51-29.58,10.94-37.41,8.19-33.72,44.65,2.2,18.14,30.13-4.15,42.87,2,12.31.7,18,25,30.76,18.08,6.52-3.6,15-13.23,22.17-6.39-14.34,4-28.06,16.46-31.22,31-2.49-4.69-4.61-9.08-7.1-14,9.42-10.22-7.93-22.8-16.51-13.88-14.72,9.06,37.5,50.53-1.19,33.1-1.34-3.93-3.14-8.28-8.16-8.08-13-.33,5.73-20.5-6.11-24.62-5.4-1.27-10.83-.55-14,4.78C184.74,476.27,195.08,437,180.69,440.68Zm67.82-139.16c-5.26,4.51-4.8,17.71-12.71,16.4-.37,3.92-1.38,7.56,4,8.12,6.54,10.33,20,13.32,28.74,3.57,3.23,17-23.9,5.94-33.56,9.26-14.65,7.93,8.34,16.94,16.3,9.43,5.25-2.69,10.1-8.42,16.92-5.12,8.95,5.18,19.47-6.64,26.38,3.64,6.31,9.75,12-8.16,33.7-7.8-1.42-1.9-2.27-3-3.11-4.18,16.16.5,12.8-13.13,12-24.77,1.36-9.24-15.37-6.58-10.09-13-12.56,2.47-17.39-11.49-28.5-10.28C287.26,289.57,226.53,278,248.51,301.52ZM106.78,245.33c-19.68,3.51-3.25,54.37-4.8,70.46,4.25,22.68-11.21,22.61-1.2,51.14,4.84,10.74,18.73-8.72,24.87,2.78,3,3.36,4.14,10.36,9.46,5.13,16.84-21.88,59.71-9.92,59.35-44.56-1.6-15.91-13,12.18-25.41,6.41-15.12.64-4.4-17.64-15.37-21.79-6.07-.95-4.38-8.47-9.5-9.8-8.48-1.47-14,3.78-21,7.19-5.75.37-7.5,2.89-5.77,8.57-3,20.64-9.6-14.2-3.92-21.91C104.84,283.16,102.46,264.15,106.78,245.33ZM342.3,319c-3.76,27.14,22.83,19,17.91-4.62C360,298.17,337.37,302.61,342.3,319ZM247,253.11c30.91-5.66-8.2-14.72-19.37-14.19C216.84,244.37,242.35,250.38,247,253.11Zm-23.41,28.15c5.66-3.7,7.94-6.14.53-8.4C216.93,272.12,215.79,278.76,223.56,281.26ZM172,244.83c3.85,3.31,10,3.92,14,1.37C182.7,240.91,175.93,240.24,172,244.83ZM319.44,367.06c1.33,0,.3-1.23.18-2.07C318.23,365.09,319.24,366.18,319.44,367.06Z" transform="translate(-77.37 -12.11)"/><path class="i" d="M255.51,722.07c22.7,14.54,37.73,48.83,15.26,70.09,2.3-4.68,5.67-9.24,1.57-15.67-3.46,5.72-6.42,10.85-11.23,15-15.5,0-41.55-8.62-53.82,2.57-32.5-33.37,4.34,36.36,44.09,15.82-16.27,12.88-45.51,9.41-57.42-7.89-5.34-11.72-23.51-27.55-11.53-39.83.45,5.07,1.55,9.87,6,15,4.1-11.52-7.65-20.52-4.53-30.87C196.77,719.77,228.87,710.46,255.51,722.07Zm-8,58.25c-8.85,1.72-46-3.84-39.8,4.42C220,786.08,281.79,787.52,247.46,780.32Zm-6.92-42c-10.36,4.15-26-7.34-29.29,6.83-9.57,15,42.36,19.45,46.34-2.75,2.15-5.21,11.88-3.71,5.91-10-21.33-17.68-54.28-17.66-67.14,9.81,9.16.41,14.19-10.42,22.42-13C227.64,723.65,265.42,729.54,240.54,738.35ZM237.09,776c3.94,1.48,24.58,3.16,24.82-5.23-15.5-6.25-36.42-2.84-53.37-2C195.81,780.21,229.94,774.94,237.09,776Z" transform="translate(-77.37 -12.11)"/><path class="g" d="M126.75,795.12c23.05,5.25,55-9.62,50.89,28.91-2.38,18.66-58.13,13.49-70.62,6.36-6.22-6-1.35-16.31-.44-23.67C109.13,797,112.26,795.12,126.75,795.12Z" transform="translate(-77.37 -12.11)"/><path class="j" d="M383.4,402.6c-.43,97,1.65,194.28-2.35,290.65-13-65.86-.87-138.34-3.87-206.39,3.21-58.32-6.2-119.37,3.84-176.32C388.39,339.22,380.66,372.37,383.4,402.6Z" transform="translate(-77.37 -12.11)"/><path class="g" d="M349.4,510.64c-23.19,4.14-6.93,19.43-19.55,29.5-17,3.79-36.79,6-52.73-2,20.83-4.9,24.51-30.26.39-31.59,2.35-20.28,24.85,18.49,16.9-12.06,13.53,8.16,8.9-16.25,16-22.47,13.46-10.1,9.06,22.64,10.16,30C323.4,513.24,340.73,504.78,349.4,510.64ZM316.67,526c1.9-3.21-5.94-3.29-4.91-.32Z" transform="translate(-77.37 -12.11)"/><path class="b" d="M197.62,512.57c-29.73,1.4-17-13.24-26.4-31-17.09,9.25-10,34.15-5.37,49.5,1.71,7.3-10,5.91-14.64,7.12-9.4-.19-21-9.3-22-18.63,2.49-10-12.37-1.85-16.44-10.18,2.87-3.69,8.1-.31,12-1.24,2.84-3.32,10-20.63,14.95-5.71-3.91,11.18,24.53,11,16.67-1.65-.3-6.09,1.54-35.14,11.29-30.07,2.78-.27,9.08,6,8.86-.06,2.56,8.67-2.89,55.42,12.79,27.24C186.8,505.59,204,512.61,197.62,512.57Z" transform="translate(-77.37 -12.11)"/><path class="g" d="M143.64,882c-7.12,0-9.68-2.63-12.6-8.73-49.17-41.38,7-26.74,36.53-28,10,3.75.24,10.33-6.23,11.44C148.27,860.59,161.25,883.15,143.64,882Z" transform="translate(-77.37 -12.11)"/><path class="k" d="M218.59,407.63c-1-10.36,21.26-7.28,28.56-12.29,9-1,24.21-17.19,29.45-4.06,2.21,8.87,4.3,20.79-2.25,28.22C261.31,389.57,239.14,416.48,218.59,407.63Z" transform="translate(-77.37 -12.11)"/><path class="l" d="M349.4,510.64c-8.67-5.86-26,2.6-28.87-8.66-1.08-7.35,3.3-40.12-10.15-30-2.44,6-6.53,11.17-6.42,18.45.92,8.77-11.55,7.31-10-1.06-4.45,3.27,2.28,5.57,1.85,10.11,3.18,10.37-8.35,6.67-12,.14-6.63,1.29-6.8,9.5-14.4,10.91-12-2.33-25.66,6.58-36-1.14,8.8-4,19,2.18,21.56-16.05.2,1.54.45,3.39.72,5.53l1.3-1.45c3.33,6-3.05,13.18,7.28,10.18,7.88-.24,17.5-17,23.16-7.94,1,2.27,3.93,3.46,6,4.62-11.71-23.15,9.8-18.89.57-37.27-1-9.86,12.4-6.88,19.13-8.66-4.42,5-16.32,2.15-15.91,8,.82,9-3.38,19.91,1.09,27.83,1.92-1.18,4.05-3.12,3.6-5.5-1.78-7.13,7.35-29.19,15.58-20.39C330.33,474.07,315.08,505,329,502c1.21,3.49,2.82,1.45,4.37.32,6.6,4.67,17.38,10.87,21.18-.21C362.5,491.49,358.49,512.28,349.4,510.64Z" transform="translate(-77.37 -12.11)"/><path class="m" d="M220.56,394.5c-12.78,2.48-32.76-5.86-41.36,5.13-2.87,5.46,9,23.5-3.59,18.84-9.44-4.45-36.36-33.18-14.2-34.3C179.13,395.8,202.81,388.56,220.56,394.5Z" transform="translate(-77.37 -12.11)"/><path class="g" d="M105.18,767.38c1.27-7.55,3.09-17.19,12.91-15.22,3.87.12,4.16,3,4.76,5.8.54,7.55,8.11,18.55-.43,23.66C114.25,787,104.41,775.92,105.18,767.38Z" transform="translate(-77.37 -12.11)"/><path class="k" d="M259.43,430.45c3.65,13.68-43.43,8.75-54.65,14.64-6.91,1.44-6.76,2.11-8.14-4.67,7.57,2,11.73-2.08,16-7.74C226.36,419.93,243.24,440.52,259.43,430.45Z" transform="translate(-77.37 -12.11)"/><path class="h" d="M313.28,458.33c-3.53-.47-7.75,1.6-10.72,1.86-4.17-1.84-6.12.63-8.21,3.3.62-3.87-3.65-5-6.06-7.2l4.65-2.58c-5.79,1.31-11.63-2.46-2.52-2.39,9,4.55,17.86-.31,27.07-.34-18,6.38,7.56,3.88,17.37,7.46,13.76-1.57,2.45,13.5-5.69,7C323.13,463.48,319.51,453.59,313.28,458.33Z" transform="translate(-77.37 -12.11)"/><path class="g" d="M97,639.4c.42-29.25-5.49-57.78-1-87.13C103.29,579.94,101.36,611.58,97,639.4Z" transform="translate(-77.37 -12.11)"/><path class="h" d="M103.68,890.2c-25.6-10.66-12.81-46.77-10.76-68.1C95.76,845.18,89.41,869.75,103.68,890.2Z" transform="translate(-77.37 -12.11)"/><path class="n" d="M251.38,809.9l-12.9,3c11.17-5.08,33.14-12.7,30.5-26.49a53.17,53.17,0,0,1-23.52,17.7c1.69-2,6.29-1.6,5.12-6.05,2.76-2.31,3.69-4.83.86-7.76,11.87,4.46,15.3-4.78,20.9-13.79C278.65,791.55,263.22,804,251.38,809.9Z" transform="translate(-77.37 -12.11)"/><path class="o" d="M268,411.64a4.43,4.43,0,0,0,1.31,2.07c6.5,15.34-10,16.46-20.91,17.68,21-4,23.29-24.41-.24-21.77-6.35,1.39-13.56,5.72-19.72,2.05C241.42,408.15,257.84,398.13,268,411.64Z" transform="translate(-77.37 -12.11)"/><path class="g" d="M173.54,740.21c-12.22-6.68,6.62-15.4,11.72-20.49C197.1,721.12,180.06,740.07,173.54,740.21Z" transform="translate(-77.37 -12.11)"/><path class="p" d="M314.45,458.31c4-5.39,10,6.28,14.72,7.13,6.15,2.84,8.76,1.74,13.14-4.05,11.85-5,18.09,8.18,14.92,19.14-7.23-25.23-21.3-16.16-28.53,3.06C330,471.45,324.07,463.81,314.45,458.31Z" transform="translate(-77.37 -12.11)"/><path class="b" d="M223.57,427.3c-11.94,1.47-14.46,16.39-26.93,13.12-9.7-9.07,1.08-18.63,4.06-28.32,3.34-8.29,17.55-4.68,23.92-1.61-24.57-2.47-16.16-.74-27.84,15.6-1.91,4.84-.5,12.36,6.72,10.93C211.71,434.66,213.37,423.53,223.57,427.3Z" transform="translate(-77.37 -12.11)"/><path class="g" d="M247.51,822.05c7.25-2.84,22.53-11.54,23.72,1.82C266.39,827.59,248.42,829.75,247.51,822.05Z" transform="translate(-77.37 -12.11)"/><path class="g" d="M93,700.33c1.94-17.77-1.48-37.15,3.91-54C95.22,664.16,97.62,683.05,93,700.33Z" transform="translate(-77.37 -12.11)"/><path class="l" d="M288.29,456.29l5.89,4.39c-17.63-6.14-27.56,12.08-37.75,23.74C256.74,471.6,275,457.24,288.29,456.29Z" transform="translate(-77.37 -12.11)"/><path class="g" d="M233.53,509.37l5,3.19c-13.07-4-26.32,5.14-38.91.14C211.25,514.15,222.4,499,233.53,509.37Z" transform="translate(-77.37 -12.11)"/><path class="p" d="M183.89,756.43c5.05,4.93,5.7,13.51,4.5,20.72C182.72,770.22,181.34,763.83,183.89,756.43Z" transform="translate(-77.37 -12.11)"/><path class="h" d="M381.09,271.67c2.51,9.35-.3,19.48-.07,29.11C377.67,293,379.26,280,381.09,271.67Z" transform="translate(-77.37 -12.11)"/><path class="b" d="M266.44,428.62c4.64-4.25,4.93-9.36,2.9-14.91C277.1,417.36,274.67,430.17,266.44,428.62Z" transform="translate(-77.37 -12.11)"/><path class="g" d="M245.51,512.56a90.84,90.84,0,0,1,24-2C262.35,514.46,253.16,514.36,245.51,512.56Z" transform="translate(-77.37 -12.11)"/><path class="b" d="M248.43,431.39l12-1.95c-7.26,4.18-19.86,5.89-26.85,1C238.54,430.83,243.47,431.64,248.43,431.39Z" transform="translate(-77.37 -12.11)"/><path class="o" d="M357.23,480.53c.31-.68.61-1.36.91-2C360.29,497.8,356.53,503.07,357.23,480.53Z" transform="translate(-77.37 -12.11)"/><path class="h" d="M93,815.21Q92.5,808.1,92,801C95,804.48,95.55,812.25,93,815.21Z" transform="translate(-77.37 -12.11)"/><path class="h" d="M380.1,255.72l.92,3.11C380.71,257.8,380.41,256.76,380.1,255.72Z" transform="translate(-77.37 -12.11)"/><path class="g" d="M273.5,508.5l3.05-1.86Z" transform="translate(-77.37 -12.11)"/><path class="i" d="M269.4,795.61c.34-1,.68-2,1-3Z" transform="translate(-77.37 -12.11)"/><path class="q" d="M139.79,502.41c-3.8-11.79-8.63-3-13.92,2.08C95.21,516.77,111,464.32,114,448.56c26.46-21.63,28.53.07,27,23.83,3.1,9.61.92,21.57,10.65,27.64C163.34,508.54,143.88,510.64,139.79,502.41Zm-9-26.88c1.58-11.81,5.26-40.83-11.66-19C109.15,477.32,115.61,520.34,130.76,475.53Z" transform="translate(-77.37 -12.11)"/><path class="r" d="M178.47,480.51c.94-9.41-7.87-10-4.86-15.12,10.32-.67,1.38-17.59,9-22.12C196,449.5,181.49,548.72,178.47,480.51Z" transform="translate(-77.37 -12.11)"/><path class="s" d="M173.61,465.39c-2.16,3.56-.69,5,3,5.24-.46,6.46-9.7-2.21-14.06-.36,16.4-14.19-4.62-19.32-7.38-2.41-3.09-19.41-7.47,8.24-12.23,13.67-4.64-12.56,4.32-23.64,16.92-25.5C170.27,451.24,172.11,456.16,173.61,465.39Z" transform="translate(-77.37 -12.11)"/><path class="s" d="M114,448.56c-2.76,17.94-14.15,44.83.73,59C98.3,508.41,102.54,457.1,114,448.56Z" transform="translate(-77.37 -12.11)"/><path class="f" d="M142.88,469.41l-1.88,3c-.09-9.44-.38-19-.48-28.69C145.1,451.17,141.89,461,142.88,469.41Z" transform="translate(-77.37 -12.11)"/><path class="s" d="M182.58,443.27c-4.78,2.66-2.05,7.54-3.31,11.24C172,467.53,178.87,431.25,182.58,443.27Z" transform="translate(-77.37 -12.11)"/><path class="s" d="M132.65,438.36c-2.56.77-5,2.66-7.71,2C127.16,436.94,127.59,436.83,132.65,438.36Z" transform="translate(-77.37 -12.11)"/><path class="n" d="M177.62,457.5l1.65-3C178.71,455.44,179,457.71,177.62,457.5Z" transform="translate(-77.37 -12.11)"/><path class="m" d="M136.6,47.81c18.33-16.17,46-29.08,70.9-25.4C216,26,213,37.12,222.27,42.32c-3.62-28.11-.4-7.39,5.11-16,5.46-26.55,58.76-4.39,68.5,11.14.88,1.09-1,6.25-2.92,7.42-9.25,6.21-6.94,22.64-1.47,30.87,8.91-4.15,10.5-14.64,14.86-22.59,11.84-27.49,35.09,10.89,47,20.62-6.52-5.81-16.33,7.19-19.1-3.47-.87-10.78-12.34-34.24-20.94-15-3.06,18.68-38.23,59.67-28.89,69.89-10.62-2.24-21.88-3.84-13.07-15.14.37-14.54,13.34-53.45-2.77-59.09-7.4,1-16.29,26.47-19.21,33.88.26,7-1.58,9.23-8.44,11.38-14.8,1-7.35,19,1.56,23.65-9.29-1.55-18.5-3.78-27.86-4.84,8.91-11-4.65-17.77-14.42-16.17-7.62,1.91-20.67,11.09-26.66,3.34C155.54,87.49,152.33,34.87,136.6,47.81ZM279.88,31.66c-4.58-5.73-5.94-2-10.13.74C273.88,36.42,275.55,36.34,279.88,31.66Z" transform="translate(-77.37 -12.11)"/><path class="t" d="M284.46,125.14c-8.48-11.89,8.38-22.25,12.07-32.92C306.13,79.61,307,53.36,322.09,48c13.25,1.68,6.46,31.05,20.16,25.8,15.67-7.45,40.06,28.93,33.56,42.94-.62,13-46.52,40.81-36.07,19.35,16-12,44.33-24.64,6.46-31.25C310.73,107.27,348.64,148.92,284.46,125.14Z" transform="translate(-77.37 -12.11)"/><path class="t" d="M136.6,47.81c15.65-13.06,18.94,39.65,37,54.34,6,7.76,19-1.44,26.66-3.35,46.38,7.14-8.66,25.1-25.39,27.58-17.37-1.18-33.42,8.37-50.23,3.59-8.41-2.78-38.61-29.29-16.21-24.65,26.83,19.56,34.31,7.85,29.62-21.25C134.44,72.05,127.31,59.11,136.6,47.81Z" transform="translate(-77.37 -12.11)"/><path class="t" d="M242.53,119.82c-8.91-4.62-16.36-22.6-1.56-23.65,6.86-2.15,8.7-4.38,8.44-11.37,2.85-7.34,11.92-33,19.2-33.89,12.67,1.2,5.26,21.4,6.7,30.23C273.12,107,274.21,124.41,242.53,119.82Z" transform="translate(-77.37 -12.11)"/><path class="m" d="M135.58,48.82c-7.6,11.89-1.12,23.32,2.47,35.25,4.7,29.15-2.86,40.78-29.63,21.25-13.78-5.07-7.16,7.29-.75,12.67C72.38,102.59,120.32,63.09,135.58,48.82Z" transform="translate(-77.37 -12.11)"/><path class="m" d="M313.15,133.15c5.77-2.56,14.45-3.31,15-11.11-1.49-21,25.58-21.44,36.43-9.18,7.3,9.65-51.26,30.87-18.13,30.27C334.31,154.47,322.87,140.14,313.15,133.15Z" transform="translate(-77.37 -12.11)"/><path class="m" d="M373.37,122a23.15,23.15,0,0,0,2-21.21C381.44,105.63,380.28,117.9,373.37,122Z" transform="translate(-77.37 -12.11)"/><path class="m" d="M124.64,130l11.28,2.14C132.4,135,128,134.17,124.64,130Z" transform="translate(-77.37 -12.11)"/><path class="m" d="M117.64,126l7,4Z" transform="translate(-77.37 -12.11)"/><path class="m" d="M111.65,121l5,4Z" transform="translate(-77.37 -12.11)"/><path class="m" d="M143.81,131l6.09-2.83Z" transform="translate(-77.37 -12.11)"/><path class="m" d="M368.39,128l3-4Z" transform="translate(-77.37 -12.11)"/><path class="m" d="M354.38,140l4-3Z" transform="translate(-77.37 -12.11)"/><path class="m" d="M357.39,76.77l-4-3Z" transform="translate(-77.37 -12.11)"/><path class="m" d="M365.39,131l3-3C367.37,129,366.38,130,365.39,131Z" transform="translate(-77.37 -12.11)"/><path class="m" d="M374.36,98.78l-2-3C373,96.78,373.7,97.78,374.36,98.78Z" transform="translate(-77.37 -12.11)"/><path class="m" d="M299.18,129.15l3.18,1.74Z" transform="translate(-77.37 -12.11)"/><path class="m" d="M370.37,92.79c-.67-1-1.33-2-2-3Z" transform="translate(-77.37 -12.11)"/><path class="m" d="M295.18,128.15l2.21,1Z" transform="translate(-77.37 -12.11)"/><path class="m" d="M193.61,121.12l2.2-1Z" transform="translate(-77.37 -12.11)"/><path class="m" d="M163.57,127l1.22.13Z" transform="translate(-77.37 -12.11)"/><path class="e" d="M381.4,615.36l1.92-14Z" transform="translate(-77.37 -12.11)"/><path class="e" d="M383,634.66c-.53-3.13-1.05-6.26-1.58-9.4C381.93,628.4,382.45,631.53,383,634.66Z" transform="translate(-77.37 -12.11)"/><path class="e" d="M383.32,670.23c-.31-2-.61-4-.92-6C382.71,666.22,383,668.22,383.32,670.23Z" transform="translate(-77.37 -12.11)"/><path class="e" d="M383.32,554.36v0Z" transform="translate(-77.37 -12.11)"/><path class="l" d="M198.63,590.44c-29.5-7.67-21.3.88-27-26.63C165.71,530.64,261.49,580.13,198.63,590.44Z" transform="translate(-77.37 -12.11)"/><path class="l" d="M243.58,621.65c1.63,11.26-14.86,16.94-17.85,5.85-1.52-7.44-7.54-19.24-3.27-25.88C234.16,597.45,243.1,611.05,243.58,621.65Z" transform="translate(-77.37 -12.11)"/><path class="l" d="M165.29,581.31c-8.31,14.51-26.32-10.37-26.3-21C145.53,540.89,166.23,568.26,165.29,581.31Z" transform="translate(-77.37 -12.11)"/><path class="m" d="M311.54,597.85c-16.56-4.23-52,16.83-55.54-2.92-.25-1.1,1.79-3.85,2.89-3.93,9.46-.17,9.33-9.47,15.1-14.5,4,3.35,2.67,11,3.79,14C286.76,599.41,306.23,589.54,311.54,597.85Z" transform="translate(-77.37 -12.11)"/><path class="m" d="M302.11,706.65c-5.59-2.12-30.64,1.19-23.18-8.61C289.05,681.61,332,703.27,302.11,706.65Z" transform="translate(-77.37 -12.11)"/><path class="l" d="M267.61,715.62c3.91-15.37,19.83-1.74,17.42,8.88C281.62,735.22,266.94,725.78,267.61,715.62Z" transform="translate(-77.37 -12.11)"/><path class="m" d="M328.6,829.93c15.92,1.53,1.13,8.62-6.42,7C314.14,833.36,324.69,829.74,328.6,829.93Z" transform="translate(-77.37 -12.11)"/><path class="m" d="M248,656.4c2.41,2.77,8.2,11.61,1.91,12.39C244.22,666.82,242.44,659.19,248,656.4Z" transform="translate(-77.37 -12.11)"/><path class="m" d="M197.37,650.52c-3.08-.86-11.06,2.05-11-1.75C189.44,649.63,197.54,646.72,197.37,650.52Z" transform="translate(-77.37 -12.11)"/><path class="m" d="M193.37,541.28c3,.8,10.4-1.84,10.67,1.47C201.08,542,193.64,544.6,193.37,541.28Z" transform="translate(-77.37 -12.11)"/><path class="m" d="M106.78,245.33c-4.31,18.84-1.94,37.82,6.76,53.61-5.7,7.71.89,42.57,3.93,21.92-1.74-5.68,0-8.2,5.76-8.57,7-3.4,12.47-8.67,21-7.19,5.12,1.34,3.43,8.85,9.5,9.81,11,4.13.26,22.43,15.37,21.78,12.44,5.77,23.73-22.32,25.41-6.42.35,34.66-42.5,22.68-59.35,44.57-5.32,5.18-6.5-1.72-9.46-5.13-6.14-11.51-20,8-24.87-2.78-10-28.28,5.42-28.55,1.21-51.14C103.35,300.42,87.39,247.68,106.78,245.33Z" transform="translate(-77.37 -12.11)"/><path class="a" d="M325.22,334.84c.84,1.14,1.69,2.28,3.11,4.18-21.72-.34-27.45,17.55-33.7,7.8-6.92-10.28-17.42,1.55-26.38-3.64-12.58-4-29.57,19.68-38.49.92,6.08-15.62,41.73,6.69,38.83-14.48,2-48.41-14.48-14.56-25.75-36.09,9.08-13.95,40.15-3.46,55.83-6.78,11.1-1.22,15.95,12.76,28.5,10.28-2.51,8.18-12.68-2.93-15.91,5.85-3.22,7.27,2.36,18-4.48,23.85-4.31-4.65-3.26-10.42-3.24-16,5.08-14.51-12.54-10.67-21.07-11.06-13.31,1.28-5.54,21.13-6.82,30.2,5.11,8,21.31,9.5,29.36,3.59C311.53,331.63,318.58,334.14,325.22,334.84Z" transform="translate(-77.37 -12.11)"/><path class="l" d="M248.51,301.52c27.34-10.52,27.74,44,.65,32.92-3.54-1.57-6.88-5.55-9.31-8.4-5.43-.56-4.42-4.2-4-8.13C243.69,319.23,243.26,306,248.51,301.52Z" transform="translate(-77.37 -12.11)"/><path class="l" d="M325.22,334.84c-23.8,3.33-17.93-42.92,5.21-33,10.34,3.47,6.53,16.89,7.45,25.35C338.12,334.72,330.39,333.07,325.22,334.84Z" transform="translate(-77.37 -12.11)"/><path class="l" d="M342.3,319c-4.93-16.41,17.68-20.86,17.92-4.62C365.12,338,338.54,346.16,342.3,319Z" transform="translate(-77.37 -12.11)"/><path class="m" d="M247,253.11c-4.62-2.71-30.12-8.74-19.37-14.19C238.77,238.38,277.88,247.45,247,253.11Z" transform="translate(-77.37 -12.11)"/><path class="n" d="M243.23,489.6c-9.28-9.24-28-35.17-1.67-32.5,15.3,4.8,1.61,17.19,10.78,26.44-6-.63-10.33-10.67-11.88-16.3,12.82,3.52,3.17-7.1-3.1-8.23-6.43.56-9.45,9.55-3.52,14.13C236.16,477.71,246.89,486.08,243.23,489.6Z" transform="translate(-77.37 -12.11)"/><path class="p" d="M216.57,480.47c7.25,8.73-22.47,27.4-12.48,11.6,4.91-3.81,9.81-7.73,10.58-14.59Z" transform="translate(-77.37 -12.11)"/><path class="n" d="M216.57,480.47c-3.49-3.61-.15-8.28.3-12.6-1.61-19-17.38,10.54-22.08-1.55,2.67,1.34,4.63,1.39,6.48-1.76C216.51,449.92,222.7,465.47,216.57,480.47Z" transform="translate(-77.37 -12.11)"/><path class="s" d="M233.53,509.37c-9.05-3.31-4.94-9.13-15.08-8.15,3.41-3.3,9.6-4.9,7.18-11.77C231.54,491,228.85,503.68,233.53,509.37Z" transform="translate(-77.37 -12.11)"/><path class="s" d="M249.44,483.48c5.39,0,10.23,11,6.37,15.37-.27-2.14-.52-4-.72-5.53-1.85,4.7-3.71,9.43-5.58,14.15C250,499.93,251.64,491.28,249.44,483.48Z" transform="translate(-77.37 -12.11)"/><path class="l" d="M223.56,281.26c-7.77-2.5-6.63-9.14.53-8.4C231.5,275.12,229.22,277.57,223.56,281.26Z" transform="translate(-77.37 -12.11)"/><path class="m" d="M172,244.83c3.93-4.59,10.7-3.92,14,1.37C182,248.75,175.85,248.14,172,244.83Z" transform="translate(-77.37 -12.11)"/><path class="n" d="M228.44,499.44c-.34-12.31,9.88.77,16.83-3C242.44,506.88,233.64,494.17,228.44,499.44Z" transform="translate(-77.37 -12.11)"/><path class="s" d="M186.76,462.45c1.12-4.65-2.85-15.93,1.69-16.87C188.41,451.39,191.5,457.92,186.76,462.45Z" transform="translate(-77.37 -12.11)"/><path class="n" d="M186.76,462.45c2.09-8,10.21,3.35,5.85,6C190.7,466.43,188.86,464.31,186.76,462.45Z" transform="translate(-77.37 -12.11)"/><path class="n" d="M228.41,489.54c-4.5-.2-9.88-1.7-11.84-6.08C221.28,484.66,226.67,484.07,228.41,489.54Z" transform="translate(-77.37 -12.11)"/><path class="b" d="M188.45,445.58c-2.8,0-6.67-1.64-5.89-4.9C186.11,440.39,187.87,442.27,188.45,445.58Z" transform="translate(-77.37 -12.11)"/><path class="s" d="M245.27,496.41c-2.84-.82-3-7-.17-7.91Q245.18,492.45,245.27,496.41Z" transform="translate(-77.37 -12.11)"/><path class="f" d="M256.35,490.48c-1.86-1.55-2.78-6.94-.1-6.82C256.61,485.88,256.3,488.21,256.35,490.48Z" transform="translate(-77.37 -12.11)"/><path class="m" d="M319.44,367.06c-.2-.87-1.21-2,.18-2.07C319.74,365.83,320.77,367,319.44,367.06Z" transform="translate(-77.37 -12.11)"/><path class="s" d="M256.25,483.66c-1.33-.09-.79-1.34-.86-2.32C255.67,482.11,256,482.89,256.25,483.66Z" transform="translate(-77.37 -12.11)"/><path class="u" d="M243.52,738.26c18-12.37-17.61-12.73-24.74-9-8.24,2.59-13.24,13.4-22.42,13,12.88-27.47,45.81-27.49,67.14-9.81,5.94,6.26-3.75,4.75-5.91,10-4.17,22.37-56,17.57-46.34,2.75,2-8,7.21-8.89,14.28-5.92C206.61,765.22,264.75,750.91,243.52,738.26Z" transform="translate(-77.37 -12.11)"/><path class="o" d="M251.44,790.28c7.6,14.66-28.23,3.91-37.33,6.9,21.91,30.88,65-24.89,52.63-2-45,55-95-37.56-59.45-1.1C216.84,784,238,790.66,251.44,790.28Z" transform="translate(-77.37 -12.11)"/><path class="u" d="M237.09,776c-7.16-1-41.27,4.23-28.55-7.24,16.94-.83,37.88-4.23,53.37,2C261.72,779.14,241,777.46,237.09,776Z" transform="translate(-77.37 -12.11)"/><path class="o" d="M248.41,786.19c-12.6-3.15-36.08,4-43.35-5,15.78-2.07,27,1.53,41.92,2.48C250.78,773.26,269.29,789.16,248.41,786.19Z" transform="translate(-77.37 -12.11)"/><path class="u" d="M240.54,738.35c-3,3.6-6.45,3-10,.91Z" transform="translate(-77.37 -12.11)"/><path class="l" d="M258.38,785.91v-4.56C261.06,783.19,261.06,784.08,258.38,785.91Z" transform="translate(-77.37 -12.11)"/><path class="n" d="M227.45,812.17l5.08.89Z" transform="translate(-77.37 -12.11)"/><path class="l" d="M248.41,786.19l8-.09Z" transform="translate(-77.37 -12.11)"/><path class="n" d="M249.51,790.28l-1-.06Z" transform="translate(-77.37 -12.11)"/><path class="l" d="M316.67,526c-2-.48-5.7.86-4.87-2.2C314.07,524.18,318,522.54,316.67,526Z" transform="translate(-77.37 -12.11)"/><path class="q" d="M147.55,473.55c-.15-7.94,6.88-20.43,7.62-5.69-1.14-9.55,18.66-16.49,12.64-4.08C156,474.46,150.34,520.5,147.55,473.55Z" transform="translate(-77.37 -12.11)"/><path class="s" d="M152.73,495c4-6.21,4.9-13.58,7-20.52.06,11.35-5.85,21.7-2.08,32.38-4.46,5.54-15.21,4.93-18.74-1.88.45-5.76,4.71,2.43,7.47,2.41,8.72,2.12,12.66-3.21,4.46-8.2C151.44,497.8,152.08,496.41,152.73,495Z" transform="translate(-77.37 -12.11)"/><path class="s" d="M184.51,504.22c2.21-5.51-1.53-19.48,5.87-18.82-2.36,9.28,2.82,26.92,16.9,23.21-3.91,10-18.82-2.35-17.88-10.74C187.89,499.6,184.7,507,184.51,504.22Z" transform="translate(-77.37 -12.11)"/><path class="s" d="M178.47,480.51c2.07,7.45-2.14,22.17,6.17,24.95C177.41,515.56,175.3,482.28,178.47,480.51Z" transform="translate(-77.37 -12.11)"/><path class="s" d="M115.83,507.59l10-3.1C129.68,510.53,118.81,507.52,115.83,507.59Z" transform="translate(-77.37 -12.11)"/><path class="b" d="M244.52,406.58c-5.79.74-14.31,7-19,4.06Z" transform="translate(-77.37 -12.11)"/><path class="b" d="M267.37,410.6l-8-5.83C263.5,404.72,266.3,406.47,267.37,410.6Z" transform="translate(-77.37 -12.11)"/><path class="b" d="M251.51,404.77l-4.95.85Z" transform="translate(-77.37 -12.11)"/><path class="o" d="M225.52,410.63c.46,1.39-1.3.22-2.08.19A3.11,3.11,0,0,1,225.52,410.63Z" transform="translate(-77.37 -12.11)"/><path class="g" d="M273.48,417.54l-2-2Z" transform="translate(-77.37 -12.11)"/><path class="b" d="M269.26,413.62l-.87-1Z" transform="translate(-77.37 -12.11)"/><path class="b" d="M245.59,406l-1.06.61Z" transform="translate(-77.37 -12.11)"/><path class="b" d="M268,411.64l-.64-1Z" transform="translate(-77.37 -12.11)"/><path class="r" d="M256.35,490.48c1.35-11.36,14.77-28.66,27-29.78,3,.47,5.95-3.58,9.06-.21v24c-7.47,6.91,1.05,12.54,1.13,19.8-5.48-.93-6.71-10.62-12.26-6.76C268.71,509.47,255.85,510.17,256.35,490.48Zm15,4.9c5.74-4.78,10.07-28.34-1.15-17.86C265.53,484.47,255.46,507,271.31,495.38Z" transform="translate(-77.37 -12.11)"/><path class="q" d="M357.23,480.53c.61,10.1.95,31.58-14.45,27.09C317.16,499.74,343.13,435.49,357.23,480.53ZM353,486c-2.1-29.08-23.91-4.59-14.49,10.6C346.19,507,351.91,492.12,353,486Z" transform="translate(-77.37 -12.11)"/><path class="v" d="M314.45,458.31c7,5.14,15.05,9.61,14,20.37.71,5.14,2.52,36.22-5.21,19.76,1.06-9.15.33-41.35-14.32-29.33-3,6.18-9,11.47-6.82,19.56.56,3.65-4.65,7.62-5.49,2.46C299.4,462.89,288.78,466.75,314.45,458.31Z" transform="translate(-77.37 -12.11)"/><path class="q" d="M245.27,496.41c4.81-13.52-28.21-29.28-7.92-37.4,6.28,1.15,15.92,11.73,3.11,8.23,14,17.54,14.94,60.77-12,32.2C233.62,494.17,242.46,506.88,245.27,496.41Z" transform="translate(-77.37 -12.11)"/><path class="f" d="M292.45,484.46c-.55-6.39.36-34.06,1.7-17.47C297.89,473.3,297.58,479.08,292.45,484.46Z" transform="translate(-77.37 -12.11)"/><path class="p" d="M329,502l.66-4.64C334.85,500.49,332.54,507.16,329,502Z" transform="translate(-77.37 -12.11)"/><path class="s" d="M259.46,505.45l4.93,2.13C261.73,510.51,254.66,505.44,259.46,505.45Z" transform="translate(-77.37 -12.11)"/><path class="g" d="M294.41,494.44c-2.89-2.5-2.89-2.5-.41-5.09C294.18,491.33,294.2,493.08,294.41,494.44Z" transform="translate(-77.37 -12.11)"/><path class="s" d="M245.45,508.37c.83-1.2,2.87-1.4,4.06-.9Z" transform="translate(-77.37 -12.11)"/><path class="s" d="M257.45,505.46c-3.24-2.77-1.37-4.08,0,0Z" transform="translate(-77.37 -12.11)"/><path class="o" d="M244.54,431.46c-9.15.18-17-4-26-4.92C225.89,423,237.79,427.46,244.54,431.46Z" transform="translate(-77.37 -12.11)"/><path class="b" d="M225.52,427.48l5,1.82Z" transform="translate(-77.37 -12.11)"/><path class="b" d="M231.55,429.49l1.06.61Z" transform="translate(-77.37 -12.11)"/><path class="i" d="M246.53,797.9c16.59,4.77-26.41,15.05-32.42-.72C225.65,797.65,236,796.17,246.53,797.9Z" transform="translate(-77.37 -12.11)"/><path class="f" d="M333.19,501.37c-7.7-7.3-4.7-19.59.05-27.84Q333.23,487.45,333.19,501.37Z" transform="translate(-77.37 -12.11)"/><path class="f" d="M202.51,419.42c-.89,5.33-1.55,12,6.11,9.63,6.31-.08-.81,7.69-5.12,8C191.68,438,195.87,423.41,202.51,419.42Z" transform="translate(-77.37 -12.11)"/><path class="f" d="M217.59,409.72c-3.71,3.94-10.27,5.7-15,8.83C201,409.16,210.53,409.5,217.59,409.72Z" transform="translate(-77.37 -12.11)"/><path class="b" d="M205.52,512.27c2.23-6.12,19.34-17.51,21-6.88C218.46,503.87,213.58,512,205.52,512.27Z" transform="translate(-77.37 -12.11)"/><path class="n" d="M124,491.6c-14.66,18.33-4.66-25.92-3.59-32.5-.56-10.21,15.56-18.07,11.5,1.6-2.38-13.34-6.57,15.39-1.43,15.7C128,480.64,122.06,485.39,124,491.6Z" transform="translate(-77.37 -12.11)"/><path class="s" d="M119.1,456.57c.45.85,1.45,1.86,1.26,2.53-4.17,9.93,0,21.28-5.61,30.36C113.92,478.19,114.64,467.13,119.1,456.57Z" transform="translate(-77.37 -12.11)"/><path class="s" d="M130.44,476.4c-.76-.2-2.18-.42-2.18-.61C126.82,453.06,135.05,455.71,130.44,476.4Z" transform="translate(-77.37 -12.11)"/><path class="p" d="M152.73,495c-2.73,12.26-15.16-13.37-5.11-10.54A13.59,13.59,0,0,0,152.73,495Z" transform="translate(-77.37 -12.11)"/><path class="s" d="M124,491.6c-1.09-4.49,1.78-11.08,5.72-13.11Z" transform="translate(-77.37 -12.11)"/><path class="f" d="M147.62,484.47c-8.7,1.42-2.28-7.08-.07-10.92C147.57,477.19,147.6,480.83,147.62,484.47Z" transform="translate(-77.37 -12.11)"/><path class="n" d="M130.76,475.53l.6-2Z" transform="translate(-77.37 -12.11)"/><path class="s" d="M140.87,465.46c.18.4.61.73.07,1.05Z" transform="translate(-77.37 -12.11)"/><path class="p" d="M151,499.39a1.56,1.56,0,0,1,.68.64Z" transform="translate(-77.37 -12.11)"/><path class="s" d="M143.3,483.47l.38,1Z" transform="translate(-77.37 -12.11)"/><path class="s" d="M192.61,468.48c2.3-3.86,4.55.66,7.09,2.23-5.24,2.19-6.84,7-8.41,11.81C188.27,477.1,184,470.76,192.61,468.48Z" transform="translate(-77.37 -12.11)"/><path class="f" d="M186.77,473.55c1.35,3.93,5.74,7.67,3.61,11.85C183.88,486.92,187.74,477.71,186.77,473.55Z" transform="translate(-77.37 -12.11)"/><path class="b" d="M184.6,505.43l-3-.67C182.85,504.73,184.92,503.37,184.6,505.43Z" transform="translate(-77.37 -12.11)"/><path class="t" d="M279.88,31.66c-4.33,4.68-6,4.76-10.13.74C274,29.67,275.3,25.93,279.88,31.66Z" transform="translate(-77.37 -12.11)"/><path class="h" d="M310.16,322.52c2.87,8.1,4.59,11.22-5.15,11-7.62,6.26-16.79,2.58-24.93,1.06-8.86-5.84-3.51-18.86-5-27.94,0-4.64,2.9-6.81,7.35-6.9C310.7,290.67,298.15,334.68,310.16,322.52Z" transform="translate(-77.37 -12.11)"/><path class="h" d="M323.33,300.54c-10,.38-10.63,8.29-13.09,15.1C309,306.26,311.69,294.79,323.33,300.54Z" transform="translate(-77.37 -12.11)"/><path class="g" d="M303.54,310.75l-7.15-11.1C303.61,300.17,305.72,303.43,303.54,310.75Z" transform="translate(-77.37 -12.11)"/><path class="h" d="M315.23,332.83l2.11.93Z" transform="translate(-77.37 -12.11)"/><path class="q" d="M190.38,485.4c1.53-15.17,35-39.4,24.29-7.92,1,10.78-17.53,12.63-11.17,22.48,9.11-14.47,35.83-16.4,14.95,1.26C201.63,516.79,189.24,506.29,190.38,485.4Zm10.35-2.77c4,8.52,12.72-6.41,6.64-10.71C204.86,471.63,200.84,477.65,200.73,482.63Z" transform="translate(-77.37 -12.11)"/><path class="d" d="M249.28,507.23l-2.84.16,3.05-3Z" transform="translate(-77.37 -12.11)"/><path class="l" d="M256.5,490.41l.6,1Z" transform="translate(-77.37 -12.11)"/><path class="d" d="M249.74,503.52c.24-.38.47-.76.71-1.13C250.21,502.76,250,503.14,249.74,503.52Z" transform="translate(-77.37 -12.11)"/><path class="n" d="M250.37,486.68l-.52-1.21Z" transform="translate(-77.37 -12.11)"/><path class="n" d="M246.53,797.9l-3.11-.72Z" transform="translate(-77.37 -12.11)"/><path class="f" d="M190.38,489.52a39.21,39.21,0,0,1,1.19,6.9C188.13,493.6,187.65,490.76,190.38,489.52Z" transform="translate(-77.37 -12.11)"/><path class="n" d="M268.35,498.32c-13.88,2.65.48-21.37,6.88-24.66,5,7.69.21,15.21-3.92,21.72-1-3.17-1.44-4.43-.08-8.11C264.89,491.81,264.48,494.21,268.35,498.32Z" transform="translate(-77.37 -12.11)"/><path class="g" d="M268.35,498.32c-3.87-4.11-3.46-6.51,2.88-11.05C268.86,492.17,273.32,495.22,268.35,498.32Z" transform="translate(-77.37 -12.11)"/><path class="n" d="M353,486c-1.06,6.11-6.78,21-14.49,10.6C329.06,481.39,350.87,456.93,353,486Zm-2,1.09c-1.34-22.13-15.41-4.88-9.55,7.36C345.62,502.68,349.63,490.46,351,487.09Z" transform="translate(-77.37 -12.11)"/><path class="p" d="M328.7,487.32c.12,2.4.23,4.79.34,7.19C328.93,492.12,328.81,489.72,328.7,487.32Z" transform="translate(-77.37 -12.11)"/><path class="n" d="M200.73,482.63c.11-5,4.13-11,6.64-10.71C213.45,476.22,204.68,491.15,200.73,482.63Z" transform="translate(-77.37 -12.11)"/><path class="s" d="M191.17,492.48l-.49-1.17C190.85,491.7,191,492.09,191.17,492.48Z" transform="translate(-77.37 -12.11)"/><path class="g" d="M351,487.09c-1.35,3.37-5.37,15.59-9.55,7.36C335.57,482.2,349.64,465,351,487.09Z" transform="translate(-77.37 -12.11)"/></svg>