<svg xmlns="http://www.w3.org/2000/svg" viewBox="0 0 668.7 1177.0026"><defs><style>.a{fill:#fdfdfd;}.b{fill:#8c1506;}.c{fill:#b31414;}.d{fill:#da0e15;}.e{fill:#e23425;}.f{fill:#f2e6d5;}.g{fill:#d4cabb;}.h{fill:#df3829;}.i{fill:#e67e12;}.j{fill:#de5f17;}.k{fill:#d24c3e;}.l{fill:#ddd3c8;}</style></defs><polygon class="a" points="331.412 1174.207 357.419 1169.947 372.894 1166.524 415.107 1153.616 486.918 468.87 369.922 482.773 331.412 1174.207"/><path class="b" d="M387.3019,488.6283q-2.0094,22.0419-4.0187,44.0838c-12.0485-3.4882-24.3267.8928-36.5885.2772-34.7623.97-69.4193-.1377-104.1469-1.7831C204.4643,531.169,119.523,511.08,96.4794,545.3911,66.1831,590.8776,81.4231,647.9523,90.22,697.6092c6.1538,35.8759,12.8062,71.6439,19.7278,107.4041,18.8752,105.7234,38.9449,251.2054,165.0624,276.0425,9.4442,1.0875,61.9782,16.2113,61.19,3.0956,1.7761-7.134-.4389-23.7712,4.593-27.8415-2.9378,39.5043-5.9843,78.33-9.3815,117.8971-72.1084,4.5045-150.0462,7.8912-216.01-26.0243-10.082-6.182-16.518-14.6438-17.7027-26.6709q-4.6714-47.4251-9.3683-94.8474C69.4151,837.76,46.0891,649.3339,25.2481,460.6367c88.8075,25.3687,184.2538,31.4247,277.295,29.1911,27.4054.0653,54.85-3.0427,82.1147-4.4323C386.304,485.7751,388.0622,486.2134,387.3019,488.6283Z"/><path class="c" d="M340.7934,1056.31c-2.066,7.2477-.2908,34.14-7.6818,34.6758-28.4557-2.6966-57.7583-6.3217-84.6289-16.2353-96.25-36.55-118.6463-150.452-134.454-240.9147-8.7477-49.19-19.3094-98.047-26.7585-147.452C76.74,641.8726,63.21,555.0263,113.1945,530.7065c8.693-3.1058,17.2151-6.6157,26.8953-6.2276,40.3708-.7486,80.4011,4.4161,120.5826,6.14a583.2062,583.2062,0,0,0,70.5552.9642c13.2788-.3252,26.557-.6839,39.8364-.9856,4.0237.5786,9.8251-1.9237,12.2189,2.1143l.0108-.0806c-2.3812,2.8824.6227,6.4438-1.1853,9.3985l.1449,2.5338c-1.8207,12.4062-1.4982,25.3783-2.959,38.0728-4.8209-3.6392-10.1812-3.2745-15.8746-2.8394-9.7549.7454-19.574-.0263-29.3624-.0481-40.6226.3241-81.47-.9943-121.8943,3.5457-78.5382,5.1169-77.7857,62.9343-74.7757,126.2484,1.0689,49.3094,13.9366,97.2406,23.6,145.5841,5.2146,16.8206,8.305,34.2587,14.1423,50.9259,5.6392,14.4529,13.289,27.9269,20.4425,41.6021,11.3234,17.86,27.9989,32.26,43.36,46.6188,10.619,9.1469,23.5784,14.8668,35.3358,22.377,17.849,10.1109,38.9193,10.9427,58.548,15.555,10.4,2.655,4.6618-7.7787,10.29-6.024Q341.95,1041.2459,340.7934,1056.31Z"/><path class="d" d="M343.1066,1026.182c-4.0789,4.204-.9028,10.0326-9.0962,7.8057-6.4661-1.3327-12.9124-2.763-19.3759-4.1115-20.464-2.6854-39.4757-9.1389-56.4614-21.042-25.3577-13.8993-45.2668-35.5855-62.4785-58.3945-11.9614-21.6111-24.3418-44.0076-28.6274-68.72-1.4369-7.93-4.6085-15.5307-6.678-23.3641-9.4187-46.0585-22.7413-92.23-23.9046-139.3262-1.0222-39.8786-8.4773-93.3215,25.6988-121.5928,20.4811-14.1122,47.686-15.501,71.9065-16.9382,37.0549-.65,74.032-1.3656,110.8956-2.6476,7.6207-1.4761,16.2447,2.0152,24.1452-.1363,4.5051-.6106,8.1064.5322,10.1636,4.9222q-1.596,20.9352-3.1919,41.87c-1.4148,3.4677-4.0527,6.77-8.2564,6.2175-23.4261-1.8061-46.9244.2829-70.3167-1.0584-34.7123-2.0257-80.4227,1.1619-85.0223,43.8454-4.4856,32.3661-4.3429,65.5891,1.6426,97.6861,9.9266,79.5006,46.0564,174.8873,133.9715,192.0779C346.3651,984.2335,345.6052,1005.3,343.1066,1026.182Z"/><path class="e" d="M348.1211,963.275c-27.182-1.6634-52.298-18.7634-71.7473-37.39-23.5894-25.3555-40.5405-57.5906-49.9341-90.8533-11.7567-44.752-21.2486-90.401-17.927-136.7909-.5464-26.0772,7.4973-59.598,36.9584-65.5494,41.83-8.4583,85.2745-2.6691,127.7222-4.11,4.1715,10.0178-1.0206,20.8407-1.0058,31.2364-2.1094,15.5793-3.27,31.2555-4.3281,46.9266-3.068,48.7035-7.7927,96.655-11.3922,145.3451-1.2692,19.2708-5.3488,39.247-3.8933,58.2917-3.7232,12.7451-3.4463,26.4214-3.3063,39.7247a.9227.9227,0,0,1-.0648,1.1891Q348.6621,957.2851,348.1211,963.275Z"/><path class="f" d="M.4861,407.7121c-.14-12.8185,6.4872-20.6709,18.0494-25.2441A236.5815,236.5815,0,0,1,69.9817,364.67c3.7074-.99,6.3006-2.3454,7.5625-6.6528,7.3089-17.8981,63.9277-25.1517,82.7141-28.2429,30.2793-3.2948,60.6269-5.8385,91.0951-6.0692,6.466-.4384,13.4194.5737,18.1026-4.8886,1.3513,5.497-1.0306,9.7631-4.5033,13.6768-44.8129,3.7293-90.3053,2.7989-134.0468,15.1258-8.83,2.1179-31.2766,8.9124-19.3262,20.587,11.5638,9.0415,27.3084,9.2989,40.8049,13.6283,68.1225,11.3474,138.4746,11.2424,207.14,3.7861,101.4983-12.1816,89.651-36.6125-3.3817-47.5265-17.6986-2.1239-35.2007-4.1458-53.0834-3.8782-11.5.5592-8.0078-14.4252-1.858-19.4681-.21,2.4354-.42,4.8709-.6444,7.4725,34.1749,3.5412,68.7546,2.8987,102.4412,10.8936,17.8574,5.2072,48.6178,8.98,58.3459,26.1853,2.669,5.3426,7.81,6.0988,12.8221,7.2973,19.285,5.1342,67.4486,13.6256,63.8212,40.1178-33.004,35.8828-107.1973,37.9274-153.5757,44.9684C297.9874,459.4608,62.967,465.8827.4861,407.7121Z"/><path class="g" d="M.4861,407.7121c1.3335.5138,3.1051.647,3.9327,1.6,8.412,9.6864,19.8685,14.5742,31.4759,18.0892,66.444,20.6429,136.5306,25.1306,205.7069,27.251a963.5593,963.5593,0,0,0,169.5059-7.91c43.6157-6.6526,92.6353-9.8024,126.8788-40.0273.0141,8.9127-.69,17.9009.24,26.7167.9774,9.2666-4.4744,13.8817-10.6976,18.3638-6.4716,3.8038-12.8324,6.6978-14.3259,14.8782-1.42-.7163-1.0493-2.8163-3.2473-3.6376-12.4407,3.37-25.5706,9.5642-38.8934,10.6-19.3995,3.0789-38.4972,7.5981-57.6509,11.2213-8.4679.7517-19.6738-3.0472-26.1093,3.7708-1.2306-.6514-2.4959-1.9277-3.6866-1.8616-25.047,1.3909-50.0677,3.5724-75.13,4.2711-72.2907,2.159-144.6465-1.4246-216.0616-13.1445C62.0952,472.5865,29.8914,466.96,5.49,447.0526-4.12,438.2858,2.1769,419.7057.4861,407.7121Z"/><path class="h" d="M470.3026,835.8781c.0954.3559.36.7-.0174.9733.2288,1.787-.3368,3.6384-.262,5.4766-1.8283,1.9486-2.1209,4.4159-2.4007,6.9146-1.6374,14.6225-2.8555,29.2674-5.5,43.8033-1.7007,20.4629-3.5717,41.2119-6.27,61.635-.63,3.9.3289,7.9963-1.4821,11.7455-7.3344,2.7551-16.2207.8865-24.0911,1.86,9.188-119.284,20.016-238.4379,29.7855-357.6761,2.46,1.665-.1079,6.22,3.691,6.8693,9.5863.98,24.1744-8.7,32.2616-5.9716C488.335,686.3223,479.7571,761.4563,470.3026,835.8781Z"/><path class="i" d="M301.2012,314.7474q-2.6715,7.4292-5.3431,14.8584c-.4825,10.867-7.1344,21.9-9.8932,32.6344-2.1271,5.885-3.92,6.687-9.7222,4.2359-5.8864-4.03-24.5988-3.7763-20.1028-14.0035,3.0646-6.7219,3.7765-15.3728,8.998-20.7493,1.5618-4.7621,3.24-9.4878,4.7281-14.2735,18.8032-51.2507,37.575-103.693,55.5359-155.6448.2109-2.0641,1.3631-2.56,3.0985-1.701,4.9508,3.8307,22.0079,5.3462,22.6719,10.7812-12.4022,35.2624-24.8784,70.4971-36.9132,105.8855q.42.6009-.2647.8634l.0312-.0008c-1.1664,4.3056-.847,9.1106-4.2548,12.6632l-.0352.1629C307.2353,298.316,305.2431,307.1418,301.2012,314.7474Z"/><path class="h" d="M379.0834,910.174c7.0809-47.9678,7.0953-96.7268,12.8892-144.879,1.9816-24.2871,2.8534-48.5843,6.0948-72.7585,2.6311-24.7766,2.1407-49.4451,4.9309-74.2562,1.6862,10.3844,8.69,5.9648,15.3888,7.1715a12.21,12.21,0,0,1,.6818,8.0443,8.5667,8.5667,0,0,0-2.2789,6.4278,582.51,582.51,0,0,1-3.8907,58.4773c-9.3966,91.7528-13.8694,183.9211-21.7905,275.7757-2.5988-8.5791-9.5452-4.0742-14.5342-7.2409-2.3384-13.6592,4.0051-27.2716,1.3189-41.1182C378.6379,920.5663,378.742,915.38,379.0834,910.174Z"/><path class="i" d="M532.863,57.028l-.48.0757c-.9311-1.0345-2.3846-.2849-3.3668-1.151l.0273.0154c-6.3932-1.6449-6.5072-1.8549-4.4933-8.4532,1.5454-5.0633,2.73-10.2384,4.5121-15.223.6528-1.8257.9438-4.6111,4.22-3.4291,11.5941,3.32,23.21,6.5652,34.778,9.9755,31.08,9.3752,62.3961,18.048,93.31,27.9338,8.3168,2.7671,8.3612,2.7757,5.9487,10.9658-1.68,5.703-3.4979,11.3652-5.4749,17.7592-39.7427-11.7712-79.5575-22.65-118.8169-35.556l.0047.0027c-.7557-.9345-2.1585-.0679-2.9-1.042-.97-.7936-2.2871-.1683-3.2726-.8746l-.4793.076C535.3982,57.0833,533.9443,57.7474,532.863,57.028Z"/><path class="c" d="M508.8044,501.585q-4.14,36.033-8.2794,72.066c-9.848-2.28-19.4012,1.5615-29.15,1.4191-1.7586-.0258-3.0219,1.1107-4.2458,2.2722-1.1755,1.1155-2.3653,2.4839-4.2483,1.178,1.2558-17.37,3.6227-34.64,4.54-51.9871,1.2907-6.5557-.376-16.1972,8.1573-17.8833a182.242,182.242,0,0,0,26.614-10.9888C506.7611,495.4349,508.1375,496.3967,508.8044,501.585Z"/><path class="d" d="M430.2787,968.2865l23.8692-2.1314c2.5608.2493,1.5918,2.4556,1.27,3.3053-2.7671,20.1521-4.5856,40.5255-7.2663,60.7587-4.3012,6.368-12.6443,4.8141-19.2564,4.9729-1.7053.0178-3.756-.404-3.7907-2.9516C426.9508,1010.9493,428.0319,989.376,430.2787,968.2865Z"/><path class="d" d="M462.8812,578.52c7.4776-7.5543,17.6294-4.3618,26.4116-6.6549,4.1891-1.0937,7.93-1.6456,11.2328,1.7843q-2.255,18.9306-4.5088,37.8584C447.794,622.8578,460.8143,627.1881,462.8812,578.52Z"/><path class="b" d="M508.8044,501.585c-.929-4.1279-2.907-4.4127-6.6437-2.6595-8.02,3.7631-16.2185,7.1994-24.5244,10.2835-13.1273,3.0148-8.6645,22.3178-11.5726,33.3621,1.732-22.9739,3.5456-45.9416,4.9983-68.9353l41.5364-12.4843C513.7912,474.6615,509.8178,488.0936,508.8044,501.585Z"/><path class="b" d="M385.8732,1038.29q-3.71,47.959-7.6316,95.9012c-.7591,9.437-1.3745,18.8887-2.3579,28.302-2.3514,7.1733-12.0965,5.0735-18.4652,7.4537,4.5253-47.6167,6.06-95.0532,12.7247-142.1449,1.4739,17.0439-2.0812,34.8789-2.9719,52.1593-1.3731,6.7.7249,16.2951,9.6149,12.2721C382.4106,1092.1911,380.2983,1038.36,385.8732,1038.29Z"/><path class="c" d="M425.1045,1032.24c5.9768,3.4224,17.5556,1.6974,23.0477-2.0212-1.6213,15.3314-2.7282,30.7253-5.1245,45.962-1.1269,6.8964-1.7248,15.7189-10.7285,15.3436-10.7874,1.0178-12.8224-1.207-11.22-12.273Q423.0919,1055.7462,425.1045,1032.24Z"/><path class="b" d="M421.0793,1079.2518c-.0888,11.1744.6422,11.8616,11.5814,10.8888,7.5908-.0593,9.139-7.0707,10.3669-13.9593-1.2611,15.4505-4.1854,30.9959-4.4858,46.4416,3.5711,16.2687-12.347,22.384-23.4347,30.9931C415.6808,1128.36,418.0982,1104.0782,421.0793,1079.2518Z"/><path class="d" d="M369.2569,1035.2786c1.4216-18.3564,1.6635-36.7905,3.86-55.1176,1.0811-4.37-.7554-9.8452,3.9985-13.0092,7.2922.2452,12.5176-2.53,13.9927,7.0253-1.6333,20.6615-2.9118,41.3539-5.1229,61.9648-3.9511,3.3646-8.7323,2.244-13.2479,2.3456C370.8259,1038.53,370.2871,1036.5051,369.2569,1035.2786Z"/><path class="c" d="M427.7019,529.6051l-4.72,56.2119c-.9559-5.11-4.1443-7.0412-9.2107-7.68-4.6812-.59-5.3352,3.7228-8.1592,5.2427q2.2128-25.1631,4.4255-50.3261c-.5716-2.5621,1.3336-4.6843,1.2759-7.1671-.016-.6845.4953-1.5362,1.043-1.5492,4.2526-.101,8.2908-2.6023,12.5531-1.5257C428.4406,523.7037,426.3158,527.5008,427.7019,529.6051Z"/><path class="c" d="M369.2569,1035.2786c10.2868,6.1851,13.5806-1.6139,16.7284.8637-1.5994,16.3261-3.6413,32.8257-5.5857,49.0391,1.3092,3.2715,1.4577,7.1917-1.7832,8.2683-2.6082.6246-12.7424,1.5812-13.2863-2.2135C365.3654,1072.477,368.6926,1054.0068,369.2569,1035.2786Z"/><path class="j" d="M351.1714,170.8866c-3.8109-2.3919-22.5784-11.4566-25.77-9.0817-8.21-12.129-3.7322-7.5725,4.7388-14.4581-1.6406-5.6372-8.2266-9.1325.6253-12.6634,9.7777-1.1718,52.007,12.82,28.77,20.1717-8.9282-.1914-17.3407-4.4583-26.168-6.1067,7.3842,6.1848,18.32,6.3478,25.2247,12.4942.8534,1.9258,2.2923,4.5767,1.5875,5.9547C358.5711,169.4932,354.2813,171.0862,351.1714,170.8866Z"/><path class="j" d="M387.2822,73.9729c5.6082,4.0464,5.6239,6.28.0677,9.605,3.3178,9.0236-1.3047,7.8752-8.3122,9.3185-6.714-2.6628-39.0046-9.178-28.992-20.2976,2.5833-5.104.3838-13.44,9.2585-11.5631,4.8837-.7383,8.5792,2.4132,12.5543,4.2155C377.2154,67.68,383.3054,69.0356,387.2822,73.9729Z"/><path class="d" d="M405.6122,583.38c1.2291-3.6272,2.6851-7.3777,7.4434-6.6068,9.4753,1.5348,10.7528,2.1223,9.927,9.0489q-1.5372,19.7868-3.0735,39.5841a1.0852,1.0852,0,0,1-1.7553.188c-4.6663.1963-15.1533,5.3426-14.9987-2.8714C403.065,609.6424,404.8736,596.4822,405.6122,583.38Z"/><path class="j" d="M424.0613,7.8574c.1018-9.9262,8.199-5.1251,14.2108-7.0021,5.16-2.17,9.2629-.1323,9.8463,5.23,2.8181,4.7548,3.5358,38.7263-6.54,34.6517-1.5409-.3361-3.1083-1.4883-4.308.5607-4.1278,3.6834-7.0138-3.5811-9.1627-5.7393C427.2065,28.2483,421.8847,13.9819,424.0613,7.8574Z"/><path class="b" d="M427.7019,529.6051c-.8-1.6455-1.6006-3.291-2.8286-5.8156l-12.2178,1.6949c-.7122,2.06-1.6655,4.8164-2.6184,7.5714,1.03-16.0672,2.6908-32.128,3.3738-48.1982,5.2507-3.8374,12.3312-2.7949,18.4648-4.1813Z"/><path class="j" d="M347.2076,97.9784c-3.0467-1.3395-5.8868-3.2675-4.4516-6.9548,5.2357-10.07,26.7089,3.8807,35.4112,4.6156,1.6275,3.627,6.7684,5.53,4.0749,9.9575-4.1,6.5042-20.2995-.9209-26.1728-2.9436C353.0031,101.4935,348.8855,101.8963,347.2076,97.9784Z"/><path class="j" d="M473.9586,10.597c2.5608-5.86,4.4216-6.6112,9.316-3.7617l-.1033-.1638c6.66,9.77-11.9788,59.6842-18.8771,29.8416C468.7853,28.3153,468.1921,18.0357,473.9586,10.597Z"/><path class="j" d="M373.049,113.8093c8.9181,1.8457,2.9842,13.2877-4.3113,9.4386-.2044,2.1735-26.7682-7.5524-26.8453-9.4558-7.7146-1.7933-5.6752-13.1085,2.38-10.5836,3.536-1.5364,6.2492.9224,9.3061,1.8462C358.7922,107.9156,370.5927,109.1291,373.049,113.8093Z"/><path class="j" d="M366.8134,127.9156c2.9058,1.3529,4.88,5.9382,4.2474,8.4763-.6371,1.4228-3.8247,1.7039-5.8875,2.4885-9.2913-.7921-22.703-3.7093-29.2255-10.0863-8.8221-2.5448-3.0664-13.2044,4.4491-9.5816,4.16-1.3018,7.4253,1.4837,10.8615,2.7642C356.4505,123.9115,362.1942,124.493,366.8134,127.9156Z"/><path class="j" d="M516.0414,19.827c-.2667,1.8479,1.1233,3.7118.33,5.4283-4.1054,7.9484-2.1969,18.7787-8.38,25.4529-2.87,9.36-13.2043,4.886-10.9466-3.8421-2.0549-3.2789,5.429-15.8238,5.5765-21.4983C503.298,19.8813,515.4424,8.3215,516.0414,19.827Z"/><path class="j" d="M490.0954,15.474c1.259-5.1641,6.6413-7.5944,9.9054-2.7956l-.0106-.1208c1.7931,7.98-4.4344,39.5128-14.7467,38.1689-9.537-3.7345-.8728-19.96.8192-26.6218C486.8041,21.0388,486.7223,17.3883,490.0954,15.474Z"/><path class="j" d="M455.087,6.3537c.1586-8.1074,13.75-6.4377,12.1505,1.4366,2.7047,8.4229-2.3692,16.4732-3.0811,24.8238a4.773,4.773,0,0,1-3.0856,4.2076c-2.04,7.081-9.4123,7.9508-8.1239-.6555C450.777,33.586,452.1475,7.8964,455.087,6.3537Z"/><path class="j" d="M365.9037,43.9c10.0221,1.2361,25.66,12.1521,30.5475,20.8719l-.0948-.1051c-.0727.607.4371.8819.73,1.28-.3653,1.0558.3447,3.2762-.9048,3.6356l-.3627.2568-.442-.0459c-1.0688,1.488-3.223.228-4.7225.1657l.1669-.0121a.7686.7686,0,0,1-.7481-.3541,13.4151,13.4151,0,0,1-9.9569-3.4266c-5.5693-4.6163-13.5826-5.7681-17.649-12.1876C358.6308,48.974,359.8315,45.8037,365.9037,43.9Z"/><path class="j" d="M387.3988,23.11c1.0577-6.0444,2.7962-8.37,9.2253-6.9847,8.384,6.1653,12.8484,17.43,17.3174,26.7265,2.9878,8.3617-4.15,11.1034-9.3962,4.7786C398.4756,39.9165,389.8874,32.8374,387.3988,23.11Z"/><path class="j" d="M533.2821,28.8628c-5.8662,6.4525-5.7558,16.3642-9.0376,24.5033l4.7988,2.6019c-2.9377-.7623-5.5356-1.368-7.5,2.2622-5.26,5.07-9.3831-1.7807-8.2959-7.3265,2.9017-3.3676,2.4908-7.7551,3.4914-11.6864,1.2145-4.7718,3.6517-9.2279,3.7394-14.2888C528.0024,16.267,530.6663,18.9782,533.2821,28.8628Z"/><path class="j" d="M373.9847,38.9726c-6.0758-5.0428,2.7178-15.4429,8.1916-9.1577,5.6844,2.0146,26.8562,22.6756,21.72,28.3564-9.8866,4.62-19.9426-11.3744-28.026-15.8007A5.5673,5.5673,0,0,1,373.9847,38.9726Z"/><path class="j" d="M405.0894,14.95c-4.3227-7.3021,9.293-13.503,11.1631-4.9063,5.7564,5.475,7.2486,18.3209,10.1415,26.01-.4863,2.8736-.5045,7.2852-3.8251,8.402-9.5348-.0484-11.4139-17.3-16.501-23.8234C405.0554,18.7914,405.5354,16.8184,405.0894,14.95Z"/><path class="k" d="M454.1355,980.3351c.4266-35.12,3.9037-70.3011,9.1034-105.02q1.6594-13.5177,2.7956-27.0971c.2455-2.9125.5915-5.3154,3.9887-5.89C465,888.3593,460.0788,934.4128,454.1355,980.3351Z"/><path class="k" d="M352.5739,910.3813c-.7711-1.1619-2.2573-2.361-2.1991-3.48.537-18.588,4.1774-36.843,4.7967-55.4126.9121-23.727,2.38-47.3829,6.1137-70.8571.1113-.8351,1.3363-1.521,2.0439-2.2763C360.0459,822.3661,357.2206,866.5284,352.5739,910.3813Z"/><path class="i" d="M520.4783,24.9285c2.4041,7.0155-2.2513,14.4324-3.6019,21.4064-.5478,1.732-2.3837,3.0572-3.6289,4.5688q-2.6281-.0975-5.2563-.1952c2.1373-9.7878,4.1192-19.5886,8.1123-28.8245Z"/><path class="i" d="M335.9478,128.7941c9.6958,3.4626,19.7273,6.1541,29.2254,10.0863-3.1286,1.0443-3.79,3.1445-2.5894,6.0423L330.7667,134.684Q336.3406,134.3647,335.9478,128.7941Z"/><path class="i" d="M362.4675,53.9791c9.0828,5.4406,17.6257,11.9,27.6072,15.6144q-1.3959,2.19-2.7907,4.38c-9.3108-4.3523-18.484-9.0107-27.983-12.94C362.5168,59.6512,363.3215,57.187,362.4675,53.9791Z"/><path class="i" d="M490.0954,15.474q-4.5211,13.2144-9.0428,26.4287-3.0492.6142-6.0968,1.2258c3.1711-11.2919,8.18-22.7722,8.9724-34.4217C484.7431,12.0945,485.5969,15.4452,490.0954,15.474Z"/><path class="i" d="M373.049,113.8093c-9.53-3.7094-19.0235-7.5149-28.7784-10.601q1.469-2.6154,2.936-5.2306c9.2266,3.3288,18.3361,6.9994,27.8027,9.6015Q374.028,110.694,373.049,113.8093Z"/><path class="i" d="M492.0869,45.8632q4.0786-15.6585,8.1573-31.3186c.0527,4.1666,1.9635,5.88,6.1181,4.631q-4.6585,13.8476-9.3172,27.6911Q494.5656,46.3643,492.0869,45.8632Z"/><path class="i" d="M455.087,6.3537q-1.0695,14.9073-2.1395,29.8137-2.2662-.5825-4.5313-1.1631a.9434.9434,0,0,1-1.3371.0339,240.1757,240.1757,0,0,0,1.0392-28.9547Q451.6028,6.22,455.087,6.3537Z"/><path class="i" d="M366.8134,127.9156q-13.21-4.3515-26.418-8.703.7491-2.7108,1.496-5.421,13.4266,4.73,26.8489,9.4575Q367.7743,125.5812,366.8134,127.9156Z"/><path class="k" d="M416.2024,39.9144q3.1865,1.86,6.3788,3.7107c2.92-13.4882,6.6174-7.6212,14.393-1.6279-3.9048,3.2338-5.5774-2.7558-8.9908-3.7808-2.7858,4.0151-1.8691,11.358-8.3478,6.4082-.9708-.6414-2.724-1.4013-3.33-.9785-2.9147,3.8165.8146,10.3868-7.1449,7.2694-9.932-4.378,1.7142,11.425-8.8546,8.8182a27.2517,27.2517,0,0,0-5.09.0827q.6161,2.478,1.2335,4.9559c-9.0768-8.7943-.2645-8.0595,7.1617-7.3952-.3481-3.4275-4.6089-10.5955,1.5824-10.4664,2.1907,1.3383,4.653,2.2055,6.9544,3.348C413.3992,47.05,411.0837,39.4489,416.2024,39.9144Z"/><path class="k" d="M377.1154,967.1518q-1.9811,6.0564-3.962,12.1133,2.3712-26.7223,4.7418-53.4463C382.9939,934.2715,377.52,956.4473,377.1154,967.1518Z"/><path class="i" d="M405.1937,46.9108l-3.1369,4.1013q-9.9416-10.5994-19.8815-21.1984c3.3222-1.0048,6.2652-2.3055,5.2228-6.706Q396.2966,35.0114,405.1937,46.9108Z"/><path class="i" d="M378.1672,95.6392c-.4635,4.009-22.4982-6.9244-26.7908-7.5459q.41-3.0579.8191-6.1178c8.8472,3.7723,19.1178,5.0534,26.8423,10.9206Q378.6024,94.268,378.1672,95.6392Z"/><path class="i" d="M429.2111,35.8746q-2.0467.0873-4.0935.1757-4.4335-13.0068-8.8661-26.0111,3.906-1.0864,7.81-2.1815Q426.6361,21.8659,429.2111,35.8746Z"/><path class="i" d="M461.0708,36.8217c2.34-9.6289,5.4835-19.0984,6.1662-29.0326q3.3613,1.4054,6.7216,2.8082c-3.4331,8.4536-3.4976,19.0176-9.664,25.9162Q462.6823,36.6671,461.0708,36.8217Z"/><path class="i" d="M395.1941,56.9055q-1.0822,2.0532-2.1651,4.1068-12.3585-8.3514-24.7146-16.7037c3.88.3331,4.9131-2.354,5.6689-5.3366Q384.59,47.9394,395.1941,56.9055Z"/><path class="i" d="M416.2024,39.9144l-3.1505,3.0978c-4.233-8.1186-9.7537-15.68-12.9641-24.2608q2.5009-1.9,5.0017-3.8013Q410.6459,27.4319,416.2024,39.9144Z"/><path class="i" d="M356.0472,158.9274c-3.4726.6054-33.3855-8.127-22.3238-12.5839,7.8362,2.7268,15.6143,5.6189,23.4064,8.4711A10.42,10.42,0,0,0,356.0472,158.9274Z"/><path class="a" d="M226.6035,1115.1941c-33.7349-2.5019-82.9563-3.1484-94.7673-42.0472-3.0265-11.4895-4.6881-23.3844-6.2673-35.1895-.1582-8.747-3.3915-19.8361.9867-27.6676,13.0158,32.4531,8.0147,75.55,55.3382,80.8033,18.6018,2.1667,37.4183,2.7642,55.8658,6.1027,9.019.8823,8.513,15.3033.1842,16.9625C234.2821,1115.0114,230.3921,1114.8852,226.6035,1115.1941Z"/><path class="l" d="M265.1379,331.7233c-8.77,29.852-17.4588,22.9575,14.1886,34.4893,2.9783,1.0554,3.9648-1.0346,4.79-3.4976,3.9149-11.0262,7.1893-22.3358,11.7428-33.1086,2.5881,1.0414,5.1569,2.9309,7.7691,2.9929a425.2363,425.2363,0,0,1,69.31,6.8765c18.7609,2.9093,37.8624,5.3039,54.5148,15.1131,28.86,21.5821-62.3946,31.9957-74.0468,33.1822-57.2621,6.4566-115.1006,5.4714-172.3384-.1391-22.9427-.7328-44.44-9.4746-66.3684-15.4141-35.4184-23.2873,50.8991-32.7958,64.3277-35.22C207.5637,333.79,236.4508,333.3262,265.1379,331.7233Z"/><path class="g" d="M77.3846,369.7091c60.3558,39.0576,203.472,34.3154,275.6148,27.87,34.2033-4.2285,69.4588-6.991,101.0594-21.9028,11.8269-11.8546,9.3089-2.1029,11.5181,8.1855,6.9448,53.1139-247.8634,48.9664-286.214,41.811-22.0807-3.2688-118.2865-11.3689-105.7119-45.2912C75.8292,377.0371,72.0405,370.5842,77.3846,369.7091Z"/><path class="l" d="M77.3846,369.7091c-13.6047,30.6148,15.7036,36.09,38.5971,42.926,63.0412,17.2036,129.138,15.6335,193.96,15.8348,46.0726-4.1469,93.9153-6.3322,137.5279-23.0539,12.4914-5.3573,19.224-11.31,15.9146-27.3526-.0075-3.1845-.2845-5.5783-3.295-7.3526l2.3571-3.9891,1.7657.1185c1.5889,5.1057-1.341,12.2655,5.3089,14.2931,9.522,3.7115,25.4064,9.0188,24.4726,20.9791-1.1668,22.8941-105.9843,33.8485-126.7046,35.492-73.6687,6.871-257.2237,9.7491-317.6766-27.5181-6.7338-4.767-8.4613-14.1966,2.5268-21.0848,5.5173-5.3165,22.1436-5.1832,21.3386-13.8267a18.4947,18.4947,0,0,1,1.0058-5.8109A18.701,18.701,0,0,1,77.3846,369.7091Z"/><path class="l" d="M456.0993,373.7176q-1.02.98-2.04,1.9585Q455.0789,374.6966,456.0993,373.7176Z"/></svg>