<?xml version="1.0" encoding="utf-8"?>
<!-- Generator: Adobe Illustrator 24.1.2, SVG Export Plug-In . SVG Version: 6.00 Build 0)  -->
<svg version="1.1" id="drink_xA0_Image_1_" xmlns="http://www.w3.org/2000/svg" xmlns:xlink="http://www.w3.org/1999/xlink" x="0px"
	 y="0px" viewBox="0 0 668.8 1178" enable-background="new 0 0 668.8 1178" xml:space="preserve">
<g>
	<path fill="#8C1506" d="M340.6,1057.1c-1,13.1-1.9,26.2-3,39.3c-1.5,19.4-3.1,38.8-4.7,58.2c-0.5,6.6-1.1,13.2-1.8,20.5
		c-13.4,0.8-26.4,2-39.5,2.4c-45.2,1.6-90.1-0.7-134.2-11.8c-14.8-3.7-29.2-8.6-42.4-16.7c-10.1-6.2-16.5-14.7-17.7-26.7
		c-3.1-31.6-6.2-63.3-9.4-94.9c-2.2-21.9-4.4-43.7-6.7-65.6c-2.7-26.1-5.4-52.2-8.3-78.3c-4.1-36.8-8.5-73.6-12.7-110.4
		c-3.2-27.9-6.2-55.8-9.4-83.8c-3-26.4-6.2-52.8-9.2-79.2c-4.3-37.8-8.5-75.6-12.7-113.5c-1.3-11.9-2.7-23.8-4.1-35.7
		c1.9-1.6,3.8-0.7,5.7,0c37.2,13.6,76.1,19.2,115.3,23.5c26.1,2.8,52.4,4,78.7,5.2c26,1.2,52,1.1,77.9,0.5
		c25.4-0.6,50.9-1.5,76.2-4.5c2-0.2,4-0.4,6,0.1c1.6,0.4,3.4,0.8,2.6,3.2c-1.3,14.7-2.7,29.4-4,44.1c-8-3.1-16.1-0.2-24.2-0.3
		c-4.1,0-8.3,0.7-12.4,0.6c-16-0.6-32,1.6-47.9,0.4c-18.8-1.4-37.6-0.9-56.3-2.2c-21.7-1.5-43.4-3.7-65.2-4.5
		c-13.8-0.5-27.6-1.8-41.3-0.5c-15.4,1.4-30.1,6-39.7,19.2c-6.5,9-11,19.4-13.5,30.4c-7.8,33.6-4,66.8,3.3,99.9
		c1.6,7.3,2.9,14.7,3.9,22.1c2.6,18.5,7.1,36.6,9.9,55c2.7,17.5,6.6,35,9.8,52.5c3.7,19.6,7.6,39.2,11.2,58.8
		c3.3,18.3,6.8,36.7,11.7,54.7c5.8,21.3,12.5,42.5,22.5,62.4c10.2,20.3,21.8,39.8,37.7,56c11.1,11.3,23,21.8,37.5,28.6
		c14.3,6.6,29.1,12.4,44.5,15.8c18,4,36.1,7.7,54.6,8.4c4.3,0.2,6.2-1.2,6.6-5.3c0.5-6.1,1.3-12.2,1.6-18.4
		C337.9,1063.3,337.2,1059.5,340.6,1057.1z"/>
	<path fill="#B31414" d="M340.6,1057.1c-0.9,7.9-1.7,15.7-2.6,23.6c-0.3,2.8-0.4,5.7-1.3,8.3c-0.4,1.3-2.6,3-3.8,2.9
		c-10.4-0.9-20.9-2.1-31.3-3.5c-7.7-1.1-15.3-2.5-22.9-4.3c-10.3-2.5-21-4.2-30.6-8.5c-13.8-6.2-28.1-11.5-39.8-22.2
		c-9-8.2-18.6-15.8-26-25.5c-6.1-8-12.3-16.1-17.5-24.7c-5.1-8.3-9.2-17.2-13.3-26.1c-4.2-9.2-8.1-18.5-11.5-28
		c-2.5-7-4.3-14.2-6.2-21.4c-3.6-13.7-7.3-27.4-10.6-41.2c-1.8-7.4-3-14.9-4.3-22.3c-1.8-9.9-3.6-19.8-5.4-29.7
		c-3.6-19.3-7.1-38.6-10.8-57.9c-3.2-16.8-6.7-33.6-9.7-50.5c-2.3-13-4-26.1-6.3-39.1c-1.2-6.6-3.5-13.1-4.6-19.7
		c-1.8-10.9-3.2-21.9-4.2-32.9c-0.8-8.2-0.8-16.6-1.1-24.9c-0.5-16,2.5-31.4,8.2-46.2c5.3-13.7,12.4-26.7,27.6-32.1
		c8.7-3.1,17.2-6.6,26.9-6.2c18.1,0.7,36.3,0.3,54.3,1.3c17.7,1,35.2,3.2,52.9,4.7c4.5,0.4,9-0.1,13.5,0.1
		c11.9,0.5,23.8,1.5,35.8,1.7c11.6,0.2,23.2-0.4,34.9-0.7c13.3-0.3,26.6-0.7,39.9-1c3.5-0.1,7-0.1,10.5,0.1c0.6,0,1.2,1.3,1.7,2
		c0,0,0-0.1,0-0.1c-2.4,2.9,0.6,6.4-1.2,9.4c0,0.8,0.1,1.7,0.1,2.5c-2.3,4.2,0.4,8.8-1.1,13.1c-0.6,8.3-1.2,16.7-1.9,25
		c-4.8-3.6-10.2-3.3-15.9-2.8c-9.8,0.7-19.6,0-29.4,0c-22.6-0.1-45.2,0-67.7,0.4c-18.1,0.3-36.3,0.9-54.3,3.1
		c-15.5,2-31.1,4.5-44.9,12.5c-7.7,4.5-13.9,10.8-18.5,18.5c-7.4,12.5-9.6,26.4-11,40.5c-1.8,18.3-1.6,36.5-0.4,54.8
		c0.6,8.7,2.9,17.5,0.9,26.3c-0.1,0.5,0,1,0.1,1.5c3.9,22.1,6.7,44.3,11.4,66.2c3.7,17.2,8.9,34.1,11.3,51.7c0.5,3.6,1.9,7.1,3,10.5
		c4.2,13.3,6,27.3,11.1,40.4c5.6,14.5,13.3,28,20.5,41.6c3.8,7.3,10.2,13.1,15.5,19.5c8.3,10.1,18.6,18.1,27.9,27.1
		c4.4,4.3,10.1,7.1,15.2,10.5c6.5,4.4,13.7,7.5,20.2,11.9c10,6.8,21.9,7.8,33.1,10.4c8.4,2,16.9,3.8,25.4,5.2c3.6,0.6,6.8,1,7.3-4
		c0.2-1.4,0.8-3.1,3-2C342.2,1037,341.4,1047.1,340.6,1057.1z"/>
	<path fill="#DA0E15" d="M342.9,1027c-0.6,0.8-1.7,1.5-1.8,2.4c-0.9,5.6-2,6.5-7.3,5.4c-6.5-1.3-12.9-2.8-19.4-4.1
		c-9.2-1.9-18.6-3.2-27.6-5.9c-6.3-1.9-12.1-5.5-18-8.5c-3.8-2-7.1-4.7-11-6.6c-13.7-6.8-24.8-17.2-35.7-27.5
		c-9.9-9.3-18.7-20-26.8-31c-5.2-7.1-7.9-15.9-12.3-23.7c-8-14.1-13.5-29.1-16.4-45.1c-1.4-7.9-4.6-15.5-6.7-23.4
		c-1.6-5.9-2.6-11.9-3.9-17.9c-1.9-8.4-4-16.7-5.6-25.1c-4-20.4-8.5-40.8-11.4-61.4c-0.8-6-2.8-11.9-2.7-17.8
		c0.1-5.8,0.3-11.5-0.4-17.4c-0.8-8.1-1-16.2-1.1-24.3c-0.2-8.9-0.5-17.9,0.1-26.7c0.9-12.5,2.1-24.8,5.1-37.1
		c3.5-14.1,11.1-24.7,21.6-33.5c7-5.9,15.9-8.5,24.8-10.7c15.5-3.9,31.2-5.9,47.1-6.2c27.9-0.5,55.9-0.5,83.7-2.4
		c9.1-0.6,18.1,2,27.3-0.3c5.1-1.3,10.8,0.5,16.3,0.6c2.6,0.1,5.3-0.4,7.9-0.8c4.5-0.6,8.1,0.5,10.2,4.9c-1.1,14-2.1,27.9-3.2,41.9
		c-1.1,1.7-1.5,3.9-3.5,5.1c-1.5,0.9-3.1,1.3-4.8,1.2c-23.4-1.8-47,0.3-70.4-1.1c-13.2-0.8-26.3-0.3-39.3,1.5
		c-26.2,3.5-41.6,16.2-45.8,42.4c-3.9,24.1-3.2,48.4-2,72.7c0.4,8.5,2.4,16.7,3.7,25.1c0.1,0.8,0.3,1.6,0.4,2.5
		c2.8,25.4,9.3,49.9,17.8,73.9c3.5,9.9,6.8,19.8,11.7,29.1c9,17.1,19,33.6,32.6,47.6c14.8,15.1,32.1,26.2,52,33.5
		c6.4,2.4,12.8,4.4,19.5,5.7c-1.3,18-2.6,36.1-4,54.1C343.8,1021.1,343.3,1024,342.9,1027z"/>
	<path fill="#E23425" d="M347.9,964c-3.5-0.1-7.4,0.6-10.6-0.6c-22.7-8.4-44.3-18.8-61.2-36.9c-10.3-11-19.7-22.7-26.5-36.4
		c-5.2-10.5-11.1-20.8-15.9-31.5c-3.3-7.4-5.5-15.2-7.5-23.1c-3.7-14-6.2-28.4-10.5-42.2c-3.2-10.5-2.3-21.3-4.7-31.7
		c-4.9-20.8-2.9-41.9-2.7-62.9c0.1-13.6,1.5-27.4,7-40.3c5.7-13.6,16.2-21.8,30-25.3c9.4-2.4,19.2-3.8,28.9-4
		c29.1-0.5,58.2-0.2,87.2-0.2c3.9,0,7.8,0,11.7,0.1c2.8,4.3,1.5,9.3,0.9,13.5c-0.8,5.9-1.1,11.9-1.9,17.8c-2.1,15.6-3.3,31.3-4.3,47
		c-0.8,11.4-1.6,22.8-2.3,34.3c-0.5,7.3-1.1,14.5-2.3,21.8c-0.8,4.5-1.4,9.2,0.3,13.8c-0.1,0.6-0.1,1.2-0.2,1.9
		c-2.1,9.3-2,18.8-3.3,28.1c-2.1,15.2-1.8,30.5-3.6,45.6c-2.1,18-3.2,36-4.7,54c-0.1,1.6,0,3,0.8,4.3c0,0.6-0.1,1.2-0.1,1.8
		c-2.2,3.5-2.1,7.6-2.3,11.5c-0.4,8-1.8,16-0.7,24c-0.1,0.8-0.1,1.6-0.2,2.4c0.3,0.4,0.3,0.8-0.1,1.2C348.7,956,348.3,960,347.9,964
		z"/>
	<path fill="#F2E6D5" d="M0,408c-0.1-12.8,6.5-20.7,18.1-25.3c7.4-2.9,14.5-7,22.1-9.5c9.6-3.3,19.6-5.6,29.4-8.3
		c3.7-1,6.3-2.3,7.6-6.7c1.8-6.2,7.4-9.3,13-11.4c22.6-8.3,45.8-14.3,69.8-16.9c18.6-2,37.2-3.6,55.8-5c11.7-0.8,23.6-0.7,35.3-1.1
		c4.3-0.2,8.7-0.3,12.8-1.1c1.9-0.4,3.5-2.5,5.3-3.8c1.4,5.5-1,9.8-4.5,13.7c-6.4,1.5-12.9,0.8-19.4,1.4c-8.1,0.8-16.3,1.1-24.4,1.3
		c-30.6,0.8-60.7,5-90.4,12.4c-6.4,1.6-12.9,3.6-18.4,7.5c-5.6,3.9-6,8.4-0.9,13.1c4.3,4,9.9,5.6,15.2,7.2
		c8.4,2.6,17.2,4.1,25.6,6.4c13.9,4,28.4,2.8,42.3,5.9c7.8,1.8,16.2,0.8,24.4,1.4c27.6,2.1,55.3,1,82.9,1c19.3,0,38.5-2.4,57.7-4.5
		c12.2-1.4,24.4-3.2,36.5-5.7c9.1-1.9,17.9-5.1,26.6-8.5c1.9-0.7,3.5-1.9,5.1-3.2c5-4.2,4.9-8.5-0.4-12.2
		c-7.3-5.2-15.9-7.7-24.4-9.9c-15.4-3.9-31.2-5-46.8-8.1c-11-2.2-22.2-1.4-33.2-3.5c-6.4-1.2-13.3,0.1-19.9-0.4
		c-3.1-0.2-6-0.6-7.5-3.9c-0.3-6,0.9-11.4,5.6-15.6c-0.2,2.4-0.4,4.9-0.6,7.5c3.8,0.5,7.6,1.3,11.3,1.5c14.4,0.8,28.9,0.8,43.2,2.2
		c16.1,1.7,32.2,3.9,48,7.2c12.7,2.6,25.2,6.5,37.4,10.9c8.2,3,16.7,6.7,21,15.3c2.7,5.3,7.8,6.1,12.8,7.3c8,1.9,16.1,3.6,23.9,6.1
		c10.4,3.3,20.3,7.4,29.5,13.5c7.7,5.2,11.9,11.1,10.4,20.5c-5.9,7.4-13.2,12.9-21.9,17c-22.3,10.5-46,15.3-70,19.7
		c-20.5,3.7-41.2,6.1-61.9,8.4c-16.9,1.8-33.8,2.9-50.8,3.5c-26,0.9-51.9,2.1-77.9,1.7c-26.8-0.4-53.6-1.1-80.3-3.5
		c-12.9-1.1-25.9-1.9-38.8-3.5c-27.9-3.4-55.7-7.6-82.9-15.1c-10.9-3-21.6-6.7-31.9-11.5C13.4,419.8,6.4,414.5,0,408z"/>
	<path fill="#D4CABB" d="M0,408c1.3,0.5,3.1,0.6,3.9,1.6c8.4,9.7,19.9,14.6,31.5,18.1c18.5,5.6,37.3,10.1,56.2,14.1
		c11.9,2.6,24.1,3.8,36.3,5.1c20.4,2.2,40.7,4.4,61.2,5.9c17.4,1.3,34.8,1.5,52.2,2.1c8.6,0.3,17.2,1,25.9,0.9
		c16.8-0.1,33.6-0.5,50.3-1c13.7-0.4,27.5-0.9,41.2-2.1c17.4-1.5,34.9-3.4,52.2-5.8c19.8-2.7,39.6-5.4,59.2-9.4
		c12.7-2.6,25.1-7.3,37.4-11.6c10.7-3.8,20.5-9.4,28.2-18.2c0.5-0.5,1.5-0.6,2.2-0.9c0,8.9-0.7,17.9,0.2,26.7
		c1,9.3-4.5,13.9-10.7,18.4c-3.4,2.5-7.6,4-10.6,6.8c-2,1.9-2.6,5.3-3.8,8.1c-1.4-0.7-1.1-2.8-3.2-3.6c-9.3,2.7-18.9,6.5-28.8,8.8
		c-3.4,0.8-6.6,2.1-10.2,1.8c-11,2-21.9,4-32.9,6c-2.1,0.4-4.2,0.7-6.3,1.1c-5.8,3.1-12.4,2.6-18.5,4.2c-4.6-0.1-9.3-0.3-13.9-0.2
		c-3,0.1-6,0.4-8.8,1.1c-1.3,0.3-2.2,1.9-3.4,2.9c-1.2-0.7-2.5-1.9-3.7-1.9c-25.1,1.4-50.1,3.6-75.2,4.3c-26.5,0.7-53,0.5-79.4-0.1
		c-20.9-0.5-41.9-1.5-62.7-3.5c-24.8-2.4-49.4-6.1-74.1-9.5c-19.7-2.8-39-7.7-57.9-14.3c-3.1-1.1-6.2-2-9.4-3
		c-6.6-4.5-13.3-8.9-19.8-13.6c-3.9-2.8-5.1-7.2-5.1-11.9C0,426.3,0,417.2,0,408z"/>
	<path fill="#DF3829" d="M470.2,836.5c0.1,0.2,0.2,0.4,0.2,0.7c0,0.1-0.1,0.2-0.2,0.3c0.2,0.6,0.2,1.2-0.1,1.8
		c-0.1,1.2-0.1,2.5-0.2,3.7c-1.8,2-2.1,4.4-2.4,6.9c-1.6,14.6-2.9,29.3-5.5,43.8c-1.6,8.5-0.6,17.6-2.1,26.2
		c-2.1,11.8-2.3,23.7-4.2,35.5c-0.6,3.9,0.3,8-1.5,11.8c-1.2,1-2.7,1.3-4.2,1.3c-6.7-0.2-13.3,0.6-20,0.6c1-13.6,2-27.2,3.1-40.8
		c2.2-27,4.5-54,6.8-81c2.5-29.2,5.1-58.3,7.6-87.5c2.3-27.5,4.5-55,6.8-82.6c1.8-22,3.7-44.1,5.6-66.1c2.5,1.7-0.1,6.2,3.7,6.9
		c2.8,0.5,5.6-0.8,8.3-1.2c6.1-0.9,11.7-3.8,17.8-4.9c2.1-0.3,4.2-1.5,6.2,0.1c-1.5,14.4-2.8,28.8-4.4,43.2
		c-2.4,21.8-5,43.6-7.5,65.4c-2.8,24.4-5.7,48.9-8.5,73.3c-1.6,13.7-3.1,27.4-4.7,41.1C470.5,835.5,470.1,835.9,470.2,836.5z"/>
	<path fill="#E67E12" d="M301,315c-1.8,5-3.6,9.9-5.3,14.9c0.7,2,0.1,4-0.6,5.8c-3.4,8.8-6.1,17.9-9.3,26.8
		c-2.1,5.9-3.9,6.7-9.7,4.2c-5.4-2.3-11-3.8-16.4-5.9c-4.6-1.8-5.4-3.4-3.7-8.1c2.1-5.8,4-11.6,6.3-17.3c0.6-1.4,1.3-2.7,2.7-3.5
		c1.4-4.3,2.9-8.6,4.3-12.9c0.1-0.5,0.3-0.9,0.4-1.4c-0.5-1.3,0.8-1.8,1.2-2.7c7.2-20.2,14.4-40.4,21.6-60.5
		c6.1-17,12.3-34,18.3-51.1c4.9-13.8,9.6-27.6,14.4-41.4c0.2-2.1,1.4-2.6,3.1-1.7c6.3,3.1,13,5,19.6,7.3c1.6,0.6,3.1,1.4,3.1,3.5
		c-7.8,22.3-15.7,44.6-23.5,67c-4.5,13-8.9,26-13.4,39c0.3,0.4,0.2,0.7-0.3,0.9l0,0c-1.2,4.3-0.8,9.1-4.3,12.7l0,0.2
		c0.3,0.7-0.2,0.9-0.5,1.3c-0.1,0.5-0.2,1-0.3,1.4C306.5,300.8,304.6,308.2,301,315L301,315z"/>
	<path fill="#DF3829" d="M399.8,656.9c1-12.7,2.1-25.4,3.1-38.2c1.3,7.6,6.4,8.1,12.5,6.8c0.9-0.2,2-0.1,2.9,0.4
		c0.7,2.3,1.8,4.6,0.7,7.1c0,0.3,0,0.7-0.1,1c-1.7,1.8-2.4,4.1-2.3,6.4c0.3,8-0.5,16-1.1,23.8c-1,11.5-0.6,23.2-2.8,34.7
		c-2.9,15.2-3.5,30.7-4.2,46.1c-0.9,19.4-3,38.7-4.5,58c-1.2,14.9-2.4,29.8-3.6,44.6c-1.2,14.9-2.3,29.8-3.8,44.6
		c-0.2,2.4,0.8,4.6,0.5,6.9c-2.1,25.2-4.1,50.5-6.2,75.7c-1.5-4.9-5.3-6.1-9.9-6.1c-1.6,0-3.4,0.4-4.6-1.1
		c-1.2-4.2-0.7-8.5-0.1-12.7c1.3-9.4,2.7-18.9,1.4-28.5c0.1-1.9,0.3-3.7,0.4-5.6c1.5-3.3-0.3-6.8,0.7-10.1c0-0.6,0.1-1.3,0.1-1.9
		c2.1-8.7,2.5-17.7,3.3-26.6c1.1-12.2,1.7-24.5,3-36.7c1.6-15.3,1.8-30.8,3.1-46.1c1-11.2,2-22.5,3.3-33.6
		c1.5-12.9,1.3-25.9,2.7-38.7c1.2-11.4,1.9-22.7,3.4-34.1c1.4-10.7,1.3-21.5,2.6-32.3C400.6,659.4,400.1,658.2,399.8,656.9z"/>
	<path fill="#E67E12" d="M533.3,28.9c11.6,3.3,23.2,6.6,34.8,10c29.1,8.6,58.2,17.2,87.3,25.9c2.1,0.6,4.1,1.4,6.1,2.1
		c8.3,2.8,8.4,2.8,6,11c-1.7,5.7-3.5,11.4-5.5,17.8c-8.4-2.4-16.5-4.7-24.5-7.1c-28.6-8.5-57.2-17-85.9-25.5
		c-2.2-0.7-4.4-1.5-6.6-2.3c-0.6-0.3-1.4-0.2-1.9-0.8l0,0c-0.8-0.9-2.2-0.1-2.9-1l-0.1,0c-0.9-0.8-2.2-0.1-3.2-0.8l-0.5,0.1
		l-0.4-0.3c-0.9-0.7-2.2-0.1-3.1-0.8l-0.5,0.1l-0.4-0.3c-0.9-0.8-2.1,0-3-0.9l0,0c-6.4-1.6-6.5-1.9-4.5-8.5
		c1.5-5.1,2.7-10.2,4.5-15.2C529.7,30.5,530,27.7,533.3,28.9z"/>
	<path fill="#B31414" d="M508.8,502c-2.8,24-5.5,48.1-8.3,72.1c-9.9-2.2-19.4,1.6-29.2,1.4c-1.8,0-3,1.1-4.3,2.3
		c-1.2,1.1-2.4,2.5-4.3,1.2c1.1-12,2.1-24,3.2-36c1.5-5.2,0.7-10.7,1.4-16c0.4-3.8,1.1-7.5,1.4-11.3c0.3-3.5,3.3-5.5,6.3-6.4
		c9.5-3,18.6-7.1,27.6-11.4C506.8,495.8,508.1,496.9,508.8,502z"/>
	<path fill="#D81218" d="M430.2,969c8-0.7,15.9-1.4,23.9-2.1c2.6,0.3,1.6,2.5,1.3,3.3c-1.3,3.6-0.8,7.3-1.3,10.9
		c-2,16.6-4,33.3-6,49.9c-2.1,3.1-5.3,4.4-8.9,4.8c-3.5,0.4-6.9,0.1-10.4,0.2c-1.7,0-3.8-0.4-3.8-3c1.4-18.4,2.8-36.7,4.3-55.1
		c0.9-2.5-0.5-5.3,0.8-7.8C430.1,969.8,430.1,969.4,430.2,969z"/>
	<path fill="#D81218" d="M462.8,579c7.4-7.4,17.3-4.4,26-6.5c4.3-1,8.2-1.9,11.7,1.6c-1.5,12.6-3,25.3-4.5,37.9
		c-9.7,2.4-19.5,4.8-29.3,7c-6.5,1.4-6.5,1.2-6.6-5.4c0-0.8-0.1-1.7-0.2-2.5C460.9,600.4,461.9,589.7,462.8,579z"/>
	<path fill="#8C1A0C" d="M508.8,502c-0.9-4.1-2.9-4.4-6.7-2.7c-8.2,3.8-16.6,7.3-25,10.5c-6.9,2.6-8.8,5.8-9.2,16.1
		c-0.2,5.7-1.3,11.4-2,17.1c1.1-14.9,2.3-29.8,3.4-44.8c0.6-8.1,1.1-16.1,1.6-24.2c13.8-4.2,27.6-8.3,41.6-12.5
		c0.2,2,0.4,3.8,0.6,5.6C511.7,478.7,510.2,490.3,508.8,502z"/>
	<path fill="#8C1A0C" d="M385.7,1039.1c-1.3,16.9-2.6,33.8-4,50.7c-1.2,15.3-2.4,30.5-3.7,45.8c-0.7,9.3-1.4,18.6-2.4,27.8
		c-0.2,1.5-1.7,3.6-3,4c-4.9,1.4-10,2.3-15.5,3.4c1-13,1.9-25.3,3-37.7c2-23.4,4-46.7,5.9-70.1c0.8-9.4,1.4-18.9,2.3-28.4
		c0.2-2.1,1-4.1,1.6-6.1c1.7,2.6,0,5.4,0.4,8c-0.7,14.8-2,29.5-3.4,44.2c-0.2,2.2-0.4,4.3-0.2,6.5c0.4,5.7,4.4,8.1,9.9,5.8
		c2.3-1,2.4-2.9,2.5-4.9c1.2-14.7,2.7-29.4,4.2-44.1C383.6,1042.2,383.2,1039.9,385.7,1039.1z"/>
	<path fill="#B31414" d="M425,1033c4.2,2.7,15.8,2.3,20-0.5c0.9-0.6,2-1,3-1.5c-1.1,11.1-2.2,22.1-3.4,33.2
		c-0.5,4.3-1.2,8.5-1.8,12.8c-0.8,2.9-1,5.8-1.6,8.7c-0.8,3.8-3,5.3-6.2,6.2c-0.8,0.2-1.6,0.3-2.5,0.4c-11.1,1.3-13.3-1-11.7-12.2
		C422.3,1064.4,423.6,1048.7,425,1033z"/>
	<path fill="#8C1A0C" d="M421,1080.1c0,11.3,2.9,13.3,14,10.5c5.7-1.4,5.6-6,7-10c0.4-1.2,0.6-2.4,0.9-3.6
		c-1.5,13.7-3,27.4-4.4,41.1c-0.2,1.8-0.5,3.7-0.1,5.4c1.6,7.1-0.6,13.1-5.6,17.7c-5.2,4.8-11.3,8.5-17.9,13.4c0-4.5-0.2-7.5,0-10.5
		c1.7-20.7,3.5-41.4,5.3-62.1C420.4,1081.3,420.7,1080.7,421,1080.1z"/>
	<path fill="#D81218" d="M369.1,1036.1c0.3-2.5,0.6-5.1,0.9-7.6c0-5.5,0-11.1,0.1-16.6c0.1-3,0.6-5.9,0.9-8.9c1-7.3,1-14.8,1.9-22.1
		c-0.1-0.3-0.1-0.6,0-0.9c1.2-4.1-0.7-9.2,4-12.1c3.7,0,7.5-0.6,10.9,0.4c1.6,0.5,2.1,4.3,3.1,6.6c-1.1,14.7-2.2,29.5-3.4,44.2
		c-0.5,6-1.2,11.9-1.7,17.8c-4,3.3-8.7,2.2-13.2,2.3C370.7,1039.3,370.1,1037.3,369.1,1036.1z"/>
	<path fill="#B31414" d="M405.5,583.8c1.5-16.8,2.9-33.5,4.4-50.3c-0.6-2.6,1.3-4.7,1.3-7.2c0-0.7,0.5-1.5,1-1.6
		c4.3-0.1,8.3-2.6,12.6-1.5c3.5,0.9,1.4,4.7,2.8,6.8c-1.6,18.8-3.1,37.5-4.7,56.3c-1-5.1-4.1-7.1-9.2-7.7
		C409,578,408.3,582.3,405.5,583.8z"/>
	<path fill="#B31414" d="M369.1,1036.1c5.1,2.7,10.2,3.6,15.3-0.1c0.2-0.1,1,0.6,1.5,0.9c0,0.7-0.1,1.4-0.1,2.1
		c-0.9,7.8-1.8,15.6-2.7,23.4c-0.8,7-1.6,14.1-2.4,21.1c-0.1,1-0.6,2.1-0.3,2.9c1.3,3.2,1.1,7-1.9,7.8c-3.7,1-8.1,0.1-12.1-0.3
		c-0.5,0-1.2-1.9-1.2-2.8c0.8-14.9,1.8-29.8,2.7-44.7C368.2,1043,368.7,1039.5,369.1,1036.1z"/>
	<path fill="#DE5F17" d="M351,171c-1.5-0.9-3-2.1-4.6-2.7c-6.3-2.5-12.6-4.9-18.9-7.2c-0.6-0.2-1.5,0.5-2.3,0.8
		c-0.3-0.6-0.7-1.1-1-1.7c-1.3-2.3-3.6-4.6-3.5-6.7c0.1-1.4,3.8-2.5,5.9-3.8c1.2-0.7,3.2-1.4,3.3-2.3c0.1-1.2-1.3-2.5-1.9-3.8
		c-0.8-1.9-2.4-4-2-5.6c0.3-1.4,3-2.2,4.6-3.3c9.3-0.3,27.1,5.5,31.8,10.2c3.4,1.2,4.7,4.1,3.2,6.9c-0.9,1.7-4.1,2.2-6.3,3.1
		c-0.7,0.3-1.6,0-2.4,0c-8.1-1.3-15.7-4.4-23.8-6.1c6.9,4.9,15,7.1,22.7,10.2c0.9,0.8,2.1,1.4,2.5,2.3c0.9,1.9,2.3,4.6,1.6,6
		c-0.9,1.7-3.6,2.5-5.7,3.4C353.4,171.2,352.1,170.9,351,171z"/>
	<path fill="#DE5F17" d="M387.1,74c5.6,4,5.6,6.3,0.1,9.6c2.5,6.6,0.6,9.1-6.6,8.7c-0.6,0-1.2,0.4-1.8,0.6
		c-9.1-3.3-19.1-4.3-26.9-10.9c-5.3-3-5.6-4.9-2.2-9.4c1-1.3,1.4-3.4,1.4-5.2c0.2-5,2.8-7.3,7.8-6.4c4.9-0.7,8.6,2.4,12.6,4.2
		C377.1,67.7,383.2,69.1,387.1,74z"/>
	<path fill="#D81218" d="M405.5,583.8c1.2-3.7,2.7-7.4,7.5-6.6c9.7,1.5,10.8,2.4,9.9,9.1c-1,13.2-2.1,26.4-3.1,39.6
		c-0.5,0.7-1.1,0.7-1.8,0.2c-3.5,0.6-7.1,1.5-10.7,1.7c-2.5,0.1-4.9-1.1-4.4-4.5c0.2-1.5-0.1-3-0.1-4.5
		C403.7,607.1,404.6,595.5,405.5,583.8z"/>
	<path fill="#DE5F17" d="M446.1,40c-2.2,4.6-4.8,1.1-7.2,0.3c-4.3,4.3-6.5,3.5-8.9-3.3c-2.2-0.9-2.8-2.8-3-4.8
		c-0.8-6.2-2.1-12.4-3.6-18.5c-0.5-2-0.6-3.9,0.5-5.8c0.2-5.6,3.3-7.8,8.6-6.5c1.8,0.4,3.9,0.2,5.6-0.5c5.2-2.2,9.3-0.1,9.9,5.2
		c1.5,1.6,1.5,3.6,1.5,5.6c0.1,3.7-0.2,7.3,0.1,11C450.1,28.8,448.7,34.5,446.1,40z"/>
	<path fill="#8C1A0C" d="M427.6,530c-0.8-1.8-1.6-3.6-2.7-5.9c-3.7,0.5-7.8,1.2-12.4,1.8c-0.7,2.1-1.7,4.8-2.6,7.6
		c1.1-15.4,2.3-30.9,3.4-46.3c0-0.6,0-1.3,0-2c1.2-0.7,2.3-1.8,3.5-2c5-0.9,10-1.5,15-2.2C430.4,497.4,429,513.7,427.6,530z"/>
	<path fill="#D24C3E" d="M397.1,899.2c-0.4-3-1.3-6-1.1-8.9c0.5-10.1,1.2-20.1,2-30.2c1.2-15.2,2.6-30.3,3.8-45.4
		c0.8-9.1,1.5-18.1,2.1-27.2c0.5-6.9-0.3-14.1,1.3-20.8c3.3-13.8,0.8-27.9,2.8-41.7c1.5-10.9,3-21.9,4.4-32.8
		c0.2-1.6,0.5-3.3,0.6-4.9c0.7-16.1,1.2-32.3,2.2-48.4c0.1-1.7,2.5-3.3,3.8-4.9c-1.2,16.1-2.3,32.2-3.6,48.2
		c-2.4,30.2-4.8,60.3-7.3,90.4c-3.4,41.7-6.9,83.5-10.4,125.2C397.6,898.3,397.3,898.8,397.1,899.2z"/>
	<path fill="#D24C3E" d="M399.8,656.9c0.7,1.3,2.2,2.7,2.1,4c-0.3,6.7-0.8,13.4-1.4,20.1c-0.7,7.9-1.7,15.7-2.5,23.6
		c-0.9,9-1.8,18-2.7,27c-0.2,2.1-0.2,4.3-0.3,6.5c-0.8,11-1.6,22.1-2.6,33.1c-0.7,8.6-1.6,17.3-2.4,25.9c-1,11.3-2,22.6-2.8,33.9
		c-0.9,12-1.3,24-2.3,35.9c-1,12.7-2.4,25.3-3.8,37.9c-0.2,1.5-1.4,2.8-2.1,4.2c1.5-20.7,2.9-41.4,4.6-62.1
		c5-60.6,10-121.2,15.1-181.7C399,662.4,399.4,659.7,399.8,656.9z"/>
	<path fill="#D24C3E" d="M363.4,777.1c-0.8-1.4-2.3-2.8-2.2-4.1c0.5-7.9,1.3-15.8,2-23.7c0.6-6.6,1.3-13.2,1.8-19.7
		c1.3-16.3,2.5-32.5,3.9-48.8c0.9-11.3,2.1-22.5,3.1-33.8c0.5-5.9,0.7-11.9,1.1-17.9c1-1.4,1.9-2.7,2.9-4.1
		c-1.1,13.9-2.1,27.9-3.2,41.8c-2.3,28.7-4.6,57.4-7,86.1C365.1,760.9,364.2,769,363.4,777.1z"/>
	<path fill="#DE5F17" d="M347,98.1c-3-1.3-5.9-3.3-4.5-7c1.5-3.8,4.9-4.5,8.6-2.9c5.8-0.4,10.7,2.6,16,4.2c3.6,1.1,7,2.7,10.8,3.3
		c0.6,0.9,1,2.2,1.8,2.8c2.7,1.9,3.8,4.3,2.2,7.2c-1.5,2.9-4.3,3.3-7.2,2c-6.8,0.3-12.8-2.6-19-4.9C352.8,101.6,348.7,102,347,98.1z
		"/>
	<path fill="#DE5F17" d="M474.9,43.2c-1.9,1-4.3,3.3-5.7,2.8c-1.7-0.5-2.8-3.4-3.8-5.4c-0.6-1.2-0.7-2.7-1.1-4.1
		c2.4-5.5,4.2-11.2,5.5-17c0.7-3.3,1.9-6.3,4.2-8.9c2.6-5.9,4.4-6.6,9.3-3.8l-0.1-0.2c0.3,0.7,0.5,1.4,0.8,2c1,3.4,1.1,6.7,0.2,10.1
		c-1.3,4.8-2.5,9.6-3.6,14.5C479.5,37.1,477.2,40.1,474.9,43.2z"/>
	<path fill="#DE5F17" d="M387.3,23.1c0.8-2.2,0.9-5.2,2.5-6.5c1.5-1.2,4.5-0.9,6.8-0.5c1.3,0.2,2.3,1.7,3.5,2.6
		C405.6,27,411.7,35,413.9,45c-0.1,2-0.2,4.1-0.3,6.1c-1.9-0.4-3.8-0.8-5.6-1.1C399,42.6,391.3,34.3,387.3,23.1z"/>
	<path fill="#DE5F17" d="M335.8,128.9c-3.2-1-5.3-3.1-4.2-6.6c1.5-4.4,5-4,8.6-3c4.2-1.3,7.4,1.5,10.9,2.8
		c5.2,1.9,10.9,2.5,15.6,5.9c0.9,0.7,2.2,1.2,2.6,2.2c0.9,2,2.3,4.7,1.6,6.3c-0.6,1.4-3.8,1.7-5.9,2.5c-9.8-0.2-18.6-4.1-27.4-7.9
		C336.7,130.7,336.1,129.9,335.8,128.9z"/>
	<path fill="#DE5F17" d="M372.9,113.9c3.6,0.7,5.3,3,4.1,6.4c-1.4,4.2-4.8,4.2-8.4,3c-0.9,0.6-1.9,0.8-2.8,0.5
		c-7.3-3.2-15-5-22.3-8.2c-0.8-0.3-1.4-0.9-1.8-1.7c-3.3-1.3-5.9-3.2-4.7-7.3c1.1-3.6,3.8-4,7-3.3c3.5-1.5,6.3,0.9,9.3,1.8
		c5.1,1.5,9.7,4.2,15,5.2C370.4,110.8,372,111.9,372.9,113.9z"/>
	<path fill="#DE5F17" d="M506.3,19.2c1.8-1.5,3.3-3.9,5.3-4.3c2.7-0.5,4.4,1.7,4.3,4.7l0,0.3c0,0.7,0,1.4,0.1,2.1
		c0.6,1.1,0.7,2.3,0.3,3.4c-3.1,7-3.2,14.8-5.8,21.9c-0.5,1.4-1.3,2.7-2.6,3.5c-1.1,3.7-3.4,5.9-7.3,4.8c-4.6-1.2-3.7-5.3-3.7-8.7
		c-1.1-1.4-0.6-2.9,0-4.2c2.5-5.6,4.2-11.4,5.6-17.3C503.1,23,504.1,20.7,506.3,19.2z"/>
	<path fill="#DE5F17" d="M405,15c-1.9-4.2-0.2-7.1,3.7-8.5c3.4-1.2,6.5-0.7,7.5,3.6c2.9,1.6,3.5,4.7,4.4,7.4c1.6,5,3,10.1,5,14.9
		c0.8,2,1.2,4.1-0.1,6.1c0,1.9,0.7,4.3-0.1,5.6c-0.6,1-3.6,1.2-5.1,0.6c-1.7-0.7-2.8-2.6-4.2-4C412,32.3,406.4,24.5,405,15z"/>
	<path fill="#DE5F17" d="M492,45.9c-1.2,3.1-3.1,5.7-6.8,4.9c-4.8-1.1-3.7-5.4-4.2-8.8c-0.1-6.4,3.6-11.8,5-17.8
		c0.7-3.1,0.7-6.7,4-8.6c0.3-0.8,0.7-1.7,1-2.5c0.2-0.4,0.5-0.7,0.8-0.9c3-3.6,5.6-2.2,8.1,0.6l0-0.1c0.1,0.7,0.2,1.3,0.3,2
		C500.5,25.8,497.8,36.2,492,45.9z"/>
	<path fill="#DE5F17" d="M460.1,39.3c-1.4,1.2-2.8,3.4-4,3.3c-3.6-0.4-3.5-3.5-3.2-6.4c-0.7-1.7-1.4-3.4-1.3-5.2
		c0.6-6.9,1-13.8,1.4-20.7c0.1-1.6,1-2.8,2-3.9c0.4-4.1,3-5.7,6.8-5.2c3.6,0.5,6,2.5,5.4,6.6c1.9,4.3,0.2,8.5-0.4,12.7
		c-0.6,4.1-2.4,7.9-2.7,12.1c-0.1,1.9-1.2,3.4-3.1,4.2l-0.1,0.2C460.4,37.7,460.5,38.5,460.1,39.3z"/>
	<path fill="#DE5F17" d="M373.8,39c-3-3-2.7-6.3,0.1-9.1c2.4-2.4,5.4-3.2,8.1-0.1c5.3,1.5,8,6.3,11.6,9.8c4.3,4.1,8.3,8.6,10.5,14.4
		c0,1.7-0.1,3.5-0.1,5.2c-2.5-0.6-4.9-1.2-7.4-1.7c-2.2,0.5-3.8-0.7-5.3-2.1c-4.6-4.1-9.1-8.1-14.2-11.6
		C375.5,42.6,374.3,41,373.8,39z"/>
	<path fill="#DE5F17" d="M365.7,43.9c0.8,0.1,1.6,0.3,2.4,0.4c5.8,1.2,10.8,4.2,15.1,8.1c2.6,2.3,6.1,3.3,8.4,6.1
		c1.2,1.4,2.5,2.7,2.9,4.5c0.7,2.1,1.3,4.1,2,6.2c-0.1,0.3-0.3,0.5-0.6,0.5l-0.4,0.3l-0.4,0c-0.4,1-1.3,0.5-2,0.7
		c-0.9-0.2-1.8-0.3-2.7-0.5l0.2,0c-0.3,0-0.6-0.1-0.7-0.4c-3.8,0.3-7.1-1-10-3.4c-3.2-2.7-7.1-4-10.7-6.1c-2.7-1.6-5.3-3.3-7-6.1
		c-3.7-5-2.8-8,3.2-10L365.7,43.9z"/>
	<path fill="#DE5F17" d="M533.3,28.9c-0.9,1-2.3,1.9-2.6,3.1c-2.2,7.1-4.3,14.2-6.4,21.5c1.7,0.9,3.2,1.8,4.8,2.6
		c-2.9-0.8-5.5-1.4-7.5,2.3c-0.7,1.2-4,2.1-5.4,1.5c-1.4-0.6-2.2-3.1-2.9-5c-0.4-1.2,0-2.6,0-3.9c2.9-3.4,2.5-7.8,3.5-11.7
		c1.2-4.8,3.7-9.2,3.7-14.3c0.7-0.8,1.3-1.8,2.2-2.4c1.9-1.2,4.2-3.4,5.7-3c1.6,0.4,2.6,3.4,3.6,5.3
		C532.7,26.1,532.9,27.6,533.3,28.9z"/>
	<path fill="#D24C3E" d="M454.1,981.1c0-2.9,0-5.8,0-8.8c0-1.8,0-3.6,0-5.4c1-13.4,1.9-26.7,3-40.1c0.8-10,1.8-20,3-29.9
		c0.8-7,2.2-13.9,3.1-20.9c1.1-9,2-18.1,2.8-27.1c0.2-2.9,0.6-5.3,4-5.9c-1.4,12.6-2.7,25.1-4.1,37.6c-2.9,25.9-5.9,51.8-8.9,77.8
		C456.1,966,455,973.5,454.1,981.1z"/>
	<path fill="#D24C3E" d="M352.4,911.1c-0.8-1.2-2.3-2.4-2.2-3.5c0.4-8.2,1.1-16.5,1.8-24.7c0.4-4.4,1.4-8.8,1.8-13.2
		c0.5-5.8,0.8-11.7,1.2-17.6c0.7-12.7,1.1-25.5,2.1-38.2c0.9-10.9,2.6-21.8,4-32.7c0.1-0.8,1.3-1.5,2-2.3
		c-0.9,12.6-1.7,25.2-2.7,37.8c-2.4,30.2-4.9,60.3-7.4,90.5C353,908.5,352.6,909.8,352.4,911.1z"/>
	<path fill="#E67E12" d="M520.4,24.9c0.4,1.3,1.2,2.8,1,4c-1.3,5.9-2.8,11.7-4.6,17.4c-0.5,1.7-2.4,3.1-3.6,4.6
		c-1.8-0.1-3.5-0.1-5.3-0.2c1.4-5.9,2.6-11.9,4.1-17.8c1-3.8,2.6-7.4,4-11.1C517.5,22.9,519,23.9,520.4,24.9z"/>
	<path fill="#E67E12" d="M404.2,54c-7.4-8-14.8-16.1-22.1-24.1c3.3-1,6.3-2.3,5.2-6.7c6.9,8.9,13.8,17.9,20.7,26.8
		C403.6,48.4,403.1,50.4,404.2,54z"/>
	<path fill="#E67E12" d="M335.8,128.9c9,3,18.1,6,27.1,9.1c0.7,0.3,1.4,0.7,2.2,1c-3.1,1-3.8,3.1-2.6,6
		c-10.6-3.4-21.2-6.8-31.8-10.2C334.3,134.6,336,132.6,335.8,128.9z"/>
	<path fill="#E67E12" d="M362.3,54c6.4,4,12.7,8,19.1,11.8c2.7,1.6,5.6,2.6,8.5,3.8c-0.9,1.5-1.9,2.9-2.8,4.4
		c-6.8-3.2-13.6-6.5-20.4-9.7c-2.5-1.2-5.1-2.2-7.6-3.3C362.4,59.7,363.2,57.2,362.3,54z"/>
	<path fill="#E67E12" d="M455,6.4c-0.7,9.9-1.4,19.9-2.1,29.8c-5.2-4-4.8,2.1-6.8,3.8c0.7-11.3,1.3-22.6,2-33.9
		C450.3,6.2,452.7,6.3,455,6.4z"/>
	<path fill="#E67E12" d="M490,15.5c-3,8.8-6,17.6-9,26.4c-2,0.4-4.1,0.8-6.1,1.2c0.5-1.4,1.1-2.7,1.4-4.1c2.6-9,5.1-17.9,7.6-26.9
		c0.3-1.1,0-2.3-0.1-3.5C484.7,12.1,485.5,15.5,490,15.5z"/>
	<path fill="#E67E12" d="M425.4,38.6c-3.1-9.5-6.2-19-9.2-28.5c2.6-0.7,5.2-1.5,7.8-2.2c2,9.7,4,19.4,6,29
		C428.4,37.5,426.9,38,425.4,38.6z"/>
	<path fill="#E67E12" d="M372.9,113.9c-5.9-2.3-11.9-4.7-17.8-6.9c-3.6-1.3-7.3-2.5-11-3.7c1-1.7,2-3.5,2.9-5.2
		c6.3,2.3,12.6,4.7,18.9,6.9c2.9,1,5.9,1.8,8.9,2.7C374.2,109.7,373.5,111.8,372.9,113.9z"/>
	<path fill="#E67E12" d="M492,45.9c2.7-10.4,5.4-20.9,8.2-31.3c0.1,4.2,2,5.9,6.1,4.6c-3.1,9.2-6.2,18.5-9.3,27.7
		C495.3,46.6,493.7,46.2,492,45.9z"/>
	<path fill="#E67E12" d="M394.7,63c-8.8-6.2-17.7-12.4-26.5-18.7c3.9,0.3,4.9-2.4,5.7-5.3c7.6,6.2,15.2,12.3,22.9,18.5
		C396,59.3,395.4,61.2,394.7,63z"/>
	<path fill="#E67E12" d="M341.7,113.9c9,3.2,17.9,6.3,26.9,9.5c-0.6,1.6-1.3,3.1-1.9,4.7c-8.8-2.9-17.6-5.8-26.4-8.7
		C340.7,117.5,341.2,115.7,341.7,113.9z"/>
	<path fill="#D24C3E" d="M377,967.9c-1.3,4-2.6,8.1-4,12.1c1.6-17.8,3.2-35.7,4.8-53.5c4.7,7.6,0.8,15.6,1,23.4
		C378.8,955.9,377.6,961.9,377,967.9z"/>
	<path fill="#E67E12" d="M378,95.7c-0.4,0.5-0.9,1.6-1.1,1.5c-8.6-3-17.1-6-25.7-9.1c0.3-2,0.5-4.1,0.8-6.1
		c7.6,2.7,15.3,5.3,22.8,8.1c1.5,0.6,2.7,1.9,4,2.8C378.6,93.9,378.3,94.8,378,95.7z"/>
	<path fill="#E67E12" d="M405,15c3.3,7.3,6.7,14.7,10,22c0.5,1.2,0.7,2.5,1,3.8c-0.7,1.4-1.4,2.8-2.1,4.2
		c-4.6-8.7-9.3-17.5-13.9-26.2C401.6,17.5,403.3,16.2,405,15z"/>
	<path fill="#E67E12" d="M461,36.9c1.7-6.6,3.5-13.2,5-19.8c0.7-3,0.8-6.2,1.2-9.2c2.2,0.9,4.5,1.9,6.7,2.8
		c-2.3,7.5-4.4,15.1-6.8,22.6c-0.4,1.3-1.9,2.3-2.8,3.4C463.1,36.6,462.1,36.7,461,36.9z"/>
	<path fill="#E67E12" d="M355.9,159.1c-2-0.2-4.2-0.1-6.1-0.7c-4.9-1.6-9.6-3.5-14.4-5.4c-1.4-0.5-2.7-1.3-3.7-2.4
		c-0.5-0.5-0.7-2-0.4-2.7c0.3-0.7,1.7-1.5,2.2-1.3c7.8,2.7,15.6,5.6,23.4,8.5c0,0,0,0,0,0c-0.6,0.6-0.4,1.6-0.8,2.3
		C356,157.8,356,158.4,355.9,159.1z"/>
	<path fill="#D24C3E" d="M349.3,948.4c-2.3-2.8-2.2-5.7-1.7-9.2c1-6.8,0.8-13.7,1.6-20.6c0.2-2,2-3.8,3.1-5.8
		C351.3,924.7,350.3,936.6,349.3,948.4z"/>
	<path fill="#F2E6D5" d="M301,315c2.6-7.2,5.1-14.4,7.7-21.5C307.5,301.1,306.7,308.9,301,315z"/>
	<path fill="#D24C3E" d="M373,980.9c-0.6,7.4-1.3,14.7-1.9,22.1C371.7,995.7,372.3,988.3,373,980.9z"/>
	<path fill="#F2E6D5" d="M309.6,290.5c1.4-4.2,2.8-8.4,4.3-12.7c-0.3,3.4-0.4,6.8-1.1,10.1C312.5,289,310.7,289.7,309.6,290.5z"/>
	<path fill="#D24C3E" d="M378.9,910.9c-0.7,3.3,3.3,7-0.7,10.1C378.4,917.6,378.7,914.2,378.9,910.9z"/>
	<path fill="#8C1506" d="M381,558.1c1.1-4.3-3.1-9,1.1-13.1C381.7,549.3,381.4,553.7,381,558.1z"/>
	<path fill="#8C1506" d="M382,542.4c0.4-3.1,0.8-6.3,1.2-9.4C382.8,536.2,382.4,539.3,382,542.4z"/>
	<path fill="#D24C3E" d="M418,626.1c0.6-0.1,1.2-0.1,1.8-0.2c-0.3,2.4-0.5,4.7-0.8,7.1C418.7,630.7,418.4,628.4,418,626.1z"/>
	<path fill="#DF3829" d="M430.1,970.2c-0.3,2.6-0.6,5.2-0.8,7.8C429.5,975.4,429.8,972.8,430.1,970.2z"/>
	<path fill="#F2E6D5" d="M270.9,315c-0.4,0.9-0.8,1.8-1.2,2.7C270,316.8,270.4,315.9,270.9,315z"/>
	<path fill="#DE5F17" d="M536.8,58.1c1.1,0.3,2.1,0.6,3.2,0.8C539,58.6,537.9,58.4,536.8,58.1z"/>
	<path fill="#E67E12" d="M393.2,70.5c0.7-0.2,1.3-0.5,2-0.7C394.6,70.1,393.9,70.3,393.2,70.5z"/>
	<path fill="#DE5F17" d="M532.8,57.1c1,0.3,2.1,0.5,3.1,0.8C534.9,57.6,533.9,57.3,532.8,57.1z"/>
	<path fill="#DE5F17" d="M529,56c1,0.3,2,0.6,3,0.9C531,56.6,530,56.3,529,56z"/>
	<path fill="#DE5F17" d="M540.1,58.9c1,0.3,1.9,0.7,2.9,1C542,59.6,541.1,59.3,540.1,58.9z"/>
	<path fill="#E67E12" d="M491.9,12.1c-0.3,0.3-0.6,0.6-0.8,0.9C491.3,12.7,491.6,12.4,491.9,12.1z"/>
	<path fill="#DE5F17" d="M543,60c0.6,0.3,1.3,0.5,1.9,0.8C544.3,60.5,543.6,60.2,543,60z"/>
	<path fill="#DE5F17" d="M356.1,157.2c0.3-0.8,0.6-1.5,0.8-2.3C356.7,155.7,356.4,156.5,356.1,157.2z"/>
	<path fill="#E67E12" d="M460.1,39.3c0.3-0.8,0.5-1.5,0.8-2.3C460.7,37.8,460.4,38.5,460.1,39.3z"/>
	<path fill="#E67E12" d="M483.1,6.7c0,0,0.1,0.2,0.1,0.2C483.2,6.8,483.1,6.7,483.1,6.7z"/>
	<path fill="#E67E12" d="M390.7,70c0,0-0.2,0-0.2,0C390.5,70,390.7,70,390.7,70z"/>
	<path fill="#F2E6D5" d="M313.8,277.8c-0.1-0.4,0-0.6,0.3-0.9C314,277.3,313.9,277.6,313.8,277.8z"/>
	<path fill="#D24C3E" d="M470.2,836.5c0.2-0.5,0.4-1,0.6-1.5C470.6,835.5,470.4,836,470.2,836.5z"/>
	<path fill="#E67E12" d="M396,69.6c0.1-0.3,0.3-0.4,0.6-0.5C396.5,69.3,396.3,69.5,396,69.6z"/>
	<path fill="#D24C3E" d="M470.1,839.3c0-0.6,0-1.2,0.1-1.8C470.2,838.1,470.2,838.7,470.1,839.3z"/>
	<polygon fill="#E67E12" points="516,19.8 516,19.6 516.3,19.6 	"/>
	<polygon fill="#E67E12" points="499.9,12.6 499.9,12.7 500.2,12.6 	"/>
	<path fill="#F2E6D5" d="M309,292c0.2-0.4,0.4-0.9,0.5-1.3C309.4,291.1,309.2,291.6,309,292z"/>
	<path fill="#E67E12" d="M365.7,43.9c0,0-0.2,0-0.2,0s0.1-0.3,0.1-0.3L365.7,43.9z"/>
	<path fill="#D24C3E" d="M349,952c0-0.4,0-0.8,0.1-1.2c0.1,0.3,0.2,0.6,0.2,0.8C349.3,951.8,349.1,951.9,349,952z"/>
	<path fill="#FBF7F5" d="M226.3,1115.8c-22-0.6-43.6-2.7-64.5-10.7c-16.3-6.2-26.6-17.1-31.3-34c-5.1-18.5-5.8-37.4-6.4-56.3
		c0-1.2,1.4-2.5,2.1-3.7c0.9,1.1,2.4,2.1,2.7,3.4c3.1,13.2,5.3,26.7,9.2,39.6c5.1,16.6,13.9,30.9,32.3,35.5c9.3,2.3,19,3.3,28.5,4.4
		c12.5,1.5,25.1,2.3,37.6,3.9c5.8,0.7,7.7,3.6,7.4,8.7c-0.3,5-3.7,8.7-8.7,9.1C232.3,1116,229.3,1115.8,226.3,1115.8z"/>
	<path fill="#DDD3C8" d="M264.9,332c-2.6,7.5-5.1,15-7.9,22.3c-0.9,2.3-0.8,3.7,1.8,4.6c6.8,2.5,13.5,5.2,20.4,7.6
		c3,1.1,4-1,4.8-3.5c3.3-9.9,6.8-19.7,10.2-29.6c0.4-1.2,1-2.4,1.6-3.6c2.6,1,5.2,2.9,7.8,3c23.3,0.6,46.4,2.5,69.4,6.9
		c10.2,1.9,20.7,2.8,30.7,5.5c8.2,2.2,16.3,5.6,23.8,9.6c8,4.3,7.7,11.7-0.4,16c-5.6,3-11.8,5-17.9,7.1c-18.1,6.1-37,7.6-55.8,10.1
		c-40.4,5.5-81,4.1-121.5,3.7c-17-0.1-34-2.5-51-3.9c-6.3-0.5-12.8-0.5-18.9-2.1c-15.9-4-31.8-8.6-47.5-13.3
		c-2.5-0.7-4.7-3.2-6.4-5.3c-3.4-4-2.8-9.5,1.8-11.9c6.7-3.5,13.5-7.3,20.7-9c15.9-3.7,32-6.9,48.2-9c14.7-2,29.7-2.4,44.6-3.2
		C237.2,333.2,251,332.7,264.9,332z"/>
	<path fill="#D4CBBC" d="M456,374c1.3-1,2.7-2,4-3c1.9-1.1,3.7-0.7,3.7,1.4c0,4.1,1.6,7.8,1.8,11.8c0.5,11.2-5.6,18.5-17.5,22.8
		c-14.9,5.4-30.1,10.5-46,13.2c-24.5,4.1-49.2,5.9-73.8,8.6c-25.1,2.7-50.3,2.1-75.4,1.5c-24.6-0.5-49.2-1.3-73.7-4.2
		c-18.4-2.2-36.7-4.3-54.7-8.7c-12.4-3-24.8-6.3-36.5-11.8c-5.3-2.5-9.6-6.1-13.1-10.5c-3.3-4.2-4.5-9-1.7-13.9
		c1.2-2.1,0.8-4.2,1-6.3c0.1-2.2-0.1-4.5,3-4.8c5.7,3.2,11.3,6.5,17,9.6c10.6,5.8,22.3,8,34,10.3c12.3,2.5,24.7,4.6,37.1,6.5
		c7,1.1,14.1,1.9,21.2,2.5c14.9,1.1,29.7,2,44.6,3c1.2,0.1,2.3,0,3.5,0c19.2,0,38.3,0.5,57.5-0.1c20.4-0.7,40.7-2,61-3.9
		c17.1-1.6,34.2-3.9,51.1-6.9c16.9-2.9,33.6-7,49.1-15c0.3-0.1,0.7-0.1,1-0.1C454.7,375.3,455.3,374.7,456,374z"/>
	<path fill="#DDD3C8" d="M77,370c-0.3,0.4-0.9,0.7-1,1.1c-0.8,6.4-3.4,13.2-1.9,19c1.3,4.8,6.5,10,11.3,12.3
		c9.6,4.6,19.9,7.8,30.2,10.6c12.2,3.4,24.7,6,37.2,8.4c7.6,1.4,15.4,1.9,23.1,2.7c13.3,1.3,26.7,2.6,40,3.8
		c0.8,0.1,1.7,0.2,2.5,0.2c30.4,0.3,60.9,1.1,91.3,0.8c12.8-0.1,25.7-2.4,38.5-3.7c10.5-1.1,21.1-1.8,31.6-3.2
		c11.1-1.5,22.2-3.3,33-5.9c11.7-2.8,23.6-5.6,34.5-10.3c12.5-5.4,19.2-11.3,15.9-27.4c-0.3-1.4,0.1-3.1-0.4-4.4
		c-0.5-1.2-1.9-2-2.9-2.9c0.8-1.3,1.6-2.7,2.4-4c0.6,0,1.2,0.1,1.8,0.1c0.3,2.4,0.9,4.7,0.8,7.1c-0.1,3.6,0.7,5.9,4.5,7.2
		c4.5,1.5,8.7,3.9,13.2,5.6c6.4,2.4,12.1,9.7,11.3,15.4c-0.9,6.2-5.5,10.3-10.7,12.2c-12.9,4.7-26,8.8-39.3,12.2
		c-11.8,3-23.9,4.9-35.9,6.6c-13.6,1.9-27.2,3.4-40.9,4.6c-18,1.6-36,2.8-54,3.9c-5.8,0.4-11.7,0.1-17.5,0.1
		c-15.5,0-31,0.3-46.5-0.1c-20.8-0.4-41.5-1.1-62.2-2.1c-6.6-0.3-13-1.9-19.6-2.6c-4.4-0.4-8.9,0.1-13.3-0.4
		c-10-1.2-19.9-2.8-29.9-4.4c-10.8-1.7-21.6-3.2-32.2-5.6c-15-3.4-29.9-7.5-42.7-16.5c-6.7-4.8-8.5-14.2,2.5-21.1
		c5-3.1,10.7-5.3,16.3-7.2c3.6-1.2,5.3-2.8,5-6.7c-0.1-1.9,0.5-3.9,1-5.8C74.1,369.5,76,369.9,77,370z"/>
	<path fill="#DDD3C8" d="M456,374c-0.7,0.7-1.4,1.3-2,2C454.6,375.3,455.3,374.7,456,374z"/>
</g>
</svg>
