<svg xmlns="http://www.w3.org/2000/svg" viewBox="0 0 534.16 328.17"><defs><style>.a{fill:#df9339;}.b{fill:#e9a34c;}.c{fill:#f2bd6e;}.d{fill:#d3801f;}.e{fill:#f8dc99;}.f{fill:#f5cf87;}</style></defs><path class="a" d="M655,448.47c4.25,11.34,8.56,22.65,12.68,34,2.08,7.21-3.34,14-5.67,20.62-2.05,4.28-7,9-6.17,12.45,12.44,52.43-63.73,88-106.2,85.53,5-4.91,12.53-7.41,18.86-10.25,39.52-12,70.19-44.43,82.62-83.56,1.95-5.29-2.78-13.07,5.56-16-.58-1.46.82-3.76,1.46-4.87-2.71-6.93-4.12-14.6-10.7-19-8,9.09-3.85,21.64-6.66,32.44-12.83,52.18-68.72,75.58-117,84.87-19.91.59-32.1,16.65-48.51,12-7.08-2.21-15.77,1.27-23.71,1.15-13.05-.2-26.08-1.8-39.12-1.74a328,328,0,0,1-85.6-1.13,298,298,0,0,1-54.88-13.39c-8.91-3.16-16.76-4.78-25.86-3.55-13-1.11-5.53-15.48-27.74-16.88l.38.22c-.57,2.2-.66,5.92-1.81,6.29-2.46.77-6.37.87-8.11-.61-9.85-8.43-19.27-17.36-28.73-26.24-.85-.8-.9-2.46-1.32-3.72,14.06,3.42,23.53,19.06,38.93,18.94-.22-2.87.65-6.58-.83-8.45-6.68-8.52-14.58-16.12-21-24.81-15.69-20.36-29.36-41.78-36.75-66.62a4.94,4.94,0,0,0-2.54.17c-1,7.88-4,16.27-2.29,23.59,2.94,16.94,6.94,33.45,16.27,48.32-20.67-10.32-25-37.31-33.77-56.86q7.63-26.39,15.26-52.79c8.59-2,11.67-11.85,16.86-4.33,4.54-3.51,3.13-11.5,7-14.95,20.84-12.9,41.81-26.73,62.28-40.51-12.62.55-25,3.13-37.55,4.8a608.56,608.56,0,0,1,111-40.71c-4,2-8.41,3.35-11.38,6.88,1.13.51,2.43,1.66,3.37,1.42,8.28-2.95,18.75-3.65,25.84-8.2-4-1.77-8.66-.11-12.91-.33C336,316.29,356.83,316,377,313.79c24.19,1,48.13,6.5,72.38,9,20.05,14.21,46.2,14.23,69,22,7.41,2,14.38,7.23,22,.77C595.5,368.13,635.23,388.67,655,448.47ZM506,577.17l.05.83c29.66-2.41,57.27-11.15,83.33-25.4,39.29-18.09,44.86-62,37.2-100.05-1.23-17.27-12.15-29.82-23.79-41.72-7.2-9.44-13.4-19.8-21.55-28.3-5.71-6-14-9.47-21.12-14.08-4.21-2.72-8.08-6.48-12.69-8-9.07-2.92-18.93-3.55-27.79-6.91-82.21-29.47-179.22-31.62-258.78,6.5-20,10.13-39.16,21.76-58.45,33.15-5.24,3.09-11.58,6.74-13.92,11.76-4.05,8.64-5.32,18.58-7.83,27.95-4.49,13-9,25.78-3.95,39.86A194.67,194.67,0,0,0,233,549.16a315.5,315.5,0,0,0,42.69,21.15C345.11,600.68,432.16,580.63,506,577.17Z" transform="translate(-134.07 -313.79)"/><path class="b" d="M218.73,561.3c20.84.5,14.93,16,27.35,16.66,9.1-1.23,16.95.39,25.86,3.55a298,298,0,0,0,54.88,13.39,328,328,0,0,0,85.6,1.13c13-.06,26.07,1.54,39.12,1.74,7.94.12,16.63-3.36,23.71-1.15,16.36,4.7,28.65-11.38,48.51-12,48.29-9.28,104.14-32.69,117-84.87,2.8-10.8-1.38-23.34,6.65-32.44,6.58,4.44,8,12.11,10.7,19-.7,1.21-2,3.28-1.46,4.87-8.34,3-3.61,10.75-5.56,16-12.43,39.13-43.1,71.52-82.62,83.56-6.34,2.85-13.88,5.32-18.86,10.25,35.94,2.66,98.16-24.77,106.37-63.84a43.89,43.89,0,0,0-.17-21.69c-.84-3.42,4.12-8.17,6.17-12.45,2.3-4.81,4.07-9.88,6.24-14.76,0,23.68-9.11,46-14,68.93C643.63,565,636.25,577,625.4,584c-14.49,9.29-30,17.11-45.72,24.29-32.89,6.78-68.2,6.78-100.31,18.22-50.46-1.35-101.91,10.23-151.79.71-17.43-4.65-35.47-7.85-52.07-14.58s-31.83-17.26-47.83-25.77c-7.86-4.18-17.43-6.05-23.93-11.64-24.88-24.46-54.66-48.55-63.66-83.87-.62-2.89-3.29-5.34-5-8l1.68-12c8.76,19.54,13.11,46.55,33.77,56.86-9.32-14.87-13.33-31.38-16.26-48.32-1.68-7.32,1.28-15.71,2.28-23.59a4.94,4.94,0,0,1,2.54-.17c7.39,24.84,21.06,46.26,36.75,66.62,6.43,8.69,14.33,16.29,21,24.81,1.48,1.87.61,5.58.83,8.45-15.4.12-24.87-15.52-38.93-18.94.42,1.26.47,2.92,1.32,3.72,9.46,8.88,18.88,17.81,28.73,26.24,1.74,1.48,5.65,1.38,8.11.61,1.15-.37,1.24-4.09,1.81-6.29Zm113.86,51.93-1-.71-.23.36,1.24.36c.43,1.11.73,3.12,1.32,3.22,7.61,1.18,15.25,2.65,22.92,3,41.36,1.73,83.82,6.41,123.39-8.15-1.65-.64-3.33-1.88-4.95-1.81-17.69.68-35.37,1.87-53.06,2.34C392.33,612.59,362.45,612.58,332.59,613.23Z" transform="translate(-134.07 -313.79)"/><path class="c" d="M134.12,510.24c-.29-9,.64-17.94,1-26.91,1.72,2.66,4.39,5.11,5,8,9,35.32,38.81,59.42,63.66,83.87,6.5,5.59,16.07,7.46,23.93,11.64,16,8.51,31.14,19,47.83,25.77s34.64,9.93,52.07,14.57c49.88,9.53,101.33-2,151.79-.7C511.47,615,546.8,615,579.68,608.26c15.68-7.18,31.23-15,45.72-24.29,10.85-6.94,18.23-19,28.78-26.67-10.18,13.43-17.15,29.9-29.94,41-44.76,38.15-106.71,33-161.72,40-21.88,2.68-43.63,4.93-65.7,3-65.67,3.1-133.27-7.77-187.37-47.37C180,573.33,144.55,554,135.12,516.48" transform="translate(-134.07 -313.79)"/><path class="c" d="M135,515.29c-.28-1.27-.56-2.54-.85-3.81" transform="translate(-134.07 -313.79)"/><path class="b" d="M200.64,363.52c12.51-1.67,24.93-4.25,37.55-4.8-20.47,13.78-41.45,27.61-62.28,40.51-3.9,3.45-2.49,11.44-7,14.95-5.18-7.52-8.25,2.29-16.86,4.33C163.55,396.18,178.43,376.43,200.64,363.52Z" transform="translate(-134.07 -313.79)"/><path class="b" d="M540.42,345.52c-7.58,6.46-14.55,1.24-22-.77-22.84-7.76-49-7.78-69-22C480,328.68,511.45,334.12,540.42,345.52Z" transform="translate(-134.07 -313.79)"/><path class="d" d="M316.56,322.58c4.25.22,8.94-1.44,12.91.33-7.09,4.55-17.55,5.25-25.84,8.2-.94.24-2.24-.91-3.37-1.42C304.5,325.43,310.5,322.41,316.56,322.58Z" transform="translate(-134.07 -313.79)"/><path class="d" d="M506,577.17c-73.87,3.47-160.84,23.51-230.33-6.86A314.39,314.39,0,0,1,233,549.15a194.56,194.56,0,0,1-56.27-76.35c-5-14.08-.54-26.87,3.95-39.86,2.51-9.37,3.78-19.31,7.83-27.95,2.34-5,8.68-8.67,13.92-11.76,19.29-11.39,38.49-23,58.45-33.15,79.57-38.13,176.55-36,258.78-6.51,8.86,3.37,18.72,4,27.79,6.92,4.61,1.48,8.48,5.24,12.69,8,7.13,4.61,15.41,8.11,21.12,14.08,8.15,8.5,14.35,18.86,21.55,28.3,11.59,11.91,22.61,24.44,23.79,41.72,7.63,38.1,2.11,82-37.2,100.05-26.07,14.24-53.66,23-83.33,25.4Zm86.25-85.78a161.27,161.27,0,0,0-3.93-46.51c-1.29-9.17-2.64-18.09-11.61-23.48-8.51-5.11-14.63-12-17.25-22-19.06-25.46-53.84-35.23-83.26-43.52-14-3.36-29-2.39-43.22-5.23-45.09-11-89.82,3.07-133,15.2-12.87,3.93-24.2,12.78-36.43,19-13.52,6.86-26.71,14.07-34.32,28-5.19,9.46-11.34,18.81-14.1,29-1.7,6.28,1.37,14.35,3.71,21.13,4.43,12.84,7.55,27.13,15.54,37.47,35.4,37.49,87.73,56.11,139,48,37.21,4.21,74.86,2.57,111.68-3.57,57.81-5.28,36.48-12.64,80.26-29.25,17.12-1,22.09-9.32,27-24.19Z" transform="translate(-134.07 -313.79)"/><path class="a" d="M332.59,613.23c29.86-.65,59.74-.64,89.61-1.43,17.69-.47,35.37-1.66,53.06-2.34,1.62-.07,3.3,1.17,4.95,1.81-39.57,14.57-82,9.88-123.39,8.14-7.67-.3-15.31-1.77-22.92-2.95-.59-.1-.89-2.11-1.32-3.22Z" transform="translate(-134.07 -313.79)"/><path class="a" d="M592.27,491.38c-5,14.88-9.74,23.15-27,24.19-43.78,16.62-22.48,24-80.26,29.25-36.82,6.14-74.47,7.78-111.68,3.57-51.22,8.1-103.61-10.51-139-48C227.12,491,213,453,215.11,441.79c2.76-10.21,8.91-19.56,14.1-29,7.61-13.89,20.8-21.1,34.32-28,12.23-6.21,23.56-15.06,36.43-19,43.2-12.13,87.93-26.16,133-15.2,14.19,2.84,29.21,1.87,43.22,5.24,29.43,8.26,64.2,18.07,83.26,43.51,2.62,10,8.74,16.92,17.25,22,9,5.39,10.32,14.31,11.61,23.48a160.92,160.92,0,0,1,3.93,46.51M387,352.22c-60.9,16.86-117.39,17.81-153.75,77.54-3.68,5.15-8.7,12.7-7.32,17.49,4.4,15.3,11.48,29.83,17.64,44.62,7.84,6.43,18.06,10.36,26.66,16,11.27,9.75,23.94,16.59,38.55,19.68C343.11,543,381,537.3,417.54,538.18c14,.87,27.87-1.28,41.68-2.28,14.4.41,28.45-.17,41.88-6.17,4.89-1.3,12.15.91,16.65-1.6,15.67-10.17,31-20.93,46.51-31.28,10.76-7.16,16-18.89,12.31-31.85-2.13-10.73,1.24-27.51-6.72-35.81-9-6.86-15.25-14.29-17.25-25.57-4-11.24-23.44-16-33.05-22.61-26.94-18.56-59.5-20.7-91.13-21.18C414.33,357.92,400.42,354.74,387,352.22Z" transform="translate(-134.07 -313.79)"/><path class="b" d="M387,352.22c13.38,2.52,27.29,5.7,41.38,7.61,31.62.49,64.2,2.62,91.13,21.18,9.74,6.64,28.92,11.3,33.05,22.61,2,11.28,8.27,18.71,17.25,25.58,7.94,8.31,4.56,25.06,6.72,35.8,3.67,13-1.55,24.69-12.31,31.85C548.7,507.2,533.42,518,517.75,528.13c-4.51,2.51-11.76.3-16.65,1.59-13.43,6-27.48,6.59-41.88,6.18-13.81,1-27.7,3.15-41.68,2.28C381,537.3,343.1,543,308.82,527.51c-14.59-3.1-27.3-9.92-38.55-19.68-8.61-5.6-18.82-9.53-26.66-15.95-6.16-14.8-13.24-29.33-17.64-44.63-1.38-4.79,3.64-12.34,7.32-17.49C269.55,370.1,326.22,369,387,352.22Zm-44.59,25.64c-.23-.85-.47-1.69-.7-2.53-32.7,5.4-58.82,23.47-82.57,45.6-28,21.86,1,65.8,27.9,73.74,30.32,11.83,62,18.47,93.89,24.56,23.12,5.91,46.55,3.13,70,1.19,23.59,3.15,43.77-11.94,65.63-18.61,14.08-5.28,26.94-11.95,34.81-25.68,3.27-2.37,8.26-3,9.64-8.24-.27-12.21-5-24.14-15.24-32.17-11.31-8.59-21.36-18.89-31.65-28.77-7.46-7.16-13.69-15.74-25.28-16.88-8.42-1.26-3.08,4.06-3.24,9-29.16-11.83-61.62-11.1-92.51-16.61a44.1,44.1,0,0,1-10.4-3.05c-2.76-1.12-5.29-4.34-7.83-4.24C364,375.56,353.25,376.87,342.45,377.86Z" transform="translate(-134.07 -313.79)"/><path class="c" d="M342.45,377.86c10.8-1,21.59-2.3,32.42-2.72,2.54-.1,5.07,3.12,7.83,4.24a44.1,44.1,0,0,0,10.4,3.05c30.89,5.51,63.35,4.78,92.51,16.61.12-4.83-5.12-10.3,3.24-9,11.59,1.14,17.82,9.72,25.28,16.88,10.29,9.88,20.34,20.18,31.65,28.77,10.3,8,15,20,15.24,32.17-1.46,5.25-6.24,5.82-9.64,8.24-7.87,13.73-20.73,20.4-34.81,25.68-21.86,6.68-42.05,21.76-65.63,18.61-23.42,1.93-46.85,4.73-70-1.19-31.88-6.09-63.57-12.73-93.89-24.56-26.92-7.72-55.8-52.23-27.9-73.74,23.77-22.12,49.85-40.2,82.57-45.6C342,376.17,342.22,377,342.45,377.86Zm98.28,136.4c31.82-.26,59.84-13,87-27.75,30.22-15,11.83-50.54-13-55.36-18.53-1.93-30.81-21.72-46.91-27A466.63,466.63,0,0,0,392.64,392c-15.49-1.25-31.38,2.94-47.13,4.26-9.26.77-18.15,1-26.75,6.22a106.34,106.34,0,0,1-27.95,11.59c-45.36,9-41.7,51.15-5.31,69.84C332.94,509.55,388.42,510.5,440.73,514.26Z" transform="translate(-134.07 -313.79)"/><path class="e" d="M440.73,514.26c-52.31-3.76-107.8-4.71-155.23-30.31-36.24-18.61-40.22-60.75,5.31-69.84a106.34,106.34,0,0,0,27.95-11.59c8.6-5.2,17.49-5.45,26.75-6.22,15.75-1.32,31.64-5.51,47.13-4.26A465.55,465.55,0,0,1,467.8,404.2c16.09,5.23,28.39,25,46.91,26.95,24.76,4.81,43.33,40.32,13,55.36C500.56,501.23,472.56,514,440.73,514.26Zm-12.26-49.82c10.25-.62,21.33,3.63,31-.95,10.12,1.56,20.49.68,30.88,0,2.08,3.78,18.22,1.31,22.95,1.49,2-.19,3.76-3.54,5.63-5.44-12.28-11.44-30.83-8.19-45.5-15.11-32.71-5.11-65-13.32-97.9-17q-19.75,1-39.53,2c-12.77.66-25.59.89-38.27,2.32-3.59.41-6.79,4.34-10.17,6.66l1.05,7.06c14.8,9.65,33.37,7.9,50.31,10.06C368.53,460.35,398.55,462.74,428.47,464.44Z" transform="translate(-134.07 -313.79)"/><path class="c" d="M446.39,465.53c-35.89-2.28-71.93-4-107.47-10-16.94-2.15-35.51-.4-50.31-10l-1.05-7.06c3.38-2.32,6.58-6.25,10.17-6.66,12.68-1.43,25.5-1.66,38.27-2.32,16.51-.38,33.1-3,49.56-1.06,42.48,7.88,85.29,14.71,126.83,26,8.43,13-15.28,8.15-22,9.08-10.39.68-20.76,1.56-30.88,0C455.46,465.79,450.85,465.57,446.39,465.53Z" transform="translate(-134.07 -313.79)"/><path class="f" d="M490.35,463.49c6.75-.94,30.46,3.88,22-9.08l6.54,5.13c-1.87,1.9-3.6,5.25-5.63,5.44C508.53,464.8,492.51,467.29,490.35,463.49Z" transform="translate(-134.07 -313.79)"/></svg>