<?xml version="1.0" encoding="utf-8"?>
<!-- Generator: Adobe Illustrator 24.1.2, SVG Export Plug-In . SVG Version: 6.00 Build 0)  -->
<svg version="1.1" id="Layer_1" xmlns="http://www.w3.org/2000/svg" xmlns:xlink="http://www.w3.org/1999/xlink" x="0px" y="0px"
	 viewBox="0 0 511.1 516.4" style="enable-background:new 0 0 511.1 516.4;" xml:space="preserve">
<style type="text/css">
	.st0{fill:#EA5454;}
	.st1{fill:#FBDDDD;}
	.st2{fill:#D82727;}
	.st3{fill:#E04444;}
	.st4{fill:#EA4949;}
	.st5{fill:#EF6565;}
	.st6{fill:#5A2A10;}
</style>
<path class="st0" d="M477.5,97.9h-444l42.7,372.6h0.2c1.9,25.5,81.6,45.9,179.3,45.9c97.9,0,177.3-20.5,179.3-45.9l0,0L477.5,97.9z"
	/>
<path class="st1" d="M255.9,286.5c-60,0-127.8-4.4-177.3-36.6c-52.1-34-77.4-94.2-77.4-184h11.6c0,174,93,209,243,209
	c58,0,123.7-4.2,170.9-35.1c48.5-31.8,72.1-88.7,72.1-173.8h11.6c0,89.3-25.3,149.5-77.2,183.5C383.4,282,315.7,286.5,255.9,286.5z"
	/>
<path class="st2" d="M324.7,281.5c0,8.4-6.8,15.1-15.1,15.1c0,0,0,0,0,0H200.7c-8.4,0-15.1-6.8-15.2-15.1c0,0,0,0,0,0v-5
	c0-8.4,6.8-15.1,15.1-15.1c0,0,0,0,0,0h108.8c8.4,0,15.1,6.8,15.2,15.1c0,0,0,0,0,0V281.5z"/>
<path class="st3" d="M56,106.9c41.9,16.8,95.3,33.7,199.6,33.7c109.3,0,157.8-16.8,199.6-33.7c-46.8,12.7-118.8,20.8-199.6,20.8
	S102.7,119.6,56,106.9z"/>
<path class="st4" d="M511.1,53.9H0v18.2h0.2v0.5c0,30.5,114.3,55.1,255.4,55.1S510.9,103,510.9,72.6v-0.5l0,0V53.9H511.1z"/>
<path class="st5" d="M510.9,55.1C510.9,24.7,396.6,0,255.5,0S0.2,24.7,0.2,55.1s114.3,55.1,255.4,55.1S510.9,85.6,510.9,55.1z"/>
<path class="st2" d="M440.6,78.9c19.2-7,30.1-15,30.1-23.7c0-25.6-96.4-46.4-215.2-46.4S40.3,29.5,40.3,55.1
	c0,8.9,11.4,17.1,31.3,24.2l0.4,0.1l0.1-0.1l-0.2-0.1l0.6-0.2"/>
<path class="st6" d="M429.9,70.8c-20.2-15.9-47.9-8.2-67.7-7.6c-17.3-18.7-47.2-22.7-70.4-13.3c-15-5.8-31.1-9.2-47.3-10.7
	c-39-3.2-81.5,3.7-112.9,27.4c-20.5-1.6-41.7,2.1-59.6,12.8c18.8,5.3,39.5,5.5,59.8,7c-0.1,0-0.1,0-0.2,0c78.6,4,168.9,4,247.5,0
	h-0.5c20.6-1.4,41.8-1.9,60.7-7.1C441.6,77.3,432.3,72.9,429.9,70.8z"/>
</svg>
