<svg xmlns="http://www.w3.org/2000/svg" viewBox="0 0 485.58 624.96"><defs><style>.a{fill:#4d84ae;}.b{fill:#245889;}.c{fill:#346a9a;}.d{fill:#1a4c7a;}.e{fill:#0d2e4c;}.f{fill:#07b4df;}</style></defs><path class="a" d="M736,798.79c.73,1.94,2.1,5.63,4.15,11.1-64,4.37-128-4.15-192.22-3.5-98-1.06-195.54,8.1-293.36,1.05,16.35-15.84,23.56-29.42,26.24-50.67C290.7,704.6,295.46,651,304.57,599c6.49-23.41,4.55-46.23,2.65-69.58C306,471.91,299,414.58,297.36,357.2c-.75-52.21-13-100.3-40-145.12-4-6.6-1.29-17.19-1.69-25.89l480.63,3.95c.91,32.69-20.55,62-27,93.43-13.14,57.2-18.84,116.13-25,174.47-5.34,35-2.94,69.78.64,104.76-1.29,53.82,2.6,107.28,6.92,160.86,1.16,28.23,16,50.45,29.46,73.33C722.68,799.38,730.17,798.2,736,798.79Zm-229.51-1c64.73,3.41,127.66,4.29,192.64,5.84,16.69.09,10.35-11.43,4.91-21.09-6.54-17.8-12.52-35.65-16.12-54-4-20.64-6.36-41.92-8.11-63-3.14-39-8.11-77.92-5.38-117.08-7.58-41.05-6.51-81.89.45-122.92,11.52-70.18,16.34-144.32,50.41-208.39,5.31-8.91-6.33-25.4-16.83-25.21-140,4.48-280-2-420-2.7-8.53-.4-14.39,1.88-16.77,8.75-8.24,19.38,8.55,41.38,28.47,39.65,11.33-1,30.08-6.11,44.4-5.89,66.51,6.33,261.81,4.26,194.88,4.26-2,0,84.51.94,126.12,10.64,5.25,1.22-5.7,6-8,6.85C638.52,261,619.85,271.34,600,274.94c-24.9,4.52-50.79,4-76.28,4.63-53.71,2.13-107.38-.12-160.53-8.39-21.47-3-43-6.9-60.85-21-1.43-1.13-4.09-.68-4.77-.77.17,14.68-.71,26.79,1.23,40.67,8.75,37.36,9.53,77.82,25.67,112.89,1.85,2,10.75-2.75,15.58-.46,2.49,12,.7,11.34-12.55,13.75-7,7.87-1.87,38.43,11.83,44.79,1.66.89,3.75,2.66,4,4.25,8.17,43.48,13.22,78.52-4.26,120.78-14.12,37.49-28.87,75.17-38.73,114.06-2.37,9.4,5.31,21.49,2.57,30.59-5.47,18.18-13.71,37.67-20.95,55.38-2.43,6-3.28,8.39-2.25,14.52.37,2.18,7.1,5,12.09,6.41,22,0,40.95-1.64,62.88-3C404.16,799.81,457.58,807.58,506.49,797.81Z" transform="translate(-254.57 -186.19)"/><path class="b" d="M338.62,807l-46.87,0-4.66-3.42c.53-4.19-.26-9.39,1.87-12.73,7.34-11.53,13.36-27.15,24.19-32.51,21-10.4,23.1-8.08,20-30.51-3-10.32-17.7-18.71-19.57-30.78-.75-3.36,1-7.49,2.27-11.06,4.77-13.41,6.35-30,15.33-39.49C380.32,593,371.82,520.39,363.6,454.64l65.94,0v42.67a62.38,62.38,0,0,0-4,10.82c-3.64,19.86-10.64,39.61-8.7,60,.64,7.64,2,15.4,1.22,23,3.4,14.14,11.26,27.66,5.47,43-4.88,14.92-9.93,29.28-21.89,40.12-10.6,12.72-18.71,25.89-33.56,34.62l48.65,51.77c-35.8,8.38-67.59,10.11-103,16-5.29.9-9.75,6.71-15.93,11.24,24.84,23.25,97.08,4.68,130.59,3.6,37.19-.81,74.58-2.13,111.72-3.8,45,4.85,89.8,4.91,134.91,1.46,1.91-.08,3.75-1.66,6.58-3-20.28-27.27-13.57-32.65-13.83-61.74-3-17.43-11.88-33.46-23.45-46.86-9.75-21.6-26.88-37.83-41.33-56.22-14.79-18.84-6.06-53.82,16.29-71,17-13.09,25.14-31.61,26.83-52.72,1.21-15.12.32-30.46,2.4-45.42,1.67-12,7.85-23.35,9.4-35.33,2.11-16.25.39-33,2.74-49.21,2.92-20.06,8-39.83,12.79-59.57,6.29-23-19.58-9.72-32-8.68-13.52-8.64-30-6.71-45.14-7.74,25.85-4.81,50.41-14.63,74.93-23.81,5.79-2.3,10.32-7.78,16.22-12.44,9.13,26.89-8.61,70.59-11.93,99.11-4.48,44.27-10.64,88.77-14.85,133-.93,29.09,1.16,58.27,1.38,87.41,0,4.7-3,9.42-4.67,14.52-44-27.05-38.93,37.2-8.82,50.3l8.88-5.57c9.47,23,12.76,49.35,18.61,73.79,4.86,25.91,5.27,52.75,20.93,75.89,2.91,4.29,2.54,12.69.39,17.8-1.25,2.93-9.15,4.32-14,4.23-54.48-3-108.75.48-162.93-5.6-15.62-1-30.46,3.63-46,4C429.54,800.78,383.76,805,338.62,807Z" transform="translate(-254.57 -186.19)"/><path class="c" d="M363.6,454.65c8.22,65.73,16.72,138.32-32.45,191.93-9,9.53-10.57,26.08-15.34,39.49-1.27,3.57-3,7.7-2.27,11.06,1.87,12.07,16.61,20.46,19.57,30.78,3.14,22.43,1.05,20.11-20,30.51-10.83,5.36-16.85,21-24.19,32.51-2.13,3.34-1.34,8.54-1.87,12.73l4.66,3.42c-5-1.41-13.86-2.17-14.23-4.35-1.31-25.8,19.68-47.55,25.34-72,2.74-9.1-4.94-21.19-2.57-30.59,6.46-25.66,15.5-50.7,24-75.81,27-65,33.4-89.22,18.93-159-.22-1.59-2.31-3.36-4-4.25-13.63-5.95-18.88-37.47-11.83-44.79,13.26-2.41,15-1.75,12.55-13.75-4.81-2.3-13.74,2.48-15.58.45-16.14-35.06-16.92-75.52-25.67-112.88-1.94-13.88-1.06-26-1.23-40.67.68.09,3.34-.36,4.77.77,17.87,14.07,39.38,18,60.85,21,53.15,8.27,106.82,10.52,160.53,8.39,25.49-.63,51.38-.11,76.28-4.63,19.88-3.6,38.55-13.93,57.67-21.51,2.26-.89,3.92-3.29,8-6.85-40.52-9.56-82.42-1.3-123.54-7.2a775.6,775.6,0,0,0-131.36-1.17c-36.65.73-78.51-2.93-115.34,1.09-12.2-.05-20.18-10.4-24.46-21.64-3.36-12.53-2.9-28.54,14.82-28.54,110.8,0,221.48,3.17,330.95,3.59,30.52-.17,61.28-.31,91.79-.84,10.5-.19,21.21,15.8,16.84,25.22-14.72,31.69-24.94,66.71-31.67,101.61-9.93,58.41-19.87,117.55-22.83,176.77-.3,17.51,4.41,35,5.68,52.67.78,11-1.73,22.15-1,33.12,5.21,48.87,7,98.6,12.4,147.26,28,97.57,60.07,80.54-85.52,75.67,26.44-1.94,54.15,2,81,1.61,4.87.09,12.77-1.3,14-4.23,2.15-5.11,2.52-13.51-.39-17.8-15.66-23.14-16.07-50-20.94-75.89-5.84-24.44-9.13-50.76-18.6-73.79l-8.88,5.57c-30.12-13.11-35.21-77.34,8.82-50.3,1.72-5.1,4.7-9.82,4.67-14.52-.22-29.14-2.31-58.32-1.38-87.41,4.21-44.21,10.37-88.71,14.84-133,3.34-28.52,21.07-72.25,11.94-99.11-5.9,4.66-10.43,10.14-16.22,12.44-24.52,9.18-49.08,19-74.93,23.81H377.66c-.81-.71-1.52-1.87-2.44-2.06-16.83-3.33-33.64-6.79-50.54-9.71-9.55-1.65-13.52,2.74-13.12,12.67,1.34,32.85,17.85,56.88,43,76.19,0,24.55-.34,49.11.53,73.62C355.19,446.51,360.61,450.53,363.6,454.65Zm331.8-223c12.39-6.94,27.71-22.53,7.15-29.44-41.84-2-83.77,1.6-125.58,1.33-95.07-3.71-190-9.4-285.16-3.87-19.74-1.23-15.85,15.11-.3,19.61,74.25,4.49,149.36,2.84,223.86,4.58a916.41,916.41,0,0,0,98.72,4.26C641.1,227.72,668.37,215.56,695.4,231.68Z" transform="translate(-254.57 -186.19)"/><path class="c" d="M395.62,804.13c26.17-.63,53-2.5,78.9.07C448.19,805.37,421.91,806.67,395.62,804.13Z" transform="translate(-254.57 -186.19)"/><path class="c" d="M553.45,803.19l36,.92Z" transform="translate(-254.57 -186.19)"/><path class="c" d="M338.62,807l16-.9Z" transform="translate(-254.57 -186.19)"/><path class="c" d="M374.61,805.11l15-1Z" transform="translate(-254.57 -186.19)"/><path class="c" d="M357.62,806.1l15-1Z" transform="translate(-254.57 -186.19)"/><path class="c" d="M520.48,800.19l7,.94Z" transform="translate(-254.57 -186.19)"/><path class="c" d="M532.47,801.2l7,.94Z" transform="translate(-254.57 -186.19)"/><path class="c" d="M543.46,802.2l5,.93Z" transform="translate(-254.57 -186.19)"/><path class="c" d="M479.49,804.12l5-.91Z" transform="translate(-254.57 -186.19)"/><path class="c" d="M502.47,801.12l4-.91Z" transform="translate(-254.57 -186.19)"/><path class="c" d="M496.47,802.1l3-.91Z" transform="translate(-254.57 -186.19)"/><path class="c" d="M489.48,803.11l3-.9Z" transform="translate(-254.57 -186.19)"/><path class="d" d="M641.36,296.7c12.44-1.11,38.46-11.65,32.15,11.31-4.78,19.74-9.86,39.51-12.78,59.57-2.35,16.19-.63,33-2.74,49.21-1.55,12-7.73,23.35-9.4,35.33-2.08,15-1.19,30.3-2.4,45.42-1.69,21.11-9.83,39.63-26.83,52.72-22.35,17.21-31.08,52.19-16.29,71,14.45,18.39,31.57,34.62,41.33,56.22C656,690.9,664.84,707,667.85,724.37c.29,29-6.5,34.43,13.83,61.74-2.83,1.33-4.67,2.91-6.58,3-45.11,3.45-90,3.39-134.91-1.46-37.14,1.67-74.53,3-111.72,3.8-33.62,1.09-105.71,19.65-130.59-3.6,6.18-4.53,10.64-10.34,15.93-11.24,35.39-5.9,67.14-7.62,103-16l-48.65-51.77c14.84-8.72,23-21.89,33.56-34.62,12-10.85,17-25.19,21.89-40.12,5.79-15.31-2.07-28.83-5.46-43,.81-7.59-.59-15.35-1.23-23-1.94-20.4,5.06-40.15,8.7-60a62.38,62.38,0,0,1,4-10.82V454.62q100.11,0,200.22,0c8.8,0,12.66-4,12.64-12.73C641.5,393.52,644,344.9,641.36,296.7Z" transform="translate(-254.57 -186.19)"/><path class="e" d="M641.36,296.7c2.62,48.2.14,96.82,1,145.16,0,8.76-3.84,12.74-12.64,12.73q-133.08-.1-266.16.05c-3-4.11-8.41-8.13-8.55-12.35-.87-24.51-.49-49.07-.53-73.62,0-17.6.12-35.21.08-52.82-.06-22.29-1.74-24.67,23.06-24.27,84.16.34,168.39-.64,252.53.36C634,292.17,637.64,295,641.36,296.7Zm-143,152.81c43.61,0,87.21.15,130.82-.34,2.75,0,7.8-5,7.83-7.71q.74-68.16,0-136.31c0-2.83-5.18-8-8-8.06q-130.57-.64-261.14,0c-2.74,0-7.81,5-7.84,7.72q-.74,68.15,0,136.31c0,2.83,5.17,8,8,8C411.44,449.67,454.89,449.51,498.33,449.51Z" transform="translate(-254.57 -186.19)"/><path class="b" d="M695.4,231.68c-27-16.12-54.3-4-81.31-3.53a913.86,913.86,0,0,1-98.72-4.27c-74.49-1.73-149.61-.08-223.86-4.57-14.94-4.27-20-20.77.3-19.61,95.12-5.53,190.09.16,285.16,3.87,41.81.27,83.74-3.28,125.58-1.33C722.89,209.08,708.07,224.64,695.4,231.68Z" transform="translate(-254.57 -186.19)"/><path class="b" d="M377.66,291.58c-24.8-.4-23.12,2-23.06,24.27,0,17.61-.05,35.22-.08,52.82-25.11-19.31-41.62-43.34-43-76.19-.4-9.93,3.57-14.32,13.12-12.67,16.9,2.92,33.71,6.38,50.54,9.71C376.14,289.71,376.85,290.87,377.66,291.58Z" transform="translate(-254.57 -186.19)"/><path class="f" d="M561.59,403q-2.05-6.61-4.1-13.23l-1.66.91c-2.79-5.59-7-11-7.8-16.85-.42-3,4.67-7.48,8.13-10.17,2-1.51,5.67-1,8.58-1,16.73.24,33.6-.5,50.1,1.58,5.64.71,13,7.85,14.68,13.49,1.32,4.54-4.84,11.25-9.79,15.21.59,9.1,6.8,27.39-.38,37-4.42,3.28-12.64,2.51-19,1.85-13.42-2.4-32-3.1-41.37-13.74-2.15-3.68.56-10.21,1.12-15.49Z" transform="translate(-254.57 -186.19)"/><path class="e" d="M459,367.63c24.61,0,49.24-.32,73.84.35,3.58.1,7,4.89,10.57,7.5-3.59,2.71-7.16,7.75-10.79,7.79q-73.83.78-147.69,0c-3.47,0-6.88-5-10.32-7.75,3.51-2.63,7-7.44,10.55-7.54C409.78,367.31,434.41,367.63,459,367.63Z" transform="translate(-254.57 -186.19)"/><path class="e" d="M459.57,389.61c24.62,0,49.24-.3,73.84.35,3.41.09,6.69,4.91,10,7.55-3.28,2.69-6.53,7.71-9.83,7.74q-74.6.75-149.19,0c-3.29,0-6.52-5.09-9.78-7.8,3.36-2.61,6.67-7.4,10.09-7.49C409.67,389.31,434.62,389.61,459.57,389.61Z" transform="translate(-254.57 -186.19)"/><path class="e" d="M459,411.59c24.78,0,49.58-.3,74.34.34,3.43.09,6.74,4.87,10.11,7.48-3.42,2.72-6.81,7.78-10.25,7.81q-74.34.78-148.69,0c-3.31,0-6.58-5-9.86-7.72,3.33-2.64,6.61-7.48,10-7.57C409.42,411.28,434.21,411.59,459,411.59Z" transform="translate(-254.57 -186.19)"/><path class="e" d="M436.8,310.52c1.68,3.47,6.08,11.39.48,14.59-6.3-2.87-12.4-5.65-19.55-5.57-.32,5.71-1.39,11.54-.55,17.08.3,2,5.14,3.37,8,4.88.12.07,1-1.37,1.06-1.4l-5.61-6.27c7-8.15,15.69-2.56,24.33-.94-7.34,16.63-23.05,27.37-39.09,13.95-8.22-6.74-10.74-15.77-5.65-25.47C407.86,306.08,421.63,308.83,436.8,310.52Z" transform="translate(-254.57 -186.19)"/><path class="e" d="M508.21,321c2.31,7.16,3.47,14-3.75,20.23-2.13-3.74-3.25-5.7-5.6-9.85v14.7l21.38-10.61C519,341.83,518,347.19,517,352.4l-38.71-1.73.17-3.49,4.34-3.74V318.06l-5.69-3.86c2.39-1.8,4.13-4.24,5.95-4.3,10.25-.38,20.51-.18,32.61-.18,1.09,4.35,3,11,.28,16-4.91-5.82-10.48-7.53-18.06-8.93v9Z" transform="translate(-254.57 -186.19)"/><path class="e" d="M552.77,347.85l5.73-4.05v-25l-6.87-4.28c8.32-8.11,17.69-3.87,27.75-4.16.4,1.52.79,3.05,1.18,4.58l-5.42,3.71v26.6l14.42-9.11c.36.52,3.56,3.33,3,4.69-1.63,4.13-4.26,10.5-7.27,11C574.55,352.29,562.33,354.49,552.77,347.85Z" transform="translate(-254.57 -186.19)"/></svg>