<svg xmlns="http://www.w3.org/2000/svg" viewBox="0 0 228.03 167.6"><defs><style>.a{fill:#333;}.b{fill:#2f2f2f;}.c{fill:#2d2d2d;}.d{fill:#3d3d3d;}.e{fill:#191919;}</style></defs><path class="a" d="M194.12,29.45c7.17.77,10.8,5.08,11.91,11.89s2.21,13.72,3.32,20.58c.06.3.12.61.19.92.16,2.38.33,4.75.49,7.13l.45,5c.3.92.6,1.84.91,2.76-.14,2.08-.29,4.16-.43,6.24,1.23,1.79,2.06,4.22,3.75,5.27,7.37,4.58,17.06,7.8,15.88,18.61-.67,6.23-3.91,12.56-7.31,18-4,6.49-9.48,12.1-14.32,18.08a17.47,17.47,0,0,0-3.35,1.92,128.82,128.82,0,0,1-57,29.91c-24.07,5.86-48.3,3.48-72.3-.41-14.05-2.28-27.9-6.39-39.51-15.19C29.34,154.58,21.19,149,21,138c3.13-17.59,15.7-28.22,28.56-38.61.56-.46,1.59-.33,2.41-.47l1,2.1-2.1,9L50,112c-2.23,15.8,5.94,25.78,19.49,30.91A190.8,190.8,0,0,0,104.83,152a151.76,151.76,0,0,0,56.8-.93A233.12,233.12,0,0,0,201,139.52c13.36-5.41,21.64-23.53,10.75-41.3-12,8.5-24.1,16.65-38.93,19.89C151,122.88,129.09,122.87,107,121c-19.28-1.6-37.78-5.39-52-20.09-.34-1.33-.69-2.67-1-4l2-5,2-6.93c2.24-5.48,4.24-11.07,6.78-16.4,3.77-7.9,7.91-15.62,11.89-23.42,4.83,8.84,12.53,6.74,20.1,5.35,26.78-4.9,53.59-9.57,80.3-14.78C182.94,34.65,188.45,31.61,194.12,29.45Z" transform="translate(-12.58 -16.92)"/><path class="b" d="M21,138c.2,11,8.35,16.61,15.78,22.24,11.61,8.8,25.46,12.91,39.51,15.19,24,3.89,48.23,6.27,72.3.41a128.82,128.82,0,0,0,57-29.91A17.47,17.47,0,0,1,209,144c1.93-1.1,4.38-1.77,5.71-3.38,5.27-6.35,10.69-12.68,15.15-19.59,12.67-19.61-.08-32.09-18.86-37,.14-2.08.29-4.16.43-6.24,5.29,2.36,10.9,4.2,15.83,7.17,13.56,8.17,17.24,21.46,9.14,35.14a108.4,108.4,0,0,1-16.81,22.2c-23.38,23-50.68,38.64-84,42.06a22.65,22.65,0,0,1-2.47,0l-1,.15-32.14.08-2.11-.24c-24.68-2-48.29-7.41-68.6-22.55A64,64,0,0,1,18.7,151.2c-7-8.39-7.91-17.89-3.17-27.54C24.57,105.28,39,92.56,58,85.05L56,92a42.79,42.79,0,0,0-6.24,2.68c-13.37,8.4-25.25,18.28-30,34.14C19,131.5,20.53,134.9,21,138Z" transform="translate(-12.58 -16.92)"/><path class="c" d="M111,17q24.6,3.21,49.2,6.45c2.62.36,5.19,1.07,7.79,1.62-3.7,1.31-7.4,3.71-11.09,3.71-9.23,0-18.46-1.53-27.7-1.68C117,26.9,106.7,35.16,106,45c-3.81,0-7.62.09-11.42,0-5-.13-6.83-2.94-4.74-7.54,3.52-7.73,9.39-13,17.15-16.42C108.59,20.31,109.66,18.37,111,17Z" transform="translate(-12.58 -16.92)"/><path class="d" d="M111,17c-1.33,1.37-2.4,3.31-4,4-7.76,3.42-13.63,8.69-17.15,16.42-2.09,4.6-.28,7.41,4.74,7.54,3.8.1,7.61,0,11.42,0a12.92,12.92,0,0,0,2.49,0C131.21,40.4,154,35.88,176.65,31.1c2.28-.48,4.22-2.59,6.32-3.94l2.11.28,1,.29,8.07,1.72c-5.67,2.16-11.18,5.2-17.06,6.35-26.71,5.21-53.52,9.88-80.3,14.78-7.57,1.39-15.27,3.49-20.1-5.35,3.56-5.9,6.89-12,10.73-17.68C93,19.23,101.27,16.38,111,17Z" transform="translate(-12.58 -16.92)"/><path class="a" d="M183,27.16c-2.1,1.35-4,3.46-6.32,3.94C154,35.88,131.21,40.4,108.47,45A12.92,12.92,0,0,1,106,45c.72-9.83,11-18.09,23.21-17.89,9.24.15,18.47,1.67,27.7,1.68,3.69,0,7.39-2.4,11.09-3.71Z" transform="translate(-12.58 -16.92)"/><path class="e" d="M55,100.94c14.25,14.7,32.75,18.49,52,20.09,22.06,1.84,44,1.85,65.83-2.92,14.83-3.24,26.91-11.39,38.93-19.89,10.89,17.77,2.61,35.89-10.75,41.3A233.12,233.12,0,0,1,161.63,151a151.76,151.76,0,0,1-56.8.93,190.8,190.8,0,0,1-35.36-9.08C55.92,137.76,47.75,127.78,50,112l.93-2,2.1-9Z" transform="translate(-12.58 -16.92)"/><path class="e" d="M211,84c18.78,4.93,31.53,17.41,18.86,37-4.46,6.91-9.88,13.24-15.15,19.59-1.33,1.61-3.78,2.28-5.71,3.38,4.84-6,10.28-11.59,14.32-18.08,3.4-5.47,6.64-11.8,7.31-18,1.18-10.81-8.51-14-15.88-18.61C213,88.21,212.19,85.78,211,84Z" transform="translate(-12.58 -16.92)"/><path class="e" d="M21,138c-.46-3.07-2-6.47-1.2-9.17,4.73-15.86,16.61-25.74,30-34.14A42.79,42.79,0,0,1,56,92q-1,2.49-2,5l-2,2c-.82.14-1.85,0-2.41.47C36.69,109.75,24.12,120.38,21,138Z" transform="translate(-12.58 -16.92)"/><path class="b" d="M52,98.89l2-2c.35,1.33.7,2.67,1,4l-2,0Z" transform="translate(-12.58 -16.92)"/></svg>