<?xml version="1.0" encoding="utf-8"?>
<!-- Generator: Adobe Illustrator 24.1.2, SVG Export Plug-In . SVG Version: 6.00 Build 0)  -->
<svg version="1.1" id="Layer_1" xmlns="http://www.w3.org/2000/svg" xmlns:xlink="http://www.w3.org/1999/xlink" x="0px" y="0px"
	 viewBox="0 0 227.7 168.3" enable-background="new 0 0 227.7 168.3" xml:space="preserve">
<g>
	<path fill="#333333" d="M180.4,12.2c1.4,0.4,2.8,0.9,4.3,1.2c4.2,0.8,6.4,3.6,7.6,7.5c3.2,10.5,4.8,21.2,5,32.1
		c-1.2,4.6,1.8,8.4,2.2,12.7c-0.3,3.3,1.1,5.4,4.3,6.4c1.3,0.4,2.5,1,3.6,1.7c12.3,7.1,14.9,15.7,8.6,28.5c-1.3,2.7-2.6,5.4-4.4,7.9
		c-0.2,0.4-0.5,0.8-0.8,1.2c-1.2,1.4-2,2.9-2.9,4.5c-0.2,0.4-0.6,0.7-0.9,1c-1.8,1-2.6,2.7-3.2,4.6c-0.3,0.6-0.8,1.1-1.4,1.5
		c-0.8,0.5-1.7,1-2.4,1.7c-4.7,3.7-9,7.9-13.5,11.8c-6.9,5.9-14.5,10.3-22.7,14.1c-8.5,3.9-16.9,7.8-26.1,9.7
		c-12.4,2.6-24.8,4.9-37.6,3.4c-6.4-0.8-12.9-0.3-19.4-1c-16.1-1.8-32.2-3.9-46.7-11.5c-10.1-5.3-20.3-11-25.6-22.1
		c-0.8-1.7-1.4-3.4-1.5-5.3c-0.3-10.2,5.3-17.9,11-25.4C23.6,91.1,30.4,85,38.1,80c1.8-1.2,3.7-2.3,4.2-4.7c0.5-1.9,0.8-4,2.3-5.4
		c3.8-3.5,4.7-8.2,5.7-12.9c3-6.7,5.8-13.4,8.9-20c1.5-3.1,3.2-6.1,4.9-9.2c0.2,0,0.4-0.2,0.5-0.1c6.4,6.5,14.1,5.1,21.8,3.7
		c16-2.9,32-6.2,48-9.1c9.5-1.7,19-3.2,28.5-5C168.9,16.4,175,15.4,180.4,12.2z"/>
	<path fill="#2F2F2F" d="M198.3,66.1c-0.4-1.6-0.6-3.2-1.2-4.7c-1.1-2.9-1.6-5.6,0.2-8.4c0.3,2.3,0.7,4.6,1.1,7.2
		c2.8,1.2,5.9,2.4,8.9,3.8c2.8,1.4,5.6,2.9,8.3,4.6c11.2,7,15.1,17.4,9.5,31.2c-2.6,6.5-7.1,12.4-11.4,18
		c-12.5,16.1-29.1,27-47,36.5c-16.5,8.8-34,13.1-52.6,13.8c-24.9,0.9-49.2-1.3-72.8-9.8c-12.3-4.4-23.4-10.6-32.3-20.1
		c-10.8-11.6-11.9-22.2-4-35.9c8.3-14.4,20.4-25,35.3-32.1c4.5-2.1,7.4-4.6,8.3-9.4c0.2-1.3,1-2.4,1.6-3.6c0.8,4.6-1.6,8.2-3.5,12
		c-1,2-2.3,4-3.4,6c-1,0.9-1.8,2-3,2.6c-9.6,4.8-17.2,11.8-24.1,19.8c-5,5.7-7.6,12.5-8.8,19.8c-0.3,1.9-0.7,4,0.8,5.7
		c0.4,6.5,4.2,11.3,8.7,15.3c9,7.8,19.5,13.3,30.7,17.3c5.4,1.9,11.2,2.4,16.9,3.5c11.9,2.3,23.9,2.5,35.9,3.3
		c13.1,0.9,25.5-1,38.1-3.8c6.6-1.5,13-3.6,18.9-6.5c8.1-4,16.8-7,23.8-13c4.4-3.8,8.6-7.7,13-11.5c1.9-1.6,3.9-3,5.9-4.5
		c0.6-0.6,1.5-0.4,2.1-1c0.3-0.3,0.6-0.6,0.9-0.9c1-1.9,2.4-3.6,4-5.1l0,0c1.6-1.3,1.9-3.4,3-5l0,0c4.4-4.8,7.6-10.3,9.7-16.6
		c2.3-7.1,0.2-12.7-5.1-17.5c-3.1-2.8-6.5-5.2-10.3-7C202.4,69,200,68.1,198.3,66.1z"/>
	<path fill="#2D2D2D" d="M99.4,0.2c8.8,0.7,17.6,1,26.2,2.3c11.6,1.8,23.2,4.3,34.7,6.5c-0.1,2.7-2.5,2.3-4,2.6
		c-9,1.6-18.1,1.6-27.2,0.5c-3.3-0.4-6.6-0.6-9.9-0.6C107.1,11.3,98.1,16,93.9,28c-5.1,3.9-10.5,2.5-15.6,0.4
		c-3.1-1.2-3.5-4.3-2.6-7.3c1-3.4,2.6-6.6,5.3-8.9c5.3-4.8,10.7-9.5,18.2-10.7C100,1.4,99.9,0.8,99.4,0.2z"/>
	<path fill="#333333" d="M93.3,28.1c0.4-7.1,7.2-15.3,15.3-16.7c6.6-1.1,13.4-0.8,20.2-0.5c8.5,0.4,17.1,0.9,25.6-0.3
		c2-0.3,4-1,6-1.5c4.4,0.6,8.7,1.2,13.1,1.8c0.1,2.8-2.5,2.8-4.1,3.4c-9.4,3.3-19.2,5.4-28.9,7.2C126.6,24,112.9,27,99,28.9
		C97,29.2,95,29.7,93.3,28.1z"/>
	<path fill="#3E3E3E" d="M93.3,28.1c5.1-0.7,10.1-1.1,15.1-2c10.7-1.9,21.4-3.7,32-6.1c10.6-2.3,21-5.3,31.5-8
		c0.6-0.1,1-0.8,1.5-1.2c2.3,0.5,4.7,0.9,7,1.4c-0.9,1.2-1.7,3.2-2.8,3.5c-8.5,2-17,3.7-25.6,5.3c-8.4,1.6-16.9,2.8-25.3,4.4
		c-15,2.8-30,5.8-45.1,8.5c-3.1,0.6-6.3,0.2-9.5,0.1c-4-0.2-6.5-2.6-8.1-6.1c3.6-5.9,7-12,10.9-17.7c5.9-8.5,14.5-11,24.4-10.1
		c1.3,2-0.7,2.1-1.7,2.7c-4.5,2.7-9.2,5.2-13.5,8.1c-3.7,2.5-5.8,6.3-7.4,10.4c-1.4,3.7,0.1,5.8,3.9,6.9
		C85,29.4,89.1,29.1,93.3,28.1z"/>
	<path fill="#181818" d="M182.3,93c0.7-0.8,1.3-1.9,2.1-2.4c5.1-3.2,10.2-6.3,15.6-9.6c1.5,5.4,3.4,11.3,4.8,17.4
		c0.4,1.6-0.2,3.6-0.9,5.2c-1.3,3.2-3.1,6.2-4.4,9.4c-2.1,4.9-8.8,9.8-14.2,10.2c1.6-8.2,1.3-16.3-0.8-25.1c1.3,6.3,2,12,1.8,17.7
		c-0.1,2.9-0.5,5.6-3,7.5c-9.3,6.1-19.9,9-30.7,10.6c-12.7,1.9-25.7,3.1-38.5,3c-16.5-0.1-33-1.5-48.9-6.9
		c-9.4-3.2-18-7.8-24.3-15.8c-1.8-2.2-3.2-5.2-3.5-8c-0.9-7.8,0.2-15.4,3.7-23c0.8,0.5,1.5,0.9,2,1.4C52.5,95,65,99.1,78.1,102.1
		c19.3,4.3,39,3.4,58.5,2.8c12.8-0.4,25.5-3.6,37.7-7.9C177.1,96,179.6,94.4,182.3,93L182.3,93z"/>
	<path fill="#191919" d="M8.3,123c-2.3-0.1-2-1.8-2-3.2c-0.1-8.7,3.2-16.1,8.5-22.7c5.8-7.2,12.9-13.1,20.5-18.4
		c2.4-1.6,5.3-2.5,8-3.7c0.3,2.8-1.5,4-3.6,5.3C29.6,87,20.8,95.2,14.4,105.6C11.1,110.9,7.7,116.3,8.3,123z"/>
	<path fill="#191919" d="M198.3,66.1c8.5,3.2,16.4,7.1,21.6,15c2.3,3.5,2.7,7.1,1.9,11.3c-1.2,6.3-4.4,11.4-7.9,16.4
		c-0.8,1.1-2.3,1.6-3.6,2.3c1.9-3.8,4.1-7.6,5.7-11.5c2.6-6.3,4.1-13-1.4-18.5c-3.2-3.2-7.2-5.9-11.4-7.7
		C199.5,71.8,197.7,70.1,198.3,66.1z"/>
	<path fill="#0B0B0B" d="M183.3,123.2c3.3-6.1,2-12.5,1.5-18.9c-0.2-2.9-0.9-5.8-0.6-8.7c2.3,9.1,5.3,18.2,1.1,27.6
		C184.7,123.1,184,123.2,183.3,123.2z"/>
	<path fill="#191919" d="M207.3,116.1c-1.3,1.7-2.7,3.4-4,5.1C203.2,118.3,204.3,116.5,207.3,116.1z"/>
	<path fill="#191919" d="M210.3,111.1c0,2.3-0.1,4.5-3,5C208.3,114.4,209.3,112.7,210.3,111.1z"/>
	<path fill="#191919" d="M202.4,122.1c-0.7,0.3-1.4,0.7-2.1,1C201,122.7,201.7,122.4,202.4,122.1z"/>
	<path fill="#0B0B0B" d="M182.3,93c0.2,0.2,0.3,0.3-0.2-0.2C182.6,93.4,182.4,93.2,182.3,93L182.3,93z"/>
</g>
</svg>
