<?xml version="1.0" encoding="utf-8"?>
<!-- Generator: Adobe Illustrator 24.1.2, SVG Export Plug-In . SVG Version: 6.00 Build 0)  -->
<svg version="1.1" id="Layer_1" xmlns="http://www.w3.org/2000/svg" xmlns:xlink="http://www.w3.org/1999/xlink" x="0px" y="0px"
	 viewBox="0 0 1374.8 1065.9" enable-background="new 0 0 1374.8 1065.9" xml:space="preserve">
<g>
	<path fill="#64BB41" d="M1276.9,381.8c4.2,1.5,8.5,2.8,12.5,4.6c1.3,0.6,2.5,2.7,2.6,4.2c0.5,8.9,0.7,17.9,1,26.8
		c0.6,13.2,1.1,26.4,1.8,39.6c0.5,10.6,1.2,21.1,1.8,31.7c0.8,12.9,1.6,25.7,2.3,38.6c0.1,1.2-0.7,2.4-1.1,3.7
		c-4,2.3-8.6,2.3-13,3.1c-39,7.2-77.9,14.8-116.9,22.1c-39.3,7.4-78.6,14.9-117.8,22.6c-48.9,9.7-97.8,19.2-146.6,29
		c-58,11.6-116,23.2-173.9,35.1c-36.7,7.5-73.5,14.7-110.1,22.8c-16.3,3.6-32.5,7.2-48.9,10.1c-1.5-0.1-2.9,0.4-4.3,1.1
		c-3.5,0.6-7.1,1.3-10.6,1.5c-1,0-2,0.4-3,0.7c-8.2,3.1-16.8,4-25.3,5.3c-1.2,0-2.2,0.4-3.2,1.1c-0.8,0.4-1.7,0.5-2.6,0.4
		c-1.4-0.2-2.4,0.7-3.7,1.1c-6.6,1.2-13.2,2.4-19.7,3.9c-1.5-0.2-2.7,0.4-4,1c-7.9,2.1-16.1,2.7-23.9,5c-1.1,0-2.2-0.3-3.4-0.1
		c-0.8,0.2-1.6,0.3-2.4,0.4c-1,0.1-1.8,0.8-2.6,1.3c-0.7,0.3-1.5,0.4-2.3,0.3c-1-0.2-1.8,0.2-2.7,0.7c-0.6,0.2-1.1,0.2-1.7,0.2
		c-1.2-0.3-2.3-0.3-3.4,0.1c-0.6,0.2-1.2,0.3-1.9,0.5c-0.9,0.2-1.7,0.5-2.6,0.9c-3.7,1.5-7.5,2.4-11.6,2.3c-1.3,0-2.2,1-3.4,1.4
		c-5,1.2-10.2,1.6-15.3,2.5c-1.3,0-2.3,0.8-3.3,1.3c-3.5,0.8-7.1,1.6-10.6,2.1c-1.1,0-2.2-0.2-3.3,0c-0.8,0.2-1.7,0.3-2.5,0.5
		c-1.1,0.2-1.9,1.1-2.9,1.5c-1.8,0.6-3.7,0.4-5.6,0.5c-0.9,0-1.8,0.2-2.6,0.4c-0.8,0.2-1.7,0.3-2.5,0.4c-1,0.1-1.8,0.7-2.6,1.2
		c-0.5,0.3-1.1,0.3-1.7,0.3c-1-0.1-1.8,0.4-2.6,0.9c-0.7,0.3-1.5,0.3-2.3,0.2c-1-0.2-1.8,0.3-2.7,0.8c-0.8,0.3-1.6,0.3-2.4,0.2
		c-1-0.2-2-0.1-3,0.4c-2,1-4.2,1.1-6.4,1.1c-1.1,0-1.9,0.5-2.8,1.1c-0.6,0.3-1.1,0.4-1.7,0.3c-0.9-0.2-1.9-0.2-2.8,0.1
		c-0.7,0.2-1.5,0.3-2.2,0.4c-1,0.1-1.7,0.8-2.5,1.3c-0.6,0.2-1.2,0.3-1.8,0.2c-1.2-0.3-2.3-0.3-3.4,0.3c-1.9,0.8-3.9,1.7-6,1.8
		c-1-0.1-1.9,0.3-2.8,0.8c-0.8,0.3-1.6,0.4-2.4,0.3c-0.8-0.1-1.6,0.2-2.3,0.6c-0.6,0.2-1.2,0.3-1.8,0.3c-0.9-0.2-1.9-0.2-2.8,0.1
		c-0.8,0.2-1.6,0.3-2.4,0.4c-0.8,0.1-1.6,0.3-2.4,0.6c-0.6,0.2-1.2,0.3-1.9,0.4c-1.4,0.1-2.3,1.1-3.5,1.6c-1.8,0.6-3.7,0.4-5.6,0.5
		c-0.9,0-1.8,0.2-2.7,0.4c-0.9,0.2-1.7,0.3-2.6,0.4c-0.8,0.1-1.6,0.3-2.4,0.5c-0.6,0.2-1.2,0.3-1.7,0.5c-1,0.2-1.7,0.9-2.5,1.4
		c-0.8,0.3-1.5,0.4-2.3,0.3c-1-0.2-1.8,0.3-2.7,0.8c-0.8,0.3-1.6,0.3-2.4,0.3c-1.1-0.1-1.9,0.4-2.9,0.9c-1.9,0.6-3.7,1.2-5.7,1.1
		c-1-0.1-2,0.1-2.9,0.6c-0.8,0.3-1.6,0.4-2.4,0.3c-0.9-0.2-1.9-0.3-2.9,0c-0.6,0.2-1.2,0.3-1.8,0.4c-1.1,0.1-2,0.7-2.8,1.3
		c-0.6,0.3-1.3,0.3-1.9,0.3c-1.1-0.3-2,0-2.9,0.7c-0.6,0.3-1.2,0.4-1.8,0.3c-0.9-0.2-1.9-0.2-2.8,0.1c-0.7,0.2-1.5,0.3-2.2,0.4
		c-1,0.1-1.7,0.8-2.5,1.3c-0.6,0.2-1.2,0.2-1.8,0.2c-1-0.2-2-0.3-3,0c-0.6,0.2-1.2,0.3-1.8,0.4c-0.8,0.2-1.6,0.4-2.4,0.6
		c-0.6,0.2-1.2,0.3-1.8,0.4c-0.8,0.2-1.6,0.4-2.4,0.7c-0.8,0.2-1.7,0.3-2.5,0.4c-1,0.1-2,0.2-3,0.5c-0.6,0.2-1.2,0.3-1.7,0.5
		c-1,0.2-1.7,0.9-2.6,1.4c-0.8,0.3-1.5,0.4-2.4,0.2c-0.9-0.2-1.9-0.3-2.8,0c-0.6,0.2-1.2,0.3-1.8,0.4c-1,0.1-1.9,0.6-2.7,1.2
		c-0.6,0.3-1.2,0.4-1.8,0.3c-1-0.2-2-0.2-2.9,0.2c-0.6,0.2-1.2,0.3-1.8,0.4c-2.3,0.4-4.6,0.8-6.5,2.3c-0.8,0.4-1.6,0.5-2.5,0.4
		c-1.1-0.1-2,0.3-2.9,0.7c-0.8,0.3-1.7,0.3-2.6,0.2c-2.2-0.4-4.3,0.4-6.4,1c-0.7,0.2-1.4,0.3-2.1,0.4c-20.3,2.7-38.4,10.7-54.5,23.2
		c-1.2,0.9-2.3,1.9-3.1,3.2c-0.3,0.4-0.6,0.8-1,1.1c-1.9,1.3-3.3,3.2-4.8,4.9c-1.3,1.4-2.8,3.1-4.8,1c-1.1-3.7,0.6-7,1.8-10.1
		c5.6-15,10.1-30.3,15.1-45.4c5.3-16.1,11.6-31.9,16-48.2c2.5-9.2,6.4-17.7,9-26.8c4.6-16,10.6-31.6,15.5-47.5
		c5.8-18.9,13.1-37.3,17.6-56.5c1.3-5.6,4.9-10.5,6.1-16.3c1.9-9.8,6.3-18.8,8.6-28.5c1.5-6.2,4.8-12,6-18.4
		c3.5-9.3,6.5-18.8,9.6-28.3c5.6-17.1,10-34.5,15.8-51.5c3.1-9.1,5.4-18.5,8.4-27.6c3.8-11.5,6.7-23.3,10.6-34.8
		c3.1-9.1,5.3-18.5,8.3-27.7c3.8-11.8,6.9-23.9,10.8-35.7c3.8-11.5,6.8-23.2,10.2-34.9c3.2-11.2,6.4-22.4,9.9-33.4
		c2.7-8.4,4.7-16.9,7.2-25.3c3.1-10.3,6.2-20.7,9.1-31.1c0.2-0.8,0.7-1.5,1.3-2.1c2.5-1.7,2.9-4.3,3.2-7c0.5-4.3,1-8.5,3.6-12.3
		c1.9-2.8,1.4-6.5,2.3-9.7c0.3-1.1,0.1-2.4,0.6-3.4c4.2-9.8,6.6-11.8,15.5-9.2c28.3,8.3,56.6,16.4,85,24.6
		c37.8,10.9,75.4,22.2,113.1,33.4c54.1,16.1,108.3,32,162.4,48.1c31.9,9.5,64,18.5,96,27.4c49.2,13.7,98.1,28.3,147.3,42
		c40.5,11.3,81,22.9,121.7,33.7c4,1.1,7.8,3,12.1,2.9c0.5,0.1,1,0.2,1.5,0.4c4.3,2,8.6,3.7,13.4,4c0.7,0,1.4,0.1,2.1,0.4
		c1.5,1.3,3.5,1.2,5.3,1.5c0.5,0.1,1,0.3,1.4,0.5c9.4,3.4,19.2,5.4,28.8,8.1c5.7,1.6,11.4,3.6,17.4,4.3c37.1,8.7,73.4,20,110.2,29.6
		C1267.8,378.9,1272.1,381.1,1276.9,381.8z"/>
	<path fill="#64BB41" d="M1297.9,534.7c0.6,1.3,1.8,2.6,1.8,3.8c-0.1,5.8-0.6,11.6-0.9,17.4c-4.1,2.7-9,3.3-13.7,4.5
		c-43.1,11.7-86.2,23.2-129.3,35c-41.1,11.2-82.2,22.7-123.3,34.1c-44.1,12.3-88.2,24.9-132.2,37.5c-40.2,11.5-80.4,23-120.5,34.7
		c-30.9,9-61.7,18.2-92.5,27.2c-31.7,9.2-63.3,18.7-94.9,28c-34.5,10.2-68.9,20.6-103.4,31c-35.6,10.7-71.1,21.5-106.6,32.3
		c-32.2,9.8-64.5,19.2-96.6,29.3c-21.8,6.8-43.7,13.3-65.4,20.1c-31.8,10-63.8,19.3-95.5,29.5c-7.4,2.4-14.9,4.9-22.5,6.6
		c-6.2,1.3-7.4,0.6-11.1-4.5c-1.8-2.5-3-5.6-5.8-7.3c-0.5-0.3-0.8-0.6-1.2-1.1c-0.6-1.2-1.6-2.1-2.1-3.4c-0.6-1.9-0.5-3.8-0.1-5.7
		c1.1-3.6,0.7-7.3,0.9-10.9c0.4-9.8,3.6-18.9,5.6-28.3c0.5-4.6,2.4-8.6,4.8-12.4c5.2-8,11.2-15.5,15.7-24c1.2-2.3,3-4.9,6.4-4.7
		c2.2,1.8,0.6,3.6-0.1,5.4c-2.1,5.9-4.4,11.8-4.4,17.9c1.1,1.4,2.2,1.5,3,1c8.2-4.7,18.5-2.1,26.5-7.6c2-1.4,5.2,0,7.3-0.9
		c7.5-3.3,15.8-3.3,23.4-6c2.7-0.9,5.3-1.9,8.2-1.9c0.8,0,1.8,0.1,2.5-0.3c7.6-4.5,16.7-4,24.7-7.3c3.2-1.3,6.9-0.4,9.7-1.9
		c7.5-3.9,16-4.1,23.9-6.3c8.1-2.3,16.3-5.6,25-6c3.4-0.2,6.5-1.2,9.5-2.8c2.9-1.5,5.8-2.5,9.1-2.1c0.7,0.1,1.5,0.2,2-0.2
		c6.3-4.3,13.9-4.2,20.9-6c6.4-1.7,12.9-3.3,19.2-5.1c7.1-2.1,14.6-2.5,21.6-5.5c4.8-2.1,10.4-2,15.5-3.4c7.5-2.1,15-4.1,22.6-5.9
		c9.3-2.2,18.5-5.1,28-6.8c8.8-1.6,17.3-4.5,26-6.7c9.7-2.4,19.3-5,29-7.2c9.9-2.2,19.7-4.8,29.5-7.5c15.2-4.1,30.5-8.1,45.9-11.7
		c29.3-6.9,58.5-14.6,87.7-21.8c32.7-8,65.4-15.9,98-23.9c40.4-9.9,80.8-20,121.4-29.3c12.5-2.8,24.7-6.8,37.3-9.2
		c19.4-3.7,38.4-9.5,57.8-13.7c12.7-2.8,25.3-5.7,37.9-8.6c20.7-4.8,41.4-10.1,62.2-14.9c21.4-4.9,42.9-9.7,64.2-14.8
		c12-2.8,24-5.5,36-8.3c16.5-3.8,33.1-7.3,49.7-11c9.5-2.2,18.9-5.1,28.5-7.3c22.2-5.2,44.5-10.2,66.8-15c3.2-0.7,5.2-1.9,5.5-5.3
		C1297.1,535.4,1297.5,535,1297.9,534.7z"/>
	<path fill="#7DC660" d="M115,803.9c-3.4,2.5-6.2,5.4-7.1,9.7c-0.2,1-1.2,1.9-1.9,2.8c-4.9,7.6-9.8,15.1-14.6,22.8
		c-0.8,1.3-0.9,3.1-1.4,4.7c-5.3,9.7-9.1,19.9-8.7,31.2c-0.3,1.3-0.2,2.9-2.3,2.8c-0.3-0.7-0.8-1.4-0.8-2.2
		c-0.3-10-0.5-19.9-0.9-29.9c-0.3-8.4-0.9-16.9-1.4-25.3c-0.8-13.2,3.1-25.4,9.7-36.4c7.5-12.4,16.3-24.1,23.9-36.4
		c4.1-6.7,7.9-13.9,10.5-21.3c6.3-18.4,11.9-37.1,17.8-55.7c4.6-14.3,9.2-28.6,13.8-42.9c6.6-20.6,13.3-41.2,19.9-61.8
		c5.9-18.6,11.9-37.1,17.7-55.7c6.7-21.6,13.2-43.3,19.8-64.9c10.1-33.2,20.1-66.4,30.1-99.6c9.7-31.9,19.3-63.9,29-95.8
		c8-26.4,16-52.8,24-79.2c5-16.6,9.9-33.2,14.9-49.8c1.3-4.3,2.6-8.5,4.1-12.7c2-5.5,5.9-7.9,11.7-8.4c7.7-0.6,14.6,2.6,21.7,4.6
		c32.9,9.3,65.7,19.1,98.6,28.7c48.5,14.2,96.9,28.3,145.4,42.5c50.7,14.8,101.4,29.5,152.1,44.3c71.4,20.9,142.7,41.9,214.1,62.8
		c43.4,12.7,86.9,25.4,130.3,38.1c14.4,4.2,28.8,8,43.2,12.2c15,4.4,29.8,9.2,44.8,13.6c14.5,4.3,29.3,7.6,43.6,12.4
		c20,6.7,39.6,14.5,59.4,21.8c0.4,0.2,0.7,0.6,1.1,0.9c-2.9-0.4-5.9-0.5-8.7-1.2c-29-8-57.8-16.2-86.8-24.2
		c-8.9-2.4-17.9-4.3-26.9-6.4c-0.6-0.1-1.1-0.6-1.7-0.9c-15.6-4.4-31.3-8.5-47-13c-0.3,0-0.6,0-1,0c-1.6-0.9-3.8-0.3-5.1-1.9
		c-0.6,0-1.3,0-1.9,0c-4.4-1.1-8.8-2.4-13.1-4c-0.3,0-0.7,0-1-0.1c-12.7-3.1-25.3-6.9-37.9-10.4c-23.5-6.5-47.1-12.9-70.5-19.8
		c-30.4-9-61.1-17.1-91.5-25.9c-24.4-7.1-48.7-14.4-73.2-21.2c-20.2-5.6-40.4-11.1-60.4-17.6c-21.6-6.9-43.4-13-65-19.6
		c-13.3-4.1-26.8-8.1-40.2-11.9c-11.8-3.3-23.6-6.9-35.3-10.7c-8.6-2.7-17.4-4.8-25.8-7.8c-9.9-3.6-20-6.1-30-9.3
		c-15.7-5-31.6-9.5-47.4-14.2c-34.4-10.1-68.9-19.6-103.2-29.9c-20.6-6.2-41.3-11.8-61.8-18.1c-6.8-2-7.2-1.6-9,4.9
		c-3.3,11.6-6.5,23.3-10.5,34.8c-0.3,0.7-0.5,1.5-0.8,2.2c-0.2,0.8-0.5,1.5-0.9,2.2c-3.5,9.5-6.4,19.2-9,28.9
		c-2.4,9-5.2,17.8-7.8,26.7c-9.7,32.5-19.6,64.9-29.4,97.4c-8.5,28.3-17.3,56.6-25.8,85c-2.7,9-6,17.9-7.9,27.3
		c-1.3,6.4-4.3,12.5-6.1,18.9c-3.8,13.2-7.3,26.5-12,39.4c-1.1,3.1-1.6,6.4-2.4,9.6c-3.1,10.7-5.2,21.8-9.5,32.1
		c-3,7.2-3.1,15.3-6.9,21.9c-5.6,9.7-5.1,21.2-10.5,30.8c-2,3.5-2.2,7.9-3.5,11.9c-3,9.9-6.1,19.8-9.3,29.6
		c-2.1,6.4-4.7,12.7-6.5,19.2c-1.2,4.3-2.7,8.1-5.1,12.1c-2.6,4.3-2.6,10.1-3.8,15.2c-0.2,0.8,0.1,1.9-0.3,2.4
		c-6.3,8.1-5.9,18.4-9.4,27.5c-4.2,10.9-8,22-11.7,33.1c-5,15.4-9.7,30.9-14.7,46.3c-1.2,3.7-2.8,7.4-4.1,11.1
		c-0.5,1.5-0.6,3.2-0.9,4.8C123.2,795.2,122.3,801.5,115,803.9z"/>
	<path fill="#5BA13F" d="M85,892.9c2.4,0.2,5.6-0.6,4.3,3.8c3.6,1.3,2.9,6.3,5.3,7.4c2.6,1.2,6.5,0.5,9.5-0.4
		c20-5.8,39.9-11.9,59.8-17.9c15.7-4.7,31.3-9.5,47-14.4c20.1-6.2,40.1-12.5,60.2-18.6c23.3-7.1,46.6-13.9,69.9-21
		c15.4-4.7,30.6-9.7,46-14.3c28.4-8.6,56.8-17,85.2-25.5c14.6-4.4,29-9,43.6-13.4c22.2-6.6,44.5-13.1,66.7-19.7
		c11.9-3.5,23.7-7.3,35.6-10.8c16-4.8,32.1-9.4,48.1-14.1c14-4.1,27.9-8.4,41.8-12.5c26.1-7.6,52.1-15.1,78.2-22.7
		c20.8-6.1,41.5-12.5,62.4-18.5c25.3-7.3,50.7-14.2,76-21.4c22-6.2,43.9-12.7,65.9-18.9c21.5-6.1,43-12,64.6-18
		c11.6-3.3,23.2-6.7,34.9-9.9c21.2-5.8,42.5-11.4,63.7-17.2c15.8-4.3,31.5-9.1,47.3-13.4c15-4.1,30.1-7.7,45.1-11.7
		c16.1-4.3,32.2-8.7,48.3-13.1c1.4-0.4,2.9-0.5,4.4-0.7c0,1.8,0,3.6,0,5.7c-7.8,2.4-15.7,4.9-23.5,7.3
		c-35,10.8-69.9,21.7-104.9,32.5c-23.5,7.2-47.2,14.2-70.7,21.5c-30.1,9.3-60.2,18.9-90.3,28.2c-36.5,11.3-73.1,22.5-109.7,33.7
		c-33.4,10.3-66.8,20.7-100.2,31.1c-27.9,8.7-55.8,17.3-83.7,26c-34.5,10.7-68.9,21.3-103.4,32c-27.9,8.6-55.8,17.3-83.7,26
		c-33.4,10.4-66.8,20.5-100,31.1c-28.1,9-56,18.7-84,28c-32.1,10.7-64.2,21.2-96.2,31.9c-28.2,9.4-56.2,19.2-84.6,28.2
		c-9.3,2.9-19.3,3.7-28.9,5.7c-9.3,2-18.4,0.6-27.2-2.1c-10.3-3.2-17.9-9.5-21.7-19.9c0.5-1.8-0.9-3-1.4-4.5
		C84,896.5,83.3,894.6,85,892.9z"/>
	<path fill="#7DC660" d="M520.9,684.9c1,0,2,0,3,0c0.7-0.6,1.4-1.3,2.1-1.9c8.2-1.6,16.3-3.2,24.5-4.8c0.8-0.2,1.6-0.2,2.4-0.3
		c0.8,0,1.5-0.4,2-1c4-0.4,8-0.7,11.9-1.1c0.6-0.5,1.2-0.9,2-1c9.5-2,19.1-3.9,28.6-5.9c22.8-4.9,45.5-10.1,68.3-14.8
		c34.3-7.1,68.6-14,103-21c21.4-4.4,42.8-8.7,64.1-13c19.9-4,39.9-8,59.8-12c27.1-5.4,54.1-10.7,81.2-16c20.3-4,40.5-8,60.8-12
		c22.4-4.4,44.8-8.7,67.2-13c24.3-4.7,48.7-9.4,73-14c26.3-5,52.6-10,78.9-15c12.8-2.4,25.7-4.8,38.5-7.1c1.8-0.3,3.7-0.1,5.5-0.1
		c0,1.3,0.1,2.5,0.1,3.8l-0.1,0.4c-8.5,3.2-17.5,4-26.3,5.8c-29.1,5.9-58.2,11.6-87.2,17.5c-62,12.6-124,25.4-186,38.3
		c-49.7,10.4-99.4,21-149.1,31.6c-31.1,6.7-62.2,13.5-93.3,20.2c-31.3,6.7-62.5,13.5-93.8,20.3c-36.6,8-73.2,16.2-109.8,24.3
		C502,704.4,451.6,715.7,401.2,727c-25.5,5.7-51,11.7-76.5,17.3c-23.1,5.1-46.1,10.5-69.2,15.6c-21.6,4.8-43.2,9.9-64.8,14.7
		c-16.9,3.7-33.7,8.1-50.6,12c-1.3,0.3-2.6,0.6-4,0.5c-3.3-0.3-5.2-1.5-3.2-5.2l0,0c16.2-14.3,35-23.2,56.3-26.9
		c1-0.2,2-0.3,2.7-1.1c0.7,0,1.3,0,2,0c2.1,0.3,4-0.9,6-1c1,0,2,0,3,0c0.6-0.6,1.2-0.9,2-1c1,0,2,0,3,0c2.1-1.6,5-1.1,7-2.9
		c0.7,0,1.3,0,2,0c0.7,0,1.3,0,2,0c0.7,0,1.3,0,2,0c0.8-0.9,2.3-0.9,3-1.9c0.7,0,1.3,0,2,0c0.7,0,1.3,0,2,0c1,0,2,0,3,0
		c0.7-0.6,1.4-1.3,2.1-1.9c0.7,0,1.3,0,2,0c1.1,0,2.2,0,3-1c1,0,2,0,3,0c0.8,0,1.5-0.4,2-1c0.7,0,1.3,0,2,0c0.8,0,1.5-0.4,2-1
		c0.7,0,1.3,0,2,0c1,0,2,0,3,0c0.7,0,1.3,0,2,0c0.7-0.6,1.4-1.3,2.1-1.9c1,0,2,0,3,0c0.7,0,1.3,0,2,0c0.7,0,1.3,0,2,0
		c0.8-0.9,1.9-1,3-1c0.7,0,1.3,0,2,0c0.8-0.9,2.3-0.9,3-1.9c0.7,0,1.3,0,2,0c0.7,0,1.3,0,2,0c1,0,2,0,3,0c0.6-0.5,1.2-0.9,2-1
		c2.3-0.3,4.6-0.7,7-1c0.6-0.6,1.2-0.9,2-1c1,0,2,0,3,0c0.6-0.5,1.2-0.9,2-1c1,0,2,0,3,0c0.7-0.6,1.4-1.3,2.1-1.9c0.7,0,1.3,0,2,0
		c0.8,0,1.5-0.4,2-1c1,0,2,0,3,0c0.8,0,1.5-0.4,2-1c2.3,0,4.6-0.1,6.9-0.1c0.8-0.9,2.3-0.9,3.1-1.9c0.7,0,1.3,0,2,0
		c0.8,0,1.5-0.4,2-1c1,0,2,0,3,0c0.7,0,1.3,0,2,0c0.7,0,1.3,0,2,0c0.6-0.5,1.2-0.9,2-1c1,0,2,0,3,0c0.6-0.5,1.2-0.9,2-1
		c2.3-0.7,4.7-1.3,7-2c1,0,2,0,3,0c0.7,0,1.3,0,2,0c0.7-0.6,1.4-1.3,2.1-1.9c1,0,2,0,3,0c0.7,0,1.3,0,2,0c0.7,0,1.3,0,2,0
		c0.7-0.6,1.4-1.3,2.1-1.9c2.7-0.3,5.3-0.7,8-1c0.7,0,1.3,0,2,0c1,0,2,0,3,0c0.6-0.5,1.2-0.9,2-1c1,0,2,0,3,0c0.6-0.5,1.2-0.9,2-1
		c0.7,0,1.3,0,2,0c0.7-0.6,1.4-1.3,2.1-1.9c1,0,2,0,3,0c0.8,0,1.5-0.4,2-1c2.3,0,4.6-0.1,6.9-0.1c0.7-0.6,1.4-1.3,2.1-1.9
		c1,0,2,0,3,0c0.7,0,1.3,0,2,0c4-0.7,8-1.3,12-2c0.7-0.6,1.4-1.3,2.1-1.9c5.6-0.7,11.3-1.4,16.9-2.1c0.7-0.6,1.4-1.3,2.1-1.9
		c4.3-0.7,8.7-1.4,13-2c0.8,0,1.5-0.4,2-1c0.7,0,1.3,0,2,0c1,0,2,0,3,0c0.7,0,1.3,0,2,0c0.6-0.5,1.2-0.9,2-1c1,0,2,0,2.9,0
		c0.7-0.6,1.4-1.3,2.1-1.9c1,0,2,0,3,0c0.7,0,1.3,0,2,0c8.6-1.7,17.3-3.3,25.9-5c0.6-0.5,1.2-0.9,2-1c7.3-1.3,14.6-2.7,21.9-4
		C519.5,685.3,520.1,684.9,520.9,684.9z"/>
	<path fill="#71C151" d="M85,892.9c0.6,2.3,1.2,4.6,1.9,6.9c0.4,1.2,2.1,2.8-0.8,3.1c-4.9-7.6-6.9-16-7.1-24.9c0.3-1,0.7-2,1-3
		c2.4-1.1,2.7,0.7,2.9,2.3c0.2,2.2,0.1,4.5,0.1,6.7c0,2,0,3.9,0,5.9c0.6,0.7,1.3,1.4,2,2.1C85,892.2,85,892.5,85,892.9z"/>
	<path fill="#71C151" d="M133,781.9c0.5,4.3,1.2,4.7,5.8,3.6c9.3-2.3,18.6-4.7,27.9-6.9c13.5-3.2,27-6.4,40.5-9.5
		c9.7-2.2,19.4-4.2,29-6.3c22.4-4.9,44.8-9.8,67.2-14.9c17.2-3.9,34.4-8,51.6-11.9c25.3-5.7,50.6-11.4,75.9-17
		c18.2-4.1,36.5-8,54.7-12.1c19-4.3,38-8.7,57-13c26-5.8,52-11.3,77.9-17c13.5-3,27-6.5,40.6-9.4c16.9-3.7,34-6.9,50.9-10.5
		c11.6-2.5,23.2-5.4,34.8-7.9c18.6-4.1,37.1-8,55.7-12c12.9-2.7,25.9-5.3,38.8-8.1c16.8-3.6,33.5-7.4,50.3-11
		c28.4-6,56.9-11.9,85.3-17.9c18.9-4,37.8-8.1,56.7-12.1c20.9-4.4,41.7-8.6,62.6-12.9c11.2-2.3,22.3-4.7,33.5-7
		c19.7-4,39.5-8,59.2-12c22.2-4.5,44.3-9,66.5-13.4c10.2-2,20.4-3.8,30.7-5.7c3.9-0.7,7.8-1.2,11.7-1.8c0,2,0,4,0,6.1
		c-12,2.6-23.7,5.1-35.5,7.7c-12.1,2.7-24.1,5.5-36.2,8.3c-6.6,1.5-13.2,3-19.8,4.6c-2.5,0.6-4.8,1.9-7.3,2.6
		c-2.8,0.8-5.7,1.5-8.6,2c-4.5,0.9-9.1,1.4-13.5,2.3c-11.2,2.3-22.3,4.7-33.5,7.3c-4.4,1-8.5,2.9-12.9,3.9c-7,1.6-14.2,2.6-21.3,4.2
		c-4.6,1-9.2,2.6-13.8,3.9c-3.4,0.9-6.7,1.8-10.2,2.4c-6.9,1.4-14,2.5-20.9,4c-8.9,2-17.7,4.2-26.6,6.3c-11.4,2.7-22.9,5.2-34.2,8.1
		c-6.2,1.5-12.2,3.9-18.4,5.3c-6.7,1.5-13.5,2.5-20.2,3.6c-1,0.2-2,0.1-2.9,0.4c-12.7,4.3-26.1,6-38.9,9.6
		c-4.9,1.4-9.8,2.9-14.7,4.3c-4.4,1.2-8.9,3.3-13.4,3.4c-7.7,0.2-14.9,2.1-22.1,4.2c-16.7,4.7-33.8,8-50.6,12.2
		c-7.9,1.9-15.7,4.1-23.6,6c-19.6,4.7-39.2,9.2-58.8,14c-17.8,4.4-35.6,9.1-53.4,13.5c-8.3,2.1-16.8,3.6-25.1,5.6
		c-6.3,1.5-12.4,3.3-18.7,4.9c-13.5,3.4-27,6.6-40.4,10c-12.5,3.2-24.8,6.7-37.3,9.7c-9.9,2.4-19.9,4.2-29.8,6.4
		c-4.3,1-8.6,2.5-12.9,3.6c-4.6,1.2-9.3,2.1-13.8,3.3c-4.5,1.2-8.8,2.6-13.3,3.7c-6.1,1.5-12.2,2.8-18.2,4.3
		c-4.8,1.1-9.5,2.4-14.3,3.5c-6,1.5-12.1,2.9-18.1,4.5c-5.4,1.5-10.6,3.5-15.9,4.9c-5.7,1.4-11.4,2.3-17.2,3.5
		c-1.3,0.3-2.5,0.7-3.7,1c-2.1,0.5-4.1,1-6.2,1.5c-1.6,0.4-3.1,0.8-4.7,1.2c-6.2,1.6-12.3,3.2-18.5,4.8c-1.6,0.4-3.3,0.5-4.8,0.9
		c-5.9,1.6-11.6,4.5-17.5,4.7c-7.3,0.3-13.2,5.9-20.8,4.5c-1.1-0.2-2.4,1.1-3.7,1.4c-2.6,0.6-5.3,1-7.9,1.6
		c-1.3,0.3-2.5,0.9-3.7,1.2c-3.3,0.9-6.8,1.5-10,2.7c-5.4,2.1-11,3-16.6,3.7c-1.4,0.2-2.6,1.4-4,2c-1,0.5-2.2,1.5-3.1,1.3
		c-8.2-1.6-14.3,5.3-22.2,5.3c-4.6,0-9,1.3-13.2,3.6c-1.1,0.6-2.5,0.9-3.8,0.9c-3.7-0.1-6.9,1.7-10.2,2.5
		c-7.6,1.8-15.2,3.7-22.8,5.6c-2.7,0.7-5.4,1.2-8.1,1.9c-2.4,0.6-4.8,2.1-7.1,1.9c-5.2-0.4-9.4,1.6-13.7,3.9c-0.7,0.4-1.5,0.9-2.3,1
		c-8.2,1.4-16.4,2.8-24.6,4.2c-0.7,0.1-1.6-0.1-1.9,0.3c-3.9,4.2-9,3.2-13.9,3.9c-4.3,0.6-8.3,3-12.5,4.5c-0.5,0.2-1,0.4-1.5,0.3
		c-5.5-0.3-10.4,0.9-15.3,3.6c-2.9,1.6-4.8-0.6-3.8-4.2c1.7-6.5,3.8-12.9,5.7-19.4c0.2-0.6-0.3-1.4-0.4-2.1c0.6-0.8,1.1-1.9,1.9-2.2
		c3.4-1.4,4-4.4,4.9-7.4c0.5-1.8,1.4-3.6,2.2-5.3c1.4-1.1,2.7-2.1,4.1-3.2C129.7,784.5,131.3,783.2,133,781.9z"/>
	<path fill="#5BA13F" d="M549.2,510.1c-0.4,3.1-0.8,6.2-1.4,9.3c-0.7,3.2-5.4,6.3-9.7,6.6c-12.1,0.7-24.2,0.8-36.2,2.3
		c-6.3,0.8-13-0.9-18.9,3.1c-3.6,2.5-6.6,5.2-8.3,9.5c-6.9,17.7-13.9,35.5-21.4,53c-4.4,10.3-12.2,17.8-23.1,21.3
		c-7.2,2.3-14.6,2.1-21.4-1.9c-3.7-2.2-5.9-9-4.7-13.4c1-3.8,4.4-6.2,9.4-6.9c4.1-0.6,8.1-1.4,12.1-2.4c6.2-1.5,8.7-6.8,11-12
		c3.9-9.3,7.9-18.5,11.4-28c3-8,5.2-16.3,8.1-24.4c2.2-6.4,4.7-12.7,7.5-18.9c0.5-1.2,2.9-2.2,4.5-2.3c11.9-0.5,23.9-0.8,35.8-1.1
		c12.6-0.3,25.2-0.7,37.8-1C549,502.8,549,502.9,549.2,510.1z"/>
	<path fill="#71C151" d="M405.9,568.9c-2.9,5.9-5.5,12-8.9,17.5c-2.4,3.9-7,3.3-9.1-0.9c-3.3-6.4-5.2-13.3-3.4-20.6
		c1.7-7,3.1-14.2,5.6-21c4.7-12.5,10.2-24.8,15.4-37.1c5.4-12.8,10.8-25.6,16.2-38.4c4.8-11.5,9.5-23,14.3-34.4
		c6.3-15,12.6-29.9,18.8-45c4.2-10.1,8.1-20.3,12.3-30.4c5.5-13.4,11-26.7,16.4-40c2.8-6.9,4.9-14.1,8-20.8
		c3.4-7.3,7.1-14.5,11.5-21.2c4.6-7,12.2-9.3,20.1-8.4c7.2,0.9,14.5,2.2,20.2,7.5c6,5.6,9,12.4,8.4,21.3c-5.3-1.4-10.1-2.7-14.9-4
		c-0.3-1,0.5-1.5,1.2-1.9c0.6-0.4,1.1-0.8,1.1-1.5c-7.9-12-25-11.1-32,1.9c-6.3,11.6-10.6,24.1-15.6,36.2
		c-10.1,24.5-19.7,49.1-29.8,73.6c-8.4,20.5-16.6,41-25,61.5c-4.5,10.9-9.2,21.8-13.5,32.7c-6.5,16.2-13.5,32.2-19.9,48.5
		c-2.7,6.8-5.6,13.6-5.2,21.1c0.1,2-0.2,4.1,1.7,5.3C402.4,571.2,403.4,567.3,405.9,568.9z"/>
	<path fill="#7DC660" d="M405.9,568.9c-0.7,0.4-1.3,0.8-2,1.2c-1.4,0.8-2.9,1.7-4.3,2.5c-0.9-1.5-2.5-3.2-2.4-4.6
		c0.5-6.1,0.5-12.5,2.5-18c5.5-14.7,12.1-29.1,18-43.6c10.6-25.9,20.9-51.9,31.5-77.8c8.5-20.9,17.2-41.6,25.7-62.5
		c6.5-16,12.7-32,19.2-48c3.8-9.4,7.8-18.7,12.3-27.7c3.1-6.4,8.5-10.1,15.8-10.4c8.4-0.4,15.2,2.6,19.7,10c0.1,0.2,0,0.6-0.1,1.2
		c-1.5,0.6-3.1,1.2-4.7,1.8c-1.3,0-2.6,0-4,0c-0.6-0.6-1.2-1-2-1c-1.7-0.3-3.3-0.7-5-1c-2,0.1-4.2-0.5-6,1c-3.1,1.3-5.6,3-5,7
		c-0.6,0.7-1.3,1.4-1.9,2c-0.4,2-0.7,4-1.1,6c-0.6,0.7-1.3,1.4-2,2c-0.3,1.7-0.7,3.3-1,5c-0.6,0.7-1.3,1.4-1.9,2.1
		c-0.7,2.3-1.4,4.6-2,7c-1.9,2.8-2.4,6.1-4,9c-4,10.6-8,21.2-12.1,31.8c-4.8,12-9.8,23.9-14.7,35.8c-3.8,9.3-7.5,18.7-11.2,28.1
		c-5.7,14.2-11.4,28.4-17.1,42.6c-4,10-8.1,19.9-12,29.9c-0.6,1.5-0.6,3.2-0.9,4.8c-1,1-2,2-2.9,3c-1.4,4.3-2.7,8.6-4.1,13
		c-1.6,1.3-1.4,3.7-3,5c0,0.7,0,1.3,0,2c-0.6,0.7-1.3,1.3-1.9,2.1c-0.7,2.6-1.4,5.3-2.1,7.9c-1.9,2-1.9,5.1-3.9,7
		c-1,3.3-2,6.6-3.1,10c-0.6,0.7-1.3,1.4-2,2c0,1.3,0,2.6-0.1,4c-0.6,0.7-1.3,1.4-1.9,2C407.3,564.9,406.6,566.9,405.9,568.9z"/>
	<path fill="#5BA13F" d="M608.4,565.8c-0.3,7.9-1.9,15.2-6.7,21.6c-5.5,7.4-20.1,11.3-27.1,2.7c-1.2-1.5-2.6-3.2-3-5.1
		c-1.7-6.6-1.1-9.1,6.4-10.1c4.2-0.6,8.5-1.2,12.7-2c3.6-0.7,5.6-3,5.2-6.7c-1.3-10.6-2.7-21.3-4.3-31.9
		c-1.8-11.7-3.7-23.4-5.7-35.2c-1.4-8.3-2.9-16.6-4.3-24.9c-2.3-13.5-4.4-27-6.7-40.5c-2.1-12.2-4.5-24.3-6.6-36.5
		c-1.9-10.9-3.5-21.8-5.3-32.7c-1.7-10.2-3.8-20.4-5.4-30.7c-1.1-7.3-1.9-14.7-2.5-22.1c-0.1-1.5,1.2-3.1,1.8-4.6
		c1.7,0.9,3.8,1.4,4.9,2.7c4.6,5.6,5.9,12.5,7.1,19.4c2.7,14.9,5.3,29.9,7.9,44.8c2.7,15.1,5.4,30.2,8,45.3
		c3.1,17.9,6.1,35.8,8.9,53.7c1.9,11.7,3.3,23.5,5.2,35.2c1.3,8,3.2,15.9,4.5,23.8C605.2,543.3,606.8,554.6,608.4,565.8z"/>
	<path fill="#5BA13F" d="M320.9,154c0.2-1,0.2-2,0.5-2.9c2.8-8.6,5.7-17.3,8.3-25.9c1.5-4.8,2.5-9.8,3.9-15.2
		c8.3,2.4,16,4.5,23.8,6.8c9.9,2.9,19.7,5.9,29.5,8.7c33.3,9.7,66.6,19.3,99.9,29c18.9,5.5,37.7,11.3,56.6,16.8
		c10.4,3.1,21,5.7,31.4,8.9c8.5,2.6,16.8,5.7,25.3,8.4c5,1.6,10.2,2.8,15.2,4.4c9,2.8,17.8,5.8,26.8,8.6c2.5,0.8,5.1,1.2,7.7,1.9
		c9.8,2.9,19.7,5.7,29.5,8.8c12.1,3.7,24.1,7.8,36.3,11.4c5.8,1.8,11.9,2.7,17.8,4.4c6.5,1.9,12.8,4.4,19.3,6.3
		c13.3,3.9,26.7,7.6,40,11.5c14.9,4.3,29.8,8.6,44.6,12.9c19,5.5,38,11.1,57.1,16.6c25.7,7.3,51.6,14.5,77.3,21.9
		c14.5,4.1,28.8,8.8,43.2,12.9c18.9,5.4,37.9,10.6,56.8,15.9c4.1,1.2,8.1,2.6,12.1,4c-6.7-1.5-13.6-2.8-20.2-4.6
		c-25.9-7.1-51.7-14.2-77.5-21.5c-24.9-7-49.7-14-74.5-21.1c-24.5-7-49-13.9-73.5-20.9c-10.2-2.9-20.3-6.2-30.5-9
		c-16.4-4.6-32.9-9-49.2-13.6c-14.3-4-28.6-8.3-42.9-12.5c-16.7-4.9-33.3-9.8-50-14.7c-16.2-4.7-32.4-9.5-48.6-14.2
		c-21.6-6.3-43.2-12.6-64.8-19c-14.1-4.2-28.2-8.6-42.3-12.8c-24.1-7.1-48.3-14.1-72.4-21.2c-23.8-7-47.6-14-71.4-21.1
		c-7.5-2.2-14.9-4.4-22.4-6.5c-5.7-1.6-11,1.2-12,8.2c-1.1,7.6-3.8,14.4-6,21.6c-0.8,2.6-0.5,5.6-1.4,8.3c-0.4,1.4-2.1,2.5-3.2,3.7
		c-0.6-0.5-0.9-1.2-0.9-2c0-0.7,0-1.3,0-2C320.3,154.7,320.6,154.3,320.9,154z"/>
	<path fill="#5BA13F" d="M683.9,412.9c-3.1,1-2.8,3.8-2.9,6.1c-0.4,10.1-0.5,20.2-1.1,30.3c-0.6,9.4-2,18.7-2.8,28.1
		c-0.6,6.2-0.8,12.5-1.1,18.7c-0.4,7.1-0.5,14.3-1.1,21.3c-1.1,12.8-2.7,25.6-3.7,38.4c-0.5,6.5-1.7,12.8-4.6,18.6
		c-2.9,5.7-8,8.7-14,8.3c-6-0.4-9.4-6-8.5-11.3c0.7-4.2,4.9-4.4,8-4.5c3.8-0.2,5.7-2.4,7.8-4.7c0.6-0.7,1-1.7,1.1-2.7
		c0.4-4.8,0.7-9.6,1.1-14.4c1-12,2-24.1,2.9-36.1c0.4-4.9,0.7-9.9,1.1-14.9c0.7-11.1,1.2-22.2,2.1-33.2c1.2-14.7,2.6-29.3,3.9-43.9
		c0.4-4.8,0.8-9.6,1.1-14.4c0.7-11.7,1.3-23.5,2.1-35.2c0.2-3.1,0.9-6.2,2-9.3c3.3,10.7,6,21.5,8,32.5c0.6,5.5,0.6,10.9,0.5,16.4
		C685.4,409.3,685.5,411.4,683.9,412.9z"/>
	<path fill="#5BA13F" d="M767.4,342.7c5.4,1.5,5.1,5.6,5.4,8.8c1.3,14-0.2,28-1.8,41.9c-0.1,1,0,2-0.1,3c-1,15.5-2,31-3,46.6
		c-0.1,1,0,2,0,3c-1,16.4-2,32.7-3,49c-0.4,6.1-0.6,12.2-1.1,18.3c-0.9,12-1.7,24.1-3,36.1c-0.5,4.7-1.8,9.4-3.3,13.9
		c-1.9,5.7-8.4,9.8-14.4,9.7c-5.6-0.1-12.6-7.6-12.2-13.1c0.1-2,1-2.6,3.3-2.4c3,0.4,6.3,0.2,9.3-0.4c6.3-1.1,8.9-4.3,9.3-10.8
		c0.7-10.7,1.3-21.5,2-32.2c1-15.5,2-31,3-46.6c0.7-10.2,1.3-20.5,2-30.7c0.7-10.7,1.3-21.5,2-32.2c0.7-10.6,1.3-21.1,2-31.7
		c0.6-8.2,1.3-16.5,2-24.7C766.1,346.5,766.8,344.8,767.4,342.7z"/>
	<path fill="#7DC660" d="M682.9,318.9c-4.6-0.7-9.1-1.3-13.7-2.1c-5.3-0.9-9.9,2.4-10.3,7.7c-0.7,9.4-1.3,18.8-2.1,28.2
		c-1.2,14.6-2.6,29.3-3.9,43.9c-0.4,4.9-0.7,9.9-1.1,14.8c-1,12-2,24-2.9,36.1c-0.4,5.8-0.7,11.6-1.1,17.3c-1,14.2-2,28.4-3.1,42.6
		c-1.2,14.8-2.6,29.6-3.9,44.4c-4.3,0.7-6.6-1.1-7.2-6.2c-0.6-5.5-0.4-11-0.2-16.5c0.8-16,2.6-31.8,4.3-47.7
		c0.9-8.6,0.5-17.3,1.5-25.9c2.6-21.6,3.4-43.4,5.5-65.1c1.6-16.2,3.2-32.4,3.6-48.7c0.2-8.5,0.8-17,3.1-25.2
		c1.7-6.5,5.1-11.9,12.4-12.8c7.7-1,14,2.3,18.4,8.7C683.6,314.5,684.8,316.6,682.9,318.9z"/>
	<path fill="#71C151" d="M682.9,318.9c-0.5-7-7.2-13.1-15.2-13.9c-7-0.7-13,3.5-14.6,11.3c-1.6,7.4-2.5,15-3.1,22.5
		c-1.2,13.7-2,27.4-3,41.1c-0.7,9.2-1.2,18.5-2.1,27.7c-1.2,13.7-2.7,27.3-3.9,40.9c-0.6,6.7-0.6,13.5-1.1,20.2
		c-0.9,11.2-2.1,22.4-2.8,33.6c-0.9,14.2-1.6,28.4-2.1,42.5c-0.2,4.5,1.6,6.2,5.9,7c-0.3,2.8-0.4,5.6-1.1,8.3
		c-0.4,1.4-1.7,2.9-3,3.4c-1,0.4-2.9-0.5-3.9-1.4c-4.3-3.7-4.7-9.2-4.7-14.2c-0.1-8.7,1-17.5,1.7-26.2c0.3-4.5,0.8-8.9,1.1-13.3
		c0.7-10.7,1.3-21.5,2.1-32.2c0.9-11.9,1.9-23.7,3-35.6c1.2-13.6,2.7-27.3,3.9-40.9c0.6-6.8,0.6-13.6,1.1-20.3
		c0.8-10.2,1.9-20.4,2.8-30.6c0.5-6.4,0.6-12.9,1.2-19.3c0.7-6.2,1.1-12.6,2.9-18.5c4.1-12.9,10.4-16.7,23.6-13.7
		c9.7,2.2,16.7,9.8,18.3,19.9c0.4,2.4,0.4,4.8,0.6,7.2c-0.6,0.2-1.2,0.5-1.8,0.7C686.8,323.1,684.9,321,682.9,318.9z"/>
	<path fill="#5BA13F" d="M875.2,359.4c0.3,0.6,0.5,1.3,0.8,1.8c3.5,5.8,2,17.9-3.3,22.1c-1.9,1.5-4.8,2.3-7.2,2.3
		c-3.1,0.1-6.2-1-9.2-1.6c-4.3-0.8-7.5,0.8-8.2,5.1c-1,6-1.8,12.1-2.1,18.2c-0.6,11.2-0.6,22.5-1.1,33.7c-0.5,11.6-1.3,23.1-2,34.7
		c-0.7,12.7-1.2,25.5-2.1,38.2c-0.8,11.7-1.9,23.4-3,35.1c-0.4,4.2-2.2,7.8-5.4,10.8c-2.8,2.7-5.7,2.4-8.6,0.8
		c-2.2-1.2-4.5-6.7-3.3-8.7c0.9-1.4,2.9-2.7,4.6-3.1c5.5-1.1,6.6-2.2,6.8-7.7c0.6-14.1,1.3-28.1,2-42.2c0.6-11.6,1.3-23.1,2-34.7
		c0.9-14.9,2-29.7,2.9-44.6c0.4-6.9,0.7-13.9,1-20.9c0.4-8.6,0.8-17.2,1-25.9c0.1-3.4,1.6-4.6,4.6-4.1c5.6,0.8,11.1,1.7,16.6,2.5
		c1.3,0.2,2.6,0.4,3.9,0.4c4.5,0,5.4-1,5.9-5.4c0.2-2.2,0.9-4.3,1.4-6.5C873.9,359.8,874.6,359.6,875.2,359.4z"/>
	<path fill="#71C151" d="M503.9,473c-1.4,0.3-2.8,0.9-4.2,0.9c-6.1,0.1-12.2,0.1-18.4,0c-4.4-0.1-4.9-0.9-3.6-5.1
		c0.5-1.7,1.4-3.3,2.1-4.9c2.2-2.7,5.7-2.3,8.5-3.6c3.9-1.7,7.3-4.4,11.5-5.4c3.9-1.3,7.7-3,11.7-3.9c5-1.1,10.2-1.2,15.2-2.2
		c5.1-1,7.3-3.5,7-8.6c-0.4-6.6-1.4-13.1-2.2-19.7c-0.6-5.2-1.5-10.5-1.7-15.7c-0.3-7.6-0.5-15.2,0.1-22.7c0.5-5.4,2.4-10.7,3.6-16
		c0.5,0,1.1,0,1.6,0c1.2,5,2.6,9.9,3.5,15c2,11.7,3.8,23.4,5.7,35.2c1.5,9.5,2.9,18.9,4.4,28.4c0.2,1.3,1,2.5,1.1,3.8
		c0.2,1.8-0.1,3.7-0.1,5.5c-2.3,0.4-1.7-2.5-3.6-3.2c-5,11.5-15.2,13.3-26,13.5c-7.2,0.2-14.3,0.5-20.8,3.9
		c-0.9,0.4-1.8,0.8-2.4,1.7C499,472,503.1,468.9,503.9,473z"/>
	<path fill="#5BA13F" d="M499.9,454.9c-5.7,5.2-12.6,7.5-20,9c8.2-21.7,16.4-43.3,24.5-65c4.6-12.2,8.9-24.5,13.4-36.7
		c1.7-4.7,3.7-9.4,5.6-14.1c0.5,0,1.1-0.1,1.6-0.1c0.7,2.4,1.7,4.7,1.9,7.1c0.9,11.6-1,22.8-4.8,33.7c-6.2,17.7-12.5,35.3-19,52.8
		c-1.1,3-3.2,5.7-4.9,8.6C498.7,451.7,499.3,453.3,499.9,454.9z"/>
	<path fill="#71C151" d="M683.9,412.9c0-5.6-0.1-11.2,0-16.8c0-1.8,0.6-3.5,1-5.2c2.3,7.5,4.8,15,6.9,22.7
		c7.2,26.3,14.3,52.7,21.4,79c4.9,18.5,9.7,37.1,14.5,55.6c0.1,0.3-0.1,0.6-0.2,1.2c-3.5,1.6-5.2-1.1-6.5-3.4
		c-1.9-3.5-3.8-7.1-4.9-10.9c-4-13.8-7.7-27.7-11.5-41.6c-4.4-16.1-8.9-32.1-13.1-48.3C688.8,434.5,686.4,423.7,683.9,412.9z"/>
	<path fill="#7DC660" d="M759.9,332c-1.3,0-2.7,0-4,0c-3.3,0-4.9,1.5-5,4.8c-0.6,11.4-1.3,22.8-2,34.2c-1,15.7-2,31.4-3,47
		c-0.6,9.6-1.2,19.1-2,28.7c-0.9,12-2,24-2.9,36.1c-0.5,7.8-0.8,15.6-1.1,23.3c-0.1,1.8,0,3.5-0.7,5.4c-3.3-6.8-4.3-14.1-5.3-21.5
		c-1.3-9.7,0.8-19.2,1.2-28.8c0.6-13.3,1.4-26.6,2.3-39.8c1.3-18.7,2.1-37.5,3.7-56.2c0.8-10.1,0.9-20.3,2.4-30.3
		c0.6-4,1.7-7.8,4.6-10.9c2.7-2.9,6.4-3.3,9.5-1.3C761,324.9,761.7,327.7,759.9,332z"/>
	<path fill="#71C151" d="M320,157c0.3,0.7,0.6,1.3,0.9,2c-2.3,7.9-4.6,15.7-6.9,23.5c-2.5,8.3-5.2,16.6-7.7,25
		c-2.3,7.9-4.2,15.8-6.5,23.7c-1.5,5.4-3.4,10.7-5,16c-1.2,3.9-2.4,7.9-3.4,11.8c-1.3,5.1-2.1,10.3-3.6,15.3
		c-1.3,4.5-3.4,8.8-4.9,13.3c-1.1,3.2-2,6.6-2.9,9.9c-1.4,5.2-2.6,10.5-4.1,15.7c-1.6,5.3-3.6,10.5-5.3,15.8
		c-1.3,3.9-2.4,7.9-3.5,11.8c-2.5,8.9-4.8,17.8-7.5,26.6c-1.4,4.7-3.6,9.1-5,13.7c-1.8,6-3,12.1-4.7,18.1c-1,3.8-2.5,7.4-3.6,11.1
		c-3.1,9.9-6.2,19.9-9.3,29.8c-4.5,14.1-9.1,28.2-13.7,42.3c-1,2.9-2.2,5.8-3.3,8.6c0.6-3.9,0.5-8.2,2.1-11.7
		c2.8-5.9,3.6-12.1,5-18.3c0.2-1,0.3-2,0.8-2.8c4.6-7.8,4.8-16.9,7.7-25.2c0.9-2.6,2.3-5,3.5-7.6c0.4-0.9,1-1.9,0.9-2.7
		c-0.8-6.8,3-12.5,4.6-18.7c2.9-10.5,6.1-20.9,9.3-31.3c2.8-9,5.9-17.9,8.6-26.9c2.7-9,4.9-18.1,7.6-27.1c2.1-7.3,4.6-14.5,6.8-21.8
		c3.5-11.7,6.8-23.5,10.3-35.1c2.7-8.8,5.8-17.6,8.5-26.4c3.5-11.5,6.7-23.2,10.3-34.7c2.9-9.6,6.1-19.2,9.2-28.7
		C316.7,166.9,318.3,162,320,157z"/>
	<path fill="#7DC660" d="M1007.8,373.4c-1.2,0.2-2.2,0.5-3.1,0.5c-5.3,0.3-5.9,0.9-6.8,5.8c-3.2,17.2-6.5,34.4-9.6,51.6
		c-3.2,17.4-6.2,34.8-9.4,52.1c-2.6,14.3-5.5,28.5-8.3,42.8c-0.1,0.5-0.8,1-2.1,2.5c-0.7-2.8-1.7-4.8-1.5-6.6
		c1.3-10,2.6-19.9,4.3-29.9c2.4-14.1,5-28.2,7.6-42.3c2.1-11,4.3-22,6.4-33c1.9-10,3.6-20.1,5.6-30.2c1.2-6.1,3.1-12.1,4.5-18.2
		c0.8-3.2,2.4-5,5.9-4.6c3.2,0.4,5,2.3,5.5,5.4C1007.1,370.7,1007.5,371.9,1007.8,373.4z"/>
	<path fill="#7DC660" d="M965.8,367.9c-9.8-1.6-19.5-3.3-29.3-4.9c-3.6-0.6-5.8,0.8-6.3,4.4c-0.1,0.8-0.3,1.6-0.3,2.5
		c-0.4,11.3-0.6,22.6-1,33.8c-0.6,17.9-1.3,35.8-2,53.7c-0.3,8.3-0.6,16.6-1,24.8c-0.7,14.9-1.3,29.8-2,44.7c-3.5,1.6-4.1-1-4.3-3.3
		c-0.3-5.3-0.9-10.6-0.5-15.8c1.1-15.8,1.8-31.7,1.8-47.6c0-2.1-0.5-4.3,1-6.2c0-0.7,0-1.3,0-2c0.6-29.1,1.6-58.1,3.6-87.1
		c0.6-8.9,4.4-12.1,13.2-11.4c7,0.5,13.9,2,20.6,3.8C965.1,358.8,967.2,362.7,965.8,367.9z"/>
	<path fill="#5BA13F" d="M963.5,460.1c0.8-4,1.5-7.4,2.2-10.8c0.9,0.2,1.4,0.1,1.5,0.3c3.8,6.2,1.9,17.8-3.6,21
		c-1.3,0.8-3,1.2-4.6,1.3c-3.8,0.2-7.6,0.1-11.5,0.1c-3.1,0-5,1.8-5.7,4.6c-0.7,3-1,6.2-1.1,9.3c-0.4,13.6-0.6,27.2-1.1,40.8
		c-0.2,4.9-1,9.8-2.1,14.7c-0.5,2.3-1.9,4.6-3.4,6.5c-2.4,3-5,2.7-7.4-0.4c-3.4-4.4-2.4-8.1,2.9-9.5c3-0.8,4-2.5,4-5.3
		c0.3-12.6,0.6-25.2,1-37.8c0.3-9.8,0.6-19.5,1.1-29.3c0.1-1.8,0.8-3.5,1.4-5.5C946,460.1,954.4,460.1,963.5,460.1z"/>
	<path fill="#71C151" d="M759.9,332c-0.2-2,0.2-4.3-0.7-5.8c-1.2-1.7-3.6-3.7-5.4-3.7c-2,0.1-4.5,1.9-5.8,3.7
		c-3.5,4.9-3.5,11-4,16.7c-1.2,14-2.1,28-3,42c-0.5,6.9-0.7,13.9-1.1,20.8c-0.7,13.7-1.3,27.4-2.1,41.2c-0.5,9-1.2,18-2,27
		c-0.5,5.3-1.3,10.7-2,16c-3.6-2.2-1.9-5.8-1.9-8.6c0-6.2,0.5-12.4,0.9-18.6c0.3-4.9,0.7-9.9,0.9-14.8c0.2-3.7-0.1-7.5,0.1-11.2
		c0.3-7.8,0.5-15.6,1-23.3c0.9-13,1.9-26,2.9-39c0.4-5.4,0.7-10.9,1.1-16.3c0.7-10.1,0.9-20.2,2.3-30.1c0.6-4,3.3-7.9,5.8-11.3
		c2.4-3.2,6.7-3.7,9.9-1.5c4.6,3,8,7,8.8,12.7C766.3,332,764.2,333.5,759.9,332z"/>
	<path fill="#71C151" d="M1070.3,391.8c-0.8-0.3-1.4-0.4-1.6-0.7c-4.5-8.1-12.5-8.3-20.2-9.1c-3-0.3-4.6,0.8-4.6,4.2
		c-0.2,10.8-0.7,21.5-0.9,32.3c-0.4,15.8-0.7,31.5-1,47.3c-0.3,12.9-0.6,25.9-1,38.8c-0.2,5.3-0.9,10.5-1.3,16
		c-3.1-0.4-2.6-2.6-2.6-4.4c0-11.2-0.1-22.3,0-33.5c0.2-16.4,0.6-32.9,1-49.3c0.3-12.4,0.5-24.9,1-37.3c0.3-6.4,0.7-12.9,2-19.2
		c1.2-5.9,3.7-6.5,9.5-5.7c11.3,1.5,17.3,8.1,19.8,18.6C1070.4,390.4,1070.3,391,1070.3,391.8z"/>
	<path fill="#7DC660" d="M826.9,376c-0.7,15.2-1.3,30.4-2,45.6c-0.6,11.6-1.2,23.1-2,34.7c-0.9,14.3-2,28.7-2.9,43
		c-0.5,7.9-0.7,15.9-1.1,23.8c-0.2,4.3-0.6,8.6-1,12.8c-4.5,1.7-4.7-2-5.1-4.5c-0.9-5.4-0.5-10.9-0.1-16.4c1-14.7,1.8-29.5,2.6-44.2
		c1.2-20.5,1.9-41.1,3.8-61.6c0.5-5.5,0.2-11,0.3-16.4c0.1-5.1,1.4-9.9,3.1-14.6C823.2,376.1,824.3,374.5,826.9,376z"/>
	<path fill="#71C151" d="M793.9,346.9c-0.3,3.2-0.6,6.5-0.9,9.9c-5.7-0.5-6.4-4.8-6.8-7.9c-0.8-7.4-1.3-15,2.8-21.7
		c1.1-1.9,3.6-3.8,5.6-4.1c3.9-0.5,7.9-0.1,11.8,0.6c16.4,2.9,32.7,6,49,9.3c5.1,1,10.9,1.7,13.6,7c1.3,2.6,1.4,6,1.5,9.1
		c0,0.6-2.5,1.2-3.8,1.8c-1.9-7.1-7.5-9-13.9-10.1c-16.6-2.7-33.1-5.8-49.6-8.8c-3.9-0.7-7.6-0.7-9.6,3.2
		C791.8,339,791.1,343.1,793.9,346.9z"/>
	<path fill="#7DC660" d="M793.9,346.9c-0.9-0.3-2.3-0.3-2.6-0.9c-2.4-4.3,0.1-12.7,4.6-14.9c1.5-0.8,3.6-1.1,5.2-0.8
		c18,3.1,36,6.4,54,9.7c1.8,0.3,3.6,0.7,5.3,1.3c5.6,2.1,6.5,3.5,6.5,9.7c-8.8-1.4-17.5-2.7-26.3-4.2c-14.1-2.4-28.1-5-42.2-7.3
		c-1-0.2-2.8,1.2-3.4,2.3C794.2,343.2,794.2,345.2,793.9,346.9z"/>
	<path fill="#7DC660" d="M503.9,473c-3.3-0.6-6.5-1.1-9.8-1.7c-0.1-0.4-0.2-0.7-0.3-1.1c4.1-3.2,8.7-5.7,14.1-6.2
		c7.9-0.8,15.8-1.2,23.6-2.1c5.9-0.7,9.6-4.9,12.6-9.6c1-1.5,1.6-3.2,2.7-5.6c1.2,2.8,2.1,5,3.1,7.3c0,1,0,2,0,3c0.9,0.8,1,1.9,1,3
		c0,1,0,2,0,3c0.9,0.8,0.9,2.3,1.9,3.1c0,1.2,0,2.3,0,3.5c0.3,3.1-1,4.5-4.3,4.5c-12-0.1-23.9,0-35.9-0.1
		C509.8,473.8,506.9,473.3,503.9,473z"/>
	<path fill="#71C151" d="M826.9,376c-1,0.8-2.7,1.4-2.9,2.3c-1.2,6.1-2.5,12.3-3,18.5c-1,13.7-1.4,27.5-2.1,41.2
		c-0.2,4.5-0.7,8.9-0.9,13.4c-1,15.2-2.1,30.4-2.9,45.6c-0.6,10.9-0.9,21.9-1,32.8c0,2.5-0.6,6.1,3.9,6.1c0,1.8,0.2,3.7-0.1,5.5
		c-0.2,1.2-1.1,3.1-1.7,3.1c-1.3,0-3.3-0.8-3.6-1.7c-1.2-3.7-2.6-7.6-2.5-11.5c0.3-12.1,1.2-24.1,1.8-36.1c0.1-2-0.1-4,0.1-6
		c1-15,2-30,2.9-45c0.4-6.4,0.8-12.7,1-19.1c0.4-8.4,0.5-16.9,1.1-25.3c0.6-8,1.3-16.1,3.9-23.8c-0.9-3.7,0.5-6.5,3-9
		c3.3-0.1,4.5,1.4,3.7,4.7C827.2,373,827.1,374.5,826.9,376z"/>
	<path fill="#5BA13F" d="M1011.2,382.2c2.9,2.9,3.1,6.9,3.6,10.6c1.5,11.5,2.7,22.9,3.9,34.4c0.8,7.7,1.3,15.5,2.2,23.2
		c0.6,6.1,1.6,12.1,2.3,18.2c0.5,3.8,1,7.5,1.4,11.3c0.8,7.1,1.4,14.1,2.2,21.2c0.9,8.9,2.2,17.7,2.6,26.6c0.1,3.6-1.2,7.5-2.9,10.8
		c-1.8,3.4-4.4,3.2-6.6-0.1c-1-1.4-1.6-3.3-2-5c-0.5-2.4,0.2-4.1,3.2-4.5c4.4-0.7,5-2.3,4.5-6.5c-1.1-7.8-1.9-15.7-2.7-23.6
		c-1.1-9.7-2.1-19.4-3.2-29.1c-0.9-7.5-1.8-15.1-2.8-22.6c-1.3-10.3-2.6-20.6-3.8-31c-0.9-7.7-1.5-15.5-2.2-23.2
		c-0.3-3.5-0.7-7-1-10.4C1010.3,382.4,1010.8,382.3,1011.2,382.2z"/>
	<path fill="#5BA13F" d="M937.9,432c0.3-14.3,0.6-28.6,1.1-42.8c0.1-1.9,0.8-3.8,1.3-6.3c4.7,0.4,9.1,0.7,13.5,1.3
		c3.1,0.4,6.2,1.1,9.2,1.7c3.7,0.6,5.5-0.8,6-4.7c0.2-1.7,0.6-3.3,1-5.5c1.3,0.8,2.2,1.1,2.3,1.5c0.9,5.9,1.9,11.9-1.7,17.3
		c-1.6,2.4-3.7,3.8-7.2,3c-3.8-0.9-7.8-1.1-11.8-1.4c-3.7-0.3-6,1.5-6.7,5.1c-0.4,1.9-0.9,3.9-0.9,5.8c-0.1,7.6-0.2,15.2-3,22.5
		c-0.3,0.7-0.1,1.7-0.1,2.5C939.9,432.8,938.9,432.7,937.9,432z"/>
	<path fill="#71C151" d="M560.1,515.1c0.9,4.6,2,9.2,2.7,13.8c1.7,10.7,3.4,21.5,4.9,32.2c0.3,2.3,1.4,5.4-1.8,6.5
		c-2.8,1-5.3-0.1-6.7-2.9c-1.7-3.4-3.9-6.7-4.9-10.3c-2.2-8.6-5.1-17.4-3.2-26.4c1-4.7,4.3-8.9,6.6-13.4
		C558.6,514.9,559.3,515,560.1,515.1z"/>
	<path fill="#5BA13F" d="M1011.4,489c0.6,8-2,10.9-9.1,11c-0.8,0-1.7,0-2.5,0c-8,0-9.8,1.2-11.5,9.2c-1.4,6.8-2.1,13.7-3.6,20.4
		c-0.9,4-2.4,7.9-4.1,11.6c-0.6,1.3-2.9,2.7-4.2,2.5c-1.3-0.2-3-2.1-3.3-3.5c-0.4-2-1.3-5.1,1.8-6c3.2-0.9,3.9-3.2,4.4-5.9
		c1.8-10.4,3.7-20.7,5.6-31.1c0.3-1.8,0.3-3.7,1.1-5.3c0.6-1.2,2.1-2.7,3.3-2.8C996.5,488.8,1003.8,489,1011.4,489z"/>
	<path fill="#5BA13F" d="M1074.8,402.3c0.7,3.9,1.6,7.8,2,11.7c0.9,9.9,0.6,19.7-1,29.5c-0.5,3.4-0.8,7.2-2.5,10
		c-4.5,7.4-2.8,14.8-1.4,22.5c2,11.2,3.4,22.5,4.9,33.7c0.6,5.1,0.8,10.2,1,15.3c0.1,1.8-0.2,3.8-1.1,5.3c-0.9,1.5-2.7,3.1-4.2,3.3
		c-1,0.1-3.1-2.1-3.3-3.5c-0.3-1.8,0.2-5.3,1.3-5.6c5.1-1.8,4.4-5.1,3.7-9.2c-1.2-7-1.3-14.1-2.5-21.1c-2-12.3-1.7-25.1-7.1-36.8
		c-0.5-1.1,0-3.3,0.9-4.4c4.8-6.1,6.7-13.3,7.2-20.8c0.5-8.2,0.1-16.4,0.1-24.7c0-1.6,0-3.3,0-4.9
		C1073.5,402.5,1074.2,402.4,1074.8,402.3z"/>
	<path fill="#71C151" d="M1100.1,389.7c-9.3-0.2-9.2-0.2-9.3,8.7c-0.3,20.9-0.6,41.9-1,62.8c-0.3,15.6-0.6,31.2-1,46.8
		c-0.1,2.8-0.9,5.6-1.3,8.4c-0.5,0-0.9,0-1.4,0c-0.4-4.6-1-9.3-1.1-13.9c-0.1-3.8,0.8-7.6,0.8-11.4c0.1-11.5-0.1-23,0.1-34.5
		c0.2-19.1,0.5-38.2,1.1-57.3c0.1-5.1,1-10.2,2.1-15.2c0.4-1.6,2.7-4,4-4c1.9,0.1,4.1,1.8,5.4,3.4
		C1099.6,385,1099.5,387.3,1100.1,389.7z"/>
	<path fill="#71C151" d="M965.8,367.9c-1.1-7.1-2.7-8.9-9.5-9.9c-6.8-1.1-13.7-2.1-20.5-3.2c-3.9-0.6-7,1.1-7.8,4.8
		c-1,4.5-1.7,9.1-2,13.7c-0.6,7.9-0.8,15.9-1.1,23.8c-0.4,12.3-0.6,24.5-1,36.8c-0.2,5.3-0.6,10.6-1,15.8c-0.1,0.7-0.6,1.4-1,2.2
		c-0.3-1.7-1-3.4-0.9-5.2c0.3-15.5,0.5-31,1-46.6c0.4-12.5,1.2-25,2-37.5c0.2-2.9,1-5.9,2.1-8.6c2.2-5.7,7.3-5.8,12.1-5.1
		c7.5,1.1,15,2.5,22.3,4.4c6.3,1.6,8.7,6.3,7.3,12.7C967.6,366.8,966.5,367.3,965.8,367.9z"/>
	<path fill="#71C151" d="M1002.9,408.9c0.6,0.8,1.8,1.5,1.9,2.4c1.4,12.4,2.7,24.8,4.1,37.2c0.8,6.8,1.9,13.7,2.8,20.5
		c0.1,1.1-0.1,2.2-0.1,3.6c-7.1,0-14,0-21.8,0c0.4-2.4,0.8-4.5,1.2-6.7c1.4-1.5,2.6-3.1,4.5-4.2c7.9-1.7,9.9-6.2,8.4-14
		c-1.1-5.8-1-11.9-2.1-17.8c-0.6-5.5-0.3-11-0.3-16.5C1001.4,411.9,1001.5,410.2,1002.9,408.9z"/>
	<path fill="#7DC660" d="M1134.4,394.8c-5.4-0.7-6.7,2.8-7.3,6.8c-2.4,16.1-4.8,32.3-7.3,48.4c-2.1,13.8-4.2,27.6-6.3,41.4
		c-0.5,0-0.9,0-1.4,0c0-4.3-0.4-8.6,0.1-12.8c1-9.3,2.3-18.6,3.7-27.9c1.7-11.6,3.6-23.1,5.4-34.7c1.1-7.2,2.3-14.3,3.5-21.5
		c0.2-1,0.2-2.1,0.7-2.8c1.3-1.9,1.8-5.4,5-4.5C1133.7,388,1135.5,390.5,1134.4,394.8z"/>
	<path fill="#5BA13F" d="M1041,527.8c5.2-0.9,5.9-4.1,5.9-8.4c0.1-18.3,0.6-36.5,0.9-54.8c0-2-0.1-4.1,2.6-4.6
		c3.1-0.6,5.9,1.1,7.6,4.4c1.2,2.4,0.7,4.7-1.4,5.5c-4.8,1.9-4.8,5.6-4.8,9.7c-0.2,14.1-0.5,28.2-1,42.3c-0.1,3.6-1,7.2-2.1,10.6
		c-0.4,1.3-2.4,3.3-3.2,3.1c-1.4-0.4-2.7-2-3.6-3.4C1041.3,531.2,1041.4,529.7,1041,527.8z"/>
	<path fill="#5BA13F" d="M1134.6,526c-4.5-3-4.7-5.3-2.1-8.6c1.3-1.6,2.2-4,2.2-6.1c0.2-25.3,0-50.6,0.2-75.9
		c0.1-10.4,0.6-20.9,1-31.3c0-0.6,0.3-1.1,0.9-2.8c2.8,8,2.3,15.1,1.7,22.2c-0.2,2-0.6,3.9-0.6,5.9c0,23.8,0,47.6-0.1,71.4
		c0,6.6-0.5,13.2-1,19.8C1136.6,522.5,1135.4,524.2,1134.6,526z"/>
	<path fill="#5BA13F" d="M1097.9,453.9c0,7,0.1,14-0.1,21c-0.3,15.6-0.5,31.2-1.1,46.8c-0.1,3.1-1.7,6.2-2.5,9.2
		c-0.6,0.1-1.2,0.2-1.9,0.2c-1.2-2.1-2.4-4.1-4-6.8c6.9-2.3,5.5-7.7,5.6-12.6c0.3-25.6,0.6-51.2,1.1-76.7c0.1-6.1,0.9-12.3,1.5-18.4
		c0.5,0,1,0,1.5,0c0,4.1,0,8.3,0,12.4C1099.1,437.3,1100.9,445.6,1097.9,453.9z"/>
	<path fill="#71C151" d="M1188.3,492.4c-2.8-16.4-3.2-33-2.2-49.5c0.7-12.1,1.1-24.5,5.7-36.1c0.8-2,1.6-4.1,2.8-5.8
		c3.3-4.6,8.8-4,11.4,1.1c1.3,2.6,2.6,5.3,3.8,8c-0.2,0.3-0.5,0.5-0.7,0.8c-0.9-0.6-1.9-1.2-2.7-1.9c-4.8-5.1-8.7-4.9-11.2,1.7
		c-2.4,6.6-4.7,13.6-5.2,20.6c-1,16.7-0.9,33.6-1.2,50.3c0,2.9,0.7,5.9,0.9,8.9c0.1,0.7-0.3,1.4-0.5,2.2
		C1189,492.4,1188.6,492.4,1188.3,492.4z"/>
	<path fill="#5BA13F" d="M1127.8,460.9c-0.6,1-1.7,1.9-1.9,2.9c-2,13-4,26-5.9,39.1c-0.8,5.5-1.4,11.1-2.2,16.7
		c-0.2,1.5-0.5,3-1.1,4.3c-0.6,1.2-1.7,2.4-2.8,2.9c-0.5,0.3-2.4-0.8-2.6-1.5c-0.3-1.5-0.5-4.2,0.2-4.6c4.3-2.3,3.5-6.7,4.1-10.1
		c2.3-13.3,4.2-26.7,6.1-40c1.7-11.9,3.4-23.8,5.2-35.7c0.2-1,1.3-1.9,1.9-2.8c0.6,0.6,0.9,1.4,0.9,2.2c-0.2,7.9-0.5,15.8-0.6,23.7
		C1129.2,459,1128.8,460.1,1127.8,460.9z"/>
	<path fill="#5BA13F" d="M823.9,366.9c-1,3-2,6-3,9c-0.8,0.3-1.6,0.4-2.3,0.9c-5.7,4.1-15.1,3.1-19.5-2.2c-0.1-0.1-0.3-0.2-0.3-0.4
		c-0.8-3.1-2.9-6.6-2-9.1c1.3-3.7,5.7-2.3,8.8-1.8C811.7,364.4,817.8,365.7,823.9,366.9z"/>
	<path fill="#71C151" d="M1220.4,488.5c-0.5-2.3-1.4-4.6-1.5-7c-0.5-11.3-1.5-22.6-0.9-33.8c0.6-12,0.9-24.2,4.8-35.8
		c0.4-1.1,0.6-2.3,1.2-3.3c1.5-2.7,2.7-6.1,6.7-5.6c3.2,0.5,6.1,6.3,5.4,10.9c-1.8-1.4-3.4-2.7-5.1-3.9c-6.8,3.3-6.7,10-8,15.8
		c-2.7,11.2-2.3,22.8-2.1,34.2c0.1,9,0.6,17.9,0.9,26.9c0,0.5-0.4,1.1-0.6,1.6C1220.9,488.5,1220.6,488.5,1220.4,488.5z"/>
	<path fill="#71C151" d="M937.9,432c1,0,2,0,3,0c5.2-4.3,11-3,16.8-2c3.3,0.6,7.2,7.2,5.8,10.1c-0.4,0.8-1.7,1.8-2.6,1.8
		c-7.5-0.2-15.2,1.2-23.1-1.5C937.9,437.5,937.9,434.7,937.9,432z"/>
	<path fill="#5BA13F" d="M1002.9,408.9c0,7.3,0,14.7-0.1,22c-1.1,7.4-2.6,14.7-3.7,22.1c-0.5,3.7-1.6,7.1-4.2,9.9c-1.3,1-2.7,2-4,3
		c1-7.6,1.9-15.3,3.2-22.9c2.1-12.1,4.5-24.2,6.8-36.3c0.3-1.6,0.7-3.2,1-4.8c0.4-0.3,0.7-0.3,1,0
		C1002.9,404.3,1002.9,406.6,1002.9,408.9z"/>
	<path fill="#5BA13F" d="M1194.5,509.4c7.3,3.8,11.3,2.5,13.8-5.8c2.3-7.5,3.7-15.4,4.4-23.3c0.9-11.2,0.8-22.5,1.2-33.8
		c0-1,0.4-2,0.6-3.1c0.4,0,0.8,0,1.1,0c0.1,1.5,0.3,3,0.3,4.6c0,8.7,0.5,17.4-0.1,26c-0.9,12.5-1.3,25.1-6,37
		c-0.2,0.5-0.4,0.9-0.6,1.4c-1.5,4.2-5.6,7.8-8.4,7.4C1197.2,519.2,1194.4,514.5,1194.5,509.4z"/>
	<path fill="#71C151" d="M1127.8,460.9c0.4-9.7,0.7-19.3,1.1-29c0.4-5-0.8-10.2,0.9-15c0.5,0,1,0,1.4,0.1
		c-0.4,31.8-0.8,63.6-1.2,95.4c-0.5,0.1-1,0.2-1.4,0.4c-0.6-1.5-1.6-2.9-1.6-4.4c-0.1-12-0.1-24,0-36
		C1127,468.5,1127.5,464.7,1127.8,460.9z"/>
	<path fill="#5BA13F" d="M1050.9,438c-0.7-0.8-1.9-1.6-1.9-2.3c0.3-12.7,0.7-25.5,1.1-39.3c4.1,1.2,7.6,1.8,10.7,3.3
		c2.1,1.1,3.7,3.4,2.5,6.3c-1.1,2.7-2.8,3-5.6,2.5c-3.5-0.7-4.2,2.6-4.7,5.1c-0.4,1.7,0,3.6-0.1,5.5c-0.3,6-0.6,11.9-1,17.8
		C1052.1,437.8,1051.8,438.2,1050.9,438z"/>
	<path fill="#71C151" d="M1097.9,453.9c0-8.3,0-16.7,0-25c0.6,0.6,1.8,1.2,1.9,1.9c1.1,9.5,2.1,19,3.1,28.5
		c1.2,10.5,2.5,20.9,3.7,31.4c0.7,6.2,1.5,12.4,2.2,18.6c0.2,1.7,0,3.4,0,5.1c-0.6,0-1.1,0.1-1.7,0.1c-0.7-3.7-1.7-7.4-2.2-11.1
		c-1.2-9.8-2.1-19.7-3.1-29.5c-0.6-6.1-1.3-12.1-2.1-18.2C1099.6,455.1,1098.5,454.5,1097.9,453.9z"/>
	<path fill="#71C151" d="M1162.2,441.6c-2.6-9-3.2-17.8-1.6-26.7c0.9-4.7,1.4-9.5,2.4-14.1c0.9-4.1,3.5-7.1,7.5-8.6
		c6.4,3.3,7.3,4.5,7.9,11.4c-0.7-0.2-1.3-0.2-1.8-0.5c-4.8-3.4-8.8-2.5-10.7,3.2c-1.6,5-2.5,10.2-3,15.5c-0.5,5.4-0.1,11-0.1,16.4
		C1162.8,439.4,1162.4,440.5,1162.2,441.6z"/>
	<path fill="#7DC660" d="M1050.9,438c0.3-0.3,0.7-0.7,1-1c7.9-2.6,10.5-5.9,11-13.8c0.1-2.1,0.8-4.2,0.9-6.4c0.2-2.1,0-4.2,0-6.2
		c0.4-0.1,0.8-0.2,1.2-0.3c0.6,1,1.7,2.1,1.6,3.1c-0.3,7.4-0.1,15-1.4,22.2c-1.4,7.5-6.9,13.4-16.5,8.5
		C1049.5,442.1,1050.2,440,1050.9,438z"/>
	<path fill="#5BA13F" d="M1163.5,512.8c1.2,0.5,1.9,0.7,2.6,1c4.3,2.2,7.4,1.5,9.6-2.7c1.4-2.8,2.3-5.8,3.1-8.8
		c2.4-8.4,2.1-17.1,2-25.7c0-1.7,0.2-3.4,0.2-5.1c0.4,0,0.8,0,1.2,0c0.5,4.8,1.8,9.6,1.3,14.3c-0.8,9-2.4,18-3.9,26.9
		c-0.4,2.2-1.4,4.4-2.7,6.3c-1.8,2.6-4,5-7.9,3.6C1165.6,521.3,1163.1,517.5,1163.5,512.8z"/>
	<path fill="#5BA13F" d="M1193.5,483.4c-0.2-0.6-0.5-1.1-0.6-1.7c-0.4-9.6-1.2-19.2-0.9-28.8c0.3-9,1.8-18.1,2.9-27.1
		c0.2-1.5,0.7-2.9,1.2-4.3c1.1-2.5,2.3-5.4,5.6-4.4c3,1,4.9,3.4,3.8,7c-7.6,1.9-9.2,3.9-9.6,13.9c-0.6,13.3-0.7,26.6-1.1,39.8
		c0,1.8,0,3.6,0,5.3C1194.4,483.3,1193.9,483.4,1193.5,483.4z"/>
	<path fill="#71C151" d="M1251.9,500.4c0-3.9-0.2-7.7,0.1-11.6c0.4-5.7,1.4-11.5,1.8-17.2c0.8-10,1.2-20.1,2.1-30.2
		c0.8-9.4,1.9-18.7,3-28c0.1-1.1,0.8-2.2,1.2-3.4c0.4,0,0.8-0.1,1.3-0.1c0.8,1.6,1.6,3.2,2.4,4.9c-0.5,0-0.9-0.1-1.4-0.1
		c-0.9,2.9-2.2,5.8-2.5,8.8c-1.2,10.7-2.1,21.3-3,32c-0.5,6.1-0.7,12.2-1.1,18.3c-0.7,8.9-1.5,17.7-2.3,26.5
		C1253,500.4,1252.4,500.4,1251.9,500.4z"/>
	<path fill="#71C151" d="M1196.1,492.4c8.1-1.1,10.3-4.1,10.7-15c0.4-12.3,0.7-24.6,1-36.9c0-1.4,0.2-2.7,0.4-4.1c0.4,0,0.7,0,1.1,0
		c0.2,1.2,0.5,2.3,0.5,3.5c0,12.3,0.4,24.7-0.1,37c-0.3,6.2-2.1,12.3-3.6,18.4c-0.7,2.8-2.3,5.7-5.9,4.5
		C1196.9,498.7,1195.7,496.1,1196.1,492.4z"/>
	<path fill="#5BA13F" d="M1236.8,428.3c0.8-1.8,1.3-2.8,1.8-3.9c0.2,0,0.5,0,0.7,0.1c0,3,0,6.1,0,10.5c-1.8-1.7-2.6-2.7-3.7-3.4
		c-1.4-1-3.2-2.5-4.4-2.3c-1.3,0.3-2.9,2.4-3.1,3.9c-1,6-1.8,12.1-2.1,18.2c-0.4,7.1-0.1,14.3-0.1,21.5c0,1.5-0.2,3.1-0.2,4.6
		c-0.4,0-0.8,0-1.1,0c-0.2-0.8-0.6-1.7-0.6-2.5c0-10.5-0.4-21,0.1-31.5c0.2-5.7,1.5-11.4,3-17c0.5-2,2.8-3.6,4.3-5.4
		c1.4,1.5,2.9,2.9,4.3,4.4C1236,426,1236.2,426.9,1236.8,428.3z"/>
	<path fill="#71C151" d="M921.9,453.9c0,8.3,0.2,16.6-0.1,24.9c-0.4,11.2-1.4,22.3-1.8,33.4c-0.2,4.2,0.4,8.5,1,12.8
		c0.1,0.7,1.8,1.2,2.8,1.9c-0.4,2.6-0.8,5.2-1.3,8c-4.3-1-4.5-4.6-4.5-7c-0.1-8.1,0.4-16.2,0.7-24.3c0-1,0.1-2,0.1-3
		c0.3-14.3,0.6-28.5,1.1-42.8C920,456.5,921.2,455.2,921.9,453.9z"/>
	<path fill="#5BA13F" d="M1248.6,419.5c0.1,1.7,0.2,3.4,0.2,5.1c0,21,0,41.9,0.1,62.9c0,3.3,0.5,6.6,0.9,9.9c0.5,5-0.7,9.6-1.7,14.3
		c-0.5,0.1-1,0.1-1.5,0.2c-0.5-1.4-1.7-3.4-1.2-3.9c2.6-3,1.5-6.4,1.5-9.5c0.1-24.5,0.1-48.9,0.1-73.4c0-1.8,0-3.6,0-5.3
		C1247.4,419.6,1248,419.5,1248.6,419.5z"/>
	<path fill="#71C151" d="M1275.3,411.7c3.2,1.9,2.7,3.9,2.1,6.1c-0.6,2.2-1.4,4.4-1.4,6.6c-0.1,15-0.2,30,0,44.9
		c0.1,7.8,0.6,15.6,0.9,23.3c0.1,1.6-0.1,3.2-0.2,4.7c-0.5,0.1-0.9,0.1-1.4,0.2c-0.5-2.1-1.3-4.1-1.3-6.2c-0.1-24.6-0.1-49.3,0-73.9
		C1273.9,415.7,1274.7,413.9,1275.3,411.7z"/>
	<path fill="#71C151" d="M1246.1,407.3c-2.9,31.3-0.3,62.7-1.6,94c-0.4,0-0.8,0-1.2,0.1c-0.2-1.2-0.5-2.4-0.5-3.5
		c0.1-29.8,0.2-59.5,0.4-89.3c0-0.5,0.8-0.9,1.2-1.4C1245,407.2,1245.6,407.3,1246.1,407.3z"/>
	<path fill="#71C151" d="M1159.5,503.3c-1.5-6.5-0.9-12.7,1.7-16.5c1.2,1.5,2,3.1,3.4,4.2c1.5,1.1,3.5,2.6,5,2.3
		c1.4-0.3,3-2.4,3.5-4.1c1-3.3,1.2-6.8,1.8-10.2c0.2-1.2,0.3-2.4,1.1-3.5c0.7,8.4,2.6,16.9-2.3,24.8c-2.2,3.6-5,3.6-7.5,0.2
		c-0.8-1.1-1.5-2.2-2.2-3.3c-0.6-1-1.2-1.9-2.8-2.9c-0.2,3-0.5,6.1-0.7,9.1C1160.2,503.4,1159.9,503.4,1159.5,503.3z"/>
	<path fill="#5BA13F" d="M1172.4,411.7c2.3,2.8,4.3,5.3,7,8.6c0.3-3.3,0.6-6.1,0.9-9.7c2.7,6.2,1.9,13.3-1.4,15.3
		c-0.4-0.4-0.8-0.9-1.3-1.3c-1.6-1.2-3.3-2.3-5-3.5c-0.9,1.8-2.2,3.5-2.8,5.5c-0.8,2.5-1.1,5.2-1.8,8.5
		C1164.9,426.2,1166.6,416.4,1172.4,411.7z"/>
	<path fill="#71C151" d="M192,753.9c-0.9,0.7-1.8,1.7-2.8,1.9c-7,1.9-14.1,3.3-21,5.6c-5.3,1.8-10.4,4.3-15.2,7.1
		c-4.9,2.9-9.4,6.7-14.1,9.9c-1.9,1.3-3.9,2.3-5.9,3.4c2.3-2.4,4.3-5.3,7-7.2c15.1-11,32-17.9,50.5-20.7
		C191,753.8,191.5,753.9,192,753.9z"/>
	<path fill="#5BA13F" d="M1265.5,481.5c0.8,3.8,0.7,6.5-4.1,6.7c-0.9,0-2.3,2.2-2.4,3.5c-0.6,4.7-0.7,9.5-1.2,14.3
		c-0.2,1.7-1.1,3.4-1.6,5.1c-0.6-0.1-1.1-0.1-1.7-0.2c-0.2-1.3-0.9-2.8-0.4-3.8c3-6,2.1-12.6,2.6-18.8
		C1257.3,480.6,1257.2,480.3,1265.5,481.5z"/>
	<path fill="#5BA13F" d="M1238.6,495.5c1.8,5.6,1.6,11-1.6,15.8c-1.3,1.9-3.7,4.3-5.5,4.2c-1.8-0.1-3.6-2.8-5.1-4.6
		c-0.8-1.1-0.9-2.7-1.6-4.7c1.1,0.3,1.7,0.3,2.1,0.6c4.3,3.1,6.7,2.7,8.8-2.1C1237.2,501.8,1237.7,498.6,1238.6,495.5z"/>
	<path fill="#5BA13F" d="M1105.8,336c7.2,1.7,14.5,3.1,21.6,5.1c8.5,2.4,16.9,5.2,25.4,7.9c-6.5-1.5-13.1-2.8-19.6-4.4
		c-7.9-2-15.8-4.3-23.7-6.6C1108.2,337.6,1107.1,336.7,1105.8,336z"/>
	<path fill="#71C151" d="M1227.3,489.7c6,3.6,6-3.5,9.3-4.8c1.4,3.7-1.2,11.7-4.2,12.6c-1,0.3-3-0.5-3.7-1.4
		c-1.1-1.5-1.4-3.5-2.1-5.3C1226.9,490.4,1227.1,490,1227.3,489.7z"/>
	<path fill="#5BA13F" d="M1286.6,498c1.8,7.4,0.1,10.4-4.8,11.6c-2.8,0.7-4.3-0.6-4.8-2.9c-0.6-2.7,1.7-3.6,3.7-3.5
		C1283.7,503.1,1286.1,502.8,1286.6,498z"/>
	<path fill="#5BA13F" d="M1084.9,330c4.4,1.3,8.7,2.6,13.1,4C1093,334.4,1088.9,332.5,1084.9,330z"/>
	<path fill="#5BA13F" d="M1213.3,439.4c0-2.3,0-4.6,0-6.8c0.4,0,0.8,0,1.2-0.1c0.1,2.3,0.2,4.6,0.3,6.8
		C1214.3,439.3,1213.8,439.4,1213.3,439.4z"/>
	<path fill="#71C151" d="M500.9,332c1.3-3,2.7-6,4-9C503.6,326,502.3,329,500.9,332z"/>
	<path fill="#71C151" d="M415,545c1.3-2.3,2.6-4.7,3.9-7C417.9,540.4,418.5,543.8,415,545z"/>
	<path fill="#71C151" d="M215,748.9c-1.4,3.2-4.6,2.3-7,2.9C209.4,748.7,212.5,749.6,215,748.9z"/>
	<path fill="#71C151" d="M519.9,292c1.6-2.7,3.7-2.5,6-1C523.9,291.3,521.9,291.6,519.9,292z"/>
	<path fill="#71C151" d="M200,752.9c-1.9,1.2-3.6,2.9-6,1C196,753.6,198,753.2,200,752.9z"/>
	<path fill="#71C151" d="M423,525.9c1-1.7,2-3.4,3-5C424.9,522.6,423.9,524.3,423,525.9z"/>
	<path fill="#5BA13F" d="M1099.8,334c1.7,0.6,3.4,1.3,5.1,1.9C1103.1,335.5,1100.5,337.2,1099.8,334z"/>
	<path fill="#71C151" d="M430,508c1-1,2-2,2.9-3C431.9,505.9,430.9,506.9,430,508z"/>
	<path fill="#71C151" d="M318,726.9c-1,0.6-2,1.3-3.1,1.9C315.9,728.2,317,727.6,318,726.9z"/>
	<path fill="#71C151" d="M238,743.9c-0.4,2.1-1.3,2.7-3,1C236,744.6,237,744.2,238,743.9z"/>
	<path fill="#71C151" d="M266,738.9c-1,0.3-2,0.7-3,1C263.4,737.7,264.3,737.2,266,738.9z"/>
	<path fill="#71C151" d="M252,741.9c-1,0-2,0-3,0C250,741.9,251,741.9,252,741.9z"/>
	<path fill="#71C151" d="M346,721.9c-1,0-2,0-3,0C344,721.9,345,721.9,346,721.9z"/>
	<path fill="#71C151" d="M552.9,466c-0.6-1-1.3-2-1.9-3.1C551.6,463.9,552.3,464.9,552.9,466z"/>
	<path fill="#71C151" d="M454.9,698.9c-1,0-2,0-3,0C452.9,698.9,453.9,698.9,454.9,698.9z"/>
	<path fill="#71C151" d="M271,736.9c-1,0.6-2,1.3-3,1.9C268.9,738.2,270,737.6,271,736.9z"/>
	<path fill="#71C151" d="M551,459.9c-0.3-1-0.7-2-1-3C552.1,457.3,552.6,458.3,551,459.9z"/>
	<path fill="#71C151" d="M224,746.9c-1,0.6-2,1.3-3,1.9C222,748.2,223,747.6,224,746.9z"/>
	<path fill="#71C151" d="M496.9,689.9c-0.7,0.3-1.4,0.6-2,1C495.6,690.5,496.3,690.2,496.9,689.9z"/>
	<path fill="#71C151" d="M468.9,695.9c-0.7,0-1.3,0-2,0C467.6,695.9,468.3,695.9,468.9,695.9z"/>
	<path fill="#71C151" d="M464,695.9c-0.7,0.6-1.4,1.3-2.1,1.9C462.6,697.2,463.3,696.6,464,695.9z"/>
	<path fill="#71C151" d="M458.9,697.9c-0.7,0.3-1.4,0.6-2,1C457.6,698.5,458.3,698.2,458.9,697.9z"/>
	<path fill="#71C151" d="M450,698.9c-0.2,1.2-0.4,2.6-2,1C448.6,699.6,449.3,699.3,450,698.9z"/>
	<path fill="#71C151" d="M435,701.9c-0.7,0.6-1.4,1.3-2.1,1.9C433.6,703.2,434.3,702.6,435,701.9z"/>
	<path fill="#71C151" d="M416,705.9c-0.7,0.6-1.4,1.3-2.1,1.9C414.6,707.2,415.3,706.6,416,705.9z"/>
	<path fill="#71C151" d="M402,709.9c-0.7,0-1.3,0-2,0C400.6,709.9,401.3,709.9,402,709.9z"/>
	<path fill="#71C151" d="M397,709.9c-0.7,0.6-1.4,1.3-2.1,1.9C395.6,711.2,396.3,710.6,397,709.9z"/>
	<path fill="#71C151" d="M388,711.9c-0.2,1.2-0.4,2.6-2,1C386.6,712.6,387.3,712.3,388,711.9z"/>
	<path fill="#71C151" d="M383,712.9c-0.7,0.6-1.4,1.3-2.1,1.9C381.6,714.2,382.3,713.6,383,712.9z"/>
	<path fill="#71C151" d="M379,714.9c-0.7,0.3-1.4,0.7-2,1C377.6,715.5,378.3,715.2,379,714.9z"/>
	<path fill="#71C151" d="M530.9,292c0.7,0.3,1.4,0.6,2,1C532.3,292.6,531.6,292.3,530.9,292z"/>
	<path fill="#71C151" d="M369,716.9c-0.7,0-1.3,0-2,0C367.6,716.9,368.3,716.9,369,716.9z"/>
	<path fill="#71C151" d="M359,717.9c-0.7,0.6-1.4,1.3-2.1,1.9C357.6,719.2,358.3,718.6,359,717.9z"/>
	<path fill="#71C151" d="M355,719.9c-0.7,0-1.3,0-2,0C353.6,719.9,354.3,719.9,355,719.9z"/>
	<path fill="#71C151" d="M350,719.9c-0.7,0.6-1.4,1.3-2.1,1.9C348.6,721.2,349.3,720.6,350,719.9z"/>
	<path fill="#71C151" d="M513,301c0.6-0.7,1.3-1.4,1.9-2C514.3,299.6,513.6,300.3,513,301z"/>
	<path fill="#71C151" d="M336,723.9c-0.7,0.3-1.4,0.7-2,1C334.6,724.5,335.3,724.2,336,723.9z"/>
	<path fill="#71C151" d="M331,724.9c-0.7,0.3-1.4,0.7-2,1C329.6,725.5,330.3,725.2,331,724.9z"/>
	<path fill="#71C151" d="M327,725.9c-0.7,0-1.3,0-2,0C325.6,725.9,326.3,725.9,327,725.9z"/>
	<path fill="#71C151" d="M322,725.9c-0.2,1.2-0.4,2.6-2,1C320.6,726.6,321.3,726.3,322,725.9z"/>
	<path fill="#71C151" d="M509.9,309c0.7-0.7,1.3-1.4,2-2C511.2,307.6,510.6,308.3,509.9,309z"/>
	<path fill="#71C151" d="M308,728.9c-0.2,1.2-0.4,2.6-2,1C306.6,729.6,307.3,729.3,308,728.9z"/>
	<path fill="#71C151" d="M303,729.9c-0.2,1.2-0.4,2.6-2,1C301.6,730.6,302.3,730.3,303,729.9z"/>
	<path fill="#71C151" d="M299,730.9c-0.7,0.6-1.4,1.3-2.1,1.9C297.6,732.2,298.3,731.6,299,730.9z"/>
	<path fill="#71C151" d="M507,316c0.6-0.7,1.3-1.4,1.9-2.1C508.3,314.6,507.6,315.3,507,316z"/>
	<path fill="#71C151" d="M289,733.9c-0.7,0.3-1.4,0.7-2,1C287.6,734.5,288.3,734.2,289,733.9z"/>
	<path fill="#71C151" d="M280,735.9c-0.7,0.3-1.4,0.7-2,1C278.6,736.5,279.3,736.2,280,735.9z"/>
	<path fill="#71C151" d="M275,736.9c-0.7,0-1.3,0-2,0C273.6,736.9,274.3,736.9,275,736.9z"/>
	<path fill="#71C151" d="M374,715.9c-0.7,0.3-1.4,0.6-2,1C372.6,716.5,373.3,716.2,374,715.9z"/>
	<path fill="#71C151" d="M1002.9,401.9c-0.3,0-0.7,0-1,0c0.4-0.5,0.9-1,1.3-1.5C1003.1,400.9,1003,401.4,1002.9,401.9z"/>
	<path fill="#71C151" d="M261,739.9c-0.7,0-1.3,0-2,0C259.6,739.9,260.3,739.9,261,739.9z"/>
	<path fill="#71C151" d="M256,739.9c-0.7,0.6-1.4,1.3-2.1,1.9C254.6,741.2,255.3,740.6,256,739.9z"/>
	<path fill="#71C151" d="M421,530c0.6-0.7,1.3-1.4,1.9-2.1C422.3,528.6,421.6,529.3,421,530z"/>
	<path fill="#71C151" d="M247,741.9c-0.2,1.2-0.4,2.6-2,1C245.6,742.6,246.3,742.2,247,741.9z"/>
	<path fill="#71C151" d="M243,742.9c-0.2,1.2-0.4,2.6-2,1C241.6,743.6,242.3,743.2,243,742.9z"/>
	<path fill="#71C151" d="M294,732.9c-0.7,0.3-1.4,0.7-2,1C292.6,733.5,293.3,733.2,294,732.9z"/>
	<path fill="#71C151" d="M233,744.9c-0.7,0.6-1.4,1.3-2.1,1.9C231.6,746.2,232.3,745.6,233,744.9z"/>
	<path fill="#71C151" d="M228,746.9c-0.7,0-1.3,0-2,0C226.6,746.9,227.3,746.9,228,746.9z"/>
	<path fill="#71C151" d="M410,556.9c0.7-0.7,1.3-1.4,2-2C411.3,555.6,410.6,556.3,410,556.9z"/>
	<path fill="#71C151" d="M219,748.9c-0.7,0-1.3,0-2,0C217.6,748.9,218.3,748.9,219,748.9z"/>
	<path fill="#71C151" d="M408,562.9c0.6-0.7,1.3-1.4,1.9-2C409.3,561.6,408.6,562.3,408,562.9z"/>
	<path fill="#71C151" d="M205,751.9c-0.7,0.3-1.4,0.7-2,1C203.6,752.5,204.3,752.2,205,751.9z"/>
	<path fill="#71C151" d="M568.9,674.9c-0.7,0.3-1.4,0.6-2,1C567.6,675.5,568.2,675.2,568.9,674.9z"/>
	<path fill="#71C151" d="M555,676.9c-0.2,1.2-0.4,2.6-2,1C553.6,677.6,554.3,677.3,555,676.9z"/>
	<path fill="#71C151" d="M526,682.9c-0.7,0.6-1.4,1.3-2.1,1.9C524.6,684.2,525.3,683.6,526,682.9z"/>
	<path fill="#71C151" d="M520.9,684.9c-0.7,0.3-1.4,0.7-2,1C519.6,685.5,520.3,685.2,520.9,684.9z"/>
	<path fill="#5BA13F" d="M83,883.9c-0.3-1.8-0.5-3.7-1.1-5.4c-0.4-1.3-1.3-2.4-1.9-3.6c-0.7-10.3,2.6-19.6,7.3-28.5
		c0.5-1,1.8-1.7,2.7-2.5c-1.3,5.4-3,10.8-3.9,16.3c-1.1,6.7-1.4,13.4-2.1,20.1C83.8,881.5,83.3,882.7,83,883.9z"/>
	<path fill="#5BA13F" d="M85,891.9c-0.7-0.7-1.3-1.4-2-2.1C83.7,890.5,84.3,891.2,85,891.9z"/>
	<path fill="#71C151" d="M320.9,154c-0.3,0.3-0.6,0.7-0.9,1C320.3,154.7,320.6,154.3,320.9,154z"/>
	<path fill="#64BB41" d="M994.9,462.9c1.8-8.3,3.6-16.5,5.4-24.8c0.3-1.6,0.2-3.3,0.7-4.9c0.3-0.9,1.2-1.6,1.9-2.3
		c0.7,3.6,1.5,7.3,2,10.9c0.5,4.1,0.7,8.2,1,12.3c0.4,4.7-0.4,5.7-5.4,6.9C998.6,461.5,996.7,462.3,994.9,462.9z"/>
</g>
</svg>
