<svg xmlns="http://www.w3.org/2000/svg" viewBox="0 0 148.36 250.89"><defs><style>.a{fill:#848086;}.b{fill:#c6c9cb;}.c{fill:#7d99a5;}.d{fill:#767d94;}.e{fill:#b9b8c4;}.f{fill:#ced4bf;}.g{fill:#92979b;}.h{fill:#d83030;}</style></defs><path class="a" d="M6.23,104.56l1-3.57,6.55,5.88c1.58,5.2-.83,9.07-2.62,13.08l-1.11,0c-2.58-1.4-5.95-2-5.93-6,2.65.17,4.37-1.07,4.89-3.62S9.19,105.51,6.23,104.56Z" transform="translate(0 0)"/><path class="b" d="M143.55,94l2.95,3.07,1.86,3.9c-1.68,2.61-3.4,5-4.83,7.55-1.64,2.95-3.88,3.71-6.93,2.54q.47-3,.92-6l0,0,1.93,2.84,1.38-.13.66-9.68C141.63,96.46,140.87,94.36,143.55,94Z" transform="translate(0 0)"/><path class="b" d="M6.23,104.56c3,1,3.35,3.25,2.82,5.82S6.81,114.17,4.16,114C2.6,113.9.32,112.44,0,110.85s.82-3.34,1.19-4.82" transform="translate(0 0)"/><path class="c" d="M74.9,118l-3.62-.2-6.09-1-6.11.1-9.1-.74-17.95-1,1.57,3.68L36,143.88l.14,18.86a8.88,8.88,0,0,0-1,2.62c-.4,10.23-.61,20.48-1.07,30.71-.56,12.35-1.26,24.7-2,37-.25,4-3,5.38-6.6,3.55-1.33-.66-2.5-1.61-3.82-2.29-1.15-.6-2.41-1-4.4-1.82.36-4.85.69-9.85,1.12-14.85.56-6.39,1.67-12.77,1.72-19.16.2-24.86.14-49.73,0-74.59,0-3-1.24-6-1.91-9-2,2-3.12,5.38-6.91,5l-1.11,0c-.34,34.81,2,69.67-1.88,104.41-.31,2.77.74,4.66,2.62,6.57,9,9.13,20.34,13.51,32.37,16.34a131.31,131.31,0,0,0,55.67,1.11c13.55-2.65,26.49-7.17,37.33-16.34,2.44-2.07,3.76-4.25,3.4-7.69-.92-8.87-1.51-17.78-2.2-26.67-1-12.52-2.64-25-2.68-37.56-.05-16.36,1.2-32.73,1.88-49.09q.47-3,.92-6c-2,1.1-3.88,2.32-5.91,3.28a48,48,0,0,1-5,1.74c-3.34,4.54-7.86,5.35-13,4.08-.64.59-1.23,1.62-1.93,1.69-4.95.51-9.93.82-14.9,1.19l-6.75.9-8.83.09m45,116.4c-4.29-3.25-5.16-7-5.38-10.6-.87-14.85-1.65-29.71-2.14-44.58-.5-15.06-.73-30.13-.84-45.19a37.07,37.07,0,0,1,1.54-10.23c.61-2.14,2.34-4,3.57-5.91l1.41.69c-.22,4.58-.72,9.17-.61,13.74.56,22.83,1.17,45.66,2,68.48.31,8.41,1.37,16.78,1.79,25.19C127.56,228.45,126.68,231,126.11,234.4Z" transform="translate(0 0)"/><path class="d" d="M33.07,120c.21.24.6.48.61.73.37,6.94.65,13.88,1.07,20.81,0,.81.82,1.57,1.25,2.35q.07,9.44.14,18.86a8.88,8.88,0,0,0-1,2.62c-.4,10.23-.61,20.48-1.07,30.71-.56,12.35-1.26,24.7-2,37-.25,4-3,5.38-6.6,3.55-1.33-.66-2.5-1.61-3.82-2.29-1.15-.6-2.41-1-4.4-1.82.36-4.85.69-9.85,1.12-14.85.56-6.39,1.67-12.77,1.72-19.16.2-24.86.14-49.73,0-74.59,0-3-1.24-6-1.91-9l.93-3,8,2" transform="translate(0 0)"/><path class="b" d="M124.27,118.58c-.22,4.58-.72,9.17-.61,13.74.56,22.83,1.17,45.66,2,68.48.31,8.41,1.37,16.78,1.79,25.19.13,2.46-.75,5-1.32,8.41-4.29-3.25-5.16-7-5.38-10.6-.87-14.85-1.65-29.71-2.14-44.58-.5-15.06-.73-30.13-.84-45.19a37.07,37.07,0,0,1,1.54-10.23c.61-2.14,2.34-4,3.57-5.91Z" transform="translate(0 0)"/><path class="e" d="M19,112l-.93,3c-2,2-3.12,5.38-6.91,5,1.79-4,4.2-7.88,2.62-13.08L7.27,101c.27-2,1.05-5,1.32-7,5,3.77,9.78,8,16.17,9l1.14,8a18.37,18.37,0,0,0-4.18-.51C20.79,110.54,19.93,111.43,19,112Z" transform="translate(0 0)"/><path class="e" d="M126.59,110.05c.79-3.13,1.21-6.22-1-9,7.74-1.34,13-5.74,15.94-13l2,6c-2.68.34-1.92,2.44-2.08,4.07l-4,7,0,0c-2,1.1-3.88,2.32-5.91,3.28A48,48,0,0,1,126.59,110.05Z" transform="translate(0 0)"/><path class="e" d="M96.73,117c-.39-2.14-.79-4.28-1.32-7.14,7.28-1.25,12.7,1.58,18.15,4.26-.64.59-1.23,1.62-1.93,1.69C106.68,116.33,101.7,116.64,96.73,117Z" transform="translate(0 0)"/><path class="e" d="M81.82,118c-1.86-4-3.7-7.94-1.86-13.38,5.24,3.63,8,8.15,10,13.29Z" transform="translate(0 0)"/><path class="e" d="M71.28,117.77c.84-3.12,1.69-6.25,2.54-9.37l2.11.4c-.34,3.06-.69,6.12-1,9.17Z" transform="translate(0 0)"/><path class="e" d="M59.5,116.77c-.26-1.37.66-5.66,2.49-5.67,2.09,0,2.1,5.7,3.19,5.68A51.25,51.25,0,0,1,59.5,116.77Z" transform="translate(0 0)"/><path class="f" d="M12.9,76.7c2.78-3,9.27-3.41,12.82-4.27C47,67.3,69.36,66.92,91.2,68.32c12.35.79,24.73,2.38,36.49,6.21,6.05,2,10.85,4.56,13.85,10.36l.05,1.34,0,1.82c-2.95,7.24-8.2,11.64-15.94,13l-4.93-4,7.74-4c6.5-4.29,6.64-7.56.31-11.75a35,35,0,0,0-6.61-3.32c-11.21-4.39-23-5.84-34.9-6.51-15.69-.89-31.41-.47-46.88,2.83-7.27,1.56-14.63,3.09-20.65,7.87C15,85.8,15.54,89.3,21,92.24l0,0,1.07,1c.41,2.56.24,5.33,3.05,6.94.32.18-.21,1.86-.35,2.84-.24,1.71-14.91-6.64-15.91-7.29A1.74,1.74,0,0,1,8,94.84a1.73,1.73,0,0,1,.05-.9l3.05-13.17a9.81,9.81,0,0,1,1.28-3.47A5.49,5.49,0,0,1,12.9,76.7Z" transform="translate(0 0)"/><path class="e" d="M141.59,86.23l-.05-1.34,1.79.06Z" transform="translate(0 0)"/><path class="g" d="M137.5,105.06q1.89-3.34,3.8-6.67s.06,0,0,0c-.49,2.1,2.05,9.47.1,10C138.35,109.29,138,105.8,137.5,105.06Z" transform="translate(0 0)"/><path class="a" d="M21,92.24C15.54,89.3,15,85.8,19.71,82.09c6-4.78,13.38-6.31,20.65-7.87,15.47-3.3,31.19-3.72,46.88-2.83,11.85.67,23.69,2.12,34.9,6.51a35,35,0,0,1,6.61,3.32c6.33,4.19,6.19,7.46-.31,11.75.32-6.29.16-6.46-5.46-9a68,68,0,0,0-25.29-5.88C85,77.67,72.25,76.88,59.56,77.3,48.26,77.68,37,79.16,26.39,84,22.48,85.76,20.56,88,21,92.24Z" transform="translate(0 0)"/><path class="c" d="M38.26,120q-1.12,12-2.26,23.92c-.43-.78-1.2-1.54-1.25-2.35-.42-6.93-.7-13.87-1.07-20.81,0-.25-.4-.49-.61-.73l2.21-4.88h1.55Z" transform="translate(0 0)"/><path class="c" d="M19,112c.89-.54,1.75-1.43,2.68-1.52a18.37,18.37,0,0,1,4.18.51L27.07,114Z" transform="translate(0 0)"/><path class="g" d="M147.68,97.05c-.67-20-3.31-40.2-12.08-58.1-9.08-18.56-25.71-34.37-46-38.1C73.09-2.17,55.72,3.07,42.27,13s-23.2,24.35-29.65,39.8C5.71,69.37,1.82,87.47.3,105.24c-.18,2.14,2.32,4.14,4.22,2.68a6.27,6.27,0,0,0,1.83-3.32c4.16-13.83,7.16-28,11.65-41.72s10.61-27.18,20.16-38S61.08,6,75.5,5.2c11.63-.67,23.28,3.38,32.75,10.17s16.87,16.2,22.38,26.48C137,53.8,141.05,67.17,141.2,80.74c0,3.47-.18,7,.6,10.39s2.76,6.73,5.95,8.12C147.73,98.52,147.71,97.78,147.68,97.05Z" transform="translate(0 0)"/><path class="h" d="M123,84a68,68,0,0,0-25.29-5.88C85,77.67,72.25,76.88,59.56,77.3,48.26,77.68,37,79.16,26.39,84c-3.91,1.78-5.83,4-5.43,8.26l0,0,1.07,1c.41,2.56.24,5.33,3.05,6.94.32.18-.21,1.86-.35,2.84l1.14,8L27.07,114c3.91,7.55,2.09,15.86-2.08,22.78-.94,1.57-1.94,3.35-1.5,5.12a3.45,3.45,0,0,0,6.11,1.24,6.52,6.52,0,0,0,1-2.47,80.84,80.84,0,0,0,1.91-11.25c.22-2.22-.13-4.47,0-6.71.18-2.61,1.52-4.88,2.58-7.23a.63.63,0,0,1,.22-.31.72.72,0,0,1,.41-.08h.66a.56.56,0,0,1,.34.08.47.47,0,0,1,.16.27,13.7,13.7,0,0,1,1.16,5.71c-.2,2.41-.45,4.83-.68,7.24L36,142.88q.06,6.69.1,13.39a14.25,14.25,0,0,0,.64,5.21,4.91,4.91,0,0,0,2.49,2.61,2.72,2.72,0,0,0,1,.32,2.63,2.63,0,0,0,1.88-.7c2.18-1.84,1.86-5.23,1.35-8.05a120.11,120.11,0,0,1-1.8-18c-.09-3.05-.07-6.1,0-9.15.06-2.05-.63-6.66,1.08-8.07a49.51,49.51,0,0,1,4.12-3.12,5.18,5.18,0,0,1,3.7-1.08,5,5,0,0,1,2.21,1.32,22.29,22.29,0,0,1,2.6,2.72c1,1.22.7,2.87.7,4.35,0,1.83-.07,3.67-.22,5.5a46.81,46.81,0,0,1-2.08,10.74,10.13,10.13,0,0,0-.7,4.23c.77,6.76,6.86,1.43,6.6-3-.28-4.78-.5-9.56-.83-14.34-.13-1.91-.87-4.22-.67-6.11.18-1.72,1.54-3.28,1.85-5a27.39,27.39,0,0,1,.54-3.74c.12-.39.36-.82.77-.87s.79.33,1.22.39.63-.07.88.1a.91.91,0,0,1,.3.46c5.4,14.09.4,32.48-1.5,46.87-.29,2.15-.54,4.44.4,6.39s3.57,3.24,5.36,2,1.6-3.86,1.22-6c-1.13-6.4-2.36-12.57-2.36-19.09a63.62,63.62,0,0,1,.74-8.83c.14-.87.74-2.25.83-3.39.26-3.34,1.46-6.89,2.21-10.15s1.33-7,2.89-10a1.81,1.81,0,0,1,.55-.73.61.61,0,0,1,.83.1c-.6,5.48-3.84,11.73,0,16.74a18.89,18.89,0,0,0,2.8,1.33A21.88,21.88,0,0,0,80.7,128c1.87-1.45,2.27-2.8,2.69-5.13.56-3.09-1.15-6.73-2-9.56-.78-2.56-2.29-5.76-1.36-8.46.21-.61,3.61,2.81,3.83,3.07,1.2,1.42,2.17,3.71,3.14,5.29,2.36,3.84,1.42,7,5,9.78a18.24,18.24,0,0,0,4.73.12c.35-.18,2.36-1.7,2.67-2,4-3.25-5.16-8.41-2.36-10.65,5.05-3,10.3,2.13,16.49,3.65,5.17,1.26,9.69.45,13-4.09.79-3.13,1.21-6.22-1-9l-4.93-4,7.74-4C128.76,86.68,128.6,86.51,123,84Z" transform="translate(0 0)"/></svg>