<?xml version="1.0" encoding="utf-8"?>
<!-- Generator: Adobe Illustrator 24.1.2, SVG Export Plug-In . SVG Version: 6.00 Build 0)  -->
<svg version="1.1" id="Layer_1" xmlns="http://www.w3.org/2000/svg" xmlns:xlink="http://www.w3.org/1999/xlink" x="0px" y="0px"
	 viewBox="0 0 84 200" enable-background="new 0 0 84 200" xml:space="preserve">
<g>
	<path fill="#33312E" d="M19.2,118.6c-4.6,0.7-8.8,0.1-11.6-4.4c-2.6-4.2-0.3-7.6,2-11.1c-2.3-5.8-3.1-11.8-1.7-18
		c0.4-1.9,0.3-3.5-1.2-5c-2-2.1-2-4.4-0.6-6.9c1.6-2.6,1.2-5.4,0.7-8.2c-0.6-3.9-2.1-7.7-0.7-11.8c0.3-0.9-0.6-2.4-1.4-3.3
		c-1.2-1.5-2.7-2.8-4-4c0.8-1.8,1.5-3.1,1.9-4.5c0.4-1.7,0.9-3.7,0.4-5.2C-0.7,24.6,5.3,12.1,16.3,5.7c12.4-7.1,25-6.4,36.5,1.7
		c6.4,4.5,9.9,11.6,9.8,19.8c0,2.5,0.4,4.4,2.6,6c2.4,1.8,2.8,4.1,0.8,6.7c-1.2,1.6-1.5,2.8-0.6,4.4c2.4,4,2.8,8.5,3.3,12.9
		c0.4,3.2,1.2,5.8,3.8,7.8c0.6,0.5,0.9,1.3,1.5,2.2c-2,3.3-1.2,6.4,0.5,9.7c1.8,3.5,3.5,7.3,2.9,11.4c-0.4,3.4,1,6,3.1,8.4
		c3.3,3.8,3.1,7.3-0.9,10.5c-1.9,1.5-4,2.7-6.8,3.5c-0.4,1.9-0.9,3.8-1.1,5.7c-1.7,15.3-3.4,30.6-5.1,45.9c-1,9-1.9,18.1-3,27.1
		c-0.2,2.1-0.8,4.2-1.3,6.3c-0.4,1.5-0.9,2.9-2.7,3.2c-1.9,0.4-2.7-0.9-3.4-2.3c-3.2-6.7-6.4-13.4-9.6-20.2
		c-3.6-7.6-7.3-15.3-10.8-23c-4.1-8.9-8-17.8-12.1-26.7C22.7,124.2,21,121.8,19.2,118.6z"/>
	<path fill="#6F2926" d="M69,75c0.5,0.1,1.3,0,1.4,0.3c2.6,5.2,5.7,10.2,3.8,16.5c-0.5,1.6-0.3,3.3,1.6,4.2c0.7,0.4,1.4,0.9,2,1.3
		c1.9,1.4,3.1,3.5,2.1,5.5c-0.9,1.7-2.7,3.2-4.5,4.1c-1.8,0.9-4.2,0.5-5.5,2.4c-2.8,3.8-6.5,5.5-11.2,4.8c-2.5-0.4-4.5,0.3-6.5,1.6
		c-3.7,2.3-7.6,3.2-11.8,1.2c-2.3-1.2-4.4-0.6-6.6,0.4c-4,1.6-8,1.7-11.7-1.2c-0.8-1.7-2.2-1.1-3.5-0.8c-3.8,0.8-7.1,0.1-8.1-2.4
		c-1.1-2.8-0.8-5.5,1.7-7.6c0.4-0.3,0.5-0.8,0.9-1.4c-2.6-6.7-5.2-13.5-1.2-20.6c2.9-2.7,6.1-2.8,10-2.7c6.7,0.3,13.6-0.6,20.3-0.9
		c4.1-0.2,8.1-3.3,12.8-2.5c1.6,0.3,3-1.2,4.5-2C62.7,73.5,65.8,72.8,69,75z"/>
	<path fill="#F6B8C4" d="M9.4,50.1c-1.4-1-2.8-2.1-4.8-3.5c0.3-1.3,0.3-3.3,1.2-4.7C7,40,7.2,38.2,6.4,36.3
		c-4.3-9.3,1.2-21.1,10-27.1c10.8-7.4,24.8-7.1,35.2,1.2c4.4,3.5,7.7,8.5,7.7,14.5c0,4.2,0.5,7.8,4.1,10.5c0.4,0.3,0.5,0.8,0.8,1.2
		c-0.8,2.2-1.6,4.3-2.3,6.5c-5,2-9.9,3.8-15.4,4.7c-6.6,1.2-13.1,2.3-19.8,3C20.7,51.3,15.1,50.9,9.4,50.1z"/>
	<path fill="#F7A840" d="M22,116.1c0.8,0.1,1.7,0,2.4,0.3c3.8,1.4,7.3,1.6,10.6-1.2c0.6-0.5,1.4-0.8,2.3-1.2c2.8,1.6,5.6,3.9,9,2.8
		c3-1,5.8-2.8,9.4-4.5c0,0,0.9,0.5,1.9,0.6c3.5,0.6,6.9,0.4,9.6-2.4c0.6-0.6,1.7-0.8,2.5-1.1c-0.3,3.8-0.5,7.6-1,11.4
		c-1.1,7.7-2.4,15.3-3.4,23c-0.6,4.1-0.8,8.2-1.2,12.4c-1,8.5-2,17-3,25.6c-0.5,4.4-0.8,8.8-1.7,13.3c-1.8-2.4-3.7-4.4-4.6-7.4
		c-1.1-3.6-2.8-7-4.4-10.5c-6.1-13.2-12.2-26.4-18.5-39.6c-2.6-5.5-5.7-10.8-8.4-16.2C22.7,119.7,22.5,117.8,22,116.1z"/>
	<path fill="#F9EFCC" d="M9.4,50.1c2.3-1,4.5-1.3,7.1-0.6c3.1,0.9,6.5,1,9.7-0.6c0.9-0.4,2.1-0.4,3.1-0.4c4.4,0.4,8.7,1.2,12.8-1.9
		c1.4-1.1,4.1-0.7,6.2-0.7c2.3-0.1,4.5,0,6.3-2c1.9-2.1,4.7-0.7,7.1-1c2.7,5.8,4,12.1,5.1,18.4c0.4,2.1,1.8,4.1,3,6.5
		c-0.2,2-0.5,4.5-0.8,7.1c-4,0-7.8-0.2-11.1,2.9c-1.6,1.5-4,1.4-6.1,0.5c-1.6-0.6-3.2-0.6-4.6,0.7c-3.9,3.4-8.1,4.1-12.9,1.6
		c-0.9-0.5-2.7-0.4-3.6,0.2c-4.1,2.7-8.1,2.4-11.6,0.3c-2.8,0.8-4.9,1.4-7.1,2c-0.3-0.9-0.3-2.3-1-2.8c-3.1-2.4-2.4-5-1.1-7.9
		c0.4-0.9,0.8-2,0.6-2.9C9.1,63.2,8.4,56.7,9.4,50.1z"/>
</g>
</svg>
