<?xml version="1.0" encoding="utf-8"?>
<!-- Generator: Adobe Illustrator 24.1.2, SVG Export Plug-In . SVG Version: 6.00 Build 0)  -->
<svg version="1.1" id="Layer_1" xmlns="http://www.w3.org/2000/svg" xmlns:xlink="http://www.w3.org/1999/xlink" x="0px" y="0px"
	 viewBox="0 0 200 186" enable-background="new 0 0 200 186" xml:space="preserve">
<g>
	<path fill="#C9E9ED" d="M33.9,0.7c0.1-0.2,0.1-0.5,0.1-0.7c1,0,2,0,3,0c0,0.3,0,0.6,0,0.8C35.9,1.8,34.8,1.9,33.9,0.7z"/>
	<path fill="#621A25" d="M173.2,185.3c-0.5-0.1-0.9-0.2-1.4-0.3c-0.6-0.8-1.6-0.2-2.2-0.9c-7-3.8-10.9-10.5-15.7-16.5
		c-3.8-4.8-7.6-9.7-12-14c-4.2-4.1-6-3.7-10.8-0.3c-6.5,4.6-12.9,9.4-19.7,13.5c-3.3,2-7.5,2.6-11.3,3.9c-0.3-0.3-0.6-0.3-0.8,0.1
		c-12,1.4-21.5-3.6-29-12.4c-11.2-13.3-19.2-28.7-26.6-44.3C31.7,88.5,19.7,62.8,8.1,36.9C0.2,19.5,8.2,4.7,27.1,0.8
		c2.3,0,4.5,0,6.8-0.1c1,0,2,0.1,3.1,0.1c21.5,7.8,43,15.6,64.5,23.4c2.3,0.8,4.6,1.8,6.9,2.8c0.1,0.5,0.3,0.5,0.7,0.2
		c16.3,6.6,32.7,13,48.9,19.9c7.5,3.2,14.3,7.7,19.7,14.1c8.1,9.6,10.1,20.3,5.7,32.2c-3.7,10.2-9.9,18.7-17,26.8
		c-1.4,1.6-2.8,3.3-4.8,5.7c4.2,3.8,8,7.7,12.2,11c4.2,3.2,9,5.7,13.3,8.8c6.9,4.8,12.3,10.8,10.7,19.9c-1.7,9.8-7.5,16.5-17.1,19.5
		"/>
	<path fill="#53A484" d="M169.5,184.1c0.7,0.3,1.5,0.6,2.2,0.9C171,184.7,170.3,184.4,169.5,184.1z"/>
	<path fill="#DB4059" d="M99.3,170.9c0.3,0,0.5-0.1,0.8-0.1l-0.4,0.3L99.3,170.9z"/>
	<path fill="#53A484" d="M109.1,27.2l-0.4,0.1l-0.3-0.3C108.7,26.8,108.9,26.9,109.1,27.2z"/>
	<path fill="#FC5771" d="M22.7,11.8C26.9,4.9,32.9,2,41,4.4c10,3,19.8,6.8,29.6,10.6c25.8,9.9,51.6,20,77.3,30.1
		c3.2,1.3,6.2,3.2,9.3,4.8c0.7,0.9,0.9,1.9,0.3,2.9c-4.3,0.8-7.1-3.2-11-3.5c-3.8-2.5-8.3-3.6-12.3-5.8c-2.3-1.3-4.8-1.8-6.5-2.4
		c1.5,0,3.3,1.7,5.5,1.7c3.9,2.8,8.7,3.7,12.8,6.1c3.9,1.2,7.4,3.7,11.4,4.8c3.1,4,1,8-0.5,11.6C153,74.2,147,81.7,140,88.2
		c-11.8,11-23.3,22.3-36.1,32.2c-2.8,2.1-5.7,4-8.9,5.5c-9.7,4.5-18,2.7-25.2-5.3c-4.3-4.8-7.3-10.3-10-16.1
		c-2.5-5.4-5-10.9-7.6-16.3C45.1,72,37.6,55.9,29.7,40c-0.3-0.4-0.5-0.9-0.6-1.3c-0.5-2.4-1.5-4.7-2.7-6.8
		C23.3,25.5,20.1,19.1,22.7,11.8z"/>
	<path fill="#DB4059" d="M157,53.1c0-1.1,0.1-2.1,0.1-3.2c10,3.5,11.1,6.3,5.3,15.2c-9.7,14.9-21.8,27.8-34.7,39.8
		c-11.2,10.4-22.8,20.4-34.6,30.3c-10.2,8.5-12.9,8.3-19.4-3.1c-12.4-21.8-24.2-44-35.7-66.4C32.2,54.2,27.5,42,22.4,30.1
		c-2.1-4.9-3.8-10-1.6-15.4c0.4-1,1.2-1.9,1.9-2.9c-0.3,7.3,1.9,14,5.1,20.4c-0.1,2.5,1.4,4.6,2.1,6.9l0-0.1
		C37,54.1,43.7,69.3,51.1,84.3c0.6,1.3,0.9,2.9,2.3,3.7c3.5,7.3,6.7,14.8,10.7,21.8c2.7,4.6,6.3,8.9,10,12.7
		c6,6.1,13.4,6.1,20.2,2.1c7.3-4.4,14.1-9.8,20.7-15.3c7.5-6.3,14.6-13,21.8-19.7c7.8-7.3,14.8-15.3,19-25.3c1.2-3,0.9-6.6,1.4-9.9
		C156.6,54.1,156.5,53.6,157,53.1z"/>
	<path fill="#FC5771" d="M7.9,28c-2.1-5.2-0.2-9.8,2.7-14C14,8.9,19.1,5.4,25.5,4c-5.5,5.4-8.3,11.1-8.1,18c0.1,0.3,0.1,0.7,0.1,1
		c3.3,8.5,6.2,17.2,9.9,25.5c12.3,27.7,25.4,54.9,41.4,80.7c3.4,5.5,7.2,10.8,11.1,16.6c-0.9,0.7-1.9,1.4-2.9,2.2
		c-4.9-0.1-6.8-4.6-10.4-6.8c-0.4-0.2-0.7-0.5-1.1-0.8c-0.5-0.4-1-0.9-1.4-1.4c-1.4-2-2.4-4.2-4.1-6c-0.3-0.3-0.5-0.7-0.7-1.1
		c-0.6-1.5-1-3.1-2-4.4c-0.2-0.3-0.4-0.6-0.6-1c-0.3-0.5-0.5-1-0.7-1.4c-0.2-0.3-0.4-0.6-0.6-0.9c-0.2-0.3-0.4-0.5-0.6-0.8
		c-0.2-0.3-0.4-0.6-0.6-0.9c-0.3-0.5-0.6-1-0.9-1.5c-0.2-0.4-0.4-0.7-0.6-1.1c-1.1-2.6-1.9-5.4-3.7-7.6c-0.3-0.3-0.6-0.7-0.9-1.1
		c-0.5-0.6-0.9-1.1-1.2-1.8C33.5,83,19.8,56.7,8.7,29.2C8.6,28.7,8.2,28.4,7.9,28z"/>
	<path fill="#8BDCC1" d="M99.9,158.6c-3.1-1.4-6.2-2.8-9.7-4.3c12-10.4,23.6-19.9,34.5-30c11.9-11.1,23.8-22.4,34.7-34.4
		c6.9-7.5,12-16.6,18.1-25.3c2.8,3.4,5,7.8,5.1,13.1c-0.2,2.9,0.3,5.9-1.7,8.3c-2-0.4-1.7-1.8-1.6-3.1c-0.3,1-0.3,1.8-0.3,2.7
		c-0.1,3.3-1.6,6.2-2.7,9.3c-0.2,0.4-0.4,0.8-0.6,1.2c-0.3,0.6-0.6,1.2-1,1.7c-0.2,0.4-0.5,0.8-0.8,1.1c-1.2,1.3-2.2,2.8-2.9,4.4
		c-0.2,0.4-0.4,0.7-0.7,1.1c-0.5,0.7-1,1.3-1.4,2c-0.2,0.3-0.4,0.7-0.6,1c-0.3,0.5-0.6,1-0.9,1.5c-0.2,0.3-0.5,0.6-0.8,0.8
		c-0.6,0.5-1.2,1-1.6,1.6c-0.2,0.3-0.4,0.6-0.6,0.9c-0.3,0.5-0.6,0.9-0.9,1.4c-0.2,0.3-0.4,0.6-0.7,0.9c-0.5,0.5-1,1-1.5,1.6
		c-0.3,0.4-0.7,0.9-1.1,1.3c-0.2,0.3-0.5,0.6-0.8,0.8c-0.1,0.1-0.3,0.3-0.4,0.4c-0.3,0.3-0.5,0.6-0.8,0.9c-0.1,0.2-0.3,0.3-0.4,0.4
		c-0.6,0.6-1.1,1.2-1.7,1.9c-7.8,9.3-16.2,18-26.1,25.1c-0.3,0.3-0.7,0.6-1,0.8c-0.3,0.3-0.7,0.5-1,0.8c-0.7,0.5-1.3,1.1-2,1.7
		c-0.4,0.3-0.8,0.5-1.2,0.7c-4.9,2.6-9.7,5.5-15.4,6.1C106.3,157.6,103.1,158,99.9,158.6z"/>
	<path fill="#F8ED9B" d="M152.1,135.1c0.3-0.3,0.6-0.6,0.9-1c0.6-0.4,1.6-0.4,1.4-1.5l0.3-0.3c1.2,0.4,0.7-1.1,1.4-1.3
		c1.1-1.2,2.3-2.4,3.7-3.9c7.1,9,16.9,14.5,26,20.7c4.8,3.3,9.1,7.3,9.9,13.7c-0.3,1.5,0.3,3.1-0.4,4.6c-1.4,2.3-2.9,4.5-4.3,6.8
		c-8.9,4.5-18.5-1.9-23.1-8.5c-4.6-6.6-8.4-13.8-14-19.8C151.6,142.2,149.8,138.8,152.1,135.1z"/>
	<path fill="#C9E9ED" d="M145,91.5c5.3-6.6,10.9-13,16-19.8c3.3-4.4,5.9-9.2,8.9-13.8c4.3,2.5,5.2,4.3,2.5,8.6
		c-5.6,8.6-10.6,18-17.8,25.1c-19.2,18.9-39.4,36.8-59.4,54.9c-4.6,4.2-6.9,3.8-11.1-0.2c10.6-8.8,21.1-17.6,31.7-26.4
		c0.6-0.1,1.1-0.5,1.3-1.1l-0.1,0.1c0.6-0.2,0.9-0.6,1.2-1.1l-0.1,0.1c0.5-0.5,2,0,1.8-1.4l0,0.2c0.8,0.1,1.2-0.3,1.1-1.1l-0.1-0.2
		c0.2,0.3,0.4,0.4,0.6,0.2c0.2-0.2,0.2-0.4-0.2-0.6c1.5-1.4,3-2.7,4.5-4.1c0.7-0.1,1.1-0.5,1.4-1.1l-0.2,0.1
		c0.6-0.2,0.9-0.6,1.2-1.1l-0.1,0.1c0.5-0.2,0.9-0.6,1.1-1.1c0.7-0.6,1.3-1.2,2-1.9c0.3-0.4,1-0.3,1-1c2.3-2.3,4.6-4.6,6.9-7
		c0.5-0.3,0.8-0.7,1.1-1.2c0.3-0.3,0.6-0.6,0.9-1c0.5-0.2,0.9-0.6,1.1-1.1l-0.1,0.1c0.6-0.2,1-0.6,1.1-1.2l-0.1,0.1
		c0.6-0.2,1-0.5,1.1-1.2l-0.1,0.2C144.5,92.7,144.9,92.2,145,91.5z"/>
	<path fill="#DB4059" d="M7.9,28c0.7,0.6,1.7,1,2,1.7C22.3,55.5,34.7,81.3,47,107.1c0.5,1,0.8,2.2,1.2,3.3c0.3,0.1,0.5,0.3,0.7,0.5
		l0.1,0.1c1.9,3.2,2.8,6.9,5,9.9l0-0.1c0.5,0.6,0.4,1.5,1,2.1l0-0.1c0.3,0.4,0.7,0.7,1,1.1l0,0c0.6,0.6,0.4,1.5,1,2.1l0-0.1
		c1.2,1.9,1.7,4.2,3,6.1l0-0.1c2.1,3.2,3.9,6.5,5.4,9.9c0.3,0.2,0.1,0.5,0.1,0.8c0.4,0,0.4-0.2,0-0.5c0-0.7-0.3-1.4,0.3-2
		c2.2,1.6,4.4,3.2,6.6,4.8c1.5,1.1,3,2.1,4.5,3.1c-6.3,4.7-8.8,4.6-12.3-1.8c-9.2-16.5-18.3-33.1-26.6-50.1
		c-10-20.4-19.1-41.3-28.4-62C8.7,32.3,8.4,30.1,7.9,28z"/>
	<path fill="#53A484" d="M178.1,86c0.4-2.1,0.7-4.1,1.1-6.2c0.2,0,0.4,0,0.6,0c0.2,1.7,0.4,3.3,0.8,6.1c0.8-3.5,1.4-5.9,2-8.3
		c1.4,7.1-0.5,13.8-3.9,19.6c-5.1,8.5-10.5,17.2-17.3,24.3c-10.8,11.3-22.5,21.7-34.5,31.8c-7.7,6.5-17,9-27,5.2
		c3.5-0.8,7-1.6,10.4-2.4c6.3,0.7,10.8-3.3,15.7-6.2l0,0c0.7-0.6,1.4-1.3,2-2l0,0c0.3-0.3,1-0.2,0.9-1c9.1-8.7,18.1-17.4,27.2-26.1
		c1.1-0.2,1.4-1.2,2-1.9l0,0c0.4-0.3,0.8-0.6,1-1.1l0,0.1c0.5-0.4,0.9-0.9,1-1.5l0.1-0.4l0.4-0.1c1-0.4,1.7-1.4,2.5-2l0,0
		c0.7-0.5,0.5-1.4,1-2l0,0c1.1-0.9,2.1-1.9,3-3l0,0c0.7-0.5,0.5-1.4,1-2l0,0c1.1-0.7,1.4-2,2-3l0,0c1.8-1.7,2.9-3.9,4-6l0,0
		c0.7-0.5,0.5-1.4,1-2l0,0C177,92.9,178.7,89.9,178.1,86z"/>
	<path fill="#F8ED9B" d="M142.6,143.2c5.8,6.2,11,11.6,16.1,17.3c3.2,3.6,5.9,7.6,9.2,11.2c4.4,4.8,9.7,8.1,16.7,7.5
		c-3.7,4.2-9.8,5.3-14.7,2.1c-2.7-1.8-5.1-4.2-7.3-6.7c-3-3.5-5.7-7.4-8.4-11.2c-4.4-6.1-9-11.9-16.1-15.4
		C139.5,146.6,140.6,145.4,142.6,143.2z"/>
	<path fill="#ECAC7B" d="M152.1,135.1c1.3,3.5,2.2,7.2,4.1,10.3c3,4.9,6.5,9.5,10.1,14c3.1,3.8,6.3,7.6,9.9,10.9
		c4.2,3.8,9.7,2.6,14.8,2.6c-5,5-10.2,6-15.5,1.8c-4.5-3.5-8.2-8.2-12.1-12.5c-6.1-6.7-12-13.6-18.5-20.9
		C146.8,139.8,149.5,137.5,152.1,135.1z"/>
	<path fill="#8BDCC1" d="M89.4,155.9c2.8,1.8,5.7,3.5,8.5,5.3c2.4,1.4,5.5,2.2,4.3,6.1c-8.7,2.9-16.5,1-23.9-4.6
		c3.2-2.4,6.3-4.6,9.3-6.8C88.1,155.6,88.8,155.6,89.4,155.9z"/>
	<path fill="#C9E9ED" d="M71.5,155.6c3.3-2.5,6.6-4.9,10.2-7.6c1.4,1.5,2.8,3,4.2,4.5C80.6,160,76,161.1,71.5,155.6z"/>
	<path fill="#53A484" d="M102.2,167.2c-1.4-2-2.9-4-4.3-6.1c4.5,0.8,8.9,1.6,13.4,2.4c0.1,0.2,0.2,0.5,0.4,0.7
		C108.5,165.2,105.3,166.2,102.2,167.2z"/>
	<path fill="#ECAC7B" d="M195.3,166.1c0.1-1.5,0.3-3,0.4-4.6C195.5,163.1,195.4,164.6,195.3,166.1z"/>
	<path fill="#ECAC7B" d="M154.4,132.7c-0.5,0.5-0.9,1-1.4,1.5C153.5,133.6,154,133.2,154.4,132.7z"/>
	<path fill="#FDFDFD" d="M119.6,116.5c-0.6,0.5-1.2,0.9-1.8,1.4C118.4,117.4,119,117,119.6,116.5z"/>
	<path fill="#FDFDFD" d="M132,105c-0.3,0.3-0.7,0.7-1,1C131.3,105.7,131.7,105.3,132,105z"/>
	<path fill="#ECAC7B" d="M156.1,131.1c-0.5,0.4-0.9,0.9-1.4,1.3C155.2,132,155.6,131.5,156.1,131.1z"/>
	<path fill="#FDFDFD" d="M121.1,115c0.1,0.2,0.2,0.5,0.3,0.7c-0.3-0.1-0.5-0.2-0.8-0.3C120.6,115.2,120.8,115,121.1,115z"/>
	<path fill="#FDFDFD" d="M120.7,115.6c-0.4,0.4-0.7,0.7-1.1,1.1C120,116.3,120.4,116,120.7,115.6z"/>
	<path fill="#FDFDFD" d="M118,117.8c-0.4,0.4-0.8,0.7-1.2,1.1C117.2,118.6,117.6,118.2,118,117.8z"/>
	<path fill="#FDFDFD" d="M117,118.8c-0.4,0.4-0.9,0.7-1.3,1.1C116.1,119.5,116.5,119.2,117,118.8z"/>
	<path fill="#FDFDFD" d="M145,91.5c-0.4,0.5-0.8,1-1.2,1.5C144.2,92.4,144.6,92,145,91.5z"/>
	<path fill="#FDFDFD" d="M143.9,92.7c-0.4,0.4-0.7,0.8-1.1,1.2C143.2,93.5,143.5,93.1,143.9,92.7z"/>
	<path fill="#FDFDFD" d="M142.9,93.8c-0.4,0.4-0.7,0.8-1.1,1.2C142.2,94.5,142.6,94.1,142.9,93.8z"/>
	<path fill="#FDFDFD" d="M142,94.8c-0.4,0.4-0.7,0.7-1.1,1.1C141.2,95.5,141.6,95.2,142,94.8z"/>
	<path fill="#FDFDFD" d="M140,96.9c-0.4,0.4-0.7,0.8-1.1,1.2C139.3,97.6,139.6,97.3,140,96.9z"/>
	<path fill="#FDFDFD" d="M129,107.9c-0.4,0.4-0.8,0.7-1.1,1.1C128.2,108.6,128.6,108.2,129,107.9z"/>
	<path fill="#FDFDFD" d="M128,108.8c-0.4,0.4-0.8,0.7-1.2,1.1C127.2,109.6,127.6,109.2,128,108.8z"/>
	<path fill="#FDFDFD" d="M127,109.8c-0.5,0.4-0.9,0.8-1.4,1.1C126,110.5,126.5,110.2,127,109.8z"/>
	<path fill="#B2EFD6" d="M89.4,155.9c-0.6,0-1.3,0-1.9,0C88.1,155.9,88.8,155.9,89.4,155.9z"/>
	<path fill="#DB4059" d="M17.5,23c-0.1-0.2-0.2-0.4-0.3-0.7c0-0.1,0.1-0.2,0.2-0.3C17.4,22.4,17.4,22.7,17.5,23z"/>
	<path fill="#621A25" d="M53.4,88c-0.9-0.9-2-1.7-2.6-2.8C44,70.8,37.3,56.3,30.6,41.8c-0.4-0.9-0.4-1.9-0.6-2.9
		c2.4,4.6,5,9.2,7.2,13.9C42.6,64.6,48,76.3,53.4,88z"/>
	<path fill="#621A25" d="M89.9,121.8l-0.3,0l-0.1,0.2c-0.7-0.1-1.2-0.5-1.5-1l0.1,0c-0.9-0.4-1.6-1.1-2-2l0,0c-1.4-2.2-1.7-4.3,1-6
		c2.4-1.6,4.8-3.1,7.6-0.7c4,3.3,2.7,7.7-2.8,9.8C91.1,122.6,90.4,122.5,89.9,121.8z"/>
	<path fill="#621A25" d="M131.9,66.2c0.2-0.4,0.5-0.8,0.7-1.3c0.9-3.3,2.9-5.1,6.5-4.1c3.5,1,4.3,3.5,3.1,8.3
		c0.3,0.4,0.2,0.7-0.2,0.9l0.1,0c-0.3,0.4-0.6,0.8-1,1l0,0c-2.3,2.4-4.6,2.5-6.9,0l0,0.1c-0.4-0.3-0.8-0.6-1.1-1.1l0,0.1
		c-0.5-0.4-0.9-0.9-1-1.5l0.2-0.2l-0.1-0.3C131.4,67.5,131.5,66.9,131.9,66.2z"/>
	<path fill="#621A25" d="M69.1,38.5c0.7-3.1,1.8-6.1,5.4-6.1c4.4,0,5.5,3.5,6.4,7c-0.1,0.7-0.4,1.2-1,1.5l0,0c-0.3,1-1,1.6-2,2
		l0-0.1c-1.9,1.6-3.9,1.5-5.8,0.1l0,0c-0.4-0.3-0.8-0.6-1-1l0,0c-0.4-0.3-0.8-0.6-1-1l0,0.1C69.4,40.3,69.3,39.3,69.1,38.5z"/>
	<path fill="#621A25" d="M62,67c-0.7-1.6-2.2-3.3-2-4.8c0.3-1.8,1.6-4,3.1-5c2.6-1.6,5-0.2,6.8,2c1.1,2.3,1.1,4.5-0.1,6.7l0-0.1
		c-1.9,1.9-3.9,3.8-6.9,2l0,0C62.6,67.7,62.2,67.4,62,67z"/>
	<path fill="#621A25" d="M39.1,32.7c0.3-0.9,0.3-2.3,1-2.8c1.8-1.4,3.9-3.3,5.9-3.4c2.8-0.1,3.9,2.6,3.9,5.4c0,0.8,0,1.7,0,2.5
		c-0.1,0.7-0.5,1.2-1,1.5l0-0.1c-0.3,0.4-0.6,0.8-1,1l0,0c-2.3,1.6-4.6,1.1-6.9,0l0.1,0c-0.8-0.5-0.6-1.4-1-2l0,0
		C39.3,34.4,39.4,33.5,39.1,32.7z"/>
	<path fill="#621A25" d="M72.1,87.5c0.3-0.6,0.5-1.2,0.9-1.6c1.7-1.6,3.4-4,5.3-4.2c1.4-0.2,3.3,2.4,5,3.7c0.7,2.1,0.6,4-1.8,5
		c-1.8-0.7-1.2-3.6-3.8-4.2c-0.4,3.1,3.4,2.6,3.4,4.8c-1.7,2.7-3.8,2.6-6.1,1l0,0.1c-0.9-0.4-1.6-1.1-2-2l0,0.1
		C72.4,89.3,72.4,88.3,72.1,87.5z"/>
	<path fill="#621A25" d="M98,55.4c0-0.2,0.1-0.3,0-0.5c-0.5-3-0.3-5.9,3-6.9c1.5-0.5,4,0,5.2,1c2.6,2.1,2.6,5.1,0.7,8
		c0.3,0.4,0.2,0.7-0.2,0.9l0.2,0c-2.9,1.7-5.6,1.6-7.9-1l0,0.1C98.5,56.6,98.1,56.1,98,55.4z"/>
	<path fill="#621A25" d="M99.7,81.2c0.3-2.6,1.4-4.8,4.3-4.5c1.9,0.2,4.3,1.2,5.4,2.6c1.9,2.4,0.7,5-1.4,7.1c-3.9,2.3-4.9,2-7.9-2.5
		l0,0.1C99.3,83.2,99.5,82.2,99.7,81.2z"/>
	<path fill="#ECAC7B" d="M75,91.9c2.1-0.1,4.9,1.4,5.9-2l-0.1,0.1c0.8-1.5,1.6-3.1,2.4-4.6c3.1,3.5,0.3,5.8-2,7.6
		C79.3,94.5,76.6,95.6,75,91.9z"/>
	<path fill="#621A25" d="M146,49.1c-4.5-2-9-4-13.5-6.1c0.5-0.4,1-0.4,1.6-0.1c4,2,8.1,4,12.1,5.9L146,49.1z"/>
	<path fill="#621A25" d="M157,53.1c0,0.5,0,1,0,1.5c-3.7-1.8-7.4-3.7-11.1-5.5l0.2-0.2C149.8,50.3,153.4,51.7,157,53.1z"/>
	<path fill="#ECAC7B" d="M100.1,83.9c2.2,2.2,4.6,3.7,7.9,2.5c-1.4,0.8-2.8,2.3-4.1,2.2C101.6,88.3,99.6,86.9,100.1,83.9z"/>
	<path fill="#ECAC7B" d="M99.1,56.9c2.6,0.3,5.3,0.7,7.9,1C103.4,61.1,101.1,60.9,99.1,56.9z"/>
	<path fill="#ECAC7B" d="M63,67.9c2.3-0.7,4.6-1.4,6.9-2C68,69.8,66,70.4,63,67.9z"/>
	<path fill="#ECAC7B" d="M134.1,70.9c2.3,0,4.6,0,6.9,0C138.4,74.9,136.6,74.9,134.1,70.9z"/>
	<path fill="#ECAC7B" d="M87,113c-0.3,2-0.6,4-1,6c-2.4-1-2.4-2.9-1.5-4.7C84.9,113.6,86.2,113.4,87,113z"/>
	<path fill="#DB4059" d="M134.1,42.9c-0.5,0-1.1,0.1-1.6,0.1c-2-0.5-4-1.1-6.1-1.6c0.2-0.6,0.4-1.1,0.6-1.7
		C129.3,40.8,131.7,41.8,134.1,42.9z"/>
	<path fill="#ECAC7B" d="M72,42.9c1.9,0,3.9-0.1,5.8-0.1C75.9,45.8,74.2,45.8,72,42.9z"/>
	<path fill="#ECAC7B" d="M41,36.9c2.3,0,4.6,0,6.9,0C45.6,40.5,43.3,39,41,36.9z"/>
	<path fill="#621A25" d="M30,39c-1.4-2.1-3.7-3.9-2.1-6.9C28.5,34.5,29.3,36.7,30,39z"/>
	<path fill="#ECAC7B" d="M69.9,66c0-2.2,0.1-4.5,0.1-6.7C72.4,61.5,72.4,63.8,69.9,66z"/>
	<path fill="#ECAC7B" d="M99.7,81.2c0.1,0.9,0.3,1.8,0.4,2.8C100,83,99.8,82.1,99.7,81.2z"/>
	<path fill="#ECAC7B" d="M73,89.9c0.7,0.7,1.3,1.4,2,2C74.4,91.3,73.7,90.6,73,89.9z"/>
	<path fill="#ECAC7B" d="M77.9,42.9c0.7-0.7,1.3-1.4,2-2C79.2,41.6,78.5,42.3,77.9,42.9z"/>
	<path fill="#ECAC7B" d="M86,118.9c0.7,0.7,1.4,1.3,2,2C87.4,120.3,86.7,119.6,86,118.9z"/>
	<path fill="#ECAC7B" d="M72.1,87.5c0.3,0.8,0.6,1.7,1,2.5C72.7,89.1,72.4,88.3,72.1,87.5z"/>
	<path fill="#ECAC7B" d="M131.9,66.2c0.1,0.6,0.2,1.2,0.3,1.8C132.1,67.4,132,66.8,131.9,66.2z"/>
	<path fill="#ECAC7B" d="M39.1,32.7c0.3,0.7,0.6,1.5,0.9,2.2C39.7,34.2,39.4,33.5,39.1,32.7z"/>
	<path fill="#ECAC7B" d="M62,67c0.3,0.3,0.7,0.6,1,1c-0.5-0.1-0.9-0.1-1.4-0.2C61.8,67.5,61.9,67.2,62,67z"/>
	<path fill="#ECAC7B" d="M89.9,121.8c0.6,0.1,1.2,0.2,1.9,0.3C91.2,122,90.5,121.9,89.9,121.8z"/>
	<path fill="#ECAC7B" d="M69.1,38.5c0.3,0.8,0.7,1.7,1,2.5C69.7,40.1,69.4,39.3,69.1,38.5z"/>
	<path fill="#ECAC7B" d="M40,34.9c0.3,0.7,0.7,1.4,1,2C40.7,36.3,40.4,35.6,40,34.9z"/>
	<path fill="#ECAC7B" d="M88,120.9c0.5,0.3,1,0.7,1.5,1C89,121.6,88.5,121.3,88,120.9z"/>
	<path fill="#ECAC7B" d="M71,41.9c0.3,0.3,0.7,0.7,1,1C71.7,42.6,71.3,42.3,71,41.9z"/>
	<path fill="#ECAC7B" d="M141.9,69.9c-0.1-0.3-0.1-0.6,0.2-0.9C142,69.3,142,69.6,141.9,69.9z"/>
	<path fill="#ECAC7B" d="M70,40.9c0.3,0.3,0.7,0.7,1,1C70.7,41.6,70.4,41.3,70,40.9z"/>
	<path fill="#ECAC7B" d="M132.1,68.4c0.3,0.5,0.7,1,1,1.5C132.8,69.5,132.4,68.9,132.1,68.4z"/>
	<path fill="#ECAC7B" d="M79.9,40.9c0.3-0.5,0.7-1,1-1.5C80.5,39.9,80.2,40.4,79.9,40.9z"/>
	<path fill="#ECAC7B" d="M47.9,37c0.3-0.3,0.7-0.7,1-1C48.6,36.3,48.2,36.6,47.9,37z"/>
	<path fill="#ECAC7B" d="M141,71c0.3-0.3,0.7-0.7,1-1C141.7,70.3,141.3,70.6,141,71z"/>
	<path fill="#ECAC7B" d="M48.9,36c0.3-0.5,0.7-1,1-1.5C49.6,35,49.2,35.5,48.9,36z"/>
	<path fill="#ECAC7B" d="M133.1,69.9c0.4,0.4,0.7,0.7,1.1,1.1C133.8,70.6,133.4,70.3,133.1,69.9z"/>
	<path fill="#ECAC7B" d="M106.8,57.9c0.1-0.3,0.2-0.6,0.2-0.9C107,57.3,106.9,57.6,106.8,57.9z"/>
	<path fill="#ECAC7B" d="M98,55.4c0.3,0.5,0.7,1,1,1.5C98.7,56.5,98.4,55.9,98,55.4z"/>
	<path fill="#621A25" d="M14.8,25.1c1.7,4.4,3.4,8.8,5.1,13.2c-0.4,0.2-0.9,0.3-1.3,0.5c-1.7-4.7-3.3-9.3-5-14
		C14.1,24.6,14.5,24.7,14.8,25.1z"/>
	<path fill="#621A25" d="M65.8,140.1c0,1,0.1,1.9,0.1,2.9l0,0c-2-3.7-4-7.3-6-11c1.7,2.3,3.4,4.7,5.1,7
		C65.3,139.3,65.6,139.7,65.8,140.1L65.8,140.1z"/>
	<path fill="#621A25" d="M54,121c-1.7-3.3-3.3-6.6-5-9.9C50.7,114.4,52.3,117.7,54,121z"/>
	<path fill="#621A25" d="M60,132c-1-2-2-4-3-6.1C58,128,59,130,60,132z"/>
	<path fill="#DB4059" d="M14.8,25.1c-0.4-0.1-0.8-0.2-1.2-0.2c-0.2-0.8-0.4-1.5-0.6-2.3c0.3-0.1,0.6-0.1,0.9-0.2
		C14.2,23.3,14.5,24.2,14.8,25.1z"/>
	<path fill="#DB4059" d="M23.9,48.5c-0.2-0.5-0.4-1.1-0.6-1.6c0.4-0.1,1.1-0.4,1.1-0.3c0.3,0.5,0.4,1.1,0.5,1.6
		C24.6,48.3,24.2,48.4,23.9,48.5z"/>
	<path fill="#621A25" d="M20.9,41c0.4,0.7,0.8,1.4,1.2,2.1c-0.2,0.1-0.4,0.2-0.6,0.2C21.3,42.6,21.1,41.8,20.9,41L20.9,41z"/>
	<path fill="#621A25" d="M55,123c-0.3-0.7-0.7-1.4-1-2.1C54.3,121.6,54.6,122.3,55,123z"/>
	<path fill="#621A25" d="M57,126c-0.3-0.7-0.7-1.4-1-2.1C56.3,124.6,56.6,125.3,57,126z"/>
	<path fill="#621A25" d="M56,124c-0.3-0.4-0.7-0.7-1-1.1C55.3,123.3,55.6,123.7,56,124z"/>
	<path fill="#DB4059" d="M65.9,140.1c-0.3-0.4-0.5-0.8-0.8-1.1C65.3,139.4,65.6,139.7,65.9,140.1z"/>
	<path fill="#621A25" d="M21,41c-0.3-0.1-0.5-0.3-0.8-0.4C20.4,40.7,20.7,40.9,21,41L21,41z"/>
	<path fill="#621A25" d="M48.9,110.9c-0.2-0.2-0.4-0.4-0.7-0.5C48.5,110.5,48.7,110.7,48.9,110.9z"/>
	<path fill="#B2EFD6" d="M174.5,76.4c1.7,8-0.5,14.3-4.2,19.7c-8.4,12-18.4,22.6-29.7,32.1c-5.4,4.5-9.9,9.9-15.5,14.1
		c-5,3.7-10.7,6.3-16.3,9.3c-1.1,0.6-2.6,0.6-3.9,0.4c-1.2-0.2-3.2-0.7-3.3-1.4c-0.2-1.2,0.3-3,1.2-3.8c2-1.9,4.5-3.2,6.7-5
		c11.6-9.4,23.8-18.1,34.4-28.5c9.7-9.4,17.5-20.7,26.2-31.2C171.4,80.4,172.6,78.8,174.5,76.4z"/>
	<path fill="#621A25" d="M126,149.9c-4.1,2.3-8,4.8-12.2,6.9c-0.8,0.4-2.3-0.4-3.5-0.7c3.8-1.5,7.6-3,11.3-4.5
		C123.1,151.1,124.6,150.5,126,149.9z"/>
	<path fill="#621A25" d="M178.1,86c1.8,4.2-0.1,7.2-3.1,9.9C176,92.6,177.1,89.3,178.1,86z"/>
	<path fill="#621A25" d="M174,97.9c-1.3,2-2.7,4-4,6C171.3,102,172.7,99.9,174,97.9z"/>
	<path fill="#621A25" d="M167,108.9c-1,1-2,2-3,3C165,110.9,166,109.9,167,108.9z"/>
	<path fill="#621A25" d="M170,103.9c-0.7,1-1.3,2-2,3C168.7,106,169.4,104.9,170,103.9z"/>
	<path fill="#53A484" d="M179.8,76.2c-0.2,0.2-0.5,0.3-0.7,0.5c-0.2-0.3-0.4-0.7-0.5-1c0.3-0.1,0.6-0.3,0.8-0.3
		C179.6,75.5,179.7,75.9,179.8,76.2z"/>
	<path fill="#621A25" d="M158,118.9c-0.7,0.6-1.3,1.3-2,1.9C156.7,120.2,157.4,119.6,158,118.9z"/>
	<path fill="#621A25" d="M128,148c-0.7,0.7-1.4,1.3-2,2C126.6,149.3,127.3,148.6,128,148z"/>
	<path fill="#621A25" d="M163,113.9c-0.8,0.7-1.7,1.4-2.5,2C161.3,115.3,162.2,114.6,163,113.9z"/>
	<path fill="#621A25" d="M175,96c-0.3,0.7-0.7,1.3-1,2C174.3,97.3,174.7,96.6,175,96z"/>
	<path fill="#621A25" d="M168,106.9c-0.3,0.7-0.7,1.3-1,2C167.3,108.3,167.7,107.6,168,106.9z"/>
	<path fill="#621A25" d="M164,111.9c-0.3,0.7-0.7,1.3-1,2C163.3,113.3,163.7,112.6,164,111.9z"/>
	<path fill="#621A25" d="M128.9,147c0.2,0.2,0.3,0.5,0.5,0.7c-0.4,0.1-0.9,0.2-1.3,0.3C128.3,147.7,128.6,147.3,128.9,147z"/>
	<path fill="#621A25" d="M160,116.4c-0.3,0.5-0.7,1-1,1.5C159.3,117.5,159.7,117,160,116.4z"/>
	<path fill="#621A25" d="M159,117.9c-0.3,0.4-0.7,0.7-1,1.1C158.4,118.6,158.7,118.3,159,117.9z"/>
	<path fill="#621A25" d="M189.8,156.3c3.1,2.6,3.9,5.9,2.7,9.8c-0.5-0.1-0.9-0.4-1-0.9c-0.7-2.8-1.4-5.6-2.1-8.4l0.4,0L189.8,156.3z
		"/>
	<path fill="#53A484" d="M191.6,165.2c0.3,0.3,0.7,0.6,1,0.9c-0.3,0.2-0.7,0.4-1,0.6C191.6,166.2,191.6,165.7,191.6,165.2z"/>
	<path fill="#53A484" d="M189.5,156.8c-0.1-0.1-0.1-0.2-0.2-0.3c0.2-0.1,0.3-0.1,0.5-0.2l0.1,0.4L189.5,156.8z"/>
	<path fill="#621A25" d="M65.9,143c0.1,0.1,0.3,0.1,0.4,0.2C66.2,143.1,66.1,143.1,65.9,143L65.9,143z"/>
	<path fill="#C9E9ED" d="M91.5,112.6c1.3,1.7,2.5,2.7,2.7,3.9c0.1,0.7-1.5,1.7-2.3,2.5c-1-1-2.4-1.9-2.9-3.1
		C88.8,115.4,90.3,114.2,91.5,112.6z"/>
	<path fill="#C9E9ED" d="M135.2,67.1c0.7-1.3,1.3-2.6,2-3.9c1,0.5,2.8,1.2,2.7,1.4c-0.3,1.4-1.1,2.7-1.8,4
		C137.2,68,136.1,67.7,135.2,67.1z"/>
	<path fill="#B2EFD6" d="M135.2,67.1c1,0.5,1.9,1,2.9,1.5C137.2,68.1,136.2,67.6,135.2,67.1z"/>
	<path fill="#C9E9ED" d="M78.9,38.3c-2,1.1-3.3,2.4-4.2,2.1c-1.1-0.3-1.8-1.9-2.6-2.9c1-0.8,2.1-2.3,3.1-2.2
		C76.2,35.4,77.2,36.9,78.9,38.3z"/>
	<path fill="#B2EFD6" d="M63.9,59.7c0.7-0.1,1.4-0.2,2-0.3c0.7,0.4,0.6,1.5,1.4,1.8c-0.9,1.2-1.7,3.4-2.6,3.5
		c-1.9,0.1-3.2-1.3-1.9-3.5C63.3,60.8,63.6,60.3,63.9,59.7z"/>
	<path fill="#C9E9ED" d="M67.3,61.3c-0.5-0.6-0.9-1.2-1.4-1.8C66.4,60.1,66.8,60.7,67.3,61.3z"/>
	<path fill="#C9E9ED" d="M63.9,59.7c-0.4,0.5-0.7,1-1.1,1.4C63.1,60.7,63.5,60.2,63.9,59.7z"/>
	<path fill="#B2EFD6" d="M43.9,29.5c2.3-1.4,3.7,0,3.7,2c0,1.9-0.9,4-3.7,2.8C43,32.7,43.1,31.1,43.9,29.5z"/>
	<path fill="#C9E9ED" d="M43.9,29.5c0,1.6,0,3.2,0,4.8C41.2,32.7,41.7,31.1,43.9,29.5z"/>
	<path fill="#C9E9ED" d="M80.9,89.9c-0.9,0-1.9,0.2-2.5-0.2c-1.1-0.7-1.9-1.7-2.9-2.6c1.1-1,2.1-2,3.2-3c0.7,1.1,1.5,2.2,2,3.4
		C81,88.1,80.8,89.1,80.9,89.9L80.9,89.9z"/>
	<path fill="#B2EFD6" d="M103.3,48.9c1.2,1.9,2.6,3,2.5,4.1c-0.1,1-1.9,2.6-2.6,2.5c-1.1-0.3-2.6-1.7-2.7-2.8
		C100.4,51.7,102,50.6,103.3,48.9z"/>
	<path fill="#B2EFD6" d="M105.1,79.1c2.2,0.4,3.4,1.7,2.2,3.8c-0.5,0.8-2.3,1.5-3.2,1.3c-1.9-0.6-3-2.1-1.4-4.1
		C103.5,79.5,104.4,79.6,105.1,79.1z"/>
	<path fill="#C9E9ED" d="M105.1,79.1c-0.8,0.3-1.5,0.6-2.3,0.9C103.5,79.6,104.3,79.3,105.1,79.1z"/>
</g>
</svg>
