<?xml version="1.0" encoding="utf-8"?>
<!-- Generator: Adobe Illustrator 24.1.2, SVG Export Plug-In . SVG Version: 6.00 Build 0)  -->
<svg version="1.1" id="Layer_1" xmlns="http://www.w3.org/2000/svg" xmlns:xlink="http://www.w3.org/1999/xlink" x="0px" y="0px"
	 viewBox="0 0 117 200" enable-background="new 0 0 117 200" xml:space="preserve">
<g>
	<path fill="#EBE4E3" d="M116.1,52c1.8,0.9,1,8.3,0.4,10.1C113.6,59.7,114,55.1,116.1,52z"/>
	<path fill="#758086" d="M58,0c1.5,0.4,7.5-1.2,5.8,1.4C62.2,2.5,57.3,2.7,58,0z"/>
	<path fill="#A3ACAF" d="M0,130c0.2-1.2-0.9-5.4,1.4-3.9C2.4,127.3,2.1,131,0,130z"/>
	<path fill="#B7BCC2" d="M64.1,0.8c-0.7-1.5,4.5-1.2,2.6,0.5C65.7,1.8,64.8,1.8,64.1,0.8z"/>
	<path fill="#D1CBCA" d="M45,200c-0.3-1.8,2.1-2.1,3-0.9C48.3,200.7,46.1,199.8,45,200z"/>
	<path fill="#E4E7E9" d="M0,120c1.6-0.4,2,1.6,1.3,2.7C-0.5,124.3,0.1,121.1,0,120z"/>
	<path fill="#BCC1C4" d="M0,123c1.9-0.5,2.3,3,0.4,3C-0.5,126,0.2,123.8,0,123z"/>
	<path fill="#E5E7E9" d="M52,0.8c-0.6-1.5,3.4-1.1,1.9,0.4C53.2,1.6,52.5,1.5,52,0.8z"/>
	<path fill="#B2B8BB" d="M54,0.8c-0.5-1.5,3.4-1,2,0.4C55.2,1.6,54.5,1.5,54,0.8z"/>
	<path fill="#8C969A" d="M56,0.8c-0.4-1.2,2.6-1.2,2,0C57.3,1.5,56.6,1.5,56,0.8z"/>
	<path fill="#EAEBED" d="M67.1,0.9c-0.7-1.3,2.5-1.3,1.9,0.1C68.5,1.6,67.5,1.6,67.1,0.9z"/>
	<path fill="#C6CBCF" d="M0,130c1.2-0.2,1.8,0.9,1.2,1.9C-0.3,133,0,131,0,130z"/>
	<path fill="#E1E3E5" d="M0,132c1.5-0.4,2.1,2,0.4,2C-0.4,134.1,0.2,132.6,0,132z"/>
	<path fill="#071318" d="M48,199.1c-23.2,0.7-17.1-32.2-10.5-45.4c4.6,8.9-10.8,51.5,13.6,36.7c5.6-3.3,2.2-34.2,7.4-26.4
		c0.1-2.6-3.1-4.9-0.5-7.2C64.6,162.4,58.6,192,48,199.1z"/>
	<path fill="#07191E" d="M114.9,46c4.7,13.2-11.5,88.3-9.4,62.2c-5.1-13.5,6.1-12.1-4-25.7c2.9-4.1,4.8,4,7,2.1
		c-0.7-2.6-0.3-16.8,3-11.3C110.6,68.5,108.2,32.9,114.9,46z"/>
	<path fill="#07191E" d="M102.1,141.5c-1,1.6-2.2,11-4.5,6.9c-1.1,2.9-1.4,6.5-4.4,7.9c-11.1,5.3,1.4-10.3,3.3-12
		C99.7,115.9,111.2,100.2,102.1,141.5z"/>
	<path fill="#0B1919" d="M89.8,153.8c-2,3.8,1.7,2.3,1.2,4c-1.7,1.6-13.4,2.8-8.5-0.3C66.6,163.7,81.2,149.6,89.8,153.8z"/>
	<path fill="#071C1C" d="M75.1,155.8c6.7,7.7-9.6,2.4-5.4,0.6c3.3-0.7,2.1-5,4.4-6.8C78.4,149.4,75.8,154.4,75.1,155.8z"/>
	<path fill="#0E2022" d="M115.1,66.5c0-5.9,0-11.9,0-17.8C116.9,54.4,116.5,60.8,115.1,66.5z"/>
	<path fill="#091A1D" d="M80,159.9c-1.4-5.5,5.7-1.1,6.4-0.8C84.2,159.4,82.1,159.6,80,159.9z"/>
	<path fill="#0B1919" d="M69,158c9.8,0.6-3.3,1.4-7.2,0.1C63.6,155.9,67.4,155.6,69,158z"/>
	<path fill="#0D1111" d="M110.9,93c0.6-2.6-1.2-8,0.8-9.2C112.7,86.8,111.4,89.9,110.9,93z"/>
	<path fill="#181F20" d="M60.1,169.4c0.7-3.3-1.6-9.8,0.8-11.6C61.2,161.5,60.3,165.5,60.1,169.4z"/>
	<path fill="#091A1D" d="M98,148c0.3,2.4-0.1,4.4-1.8,6.1C94.8,151.5,94.7,149.3,98,148z"/>
	<path fill="#000508" d="M107,106c0.5-1.7,0.9-3.4,1.5-5.6C109.5,103.4,108.3,112.6,107,106z"/>
	<path fill="#000405" d="M107,106c0.6,1.6,1.3,3.2,0.9,5C107.6,109.3,107.3,107.7,107,106z"/>
	<path fill="#000404" d="M113.9,76c-0.4-1.3-0.7-2.6-1.1-3.9C114.4,71.3,114,74.9,113.9,76z"/>
	<path fill="#000406" d="M109.9,99c-0.4-1.3-0.7-2.6-1.1-3.9C110.4,94.3,110,97.9,109.9,99z"/>
	<path fill="#0F1B1C" d="M103.1,136.4c0.3-1.5,0.5-2.9,0.8-4.4C103.7,133.5,103.4,134.9,103.1,136.4z"/>
	<path fill="#020607" d="M97.9,152c-0.2-1.2,0.3-4.6,1.4-2.3C98.8,150.5,98.3,151.2,97.9,152z"/>
	<path fill="#000504" d="M65,157c-1.3,0.4-2.6,1-3.9,1.2C61.2,155.6,63.5,155.8,65,157z"/>
	<path fill="#0D151A" d="M58.1,181.2c0.3-1.4,0.6-2.8,0.8-4.2C58.6,178.4,58.4,179.8,58.1,181.2z"/>
	<path fill="#000305" d="M113,82c-0.1-1.1-2-3-0.3-3.1C112.6,79.9,113.5,81.1,113,82z"/>
	<path fill="#000405" d="M106.9,116c-0.3-1.3-2.1-2.7-0.8-4C106.2,113.3,107.4,114.7,106.9,116z"/>
	<path fill="#000305" d="M105.9,121c-0.3-0.7-0.5-1.4-0.8-2.1C106.5,119,106,120,105.9,121z"/>
	<path fill="#000002" d="M105,126c-1.2-1.5-0.6-3.6,0.1-0.9C105.2,125.5,105.2,125.7,105,126z"/>
	<path fill="#0F1B1C" d="M102.1,141.5c0.3-1.2,0.5-2.3,0.8-3.5C102.6,139.2,102.4,140.3,102.1,141.5z"/>
	<path fill="#000508" d="M100,146c0.3-2.1,2.1-4.1,1.1-0.8C101.4,145.8,100.5,146.6,100,146z"/>
	<path fill="#1C2429" d="M59.2,175.4c0.2-0.8-0.8-4.5,0.7-3.4C59.6,173.1,59.4,174.2,59.2,175.4z"/>
	<path fill="#0D151A" d="M57.1,185.2c0.3-1.1,0.6-2.1,0.9-3.2C57.6,183.1,57.4,184.1,57.1,185.2z"/>
	<path fill="#0D151A" d="M56.1,188.3c0.3-0.8,0.5-1.5,0.8-2.3C56.6,186.8,56.4,187.5,56.1,188.3z"/>
	<path fill="#0D151A" d="M55,191.1c0.3-0.7,0.6-1.4,0.9-2.1C55.6,189.7,55.3,190.4,55,191.1z"/>
	<path fill="#0F1B1C" d="M101.1,145.2c0.1-1-0.7-2.5,0.8-2.2C101.6,143.7,101.4,144.5,101.1,145.2z"/>
	<path fill="#091A1D" d="M100,146c1.5-0.3,0.4,0.7,0.2,1.5C100.1,147,100.1,146.5,100,146z"/>
	<path fill="#091A1D" d="M99,150.1c-0.1-0.7-0.2-1.2,0.7-1.1C99.5,149.4,99.3,149.7,99,150.1z"/>
	<path fill="#091A1D" d="M95.1,155.1c0.4-0.3,0.7-0.7,1.1-1C95.8,154.5,95.4,154.8,95.1,155.1z"/>
	<path d="M93.2,156.3c0.3-0.5,1-2,1-0.7C94,156.1,93.7,156.3,93.2,156.3z"/>
	<path fill="#091A1D" d="M94,155.9c-0.2-1,0.3-1,1.1-0.8C94.7,155.4,94.4,155.6,94,155.9z"/>
	<path fill="#091A1D" d="M92,156c0.4,0.1,0.8,0.2,1.3,0.3C92.6,157.1,91.1,157.2,92,156z"/>
	<path fill="#091A1D" d="M91,157.8c-0.1-0.6,0-1.4,0.8-1C92.4,157.2,91.3,157.4,91,157.8z"/>
	<path fill="#091A1D" d="M89,158.7c0.4-0.2,0.8-0.4,1.2-0.6C89.8,158.3,89.4,158.5,89,158.7z"/>
	<path fill="#0D151A" d="M59.8,172c-0.9,0.2-0.9-0.2-0.8-1C59.9,170.8,60,171.1,59.8,172z"/>
	<path fill="#0D151A" d="M54.1,193.2c0.2-0.4,0.5-0.8,0.7-1.2C54.6,192.4,54.3,192.8,54.1,193.2z"/>
	<path fill="#0D151A" d="M53,194.9c0.2-0.3,0.5-0.6,0.7-0.9C53.4,194.3,53.2,194.6,53,194.9z"/>
	<path fill="#10201F" d="M38,154c-5.3,1-18.2-3.4-28-6.3c1.6-4.9,6.6,2.5,9.1-1.5c0.8-0.8,3.9,1.1,3.1-0.1
		c-2.7-9.9-4.8-19.7-17.6-14.8c2.9-15.1,22.5,4.4,21.8,14.9C30.8,148.4,45,147.2,38,154z"/>
	<path fill="#0F2223" d="M20.4,146.8c-9.1,8.6-24.4-16.7-9-4.2C14,144.2,19.2,143.8,20.4,146.8z"/>
	<path fill="#0A1A21" d="M6,139c-1.5,6.2-3.7,0.3-3.6-3.6C3.9,130.8,8.6,136.7,6,139z"/>
	<path fill="#00090B" d="M31,152.9c1.3-0.4,2.6-0.8,3.9-1.1C35.6,153.4,32.2,153,31,152.9z"/>
	<path fill="#0F2223" d="M16.7,150.1c1.4,0.3,2.9,0.5,4.3,0.8C19.5,150.6,18.1,150.4,16.7,150.1z"/>
	<path fill="#132625" d="M0.9,134c0.7-2.8,2.8,1,1.1,2.1C1.6,135.4,1.2,134.7,0.9,134z"/>
	<path fill="#000F12" d="M2,136.1c0.1-0.9-0.3-2.9,1.2-2.2C3.6,135,2.4,139.4,2,136.1z"/>
	<path fill="#132625" d="M2.1,137c1.5-0.3,0.7,1.3,0.8,2.3C2.6,138.5,2.4,137.7,2.1,137z"/>
	<path fill="#132625" d="M7.8,146.1c0.6,0,1.7-0.3,1.5,0.6C8.8,147.3,8.3,146.3,7.8,146.1z"/>
	<path fill="#0F2223" d="M10,147c0.2,1.1-0.4,0.4-1,0C9.3,146.6,9.8,146.6,10,147z"/>
	<path fill="#0F2223" d="M10.8,148.1c0.4,0.2,0.8,0.5,1.2,0.7C11.6,148.6,11.2,148.3,10.8,148.1z"/>
	<path fill="#132625" d="M3.1,140c0.3,0.4,0.5,0.8,0.8,1.3C3.6,140.8,3.4,140.4,3.1,140z"/>
	<path fill="#0F2223" d="M12.8,149.1c0.4,0.2,0.7,0.4,1.1,0.6C13.6,149.5,13.2,149.3,12.8,149.1z"/>
	<path fill="#132625" d="M4.2,142c0.8-0.3,1.8,0.6,0.8,1.1C4.7,142.7,4.4,142.3,4.2,142z"/>
	<path fill="#132625" d="M6,143c0.4,2-1.3,0.4-0.7-0.3C5.6,142.6,5.8,142.7,6,143z"/>
	<path fill="#081D1F" d="M6,84c2.6-8.9,1.2-24.9,4.7-25.1c-3.6-6.5,7.6-24.4,5.2-9.1C13.5,67.2,3.2,135.6,6,84z"/>
	<path fill="#0C2123" d="M18,30C22.7,9.1,59.6-3,34.8,13.2C32.2,16.1,22,34.4,18,30z"/>
	<path fill="#0F2021" d="M5,106c3.5-5.3,9.1,2.2,2.8,3.7c-4.7,4.3-0.1,10.7-4.4,15.2c-4.6,2.3-1.5-12.2-1-6.4c-0.9-2,1.3-13.2,0.5-6
		C4,108.2,2.9,97.1,5,106z"/>
	<path fill="#031214" d="M56,0.8c16.5-0.2,11.2,1.8-1,3.6C43.9,6.4,46.3-0.3,56,0.8z"/>
	<path fill="#0D1D24" d="M19,31c8.4-4.3-5.6,22.6-3.9,9.3C16,37.4,16.3,31,19,31z"/>
	<path fill="#0D1B1F" d="M43,7c-2-2-4.6-0.2-7,0.1C42.7-0.6,55.3,7.8,43,7z"/>
	<path fill="#0C2123" d="M16,40c-0.7,1.3-0.1,4.3-2,4C12.1,42.9,15.2,35.1,16,40z"/>
	<path fill="#011011" d="M8.2,67c0.4,2,0.7,4,1.1,5.9C7.2,73.3,8.2,68.6,8.2,67z"/>
	<path fill="#000C0E" d="M5,106c-0.3-1.4-2.4-6.8,0-6C5.3,101.7,4.8,104,5,106z"/>
	<path fill="#000E11" d="M5,93c1.6,2,1.6,4,0,6C4.1,97.1,4.5,94.7,5,93z"/>
	<path fill="#111D21" d="M2,115c0.4,1.7,0.8,3.4,1.3,5.1C1.3,120.6,2,116.5,2,115z"/>
	<path fill="#0F2021" d="M4.9,93.6c-0.3,1.8,0.9,5.4-0.3,6.4C3.4,99.1,5,95.5,4.9,93.6z"/>
	<path fill="#001012" d="M3.1,107c0.4,1.7,0.8,3.3,1.1,5C2.2,112.5,3,108.4,3.1,107z"/>
	<path fill="#000D0D" d="M10.1,56c0,1.2,2.1,4,0.2,4.1C10.4,58.8,9.5,57.2,10.1,56z"/>
	<path fill="#000909" d="M6,84c0.1,1.1,2,3.1,0.3,3.2C6.4,86.2,5.5,84.9,6,84z"/>
	<path fill="#000D12" d="M16,40c-0.6-0.8-1.9-4.1,0-3C16.2,38.1,16.1,38.9,16,40z"/>
	<path fill="#000B11" d="M13.1,43c1.3,0.9,0.5,1.8-0.1,3C12.1,45.1,12.8,43.9,13.1,43z"/>
	<path fill="#0C2123" d="M12,46.9c-0.3,1-0.5,2-0.8,3C11.4,49,11.7,48,12,46.9z"/>
	<path fill="#000A08" d="M32,10.8c-0.4,0.4-0.8,0.8-1.2,1.2C28.8,13.3,32.7,8.9,32,10.8z"/>
	<path fill="#0C2123" d="M44,3.2c-0.7,0.3-1.3,0.5-2,0.8C42.6,3.7,43.3,3.4,44,3.2z"/>
	<path fill="#000C13" d="M45,4c-0.4-1.3,1.1-1.7,2-1C47.3,4.3,45.9,4.9,45,4z"/>
	<path fill="#000A08" d="M30.1,12c1.6-0.5-0.5,1.9-1,1C29.4,12.7,29.7,12.4,30.1,12z"/>
	<path fill="#00060F" d="M16.9,32.7c0.2-2.8,3.4,1.7,0.2,1.2C16.6,33.8,16.6,32.9,16.9,32.7z"/>
	<path fill="#000908" d="M29.1,13c1.7-0.3-0.2,0.7-0.6,1.4C27.7,14,28.8,13.5,29.1,13z"/>
	<path fill="#000004" d="M28.1,14.7c-0.5,0.4-1,0.8-1.5,1.2C27.1,15.5,28.3,13.4,28.1,14.7z"/>
	<path fill="#000A11" d="M23.8,19.7c-0.1,0.5-0.1,1.1-0.2,1.6C22.5,20.9,23.3,20.4,23.8,19.7z"/>
	<path fill="#0C2123" d="M12.9,43.9c-0.1,0.9,0.6,2.4-0.8,2.1C12.4,45.3,12.7,44.6,12.9,43.9z"/>
	<path fill="#000A0E" d="M7,77c0.2,0.5,0.4,1,0.5,1.5C7.2,78,6.3,77.5,7,77z"/>
	<path fill="#0C2123" d="M16,37c-1.6,0.3-0.2-1.3-0.1-2.2C16,35.6,16,36.3,16,37z"/>
	<path fill="#0C2123" d="M47,3c-0.5-0.1-0.9-0.1-1.4-0.2C46.4,2.6,47.3,1.7,47,3z"/>
	<path fill="#0C2123" d="M41,4.3c-0.4,0.2-0.7,0.4-1.1,0.7C40.3,4.8,40.6,4.5,41,4.3z"/>
	<path fill="#000307" d="M24.2,19c-0.2,0.3-0.3,0.5-0.5,0.8C23.7,19.5,23.9,19.2,24.2,19z"/>
	<path fill="#0C2123" d="M16.9,32.7c0.1,0.8,0.4,1.5-0.7,1.3C16.4,33.6,16.6,33.1,16.9,32.7z"/>
	<path fill="#0C2123" d="M18,32c-1.4,0.2-0.7-0.5-0.3-1.3C17.8,31.1,17.9,31.6,18,32z"/>
	<path fill="#000B0C" d="M19,31c-0.7-0.1-1.9-0.2-1-1C18.3,30.3,18.7,30.7,19,31z"/>
	<path fill="#00080C" d="M21.1,24c-0.2,0.3-0.3,0.6-0.5,0.9C20.7,24.6,20.9,24.3,21.1,24z"/>
	<path fill="#0C2022" d="M55,4c15-8.7,39,6.5,48.2,17.8c-1.7,9.2-10.9-7-15.4-7.8C74.4,7.1,66.8,6.5,55,4z"/>
	<path fill="#0E2022" d="M113,42c1.3,5.4-8.3,3.9-3.4-3.2c-10.4,4.2-2.5-2.6-4.3-4.7C103.1,20.6,114.3,37,113,42z"/>
	<path fill="#0B1E21" d="M108,30c-4.9,2.6-10.5-5.9-4-7.2C105,25.5,108.6,27.8,108,30z"/>
	<path fill="#000D12" d="M72,2.1c-1.7,0-3.3-0.1-5-0.1C68.6,0.9,70.3,2.1,72,2.1z"/>
	<path fill="#020906" d="M106.9,27.9c-3.1,0.4-1.3-5,0.1-0.9C107.5,27.3,107.2,27.8,106.9,27.9z"/>
	<path fill="#000609" d="M113,42c0-1-0.1-2-0.1-2.9C113.1,40,113.9,41.1,113,42z"/>
	<path fill="#0C2022" d="M70.3,1.9C69.2,1.9,68.1,2,67,2C66.6,0.3,69.5,0.9,70.3,1.9z"/>
	<path fill="#000003" d="M98.3,17c-0.4-0.5-1.2-0.9-1.3-1.6C96.7,14.7,99.7,17.5,98.3,17z"/>
	<path fill="#000A0D" d="M81,5.1c-0.4,0.2-0.8,0.5-1.1,0.7C80.1,5.3,80.4,4.3,81,5.1z"/>
	<path fill="#000001" d="M98.3,17c0.5-0.2,2,1.1,1.3,1.3C99.1,17.9,98.7,17.5,98.3,17z"/>
	<path fill="#000002" d="M101,19.8c-0.4-0.5-1.2-0.9-1.1-1.6C100.3,18.7,101.1,19,101,19.8z"/>
	<path fill="#000002" d="M101,19.8c-0.1-1.1,0.9,0.7,1.4,1.1C101.9,20.5,101.4,20.1,101,19.8z"/>
	<path fill="#0E2022" d="M114.9,46c-0.2-0.8-0.5-1.6-0.7-2.4C114.4,44.4,114.6,45.2,114.9,46z"/>
	<path fill="#000506" d="M104.1,22.8c-0.4,0.4-0.7,0.8-1.1,1.2C103.2,22.7,102.8,20.9,104.1,22.8z"/>
	<path fill="#0E2022" d="M113,42c0-0.7,0-1.4,0-2C113.2,40.8,114.6,42.3,113,42z"/>
	<path fill="#000204" d="M111.1,34.9c-0.2,0.2-0.4,0.4-0.6,0.6C110.6,34.8,111.1,33.3,111.1,34.9z"/>
	<path d="M92,11.1c-0.3-0.2-0.6-0.4-0.9-0.6C91.4,10.7,91.7,10.9,92,11.1z"/>
	<path fill="#000100" d="M109.3,30.9c-0.4-0.3-0.8-0.6-1.3-0.9C108.7,29.3,109,30.4,109.3,30.9z"/>
	<path fill="#0E2022" d="M108.8,30c-1.1,0.2-0.8-0.5-0.7-1.3C108.3,29.2,108.6,29.6,108.8,30z"/>
	<path fill="#0E2022" d="M106.9,27.9c0-0.3,0-0.6,0.1-0.9C107.5,27.7,108.1,28.3,106.9,27.9z"/>
	<path fill="#000002" d="M103.3,21.9c-0.4-0.4-0.7-0.8-1.1-1.2C102.5,21.1,102.9,21.5,103.3,21.9z"/>
	<path fill="#111D21" d="M1.2,123c2,2.5,1.3,5.6,2.8,8C3.9,140.2-1.5,127.1,1.2,123z"/>
	<path fill="#DBA78E" d="M48.1,194.3c-21,0.8-6.8-50.4-0.8-37.2c2.4,0.9,8.3-4.2,9,0.9C47.5,167.2,54.8,184.9,48.1,194.3z"/>
	<path fill="#E4D0C9" d="M50,192c-5-14.4,8.4-57.8,5.9-15.2C55.4,180.3,53.4,192.6,50,192z"/>
	<path fill="#091A1C" d="M48.7,156.1c-32.1-5.9,14.5-5.5,18.3-1.6C79.4,158.8,53.1,157.9,48.7,156.1z"/>
	<path fill="#D98B5F" d="M39,169c-1.8,5.1-2,10.9-0.2,16.1C36.8,198.6,30.6,166.1,39,169z"/>
	<path fill="#D6895D" d="M39,169c-4.1-1.4-0.6-9-0.9-12.7C45.2,150.1,39.9,165.5,39,169z"/>
	<path fill="#D6895D" d="M38,188c-0.2-3.3,0-6.7,0-10c-1.6,6.1,12.5,20.5,1.9,15.4C39.9,191.4,36.5,190.6,38,188z"/>
	<path fill="#1C2429" d="M56.2,173c0.7-2.2-2.3-6.7,0.7-7.3C56.3,167.5,58.2,173,56.2,173z"/>
	<path fill="#F49B6B" d="M38,188c0.6,1.8,1.3,3.6,1.9,5.4C39,192.1,34.3,188.3,38,188z"/>
	<path fill="#E4D0C9" d="M56.8,165.7c-1.9,1.5-2.1-6.6,0.3-5.9C58,161.6,56.5,163.6,56.8,165.7z"/>
	<path fill="#091A1C" d="M57.1,162c0-0.6,0.3-2,0.9-1C59.4,164.8,58.9,166.7,57.1,162z"/>
	<path fill="#0D151A" d="M55.1,182c0.3-1.7,0.5-3.5,0.8-5.2C55.6,178.5,55.4,180.2,55.1,182z"/>
	<path fill="#1C2429" d="M58,161c-1.8,0.2-1.3-2.8-2.4-3.8C58.8,156.2,57.9,158.7,58,161z"/>
	<path fill="#091A1C" d="M59,171c-0.4-1-0.7-2.1-1.1-3.1C59.6,167.1,58.7,169.9,59,171z"/>
	<path fill="#10201F" d="M41,155c-2,1-3.3,2.1-3-1C39,154.3,40,154.6,41,155z"/>
	<path fill="#F29A69" d="M37,166c0.1,1,1.9,3.4,0.1,3C36.2,168.1,36.8,167,37,166z"/>
	<path fill="#D6895D" d="M36.9,166.8c0.1,1.3,0.4,2.4-0.8,3.2C36.3,168.9,36.6,167.8,36.9,166.8z"/>
	<path fill="#0D151A" d="M54.1,186c0.3-0.8,0.5-1.7,0.8-2.5C54.6,184.3,54.3,185.1,54.1,186z"/>
	<path fill="#0D151A" d="M53.1,187.2c1.5-1.1,0.1,0.9-0.1,1.8C53.2,188.3,52.2,187.3,53.1,187.2z"/>
	<path fill="#D6895D" d="M37,188c0,0.7,0,1.4-0.1,2C36.8,189.1,35.3,187.7,37,188z"/>
	<path fill="#FBC8AD" d="M48.1,194.3c0.6-0.5,1.2-2.3,1.9-1.3C49.3,193.4,48.7,193.9,48.1,194.3z"/>
	<path fill="#0D151A" d="M56.2,173c1.4-0.2,0.4,0.4-0.1,1C56.1,173.7,56.1,173.3,56.2,173z"/>
	<path fill="#DBA78E" d="M51,191.8c0.2-0.3,0.4-0.5,0.5-0.8C51.4,191.3,51.2,191.6,51,191.8z"/>
	<path fill="#DBA78E" d="M50,192c1.5-0.4,0.3,1-0.4,0.9C49.7,192.6,49.8,192.3,50,192z"/>
	<path fill="#E9B403" d="M68,155.1c-23.4-40.4-36.3,22.2-46.1-24.2c-1.1-8.4-21.9-2.3-14.4-9.5c10.4,2.9,10.2-22.8,16.1-14
		c5.9-6.1,1.5-15.8,15-7.9c-4-3.4-0.6-6.6,0.1-9.8c-2.4,4.7-9.2-2.2-12-2.3c-1.7-4.9-0.1-11.3-7-10.7c3-12.4,11.8-8.4,10-14.7
		c-1.2,0.5-2.6,2.5-3.5-0.2c-1.5-4.1-6.2,1.2-7.7-2.6c20.2-17,10.1-37.6,18.6-30.8c0.9,5.5,6.2,5.4,8.2,2.5
		c-22-17.6,12.7-9.9,21.9-14.3c5.2-3.1,11.2-6.9,10.2,4.5c9-22.6,4.4,21.3,31.7,18.6c5.1,15.3-28.2,26.2-6.1,48.4
		c14.8,23-27.2,6.8-6.5,55.3C77.9,130,78.3,147.4,68,155.1z"/>
	<path fill="#71AB3B" d="M109.1,78.3c-0.9,12.5-8-10.4-5.7-12C115.6,44.6,111.1,68.9,109.1,78.3z"/>
	<path fill="#121616" d="M103,82c-14.2,2.9-1.2-36.5,9-28C103.2,61.9,101.6,71.2,103,82z"/>
	<path fill="#A9C599" d="M103.1,80.8c-2.7-2.8-2.8-18.9,0.9-13.8C104,73.1,113.3,94.4,103.1,80.8z"/>
	<path fill="#B9D5AA" d="M104.3,108.1c-0.6,3-3.4,7-6.2,8.1C94.7,113.8,102.8,103,104.3,108.1z"/>
	<path fill="#081719" d="M106,112c0,8.8-7.2,6.2-2.9-0.9C103.8,108.8,104.9,111.1,106,112z"/>
	<path fill="#111717" d="M103,107c-1.6,1.7-4.3,1.9-4.3-0.9C100.2,101.1,109.1,104.2,103,107z"/>
	<path fill="#0E2022" d="M110.9,68c0.6-2.3-0.9-7.1,1-8.2C111.7,61.7,111.2,70.3,110.9,68z"/>
	<path fill="#0E2022" d="M112,54c-2.1-0.9-3-5.6,0-5C112.2,51,115.4,54.1,112,54z"/>
	<path fill="#F2D37B" d="M104.9,103.9c-1.4-0.1-2.6-0.6-4-0.3C98.5,102.8,107.2,99.2,104.9,103.9z"/>
	<path fill="#F1DB8D" d="M106.9,90.9c-1.3-0.8-6-2-2.4-2.9C106,87.6,108.7,89.4,106.9,90.9z"/>
	<path fill="#6DAA3F" d="M109.1,78.3c0.3-1.4,0.6-2.9,0.9-4.3C109.7,75.4,109.4,76.9,109.1,78.3z"/>
	<path fill="#000915" d="M111,71c1.6,2.3,0.5,4.7-0.1,0.9C110.5,71.6,110.7,71.1,111,71z"/>
	<path fill="#6DAA3F" d="M111,71c-1.2,3.4-0.5-1.5-0.1-3C111.2,69,111.1,70,111,71z"/>
	<path fill="#6DAA3F" d="M111.9,59.8c-0.9,1.2-2.7-2.5-1.9-3.2C112.1,55.8,111.7,58.6,111.9,59.8z"/>
	<path fill="#000308" d="M109,82c0.5,4.4-1.2,4.1-0.3-0.1C108.7,82,109,82,109,82z"/>
	<path fill="#000710" d="M113,52c-0.3-1-0.6-2-1-3C112.4,50,112.7,51,113,52z"/>
	<path fill="#839C82" d="M111.6,57c-1.7,0.1-1.9-1.3-0.6-2.2C112.5,54.4,111.7,56.2,111.6,57z"/>
	<path fill="#0E2022" d="M113.9,61.7c-0.2,0.5,0.1,1.7-0.5,1.5C113.3,62.5,112.8,61.4,113.9,61.7z"/>
	<path fill="#575937" d="M106.9,90.9c0.1-0.7-0.1-2.9,1.1-1.9C109.5,90.1,107.3,93.9,106.9,90.9z"/>
	<path fill="#000109" d="M107.9,92c0-1,0.1-2,0.1-3C109.4,90,109.4,91,107.9,92z"/>
	<path fill="#475B49" d="M103,107c1.3-0.7,2.3-1.1,2.3,0.7C104.6,108.8,103.6,107.5,103,107z"/>
	<path fill="#00040D" d="M105,108c0-0.3,0-0.7,0.1-1C105.4,107.8,106.1,108.8,105,108z"/>
	<path fill="#171F1E" d="M108,89.1c-0.9,0.1-1.5-0.4-2.1-1C106.6,88.4,107.3,88.7,108,89.1z"/>
	<path fill="#FEEFAD" d="M104,86.8c0.9,0.9,1.1,1.7-0.4,1.6C102.4,88.1,102.8,86.3,104,86.8z"/>
	<path fill="#FEF3A7" d="M101.8,84.4c0.2,0.6,0.9,1.1,0,1.7C99.5,86.6,100.8,82.2,101.8,84.4z"/>
	<path fill="#171F1E" d="M109,86c-0.7,0-1.4,0.1-2.1,0.1C107.3,85,108.4,85.5,109,86z"/>
	<path fill="#0E2022" d="M113.8,58c-0.1,0.8-0.9-0.3-0.3-0.4C113.7,57.7,113.7,57.8,113.8,58z"/>
	<path fill="#171F1E" d="M104,82.1c0.6-0.1,1.3,0.1,1.2,0.9C104.7,82.8,104.3,82.7,104,82.1z"/>
	<path fill="#171F1E" d="M103.1,80.8c0.3,0.4,0.6,0.8,0.8,1.3C102.9,82.2,103,81.6,103.1,80.8z"/>
	<path fill="#0E2022" d="M112,55.1c-1.2-0.3-0.8-0.5,0-1.1C112,54.4,112,54.7,112,55.1z"/>
	<path fill="#171F1E" d="M106.1,84.8c0.5,0.2,1.6,0.2,1.1,1C106.7,86.3,106.5,85.2,106.1,84.8z"/>
	<path fill="#171F1E" d="M101.8,84.4c-0.7-0.2-1.4-0.6-0.9-1.4C102.2,82.8,102,83.4,101.8,84.4z"/>
	<path fill="#171F1E" d="M102.2,85.6C102.2,86,102.2,85.8,102.2,85.6C102.1,84.1,104,86.8,102.2,85.6z"/>
	<path fill="#171F1E" d="M104,86.8c-0.7,0.2-2.1,0-1-0.8C103.4,85.8,103.7,86.5,104,86.8z"/>
	<path fill="#0C1213" d="M98.9,106.8c4,2.9-5.8,14.2-2.4,21.4C104.8,153.7,78.8,116.9,98.9,106.8z"/>
	<path fill="#141817" d="M76,153c-6.7-10.2,17.2-20.4,20.9-7.3C84.5,147.1,89.8,138.6,76,153z"/>
	<path fill="#6DA938" d="M103.1,111.1c-3.8,48.9-11,1-2.8,6.3C99.7,115.1,100.7,111.3,103.1,111.1z"/>
	<path fill="#6AA93B" d="M89.8,153.8c-5.5,1.8-4.5-3.3-3.8-6.8C91.7,145.5,96.4,151,89.8,153.8z"/>
	<path fill="#ACC9A1" d="M93.8,149.9c-3.1-1.6-5.7-4.7-9.6-3.4C81.7,139.9,97.7,143.8,93.8,149.9z"/>
	<path fill="#E6D39A" d="M96.8,145.7c-0.9-1.3-7.5-5.6-3.6-5.8C94.8,141.7,98.6,143,96.8,145.7z"/>
	<path fill="#6CA939" d="M100,130.1c0.3-1.7,0.6-3.4,0.9-5.1C100.6,126.4,101.8,129.9,100,130.1z"/>
	<path fill="#6CA939" d="M102.1,118.3c0.2-1.1,0.5-2.2,0.7-3.2C102.7,116.2,103.4,117.8,102.1,118.3z"/>
	<path fill="#6CA939" d="M101.1,123.4c0.2-1.1,0.5-2.2,0.7-3.3C101.6,121.2,101.4,122.3,101.1,123.4z"/>
	<path fill="#0C1213" d="M99,137c0,1,0,2,0,3C98.2,139.2,98.1,137.7,99,137z"/>
	<path fill="#091A1D" d="M97.1,145c-0.3-1.3-0.1-2.3,0.8-3.2C97.6,142.8,97.4,143.9,97.1,145z"/>
	<path fill="#0F1B1C" d="M102.4,129.4c-0.4-0.4-0.1-0.5,0.3-0.7C102.9,129.1,102.8,129.3,102.4,129.4z"/>
	<path fill="#091A1D" d="M94.1,150c0-0.7,0.1-1.3,0.1-2C94.1,148.7,94.1,149.4,94.1,150z"/>
	<path fill="#0F1B1C" d="M99.1,133.9c0.2,0.2,0.5,0.3,0.8,0.2C99,136.3,97.2,132.8,99.1,133.9z"/>
	<path fill="#091A1D" d="M98.8,138.7c0.3,1,0,1.7-0.8,2.3C98.2,140.3,97.7,138.5,98.8,138.7z"/>
	<path fill="#0F1B1C" d="M100,130.1c0.3-0.1,0.6-0.3,0.8-0.4C100.5,130.4,100.2,131.5,100,130.1z"/>
	<path fill="#091A1D" d="M98,148c0.2-0.2,0.3-0.3,0.5-0.5C98.5,147.8,98.3,147.9,98,148z"/>
	<path fill="#091A1D" d="M91,153c0.3-0.3,0.6-0.5,0.9-0.8C91.6,152.5,91.3,152.7,91,153z"/>
	<path fill="#091A1D" d="M89.9,153.9c0.4-0.3,0.7-0.6,1.1-0.9C90.6,153.3,90.3,153.6,89.9,153.9z"/>
	<path fill="#000307" d="M91.8,156.8c-1.3,0.5-0.3-0.3,0.2-0.8C92,156.3,91.9,156.5,91.8,156.8z"/>
	<path fill="#6AA835" d="M86,151c4.6,6.9-14.1,5.2-7-2.1C82.1,147.2,84.6,148.1,86,151z"/>
	<path fill="#4D6453" d="M75.1,155.8c-1-3.6,6.4-0.7,8.8-0.9C82.2,156,77.8,155.2,75.1,155.8z"/>
	<path fill="#EBD99A" d="M75.9,147c-2.1,2.2-1.9,7.2-4,8.3C69.6,153.1,73.3,141.8,75.9,147z"/>
	<path fill="#99BA73" d="M79,150c-0.8,1.5-0.8,4.9-3.1,4C76.1,152.7,77.4,149.2,79,150z"/>
	<path fill="#141817" d="M72,154.9c3.4,1.8-2.3,1.4-4,0.2C69.4,155.3,70.8,154,72,154.9z"/>
	<path fill="#141817" d="M73.1,153c0.3-0.7,0.6-1.3,0.9-2C73.7,151.6,73.4,152.3,73.1,153z"/>
	<path fill="#0B1919" d="M71,156.1c0.7,0,1.3,0,2-0.1C72.1,156.3,70.7,157.8,71,156.1z"/>
	<path fill="#141817" d="M75.2,154.1c-0.1,0.3-0.1,0.6-0.1,0.9C75.1,154.7,75.1,154.4,75.2,154.1z"/>
	<path fill="#0E1213" d="M62,154c-6.5-4.1-12.2-12.6-20-3.6C30.5,140.4,67.6,136.2,62,154z"/>
	<path fill="#B2CFA6" d="M18.9,134.4c4,11.6-6.5-3.5-12.2-1.6c-3.4-4.7,9.6-2.8,11.3,0.3C18.3,133.3,18.8,133.8,18.9,134.4z"/>
	<path fill="#EED99C" d="M25.9,139c3.7,16.8-6.4-2-0.9-3C25.8,136.8,25.1,138.2,25.9,139z"/>
	<path fill="#D9CD97" d="M44,143.1c-2.5,0.9-6.2,10.7-6.7,4.8C39,146.7,42.7,140.2,44,143.1z"/>
	<path fill="#BAD9AD" d="M18.9,139.2c1.6-5.5,3.3,4.7,3.5,7C20.3,149.4,16.8,141.1,18.9,139.2z"/>
	<path fill="#132625" d="M4,131c-2.8,2.4-2.8-6.2-1-6C4.7,126.6,4,129,4,131z"/>
	<path fill="#CAE3BA" d="M14,131c-1.9-0.5-4.6-0.1-6-1.2C9.4,129.1,15.1,128.4,14,131z"/>
	<path fill="#132625" d="M9,146c-3.2-6.1,4.6,1.2,2,1C10.5,146.3,9.5,146.6,9,146z"/>
	<path fill="#F0D98B" d="M6,125.1c4.1-1.2,2.5,3.8-0.5,2.9C4.1,127.3,4.4,125.2,6,125.1z"/>
	<path fill="#75785F" d="M5.1,126.1c0.3,2,1.5,2-1,2.9C1.6,126.7,5.9,121.1,5.1,126.1z"/>
	<path fill="#E8D394" d="M8,127c-0.3-2.7,6-2.8,6.3-0.3C13.1,127.7,9.5,127.3,8,127z"/>
	<path fill="#FBC30E" d="M29,147.9c1.3-0.3,2.6-0.7,4-1C33.7,148.5,30.2,148.1,29,147.9z"/>
	<path fill="#181F1C" d="M14,130.2c-0.8-0.3-1.6-0.7-2.4-1C12.6,129.3,16.6,130.3,14,130.2z"/>
	<path fill="#132625" d="M4,134c0-1.2-0.4-4.3,1.4-2.6C5.8,132.6,5.7,134.4,4,134z"/>
	<path fill="#181F1C" d="M20.2,138.5c-0.2-0.8-0.4-1.6-0.3-2.5C20.3,136.8,21.4,140.4,20.2,138.5z"/>
	<path fill="#181F1C" d="M24.1,141.7c0.3,1.1,0.5,2.2,0.8,3.3C24.6,143.9,24.4,142.8,24.1,141.7z"/>
	<path fill="#181F1C" d="M22,147c-0.1-1.1-0.3-1.9,0.2-2.9C22.3,144.9,23.8,148.2,22,147z"/>
	<path fill="#02080E" d="M40,152c-2.7,0.2-2.6-1.1,0-1C40.4,151.3,40.3,151.9,40,152z"/>
	<path fill="#FEFECD" d="M26,147c0.1-0.3,0.1-0.6,0.2-0.9C27.2,144.4,27.9,149.1,26,147z"/>
	<path fill="#0F2223" d="M22.1,147.1c0.6-0.2,1,0,1.3,0.6C23,147.5,22.6,147.3,22.1,147.1z"/>
	<path fill="#181F1C" d="M10.5,129.1c-0.8,0.2-1.7,0.5-2.5,0.7C8.8,129.6,9.7,129.4,10.5,129.1z"/>
	<path fill="#C6BB87" d="M39,149.8c0.3-0.6,0.6-1.2,0.9-1.8C39.8,148.8,40.2,150,39,149.8z"/>
	<path fill="#0F2223" d="M25.4,149.6c-0.4,0.4-0.5,0.1-0.7-0.3C25.1,149.1,25.3,149.2,25.4,149.6z"/>
	<path fill="#E8D394" d="M24,137c0,0.7,0,1.4,0,2.1C22.6,139.3,22.4,135.2,24,137z"/>
	<path fill="#181F1C" d="M21.9,142.3c-0.2-0.8-0.5-1.6-0.7-2.4C21.4,140.7,21.7,141.5,21.9,142.3z"/>
	<path fill="#181F1C" d="M8,127c2.1,0.3-0.4,0.5-1.2,1C7.2,127.6,7.6,127.3,8,127z"/>
	<path fill="#181F1C" d="M13,127.1c0.7,0,1.4-0.7,2.1-0.3C16,128.6,13.9,127.4,13,127.1z"/>
	<path fill="#E8D394" d="M15.2,127.9c-0.9-0.9,0.3-1.6,1-0.7C16.6,128.2,16,128.5,15.2,127.9z"/>
	<path fill="#181F1C" d="M16.9,129.1c-0.5-0.4-0.6-0.9-1-1.3C16.8,127.5,17.6,128.5,16.9,129.1z"/>
	<path fill="#181F1C" d="M17.9,130.1c-0.3-0.4-1.1-0.7-0.9-1.1C17.8,128.7,18.4,129.4,17.9,130.1z"/>
	<path fill="#132625" d="M4.9,130.9c0.6-0.5,2-1.1,1,0.1C5.8,131.4,5.2,131.4,4.9,130.9z"/>
	<path fill="#73AE41" d="M6,131c0-0.6,0.3-1.2,1-0.7C6.6,130.5,6.3,130.8,6,131z"/>
	<path fill="#181F1C" d="M15.1,129.9c0.4,0.5,1.4,0.8,0.8,1.4C14.9,131.6,14.2,130.6,15.1,129.9z"/>
	<path fill="#181F1C" d="M18.9,131.1c-0.2-0.4-1.1-0.8-0.9-1.2C18.9,129.8,19.4,130.4,18.9,131.1z"/>
	<path fill="#181F1C" d="M16.1,130.9c1.6,0.8,0.2,2.1,0.1,0.9C15.4,131.7,15.5,131.3,16.1,130.9z"/>
	<path fill="#181F1C" d="M19.9,132.1c-0.2-0.4-1.1-0.8-0.8-1.2C19.9,130.8,20.4,131.5,19.9,132.1z"/>
	<path fill="#181F1C" d="M18,133c-0.7,0-1.7-0.5-0.9-1.1C17.4,131.9,17.6,132.7,18,133z"/>
	<path fill="#181F1C" d="M20.7,132.9c-0.2-0.3-0.9-0.6-0.7-0.9C20.7,131.4,21.7,132.6,20.7,132.9z"/>
	<path fill="#181F1C" d="M18.9,134.4c-0.3-0.4-0.6-0.9-0.9-1.3C18.3,133.5,18.6,133.9,18.9,134.4z"/>
	<path fill="#E8D394" d="M21.1,133.8c-1.2-1.5,1.6-1.1,1,0.3C21.6,134.4,21.3,134.3,21.1,133.8z"/>
	<path fill="#E8D394" d="M22.1,135.8c-0.5-1.1,0.3-1.6,1.2-0.7C23.7,136,22.5,136.8,22.1,135.8z"/>
	<path fill="#181F1C" d="M21.1,133.8c0.5,0.4,1.6,0.4,1.2,1.2C21.6,134.9,21.4,134.4,21.1,133.8z"/>
	<path fill="#0F2223" d="M10,146c1,0.7,1.2,1.4-0.1,0.8C9.6,146.5,9.7,146.3,10,146z"/>
	<path fill="#B2CFA6" d="M20.2,138.5c0.7,0.3,0.9,0.8,0.6,1.5C20.6,139.5,20.4,139,20.2,138.5z"/>
	<path fill="#181F1C" d="M23.2,138.5c0.6,0.4,1,0.8,0.6,1.5C23.6,139.5,23.4,139,23.2,138.5z"/>
	<path fill="#181F1C" d="M22.1,135.8c0.5,0.3,1.8,0.6,1.1,1.3C22.6,136.9,22.4,136.4,22.1,135.8z"/>
	<path fill="#C6BB87" d="M37.1,149c0.3,0.3,0.6,0.6,0.9,0.9C37.4,149.7,36.4,149.8,37.1,149z"/>
	<path fill="#181F1C" d="M19.9,136.1c-0.3-0.4-0.5-0.7-0.8-1.1C19.4,135.4,19.7,135.8,19.9,136.1z"/>
	<path fill="#71B03F" d="M19.9,144c-0.8,5.1-10.8-2.4-12.9-5C1.3,124.6,20.6,135.5,19.9,144z"/>
	<path fill="#132625" d="M5,142c0-0.7,0-1.3,0-2C5.4,140.7,6.7,143.1,5,142z"/>
	<path fill="#132625" d="M6,137c0.3,0.7,0.7,1.4,1,2C5.5,139.4,6.1,138,6,137z"/>
	<path fill="#88CE42" d="M9.9,141c0.1,0.3,0.1,0.6,0.2,0.9C9.5,141.4,8.7,140.7,9.9,141z"/>
	<path fill="#80C645" d="M13,143.9c0.4-0.2,0.8-0.4,1.3-0.6C14,143.9,13.7,144.5,13,143.9z"/>
	<path fill="#132625" d="M7,139c0.3,0.3,0.5,0.6,0.8,1C7.5,139.6,7.3,139.3,7,139z"/>
	<path fill="#000704" d="M5.1,142c0.9-0.2,1,0.1,1,1C5.4,143,5,142.6,5.1,142z"/>
	<path fill="#132625" d="M11,143.2c0.3,0.3,0.7,0.5,1,0.8C11.7,143.7,11.4,143.4,11,143.2z"/>
	<path fill="#73AE41" d="M6.1,131.8c-0.3,1.2,0.8,2.1,0.1,3.2C3.9,136.2,5.2,128.3,6.1,131.8z"/>
	<path fill="#132625" d="M3,134c0.3,0,0.7,0,1,0C3.3,134.7,2.8,135.5,3,134z"/>
	<path fill="#132625" d="M5.1,134.7c0.5,0.3,1.7,0.7,1,1.3C5.5,136,5.4,135.2,5.1,134.7z"/>
	<path fill="#000405" d="M10,146c0.1,0.5-0.1,1.1-0.7,0.7C8.7,146,9.3,145.9,10,146z"/>
	<path fill="#E9B50A" d="M19,59c9.4-3.6,11,8.3,1.7,7.7c5.4-0.1,3.6,7.5-0.7,8.9c4.6,0.3,7.6-1.4,6,5.4c-6.6,5.1-19.7-9.3-13.1-16.1
		C16.9,70.9,9.6,56.6,19,59z"/>
	<path fill="#73AB40" d="M18.8,38c7.7-27,14.2,6.1,1,9.1c2.4,1.4-5.6,7.8-4.8,3.9C16.4,46.4,16.7,42.6,18.8,38z"/>
	<path fill="#141C19" d="M10.2,106.4c-4.8-8.2,15.1-22.3-0.3-27.3C22.5,66.4,22.6,102.1,10.2,106.4z"/>
	<path fill="#161A18" d="M25,26c17.8-2-2.7,39.1-10,29C20.6,46.8,33.8,37.3,25,26z"/>
	<path fill="#73AA42" d="M10,80.1c13.1,1.9-6.8,38.7-0.7,10.6C10.8,89.4,8.6,83,10,80.1z"/>
	<path fill="#000C18" d="M9,91c0.1-1.5-1.2-4.5-0.3-5.2C9.7,86.9,10.3,90,9,91z"/>
	<path fill="#101F1D" d="M8.9,92c-0.3,1.7-0.6,3.5-0.8,5.2C8.4,95.5,8.6,93.7,8.9,92z"/>
	<path fill="#ACCDA6" d="M8.2,101.1c0.5-0.4,1-0.8,1.5-1.1C12.9,98.2,7.6,106.3,8.2,101.1z"/>
	<path fill="#37522E" d="M9.1,91.1c-0.4-2.1,0.2-8.1,1-3C10.8,89.2,10.7,91,9.1,91.1z"/>
	<path fill="#03080F" d="M10,80.1C10,81,9.9,82,9.9,82.9C9.9,82,9.8,77.8,10,80.1z"/>
	<path fill="#000A1B" d="M12.2,65.3C12.1,65.9,12,66.4,12,67C10.8,65.3,11,61.7,12.2,65.3z"/>
	<path fill="#0C2123" d="M13.1,49.3c0.2-0.5-0.1-1.7,0.5-1.5C13.7,48.5,14.2,49.6,13.1,49.3z"/>
	<path fill="#0C2123" d="M15.9,47c-0.3,1-0.6,2.1-0.9,3.1C15.4,49.1,15.6,48.1,15.9,47z"/>
	<path fill="#4E5C53" d="M16,53.9c-0.8,2-2.5-0.6-1.4-1.4C15.2,52.7,15.6,53.4,16,53.9z"/>
	<path fill="#00060D" d="M12.8,61c0.1-1,0.2-2,0.3-3C14,58.8,13.9,60.4,12.8,61z"/>
	<path fill="#FEC827" d="M14,67c-0.7-0.8-2.1-4.1,0-3C13.7,65,14.8,66.5,14,67z"/>
	<path fill="#000708" d="M7,105c-1.7,0.3-0.3-1.1,0-2C7.6,103.7,7.6,104.3,7,105z"/>
	<path fill="#566760" d="M7,105c0.2-0.8-0.4-2.3,0.8-2.1C9.7,103.5,8.8,105.5,7,105z"/>
	<path fill="#0C2123" d="M14.8,53c-1.4,0.2,0-1.1,0.1-2C14.9,51.7,15.8,52.9,14.8,53z"/>
	<path fill="#0C2123" d="M16.8,45.7c-1.3,1.1-1.3-2.4,0.3-1.7C17.5,44.7,17.7,45.3,16.8,45.7z"/>
	<path fill="#DAA91F" d="M14,64c-1.5,0.4-0.8-1-0.9-2C14.2,60.8,14,63.3,14,64z"/>
	<path fill="#B79C6E" d="M14,62c-1.7,0.6-1.2-3.1,0.3-1.9C14.6,60.7,13.9,61.2,14,62z"/>
	<path fill="#83724B" d="M13.9,59.9c-2,0.6,0-4.3,0.7-1.3C14.6,59.2,14.4,59.7,13.9,59.9z"/>
	<path fill="#D0E9C7" d="M8.9,103.8c-0.6-0.5-1.5-1-0.8-1.8C8.6,102.6,9.4,103.1,8.9,103.8z"/>
	<path fill="#E9B403" d="M14.1,57.6c0-0.7,0.9-1.4,0.7-0.3C15.9,57.9,14.7,58.4,14.1,57.6z"/>
	<path fill="#000005" d="M14.9,56.9c-1.1,0.9-0.3-0.4,0.1-0.9C15,56.3,15,56.6,14.9,56.9z"/>
	<path fill="#0F2021" d="M5,101c0-0.3,0-0.7,0-1C5,100.3,5,100.7,5,101z"/>
	<path fill="#E9B511" d="M43.1,17.9c1.2,3.6-1,3-3.1,3.3c-3.6,9.9,16.2,5.6,4,12.8C13.4,27.6,37,1.9,43.1,17.9z"/>
	<path fill="#72AB3F" d="M47.2,6.1c2.5-0.8,16.2-4.8,16.6,3C66.7,19,29.4,10.2,47.2,6.1z"/>
	<path fill="#ADC89E" d="M25,26c3.4,2.1,5,10.2,1.2,12C28,34.1,21.8,26.4,25,26z"/>
	<path fill="#EBD99B" d="M26.8,22.7c0.9,1.7,5.9,3.9,3.2,5.6C28.1,27.4,25.5,25,26.8,22.7z"/>
	<path fill="#091317" d="M36.8,12.1c-3.6,2.2-1.2-1.5,0.4-2.5C40.9,7.5,40.5,12.9,36.8,12.1z"/>
	<path fill="#0A1E20" d="M24.1,26.2c-0.5,1-1.7,5-3.1,3.9C21.9,28.6,21.7,25.3,24.1,26.2z"/>
	<path fill="#091317" d="M40,11c1.2,0.2,2.1-1.3,3.2-0.1C44,13.3,38.6,13.3,40,11z"/>
	<path fill="#000608" d="M43,7.9c-1.5,0.7-1.4-0.8,0-0.9C43.4,7.3,43.3,7.8,43,7.9z"/>
	<path fill="#CDEDBC" d="M42,8.9c1.1,0.2,1.4,1.4,0.1,1.6C40.6,10.5,41.3,9.6,42,8.9z"/>
	<path fill="#000318" d="M35,12c0.5,0.8-1.2,2.6-1.3,1.3C34.1,12.8,34.6,12.5,35,12z"/>
	<path fill="#000117" d="M34,13c0.2,0.9-0.5,1.3-1,1.8C32.7,14.1,33.5,13.6,34,13z"/>
	<path fill="#FED127" d="M29,20.9c-0.3,0.1-0.6,0.1-0.9,0.2C28.6,20.4,29.3,19.5,29,20.9z"/>
	<path fill="#00020B" d="M32,10.8c0-0.3,0.1-0.4,0.4-0.4C32.3,10.6,32.2,10.7,32,10.8z"/>
	<path fill="#2E352F" d="M41,10c0.4,0.1,1.4,0,1.3,0.5C42,11.4,40.6,11.1,41,10z"/>
	<path fill="#000004" d="M28.1,14.7c-0.1-0.5,0.3-0.7,0.7-0.7C28.6,14.3,28.3,14.5,28.1,14.7z"/>
	<path fill="#000116" d="M33,14.1c0,0.2,0,0.4-0.1,0.6C32.6,14.4,32.5,14.1,33,14.1z"/>
	<path fill="#00080F" d="M19,28c0.2,0.2,0.3,0.3,0.5,0.5C19.2,28.5,19.1,28.2,19,28z"/>
	<path fill="#00090C" d="M20,26c0.2,0.2,0.3,0.3,0.5,0.5C20.2,26.5,20.1,26.2,20,26z"/>
	<path fill="#EBB628" d="M5.1,126.1c-1.1-4.8-0.9-13,4.8-6.7C10.7,121.8,6,123.3,5.1,126.1z"/>
	<path fill="#111D21" d="M5.9,117.1c-3.2,4.7-1.2-6.5,0.1-8.4C9.1,107.9,7.1,115.3,5.9,117.1z"/>
	<path fill="#111D21" d="M4.9,121c-0.1,2.7-0.5,5.3-0.8,8C2.7,126,3.2,123.7,4.9,121z"/>
	<path fill="#FEF6A9" d="M10.2,106.4c1.6-1,1.7,1.7,0.3,1.9C9.2,108.3,10,107.1,10.2,106.4z"/>
	<path fill="#FEF1A7" d="M8.8,108.7c0.3-0.3,0.6-0.7,0.9-1C10.8,108.4,9.5,109.9,8.8,108.7z"/>
	<path fill="#FEEFB1" d="M8,108.8c1.7-0.6,1.7,2.1,0,1.3C7.3,109.6,8.3,109.3,8,108.8z"/>
	<path fill="#0C2123" d="M49,6.1C47.5,6,46.3,4.7,45,4C63.4,4.1,74,5.1,49,6.1z"/>
	<path fill="#0C2123" d="M17,34c0.3-0.7,0.6-1.3,1-2C18.2,33.6,19.2,35.7,17,34z"/>
	<path fill="#7DC03D" d="M20,36c0.2,0.4,0.4,0.9,0.7,1.3C20.1,37,19.5,36.7,20,36z"/>
	<path fill="#0C2123" d="M21,30c1.2-0.4,1.3,0.9,1.2,1.6C20.6,32.7,21.1,31.3,21,30z"/>
	<path fill="#0C2123" d="M18,40c-0.3,0.8-0.6,1.5-0.8,2.3C17.4,41.6,17.7,40.8,18,40z"/>
	<path fill="#0C2123" d="M20.8,33c-0.2,0.4-0.5,0.8-0.7,1.2C20.3,33.8,20.5,33.4,20.8,33z"/>
	<path fill="#0C2123" d="M18.8,38c-0.2,0.4-0.4,0.8-0.7,1.2C18.3,38.9,18.5,38.5,18.8,38z"/>
	<path fill="#0C2123" d="M16,39c0-0.3,0-0.7,0-1C16,38.3,16,38.7,16,39z"/>
	<path fill="#0C2123" d="M47.2,6.1c-0.3,0.5-0.4,1.7-1.2,1.1C46,6.5,46.7,6.4,47.2,6.1z"/>
	<path fill="#0C2123" d="M43,7.9c-0.2-1.2,0.5-0.9,1.4-0.8C43.9,7.4,43.4,7.7,43,7.9z"/>
	<path fill="#141A19" d="M106.8,35.7c-5.7,14.4-34.2-21.6-14.9-20.5C86.2,25.9,97.8,33.5,106.8,35.7z"/>
	<path fill="#79B542" d="M101.7,25.9c8.2,11.5,1.3,9.3-6.6,2.9C86.4,15.9,94.3,14.5,101.7,25.9z"/>
	<path fill="#E9B50F" d="M84.1,20.2c1.3-7.4-6-4-5.7,2.3C63.8-3.2,94.9,13.2,84.1,20.2z"/>
	<path fill="#0C1116" d="M73,7c8.1,10.9-27.3,13.4-17.3,6.9C62.8,14.7,67.7,10.5,73,7z"/>
	<path fill="#F2DC9F" d="M84.9,19.8c5-16.3-0.4,3,4.1,9.3C86.9,29.4,84.4,22,84.9,19.8z"/>
	<path fill="#72AB3F" d="M65,5.1C66,4.9,67,5,68,5c11.4,2.2-11.2,9.5-1.9,1.9C65.5,6.4,64.6,6.1,65,5.1z"/>
	<path fill="#F4BF17" d="M85,13c-6,0.8-4.2-5.2,0.2-1.1C85.4,12,85.5,12.9,85,13z"/>
	<path fill="#F4DB8E" d="M76,7.9c0,1.4-1.7,5.4-2.1,2.1C74.7,9.4,74.9,8.2,76,7.9z"/>
	<path fill="#010E19" d="M68,5c0.8-0.2,2.1-1.7,2.3-0.3C69.5,4.8,68.7,4.9,68,5z"/>
	<path fill="#738B79" d="M71,6.5c0.1-1.3,3.3,1.4,0.7,1.5C71.1,7.7,70.8,7.1,71,6.5z"/>
	<path fill="#82BA52" d="M101,25c-0.6-0.7-1.3-1.5-1.9-2.2C99.8,23.5,101.3,23.8,101,25z"/>
	<path fill="#78AF49" d="M90.3,16.1c0.7-0.3,1.6-1.4,1.8-0.2C91.7,16.5,90.7,16.9,90.3,16.1z"/>
	<path fill="#E1D399" d="M88.1,15.1c0-0.6-0.1-1.3-0.1-1.9C89.2,13.8,88.9,14.3,88.1,15.1z"/>
	<path fill="#000506" d="M85,7c-0.2,0.2-0.3,0.3-0.5,0.5C84.6,7.2,84.8,7.1,85,7z"/>
	<path fill="#E4D296" d="M74.8,8.6C74.5,9,74.2,9.5,74,10C73.9,9.2,74.1,8.8,74.8,8.6z"/>
	<path fill="#000407" d="M90.1,9.9c-0.2,0.2-0.3,0.4-0.1,0.1C89.7,10.3,90,10.1,90.1,9.9z"/>
	<path fill="#E9B50F" d="M85.2,11.9c-0.4-0.2-0.8-0.5-1.1-0.7C84.4,11.4,84.8,11.6,85.2,11.9z"/>
	<path fill="#FEC323" d="M85,13c-0.3-1.4,1.1-1.2,1.3-0.2C86,13.2,85.5,12.9,85,13z"/>
	<path fill="#E9B50F" d="M86,13c-0.4-1.2,1-0.5,1,0.2C86.7,13.6,86.3,13.3,86,13z"/>
	<path fill="#000003" d="M96.9,15.5c0.1,0.5-0.2,0.1-0.4,0C96.7,15.5,96.8,15.5,96.9,15.5z"/>
	<path fill="#000001" d="M99.9,18.1c0.3,1-0.2,0.3-0.6-0.1C99.4,18,99.7,18.1,99.9,18.1z"/>
	<path fill="#A7C99E" d="M103,33c1.8,0.5,3.6,0.6,3.9,2.7C104.3,37,97.6,32.8,103,33z"/>
	<path fill="#EAD08B" d="M99,37.2c1.6,0.3,3.1,0.6,4.7,1C106.1,41.4,95,38.4,99,37.2z"/>
	<path fill="#FEEEAA" d="M102.1,39.9c1.9-1.3,4.1-0.9,6.2-0.6C106.2,39.4,104.1,39.6,102.1,39.9z"/>
	<path fill="#7DBD44" d="M105.1,32c-0.4-0.7-0.7-1.3-1.1-2C105.1,29.4,105.1,31.3,105.1,32z"/>
	<path fill="#000A10" d="M109.1,39.9c-0.5-0.5,0.1-1,0.5-1.4C109.4,39,109.2,39.5,109.1,39.9z"/>
	<path fill="#0E2022" d="M104.9,30.4c-0.8-0.2-1-0.6-0.8-1.4C104.3,29.4,104.6,29.9,104.9,30.4z"/>
	<path fill="#78AF49" d="M103.7,29c-0.2-0.3-0.5-0.6-0.7-0.9C103.2,28.4,103.4,28.7,103.7,29z"/>
	<path fill="#0E2022" d="M105,27c0.3,0.3,0.7,0.7,1,1C105.7,27.7,105.3,27.3,105,27z"/>
	<path fill="#78AF49" d="M102.9,28c-0.3-0.4-0.6-0.8-0.8-1.2C102.3,27.3,102.6,27.6,102.9,28z"/>
	<path fill="#78AF49" d="M101.7,25.9c-0.2-0.3-0.5-0.6-0.7-0.9C101.2,25.3,101.5,25.6,101.7,25.9z"/>
	<path fill="#FEEEE4" d="M56.1,157.9c1.7,3.6-1.1,1.6-2.9,0.3C54.2,158.1,55.1,158,56.1,157.9z"/>
	<path fill="#152423" d="M48.7,156.1c1.4,0.3,2.8,0.5,4.2,0.8C51.3,156.6,49.5,158,48.7,156.1z"/>
	<path fill="#F2B897" d="M49.2,156.9c1.9-0.1-1.5,1-2.2,1.3C46.2,156.7,48.3,157.2,49.2,156.9z"/>
	<path fill="#D6895D" d="M38,175c-1.1-1-1.7-2,0-3C38,173,38,174,38,175z"/>
	<path fill="#EEB495" d="M42.1,157c-0.4-1.5,1.3-2.1,2.5-1.4C45.6,156.5,42.8,156.5,42.1,157z"/>
	<path fill="#10201F" d="M46,155c0.5,0.8-1.1,1.5-0.9,0.9C44.1,155.1,45.3,154.2,46,155z"/>
	<path fill="#FECBA6" d="M50,192c-0.2,0.4-0.2,1.1-0.9,1C49.4,192.7,49.7,192.3,50,192z"/>
	<path fill="#FBE7E0" d="M56,160c0,3,0.2,6,0,9C54.4,166,54.4,163,56,160z"/>
	<path fill="#FCE9E0" d="M53.1,187.2c0.1,0.3,0,0.6-0.2,0.8C51.7,186.3,52.5,184.4,53.1,187.2z"/>
	<path fill="#E9D393" d="M62.1,151.9c-2.7-8.6-9.7-10-17.1-10.9C59.9,128.5,74.2,165,62.1,151.9z"/>
	<path fill="#6BAA3D" d="M43,151.1c-3.2-3.4,13.8-3.8,15.3,0.8C56.3,155.6,47.3,151,43,151.1z"/>
	<path fill="#152423" d="M56,153.1c2-0.1,3.6-1.2,4.9,0.9C59.3,153.7,57.7,153.4,56,153.1z"/>
	<path fill="#10201F" d="M43,151.1c1.4,0.3,2.8,0.5,4.2,0.8C45.8,151.6,44.4,151.4,43,151.1z"/>
	<path fill="#10201F" d="M49,152.1c1.4,0.3,2.8,0.5,4.2,0.8C51.8,152.6,50.4,152.4,49,152.1z"/>
	<path fill="#000305" d="M65.3,154.9c0.6,0,1.1,0.1,1.7,0.1C65.3,156.2,61.7,156,65.3,154.9z"/>
	<path fill="#5C4B48" d="M44.9,155c1,2-6.3,0.4-2.8-0.3C43.1,154.5,44.1,154.2,44.9,155z"/>
	<path fill="#00070B" d="M44.9,155c-0.9-0.1-1.9-0.2-2.8-0.3C43.1,154.8,47.4,155,44.9,155z"/>
	<path fill="#152423" d="M62.1,151.9c0.3,0.7,0.6,1.4,0.8,2.2C61.4,154.4,62.2,152.8,62.1,151.9z"/>
	<path fill="#10201F" d="M41.9,150c0.6,1,0,1-0.9,1C41.3,150.7,41.6,150.3,41.9,150z"/>
	<path fill="#10201F" d="M40,152c-0.1-0.9,0.1-1.1,1-1C40.7,151.3,40.3,151.7,40,152z"/>
	<path fill="#FEA679" d="M41,194c0.2-0.2,0.3-0.3,0.5-0.5C41.5,193.8,41.2,193.9,41,194z"/>
	<path fill="#EAB60A" d="M10,120c-8-6.3,4.1-6.1,5.2-7.7C7.3,118.5,23,78.2,27,87c2.9,1.6,2.7-2.9,5-1.2c-2.1,3.5,1,8.7-2,12.2
		c-8.3,1.7,6.7,5.5-4.1,4.4c1.9,6.8-9.9,0.9-5.5,8.9C19,115.9,6.9,127.6,10,120z"/>
	<path fill="#E9B508" d="M74,43c-6.3-4.9-4.2,0-9.3-1.6c-0.1,2.3,1.5,5.1-1.5,6.8c-3.6-19.4-0.7-3.6-7.7-14.8
		c6.5-1.4,10,3.9,18.7-1.3c1.7,2.2-0.4,5.6,3.2,6.9c2.2-11.7,2.8-1.5,1.9,2.5c-1.5,1.4-3.2-3.1-4.3,0.6C75.3,43,75,43.3,74,43z"/>
	<path fill="#EAB60F" d="M34.9,50.7c-8.1-3.1,10.7-3.3,7.5,3.2c-2.3,3.9,2.6,5.3-1.1,9.4C40.8,56.3,20.2,57,34.9,50.7z"/>
	<path fill="#E9D495" d="M53,15.9c30.2-2.4,13,5.7-3.7,3.6C30.2,13.5,39.3,8.7,53,15.9z"/>
	<path fill="#E7D393" d="M110.8,48.9c-1.1,6.6-11.4,12.3-13.1,21.1C92.5,85.9,95.3,47,110.8,48.9z"/>
	<path fill="#EAB611" d="M30,98c-3.4-17.8,14.7-4.9,7.3,4.3C38.6,97.6,33.1,98.9,30,98z"/>
	<path fill="#F3DF9E" d="M29.9,28.2c12.9,0.6-9.7,39.3-15.1,29.6C23.9,52,35.3,40,29.9,28.2z"/>
	<path fill="#E9D294" d="M75,146c-4.3-3.5,13.3-13.4,18.2-6.2c-2.3,2.3-6.3,0.6-9.3,1C81.5,140.5,77.9,146.4,75,146z"/>
	<path fill="#EFDAA1" d="M93,116c-1.9,4.6-0.9,9.1-0.5,14.4c-7.9,0.8,0-30.7,5.3-22.4C95.9,109.2,92.6,114.3,93,116z"/>
	<path fill="#EBB712" d="M24,69c-6.1-2.2,4.6-6.5,6.5-9.9c0.7,2,0.9,12.2-2.1,5.4C26.6,66.9,26.5,71.8,24,69z"/>
	<path fill="#FEEDA8" d="M95.9,76.2c2.2-16.1,3.4,7,5,8.8C109.1,93.9,93.2,83.6,95.9,76.2z"/>
	<path fill="#F6E3A3" d="M22.2,135.1C21.1,131.6,7,121.8,18,126C19.5,128.1,28,135,22.2,135.1z"/>
	<path fill="#E9B60C" d="M28.8,141.4c-0.8-2.8-1.7-5.5-2.5-8.3C29.2,133.9,30.1,136,28.8,141.4z"/>
	<path fill="#E4D296" d="M70.1,16.2c-3.6-2,2.4-4.2,3.8-6.3C77,12.3,72.4,15.2,70.1,16.2z"/>
	<path fill="#EAB60A" d="M22,83c2.3-3.3,3.1,1.7,4-1C32.7,84.8,17.8,89.6,22,83z"/>
	<path fill="#EBB70C" d="M47.3,21.4c-0.3,1.9,2.1,6.5-0.7,6.3C46.2,25.6,44.3,23.6,47.3,21.4z"/>
	<path fill="#EBB714" d="M25,106c-0.1-1.7-0.2-3.4-0.4-6C28.3,102.7,28.2,103.4,25,106z"/>
	<path fill="#E8D89E" d="M97,107c-2.9-1.6,4.1-5.8,5.2-2.8C100.6,105.3,98.7,105.9,97,107z"/>
	<path fill="#E9B50E" d="M82.6,91.7c-0.3,1.7,1.5,5.3-1.1,4.9C81.7,94.8,79.7,91,82.6,91.7z"/>
	<path fill="#E8D394" d="M23,131c-2.8-0.6-4.5-2.2-5-5C19.7,127.7,21.3,129.3,23,131z"/>
	<path fill="#ECB710" d="M53.1,46.1c-0.5,1.5-1,2.9-1.6,4.9C49.2,48.5,51.3,44.9,53.1,46.1z"/>
	<path fill="#E9B50A" d="M22.1,86c1.6-0.3,3.3-0.7,4.9-1C28.6,87.9,19.7,89.2,22.1,86z"/>
	<path fill="#EED795" d="M33,38c0-2.4,0.1-4.7,0.1-7.1C33.2,32.7,32.9,40.6,33,38z"/>
	<path fill="#EAB513" d="M26.7,127.4c-0.3,1.1,0.8,3.5-1,3.1C26,129.4,25,127,26.7,127.4z"/>
	<path fill="#F0D98B" d="M15.1,124.9c-2.3,0.4-5.1,1.2-7.2,0C10.3,124.9,12.7,124.9,15.1,124.9z"/>
	<path fill="#EBB714" d="M24,106c1.9-0.2,1.1,2.1,2,4.2C24,108.7,21.3,107.6,24,106z"/>
	<path fill="#FBF0AE" d="M99,37.2c-1.2,1.8-3.6-0.5-4.4-1.9C95.8,34.9,97.6,36.8,99,37.2z"/>
	<path fill="#F9E1A6" d="M90.4,30.9c0.7,1.2,3.9,2.6,2.7,4C92.3,34,87.3,29.9,90.4,30.9z"/>
	<path fill="#EBB715" d="M26,82c0.3,2.4-1.9,0.4-3,0C22.9,79,26.3,80.4,26,82z"/>
	<path fill="#D5C073" d="M98.8,138.7c-1,0.5-4.3-1.5-3.2-2.7C97.2,135.7,99.2,137,98.8,138.7z"/>
	<path fill="#E9B50A" d="M28.4,78.6c0.3-1.1-0.8-3.5,0.9-3.3C29,76.4,30,79,28.4,78.6z"/>
	<path fill="#EBB613" d="M99.9,89.2c0.5,0.9,2.4,2,0.9,2.7C100.3,90.9,98.4,89.9,99.9,89.2z"/>
	<path fill="#E8D394" d="M24,135c-0.3-1.3-0.7-2.7-1-4C24.4,132.5,25,138.4,24,135z"/>
	<path fill="#ECB712" d="M44,34c0.9,0.1,1.8,0.3,2.9,0.4C45.1,35.8,45.1,35.8,44,34z"/>
	<path fill="#E8D59C" d="M94,132.1c0.2,0.7,0.5,1.5,1,1.9C95.7,138.7,89.4,130.1,94,132.1z"/>
	<path fill="#EDB818" d="M29,67c0.1,1.1,0.2,2.2,0.3,3.3C27,70.5,28.9,68.3,29,67z"/>
	<path fill="#EDB913" d="M44.1,131.6c-0.4-0.8-2.3-1.8-1.1-2.5C43.7,130,45.8,130.8,44.1,131.6z"/>
	<path fill="#EAB71D" d="M45.9,49.2c-1.4,0.8-1.6,0.8-2.6,0C44,47.7,44.5,48.6,45.9,49.2z"/>
	<path fill="#FDF1B3" d="M72,154.9c-2.6,0.5-1.4-1.1-1-2.8C71.4,153,71.7,153.9,72,154.9z"/>
	<path fill="#ECB91B" d="M33.2,129.5c-0.7,1-1.4,1.4-1.8,0.3C31.7,128.8,32.2,128.4,33.2,129.5z"/>
	<path fill="#FEF8B3" d="M44.9,141c3.5,0.8,0.2,2.5-1,1.7C42.2,142,44.1,141.5,44.9,141z"/>
	<path fill="#E9B508" d="M77.8,43.4c0.6,1,1.6,1.8,0.2,2.5C77.2,44.9,76.4,44.2,77.8,43.4z"/>
	<path fill="#EBB714" d="M84.7,35c-0.6,0.9-0.8,0.3-1.3-0.3C84,34.2,84.3,34.2,84.7,35z"/>
	<path fill="#EED795" d="M32,41c0.1-0.8-0.4-2.8,1-2.1C33.3,40,31.2,43.5,32,41z"/>
	<path fill="#EEB926" d="M44.9,40.2c0.8,0.2,1,0.5,0.6,1.3C44.8,41.2,44.4,41,44.9,40.2z"/>
	<path fill="#EDB720" d="M74,43c1-1.3,1.2-0.8,1.5,0.5C75,43.4,74.5,43.2,74,43z"/>
	<path fill="#E9B508" d="M67.8,45.1c-0.8,0.4-1,0.1-1.3-0.6C67.3,44.1,67.6,44.3,67.8,45.1z"/>
	<path fill="#E8D394" d="M25.9,139c-0.3-1-0.6-2-0.9-3C25.3,137,25.6,138,25.9,139z"/>
	<path fill="#EDBC19" d="M73.8,16.9c-0.2,0.8-0.5,1-1.3,0.6C72.8,16.8,73,16.4,73.8,16.9z"/>
	<path fill="#FEE8BC" d="M90.4,30.9c-0.9,0.5-2.9-0.8-1.6-1.6C89.2,28.7,89.9,30.5,90.4,30.9z"/>
	<path fill="#D5C187" d="M90.2,128c0.2,0.7,0.5,1.4,0.7,2C90.7,129.4,90.4,128.7,90.2,128z"/>
	<path fill="#E9D294" d="M73,146.9c-0.3,0.7-0.7,1.4-1,2.1C72.3,148.3,72.6,147.6,73,146.9z"/>
	<path fill="#EED795" d="M28.1,49.2c0.4-0.7,0.7-1.4,1.1-2.1C28.8,47.8,28.4,48.5,28.1,49.2z"/>
	<path fill="#EED795" d="M32,30c0.1-0.9-0.5-2.3,0.8-1.9C32.8,28.8,33.3,30.9,32,30z"/>
	<path fill="#FEF2B9" d="M93.2,131.7c-0.8,1.7-2,0.7-1.2-0.7C92.5,130,93.7,131.1,93.2,131.7z"/>
	<path fill="#EED795" d="M30,46c0.4-0.7,0.7-1.3,1.1-2C30.7,44.7,30.4,45.4,30,46z"/>
	<path fill="#E1D399" d="M84.9,19.8c0,0.8,0,1.6,0,2.4C84.7,21.2,83.5,20.1,84.9,19.8z"/>
	<path fill="#EED795" d="M31,44.1c0.1-0.8-0.5-2.9,0.9-2.1C32.2,42.5,31.3,43.4,31,44.1z"/>
	<path fill="#FEE8AD" d="M93.7,135.1c1.2,0,2.2-0.8,2.4,0.9C95,136.4,94.5,136,93.7,135.1z"/>
	<path fill="#E8D394" d="M18,126c-0.7-0.3-1.3-0.6-2-0.9C16.7,125.4,17.3,125.7,18,126z"/>
	<path fill="#FEE8AA" d="M27.1,146c-1.6,0.5-0.3-1-0.2-1.9C27,144.7,27,145.3,27.1,146z"/>
	<path fill="#FEF9BB" d="M93,34.9c-0.7-2.8,3.3,1.3,0.7,0.2C93.5,35.2,93.2,35.1,93,34.9z"/>
	<path fill="#EAB60A" d="M24,106C22.6,108.2,22.5,105.1,24,106C24,106,24,106,24,106z"/>
	<path fill="#EAB60A" d="M23,107c0,0.3,0,0.7,0,1C23,107.7,23,107.3,23,107z"/>
	<path fill="#EED795" d="M29.1,47.1c0.3-0.4,0.6-0.7,0.9-1.1C29.7,46.4,29.4,46.7,29.1,47.1z"/>
	<path fill="#D5C187" d="M92,131c-0.1,0.4-0.1,0.8-0.2,1.2C91.4,131.4,90.7,130.8,92,131z"/>
	<path fill="#C6BB87" d="M38,147.1c-0.2,0.3-0.4,0.5-0.6,0.8C37.5,147.6,37.7,147.4,38,147.1z"/>
	<path fill="#FEF3AA" d="M94.8,136.1c1-0.3,0.6,0.2,0.3,0.8C94.9,136.7,94.8,136.4,94.8,136.1z"/>
	<path fill="#EBD99B" d="M32,30c0.8-0.1,1.3,0.1,1.1,1C32.7,30.6,32.4,30.3,32,30z"/>
	<path fill="#FEFABF" d="M88.8,29.3c0,0.3-0.2,0.5-0.5,0.6C87.7,29,87.8,28.9,88.8,29.3z"/>
	<path fill="#FEF9C5" d="M93.8,35.1c0.8-0.1,1.2,0.2,1.2,1.1C94.5,35.8,94.2,35.4,93.8,35.1z"/>
	<path fill="#EAB611" d="M39,90c0.2-0.2,0.3-0.3,0.5-0.5C39.5,89.8,39.3,89.9,39,90z"/>
	<path fill="#BCD3AA" d="M102.9,64.9c1.2-1.1,2.9-6.9,4.2-3.8C106,62.7,105.4,66.9,102.9,64.9z"/>
	<path fill="#69A52A" d="M105.1,75c-0.2-1.4-0.1-2.8,0-4.2C105.3,72.2,108.2,73.8,105.1,75z"/>
	<path fill="#53735F" d="M108.8,85.9c-1.2,0.1-1.7-0.9-0.9-1.8C108.1,79.7,109.2,83.8,108.8,85.9z"/>
	<path fill="#66A429" d="M105.1,65.1c1.6,3.4,0.3,3.6-0.5,0.2C104.7,64.9,104.8,64.9,105.1,65.1z"/>
	<path fill="#D1EECA" d="M107,59c0.6-1,1.7-1.4,2.3-0.1C108.6,59.6,106.3,61.1,107,59z"/>
	<path fill="#D1EDCB" d="M107,59c1,0.7,1,1.3,0.2,2.1C106.1,60.3,105.9,59.8,107,59z"/>
	<path fill="#D9F1CC" d="M103.3,65.1c1.5-0.5,0.8,1.1,0.7,1.8C103.8,66.4,103.5,65.7,103.3,65.1z"/>
	<path fill="#A9C599" d="M104.1,66.1c-0.2-0.8-0.3-1.3,0.7-1.2C105,65.7,105,66.1,104.1,66.1z"/>
	<path fill="#6DAA3F" d="M110.1,58.1c-0.4,0.4-0.8,0.9-1.4,0.9C108.3,58.1,109.5,57.1,110.1,58.1z"/>
	<path fill="#D2EDC4" d="M110,58c-3.1,0.8-1.4-0.9,0-2.2C109.7,56.5,110.3,57.3,110,58z"/>
	<path fill="#171F1E" d="M101,83.1c-0.6-0.1-1.4-0.3-1.2-1.1C100.4,82,100.6,82.6,101,83.1z"/>
	<path fill="#E9B403" d="M99.4,80.5c-0.1-0.1,0.1-0.1,0.1-0.1L99.4,80.5z"/>
	<path fill="#171F1E" d="M102.1,78.8c0.2,0.4,0.4,0.8,0.7,1.1C102.5,79.6,102.3,79.2,102.1,78.8z"/>
	<path fill="#E4FED4" d="M107.9,84.1c-0.2,0.7,0.2,1.9-0.8,1.8C106.8,85,107.3,84.6,107.9,84.1z"/>
	<path fill="#D2E9BC" d="M105.2,83c-0.2-0.3-0.5-0.6-0.7-1C104.7,82.4,105,82.7,105.2,83z"/>
	<path fill="#AFCAA0" d="M97.1,122.2c-1.2,2.6,2.3,6.7,0,7.4C90.2,125.8,102.2,106.1,97.1,122.2z"/>
	<path fill="#111717" d="M97,113.9c0.4-1.7,2-2.7,0.8-0.4C97.8,114.3,97.6,114.4,97,113.9z"/>
	<path fill="#AFCAA0" d="M98.9,115.9c0.8-3.6,3,0.1,0.1,0.1C99.1,116,98.9,115.9,98.9,115.9z"/>
	<path fill="#D2ECB3" d="M98,116c-0.6-0.1-1.8-0.2-0.9-1C97.8,114.2,98.1,115.3,98,116z"/>
	<path fill="#AFCAA0" d="M100.2,110c0.3-0.3,0.6-0.6,0.9-0.9C100.7,109.4,100.4,109.7,100.2,110z"/>
	<path fill="#AFCAA0" d="M99.2,111.1c0.3-0.3,0.5-0.6,0.8-0.9C99.8,110.5,99.5,110.8,99.2,111.1z"/>
	<path fill="#6CA939" d="M103.6,109.9c-0.2,0.4-0.4,0.8-0.5,1.2C103.3,110.7,103.5,110.3,103.6,109.9z"/>
	<path fill="#111717" d="M97.9,111.9c0.5-0.4,1.1-1.5,1-0.2C98.8,112.2,98.2,112.3,97.9,111.9z"/>
	<path fill="#AFCAA0" d="M102.2,111.1c-0.1,0.7-0.2,1.4-1.1,1.2C101.5,111.9,101.9,111.5,102.2,111.1z"/>
	<path fill="#AFCAA0" d="M98.1,112.1c1.4-0.7,0.3,0.2,0,0.9C98,112.7,98,112.4,98.1,112.1z"/>
	<path fill="#6CA939" d="M101.2,112.3c0.3-0.1,0.6-0.1,0.9-0.1C101.5,112.7,101.1,113.5,101.2,112.3z"/>
	<path fill="#AFCAA0" d="M100.9,113c0.1,0.6,0,1.8-0.8,1.1C99.8,113.7,100.7,113.4,100.9,113z"/>
	<path fill="#AFCAA0" d="M98,115c-0.9,0.2-1.1-0.2-1-1.1C98,113.1,97.8,114.1,98,115z"/>
	<path fill="#FDEAAC" d="M102.2,104.1c-0.4-0.4-0.8-0.7-1.2-1.1C102.5,103.6,105.6,103.8,102.2,104.1z"/>
	<path fill="#FEEFA8" d="M98,106.1c0.9-0.1,1.1-0.1,0.9,0.7C98.4,107.8,97.6,106.8,98,106.1z"/>
	<path fill="#FEFEB3" d="M110.8,51.9c0-0.3,0.1-0.6,0.1-0.9C110.9,51.3,110.9,51.6,110.8,51.9z"/>
	<path fill="#FEEFAE" d="M104,88.9c0-0.5-0.1-1.1,0.6-0.8C104.4,88.4,104.2,88.7,104,88.9z"/>
	<path fill="#E8FED5" d="M110,57.1c-0.1-0.9,0.2-0.5,0.8-0.2C110.6,57.1,110.3,57.2,110,57.1z"/>
	<path fill="#FEF6AE" d="M100.9,84.9c-0.2-0.3-0.7-0.6-0.1-0.7C100.9,84.5,101,84.7,100.9,84.9z"/>
	<path fill="#FEF7AA" d="M103.3,86.8c-0.4-0.4-0.7-0.8-1.1-1.2C102.9,85.7,103.3,86.2,103.3,86.8z"/>
	<path fill="#A3BB95" d="M95.8,118.6c0,2.9,0,5.8-0.1,8.8C94.1,125.5,96.1,121.3,95.8,118.6z"/>
	<path fill="#FAEBAA" d="M94.2,112.2c-0.8-1.9,0.8-3.7,2.2-2.6C95.7,110.3,95.6,112.5,94.2,112.2z"/>
	<path fill="#FEEEA7" d="M92,121c-0.4-1-0.7-2.1-1.1-3.1C92.4,117,92.1,120,92,121z"/>
	<path fill="#FDECA3" d="M93,116c-1.3-1.8-0.4-3.5,0.2-0.7C93.3,115.6,93.3,115.8,93,116z"/>
	<path fill="#D5C187" d="M92.9,131c-1.7,0.3-0.6-2.1-0.8-3.3C92.3,128.8,93.9,130.2,92.9,131z"/>
	<path fill="#D5F4CD" d="M99.1,133.9c-1.6,0.5-2.5-3.4-0.3-2.7C98.9,132,99,132.9,99.1,133.9z"/>
	<path fill="#0F1B1C" d="M92.9,131c0.2-2.1,0.6,0.3,1,1.1C93.3,131.9,93.2,131.6,92.9,131z"/>
	<path fill="#0F1B1C" d="M96.9,132.1c-0.3-0.8-0.6-1.5-0.8-2.3C97.5,128.9,98.1,131.6,96.9,132.1z"/>
	<path fill="#0F1B1C" d="M95.1,126.7c0.9,0.5,0.7,1.4,0.7,2.3C95.6,128.3,95.4,127.5,95.1,126.7z"/>
	<path fill="#111717" d="M98,107c0.3-0.1,0.6-0.2,0.9-0.2C98.3,107.4,97.6,108.6,98,107z"/>
	<path fill="#111717" d="M97,109c0.3-0.4,0.6-0.8,0.9-1.1C97.6,108.2,97.3,108.6,97,109z"/>
	<path fill="#111717" d="M96.2,110c-0.3-0.7,0.2-0.8,0.8-1C96.7,109.3,96.5,109.7,96.2,110z"/>
	<path fill="#111717" d="M95.1,112c0.3-0.5,0.5-0.9,0.8-1.4C95.6,111.1,95.3,111.6,95.1,112z"/>
	<path fill="#E9B403" d="M94.2,112.2c0.1,0.1,0.3,0.1,0.1,0.2C94.4,112.4,94.2,112.2,94.2,112.2z"/>
	<path fill="#A0BD9A" d="M96.8,130.3c-1.1-0.3-1-1.7,0.2-1.3C97.4,129.5,97.3,129.9,96.8,130.3z"/>
	<path fill="#0F1B1C" d="M97.8,132.3c0.2,1.2-1,0-0.8-0.3C97.6,131.4,97.8,131.6,97.8,132.3z"/>
	<path fill="#0F1B1C" d="M95,134c-0.2-0.3-0.5-0.7-0.7-1C94.5,133.4,94.8,133.7,95,134z"/>
	<path fill="#0F1B1C" d="M95.9,135.3c-0.8-0.1-1-0.5-0.9-1.2C95.3,134.4,95.6,134.8,95.9,135.3z"/>
	<path fill="#0F1B1C" d="M98,136.7c-0.3-0.2-0.7-0.5-1-0.7C97.3,136.3,97.6,136.5,98,136.7z"/>
	<path fill="#AECC8E" d="M80.9,146.7c0.7-0.3,1.7-2.1,2.3-1.4C84.7,147.3,79.8,149.9,80.9,146.7z"/>
	<path fill="#FEEAA6" d="M76.9,145.2c2.2-2.6,2-0.9-0.1,0.7C76.6,145.6,76.6,145.4,76.9,145.2z"/>
	<path fill="#FEF3A3" d="M75,146c0.6,0,1.3-0.2,1.9-0.1C76.2,146.9,75.7,147.1,75,146z"/>
	<path fill="#FEEDA6" d="M83.2,141.1c-0.1-0.3-0.3-0.6-0.4-1C83.4,140.5,84.6,141.2,83.2,141.1z"/>
	<path fill="#FEEEA7" d="M79,143.1c0.3,0,0.7-0.1,1-0.1C79.6,143.7,78.1,144.2,79,143.1z"/>
	<path fill="#C7E8B7" d="M80.9,146.7c0.2,0.9-0.3,2.1-1.1,1.1C80.2,147.5,80.6,147.1,80.9,146.7z"/>
	<path fill="#BCDCA6" d="M80,149c-1.6,0.4-0.8-0.9,0-1.1C80.4,148.2,80.3,148.9,80,149z"/>
	<path fill="#B1C995" d="M79,150c-1.6,0.2-0.7-0.3,0-1C79,149.3,79,149.6,79,150z"/>
	<path fill="#6CA939" d="M100.1,114.1c0.3-0.1,0.6-0.1,0.9-0.2C102.4,117.9,97.3,118.6,100.1,114.1z"/>
	<path fill="#B9D6AD" d="M97.8,132.3c-1.3-0.1-1.5-3.9,0.1-3.3C99.6,129.6,98.8,131.5,97.8,132.3z"/>
	<path fill="#A3BB95" d="M97.1,122.2c0.3-1,0.5-2.1,0.8-3.1C97.7,120.1,97.4,121.1,97.1,122.2z"/>
	<path fill="#6CA939" d="M99,130.1c-0.6-0.6-1.2-1.2-1-2.1C98.3,128.7,98.6,129.4,99,130.1z"/>
	<path fill="#A0BD9A" d="M97.7,128c-0.2-0.4-0.4-0.8-0.6-1.2C97.3,127.2,97.5,127.6,97.7,128z"/>
	<path fill="#67A632" d="M80,149c1.7-8.2,19.3,1.6,6.9-1.6C85.1,155.4,84.8,148.7,80,149z"/>
	<path fill="#CAE9BE" d="M83.9,145.8c-0.3,0.1-0.6,0.2-0.9,0.3C82.9,145.3,83.7,144.9,83.9,145.8z"/>
	<path fill="#78BA3B" d="M76.9,154.1c1.5-2.4,4.7,0.6,7,0.8C82.2,154.4,76.6,156.1,76.9,154.1z"/>
	<path fill="#589C16" d="M80.2,149.2c0.3,0.3,0.5,0.5,0.8,0.8C80.7,149.7,80.5,149.5,80.2,149.2z"/>
	<path fill="#B2DA8B" d="M76.9,154.1c0.1,0.3,0,0.6,0,0.9C76.6,154.4,75.9,153.8,76.9,154.1z"/>
	<path fill="#B0CDA2" d="M57.8,152c-2.8-4.4-12.7-1-12.8-5.5C48.7,140.3,62.3,150.6,57.8,152z"/>
	<path fill="#FBE9A4" d="M53,141c0.6,0.7,1.2,1.4,1.8,2.1C53.5,142.5,50.5,142.3,53,141z"/>
	<path fill="#FDEAA3" d="M53,141c-0.8,1.1-1.7,1.2-3,0.9C51,141.6,52,141.3,53,141z"/>
	<path fill="#B4D19D" d="M42.8,149c0.5-0.7,1.4-1.8,2.3-0.9C45.5,149.5,43.5,149.8,42.8,149z"/>
	<path fill="#D6F9C7" d="M57.8,152c0.7,0.2,2-0.7,2.1,0.3C59.8,153.3,57.7,153.3,57.8,152z"/>
	<path fill="#7B9C5E" d="M42.8,149c0.5,0.1,1.8,0,1.5,0.7C43.4,150.3,41.6,150.4,42.8,149z"/>
	<path fill="#C6BB87" d="M40.1,147.3c0.3-0.4,0.6-0.9,0.9-1.3C40.7,146.4,40.4,146.9,40.1,147.3z"/>
	<path fill="#D6F6C2" d="M44.8,147.8c-2,0.4-0.5-0.5,0.1-1.3C44.9,146.9,44.9,147.4,44.8,147.8z"/>
	<path fill="#152423" d="M59.8,152.4c-0.8-0.1-0.9-0.7-0.7-1.4C59.3,151.5,59.6,151.9,59.8,152.4z"/>
	<path fill="#E9B403" d="M45.5,142.6l0-0.2C45.6,142.5,45.7,142.6,45.5,142.6z"/>
	<path fill="#CAE3BA" d="M16,131c0.8,1.6-1.2,0.1-2,0C14.6,130.3,15.3,131,16,131z"/>
	<path fill="#73AE41" d="M12.1,132.9c-0.7-0.3-1.4-0.6-2.1-0.9C10.7,132.3,11.4,132.6,12.1,132.9z"/>
	<path fill="#73AE41" d="M18,141c0-0.7,0-1.4,0.1-2.2C19.3,139,19.5,141.5,18,141z"/>
	<path fill="#D6F1BD" d="M17,132c0.1,0.3,0.2,0.6,0.2,1C16.7,132.3,15.4,131.3,17,132z"/>
	<path fill="#73AE41" d="M14,134c-0.3-0.3-0.7-0.6-1-0.8C13.4,133.4,13.7,133.7,14,134z"/>
	<path fill="#73AE41" d="M17,137c-0.3-0.4-0.6-0.7-1-1.1C16.4,136.3,16.7,136.6,17,137z"/>
	<path fill="#73AE41" d="M15.1,134.9c-0.4-0.3-0.7-0.7-1.1-1C14.4,134.3,14.7,134.6,15.1,134.9z"/>
	<path fill="#73AE41" d="M16.1,135.9c-0.3-0.3-0.7-0.7-1-1C15.4,135.3,15.7,135.6,16.1,135.9z"/>
	<path fill="#73AE41" d="M17.8,138c-0.3-0.3-0.5-0.7-0.8-1C17.3,137.3,17.6,137.6,17.8,138z"/>
	<path fill="#FEEFB7" d="M24,135c0,0.7,0,1.3,0,2C22.5,137.5,22.5,134.4,24,135z"/>
	<path fill="#FEF7BE" d="M43.3,142.1c0.3,0.1,0.5,0.2,0.6,0.5C43.7,142.5,43.5,142.3,43.3,142.1z"/>
	<path fill="#73AE41" d="M19.9,144c-0.3-0.7-0.5-1.5-0.8-2.2C19.4,142.5,19.6,143.2,19.9,144z"/>
	<path fill="#D7F9CB" d="M21.9,145c0,0.3,0,0.6,0,0.9C21.9,145.7,21.9,145.3,21.9,145z"/>
	<path fill="#B2CFA6" d="M15.2,130.9c-0.8,0.1-1.5,0.3-1.3-0.7C14.7,129.9,15.1,130.1,15.2,130.9z"/>
	<path fill="#FCEBB5" d="M8.2,125.2c1.6,0.4,5.8-1.2,5.8,0.8C12.5,125.6,7.8,127,8.2,125.2z"/>
	<path fill="#FEFECD" d="M6,127.7c-0.3-0.2-0.6-0.4-0.9-0.6C5.4,127.3,5.7,127.5,6,127.7z"/>
	<path fill="#82C245" d="M6.1,136c-0.5-0.9-0.1-2-0.1-3C6.1,134,6.1,135,6.1,136z"/>
	<path fill="#8BD14A" d="M9.9,141c-0.2,0-0.4,0-0.6-0.1C9.5,141,9.7,141,9.9,141z"/>
	<path fill="#73AE41" d="M18,141c-0.2,0.2-0.3,0.3-0.5,0.5C17.5,141.2,17.7,141.1,18,141z"/>
	<path fill="#F0DD9B" d="M19.1,97.1c-0.3,1.3-1.3,2.9-2,3.9c-6.9,6.4,1.1-7.1,1.4-9.6C20,70,23.3,86.9,19.1,97.1z"/>
	<path fill="#DAA91F" d="M14,67c-0.2-1.9,2.8-2.4,4-3.6C18.8,66.7,18.8,66.7,14,67z"/>
	<path fill="#F2DC96" d="M16,77.9c-2.2-0.4-4.5-0.2-4.7-3.1C12.5,75.7,18.5,76.5,16,77.9z"/>
	<path fill="#FDE9B3" d="M16,77.9c1-1.9,3.8,1.5,4.3,2.7C18.8,82.1,17.3,78.7,16,77.9z"/>
	<path fill="#E6D292" d="M21.1,90.1c0-2.8,0-5.5,0-8.3C22.9,84,22.3,87.7,21.1,90.1z"/>
	<path fill="#FEF3AC" d="M14.8,57.8c-0.2,1.1,0.9,3.4-0.7,3.4C13.8,60.2,13.9,58.2,14.8,57.8z"/>
	<path fill="#E6D292" d="M20,81c0-0.4,0-0.7,0.1-1.1C20.5,80.6,21.4,81.2,20,81z"/>
	<path fill="#B9D6B2" d="M26.4,42.1c-0.9,1.1-4.2,7.7-4.5,3.7C22.9,43.9,28.1,36,26.4,42.1z"/>
	<path fill="#B8D4AE" d="M21.9,45.8c2.6,1.1-3.6,7-4.8,5.6C17.8,49.3,19.8,47,21.9,45.8z"/>
	<path fill="#7ABC41" d="M16.8,45.7c0.1-0.6,0.2-1.1,0.3-1.7C18.2,45.7,18,49.4,16.8,45.7z"/>
	<path fill="#C6EFC7" d="M14.8,53c0.8-1.4,2.2-2.5,3.2-1C16.8,52.9,16,53.4,14.8,53z"/>
	<path fill="#C9E9BA" d="M27,40c-2.6,0.7-0.4-4.3,1.3-2.9C28.8,38.3,27.7,39.1,27,40z"/>
	<path fill="#83C142" d="M21.9,31.8c0.1-1.3,0.6-0.2,1,0.4C22.5,32,22.2,31.9,21.9,31.8z"/>
	<path fill="#5F9C25" d="M20,47c-0.2-0.2-0.3-0.3-0.5-0.5C19.8,46.5,19.9,46.7,20,47z"/>
	<path fill="#0C2123" d="M23.1,28.2c0.2-0.4,0.5-0.8,0.7-1.2C24,27.8,23.8,28,23.1,28.2z"/>
	<path fill="#E8D397" d="M13.9,101.8c9.7-4-9.8,21.6-4.9,8.2C10.1,107,12.1,104.9,13.9,101.8z"/>
	<path fill="#AECAA5" d="M14.1,91c0.2-3.2-0.7-6.2-1.4-9.1C18.2,77.4,17.1,95.1,14.1,91z"/>
	<path fill="#E6D292" d="M19.1,82c0,2.3,0,4.6,0,7C19.1,86.7,19.1,84.3,19.1,82z"/>
	<path fill="#A3BEA1" d="M16,90.1c0-2.5,0.1-5,0.1-7.4C16.1,85.2,16.1,87.6,16,90.1z"/>
	<path fill="#D8F2CB" d="M11,100c-3,1,1.5-4,1.3-2.3C11.7,98.4,11.4,99.2,11,100z"/>
	<path fill="#D4EFC3" d="M14.9,81.2c-1.5,0.8-3.6,1.7-3.4-0.9C11.5,78.7,14.3,80.7,14.9,81.2z"/>
	<path fill="#BBDAB6" d="M14.1,91c1.6,0.6,0.4,4.2-1,3C12.8,92.9,13.6,92,14.1,91z"/>
	<path fill="#DAEFCD" d="M13.1,94c2.1-0.8-0.2,3.2-0.9,2C12.5,95.3,12.8,94.7,13.1,94z"/>
	<path fill="#9FB48C" d="M14.9,81.1c-0.6-0.3-1.3-0.6-1.9-1C13.6,80.5,14.2,80.8,14.9,81.1z"/>
	<path fill="#E1CD90" d="M18.9,89.9c-0.1,0.8,0.4,2-0.3,2.4C17.8,91.8,18.9,90.7,18.9,89.9z"/>
	<path fill="#DBEDCE" d="M12.2,96c1.7-0.3,0.1,1.2-0.2,2C12,97.3,12,96.7,12.2,96z"/>
	<path fill="#E9B50A" d="M17.6,79.4L17.6,79.4L17.6,79.4z"/>
	<path fill="#73AA42" d="M10.7,79.7c0.6-0.1,1.6-0.5,1.3,0.5C11.5,80.7,11.1,80.1,10.7,79.7z"/>
	<path fill="#E9B50A" d="M16.5,78.5L16.5,78.5L16.5,78.5z"/>
	<path fill="#E8D397" d="M17.9,93.6c-0.2,0.5-0.4,0.9-0.7,1.4C17.4,94.5,17.6,94.1,17.9,93.6z"/>
	<path fill="#E8D397" d="M15.9,97.8c-0.2,0.4-0.5,0.7-0.7,1.1C15.5,98.6,15.7,98.2,15.9,97.8z"/>
	<path fill="#E8D397" d="M14.9,99.8c-0.2,0.4-0.5,0.8-0.7,1.2C14.5,100.6,14.7,100.2,14.9,99.8z"/>
	<path fill="#E6D292" d="M18.2,92c1.2-0.2,0.3,0.4-0.2,1C18.1,92.7,18.2,92.3,18.2,92z"/>
	<path fill="#0C2123" d="M27.9,39c0-3.1-0.8-5.9,0.1-9C29.6,33,29.8,36,27.9,39z"/>
	<path fill="#EED795" d="M31.1,32c0.3,1,0.6,2,0.9,3C30.7,36.1,31.3,32.8,31.1,32z"/>
	<path fill="#EBD99B" d="M30.1,29c0.3,0.7,0.6,1.4,0.8,2.1C30.7,30.4,30.4,29.7,30.1,29z"/>
	<path fill="#EED795" d="M29.9,40.8c-0.3,0.7-0.6,1.4-0.9,2.1C29.3,42.3,29.6,41.6,29.9,40.8z"/>
	<path fill="#EED795" d="M30.9,37.8c-0.3,0.7-0.5,1.4-0.8,2.2C30.4,39.3,30.7,38.5,30.9,37.8z"/>
	<path fill="#EBD99B" d="M31.2,35c1.5-0.3,0.1,1.2-0.1,2C31.1,36.3,31.2,35.7,31.2,35z"/>
	<path fill="#E9B403" d="M16.6,56.5c0.6,0.4-0.7,0.9-0.3,0.2C16.3,56.5,16.4,56.4,16.6,56.5z"/>
	<path fill="#D0F3C2" d="M15.3,52.9c0.8,0,1.3,0.2,0.7,1C15.7,53.6,15.5,53.3,15.3,52.9z"/>
	<path fill="#E9B403" d="M27.6,45.4l-0.1,0.1L27.6,45.4z"/>
	<path fill="#EED795" d="M28.8,43.5c-0.3,0.5-0.6,1-0.8,1.5C28.3,44.5,28.5,44,28.8,43.5z"/>
	<path fill="#303932" d="M28,30c-0.3-0.6-1-1.3,0.1-1.1C28,29.3,28,29.7,28,30z"/>
	<path fill="#303932" d="M29.9,28.2c0.1,1.4-0.4,0.3-0.8-0.3C29.3,28,29.6,28.1,29.9,28.2z"/>
	<path fill="#0C2123" d="M28,29c-0.7,0.1-0.8-0.4-1-1C27.3,28.3,27.7,28.7,28,29z"/>
	<path fill="#303932" d="M26.9,28.1c-0.3-0.4-0.6-0.7-0.8-1.1C26.4,27.3,26.7,27.7,26.9,28.1z"/>
	<path fill="#73AB40" d="M26.4,42.1c0.2-0.3,0.3-0.6,0.5-0.9C26.7,41.5,26.6,41.8,26.4,42.1z"/>
	<path fill="#87C246" d="M9.9,90.9c0.1-0.9,0.1-1.9,0.2-2.8C11.2,90.3,11.4,96.1,9.9,90.9z"/>
	<path fill="#68A32C" d="M14,90c0.1-1.3-0.3-2.9,0.1-4C14.6,87.2,14.8,89.2,14,90z"/>
	<path fill="#9FB48C" d="M12.2,81.9c0.9-0.1,0.9,0.4,0.8,1.1C12.7,82.6,12.4,82.3,12.2,81.9z"/>
	<path fill="#9FB48C" d="M12,80.9c0,0.3,0.1,0.7,0.1,1C11.5,81.4,10.7,80.1,12,80.9z"/>
	<path fill="#E6FECD" d="M12,80.9c-0.2,0.1-0.6,0-0.8,0C10.6,79.6,12.3,79.7,12,80.9z"/>
	<path fill="#60A627" d="M13,93c-0.2-0.2-0.3-0.3-0.5-0.5C12.8,92.5,12.9,92.8,13,93z"/>
	<path fill="#62A322" d="M13.1,84c-0.2,0.2-0.3,0.3-0.5,0.5C12.5,84.1,12.8,84,13.1,84z"/>
	<path fill="#E7B304" d="M34.5,25.3c-0.6-1.5-1.2-3-1.9-4.7C35.9,22.3,35.9,22.3,34.5,25.3z"/>
	<path fill="#EBD99B" d="M31.9,28c-0.3-0.3-0.6-0.7-0.9-1C31.3,27.3,31.6,27.7,31.9,28z"/>
	<path fill="#FED30E" d="M29,20.9c0-0.2,0-0.4,0.1-0.6C29.4,20.6,29.5,20.9,29,20.9z"/>
	<path fill="#B3D0AA" d="M67.2,9.1c7.4-4.8,3.5,1.2-1.3,3.7C60.4,12.5,64.8,10.7,67.2,9.1z"/>
	<path fill="#74AC42" d="M65,5.1c3.3,2.4-0.9,3.2-1,4.9C60.3,11.3,62.3,3.8,65,5.1z"/>
	<path fill="#9CB893" d="M53.9,12.2c6.8-0.9,9.1,1.8,1.3,2.1C51.3,15.8,48.7,12.6,53.9,12.2z"/>
	<path fill="#BFDDBE" d="M55,13.9c2-0.3,8.6-3.9,8-0.1C60.9,15,57.5,14.7,55,13.9z"/>
	<path fill="#80BC41" d="M63,5c-0.1,2.2-5.1-0.2-7,0C58.4,5,60.7,5,63,5z"/>
	<path fill="#C3E1BA" d="M53.9,12.2c-1.7,0.3-6.7,3.4-6-0.3C49.8,11.8,51.9,12.2,53.9,12.2z"/>
	<path fill="#AECB9E" d="M42.2,10.9c-1.7-3.4,6.9,0.2,3.2,1.3C44,12.4,43.3,11,42.2,10.9z"/>
	<path fill="#C8E4C0" d="M63.3,13.1c-2.8-2.2,1.3-0.7,2.7-0.3C65.1,13.2,64.1,13.8,63.3,13.1z"/>
	<path fill="#81BF4C" d="M49,6.1c0.7-0.5,1.6,0.1,2.3,0.2C51.2,7.6,49.9,6.3,49,6.1z"/>
	<path fill="#C1E6B8" d="M46,11.9c-0.4-2.1,1.9-0.1,3.1,0.1C48.1,11.9,46.8,12.9,46,11.9z"/>
	<path fill="#80BA47" d="M46,7.2c0.6-0.5,1.1-0.1,1.5,0.4C47,7.4,46.5,7.3,46,7.2z"/>
	<path fill="#74AC42" d="M66,10c-0.7,0.3-1.3,0.6-2,0.9C63.7,9.5,65,10.1,66,10z"/>
	<path fill="#CAE7C5" d="M27.8,31.1C27.4,32.7,29,37,27.1,37C27.3,35,27.6,33,27.8,31.1z"/>
	<path fill="#D9CB96" d="M38,11.2c-0.3,0.2-0.6,0.5-1,0.7C37.3,11.7,37.7,11.5,38,11.2z"/>
	<path fill="#D9CB96" d="M40,12c-0.3-0.2-0.6-0.4-0.9-0.7C39.7,11.2,39.8,11.4,40,12z"/>
	<path fill="#2E352F" d="M42.9,13.1c-0.7-0.3-1.4-0.7-2.1-1C41.7,12,44.2,11.7,42.9,13.1z"/>
	<path fill="#2E352F" d="M43,11.2c1.8-0.3,1.3,2.1,0,0.8C43.1,11.8,43,11.4,43,11.2z"/>
	<path fill="#EFD59D" d="M9,110c0,1.3,0,2.8,0,4C5.8,123.4,4.3,108,9,110z"/>
	<path fill="#E9B403" d="M7,117.1c2.2-4.3,1.9-0.7,1,1.9C7.7,118.4,7.4,117.7,7,117.1z"/>
	<path fill="#E8D397" d="M6.9,110.7c-0.2,1.4-0.5,2.8-0.7,4.3C6.4,113.7,5.4,111.4,6.9,110.7z"/>
	<path fill="#E8D397" d="M8.1,110c-0.3,0-0.6,0.1-0.9,0.1C7.7,109.6,8.3,108.7,8.1,110z"/>
	<path fill="#0F2021" d="M6.9,110.7c-1.2,1.3-0.4,0.1-0.1-0.7C6.8,110.2,6.8,110.5,6.9,110.7z"/>
	<path fill="#FEF6AE" d="M11.1,106.4c0.6-0.1,0.2,0.2-0.1,0.4C11,106.8,11.1,106.4,11.1,106.4z"/>
	<path fill="#CAE5BC" d="M90.3,16.1c3,0,0.7,8.1,3.5,10C103.1,39.8,85.9,25.4,90.3,16.1z"/>
	<path fill="#DFD19B" d="M86.9,24c0-2,0-4,0-6C86.9,20,86.9,22,86.9,24z"/>
	<path fill="#B9D1AD" d="M96.8,32.2c-1-5.5,6.8,1.8,1.8,1C97.9,33.3,97.5,32.1,96.8,32.2z"/>
	<path fill="#0E2022" d="M102,35c1.1,0.3,2.2,0.6,3.3,0.9C104.2,35.6,103.1,35.3,102,35z"/>
	<path fill="#78AF49" d="M90.1,25.1c0.6,0.6,2,1.5,0.8,2C90.6,26.4,90.4,25.8,90.1,25.1z"/>
	<path fill="#C8E2B9" d="M102,33c-0.5,1.1-2.9,1.7-2,0C100.5,32.3,101.5,32.4,102,33z"/>
	<path fill="#E1D399" d="M87.1,17.2c0.2-0.4,0.4-0.8,0.6-1.2C87.5,16.4,87.3,16.8,87.1,17.2z"/>
	<path fill="#A6C29A" d="M100,33c0.3,1.5-0.6,0.6-1.4,0.2C99,33.1,99.5,33.1,100,33z"/>
	<path fill="#A6C29A" d="M96.8,32.3c0.4,0.2,0.8,0.5,1.2,0.7C97.6,32.7,97.2,32.5,96.8,32.3z"/>
	<path fill="#B9D1AD" d="M95,31c0.3,0.3,0.7,0.5,1,0.8C95.7,31.5,95.3,31.3,95,31z"/>
	<path fill="#78AF49" d="M91.9,27.1c0.3,1.8-1.9-0.5-0.3-0.4C91.6,26.8,91.9,27.1,91.9,27.1z"/>
	<path fill="#78AF49" d="M102,33c-2.7-0.8-0.2-1.2,1,0C102.7,33,102.3,33,102,33z"/>
	<path fill="#B9D1AD" d="M96.9,30.1c-0.6-0.4-1.2-0.8-1.8-1.2C95.9,28.2,96.4,29.6,96.9,30.1z"/>
	<path fill="#78AF49" d="M91.9,21c0-0.7,0-1.3,0-2C91.9,19.7,91.9,20.4,91.9,21z"/>
	<path fill="#78AF49" d="M95,28c-0.4-0.6-0.8-1.3-1.1-1.9C94.3,26.7,94.6,27.3,95,28z"/>
	<path fill="#78AF49" d="M92.9,24.3c-0.3-0.8-0.6-1.5-0.9-2.3C92.3,22.7,92.6,23.5,92.9,24.3z"/>
	<path fill="#E2FECC" d="M91.8,16.9c-0.3-0.1-0.6-0.3-0.6-0.6C91.6,15.8,92.2,16.4,91.8,16.9z"/>
	<path fill="#78AF49" d="M91.9,19.1c0-0.4,0-0.8,0-1.2C92,18.3,91.9,18.7,91.9,19.1z"/>
	<path fill="#78AF49" d="M99.8,31.1c0.9,0.3,1.6,1.7,0.2,0.9C99.7,31.8,99.6,31.5,99.8,31.1z"/>
	<path fill="#A6C29A" d="M99.8,31.1c0.5,1.3-0.2,0.6-0.8,0.1C99.2,31.1,99.5,31.1,99.8,31.1z"/>
	<path fill="#78AF49" d="M99,31c-0.4-0.3-0.8-0.6-1.2-0.9C98.2,30.4,98.6,30.7,99,31z"/>
	<path fill="#78AF49" d="M96,28.9c-0.7,0.1-1.1-0.2-1-0.9C95.3,28.3,95.7,28.6,96,28.9z"/>
	<path fill="#78AF49" d="M93.9,26.1c-0.3-0.4-0.6-0.7-0.9-1.1C93.3,25.4,93.6,25.7,93.9,26.1z"/>
	<path fill="#E1D399" d="M86.2,13.2c1.6-0.3,0.1,1.1-0.2,1.8C86,14.4,86.1,13.8,86.2,13.2z"/>
	<path fill="#E1D399" d="M86,15c-0.3,0.7-0.6,1.3-0.9,2C85.3,16.3,85.7,15.7,86,15z"/>
	<path fill="#1D2421" d="M44.9,11.8c5.2,2.3,11.9,2.3,18.1,2.3C58.2,15,45.2,18.2,44.9,11.8z"/>
	<path fill="#1D2421" d="M62.4,16.2c-2.6,0-5.2,0-7.8,0C57.2,16.1,59.8,16.1,62.4,16.2z"/>
	<path fill="#72AB3F" d="M63.3,13.1c0.6,0,1.1,0.1,1.7,0.1C64.2,13.4,62.6,14.4,63.3,13.1z"/>
	<path fill="#E4D296" d="M68,15c-0.7,0.3-1.5,0.6-2.2,0.9C66.5,15.6,67.2,15.3,68,15z"/>
	<path fill="#74AC42" d="M68.9,8c-0.3,0.3-0.6,0.6-0.9,0.9C68.3,8.6,68.6,8.3,68.9,8z"/>
	<path fill="#74AC42" d="M67.2,9.1C66.8,9.4,66.4,9.7,66,10C66.4,9.7,66.8,9.4,67.2,9.1z"/>
	<path fill="#DFFED7" d="M71.6,7.9C71.4,7.6,71.2,7.3,71,7C71.2,7.3,71.4,7.6,71.6,7.9z"/>
	<path fill="#FEEEA4" d="M58.9,146.1C59.1,145.9,59.3,145.7,58.9,146.1C59.3,145.7,59,145.9,58.9,146.1z"/>
	<path fill="#68A732" d="M44,150c1-4.1,8.4-2,11,0.2C51.3,150.1,47.6,150,44,150z"/>
	<path fill="#E9B403" d="M9.8,113.9c2.8-3.6,5-8.9,3.5-0.9C19.8,104.4,17.8,118.5,9.8,113.9z"/>
	<path fill="#EAB718" d="M22.7,96.5c-0.9,1.4-0.5,5.7-2.5,4.9C21,99.9,20.4,95.5,22.7,96.5z"/>
	<path fill="#E9B403" d="M10,120c0.8-1.2,1-4.1,2.6-2.2C11.7,118.6,10.9,119.3,10,120z"/>
	<path fill="#E8D397" d="M19.1,97.1c0.3-1,0.7-2.1,1-3.1C19.7,95.1,19.4,96.1,19.1,97.1z"/>
	<path fill="#E6D292" d="M20.1,94.1c0-0.7-0.3-3.2,0.8-2.1C20.6,92.7,20.3,93.4,20.1,94.1z"/>
	<path fill="#E8D397" d="M20.9,92c-1.6,0.3-0.1-1.1,0.2-2C21,90.7,20.9,91.3,20.9,92z"/>
	<path fill="#E8D397" d="M9,115c-0.3,0-0.6,0.1-0.9,0.2C8.7,114.6,9.2,113.3,9,115z"/>
	<path fill="#E8D397" d="M18.1,99.2c0.3-0.4,0.5-0.8,0.8-1.2C18.6,98.4,18.3,98.8,18.1,99.2z"/>
	<path fill="#E8D397" d="M17,101.1c0.3-0.4,0.6-0.7,0.8-1.1C17.6,100.4,17.3,100.7,17,101.1z"/>
	<path fill="#EBB714" d="M24,106c-0.3,0-0.7,0-1,0C23.3,106,23.7,106,24,106z"/>
	<path fill="#2E342B" d="M45,13.1c0.6,1.5-2.5,0-1.8-0.4C43.9,12.5,44.6,12.3,45,13.1z"/>
	<path fill="#2E342B" d="M45.7,14.1c0.8,0.3,1.5,0.5,2.3,0.8C46.7,15.2,46.4,15.4,45.7,14.1z"/>
	<path fill="#FEF1AB" d="M46.2,14.8c1.5,0-0.1,0.5-0.7,0.6C45.8,15.3,46,15.1,46.2,14.8z"/>
	<path fill="#2E342B" d="M49.6,15.2c0.8,0.2,1.6,0.4,2.4,0.6C51.2,15.6,50.4,15.4,49.6,15.2z"/>
	<path fill="#FEEFAB" d="M97.7,69.9c-1.2,0.3-0.4-0.6-0.1-1.3C97.6,69.1,97.7,69.5,97.7,69.9z"/>
	<path fill="#FEF5A7" d="M102,60c-0.2-0.2-0.3-0.3-0.5-0.5C101.8,59.5,101.9,59.8,102,60z"/>
	<path fill="#FEF9B2" d="M107.9,53.9c-0.1-0.2-0.3-0.3-0.4-0.5C107.6,53.6,108,53.8,107.9,53.9z"/>
	<path fill="#FEF1AF" d="M16.2,57.1c0.2-0.2,0.4-0.2,0.6-0.3C16.8,57.4,16.6,57.7,16.2,57.1z"/>
	<path fill="#FEF3AB" d="M17.9,55.9c0.2,0.2,0.4,0.3,0.1,0.1C18.3,56.3,18.1,56,17.9,55.9z"/>
	<path fill="#FEF8AB" d="M26.1,48.1c0.1,0.2,0.3,0.3,0.4,0.5C26.4,48.4,26.1,48.2,26.1,48.1z"/>
	<path fill="#EBD99B" d="M31.9,41.9c-1.4,0.3-0.6-0.3,0-1C32,41.3,32,41.6,31.9,41.9z"/>
	<path fill="#EBD99B" d="M32.9,38.9c-1.4,0.3-0.6-0.3,0-0.9C33,38.3,33,38.6,32.9,38.9z"/>
	<path fill="#FEFDB0" d="M76.8,145.8c-0.2,0.1-0.4,0.1-0.6,0.1C76.6,145.6,77.2,144.8,76.8,145.8z"/>
	<path fill="#FEFBA4" d="M79,143.1c0,0.6-0.3,0.9-0.8,0.8C78.4,143.7,78.7,143.4,79,143.1z"/>
	<path fill="#FEF8AB" d="M98,106.1c0.1,0.6-0.4,0.9-0.9,0.9C97.4,106.7,97.7,106.4,98,106.1z"/>
	<path fill="#FEF1AD" d="M99.8,82c0.1,0.3,0.3,0.6,0.4,1C100.1,82.6,99.9,82.3,99.8,82z"/>
	<path fill="#E9B50A" d="M25,83c0.3,0,0.7,0,1,0C25.7,83,25.3,83,25,83z"/>
	<path fill="#D1EECA" d="M108.2,58.1c0.4,0,0.7,0,1.1-0.1C108.8,59,108.6,59.1,108.2,58.1z"/>
	<path fill="#D2EFCB" d="M17.6,51.8c-0.3-0.1-0.5-0.2-0.5-0.6C17.3,51.4,17.5,51.6,17.6,51.8z"/>
	<path fill="#98BD7C" d="M14.1,90c0-1.4,0-2.7,0-4.1C14.1,87.3,14.1,88.7,14.1,90z"/>
	<path fill="#2E342B" d="M51.3,13.8c-0.8-0.2-1.6-0.5-2.3-0.7C49.9,13.2,50.9,12.9,51.3,13.8z"/>
	<path fill="#2E342B" d="M48.1,12.9c-0.7-0.3-1.4-0.5-2.2-0.8C46.9,12.2,47.7,11.9,48.1,12.9z"/>
	<path fill="#72AB3F" d="M44.1,11.9c-0.5-1,0.8-0.3,0.8,0.3C44.6,12.5,44.3,12.4,44.1,11.9z"/>
	<path d="M44.1,11.9c0.8,0,1,0.5,0.9,1.2C43.7,13.1,41.8,11.9,44.1,11.9z"/>
	<path fill="#D3F1BF" d="M91.9,27.1c-0.6,0-1-0.5-0.8-1.1C91.4,26.4,91.7,26.8,91.9,27.1z"/>
	<path fill="#A6C29A" d="M100,32c0.7-0.1,1.1,0.1,1.2,0.8C100.3,33,99.8,33.1,100,32z"/>
</g>
</svg>
