<?xml version="1.0" encoding="utf-8"?>
<!-- Generator: Adobe Illustrator 24.1.2, SVG Export Plug-In . SVG Version: 6.00 Build 0)  -->
<svg version="1.1" id="Layer_1" xmlns="http://www.w3.org/2000/svg" xmlns:xlink="http://www.w3.org/1999/xlink" x="0px" y="0px"
	 viewBox="0 0 190 200" enable-background="new 0 0 190 200" xml:space="preserve">
<g>
	<path fill="#AEC7D5" d="M81,199.1c0,0.3,0,0.6,0,0.9c-1.3,0-2.7,0-4,0c0-0.3,0-0.6,0-0.9C78.3,197.8,79.6,197.8,81,199.1z"/>
	<path fill="#AEC7D5" d="M190,94c-0.3,0-0.5,0-0.8,0.1c-1.1-1-1-2-0.2-3c0.3,0,0.7,0,1,0C190,92,190,93,190,94z"/>
	<path fill="#61171B" d="M189,91c0.1,1,0.1,2,0.2,3c-1.7,3-3.3,6.1-5,9.1c-0.6,1-1.2,2-1.8,3c-1.5,2.7-1.4,5.2,0.6,7.7
		c2.4,3,3.5,6.5,4.2,10.4c0.9,5.1-0.7,9.1-3.6,12.8c-4.1,5.2-8.5,10.2-12.6,15.3c-3.9,4.8-5.9,10.6-8.2,16.3
		c-3.3,8-8.1,14.7-15.5,19.5c-7.5,4.8-16,6.5-24.6,5.6c-8.9-0.9-17.5-0.5-26,1.5c-3.7,0.9-7.2,2.2-10.9,3.2
		c-1.6,0.4-3.2,0.5-4.8,0.8c-1.4,0-2.7,0-4.1,0.1c-7.2-0.2-13.4-3.2-18.3-8.2c-4.6-4.6-8.5-9.9-12.7-14.9c1.7-1.5,3.1-0.7,4.4,0.5
		c0.7,0.8,1.3,1.7,2.2,2.3c0.3,0.2,0.6,0.5,0.9,0.8c0.3,0.2,0.6,0.4,0.9,0.6c0.5,0.2,1,0.2,1.5-0.1c0.1-0.1,0.3-0.2,0.4-0.3
		c0.1-0.1,0.3-0.3,0.4-0.4c0.2-0.3,0.5-0.5,0.7-0.8c0.1-0.1,0.2-0.3,0.4-0.4c0.5-0.5,0.9-1.1,1.3-1.7c0.2-0.3,0.4-0.6,0.5-0.9
		c0.3-0.4,0.5-0.9,0.7-1.3c0.1-0.3,0.3-0.6,0.5-0.9c0.2-0.5,0.4-0.9,0.6-1.4c0.1-0.3,0.3-0.7,0.4-1c0.2-0.7,0.4-1.4,0.6-2.2
		c0.1-0.4,0.3-0.8,0.5-1.2c0.5-1,1-2,1.2-3.1c0.5-2.3-0.9-0.6-1.4-0.6c-1.2,0.6-2.4,1.2-3.7,1.4c-6.3,1.1-11.1,4.1-13,10.6
		c-1.5-1.2-3.1-2.3-4.6-3.5c-3.4-2.9-6.6-6-10-8.9c-4.5-3.9-7.1-8.7-7.3-14.6c-0.1-2.2-0.9-3.8-2.7-5c-1.5-1-3.1-1.9-4.6-2.9
		c-2.5-1.8-5-3.7-7.5-5.6c-1.2-0.9-2.2-2-3.5-2.7c-4.5-2.6-5.7-5.6-4.2-10.8c1.9-6.5,5.9-11.4,10.9-15.7c1.3-1.1,2.5-2.2,4-3
		c2.8-1.5,4.4-3.5,4.9-6.9c0.3-2.6,1.9-5.3,3.5-7.5c3.4-4.9,4.8-10.4,5.4-16.2c0.9-8.2,2.7-16.2,6.8-23.5c2.9-5.2,6.8-9.3,12.3-11.9
		c1.8-0.8,3.7-1.3,5.9-2.1c-2.7-5.7-3.1-11.5,1.5-16.7c4.7-5.3,10.6-5.2,17.2-3.4c0-3.2-0.1-5.6,0-8.1c0.1-2.2-0.5-4.6,2-6.5
		c1.9,2.4-0.4,4.5-0.2,6.7c0.3,2.1,0.1,4.2,0.1,7.3c2.5-2.1,4.4-3.6,6.2-5.3c5.5-5.1,10.7-4.7,15.1,1.4c2.4,3.3,3.8,7,3.8,11.1
		c0,1.4,0.3,2.3,1.9,2c-0.2,11.7-3,20.4-13.2,25.6c-9.3,4.8-19.5,3.4-28.3-3.7c-2.5-2.1-3.8-6.5-8.2-5.5c-5.1,1.2-8.7,4.6-11.7,8.8
		c-0.4,0.5-0.5,1.2-0.8,1.8c-0.9,1.5-1.7,3.1-2.3,4.7c-3.1,6.4-3.4,13.4-4.8,20.2c-1.1,5.7-2.7,11.2-6,16.1c-2,3-3.5,6.4-2.5,10.3
		c0.5,3,2.6,3,4.5,1.9c5.3-3.2,10-7.3,16-9.1c0.1,0,0.1-0.6,0.3-0.9c3-1.7,4.2,0.3,5.2,2.6c1.8,4.7,0.5,9.8,1.7,14.7
		c1.6,6.8,3.8,8.4,10.7,7.2c1.2-0.2,2.3-0.4,3.3,0.4c1.2,1.4,0.4,2.4-0.6,3.4c-3.6,3.3-11.3,2.5-14.3-1.5c-3-4-3.5-8.9-4.3-13.6
		c-1-6.7-3-7.7-8.2-3.7c-3.2,2.4-6.4,4.7-10.1,6.3c-1.8,0.8-3.1,1.9-3.1,4.1c-0.5,4.5,0.4,8.1,3.6,11.9c4.4,5.1,7.7,11.2,11.9,16.6
		c2.7,3.4,5.4,3.9,9.1,2.4c3.6-1.4,2.4-4.1,2.1-6.7c-0.6-5.6,4.1-8.8,9.6-6.6c1.4,0.6,2.5,1.7,3.7,2.5c1.4,1.1,3.1,0.9,4.7,0.9
		c4.3-0.2,8.1,0.7,10.9,4.3c0.3,0.4,0.6,0.8,1.1,1c0.3,0,0.5-0.2,0.7-0.5c0.1-0.5,0.1-1.1,0.1-1.6c0-2.7-0.1-5.4,2.9-6.7
		c1.2-0.4,2.5-0.7,3.7-1c0.7,0.1,0-0.4,0.5,0c5.9,4.8,12.3,2.4,18.7,1.6c3.3-0.4,6.6-0.3,9.9,0.3c1.4,0.4,2.9,0.7,4.4,0.7
		c1.5,0,2.9,0.1,4.4,0.2c6,0.7,12.2-2.9,14.8-8.7c0.3-0.9,0.5-1.8,0.5-2.7c0.1-1.7-0.7-3.2-1.3-4.8c-1-3-0.3-5.6,2-7.7
		c2.1-2,4.6-2.3,7.4-1.5c6.3,1.9,6.2,1.8,7.4-4.8c0.6-3.4,1.2-6.9,2.8-10c1.1-2.3,0.8-4.2-1.6-5.4c-2-0.9-3.9-0.2-5.8,0.2
		c-0.8,0.5-0.7,1.3-0.7,2.1c0,0.5-0.1,0.9-0.2,1.3c-4.4,5.8-8,5.6-12.5-0.6c-2.6-0.8-4.1,0.2-4.4,3.3c-0.4,3.5-0.4,7,0.7,10.4
		c1.4,4.5,1.4,9.2,1.1,13.9c-0.3,4.3-1.5,8.3-6.2,10c-4.7,1.7-11.1-0.1-14-4c-2.8-3.7-5.2-7.7-6.9-12.1c-0.8-2.1-1.5-4.6-4.6-4.5
		c-3.8-0.1-6.3-1.7-6.8-5.7c-0.1-1-0.1-2-0.2-3.1c-2.1-4.4-6.1-3.4-9.5-2.8c-6.3,1.2-10.4,5.7-13.7,10.8c-2,3.1-3.4,6.5-5,9.8
		c-0.8,1.8-1.6,3.9-4.3,2.8c-1.4-1.5-0.6-3,0.1-4.5c2.4-5.4,4.8-10.8,8.2-15.7c0.5-0.6,1-1.2,1.6-1.7c2.8-2.1,5.9-3.8,9.2-5
		c9.2-3.6,18.4-0.6,24.2,7.5c2.7,3.9,4,8.4,6.2,12.5c1.6,3.1,3.2,6.2,5.7,8.7c2.1,2.1,4.6,3.8,7.6,2.7c3.1-1.1,3.6-4.1,3.8-6.9
		c0.2-2.8,0.2-5.6-0.7-8.4c-1.8-6.1-2.4-12.4-3.3-18.6c0.2-2-0.4-4.4,2.6-5c0.8,0.1,1.5,1.4,2.2,0.9c5.7-4.5,12.4-2.3,18.7-2.8
		c5.4-0.4,7.3-2.1,7.9-7.4c-0.9-5.2-3.5-9.4-7.6-12.5c-8.4-6.2-15.4-13.5-21.1-22.2c-4.4-6.6-10.7-11.3-17.8-14.7
		c-0.9-0.4-1.9-0.5-2.9-0.6c-2.9-0.3-6.1,0.7-8.7-1.5c6-3.6,11.7-1.7,17.2,1c5.7,2.8,10.2,7.3,13.9,12.4c8.7,11.9,8.8,12,23.3,24.3
		c3.5,3,6.2,6.5,7.2,10.9c0.6,2.7,2.1,3.7,4.4,4.6c3.2,1.1,6.4,2.5,9.6,3.9C183.2,83,186.8,86.4,189,91z"/>
	<path fill="#A97E52" d="M50.1,97c-1-3.3-1.9-3.6-4.1-2c-4.8,1.3-8.9,4-12.8,7c-2.8,2.1-5.8,3.3-9.1,1c-1.5-2.9-0.9-5.6,0.6-8.3
		c0.5-0.8,0.8-1.8,1.3-2.6c4.6-6.6,6.3-14,7.1-21.9c0.5-4.5,1.8-8.8,2.9-13.2c0.2-0.8,1.2-1.5,1.8-2.2c0.2,0.1,0.3,0.3,0.5,0.4
		c0.4,0.1,0.3,1.3,0.6,0.6c0.7-1.5,1.1-3.1,2.3-4.2c0.4-0.4,0.8-0.8,1-1.3c-0.1-0.4,0.1-0.6,0.4-0.8c0,0-0.1-0.5-0.1-0.5
		c0,0.3-0.1,0.6-0.3,0.9c-0.1,0.5-0.4,0.9-0.8,1.3c-0.5,0.3-1,0.3-1.5,0.1c-0.1-0.2-0.2-0.3-0.3-0.5c-0.5-3.2,2.2-4.8,3.8-6.5
		c2.7-2.9,6.4-4.8,10.4-6c2-0.6,3-0.2,4,1.5c3,4.9,7.7,8.1,12.9,10c6.9,2.5,13.6,1.4,20.1-2.4c5.1-3,7.5-7.8,9.6-12.9
		c0.2-0.6,0.3-1.3,0.2-1.9c-0.1-2.8-0.1-5.6,2.1-7.7c0.1-0.1,0-0.6-0.1-1l0,0c3.3,0.1,6.7,0.1,10,0.2c0.6,0.5,1.5,0.3,2,0.9
		c4.7,1.7,8.7,4.6,12.3,7.9c3,2.7,5.5,6.1,7.8,9.5c4.9,6.9,10.4,13,17.4,17.9c4.9,3.5,9.3,7.9,9.6,14.7c-1.3,6.4-3.2,7.9-9.7,8
		c-5.3,0.1-10.8-1.9-15.9,1.3c-1,0.3-2.1-0.3-3,0.5c-0.2,0.1-0.4,0.1-0.6,0.2c-1.1,0-2,0.1-2,1.5c0,1.2,0,2.3,0,3.5
		c-1.6,4.5,0.1,8.7,0.9,13c0.8,4.2,2.1,8.3,2.2,12.7c0.1,3-0.3,5.8-3.4,7c-3.4,1.3-6.6,0.4-9.1-2.3c-3.8-4.1-6-9.1-8-14.2
		c-3-7.6-7.7-13.5-15.9-15.8c-0.7-0.1-1.4-0.2-2.1-0.5c-0.9-0.2-1.7-0.5-2.7-0.5c-3.9,0.8-8,1.1-11.4,3.5c-0.3,0.3-0.7,0.5-1.1,0.7
		c-1.1,0.6-2,1.4-2.6,2.5c-0.2,0.4-0.5,0.7-0.8,1c-0.7,0.7-1.3,1.4-1.8,2.2c-2.8,4.3-5.2,8.8-7.5,13.4c-1.7,3.4-4.3,6-8.6,5.4
		c-4.2-0.6-5.3-3.8-6.3-7.3c-0.7-2.6-0.7-5.2-0.7-7.9C52.1,100.6,51.7,98.6,50.1,97z"/>
	<path fill="#FDFDFD" d="M100.6,101.3c1.4,4.1,1.7,4.3,6.4,4.6c1.3,1.1,2.2,2.7,2.3,4.2c0.2,4.1,2.2,7.4,4.4,10.6
		c0.7,2.1,0.6,4.2,0.7,6.3c0.1,1.1,0.2,1.8,0.9,0.2c1.2-0.8,2.5-0.9,3.8-0.3c7.2,3,13.6,2.5,18.9-3.8c0.3-0.4,0.9-0.5,1.4-0.6
		c0.6,0,1,0.3,1.1,0.9c0.3-0.2-0.1-0.4,0-0.7c-0.3-0.6-0.5-1.2-0.6-1.8c-0.3-3.5-0.1-6.9-0.1-10.4c0.1-1.4-0.1-2.7-0.9-3.9
		c-0.2-0.4-0.4-0.8-0.6-1.3c-0.3-0.7-0.5-1.4-0.7-2.1c-0.8-2.6-1.7-5.2-1.2-7.8c0.6-3,1.2-6.5,5.8-5.5c0.5,0.6,1,1.3,1.5,1.9
		c2.2,2.6,6,2.8,8.5-0.4c0.6-0.7,0.9-1.7,1.3-2.6c1.3-1.1,2.4-0.8,3.4,0.4c0.3,0.6,0.7,1,1.2,1.4c0.2,0.3,0.4,0.5,0.6,0.7
		c-0.2-0.3-0.4-0.5-0.6-0.7c-0.4-0.5-0.9-0.9-1-1.6c0.8-1.4,1.8-2.5,3.2-3.4c0.6,0.3,1.3,0.4,1.8,0.8c1.1,0.9,2.2,2,3.4,3.1
		c-4.7,6.1-5,13-5.3,20.2c-0.9,0.1-1.7,0.1-2.5,0.2c-1.8,0.2-3.4,0.8-5.2-1c-1.7-1.8-4.3-1.3-6.4,0c-2.2,1.3-3,3.5-2.7,5.9
		c0.1,0.9,0.5,2,1.1,2.6c1.5,1.3,0.7,2.7,0.5,4.1c-0.2,0.8-0.2,1.6-0.6,2.3c0.1,2.2-0.4,4.1-2.7,5.1c-0.1,0.1-0.3,0.2-0.4,0.3
		c-2.5,1.8-4.8,4.5-7.6,5.3c-2.8,0.7-6-0.6-9.1-1c-1.4-0.4-3,0.3-4.3-0.7c-8.1-0.7-15.9,0.2-23.4,3.1c-1.6-2.8-2.7-5.7-6.6-5
		c-0.9,0.8-2.2,0-3,0.9c-1.6,0.6-2.2,1.9-2.2,3.5c0,1.5,0.2,3,0.2,4.5c-0.3,0.3-0.8,0.5-0.6,1.1l-0.3-0.1l0,0.3
		c-0.8,0.1-1.5,0.2-2.2-0.4c-2.4-4-6.2-5.3-10.6-5.4c-1.8-0.2-3.6-0.1-5.4-0.2c-1.9-1.8-3.4-3.9-6.6-3.8c-3.4,0.1-6.1,2.3-5.2,6.7
		c0.2,1.1,1,2.1,1.6,3.2c-0.6,1.2-1.3,2.5-2.1,4.1c-1.2,0.2-2.7,0.3-4.1,0.7c-1.4,0.4-2.8,1-4.3,1.5c-5.2-5.5-9.8-11.5-13.8-18
		c-1.5-2.4-2.6-5-5.4-6.3c-0.6-0.3-1.1-1.6-1.1-2.5c-0.1-2.3,0.1-4.6,0.2-7c2.6-3.1,4-1.2,5.6,1.8c1-4.2,3.2-6.9,7.5-6.3
		c2.1,0.3,0.8-1.1,1.1-1.6c1.3-2,2.7-3.3,5.2-1.8c0.9,1.4,0.7,3.1,1,4.6c0.9,1.3,3.1,2,2.3,4.2c-0.6,0.7-0.1,1,0.6,1.2
		c0.2,0.3,0.5,0.5,0.6,0.8c1.7,5,5.4,9.3,10.1,9.1c4.8-0.2,9.4-3.7,12-8.7c0.8-1.6,1.2-4.6,4.4-3c0.7,4,0.8,8.1,1.9,12
		c0.2,0.6-0.2-0.2,0,0.5c0.1-0.2,0-0.4,0-0.6c-1.3-4.2-1-8.7-2.2-13c0.4-6.8,7-13.7,13-13.4c1.2,1.9,0.5,4.1,1.4,6.9
		c-0.7-3.1-0.7-5.4-1.1-7.7c3.2-4,7.2-2.4,11.1-1.7C101,98.3,100.3,100,100.6,101.3z"/>
	<path fill="#ED7961" d="M76,17c3.8-1.6,6.8-4.2,9.6-7.2c2.2-2.4,3.2-2.3,6-0.7c4.6,2.7,6.4,7.4,7.2,12.1c0.7,4.5,0.6,9.1-1.7,13.5
		c-4.1,7.6-9.7,12.1-19,12.5C67.8,47.7,59.5,40,56.4,31.8c-1.6-4.4,0.3-11.1,4.3-13.7c1.8-1.2,4.2-1.7,6.4-1.8
		c2.6-0.1,5.2,0.5,7.8,0.9c1.1,1.4,0.8,2.9,0.1,4.4C76.7,20.3,74.6,18.3,76,17z"/>
	<path fill="#F9C035" d="M95,146.2c2.1-1.8,4.3-3.1,7.3-3.3c3-0.2,5.9-1.1,8.8-1.6c2.4,0.4,3,1.7,2,3.8l0,0c-1.2,1.1-1.2,2.8-2,4
		l0,0c-0.8,0.4-0.6,1.4-1,2l0,0c-3.9,10.4-7.1,21-12,31l0,0c-3.2,3.2-5,7.4-8.9,10.2c-4.1,3-8.3,4.4-13.2,4.4
		c-0.7-0.1-1.5-0.1-2.2-0.2c-0.4-0.1-0.7-0.2-0.9-0.5c-0.9-0.1-1.9-0.2-3.4-0.3c2.4-2.3,4.5-4.1,6.4-6.1c5.3-5.6,8.2-12.4,10.1-19.8
		c1.6-6,2.9-12.2,5.8-17.8c0.8-1.3,1-2.8,2-4l0,0C94.6,147.5,94.4,146.6,95,146.2z"/>
	<path fill="#F9C035" d="M153,146c0.7,0.1,1.3,0.3,2,0.4c0.5,0.5,0.8,1.2,0.4,1.8c-5.8,11-8.5,23.4-14.3,34.4
		c-0.6,1.2-1.5,2.2-2.1,3.4l0,0c-0.6,0.7-1.3,1.4-2,2l0,0c-0.4,0.2-0.8,0.5-1,1l0,0c-4.4,1.7-9,2.1-13.6,1.9
		c-1.5-0.1-3.5,0.5-3.6-2.2c1-1.8,2.1-3.6,3.1-5.5c3.2-6,4.8-12.7,7.1-19.1c1.8-5,3.6-10.1,6.1-14.7c2.9-5.3,4.9-5.8,10.7-4.6
		C148.6,143.4,150.8,144.5,153,146z"/>
	<path fill="#F9EE99" d="M57.8,183.9c4.9-5,7.7-11.1,9.3-17.9c0.8-3.5,2.7-6.3,5.9-8c4.7-2.6,9.3-5.2,14-7.8c2.2,2.4,0.4,5-0.5,7
		c-2.9,7.1-4.9,14.5-8.6,21.2c-2.7,4.9-4.9,10.4-11.2,11.8c-0.5,0.1-1,0.1-1.5,0.1c-1,0-2-0.2-2.9-0.6c-0.5-0.2-1-0.3-1.4-0.3
		l-0.1-0.1c0-0.6-0.3-0.9-0.9-0.9l-0.1-0.1c-0.2-0.9-1.3-0.6-1.7-1.2l-0.1,0C57.3,186,57.4,185,57.8,183.9z"/>
	<path fill="#F9EE99" d="M130.1,142.1c0.6,0,1.2,0.1,1.8,0.1c0.4,0.1,0.9,0.3,1.3,0.5c0.3,0.1,0.6,0.2,0.9,0.3c0.7,1,0.6,2,0,3l0,0
		c-0.4,0.3-0.8,0.6-1,1.1l0,0c-4.8,3.1-6.3,8.3-8.2,13.3c-3.1,8.2-5.6,16.7-10.7,24c-2.1,2.9-4.5,5.3-8.2,6.1
		c-1.3,0.4-2.9-0.8-3.9,0.9c-0.4,0.2-0.8,0.4-1.2,0.7c-0.6,0.5-1.4,0.5-2.1,0.3c-1.1-0.5-2.5-0.7-2.1-2.5c0.1-0.3,0.2-0.5,0.3-0.7
		c7.8-7.2,11.3-16.9,14.6-26.6c1.2-3.4,2-7,3.5-10.3c2.2-5.1,5.3-9.2,11.3-10.1C127.7,141.8,128.9,142.8,130.1,142.1z"/>
	<path fill="#ED7961" d="M122,139.1c-3.5,0-7-0.1-10.5-0.1c-6.3,0-12.3,1.5-17.9,4.2c-6.6,3.2-12.7,7.2-19.1,10.8
		c-5.5,3.1-10.8,6.6-17,8.2c-3.1,0.8-6.3,1.4-9.5,2.1c-3,0.5-6,0.4-9,0.1c-0.7-0.1-1.4-0.3-2-0.4c-0.5-0.6-0.5-1.2,0-1.7
		c1.2,0,2.3-0.1,3.5,0c7.6,0.6,14.5-1.8,21.3-5c7-3.3,13.4-7.4,20.1-11.4c8.2-4.8,16.8-8.9,26.2-10.5c4.9-0.8,10-0.2,15-0.2
		c0.9,0.8,2.2,0.1,3.1,0.8c4.4,0.9,8.8,1.8,13.1,2.7c1.3,0.2,2.5,0.3,3.8,0.5c0.3,0.3,0.6,0.5,1,0.7c2.3,0.1,4.6,0.2,6.9,0.4
		c0.6,0.5,1.4,0.4,2.1,0.7c1.3,0,2.7,0.1,4,0.1c1.7-0.5,3.3-0.6,5,0c4.5-0.8,9.1-0.6,13.4-2.5c1-0.5,2.2-0.4,3.4-0.6
		c0.2,0.2,0.3,0.3,0.5,0.5c-3.1,3.1-6.6,5.6-11.2,5.8c-1,0.8-2,0.6-3,0.2c-1.7,0-3.3,0-5,0c-1.7,0.4-3.4,0.6-5-0.1
		c-0.7,0-1.3-0.1-2-0.1c-2.6,1.4-4.8,0-7-1c-2.8-0.6-5.5-1.5-8.3-1.9c-4.5-0.6-9-0.9-13.5-1.3C123.5,139.5,122.6,139.6,122,139.1z"
		/>
	<path fill="#F9C035" d="M162.8,103c0.1-1.6,0.2-3.2,0.3-4.8c0.2-0.4,0.5-0.5,0.9-0.4c1,1.4,2,2.7,3,4.1c0.5,0.6,0.3,1.6,1.1,2l0,0
		c0.2,0.5,0.5,0.8,1,1l0,0c3.1,3.3,7.1,5.5,10,9l0,0c5.3,6.8,5,12.4-1,19.2l0,0c-0.5,0.2-0.8,0.5-1,1l0,0c-0.5,0.2-0.8,0.6-1,1l0,0
		c-1.8,0.3-3.3,2-5.3,1c-0.4-1.2-0.5-2.5-1.1-3.5c-1.4-2.2-2.7-4.5-5.3-5.6c-1.5-0.6-2.9-1.4-3.8-1.9c0.6-6,1.1-11.5,1.6-17
		C163,106.5,162.1,104.6,162.8,103z"/>
	<path fill="#AEC7D5" d="M43.7,106.1c-3.8,1.4-3.8,1.4-3,5.2c0.1,0.5-0.2,1.1-0.4,1.6c-0.4-0.4-1.2-0.7-1.3-1.1
		c-0.2-2.4-1.4-2.3-3-1.4c-1.2,0.7-2.4,1.4-3.7,2.1c2.4,3-2.1,4-1.8,7.2c-2.6-2.1-1.2-4.3-1.9-6.4c-1.1,0.2-2.4,0.4-3.7,0.7
		c-0.4-3,0.4-4.7,3.8-5.6c2.7-0.7,5.1-2.9,7.5-4.5c2.3-1.5,4.5-3.3,7-4.6c1.8-1,3.1-0.4,4,1.4c0.7,1.4,1.3,3,1.5,4.6
		c0.5,2.6,0.5,5.3,1.1,7.8c0.5,2.2,1.6,4.2,2.6,6.3c1.1,2.2,2.6,3.7,5.4,3.7c3.3,0,6.6-0.1,9-3c0.2-0.2,0.1-0.6,0.1-1c0,0,0,0,0,0
		c1.9,0.1,2.3-1.4,3-2.8c2.2-4.4,4.2-9,7-13c4.1-5.8,9.6-9.9,17.3-9.2c1.8,0.2,3.5,0.7,5.2,1.3c1,0.3,1.6,1.2,1,2.4
		c-0.1,0.8-0.3,0.9-0.9,0.3c-3.1,0-6.2,0-9.3,0c-1.5,0-1.4,1-1.4,2c-0.3,0.5-0.7,0.5-1,0c-4.8,0.8-7.2,4.6-9.9,8
		c-1.1,1.4-2.8,2.9-2.1,5.1c-0.2,0.4-0.6,0.7-1,0.9c-1.5,2-3.2,3.9-4.4,6.1c-1.9,3.4-4.6,5.2-8.3,5.9c-1.5,0.3-1.5,0.4-3,3.9
		c-2.6-0.3-0.4-3.1-2.2-4c-0.5,0.3-1.2,0.6-1.9,1c-4.1-2.6-6.3-6.7-8.2-11l0,0c0-1.2,0-2.5,0-4c-1,0.9-1.6,1.4-2.2,2
		c-0.3-0.7-0.5-1.3-0.8-2C44.6,110,45.2,108,43.7,106.1z"/>
	<path fill="#AEC7D5" d="M139.8,123.1c-1.3,1.2-2.7,2.3-3.9,3.6c-2.2,2.3-4.9,3.4-8.1,3.3c-3.6,0-7.2,0.5-10-2.6
		c-0.3-0.3-1.6,0.4-2.5,0.7c-2.4-1.8-1-4.9-2.3-7.1c-0.7-2.2-3.2-2.9-4.3-5.2c-1-2,1.1-3.3-0.2-4.9c-1.1-1.4-1.8-3.1-1.5-5
		c0.6-0.3,1.2-0.6,2.2-1.2c1.2,2.2,2.6,4.4,3.5,6.7c1.4,4.1,3.6,7.7,6.2,11.1c2.9,3.8,9,6,13.2,4.2c3.6-1.5,4.7-4.9,4.9-8.5
		c0.3-5.1,0-10.2-1.3-15.2c-0.8-3.3-1-6.9-0.6-10.3c0.2-1.9,1.9-3.7,3.3-5.3c0.6-0.6,2-0.5,3.5-0.9c0,1.4,0,2.4,0,3.3
		c-3.7,1.4-5.3,3.7-4.8,7.2c0.4,2.3,1.3,4.5,1.9,6.8c-0.6,0.7-0.7,1.4,0,2l0,0c0.6,0.9,0.9,2.1,1.8,2.9c0.1,4.4,0.2,8.7,0.3,13.1
		C140.6,122.3,140.5,123,139.8,123.1z"/>
	<path fill="#F9C035" d="M20.7,103.9c1,1.4,1.8,2.6,2.6,3.9c0.3,0.5,0.5,1.2,0.5,1.8c-0.4,4.2-0.9,8.5-1.3,13
		c-3.2,1-6.8,2.3-10.5,3.4c-2.5,0.7-4.5-0.3-6-2.4c-1.5-1.9-1-3.8,0.1-5.5C9.6,112.2,14.2,107.4,20.7,103.9z"/>
	<path fill="#87512D" d="M97,89c2.8-0.4,5.1,1.2,7.1,2.7c4.5,3.4,7.7,7.9,9.9,13.1c1.8,4.3,3.8,8.5,6.1,12.5c1.8,3,4.6,5.1,8.6,4.7
		c2.6-0.2,4.2-1.7,4.3-4.3c0.1-4.2-0.9-8.3-1.8-12.4c-1.1-4.5-1.5-9.2-2.1-13.8c-0.2-1.4,0.9-1.5,1.9-1.5c1.1,6.5,1.9,13,3.6,19.4
		c1.1,4.3,1.5,9-1.4,13.3c-1.9,2.8-2.9,3.2-6.1,2.4c-5.2-1.2-7.7-5.2-10-9.3c-1.6-2.9-2.6-6.2-4.2-9.2c-2.6-5-5.2-9.9-10.8-12.7
		c-5.4-2.7-10.7-2.5-15.9-0.3c-2.5,1-4.8,2.7-7.2,4c-0.5,0.3-1.2,0.3-1.8,0.5c-0.1-0.1-0.3-0.3-0.4-0.4c-0.2-0.6,0-1.2,0.4-1.7l0,0
		c0.8-1.2,2-2,3-3l0,0c3.9-2.8,9-2.4,13-4.9c0.8-0.1,1.8-0.4,2.1,0.9C95.7,89.5,96.3,89.8,97,89z"/>
	<path fill="#F9C035" d="M27.1,141c0.8-2.4,1.7-4.7,2.7-7.5c4.6,5.4,8.8,10.5,13.3,15.7c-3.4,2-5.7,4.8-6.6,8.6
		c-0.1,0.5-0.9,0.8-1.4,1.2c-0.5-0.6-1.5-0.5-2.1-0.9l0,0c-0.8-0.9-2-1.4-3-2l0,0c-1-1.2-1.1-2.8-2-4l0,0
		C26.5,148.5,27.2,144.7,27.1,141z"/>
	<path fill="#F8F3CC" d="M105.9,190c6.8-3.4,9.9-9.8,12.7-16.3c1.9-4.4,3.9-8.8,5.1-13.3c1.1-4.3,3.3-7.8,5.3-11.6
		c1-1.8,2.4-2,4.1-1.7c-0.3,0.8-0.4,1.6-0.8,2.3c-3.3,6.2-5.3,13-7.4,19.7c-1.4,4.5-3.2,8.9-5.1,13.3c-0.8,1.8-2.2,3.3-3.4,4.8
		c-2.1,2.8-4.9,4.3-8.6,3.8c-0.6-0.1-1.3,0-2,0c-0.3-0.2-0.4-0.4-0.3-0.7C105.7,190.1,105.8,190,105.9,190z"/>
	<path fill="#F9EE99" d="M169,146c0.6-0.1,1.3-0.1,1.9-0.2c0.8,0.7,0.6,1.5,0.1,2.2c-0.2,0.3-0.5,0.7-0.7,1c-1.3,0.6-1.6,1.9-2.2,3
		l0,0c-0.5,0.2-0.8,0.5-1,1l0,0c-1.3,1-1.2,2.7-2.1,4l0,0c-0.8,0.4-0.6,1.4-1,2l0,0c-0.8,0.5-0.6,1.4-1,2l0,0c-0.8,0.5-0.6,1.4-1,2
		l0,0c-2.6,4.5-4.8,9.3-7,14l0,0c-0.8,0.5-1.5,1.2-2,2l0,0c-0.8,0.4-0.6,1.4-1.1,1.9l0,0c-0.6,0.5-1.6,0.3-1.9,1.1l0,0
		c-0.5,0.2-0.8,0.5-1,1l0,0c-0.6,0.3-0.9,0.7-1,1.3c-1.7,1.1-3.4,2.3-5.1,3.4c-0.6-0.6-0.6-1.2,0-1.7c0.3-0.4,0.6-0.8,0.9-1.2
		c0.4-0.3,0.9-0.5,1-1.1l0,0c6.1-8,7.8-17.8,11.2-26.9c1.5-3.8,2.9-7.8,6.9-10c0.3,0,0.7,0,1-0.1C165.8,147.5,167.5,147.2,169,146z"
		/>
	<path fill="#F9C035" d="M57,181c-1.6,1.6-2.4,1.6-4,0c0.3-0.2,0.4-0.4,0.2-0.6c-0.1-0.2-0.2-0.3-0.3-0.3l0,0
		c-0.8-0.9-1.9-1.3-2.7-2.1c-1-1.5-2.2-2.7-4.3-2c0,0,0,0,0,0c0.3-1.7,0.2-3.6,0.9-5.1c1.3-2.9,3.4-4.8,7-5.2
		C57,165.5,60,164,63,163c3.7,2-0.2,4.1,0,6.1l0,0c-1.1,0.7-0.2,2.2-1,3l0,0c-0.7,0.5-0.5,1.4-1,2l0,0c-0.7,0.5-0.6,1.4-1,2l0,0
		c-0.9,0.8-1.4,2-2,3l0,0c-0.4,0.2-0.8,0.6-1,1l0,0c-0.3,0.2-0.4,0.4-0.3,0.6C56.8,180.9,56.9,181,57,181z"/>
	<path fill="#F45A70" d="M161,128c2.7,1,4.8,2.6,6.1,5.2c1.6,3.2,0.4,5.5-3.1,5.6c-3.9,0.2-7.9,0-11.8,0c-0.5-0.2-0.8-0.5-1.2-0.8
		c-3.4-0.4-6.7-0.6-10.1-1.2c-0.7-0.1-1.6-1.2-1.8-2c-0.2-0.5,0.3-1.8,0.8-2.1c2.7-1.3,4.8-3.9,8.1-3.9
		C152.7,133.1,156,132.9,161,128z"/>
	<path fill="#E9B077" d="M127.1,142.8c-6.1,1.5-9.5,5.5-11.2,11.4c-2,6.7-4.2,13.4-7,19.9c-2.2,5-4.8,10-9.2,13.7
		c-0.7,0.6-1.7,0.8-2.5,1.3c6.5-9.7,10.1-20.7,13.9-31.5c1.1-3.2,2.1-6.5,3.7-9.5c1.2-2.3,3-4.3,5-6c2-1.8,4.7-0.7,7.2-0.8
		c0.4,0.1,0.6,0.3,0.7,0.7C127.5,142.2,127.4,142.6,127.1,142.8z"/>
	<path fill="#F8F3CC" d="M65.9,189c4.3,0.1,6.2-3.3,8-6.2c4-6.5,7.2-13.4,9.1-20.9c0.7-2.8,3.2-4.9,3.5-7.9c0.1-1.3,0.3-2.6,0.5-3.8
		c0.9-0.7,1.7-1.4,3.3-2.6c-1,3.5-1.6,6.2-2.4,8.8c-2.6,8.5-4.2,17.3-8.6,25.2c-2.1,3.8-4.7,7.2-8.4,9.6c-0.3-0.4-0.6-0.3-0.7,0.2
		l-0.1,0.1c-0.9,0.5-2.3-0.3-3,1c-2,0-4-0.2-5.3-2c-0.1-0.4-0.1-0.8,0.2-1.2c1,0,2.1,0,3.1,0C65.3,189.4,65.6,189.4,65.9,189z"/>
	<path fill="#F45A70" d="M75.1,138.8c2.5,0.1,3.4,2.4,5.2,4c-3.3,4.7-9,5.8-13.1,9.5c-1.9-1.8-3.4-3.6-5.3-4.8
		c-1.7-1.1-3.8-1.4-6-2.1c2.1-4,5.5-5.8,9.1-7.4c0.6-0.5,1.3-0.5,2-0.2c0.9,1.7-1.6,2.4-1,4.3C69.9,143.8,72.6,141.7,75.1,138.8z"/>
	<path fill="#F45A70" d="M55,148.1c3.8-0.2,6.4,1.9,9,4.4c-3.4,3.5-7.7,5-12,6.3c-3.2,0.9-6.7,1-10.1,1.1c-2.6,0.1-3.5-1.6-2.3-3.9
		c0.9-1.9,1.8-3.9,4.4-4.1C48.5,154.6,51.7,153.5,55,148.1z"/>
	<path fill="#87512D" d="M50.1,97c2.7,0.5,2.9,2.6,2.9,4.7c0.1,3.3,0,6.5,0.9,9.7c1.2,4.2,3.2,6,7.2,5.6c2.6-0.3,3.8-2.2,4.9-4.3
		c2.7-4.8,5.4-9.5,8.1-14.3c0.1-0.2,0.5-0.3,0.8-0.5c0.4,0.1,0.7,0.2,0.9,0.5c0,0.2,0.1,0.3,0.1,0.5c-0.5,1.3-0.9,2.7-1.6,4
		c-1,2-2.4,3.9-3.4,5.9c-1.3,2.6-1.7,5.6-3.9,7.8c-0.4,0.4,0,1.6,0,2.4l0,0c-1.4,0.3-3,0.3-4.1,1c-2.7,1.7-5.1,0.9-7.1-0.9
		c-1.9-1.7-3.6-3.3-4.1-6.4c-0.5-3.6-0.6-7.1-0.8-10.7C50.9,100.4,50.4,98.7,50.1,97z"/>
	<path fill="#F9C035" d="M184,90.9c-0.8,0-1.8,0.2-2.4-0.2c-4.7-2.3-9.5-3-14.6-1.7c-1.4-1.7-2.8-3.3-4.1-5c0.3-0.8,0.7-1.5,1.1-2.1
		l0,0c0.5-0.3,0.8-0.7,1-1.3c0-0.2,0-0.4,0-0.7c2.6-1.5,4.8,0.6,7.1,0.9l0,0c0.5,0.7,1.4,0.6,2,1l0,0c0.5,0.7,1.4,0.6,2,1l0,0
		c0.5,0.8,1.4,0.6,2,1l0,0c0.5,0.7,1.4,0.5,2,1l0,0c0.9,0.9,2,1.4,3,2.1c0.3,0.3,0.6,0.6,1,0.9C184.7,88.9,184.9,89.9,184,90.9z"/>
	<path fill="#F45A70" d="M150,117c3-3.5,4.3-4.2,9.5-4.7c-0.2,3.2-0.4,6.4-0.6,9.6c-0.2,0.4-0.5,0.8-0.8,1.1c-0.7,2-2.6,0.8-3.8,1.2
		c-2.5,0.9-5.1,1.2-8.3,1.9C146.6,122.4,146.9,119.1,150,117c0.6,0.4,0.8,1.4,1.9,1.2C151.5,117.1,150.3,117.8,150,117z"/>
	<path fill="#E9B077" d="M163,147c-3.9,5.4-6.6,11.2-8.2,17.8c-1.4,5.7-3.2,11.4-6.9,16.3c-0.8,1.1-2.1,1.9-3.1,2.8
		c1.1-2.9,2.1-5.8,3.2-8.7c3-7.9,6-15.9,9.2-23.7c0.8-2.1,1.9-4.3,4.7-4.6c0.4-0.1,0.7-0.2,1.1-0.1L163,147z"/>
	<path fill="#87512D" d="M134.9,84c3.8-2.2,8-4.1,12.3-2.8c2.1,0.6,4.1,0.7,6.2,0.8c4.8,0.1,6.1-1,7.6-5.6c0.2-0.5,0.7-0.9,1-1.4
		c0.3,0.5,1,1,0.9,1.4c-0.7,4.3-4.2,7.5-8.5,7.6c-4.1,0.1-8.3,0.2-12.4,0c-3.4-0.1-5.8,1.2-7.6,4c-0.2,0.4-0.7,0.6-1.5,1.3
		c0-1.7,0-3,0-4.2l0,0C133.5,84.5,133.8,83.4,134.9,84z"/>
	<path fill="#ED7961" d="M4,126c3.6,2.9,7.5,2.6,11.5,1.1c2.1-0.8,4.3-1.4,6.5-2.1c2.4-0.8,3.7,1.2,5.3,2.2c0.7,0.4,0.6,2,1,3.2
		c-2.6-0.5-4.9-1.3-7.1-1.3c-2.4,0-4.8,0.8-7.1,1.4c-3.8,1-7.2,0.9-9.6-2.7C4,127.4,4.1,126.6,4,126L4,126z"/>
	<path fill="#EFD54F" d="M139.1,186.1c0.2-0.8,0.2-1.6,0.6-2.3c4.4-8.1,6.9-17,10.4-25.6c1-2.5,2.4-4.9,3.5-7.3c0.6-1.4,1-3,1.5-4.5
		c0.6,0,1.2-0.1,1.7-0.1c-4.3,11.1-8.4,21.9-12.8,32.6C142.9,181.6,141.9,184.5,139.1,186.1z"/>
	<path fill="#ED7961" d="M161,128c-0.4,3.2-1.7,4.7-4.7,5c-1.5,0.1-3,0.1-4.5,0c-3.3-0.1-3.5-0.2-3.9-4.1
		C152.1,125.7,156.6,126.9,161,128z"/>
	<path fill="#ED7961" d="M172.8,94.8c-2.1,0.3-4.1,0.5-6.2,0.8c-1-3.7-0.5-4.6,3.1-4.7c2.4,0,4.9-0.3,7.2,0.9
		c1.4,0.7,3.1,0.9,4.7,1.1c1.6,0.2,3.3,0,5.1,0c-0.7,2.9-3.1,1.6-4.7,2.2c-1.4,0.4-2.7,0.5-4-0.1c-0.6,0-1.3-0.1-1.9-0.1
		C175,94.2,173.9,94.4,172.8,94.8z"/>
	<path fill="#F9EE99" d="M14.9,132.7c2.9-1.6,6-0.7,9-0.7c1.4,0,2.2,1.2,2.1,2.8c-0.1,2-0.4,3.8-1.9,5.3
		C19.5,139.9,15,136.3,14.9,132.7z"/>
	<path fill="#ED7961" d="M75.1,138.8c0.1,2.4-0.5,3.5-3.3,4.4c-3.3,1-5.9,1-8.7-0.7c0-2.7,2.9-2.8,3.9-4.5c0.1-0.6,0.7-0.7,1.1-0.9
		c1.2,0,2.5,0,3.7,0c0.4,0,0.6,0.3,0.6,0.6c0.3,0.6,0.4-0.2,0.7-0.1c0.4-0.1,0.7,0,0.9,0.3C74.4,138.3,74.7,138.6,75.1,138.8z"/>
	<path fill="#EFD54F" d="M98.1,182.1c0-1.6-0.2-3.1,0.8-4.7c3.5-5.4,4.8-11.7,7.1-17.6c1.2-3,1.4-6.4,4.1-8.7c0,0.8,0.2,1.7-0.1,2.5
		c-3,8.8-5.6,17.7-9.9,26C99.6,180.5,98.8,181.2,98.1,182.1z"/>
	<path fill="#87512D" d="M24,103c4.5,0.5,8.1-1,11.5-3.9c2.9-2.5,6.1-4.9,10.4-4.1c0.3,0.1,0.7,0.2,0.9,0.4c0.4,0.3,0.6,0.7,1.3,1.5
		c-4.1-0.1-7.5,0.7-10.5,3.1c-1.8,1.4-3.5,2.9-5.3,4.3c-1.6,1.2-3.3,2-5.4,1.9C24.9,105.9,23.9,105.1,24,103z"/>
	<path fill="#E9B077" d="M181.2,102.2c-0.7,2.2-1.4,4.3-2.3,6.8c-4.1-2.4-7.1-5.5-10.1-8.7c-0.7-0.7-1.4-1.6,0.2-2.2
		C173,99.6,177.3,100.3,181.2,102.2z"/>
	<path fill="#EFD54F" d="M76.1,196.7c0.9-0.2,1.7-0.5,2.6-0.7c2.8-0.6,5.9-0.9,7.9-3.2c1.6-1.9,4.8-1.7,5.5-4.8
		c0.5-2.2,3.6-3,4.2-5.5c0.1-0.3,1.1-0.3,1.8-0.4c-2.4,6.9-7.5,11.4-13.8,14.4C82,197.5,78.8,196.7,76.1,196.7z"/>
	<path fill="#ED7961" d="M55,148.1c1,2,0.4,3.5-1.4,4.7c-1.9,1.2-6.2,2.1-9.4,1.9c-0.1-0.9-0.1-1.8-0.2-2.8l0,0
		c2.4-1.9,5.6-2.1,8.1-3.7C53,148.2,54,148.2,55,148.1z"/>
	<path fill="#EFD54F" d="M178.1,133.1c1-1.5,1.2-3.2,2.5-4.8c2.5-2.9,0.5-6.6,0-10c-0.2-1.5-1-3-1.6-4.4c0.5,0.1,1.1,0,1.4,0.2
		c5.7,6.2,3.7,15.5-1.4,18.9C178.8,133.2,178.4,133.1,178.1,133.1z"/>
	<path fill="#F9EE99" d="M181.2,102.2c-0.5-0.1-1-0.2-1.5-0.2c-4.3,0.6-7.8-1-10.7-4c0.3-0.3,0.7-0.7,1-1c3.4,0,6.6,1.6,10,0.9
		c0.3,0,0.7,0,1,0.1c0.8,0.5,1.6,1,1.9,2c-0.3,0.4-0.5,0.7-0.8,1.1C181.7,101.3,181.2,101.6,181.2,102.2L181.2,102.2z"/>
	<path fill="#ED7961" d="M144.1,86.1c2.3,0,4.3,0,6.2,0c0.8,4,0.4,4.8-2.3,5C144.9,91.3,144.2,90.6,144.1,86.1z"/>
	<path fill="#F8F3CC" d="M14.9,132.7c0.2,0.8,0.3,2.1,0.7,2.2c3,1,5,3.5,7.6,5c0.3,0.1,0.7,0.1,1,0.1c0,0.3-0.1,0.6-0.2,0.9
		c-1,0.6-2,0.8-2.9-0.1c-2.1-1.2-4.3-2.4-6.2-3.7c-1.5-1-2.7-2.3-4.4-3.9C12.3,133,13.6,132.9,14.9,132.7z"/>
	<path fill="#F8F3CC" d="M155.1,177.1c-0.3-2,0-3.7,1.5-5.4c1.5-1.8,2.2-4.3,3.4-6.3c0.5-0.9,1.4-1.5,2.1-2.2
		C161,168.3,158.9,173.2,155.1,177.1z"/>
	<path fill="#ED7961" d="M102.5,96.1c2.2,2.3,3.7,3.7,5.1,5.3c0.3,0.4,0.4,1.3,0.2,1.8c-0.2,0.4-1,0.7-1.6,0.7
		c-2.1,0.1-3.8-1.3-4.1-3.3c-0.1-0.5-0.1-1,0-1.5C102.1,98.5,102.2,97.9,102.5,96.1z"/>
	<path fill="#ED7961" d="M93.3,136c-1.3,2.2-3.4,2.8-5.7,3c-1.2-2-0.9-3.5,0.7-5c1.6-1.4,3.1-1.6,4.7-0.1
		C93.6,134.6,93.5,135.3,93.3,136z"/>
	<path fill="#ED7961" d="M63.2,136.1c-2.1,1.3-4,2.4-5.8,3.5c-0.7-1.5-2.5-3.2-0.4-5C58.5,133.2,60.7,133.8,63.2,136.1z"/>
	<path fill="#EFD54F" d="M118.9,188.8c0.6,0.4,1.2,1.2,1.7,1.1c4.3-0.2,8.7,0.8,13-0.9c0.7-0.3,1.6,0,2.4,0
		c-0.5,1.5-1.7,1.9-3.1,1.9c-1,0.1-2,0.2-3,0.3c-2,0.5-4.2-0.2-6.2,0.5c-0.9,0-1.7,0-2.6,0c-1-0.5-2.2-0.1-3.2-0.6
		c-0.3-0.1-0.7-0.1-1-0.2c-0.2-0.2-0.3-0.4-0.2-0.7c0.1-0.2,0.2-0.3,0.2-0.3C117.6,189.6,118.3,189.2,118.9,188.8z"/>
	<path fill="#ED7961" d="M146,116.1c-0.2-0.3-0.8-0.7-0.9-1.2c-0.6-2.6,2-5.2,4.8-4.7c0.4,0.1,1.1,0.8,1.1,1.3
		C151.1,112.8,147.8,116,146,116.1z"/>
	<path fill="#EFD54F" d="M27.1,141c0.3,0.6,0.8,1.3,0.9,1.9c0.1,3.1,0,6.1-0.1,9.2C25,148.6,25.5,144.8,27.1,141z"/>
	<path fill="#AEC7D5" d="M157,90c-1.2-0.3-2.5-0.7-3.7-1l-0.3,0.1c-0.3-0.4-0.3-0.8-0.1-1.2c0.3-0.5,1,0.1,1.3-0.5
		c-0.3,0.1-0.6,0.1-0.9,0c-0.1-0.1-0.3-0.2-0.4-0.4c1.9-1,5.6-1.6,7.2-1.2C160.7,88.4,158,88.6,157,90L157,90z"/>
	<path fill="#EFD54F" d="M179.1,113.9c-3.7-2.6-7.7-4.9-10-9C172.8,107.4,177.2,109.3,179.1,113.9z"/>
	<path fill="#892327" d="M146,143c2.3,0.3,4.7,0.7,7,1c0,0.7,0,1.3,0,2c-2.3-0.4-4.7-0.7-7-1.1C146,144.3,146,143.6,146,143z"/>
	<path fill="#D3B988" d="M180,98c-0.1,0.3-0.3,0.8-0.5,0.8c-2.4,0.5-6.7-0.3-9.5-1.7l0-0.2c1-0.4,2-0.3,3.1-0.2
		C175.4,97,177.7,97.5,180,98z"/>
	<path fill="#EFD54F" d="M63.1,169.1c0.2-1.1,0.3-2.2,0.6-3.3c0.3-1.1,1-2.2-0.6-2.8c0.8-0.6,1.7-1.2,3.2-2.3
		C65.3,164.2,65.1,166.9,63.1,169.1z"/>
	<path fill="#F45A70" d="M52,148.2c-0.1,0.5-0.1,1.3-0.3,1.4c-2.6,0.9-5.2,1.6-7.8,2.4C45.8,149,49,148.8,52,148.2z"/>
	<path fill="#D3B988" d="M44.8,169.9c-0.2,1.5-1.4,1.3-2.1,0.8c-1.1-0.8-2-1.9-3.7-3.6c2,0,3,0,4,0
		C43.8,167.9,44.8,168.6,44.8,169.9z"/>
	<path fill="#892327" d="M76,17c0.1,1.4-0.3,3,1.9,3.3c-1.3,2.6-3.5,1.5-5.5,1.1c0.7-0.2,1.4-0.4,2.5-0.8c0-1.1,0-2.3,0-3.5
		C75.2,17.1,75.6,17,76,17z"/>
	<path fill="#EFD54F" d="M172.1,80.9c-2.4-0.3-4.8-0.6-7.1-0.9c0.4-0.6,1-1.8,1.1-1.8C168.1,79.1,170.1,80,172.1,80.9z"/>
	<path fill="#D3B988" d="M96.8,189.8c0.7,0.7,1.5,1.5,2.2,2.2c0.6,0.5,0.5,0.7-0.2,0.8c-1.6,0.2-3.1,0.4-4.7,0.5
		c-0.1-0.1-0.2-0.3-0.4-0.4C94.7,191.9,95.8,190.8,96.8,189.8z"/>
	<path fill="#892327" d="M39,164.2c3,0,6,0,9-0.1C44.9,165.3,42.4,165.3,39,164.2z"/>
	<path fill="#D3B988" d="M169,146c-0.3,0.7-0.7,1.9-0.9,1.9c-1.4-0.3-3.2,1.2-4.1-0.9C165.7,146.6,167.3,146.3,169,146z"/>
	<path fill="#E9B077" d="M44.8,169.9c-1.2-0.5-1.9-1.4-1.8-2.8c1,0.2,2.3,0.1,2.9,0.7C46.3,168.3,46.1,169.7,44.8,169.9z"/>
	<path fill="#EFD54F" d="M113.1,145.1c0.2-1.7-0.5-3-2-3.8c1.1-0.1,2.3-0.2,4.1-0.4C114.3,142.5,113.7,143.8,113.1,145.1z"/>
	<path fill="#F8F3CC" d="M165.1,157.1c-0.2-1.8-0.3-3.5,2.1-4C167.3,154.9,166.7,156.2,165.1,157.1z"/>
	<path fill="#EFD54F" d="M111.1,149.1c-0.2-1.8-0.3-3.5,2-4C113.1,146.7,112.9,148.3,111.1,149.1z"/>
	<path fill="#EFD54F" d="M170.8,136.1c1.8-0.3,3.5-0.7,5.3-1c-1.2,0.6-2.3,1.4-3.5,1.9C172.1,137.1,171.4,136.4,170.8,136.1z"/>
	<path fill="#87512D" d="M123.8,191.8c2-1.5,4.1-0.6,6.2-0.5C128.1,192.8,125.9,191.7,123.8,191.8z"/>
	<path fill="#EFD54F" d="M27.9,152.1c1.3,1,2.3,2.2,2,4C28.1,155.3,27.7,153.9,27.9,152.1z"/>
	<path fill="#F8F3CC" d="M168.1,152.1c-0.1-2.9-0.1-2.9,2.2-3C169.6,150.1,168.8,151.1,168.1,152.1z"/>
	<path fill="#A97E52" d="M37.9,54.9c0-1.7,0.2-3.2,2-4l0.3,0.3c0.6,2,0.2,3.4-2,4L37.9,54.9z"/>
	<path fill="#87512D" d="M162.8,103c-0.1,1.7,1,3.6-0.7,5.2C162.3,106.4,161.2,104.5,162.8,103z"/>
	<path fill="#EFD54F" d="M184,90.9c0-1,0-2,0-3.1c0.6,0.8,1.1,1.7,1.7,2.5C185.2,90.6,184.6,90.8,184,90.9z"/>
	<path fill="#892327" d="M155,144.1c1.7,0,3.4,0.1,5,0.1C158.3,145.4,156.6,145.6,155,144.1z"/>
	<path fill="#736B6F" d="M65.9,135.4c1.8-0.5,3.6-0.9,5.4,0.2C69.5,135.5,67.7,135.5,65.9,135.4z"/>
	<path fill="#892327" d="M162,140.9c-1.7,0-3.3,0-5,0C158.7,139.5,160.3,139.5,162,140.9z"/>
	<path fill="#EFD54F" d="M93.9,147.9c0,1.7-0.5,3.1-2,4C92,150.3,92,148.7,93.9,147.9z"/>
	<path fill="#736B6F" d="M120,132.9c1.4,0.2,2.9,0.5,4.3,0.7C122.8,133.8,121.2,134.9,120,132.9z"/>
	<path fill="#F8F3CC" d="M134,146.1c0-1,0-2,0-3c1.2-0.1,2.4-0.1,1.2,1.6C134.8,145.2,134.4,145.6,134,146.1z"/>
	<path fill="#EFD54F" d="M29.9,156.1c1.6-0.2,2.6,0.4,3,2C31.4,158.2,30.5,157.4,29.9,156.1z"/>
	<path fill="#EFD54F" d="M183.1,87c-1.6,0.2-2.6-0.5-3-2.1C181.1,85.6,182.1,86.3,183.1,87z"/>
	<path fill="#EFD54F" d="M58.1,179.1c-0.3-1.6,0.4-2.6,2-3C60.2,177.6,59.5,178.6,58.1,179.1z"/>
	<path fill="#F8F3CC" d="M153.2,179.1c-0.5-1.7,0.2-2.4,2-2C155,178.3,154.6,179.2,153.2,179.1z"/>
	<path fill="#EFD54F" d="M50.2,178c1.5-0.1,2.5,0.5,2.7,2.1C51.4,180.2,50.6,179.3,50.2,178z"/>
	<path fill="#892327" d="M178,95.1c1.3,0,2.7,0.1,4,0.1C180.2,96.3,179.6,96.3,178,95.1z"/>
	<path fill="#D3B988" d="M182.9,100c-0.6-0.7-1.3-1.3-1.9-2c0.7-0.1,1.3-0.2,2-0.3c0.4-0.1,0.7,0,1,0.2
		C183.6,98.7,183.3,99.3,182.9,100z"/>
	<path fill="#D3B988" d="M105.9,190c0,0.3,0,0.7,0,1c-1.2,0.1-2.5,0.2-3.7,0.3c0.3-0.4,0.5-1.2,0.8-1.3C104,189.9,105,190,105.9,190
		z"/>
	<path fill="#736B6F" d="M99.8,98c0.3,0,0.6-0.1,0.9-0.3c0,1.2,0,2.4,0,3.6C100.3,100.2,100,99.1,99.8,98z"/>
	<path fill="#892327" d="M126,135.9c-1.1-0.1-2.4,0.7-3.1-0.8C124,135.3,125.4,134.2,126,135.9z"/>
	<path fill="#736B6F" d="M87,132c0.6-1.6,1.9-0.9,3-0.9C89.4,132.6,88,131.8,87,132z"/>
	<path fill="#892327" d="M68.1,137.1c-0.4,0.3-0.7,0.6-1.1,0.9c-0.7,0-1.3,0-2,0C65.6,136.1,67.1,137.3,68.1,137.1z"/>
	<path fill="#87512D" d="M173,96.6c-1,0.1-2,0.1-3.1,0.2C170.9,95.5,171.9,95.7,173,96.6z"/>
	<path fill="#AEC7D5" d="M67.1,192.2c0.4-2.2,1.9-0.9,3-1C69.1,191.6,68.1,191.9,67.1,192.2z"/>
	<path fill="#EFD54F" d="M137.1,188.1c0.7-0.7,1.3-1.3,2-2C139.1,187.4,138.5,188.2,137.1,188.1z"/>
	<path fill="#892327" d="M172.8,94.8c1.1-1.4,2.2-1.5,3.2,0.1C175,94.9,173.9,94.9,172.8,94.8z"/>
	<path fill="#E9B077" d="M37,162.1c0,0.6,0,1.2,0,1.7c-0.6-0.3-1.3-0.6-1.9-0.9c-0.3-0.2-0.4-0.4-0.3-0.6c0.1-0.2,0.2-0.3,0.3-0.3
		C35.7,162,36.3,162.1,37,162.1z"/>
	<path fill="#A97E52" d="M127.1,142.8c-0.1-0.3-0.1-0.6,0-0.9c0.6-0.5,1.3-0.5,2-0.1c0.3,0.1,0.7,0.2,1,0.2
		C129.1,142.4,128.1,142.6,127.1,142.8z"/>
	<path fill="#892327" d="M165,144.1c1-0.1,2-0.1,3-0.2C167.1,145.7,166.1,145.5,165,144.1z"/>
	<path fill="#A97E52" d="M57.8,183.9c0,1.1,0.1,2.1,0.1,3.2C56.3,186.1,56.2,185,57.8,183.9z"/>
	<path fill="#EFD54F" d="M164,81.9c0,0.9,0.3,1.9-1.1,2.1C161.5,82.5,163.4,82.5,164,81.9z"/>
	<path fill="#EFD54F" d="M62.1,172.1c0.3-1-1-2.6,1-3C62.9,170.1,63.6,171.5,62.1,172.1z"/>
	<path fill="#87512D" d="M21.1,140.9c1,0,2,0.1,2.9,0.1C22.8,142.4,22,142.4,21.1,140.9z"/>
	<path fill="#87512D" d="M118,191.2c1.1-0.1,2.4-0.7,3.2,0.6C120.1,191.8,118.8,192.7,118,191.2z"/>
	<path fill="#EFD54F" d="M168.1,103.9c-1.6-0.1-1-1.2-1.1-2C167.4,102.5,167.8,103.2,168.1,103.9z"/>
	<path fill="#892327" d="M184,132c-0.1,0.6-0.3,1.2-0.4,1.7c-0.2-0.2-0.6-0.4-0.6-0.4C183.3,132.8,183.7,132.4,184,132
		C184,132,184,132,184,132z"/>
	<path fill="#EFD54F" d="M61.1,174.1c0-0.9-0.5-1.9,1-2C61.7,172.7,61.4,173.4,61.1,174.1z"/>
	<path fill="#892327" d="M74,138c-0.3,0-0.7,0.1-1,0.1c-0.4,0.3-0.7,0.2-1-0.1c0-0.3-0.1-0.6-0.2-0.9C72.7,137.1,73.7,136.6,74,138z
		"/>
	<path fill="#ED7961" d="M181,137c-0.6,0.4-1.2,0.8-1.7,1.2c-0.1-0.2-0.3-0.3-0.5-0.5c0.3-0.3,0.7-0.6,1-0.8
		C180.2,136.6,180.6,136.6,181,137z"/>
	<path fill="#EFD54F" d="M60.1,176.1c0-0.8-0.5-1.9,1-2C60.8,174.7,60.4,175.4,60.1,176.1z"/>
	<path fill="#F8F3CC" d="M152,181.1c0.1-0.8-0.5-2,1.1-1.9C152.8,179.8,152.4,180.4,152,181.1z"/>
	<path fill="#F8F3CC" d="M150.1,182.1c-0.1-1.6,1.1-1.1,1.9-1.1C151.4,181.4,150.8,181.8,150.1,182.1z"/>
	<path fill="#892327" d="M122,139.1c0.7,0.3,1.5,0.5,2.2,0.8C123.3,139.9,122.3,140.4,122,139.1z"/>
	<path fill="#F8F3CC" d="M143,186.1c0,0.6,0,1.1,0,1.7c-0.3,0.1-0.7,0.1-1,0.2l0,0C142.4,187.4,142.7,186.7,143,186.1z"/>
	<path fill="#D3B988" d="M58,187c0.8,0.1,2-0.5,1.7,1.2C59.2,187.8,58.6,187.4,58,187z"/>
	<path fill="#892327" d="M153,140.7c-0.7-0.2-1.4-0.5-2.1-0.7C151.6,140.3,152.3,140.5,153,140.7z"/>
	<path fill="#892327" d="M93.3,136c-0.1-0.7-0.2-1.3-0.3-2C94.4,134.5,94.5,135.2,93.3,136z"/>
	<path fill="#87512D" d="M98.8,192.8c0.1-0.2,0.2-0.5,0.2-0.8c0.7,0,1.3,0,2,0C100.6,193.4,99.6,192.9,98.8,192.8z"/>
	<path fill="#AEC7D5" d="M81.9,141c0.7,0.1,1.5,0.2,2.2,0.4C83.2,142.6,82.4,142.7,81.9,141z"/>
	<path fill="#87512D" d="M129.1,141.9c-0.7,0-1.3,0-2,0.1c-0.1-0.3-0.2-0.5-0.3-0.8C127.6,141.4,128.3,141.6,129.1,141.9z"/>
	<path fill="#EFD54F" d="M95,146.2c-0.4,0.6-0.7,1.2-1.1,1.8C94.3,147.4,94.6,146.8,95,146.2z"/>
	<path fill="#EFD54F" d="M180.1,84.9c-0.8,0-1.9,0.4-2-1C178.7,84.3,179.4,84.6,180.1,84.9z"/>
	<path fill="#F8F3CC" d="M171,148.1c0-0.7,0-1.5-0.1-2.2c0.3,0.1,0.5,0.1,0.8-0.1c0.2,0.2,0.3,0.3,0.5,0.5
		C171.8,146.8,171.4,147.4,171,148.1z"/>
	<path fill="#EFD54F" d="M178.1,83.9c-0.8,0-1.9,0.5-2-1C176.7,83.2,177.4,83.6,178.1,83.9z"/>
	<path fill="#EFD54F" d="M176.1,82.9c-0.9,0-1.9,0.5-2-1C174.7,82.2,175.4,82.6,176.1,82.9z"/>
	<path fill="#EFD54F" d="M174.1,81.9c-0.9,0-1.9,0.5-2-1C172.7,81.2,173.4,81.6,174.1,81.9z"/>
	<path fill="#EFD54F" d="M110.1,151.1c-0.1-0.9-0.5-1.9,1-2C110.8,149.7,110.4,150.4,110.1,151.1z"/>
	<path fill="#736B6F" d="M153.3,87.9c-0.1,0.4-0.2,0.8-0.3,1.2c-1.1-0.6-1.4-1.3-0.1-2l0.4,0l0.2,0.4L153.3,87.9z"/>
	<path fill="#736B6F" d="M144.1,124c0.2-0.8,0.4-1.5,0.6-2.3C144.9,122.6,145.4,123.5,144.1,124z"/>
	<path fill="#F8F3CC" d="M164.1,159.1c0-0.9-0.5-2,1-2C164.8,157.7,164.4,158.4,164.1,159.1z"/>
	<path fill="#EFD54F" d="M32.9,158.1c0.9-0.1,1.9-0.4,2.1,0.9C34.3,158.7,33.6,158.4,32.9,158.1z"/>
	<path fill="#F8F3CC" d="M163.1,161.1c0-0.9-0.5-2,1-2C163.8,159.7,163.4,160.4,163.1,161.1z"/>
	<path fill="#87512D" d="M115,25c-0.7-0.3-1.4-0.6-2-0.9C113.8,24,114.8,23.7,115,25z"/>
	<path fill="#F8F3CC" d="M162.1,163.1c-0.1-0.9-0.5-2,1-2C162.8,161.7,162.4,162.4,162.1,163.1z"/>
	<path fill="#E9B077" d="M180.9,136c0.1-0.3,0.3-0.5,0.4-0.8c0.2,0.2,0.3,0.3,0.5,0.5c-0.3,0.1-0.5,0.3-0.8,0.4L180.9,136z"/>
	<path fill="#E9B077" d="M181,137c-0.4,0-0.8,0-1.2-0.1c0.4-0.3,0.8-0.6,1.2-1l0.1,0.1C181.2,136.4,181.1,136.7,181,137z"/>
	<path fill="#E9B077" d="M181.2,102.1c0.3-0.4,0.6-0.7,1-1.1C181.8,101.4,181.5,101.8,181.2,102.1z"/>
	<path fill="#892327" d="M151,138.1c0.4,0.3,0.8,0.5,1.2,0.8C151.8,138.6,151.4,138.3,151,138.1z"/>
	<path fill="#ED7961" d="M4,126c-0.3-0.1-0.5-0.3-0.8-0.4C3.5,125.7,3.7,125.9,4,126C4,126,4,126,4,126z"/>
	<path fill="#892327" d="M144,139.7c-0.3-0.2-0.7-0.5-1-0.7C143.3,139.2,143.7,139.5,144,139.7z"/>
	<path fill="#AEC7D5" d="M84.4,141.1c0.2-0.4,0.4-0.8,0.6-1.1C84.8,140.4,84.6,140.8,84.4,141.1z"/>
	<path fill="#87512D" d="M77,98c-0.3,0.3-0.7,0.7-1,1l0-0.1C75.7,98,76.1,97.7,77,98L77,98z"/>
	<path fill="#87512D" d="M184,98c-0.3-0.1-0.7-0.2-1-0.2C183.6,96.7,183.8,97.1,184,98z"/>
	<path fill="#F8F3CC" d="M133.1,147.1c0.3-0.4,0.6-0.7,1-1.1C133.7,146.4,133.4,146.7,133.1,147.1z"/>
	<path fill="#F8F3CC" d="M167.1,153.1c0.3-0.3,0.7-0.7,1-1C167.8,152.4,167.5,152.8,167.1,153.1z"/>
	<path fill="#F8F3CC" d="M171.7,145.7c0.4-0.2,0.7-0.3,1.1-0.5c-0.2,0.3-0.4,0.6-0.6,1C172,146,171.9,145.9,171.7,145.7z"/>
	<path fill="#ED7961" d="M35,162c0,0.3,0,0.6,0,0.9c-0.3-0.3-0.7-0.6-1-0.9l0,0C34.3,162,34.7,162,35,162z"/>
	<path fill="#EFD54F" d="M57.1,180.1c0.3-0.3,0.7-0.7,1-1C57.8,179.4,57.4,179.7,57.1,180.1z"/>
	<path fill="#EFD54F" d="M52.9,180.1c0.3,0.1,0.5,0.1,0.8,0.2c-0.3,0.2-0.5,0.5-0.8,0.7C52.9,180.7,52.8,180.4,52.9,180.1z"/>
	<path fill="#EFD54F" d="M57,181c-0.3-0.1-0.5-0.3-0.8-0.4c0.3-0.2,0.6-0.4,0.9-0.5C57.2,180.4,57.1,180.7,57,181z"/>
	<path fill="#EFD54F" d="M177.1,134.1c0.3-0.3,0.7-0.7,1-1C177.7,133.4,177.4,133.8,177.1,134.1z"/>
	<path fill="#F8F3CC" d="M149.1,183.1c0.3-0.3,0.7-0.7,1-1C149.8,182.5,149.4,182.8,149.1,183.1z"/>
	<path fill="#F8F3CC" d="M148.1,184.4c0.3-0.4,0.7-0.9,1-1.3C148.8,183.5,148.4,184,148.1,184.4z"/>
	<path fill="#E9B077" d="M144.8,183.9c-0.3,0.4-0.6,0.7-1,1.1C144.2,184.6,144.5,184.2,144.8,183.9z"/>
	<path fill="#892327" d="M158.1,123c0.3-0.4,0.6-0.8,0.8-1.1C158.6,122.3,158.3,122.6,158.1,123z"/>
	<path fill="#892327" d="M184,132c0.1-0.2,0.3-0.5,0.4-0.7c0.1,0.1,0.3,0.3,0.4,0.4C184.5,131.8,184.3,131.9,184,132L184,132z"/>
	<path fill="#EFD54F" d="M164.9,80.7c-0.3,0.4-0.6,0.8-1,1.3C164.3,81.5,164.6,81.1,164.9,80.7z"/>
	<path fill="#D3B988" d="M59.9,188.3c0.3,0.3,0.6,0.6,0.9,0.9C60.5,188.8,60.2,188.6,59.9,188.3z"/>
	<path fill="#EFD54F" d="M136.1,189.1c0.3-0.3,0.7-0.7,1-1C136.7,188.4,136.4,188.8,136.1,189.1z"/>
	<path fill="#F8F3CC" d="M142,188c-0.1,0.3-0.3,0.5-0.4,0.8c-0.1-0.2-0.2-0.3-0.4-0.5C141.5,188.2,141.8,188.1,142,188
		C142,188,142,188,142,188z"/>
	<path fill="#D3B988" d="M61.9,189c-0.1,0.4-0.1,0.8-0.2,1.2c-0.3-0.3-0.6-0.7-0.9-1C61.2,189.2,61.6,189.1,61.9,189z"/>
	<path fill="#EFD54F" d="M169.1,104.9c-0.3-0.3-0.7-0.7-1-1C168.4,104.2,168.8,104.6,169.1,104.9z"/>
	<path fill="#AEC7D5" d="M70.3,191.2c0.1-0.3,0.2-0.6,0.3-0.9c0.1,0.3,0.3,0.5,0.4,0.8C70.7,191.1,70.5,191.1,70.3,191.2z"/>
	<path fill="#87512D" d="M117,190c0,0.3,0,0.7,0,1c-0.2-0.1-0.5-0.2-0.7-0.3C116.5,190.4,116.7,190.2,117,190z"/>
	<path fill="#A97E52" d="M133.1,142.8c-0.4-0.2-0.9-0.3-1.3-0.5C132.3,142.4,132.7,142.6,133.1,142.8z"/>
	<path fill="#87512D" d="M164.1,97.7c-0.3,0.1-0.6,0.3-0.9,0.4c0.1-0.3,0.3-0.7,0.4-1C163.7,97.4,163.9,97.6,164.1,97.7z"/>
	<path fill="#87512D" d="M163.1,146.8c-0.4,0-0.7,0-1.1,0.1C162.3,146,162.6,145.8,163.1,146.8z"/>
	<path fill="#ED7961" d="M34,162c-0.3-0.1-0.5-0.2-0.8-0.4c0.1-0.1,0.3-0.3,0.4-0.4C33.8,161.5,33.9,161.8,34,162L34,162z"/>
	<path fill="#A97E52" d="M94.1,193.3c-0.2,0.2-0.4,0.4-0.6,0.6c0.1-0.3,0.2-0.6,0.3-1C94,192.9,94.1,193.1,94.1,193.3z"/>
	<path fill="#EFD54F" d="M73,196c0.3,0.2,0.6,0.3,0.9,0.5C73.6,196.4,73.3,196.2,73,196z"/>
	<path fill="#EFD54F" d="M176,135.1c0.3-0.3,0.7-0.7,1-1C176.7,134.4,176.4,134.7,176,135.1z"/>
	<path fill="#D3B988" d="M101.3,82c-3.3-1.1-4.9-3-5.4-6.4c-0.5-3.3-2.1-6.4-3.3-9.5c-0.6-1.7-1.3-3.3-1.9-4.9
		c-1.6-4.4-0.8-7.8,5.2-9.3c6.1-1.5,11.1-4.3,13.2-10.9c2.1-6.3,6.3-7.6,12-4.5c4.3,2.4,6.9,6.5,9.9,10.1c2,2.5,3.3,5.6,5.5,8
		c3.1,3.3,6.6,6.4,10.3,9.2c3,2.3,6,4.6,7.7,8.1c0.4,0.8,0.4,2.4-0.1,3c-0.6,0.7-2,1-3.1,0.9c-1.1-0.1-2.1-0.7-3.1-1.3
		c-3.3-2.1-6.8-2.1-10.3-0.9c-1.5,0.5-2.8,0.5-4.2-0.4c-1.4-0.8-3-1.2-4.5-1.7c-4.4-1.4-7.5,1-7.1,5.5c0.1,1.3,0.7,2.5,1,3.7
		c1,3.9,2.1,7.8,2.8,11.7c0.4,2.4,0.3,5-0.2,7.3c-0.5,2.5-2.9,3-4.8,1.3c-0.7-0.6-1.2-1.5-1.7-2.3c-2-3.4-3-7.1-3-11.1
		c0-1.5,0.1-3-0.4-4.4c-1.7-5-5.8-6.5-10.4-3.8C103.8,80.2,102.5,81.2,101.3,82z"/>
	<path fill="#D3B988" d="M58.4,73.2c-2.7-0.9-4.9,0.1-6.4,2.3c-2.2,3.4-4.8,6.2-8.2,8.3c-1,0.6-1.5,2.1-2.3,3.1
		c-0.7,0.9-1.5,1.8-2.5,2.5c-1.6,1.3-4,0.5-4-1.6c0.1-2.5,0.4-5.2,1.4-7.6c1.9-4.7,2.6-9.6,3.6-14.5c1.2-5.3,2.6-10.8,7.2-14.5
		c4-3.3,7.3-3.1,10-0.2c3.7,4,8.5,4.6,13.3,4.9c5.8,0.3,6.2,0.9,4.5,6.9c-1,3.6-1.4,7.3-2.1,10.9c-1,4.9-1.8,9.8-3,14.6
		c-0.7,2.9-2,3.6-4.4,3.7c-1.7,0.1-2.8-0.4-3.6-2c-1.3-2.5-2.2-5-2.1-7.9C60,79.1,60.8,75.8,58.4,73.2z"/>
	<path fill="#D3B988" d="M81.3,61.2c1.1,2,2.2,3.3,2.6,4.7c1.3,4.6,1.2,9.4,1.1,14.1c-0.1,2.3-2,4-4.2,3.9c-1.9-0.1-3.7-1.8-3.8-3.7
		C76.8,73.9,76.7,67.6,81.3,61.2z"/>
	<path fill="#D3B988" d="M59,100.2c-0.4-2,0.4-3.9,2.5-5c1.3-0.7,2.7-0.4,4,0.7c2.1,1.7,1.9,4.1,1.3,5.9c-0.5,1.6-2.3,3.2-3.9,4.1
		c-1.9,1.1-3.7-0.4-3.9-2.8C58.9,102.3,59,101.4,59,100.2z"/>
	<path fill="#61171B" d="M92.9,88.1c0,0.5,0,1.4-0.1,1.4c-4.3,1.2-8.5,2.3-12.8,3.5c1.5-3.1,4.8-2.8,7.4-3.9
		C89,88.4,91,88.4,92.9,88.1z"/>
	<path fill="#61171B" d="M38.1,55.1c0.7-1.3,1.3-2.6,2-4c0.6-0.1,1.2-0.1,1.8-0.2l0.2,0.1c-1,3.2-2.4,6.1-3.7,9.1
		c-0.3-0.1-0.7-0.2-1-0.3C37.6,58.3,37.9,56.7,38.1,55.1z"/>
	<path fill="#61171B" d="M121,32c-3.1,0.1-5.3-1.9-8.1-3.4C116,28.1,118,29,121,32L121,32z"/>
	<path fill="#61171B" d="M80,93c0.4,2.4-1.9,2.1-3,3C77,94,78,93,80,93z"/>
	<path fill="#61171B" d="M134.9,84c-0.6,0.3-1.3,0.7-1.9,1c0.4-1,0.8-1.9,1.2-2.9c0.3,0.1,0.6,0.2,0.8,0.3
		C134.9,82.9,134.9,83.4,134.9,84z"/>
	<path fill="#61171B" d="M121,32c0.7,0.3,1.3,0.7,2,1c0.3,0.2,0.4,0.5,0.3,0.7c-0.1,0.2-0.2,0.4-0.3,0.4
		C121.6,34.1,120.8,33.6,121,32L121,32z"/>
	<path fill="#87512D" d="M128.4,39.8c-0.5-0.7-1-1.4-1.5-2.2c0.2-0.2,0.5-0.3,0.7-0.5c0.5,0.7,1,1.4,1.5,2.2
		C128.9,39.5,128.6,39.7,128.4,39.8z"/>
	<path fill="#61171B" d="M77,98c-0.3,0.3-0.7,0.7-1,1c-0.3-0.3-0.7-0.7-1-1c0.7-0.7,1.3-1.4,2-2C77,96.6,77,97.3,77,98z"/>
	<path fill="#87512D" d="M52.1,42.3c-0.5,0.2-0.9,0.5-1.4,0.7c-0.1,0-0.5-0.5-0.4-0.5c0.4-0.4,0.9-0.8,1.3-1.2
		C51.7,41.4,51.8,41.7,52.1,42.3z"/>
	<path fill="#87512D" d="M109.2,27.2c0.8,0,1.7,0,2.5,0c0,0.2,0,0.3,0,0.5c-0.8,0-1.7,0-2.5,0C109.2,27.5,109.2,27.4,109.2,27.2z"/>
	<path fill="#61171B" d="M97,89c-0.1,0.6-0.1,1.2-0.3,2.4c-0.8-1.1-1.2-1.8-1.7-2.4C95.7,89,96.3,89,97,89z"/>
	<path fill="#61171B" d="M43.1,49.1c-0.3,0.7-0.7,1.3-1,2l-0.2-0.1c0.3-0.7,0.7-1.3,1-2C42.9,48.9,43.1,49.1,43.1,49.1z"/>
	<path fill="#87512D" d="M123,34.1c0-0.4,0-0.7,0-1.1c0.3,0.7,0.7,1.3,1,2l0,0.1C123.7,34.7,123.3,34.4,123,34.1z"/>
	<path fill="#61171B" d="M44,48c0.1-0.3,0.3-0.5,0.4-0.8c0.2,0.2,0.3,0.3,0.5,0.5C44.6,47.8,44.3,47.9,44,48L44,48z"/>
	<path fill="#61171B" d="M42.9,48.9c0.3-0.3,0.7-0.7,1-1l0.1,0.1c-0.3,0.3-0.7,0.7-1,1C43.1,49.1,42.9,48.9,42.9,48.9z"/>
	<path fill="#87512D" d="M124,35c0.3,0.1,0.5,0.3,0.8,0.4c-0.1,0.1-0.3,0.3-0.4,0.4C124.2,35.5,124.1,35.3,124,35L124,35z"/>
	<path fill="#61171B" d="M44.1,122.4c0,3.5-2.2,5.6-5.7,5.5c-3.1,0-5.6-2.6-5.6-5.8c0-3.5,2.5-6,6-5.9
		C41.6,116.3,44.2,119.3,44.1,122.4z"/>
	<path fill="#61171B" d="M85.1,121.9c-0.1-0.5-0.2-1.1-0.4-1.6c-0.1-1.5-0.5-3,0.2-4.4c3.4-4,6.5-4.3,10.1-1c1,1.2,0,2.9,0.9,4.1
		c-1.8,4.6-2.7,5.1-8.6,4.7C86.1,123.7,85.6,122.8,85.1,121.9z"/>
	<path fill="#736B6F" d="M75,114c0.3-0.3,0.7-0.6,1-0.9c1.2,4.9,1.8,9.9,2.2,14.9c-0.4,0.3-0.8,0.3-1.1,0
		C75.6,123.4,74.6,118.8,75,114z"/>
	<path fill="#AEC7D5" d="M103.6,120.1c-0.9-3.2-1.9-6.5-3.1-10.7c3.9,2.9,3.3,6.6,4.5,9.5C104.6,119.4,104.5,120.2,103.6,120.1z"/>
	<path fill="#736B6F" d="M103.6,120.1c0.5-0.4,0.9-0.8,1.4-1.1c0,0.3,0,0.6,0.1,1c1.1,1.2,0.8,2.7,1,4c0,1.9,0,3.8,0,6.2
		C103,126.9,104.5,123.3,103.6,120.1z"/>
	<path fill="#736B6F" d="M88,100c0.3,0,0.7,0,1,0c1.5,2.4,0.9,4.9,1.1,7.8C87.1,105.5,88.2,102.6,88,100z"/>
	<path fill="#AEC7D5" d="M48.2,131.9c1,0.1,2.1,0.2,1.8,1.6c-0.4,2.4-0.9,4.9-1.5,7.6c-0.6-1.2-1.1-2.1-1.6-3.1
		C48.4,136.2,46.5,133.7,48.2,131.9z"/>
	<path fill="#736B6F" d="M97,123.8c2.9,2,1.7,4.6,2.2,7.7C96,128.9,97.3,126.4,97,123.8z"/>
	<path fill="#736B6F" d="M112.9,121c1.8,2,1.8,4.7,2.3,7.1c-0.1,0.5-0.3,0.9-0.6,1.9C112.3,127.1,113.3,123.9,112.9,121z"/>
	<path fill="#AEC7D5" d="M41,131.1c0.5,2.6,3,4.9,1.3,8.3c-0.6-0.9-1.2-1.4-1.3-2C40.9,135.4,41,133.3,41,131.1z"/>
	<path fill="#736B6F" d="M48.2,131.9c0,1.6,0,3.3-0.1,4.9c0,0.4-0.7,0.8-1.1,1.3c-0.1-1-0.2-2-0.2-2.9c-0.1-0.4-0.1-0.8-0.1-1.2
		c0.1-2,0.2-4.1,0.2-6.1c0.4-0.3,0.8-0.2,1.1,0.2C48.1,129.3,48.1,130.6,48.2,131.9z"/>
	<path fill="#AEC7D5" d="M99.3,113.9c0.3,1.5,0.6,3,1.1,5c-2.1-1.6-2.1-1.6-2.4-3.8C98.4,114.6,98.5,113.9,99.3,113.9z"/>
	<path fill="#AEC7D5" d="M106.1,124c-2.1-0.9-0.7-2.7-1-4C107.4,120.6,107.7,121.9,106.1,124z"/>
	<path fill="#736B6F" d="M43.7,106.1c0.2-0.2,0.4-0.5,0.6-0.7c1.1,3.8,1.1,4.2-0.3,6.6C43.9,110,43.8,108.1,43.7,106.1z"/>
	<path fill="#736B6F" d="M156,104c-2.1-1.1-1.7-3.3-2.5-5c0.1-0.3,0.3-0.4,0.6-0.4C156.2,99.9,156.4,101.8,156,104L156,104z"/>
	<path fill="#AEC7D5" d="M83.8,132.4c-0.8-1.1-1.6-1.6-1.7-2.3c-0.1-0.6,0.4-1.4,0.6-2.1c0.4,0.5,1.1,1,1.3,1.6
		C84.2,130.3,83.9,131.1,83.8,132.4z"/>
	<path fill="#AEC7D5" d="M81.5,118c0.2,0.4,0.5,0.8,0.6,1.3c0,0.8-0.1,1.6-0.1,2.4c-2.4-0.3-1.9-2.1-2-3.6
		C80.4,117.5,81,117.4,81.5,118z"/>
	<path fill="#AEC7D5" d="M79.6,112c-1.3-1.7-0.4-2.9,1.5-4.3c0,1.7,0,3,0,4.2C80.6,112.5,80.1,112.6,79.6,112z"/>
	<path fill="#736B6F" d="M79.6,112c0.5,0,1-0.1,1.5-0.1c0.2,2,0.3,4,0.5,6c-0.5,0-1,0.1-1.6,0.1C79.8,116,79.7,114,79.6,112z"/>
	<path fill="#AEC7D5" d="M69.3,126.9c0.3,0.9,0.6,1.8,0.7,2.7c0,0.4-0.6,0.9-1,1.4c-0.3-0.6-0.7-1.3-1-1.9
		C68.8,128.6,68.1,127.2,69.3,126.9z"/>
	<path fill="#AEC7D5" d="M143.3,100.9c0.3,1.2,0.6,2.5,1,4c-2.1-0.4-2.4-1.5-2.3-2.8C142.4,101.6,142.5,100.9,143.3,100.9z"/>
	<path fill="#AEC7D5" d="M94.9,99.5c0,1.7,0,3.4,0,5.2C93.6,102.9,93.8,101,94.9,99.5z"/>
	<path fill="#736B6F" d="M140.8,108.8c-2.8,0.4-1.4-1.7-1.8-2.9C140.3,106.4,141,107.3,140.8,108.8z"/>
	<path fill="#AEC7D5" d="M40.2,130.4c-0.3,0.9-0.7,1.7-1,2.6c-0.3-0.1-0.8-0.3-0.8-0.3c0.2-0.9,0.5-1.8,0.7-2.6
		C39.5,130.1,39.8,130.3,40.2,130.4z"/>
	<path fill="#AEC7D5" d="M141.4,123.9c0.2,0.4,0.7,0.9,0.6,1.2c-0.2,0.7-0.7,1.2-1.1,1.9c-0.3-0.6-0.7-1.3-1-1.9
		C140.4,124.6,140.5,123.8,141.4,123.9z"/>
	<path fill="#AEC7D5" d="M149.7,103.5c-0.8-1.6-1.4-2.7-2.1-4.1c0.8,0.1,1.3,0,1.4,0.2c0.4,0.4,0.8,1,0.9,1.6
		C150.1,101.7,149.9,102.3,149.7,103.5z"/>
	<path fill="#736B6F" d="M95.9,119.1c-1.7-1.1-0.5-2.7-0.9-4.1C96.8,116,96,117.6,95.9,119.1z"/>
	<path fill="#AEC7D5" d="M47,116c0,0.9,0.1,2-1.3,1.9c-0.3,0-0.4-0.7-0.7-1.1C45.7,116.5,46.3,116.3,47,116C47,116,47,116,47,116z"
		/>
	<path fill="#736B6F" d="M84.9,115.9c-0.1,1.5-0.2,2.9-0.2,4.4C83.6,118.8,83.5,117.3,84.9,115.9z"/>
	<path fill="#736B6F" d="M69.3,126.9c-0.4,0.7-0.9,1.4-1.3,2.2c0-1.3,0-2.5,0-3.8c0.2,0,0.4-0.1,0.5-0.1
		C68.8,125.7,69,126.3,69.3,126.9z"/>
	<path fill="#AEC7D5" d="M77,128c0.4,0,0.8,0,1.1,0c0.3,0.5,0.5,0.9,0.8,1.4c-0.4,0.2-0.8,0.4-1.2,0.6C77.5,129.3,77.3,128.6,77,128
		z"/>
	<path fill="#AEC7D5" d="M140.7,98.1c-0.3-0.5-0.7-1-0.9-1.6c-0.2-0.5-0.1-1-0.1-1.5c0.4,0.5,0.9,1.1,1.3,1.6
		C141.5,97.2,141.4,97.7,140.7,98.1z"/>
	<path fill="#736B6F" d="M99.3,113.9c-0.5,0.4-0.9,0.8-1.4,1.2c-0.1-0.7-0.1-1.3-0.2-2c-0.2-0.4-0.2-0.8-0.1-1.2
		c0.5-0.8,1-1.4,1.3,0.1C99.2,112.6,99.2,113.3,99.3,113.9z"/>
	<path fill="#736B6F" d="M141.4,123.9c-0.5,0.4-0.9,0.8-1.4,1.2c-0.1-0.7-0.1-1.3-0.2-2c0.4-0.4,0.8-0.8,1.3-1.2
		C141.2,122.6,141.3,123.2,141.4,123.9z"/>
	<path fill="#AEC7D5" d="M85.1,121.9c0.7,0.6,1.5,1.2,2.2,1.9C85.6,124.3,84.8,123.7,85.1,121.9z"/>
	<path fill="#AEC7D5" d="M48,128c-0.4-0.1-0.8-0.1-1.1-0.2c0.1-0.6,0.3-1.1,0.4-1.7c0.2,0,0.3,0,0.5,0C47.9,126.7,48,127.4,48,128z"
		/>
	<path fill="#736B6F" d="M143.3,100.9c-0.4,0.4-0.9,0.8-1.3,1.1c0.1-0.7,0.3-1.3,0.4-2C142.7,100.3,143,100.6,143.3,100.9z"/>
	<path fill="#AEC7D5" d="M153.5,99c-0.1-0.5-0.3-1-0.4-1.5c0.2-0.1,0.6-0.2,0.6-0.1c0.2,0.4,0.3,0.8,0.4,1.2l-0.1,0.4L153.5,99z"/>
	<path fill="#736B6F" d="M140.7,98.1c0.1-0.5,0.2-1,0.3-1.5c0.3,0.3,0.8,0.6,0.9,1c0.1,0.4-0.1,0.9-0.2,1.3
		C141.4,98.6,141.1,98.4,140.7,98.1z"/>
	<path fill="#736B6F" d="M139.1,106c-1.4-0.8-1.5-1.1,0-2C139,104.6,139.1,105.3,139.1,106z"/>
	<path fill="#736B6F" d="M158.1,90.9c0.3,0.5,0.7,1,1,1.5c0,0-0.4,0.3-0.6,0.5c-0.2-0.6-0.4-1.2-0.6-1.8
		C157.9,91.1,158.1,90.9,158.1,90.9z"/>
	<path fill="#AEC7D5" d="M97.7,111.9c0,0.4,0,0.8,0.1,1.2C97,112.7,96.8,112.4,97.7,111.9z"/>
	<path fill="#736B6F" d="M157.9,91.1c-0.3-0.4-0.6-0.7-0.9-1.1l0,0c0.4,0.3,0.7,0.6,1.1,0.9L157.9,91.1z"/>
	<path fill="#AEC7D5" d="M46.7,133.9c0,0.4,0.1,0.8,0.1,1.2C46,134.7,45.9,134.4,46.7,133.9z"/>
	<path fill="#736B6F" d="M156,104c0.2,0.1,0.5,0.2,0.7,0.4c-0.1,0.1-0.3,0.3-0.4,0.4C156.2,104.5,156.1,104.3,156,104L156,104z"/>
	<path fill="#E9B077" d="M65.9,33c-3.4,0-6-2.5-5.9-5.7c0.1-2.1,2.6-5.1,4.3-5.3c2.7-0.2,6.7,3.8,6.7,6.6C71,31.6,69.4,33,65.9,33z"
		/>
	<path fill="#E9B077" d="M74.6,24.7c2.2,1.2,3.1,2.4,1.8,4.3c-1.1,1.5-2,1.4-4.7-0.8C72.7,27.1,73.6,26,74.6,24.7z"/>
	<path fill="#D3B988" d="M65.9,189c-0.1,0.2-0.2,0.5-0.3,0.7c-0.2-0.2-0.4-0.5-0.6-0.7C65.3,189,65.6,189,65.9,189z"/>
	<path fill="#736B6F" d="M30,114.6c0.1-0.8,0.2-1.6,0.4-2.4c0.2,0,0.3,0,0.5,0c0,0.9,0,1.7,0,2.6C30.5,114.7,30.2,114.7,30,114.6z"
		/>
	<path fill="#ED7961" d="M150,117c1.5-0.6,3-1.2,5.3-2.2c-1.3,3.3-3.3,4.9-6.2,6.8C149.5,119.5,149.7,118.3,150,117
		C150,117,150,117,150,117z"/>
	<path fill="#F45A70" d="M72,138c0.3,0,0.7,0,1,0.1c-0.1,0.2-0.2,0.5-0.4,0.7C72.4,138.5,72.2,138.3,72,138z"/>
	<path fill="#FDFDFD" d="M153.3,87.9c-0.2-0.3-0.2-0.6,0-0.9c1.1,0,2.2,0,3.3,0c0,0.3,0,0.6,0,0.9C155.5,87.9,154.4,87.9,153.3,87.9
		z"/>
	<path fill="#A97E52" d="M106,49.7c8,4.6,15.4,14.1,15.7,19.9c-1.6,0.7-3.2,0.8-4.3-0.9c-3.7-5.6-7.4-11.3-11-17
		C106.1,51.4,106.2,50.9,106,49.7z"/>
	<path fill="#A97E52" d="M122.7,60.6c-3.1-2.1-5-4-5.8-7.5c3.2,0.4,4.2,2.8,5.8,4.4C123.1,57.8,122.7,59,122.7,60.6z"/>
	<path fill="#A97E52" d="M54,65.1c-0.1-3.3,1.6-5.2,3.5-7.1c0.9-0.9,2.1-1.6,3-0.6c0.8,0.8,1.4,2.4,1.1,3.3C61,63,60,65.2,58.9,67.3
		c-0.4,0.8-1.8,1.6-2.7,1.6c-1.5,0-2.2-1.2-2.1-2.7C54,65.6,54,65.2,54,65.1z"/>
	<path fill="#ED7961" d="M38.2,118.9c2.2,0.1,3.9,2.1,3.7,4.4c-0.2,1.9-1.4,2.9-3.4,2.7c-1.9-0.2-3.7-2.6-3.6-4.7
		C35.2,119.8,36.5,118.9,38.2,118.9z"/>
	<path fill="#ED7961" d="M90.3,114.9c2.5-0.1,3.6,0.8,3.6,2.9c0.1,2.2-1.7,4-3.9,4.1c-2.2,0.1-3.1-0.9-3.1-3.3
		C86.9,116,87.8,115,90.3,114.9z"/>
</g>
</svg>
