<?xml version="1.0" encoding="utf-8"?>
<!-- Generator: Adobe Illustrator 24.1.2, SVG Export Plug-In . SVG Version: 6.00 Build 0)  -->
<svg version="1.1" id="Layer_1" xmlns="http://www.w3.org/2000/svg" xmlns:xlink="http://www.w3.org/1999/xlink" x="0px" y="0px"
	 viewBox="0 0 200 186" enable-background="new 0 0 200 186" xml:space="preserve">
<g>
	<path fill="#5C1A22" d="M200,58c-0.6,1.3-1.3,2.6-1.9,4c-0.7,1.7-1.3,3.4-2,5.1c-0.4,0.3-0.9,0.3-1.3,0c-0.9-1.4-0.2-2.9-0.2-4.3
		c0.1-1.2,0.2-2.3,0.5-3.5c-0.2-1.8,2.4-4.1-0.9-5.4c-0.6,0.3-1.3,0.4-1.9,0.4c-0.4-0.2-0.8-0.5-1-0.9c-0.2-0.5-0.3-1-0.3-1.5
		c0.9-8.7,0.6-8.4-7.4-12.4c-8.3-4.1-16.8-7.9-25.5-11.3c-1.1-0.4-2.1-0.8-3.2-1.1c-0.4-0.1-0.9-0.3-1.3-0.4c-2.3-0.8-4.5-2-7-2.5
		c-0.7-0.1-1.3-0.3-2-0.6c-5.3-2.3-10.8-4-16.4-5.5c-0.4-0.1-0.9-0.2-1.3-0.4c-0.8-0.3-1.6-0.6-2.4-0.9c-0.4-0.1-0.8-0.3-1.2-0.4
		c-1-0.4-2.1-0.6-2.7-1.6c-0.1-0.5,0.1-0.8,0.3-1.2c0.9-0.6,2.2,0.4,3-0.8c9.6,3.1,19.3,5.9,28.8,9.4c11.5,4.3,22.8,9.1,34,14
		c4.6,2,9.5,4.1,10.9,9.9c0.3,1.4,0.4,2.9,0.4,4.3c0,1.8-0.4,3.7,1.9,4.5C200,56,200,57,200,58z"/>
	<path fill="#55141B" d="M61,2c1.3-0.7,2.7-1.4,4-2c3.3,0,6.7,0,10,0c3.9,1,7.8,2,11.7,3c5.2,1.3,10.3,2.6,15.5,4
		c-0.2,0.8-0.7,1.4-1.4,1.7c-2.3,0.7-4.5-0.4-6.7-0.8c-2.4-0.6-4.9-1.5-7.4-1.5c-0.5,0-1.1-0.1-1.6-0.2C77.5,4.3,69.9,4.8,62.4,4
		C61.6,3.6,60.8,3.1,61,2z"/>
	<path fill="#5C1A22" d="M0,46c1-2,1.7-4,2.9-5.8c1.2-1.7,2.8-3.2,4.3-4.8c2.3,0,2.3,1.3,1.5,2.8c-0.6,1.1-1.3,2.2-1.6,3.4
		c-1,1.8-0.3,3.6-0.4,5.5c-0.3,1.2-1.2,2.1-1.6,3.3c-1.1,3.3-0.2,6.8-1,10.1c-0.5,1-0.9,2.1-2.4,1.7C1.1,61.5,0.5,60.7,0,60
		c0-1,0-2,0-3c0.7-1,0.7-2,0-3C0,51.3,0,48.7,0,46z"/>
	<path fill="#6E2F25" d="M131.1,185.2c0,0.3,0,0.6-0.1,0.8c-2.7,0-5.3,0-8,0c-0.1-0.3-0.1-0.5-0.1-0.8c-0.6-0.9-0.5-1.8,0.2-2.6
		c1.8-1.2,3.7-1.1,5.7-0.7C130.5,182.2,132.1,182.9,131.1,185.2z"/>
	<path fill="#D5CBCC" d="M0,54c0,1,0,2,0,3C0,56,0,55,0,54z"/>
	<path fill="#ECE9E9" d="M193,84.1c-0.6,1-1.2,2-1.7,3c-1.8,1-3.7,2.2-1.7,4.5c3.9,4.6,3.3,9.4,1,14.3c-0.6,1.3-0.5,2.6-0.9,3.8
		c-0.7,1.6-2,2.7-3.3,3.8c-2.6,1.6-4.5,3.8-6.1,6.3c-2.6,4.2-5.5,8.2-10,10.7c-1.6,0.9-3.4,1.4-5,2.3c-5.7-0.1-8.7,3.8-11.6,7.8
		c-2.3,3.2-5.2,6-8,8.7c-0.5,0.5-1.1,0.8-1.9,1c-0.5,0-0.9-0.2-1.2-0.5c-0.4-0.4-0.6-1.6-0.8-1.4c-0.6,0.8-2.4,1-1.6,2.6
		c0.4,0.8,0.6,1.5,0.4,2.3c-2.1,3.5-5.4,4.9-9.3,5.1c-4-2.5-8.2-0.7-12.4-0.4c-1.7,0-3.2-0.4-4.7-1.1c-1-0.5-2.1-0.9-3.2-1.3
		c-0.4-0.2-0.8-0.4-1.2-0.7c-7.8-4.1-16.2-6.9-24.2-10.5c-1.5-0.7-3.2-0.7-4.9-0.7c-5.8-1-10.2-5.1-15.9-6.6
		c-2.9-0.8-5.4,0.9-7.9-0.2c-2.2-0.5-4.3-0.9-6.3-2c-8.4-3.7-16-8.5-22.8-14.7c-4.1-3.8-10.2-3.7-15.1-6c-0.4-0.2-0.8-0.5-1.2-0.7
		c-0.7-0.6-1.4-1.2-2-1.8c-1.5-1.3-2.2-3.2-3.5-4.7l0.1,0c-2.2-4-1.3-8,0.1-11.9c1-2.9,3.3-3.5,6-2.7c1.9,0.5,3.4,1.9,5.4,2.6
		c-3.5-1.4-6.1-3.8-8.3-6.6C8.2,86.8,6.6,85.2,8,83c0.3-1.7,1.1-3.5,0.9-5.2c-0.3-2.6,1.1-3.8,3.1-4.7c1.8-1.6,3.4-0.2,4.9,0.5
		c2.5,1.1,5,2.5,7.6,3.4c1.9,0.9,3.7,1.7,5.4,3c0.4,0.3,0.7,0.6,1,0.9c0.3,0.3,0.6,0.6,0.8,1c0.5,0.7,1.2,1.2,1.9,1.7
		c0.8,0.4,1.6,0.9,2.4,1.3c4.8,3.4,10.1,5.8,15.7,7.5C61,95.2,70,98.6,79,102.1c12.3,4.7,25.1,7.6,37.7,11.5c16.4,5,30-0.5,42-11.8
		c0.5-0.5,0.6-1.2,0.7-1.8c1.5-4,5.3-5.9,8.2-8.7c1.4-1.3,3-2.4,4.2-4c0.4-0.5,0.9-1,1.4-1.4c0.5-0.4,0.9-0.8,1.5-1.2
		c0.3-0.2,0.7-0.4,1-0.6c0.7-0.4,1.4-0.7,2.1-1.2c0.9-0.6,1.6-1.3,2.4-2c1.9-1.4,3.5-3,5.4-4.4c3.3-2.4,6-1.2,6.6,3
		C192.3,81,191.2,82.8,193,84.1z"/>
	<path fill="#733527" d="M131.1,185.2c-0.7-0.7-1.4-1.9-2.2-2.1c-1.9-0.3-3.9-0.1-5.9-0.1c-1.4,1.8-3.6-0.3-5,1.1
		c-0.3-0.1-0.6-0.1-0.9-0.2c-1.1-0.8-2.4-1.3-3.7-1.5c-0.3,0-0.6,0.1-1,0.1c-2.8-2.2-6.2-2.7-9.6-3.2l0.1,0.1
		c-0.2-0.7-0.9-0.9-1.3-1.5c-2.7-1.7-5.7-2.6-8.7-3.5c-6.6-1.9-12.6-5.1-19.1-7.3c-1.5-0.5-3-1.6-4.7-1c-0.4-0.1-0.7-0.3-1.1-0.4
		c-3.8-3.9-9.1-4.9-13.7-7.2c-6-3-12.1-5.9-18.1-8.9c-4.5-2-8.5-5-13.3-6.3l0,0.1c-0.2-0.4-0.4-0.8-0.8-1.1
		c-2.6-1.9-5.5-3.2-8.2-4.9c-0.3,0-0.6-0.1-0.9-0.3c-0.4-0.3-0.7-0.7-1.1-0.8l0.1,0.1c-1.2-1.6-3.4-2.8-2-5.4
		c1.6-0.9,2.8,0.1,4.1,0.9c32.2,19.1,66,34.5,101.6,46c8.6,2.8,16.9,3,25.2-1.3c2.7-1.5,5.6-2.2,8.2,0.6
		C144.2,182.3,137.8,184.1,131.1,185.2z"/>
	<path fill="#682729" d="M10,131.1c0.6,1.7,1.3,3.4,1.9,5.1c-3.8-0.5-5.4-3.3-6.4-6.4c-2.1-6.6-2.2-13.2,0.5-19.8
		c0.9-0.7,0.3-1.6,0.2-2.4l0-0.4c0,0-0.3-0.2-0.3-0.2c1.4,1.3,2.8,2.6,4.2,4c0.2,1.2,0.9,1.8,2.2,1.7l0.1,0c0.3,1,0.7,1.9,0.3,3
		C7.4,120,8.1,125.4,10,131.1z"/>
	<path fill="#55141B" d="M8,83c2,7.2,7.9,10.2,14.1,13.4c-0.8,0.2-1.6,0.7-2.3,0.5c-1.4-0.3-2.7-1.1-4.1-1.5
		c-2.4-0.8-4.8-1.5-7.2-2.2c-0.9,3.1-2,6.2-2.7,9.3C5.4,104,5.9,105.5,6,107c-0.8-1.3-2.3-2.7-2.2-3.9c0.3-3.4,0.8-6.9,2.1-10
		C8,88.2,8.3,88.4,5,83.2C6.1,83.2,7.1,83.1,8,83z"/>
	<path fill="#642426" d="M24.5,78.1c-4.2-1.7-8.4-3.3-12.6-5C7.3,73,7.3,73,7,77.6c-0.1,0.8-0.6,1.5-0.9,2.3
		c-0.5-0.2-0.8-0.5-0.9-0.9c-1.4-3.8,0.9-7.3,1-11c3.8-2.3,6.1,1.8,9.2,2.2c3.3,1.5,6.7,2.7,9.9,4.4c1.4,0.8,3.1,1.5,1.7,3.7
		C26.1,78.5,25.3,78.4,24.5,78.1z"/>
	<path fill="#601F1E" d="M36,149c2.4,1,4.8,1.9,7.1,3c7.2,3.3,14.3,6.6,21.5,9.9c1.6,0.7,3.6,1.1,3.3,3.6
		c-10.7-5.1-21.3-10.1-32-15.2C35.5,149.8,35.5,149.4,36,149z"/>
	<path fill="#642426" d="M69,165.9c1.5-0.1,3.2-0.6,4.5-0.1c6.6,2.6,13,5.4,19.5,8.2c0.4,0.2,0.5,0.4,0.3,0.6
		c-0.1,0.2-0.2,0.3-0.4,0.3c-1.3-0.2-2.6-0.1-3.7-0.6C82.5,171.6,75.7,168.7,69,165.9z"/>
	<path fill="#733527" d="M14.9,71C12,70,9,69,6.1,68c-1-0.9-2.1-1.9-3.1-2.8c-0.2-0.5-0.5-0.8-0.8-1.2c-0.2-0.6-0.3-1.2-0.5-1.8
		c0.6-0.8,1.1-1.7,1.7-2.5c5,1.8,8.5,5.8,12.2,9.3C15.7,69.8,15.5,70.5,14.9,71z"/>
	<path fill="#59191A" d="M36,149c0,0.4-0.1,0.9-0.1,1.3c-4.4-2.4-8.7-4.7-13.1-7.1C28.4,142.5,31.8,146.6,36,149z"/>
	<path fill="#682729" d="M13.9,137.2c3.9-0.1,6.3,2.7,9.1,4.7c-0.3,0.4-0.6,0.7-1,1C19.3,141.1,15.3,141,13.9,137.2z"/>
	<path fill="#6E2F25" d="M93,174.9c0-0.3,0-0.6,0-0.9c3.5,0.1,6.8,0.7,9,3.8c-0.3,0.6-0.7,0.7-1.2,0.2C98.2,177,95.6,176,93,174.9z"
		/>
	<path fill="#55141B" d="M102.8,179.2c3.7-0.4,7.3-0.7,9.6,3.2C109.1,181.3,106,180.3,102.8,179.2z"/>
	<path fill="#55141B" d="M117.9,184.1c1.7-0.4,3.4-0.7,5-1.1c0,0.7,0,1.4,0,2.2C121.3,184.8,119.6,184.5,117.9,184.1z"/>
	<path fill="#55141B" d="M113.3,182.3c1.6-0.3,3.3-1,3.7,1.5C115.8,183.4,114.5,182.8,113.3,182.3z"/>
	<path fill="#ECE9E9" d="M5.1,79c0.3,0.3,0.6,0.6,0.9,0.9c-0.5,0.3-0.9,0.5-1.4,0.8C4.8,80.1,5,79.5,5.1,79z"/>
	<path fill="#ECE9E9" d="M6.2,107.6c2,1,1,1.7-0.2,2.4C6.1,109.1,6.1,108.4,6.2,107.6z"/>
	<path fill="#55141B" d="M100.8,178c0.4-0.1,0.8-0.2,1.2-0.2c0.3,0.5,0.5,1,0.8,1.5C102.2,178.9,101.5,178.5,100.8,178z"/>
	<path fill="#682729" d="M11.8,136.1c0.4,0.3,0.8,0.5,1.1,0.8C12.6,136.6,12.2,136.4,11.8,136.1z"/>
	<path fill="#5C1A22" d="M2.1,64c0.3,0.4,0.6,0.8,0.8,1.2C2.7,64.8,2.4,64.4,2.1,64z"/>
	<path fill="#59191A" d="M22,142.9c0.3-0.3,0.7-0.6,1-1c-0.1,0.4-0.1,0.9-0.2,1.3C22.5,143.3,22.2,143.2,22,142.9z"/>
	<path fill="#59191A" d="M101,8c0.4-0.4,0.8-0.7,1.2-1.1c7.3,2,14.6,3.9,21.9,5.9c-1,0.4-2,0.8-3.1,1.2c-3.1,2-5.8,0-8.5-0.9
		C108.5,11.9,103.8,11.9,101,8z"/>
	<path fill="#A67A4F" d="M10,131.1c-0.9-1.7-2.2-3.3-2.7-5.2c-1.3-4.6,0.1-7.4,4.8-9.9c0.3-0.3,0.7-0.5,1.1-0.4
		c0.8,0.2,1.6,0.5,2.4,0.8c1.2,0.4,2.5,0.6,3.6,1.2c1.2,1,2.4,2,4.1,1.7c0.9,0,1.7,0.3,2.3,1c0.6,0.8,1.4,1.5,2.3,2.1
		c0.4,0.2,0.7,0.5,0.9,0.8c0.9,1.4,2.2,2.5,3.8,3.1c0.4,0.2,0.7,0.5,1,0.8c1.3,1.9,3.4,2.5,5.4,3.4c0.4,0.2,0.8,0.5,1.1,0.8
		c7.4,4.5,15.7,6.8,23.8,9.5c6.9,2.3,13.8,4.4,20.2,8.1c0.6,0.3,1.3,0.7,1.9,1c2.3,1.8,6.6,0.6,7.4,4.8c-1.4,3.6,2.8,3.1,3.5,3.3
		c3.9,1.1,7.2,1.9,9.8,5.8c2,3,6.5,3.6,10.3,4c2.6,0.2,5.3,0.3,7.9-0.3c0.4-0.2,0.8-0.3,1.3-0.5c2.3-1.2,5-0.6,7.2-2.2
		c0.9-0.7,1.5-1.5,2-2.5c0.8-2.4,2.8-3.5,4.7-4.9c7.4-5,12.9-11.8,18-19c1.3-2.5,3.5-3.8,6.2-4.5c2.6-0.5,4.9-1.6,6.4-4
		c0.4-0.3,0.8-0.5,1.2-0.5c6.1,1.5,7.2-3.4,9.1-7.2c0.2-0.4,0.5-0.8,0.8-1.2c1.9-2,3.1-4.6,5-6.7c1.4-1.7,2.8-3.9,5.6-2.4
		c1.5,2.4,2.9,4.9,4,6.7c-0.6,2.5-1,4.4-1.4,6.3c0.9,4.5-2.7,7.7-3.5,11.7c-4.7,3.4-8.3,8.1-13.4,11c-2.6,1.5-4.8,3.7-6.5,6.1
		c-4.3,6.1-10.8,9.8-15.9,15c-3,1.3-4,4.3-5.7,6.7c-0.3,0.5-0.7,0.9-1,1.4c-2.4-1.2-4.5-1-6.9,0.3c-8.1,4.6-16.6,4.9-25.5,2.2
		c-18.5-5.9-36.7-12.6-54.2-21.1c-14.5-7.1-28.9-14.3-43.2-21.6C16,135,13.1,133,10,131.1z"/>
	<path fill="#642426" d="M155,168.1c6.4-6.3,12.6-12.8,19.3-18.8c5.1-4.5,10.7-8.4,16.2-12.5c0.6-0.4,1.2-0.3,1.6,0.3
		c-10.4,9.9-20.7,19.9-31.2,29.8c-1.6,1.5-3.9,2.1-5.8,3.2C154.4,169.4,154.5,168.8,155,168.1z"/>
	<path fill="#601F1E" d="M193,84.1c-2.6,0.6-2.7,0.6-2.3-1.5c0.4-2.3,1-4.6-1.8-6.8c-2.8,2.1-5.8,4.3-8.7,6.5
		c-1.5,0.5-1.6-0.5-1.8-1.6c1.4-4.2,5.8-5.5,8.5-8.6c0.4-0.3,0.7-0.6,1.1-0.9c2.6-0.9,3.6-4.5,6.9-4.1c0.4,0,0.8,0.1,1.2,0.1
		c-1.3,2-2.7,4-4.1,6.1c0.4,1.4,0.8,3.1,1.3,4.8c0.7,1.4,0.7,2.7,0,4.1C193.2,82.7,193.1,83.4,193,84.1z"/>
	<path fill="#55141B" d="M188.4,109.9c0.9-3.6,2-7.1,2.6-10.7c0.6-3.4,0-6.6-4.1-7.5c1.3-5,1.6-5.3,4.5-4.7c-0.5,2-1,3.5,0.7,5.7
		c3.4,4.3,2.5,9.2,0.3,13.8c-0.5,1.1-0.8,2.3-1.2,3.5C190.1,110.6,189.3,110.6,188.4,109.9z"/>
	<path fill="#621F22" d="M192.1,137.1c-0.5-0.1-1.1-0.2-1.6-0.3c1.5-4,3-7.9,4.5-11.9c2.6,3.7,2.2,5.8-2,11
		C192.7,136.4,192.2,136.6,192.1,137.1L192.1,137.1z"/>
	<path fill="#875230" d="M188.4,109.9c0.9,0,1.8,0,2.7,0.1c0.5,0.6,0.9,1.3,1.4,1.9c-1.8,1.4-3.8,2.7-5.5,4.3
		c-1.8,1.7-3.4,3.8-5,5.7c-2-4.5,2.4-6.3,4-9.2C186.8,111.8,187.6,110.8,188.4,109.9z"/>
	<path fill="#6E2F25" d="M155,168.1c0,0.6,0,1.3,0,1.9c-1.7,1.8-3.3,3.7-5,5.5C149.9,171.9,152.4,169.9,155,168.1z"/>
	<path fill="#ECE9E9" d="M193.3,82c0-1.4,0-2.7,0-4.1C196,79.3,196,80.7,193.3,82z"/>
	<path fill="#642426" d="M192.1,137.1c0.3-0.4,0.6-0.8,0.9-1.1C192.7,136.4,192.4,136.8,192.1,137.1z"/>
	<path fill="#602126" d="M6,42c0.6-1.5,1.4-2.9,1.8-4.4c0.2-0.6-0.4-1.5-0.6-2.2c14-10.9,27.7-22.3,43.8-30.2c1.9-0.9,4-1.4,6.1-2.1
		c0.6,0.6,0.6,1.3,0.4,2c-3.3,3.8-8.4,4.5-12.1,7.6c-11.1,6.8-21.5,14.7-31.5,23.1c-2.4,2-3.5,5.3-6.5,6.6C6.8,42.5,6.4,42.3,6,42z"
		/>
	<path fill="#602126" d="M61,2c0.5,0.5,1,0.9,1.4,1.4C62,4.5,61.1,4.7,60,4.6c-1-0.3-1.8-0.7-2.3-1.7C58.8,2.6,59.9,2.3,61,2z"/>
	<path fill="#55141B" d="M57.7,2.9C58.5,3.3,59.3,3.6,60,4c-0.7,1.3-1.6,2-3,0.9c0-0.6,0-1.2,0-1.8C57.2,2.8,57.5,2.8,57.7,2.9z"/>
	<path fill="#A77C50" d="M6.9,42c6.2-8.9,14.8-15,23.9-20.6c4.7-3,9.2-6.3,13.8-9.5c5.4,1.4,9.5-2,14.2-3.5c3.9-1.3,8-1.8,12.2-1.7
		c5,0.2,10-0.8,14.9-1.6c0.3,0,0.7,0,1,0.1C89.1,6.8,91.8,6,94,7c2.3,0.3,4.6,0.7,7,1c6.7,2,13.3,4,20,6c0,0.2,0.1,0.5,0.1,0.7
		c0.6,1.3,2.2,0.4,3,1.2l0,0c0.8,1.1,2.2,0.3,3,1l0,0c6,2.3,12.1,4.5,18.4,6c0.5,0.1,1.1,0.1,1.6,0.2c2,2.1,4.7,2.3,7.3,2.8
		c0.3,0,0.5,0,0.7,0.1c0.9,0.7,1.6,1.8,3,1c7.3,3.2,14.7,6.5,22,9.7c3,1.3,6.2,2.2,9,3.9c5,2.9,5.3,4.5,3.2,10
		c-0.4,0.9-0.4,1.9-0.6,2.9c-0.3,1.6-2.1,1.3-2.9,2.2c-0.3,0.3-0.8,0.4-0.8,0.9c0.2,0,0.4-0.2,0.7-0.4c1.1-0.9,2.2-1.8,3.7-1.9
		c0.6-0.4,1.1-0.7,1.7-1.1c3.3,0.9,2.5,3.5,2.3,5.8c-0.1,1.3-0.3,2.5-0.4,3.8c-2.2,3.4-4.9,6.4-7.8,9.1l0,0c-3.7,2.3-7.1,4.8-10.1,8
		c-0.3,0.3-0.7,0.6-1,0.9c-4.2,3.1-8.3,6.4-12.2,9.9c-0.6,0.8-1.2,1.5-2.1,2.1c-4.7,2.5-8.6,6.2-13.1,9.1c-10,6.5-20.4,9-32.2,5.6
		c-23.2-6.9-46.4-14.1-69-22.9c-1.7-0.7-3.4-1.2-5.2-1.8c-7.7-3.8-15.7-6.7-23.4-10.4c-1.8-0.9-3.7-1.5-4.8-3.3
		c-3.9-3.1-7.8-6.3-11.7-9.4C3.5,56.1,3.8,52.6,4,49c2.4-0.6,3.9,0.9,5.3,2.6c0.3,0.6,0.2,1.2,0.4,1.8c0.1-0.4,0.3-0.7,0.7-0.9
		c1-0.2,1.7,0.3,2.2,1.1c1.6,2.4,4.1,3,6.7,3.3c0.4,0.1,0.9,0.2,1.3,0.3c0.6,0.2,1.2,0.5,1.7,0.8c0.4,0.2,0.7,0.4,1,0.7
		c0.7,0.7,1.6,1.1,2.5,1.3c0.4,0.1,0.7,0.2,1,0.4c0.5,0.2,1,0.2,1.6,0c0.8-0.1,1.4,0.1,2,0.7c0.4,0.3,0.8,0.7,1.2,1
		c0.3,0.2,0.6,0.4,0.8,0.6c0.6,0.7,0.7-0.4,1.1-0.3c0.8-0.1,1.4,0.3,2.1,0.7c0.8,0.6,1.8,0.8,2.7,1.1c0.4,0.1,0.8,0.4,1.1,0.6
		c3.8,2.3,7.8,4.2,12.2,4.6c0.9,0,1.7,0.4,2.4,1c0.9,1,2,1.2,3.3,0.9c0.9,0,1.7,0.4,2.4,1c2.5,2.2,5.5,3.2,8.8,3.7
		c0.4,0.1,0.8,0.2,1.2,0.4c1,0.7,2,1.4,3.2,1.7c0.4,0.1,0.8,0.2,1.1,0.4c0.7,0.3,1.5,0.5,2.2,0.8c0.4,0.1,0.8,0.2,1.1,0.4
		c0.8,0.2,1.5,0.4,2.3,0.5c0.4,0.1,0.8,0.2,1.1,0.4c0.4,0.2,0.7,0.4,1,0.6c0.2,0.1,0.3,0.2,0.5,0.3c0.7,0.4,1.4,0.7,2.1,0.9
		c0.4,0.1,0.7,0.3,1.1,0.4c1.3,0.7,2.6,1.1,4,1.5c0.4,0.1,0.8,0.3,1.2,0.5c1.9,1.1,4.1,1.1,6.2,1.3c0.9,0.2,1.7,0.5,2.3,1.3
		c0.2,1.1,0.6,1,1.2,0.3c1-0.2,1.8,0.3,2.5,0.9c6,3.1,12.3,4.4,19,4.7c0.7,0,1.4,0,2.1,0.1c3.8,1,7.4,0.2,11-0.9
		c2.1-0.7,4-1.7,6-2.6c0.8-0.4,1.5-0.7,2.3-1.1c0.4-0.2,0.7-0.4,1.1-0.5c0.8-0.3,1.5-0.9,2.1-1.4c0.4-0.3,0.8-0.5,1.2-0.7
		c2.2-1,4.6-1.8,6.5-4.7c-3.6,1.4-6.6,2.2-9.7,2.3c-0.5,0-0.1,0.8-0.1,1.2c0,0.5,0,0.9-0.2,1.3c-0.2,0.4-0.5,0.8-0.8,1.1
		c-0.4,0.3-0.8,0.5-1.2,0.7c-2.2,0.8-4.4,1.6-6.4-0.4c-0.4-0.3-0.7-0.5-1.1-0.8c-0.9-0.4-1.8-0.3-2.8-0.3c-4.7-0.5-9.7,1.4-14.2-1.5
		c0.1-2.6,2.3-2,3.7-2.2c8.9-1.3,17-4.8,24.4-9.7c6.4-4.3,13-8.1,19.4-12.3c3.1-2,6.2-4,8.7-6.6c5.8-6,5-10.4-2.5-13.9
		c-7.9-3.6-15.9-6.9-24.3-9c-6.1-1.6-12.2-3.5-18-6c-8.7-3.7-17.5-7.3-27.2-8.2c-2.3-0.2-4.4-1.4-6.6-2.2C76.9,8.5,59.2,9.4,43,21.6
		c-5.8,4.4-11.5,9.1-18.1,12.5c-1.3,0.7-2.4,1.8-3.5,2.8c-4,4.1-3.7,7.3,1.1,10.6c2.5,1.7,5.2,3,8,4C50,59,69.4,66.6,89.4,72.4
		c6.1,1.8,12.6,3.3,17.3,8.3c0.3,1,0.3,2.1-0.1,3.1c-1.4,1.8-3.3,2.3-5.4,2.2c-0.5-0.1-0.9-0.2-1.4-0.4c-1.5-1-3.2-1.5-4.9-1.6
		c-0.4-0.1-0.8-0.2-1.3-0.3c-1-0.3-2.1-0.5-3.2-0.6c-0.7-0.1-1.4-0.2-2-0.5c-4.7-2.3-9.8-3.4-14.5-5.7c-1.4-1.6-3.2-2.3-5.3-2.1
		c-1,0-1.8-0.4-2.6-1.1c-5.4-3.5-11.2-5.7-17.6-6.1c-2.9-0.2-5.5-1.1-7.9-2.6c-4.8-2.3-9.9-4-14.9-5.9c-3.6-2.1-7.4-3.6-11.5-4.4
		c-2.1-2.8-6.7-3.1-7.1-7.4C6.4,45.4,5.4,43.7,6.9,42z"/>
	<path fill="#AC775A" d="M145.4,22.9c-6.7-0.2-12.7-2.6-18.4-6C133.2,18.9,139.3,20.9,145.4,22.9z"/>
	<path fill="#804B28" d="M188,72c2.6-3,5.2-6.1,7.8-9.1c-0.3,1.4-0.6,2.8-0.9,4.1C192.6,68.7,190.3,70.3,188,72z"/>
	<path fill="#804B28" d="M196.3,59c-0.8-1.9-1.5-3.8-2.3-5.8c0.6-0.7,1.1-1.5,2.1-2.7C197.2,53.8,197.5,56.4,196.3,59z"/>
	<path fill="#AC775A" d="M154.3,25.9c-2.8-0.1-6,1-7.3-2.8C149.4,24,151.8,25,154.3,25.9z"/>
	<path fill="#AC775A" d="M158,27c-1.7,1.7-2.6,1.1-3-1C156,26.3,157,26.7,158,27z"/>
	<path fill="#AC775A" d="M127.1,16.9c-1-0.3-2-0.7-3-1C125.1,16.2,126.1,16.6,127.1,16.9z"/>
	<path fill="#AC775A" d="M124.1,15.9c-1-0.4-2-0.8-3-1.2C122.1,15.1,123.1,15.5,124.1,15.9z"/>
	<path fill="#AF7A62" d="M86,5.1c-0.4,1.2-0.9,2.4-1.6,4.3c-1-1.4-1.6-2.2-1.8-2.5c-3.2,0.4-6,1.2-8.9,1c-9.4-0.6-17.8,2.1-26.2,7.2
		c0.9-3.1-0.9-3.3-2.9-3.2c4.1-2.3,8.2-4.7,12.3-7c1-0.3,2-0.6,3-0.9c0.8-0.2,1.6-0.4,2.4-0.6C70.4,2.5,78.2,3.2,86,5.1z"/>
	<path fill="#AF7A62" d="M94,7c-1.6,0-3.2,0.2-4.7-0.1c-0.8-0.2-1.5-1.1-2.3-1.7C89.4,5.8,91.7,6.4,94,7z"/>
	<path fill="#59191A" d="M12,54c-0.6-0.4-1.3-0.7-1.9-1.1c-0.4-0.2-0.8-0.4-1.1-0.8C7.3,51.1,5.7,50,4,49c0.7-0.7,1.3-1.3,2-2
		c0.6-0.6,1.3-0.5,1.9,0c2.2,2.2,4.3,4.3,6.5,6.5c0.1,0.5,0,0.8-0.5,1C13.1,54.7,12.5,54.6,12,54z"/>
	<path fill="#621F22" d="M7.9,47c-0.6,0-1.3,0-1.9,0c0-1.7,0-3.3,0-5c0.3,0,0.6,0,0.9,0C7.3,43.7,7.6,45.3,7.9,47z"/>
	<path fill="#D4CDCE" d="M159.7,99.9c0.5,0.1,1,0.2,2.4,0.4c-2.5,2.1-4.6,3.8-6.5,5.5c-7.2,6.6-15.6,10.7-25.4,10.9
		c-4.9,0.1-10-0.7-14.6-2.2c-17.2-5.4-34.2-11.3-51.4-16.9c-5.8-1.9-11.8-3.4-17.4-5.7c-4.2-1.7-7.9-4.6-11.8-6.9
		c0.1-0.2,0.3-0.4,0.4-0.6c0.7-0.7,1.5-1,2.5-1.1c3.9,0.8,7.3,3,11.2,3.9c4.9,2,9.9,4.1,15,5.4c0.4,0.1,0.9,0.1,1.3,0.2
		c0.8,0.2,1.5,0.3,2.3-0.1c0.4-0.2,0.8-0.3,1.2-0.3c1,0.1,1.5,0.8,1.9,1.5c3.8,4,9,5.3,14,6.6c2.2,0.6,4.5,1,6.7,1.7
		c6.9,2.8,14.2,4.2,21.2,6.5c9.5,2.4,19,3.3,28.5-0.1c0.7-0.3,1.3-0.6,1.9-0.9c0.4-0.2,0.8-0.4,1.2-0.6c0.6-0.3,1.2-0.6,1.9-0.8
		c0.4-0.2,0.9-0.3,1.3-0.4c3.1-0.6,5-3.1,7.7-4.4C156.7,100.8,157.7,99,159.7,99.9z"/>
	<path fill="#D5CBCC" d="M136.6,133.9c0.6,0.1,1.2,0.3,2.1,0.5c-4.5,6.7-11,7.5-17.8,6.4c-5.5-0.9-10.8-2.8-16.2-4.4
		c-4.6-1.3-9.2-2.6-13.6-4.2c-3.8-1.4-7.6-3.2-11.2-5.2c-4.7-2.6-9.3-5.6-13.9-8.4c-0.7-0.4-1.3-1-1.9-1.5l0,0
		c3.6-2.2,7-2.7,10.5,0.5c1.4,1.3,3.3,2.3,5.1,2.9c2.7,0.9,4.3,2.2,3.5,5.4c0.6-0.7,1.2-1.4,1.8-2.1c5.1,2.1,10.2,4.2,15.3,6.3
		c5.4,1.4,10.9,2.4,16.2,4c0.3-0.1,0.7,0.8,1.1,0c0-0.4,0.1-0.7,0.4-0.9c3.9,0.4,7.7,0.8,11.6,1.2c0.2,0.4,0.2,0.8,0.1,1.2
		c0.3,0.1,0.3-0.2,0.5-0.2C132.3,135.2,134.1,132.8,136.6,133.9z"/>
	<path fill="#875230" d="M159,139c-2.3,3.1-4.4,6.6-7.1,9.4c-3.8,3.9-8.2,7.2-12.3,10.8c-1.3,1.2-2.4,2.5-3.6,3.8
		c-1.8,0.2-3.6,0.3-5.3,1.1c-8.2,1.4-15.8-1.1-23.4-3.5c-4.9-1.6-9.7-3.3-14.3-5.6c-1.9-2.9-5.3-2.7-8-4c-0.3-0.3-0.7-0.6-1-1
		c-8.6-3.3-17.3-6.6-25.9-9.9c-5.1-1.9-10.3-3.7-15.3-5.8c-1.5-0.6-2.6-2.2-3.9-3.3c2.1-1.5,3.6,0.4,5.3,0.9
		c2.3,0.6,4.3,2.3,6.9,1.9c1.9,0.7,3.9,1.5,5.8,2.2c12.4,3.1,23.8,8.9,35.9,12.9c1.8,0.5,3.3,1.3,4.8,2.4
		c10.2,4.8,20.5,9.5,32.3,7.7c4.9-0.7,9.1-2.9,12.7-6.2c3.7-3.3,7.1-7,10.3-10.8C154.5,140.2,155.8,137.6,159,139z"/>
	<path fill="#621F22" d="M159,139c-2,1.6-4.1,3.1-5.9,4.9c-4.1,3.9-7.4,8.8-12.1,11.8c-7.8,5.1-16.5,7.1-25.9,3.5
		c-5.4-2.1-11-3.6-16.5-5.5c-0.7-0.2-1.1-1.1-1.7-1.7c5.5-2.6,9.4,1.4,13.9,3.2l0,0c0.9,0.7,2.3-0.1,3.1,0.9c1.6,0.3,3.2,0.7,4.8,1
		c4.1,0.6,8.2-0.6,12.3,0.3c3-1.4,6-2.8,9.1-4.1c0.7-1.2,1.5-2.4,3.1-2.6c0.3-0.3,0.5-0.5,0.8-0.8c0.4-0.2,0.6-0.4,0.8-0.8
		c5-5.7,10-11.4,14.4-16.4c2.4-0.3,4.1-0.5,5.8-0.7c0.9,1,0.8,2.1,0,3.1C163,136.3,161,137.7,159,139z"/>
	<path fill="#59191A" d="M51.2,133.8c-1.2,0.1-2.6,0.7-3.6,0.4c-2.9-0.9-5.7-2.1-8.5-3.2l0,0c-2-1.3-4.4-2-6-4l0,0
		c-1.9-1.1-3.5-2.4-5-4l0,0c-0.9-0.9-2.2-1-3-2c-0.7-0.3-1.3-0.7-2-1c-1.6-0.1-2.8-1-4.1-1.9c-1.3-0.4-2.7-0.7-4-1.1
		c-0.5-0.7-1.4-0.5-2-0.9c-0.3-0.1-0.6-0.1-0.9-0.2c0.1-1.1,0.3-2.3,0.4-3.4c2.3,0.8,4.5,2.1,6.9,2.5c6.3,1,10.6,5,15,8.9
		c4.5,4,9.7,6.9,15.5,8.6C50.3,132.7,50.7,133.4,51.2,133.8z"/>
	<path fill="#59191A" d="M93.1,150c-4.2-1.4-8.3-2.8-12.5-4.2c-7.3-2.6-14.6-5.1-21.8-7.8c-0.7-0.3-1.2-1.2-1.8-1.9
		c1.3-0.1,2.6-0.2,3.9-0.4c1.5-0.2,3.5-2.7,3.7,1.2c0,0.1,0.6,0.4,0.9,0.3c4.8-1.1,8,2,11.6,4.3c1.2,0.8,2.7,1.1,4,1.7
		C85.4,144.8,90.8,144.6,93.1,150z"/>
	<path fill="#621F22" d="M159.7,99.9c-2.9,2-5.7,4.1-8.7,6c-1.1,0.7-2.7,0.7-4,1.1c-1.7-2.5,0.2-3.5,1.8-4.6
		c4.1-2.6,8.1-5.5,11.8-8.7c0.6-0.4,1.2-0.6,1.8-0.8c0.6-0.3,1-0.7,1.4-1.2c0.7-0.8,1.3-1.6,2.1-2.3c2.1-0.9,3.5-3.5,6.3-2.9
		c0.4,0.2,0.7,0.4,1,0.8c-3.4,3.2-6.8,6.5-10.2,9.7C161.9,97.9,160.8,98.9,159.7,99.9z"/>
	<path fill="#DDD0D1" d="M93.1,150c-2.5-1.4-5-2.9-7.4-4.3c-1.5-0.9-3.1-1.8-4.7-2.6c1.7,0.1,3.6-0.4,5.1,0.2
		c7.8,3.1,15.5,6.5,23.3,9.8c0.7,0.3,1,1.4,1.5,2.1c-2.7-0.8-5.4-1.6-8.1-2.3c-1.9-0.5-3.9-0.6-5.8-0.9
		C95.7,151.3,94.4,150.6,93.1,150z"/>
	<path fill="#5C1A22" d="M48.6,88.2c-3.9-1.4-7.8-2.7-11.7-4.1c-0.5,0.4-1,0.4-1.6,0.4c-0.4-0.1-0.7-0.2-1.1-0.4
		c-0.5-0.2-1.1-0.5-1.6-0.7c-0.6-0.4-1.4-0.8-1.5-1.7l0,0c-0.6,0.1-0.9-0.4-1.3-0.6c-1.8-1-3.6-2-5.5-3c0.9-0.1,1.7-0.1,2.6-0.2
		c3.5-1.2,6.5,0.6,9.5,1.8c0.6,0.3,1.2,0.7,1.8,1c0.4,0.1,0.8,0.3,1.3,0.5c1.3,0.4,2.6,1,3.8,1.6c2.3,1.5,5.9,1.1,6.9,4.6
		C50,88.2,49.5,88.6,48.6,88.2z"/>
	<path fill="#621F22" d="M185.9,112.7c-0.7,1.6-1.5,3.2-2.2,4.8c-0.6,1.5-1.2,2.9-1.8,4.4l0,0c-3,3.2-4.6,8.1-10,8.4
		c-0.2,0-0.5,0.1-0.7,0.1c-0.6,0.1-1.1,0-1.5-0.5c4.7-3.7,8.3-8.4,11.5-13.4C182.3,114.9,184.3,114,185.9,112.7z"/>
	<path fill="#663439" d="M117.8,133.1c0,0.6,0.1,1.3,0.1,1.9l0.1-0.1c-5.4-1.1-10.7-2.2-16.1-3.4c-0.7-0.1-1.1-1.1-1.7-1.6
		c3.9,0.6,7.9,1.1,11.8,1.8C114,132.1,115.9,132.7,117.8,133.1z"/>
	<path fill="#602126" d="M129.1,136c0.1-0.6,0.2-1.2,0.3-1.8c4.4-2.3,8.7-4.7,13.1-7c0.2,0.2,0.4,0.5,0.6,0.7
		c-2.2,2-4.4,3.9-6.6,5.9C134,134.6,131.5,135.3,129.1,136L129.1,136z"/>
	<path fill="#FCFBFB" d="M122,122c3.1-0.7,6.2-1.3,9.3-2c0.2,0.4,0.3,0.9,0.5,1.3c-1.6,0.6-3.2,1-4.6,1.7c-0.7,0.3-1,1.3-1.2,2.4
		C122.9,126.7,122.6,124.2,122,122L122,122z"/>
	<path fill="#DDD0D1" d="M143.2,150.6c-1,0.9-2,1.8-3.1,2.6c-0.8-0.8-1.5-1.7-2.4-2.7c1.4-1.3,3.2-3,5.5-5.1
		C143.2,147.8,143.2,149.2,143.2,150.6z"/>
	<path fill="#DDD0D1" d="M131.1,157.4c-4.1-0.1-8.2-0.2-12.3-0.3c3.6-0.5,7.2-1.1,10.9-1.4C130.1,155.6,130.6,156.8,131.1,157.4z"/>
	<path fill="#875230" d="M169.7,129.9c0.5,0.2,1,0.3,1.5,0.5c-0.6,3.6-3.7,3.7-6.2,4.6c0-1,0-2.1,0-3.1
		C166.5,131.2,168.1,130.6,169.7,129.9z"/>
	<path fill="#D5CBCC" d="M64,117c-1.6-0.9-3.2-1.7-4.9-2.6c0.2-0.4,0.5-0.7,0.7-1.1C61.6,114,64.2,113.4,64,117L64,117z"/>
	<path fill="#FCFBFB" d="M122,122c-2.2,0-2.1,1.5-2,3l0,0c-0.7-1-1.3-2-2-3.1c0.2-0.3,0.4-0.6,0.5-0.9
		C119.7,121.3,120.8,121.7,122,122L122,122z"/>
	<path fill="#621F22" d="M179,80.1c0.4,0.7,0.8,1.3,1.2,2c-0.7,0.6-1.5,1.1-2.2,1.7c-0.7-0.5-1.3-1.1-1.6-2c-0.1-0.7,0-1.3,0.6-1.7
		l0,0C177.7,79.4,178.4,79.4,179,80.1z"/>
	<path fill="#601F1E" d="M177,82c0.3,0.6,0.6,1.2,0.9,1.8c-0.7,0.4-1.3,0.7-2,1.1c-0.6-0.3-1.2-0.5-1.3-1.2
		C175,82.4,175.9,82,177,82z"/>
	<path fill="#FCFBFB" d="M134.1,119.3c0.2,0.2,0.4,0.4,0.6,0.6c-0.3,0.2-0.7,0.4-1,0.6c-0.1-0.3-0.4-0.6-0.3-0.8
		C133.4,119.6,133.8,119.5,134.1,119.3z"/>
	<path fill="#FCFBFB" d="M116.1,120.3c0.2,0.2,0.4,0.4,0.6,0.6c-0.3,0.2-0.7,0.4-1,0.6c-0.1-0.3-0.4-0.6-0.3-0.8
		C115.4,120.6,115.8,120.5,116.1,120.3z"/>
	<path fill="#59191A" d="M12.3,112.6c-1.3,0.2-3.2,1.1-2.2-1.7C10.9,111.5,11.6,112,12.3,112.6z"/>
	<path fill="#D4CDCE" d="M31.3,81.7c0.6,0.2,1.2,0.5,1.8,0.7c0.1,0.4,0.3,0.8,0.3,1.2c-0.1,0.1-0.3,0.3-0.4,0.4
		C32.4,83.2,31.9,82.5,31.3,81.7z"/>
	<path fill="#DDD0D1" d="M134.7,152.6c0.1,0.5,0.1,1.1,0.2,1.6c-0.2,0-0.4,0.1-0.6,0.1c-0.1-0.5-0.2-1-0.3-1.6
		C134.3,152.7,134.5,152.7,134.7,152.6z"/>
	<path fill="#DDD0D1" d="M114,156.1c-1-0.3-2.1-0.6-3.1-0.9C111.9,155.5,113,155.8,114,156.1z"/>
	<path fill="#D4CDCE" d="M35,85c-0.7-0.3-1.3-0.7-2-1l0,0c0.7-0.6,1.5-0.4,2.2-0.3l0.2-0.2C35.6,84.1,35.5,84.6,35,85L35,85z"/>
	<path fill="#DDD0D1" d="M144.8,149c-0.3,0.3-0.5,0.5-0.8,0.8C144.3,149.5,144.5,149.3,144.8,149z"/>
	<path fill="#621F22" d="M175,84c0.3,0.3,0.6,0.6,1,0.9c-0.2,0.2-0.4,0.4-0.7,0.3c-0.2-0.1-0.3-0.2-0.5-0.2
		C174.7,84.6,174.8,84.3,175,84z"/>
	<path fill="#621F22" d="M175.3,85.2c-0.3,0.3-0.7,0.6-1,1c-0.1-0.1-0.3-0.3-0.4-0.4c0.1-0.7,0.4-1.1,1.2-0.8
		C175,85,175.3,85.2,175.3,85.2z"/>
	<path fill="#621F22" d="M174.2,86.2c-0.3,0.3-0.7,0.6-1,1c0,0-0.2-0.2-0.2-0.2c-0.2-0.9,0.1-1.2,1-1L174.2,86.2z"/>
	<path fill="#FCFBFB" d="M120,125c0.2,0.2,0.3,0.3,0.5,0.5c-0.1,0-0.2,0-0.3-0.1C120.1,125.3,120.1,125.1,120,125L120,125z"/>
	<path fill="#D4CDCE" d="M30,81.1c0.4,0.2,0.8,0.4,1.3,0.6C30.8,81.5,30.4,81.3,30,81.1z"/>
	<path fill="#804B28" d="M37,81c-3.3-1-6.6-2.1-9.9-3.1c-2.6-1.6-5.3-3.2-8-4.7c-1.4-0.8-2.8-1.4-4.2-2.1c0-0.6,0-1.3,0-1.9
		c8.1,3.4,16.2,6.7,24.2,10.1c1.4,0.6,2.6,1.8,3.9,2.7c-0.2,0.2-0.3,0.3-0.5,0.5C41.3,83,40.3,81.1,39,82c-0.3,0-0.7-0.1-1-0.1
		C37.7,81.6,37.3,81.3,37,81z"/>
	<path fill="#AB7C57" d="M93,155c5.4,1.5,10.8,2.8,16.1,4.7c7.4,2.6,15,3.9,22.9,3.3c0.2,0.1,0.4,0.2,0.5,0.2
		c0.5,0.3,0.9,0.8,1.3,1.2c0.1,0.2,0.1,0.4,0.2,0.6c-0.7,0.7-1.4,1.7-2.3,1.9c-1.9,0.6-3.8,0.7-5.7,1.1c-4.8,2-9.6,1.2-14.4-0.3
		c-2.2-0.7-4.3-1.6-6.6-2.5c-0.5-1.3,2-4.7-2.6-3.9c-1.3,0.2-2.9-1.8-4.7-3c-0.5,1.2-0.9,2.3-1.4,3.3c-0.3-0.1-0.5-0.1-0.8-0.2
		c0.1-1.2,0.2-2.3,0.4-3.5c-1.7,0-3.5,0-5.2,0c-0.1-0.4-0.3-0.7-0.4-1.1C91.2,156.3,92.1,155.6,93,155z"/>
	<path fill="#875230" d="M171.9,130.3c2.5-2.3,5-4.7,7.5-7c0.7-0.6,1.6-0.9,2.5-1.4c-0.7,2.5-1.4,4.9-2.2,7.4
		c-0.2,0.5-0.8,1.3-1.3,1.3C176.3,130.6,174.1,130.4,171.9,130.3z"/>
	<path fill="#601F1E" d="M24.3,128.7c2.4,0.7,5.7-0.3,6.8,3.2l-0.2,0.2c-2.4-1-4.7-2-7.1-2.9l0.1-0.5L24.3,128.7z"/>
	<path fill="#875230" d="M33,127c2,1.3,4,2.7,6,4C36.2,130.8,33.6,130.5,33,127z"/>
	<path fill="#875230" d="M28,123c1.7,1.3,3.3,2.7,5,4C30.2,127.1,28.5,125.9,28,123z"/>
	<path fill="#AB7C57" d="M132,163c1.3-2.9,2.7-1.3,4,0c-0.7,0.7-1.3,1.4-2,2l-0.2-0.2C133.2,164.2,132.6,163.6,132,163L132,163z"/>
	<path fill="#601F1E" d="M18.2,124.8c1.7,1,3.3,2,5,3.1c-0.2,0.1-0.3,0.3-0.5,0.4c-1.7-1-3.3-1.9-5-2.9
		C17.5,124.9,17.7,124.7,18.2,124.8z"/>
	<path fill="#875230" d="M18.9,118.1c1.4,0.6,2.7,1.3,4.1,1.9C20.6,121.6,19.7,120.1,18.9,118.1z"/>
	<path fill="#875230" d="M25,121c1,0.7,2,1.3,3,2C27,122.4,26,121.7,25,121z"/>
	<path fill="#601F1E" d="M17.7,125.4c-0.6-0.4-1.3-0.7-1.9-1.1c-0.1-0.4,0.1-0.6,0.5-0.6c0.6,0.4,1.3,0.7,1.9,1.1
		C18,125,17.9,125.2,17.7,125.4z"/>
	<path fill="#AB7C57" d="M102.1,163.8c-0.1,0-0.3-0.1-0.4-0.1c0.2-0.1,0.3-0.3,0.5-0.4c0,0,0.2,0.2,0.3,0.3
		C102.3,163.6,102.2,163.7,102.1,163.8z"/>
	<path fill="#875230" d="M12.9,116.2c0.7,0.3,1.3,0.6,2,0.9C14.3,116.8,13.6,116.5,12.9,116.2z"/>
	<path fill="#601F1E" d="M31.1,131.9c0.4,0.1,0.9,0.3,1.3,0.4c-0.1,0.2-0.4,0.5-0.4,0.5c-0.4-0.2-0.7-0.4-1.1-0.7L31.1,131.9z"/>
	<path fill="#601F1E" d="M15.8,124.3c-0.3-0.3-0.7-0.7-1-1c0.5,0.2,1,0.3,1.6,0.5C16.1,123.9,15.9,124.1,15.8,124.3z"/>
	<path fill="#AB7C57" d="M84,150c0.3,0.3,0.7,0.6,1,1C84.7,150.7,84.4,150.3,84,150z"/>
	<path fill="#601F1E" d="M23.2,127.8c0.4,0.3,0.8,0.6,1.2,0.8c-0.2,0.2-0.4,0.4-0.5,0.5c-0.4-0.3-0.7-0.6-1.1-0.9
		C22.9,128.1,23,128,23.2,127.8z"/>
	<path fill="#804B28" d="M179,80.1c-0.6,0-1.3,0-1.9-0.1c2.8-3.9,6.1-7,10.9-8.1C185,74.7,182,77.4,179,80.1z"/>
	<path fill="#D3B988" d="M106,80.9c-7.5-4.7-16.1-6.8-24.4-9.6c-11.6-3.8-23.2-7.8-34.8-12c-7.8-2.8-15.4-6.1-23-9.4
		c-1.9-0.8-3.7-2.3-5.2-3.7c-2.4-2.4-2.6-5.5-0.4-8c1.4-1.6,2.9-3.3,4.7-4.5c7.9-5.5,15.9-10.8,23.8-16.2c11.3-7.6,23.9-9.2,37.1-7
		c5.2,0.9,10.1,2.9,15.2,4.3c2.5,0.7,5.2,1.2,7.8,1.5c8.7,1,16.3,5.3,24.4,8.1c8.6,3,17.3,5.5,25.9,8.4c5.2,1.8,10.2,3.9,15.2,6.1
		c1.8,0.8,3.5,1.9,5,3.1c2.2,1.9,3,4.1,1.6,7.1c-1.8,3.7-4.1,6.8-7.6,8.9c-11.4,7-22.7,14.4-34.3,21.2c-5.8,3.4-12.3,5-19.1,4.7
		C113.6,84.8,109.6,83.7,106,80.9z"/>
	<path fill="#804B28" d="M50,86.9c-2.4-1.3-4.8-2.6-7.2-3.8c-0.3-0.3-0.4-0.5-0.3-0.7c0.1-0.2,0.2-0.3,0.3-0.3l0.1-0.1
		c5.3,1.7,10.6,3.4,15.9,5.2c9.6,3.3,19,6.7,28.6,9.8c10.2,3.3,20.6,6.1,30.8,9.3c10.8,3.4,20.5,0.8,29.7-5
		c3.8-2.4,7.2-5.2,10.9-7.7c1.2-0.8,2.7-1.1,4-1.6c0.4-0.3,0.8-0.3,1.1,0c-0.4,0.4-0.8,0.7-1.1,1.1c-0.4,0.2-0.7,0.6-0.9,0.9
		c-4.5,3.3-9,6.4-13.4,9.8c-0.9,0.7-1.1,2.1-1.7,3.1l-0.2,0.2l-0.3-0.1c-0.6,0.1-1,0.5-1.4,0.8c-0.2,0.2-0.5,0.3-0.8,0.3
		c-1.5-0.5-2.6,0.6-4,0.9c-8.8,4.2-17.7,1.6-26.6,0.5c-0.5-0.1-1-0.1-1.5-0.2c-6.8-3.3-14.3-4.4-21.3-7.1
		c-5.6-2.7-11.8-3.9-17.6-6.2c-1.6-0.6-3-1.2-4.1-2.5c-0.1-0.1-0.3-0.2-0.6-0.2c-1.4-0.6-2.8-1-4.3-0.6c-4-1-7.7-2.9-11.3-4.7
		c-0.1-0.8-0.2-1.5-1.2-0.7C51.1,87.6,50.5,87.6,50,86.9z"/>
	<path fill="#AC775A" d="M99.9,85.2c2-0.4,4.1-0.8,6.1-1.2c0.4-0.3,0.8-0.5,1.3-0.4c2,0.6,4.3,0.8,5.1,3.2c0,0.9-0.5,1.4-1.2,1.7
		c2,1.2,3.6-0.1,5.2-1.2c1.5-0.4,2.9-0.4,4,1c0.3,0.6,0.4,1.3,0.4,2c-0.8,1.6,1.7,2.1,1.2,3.6c-4.6-0.7-9.3-1-13.8-2.2
		c-2.1-0.6-5.3,0.3-6.2-3c0.5-0.4,1.1-0.6,2-0.3C102.6,87.2,100.1,87.6,99.9,85.2z"/>
	<path fill="#AF7A62" d="M120,91.1c0-0.9,0.1-1.7,0.1-2.6c3.1-1.2,6.3-0.1,8.7-0.6c-7.2,0.6-14.6-1.6-21.9-4l-0.4,0l-0.4,0
		c0-1,0-2,0-3c4,1.1,8,2.1,12,3.2c3.2,0.3,6.4,0.7,9.6,0.9c2.1,0.1,4.3,0,6.4,0c0.8,0.1,0.1,3.2,2,1l0,0c0.4,1.5,1.8,2.8,1,4.6
		c-1.9,2.2-4.6,1.6-7.1,1.8c-2.5-0.1-5.1,0.2-7.6-0.3C121.5,91.9,120.6,91.8,120,91.1z"/>
	<path fill="#601F1E" d="M81,81l-0.3-0.1l-0.3,0c-1-0.7-2.4,0-3.3-1l0,0c-0.8-0.8-2.2,0-3-1l0,0c-1.3-0.7-3.1-0.6-4.1-2l-0.3-0.1
		l-0.3,0c-3.6-1-7.2-1.9-10.3-4c-0.7-0.3-1.3-0.6-2-0.9c-1.3,0.6-2.1-0.3-3-1c-0.6-0.4-1.3-0.8-1.9-1.2c0.4-2.3,1.9-1.7,3.3-1.3
		c4,1.1,8,2.5,11.5,4.8c0.7,0.2,1.4,0.5,2.1,0.7c1.9,0.1,3.6,0.6,5,1.9c4.1,1.4,8.3,2.8,12.4,4.4c1,0.4,1.7,1.3,2.6,2
		c0.2,0.5,0,0.9-0.5,1.2c-1.2,0.2-2.4,0.2-3.4-0.6l0,0c-0.8-0.8-2.2,0-3-1l0,0C81.7,81.7,81.3,81.3,81,81z"/>
	<path fill="#AC775A" d="M66.9,73.3c-3.5-1.2-7-2.6-10.5-3.6c-1.3-0.4-2.8,0.1-4.3,0.1c-0.2,0.2-0.5,0.7-0.6,0.7
		c-4.6-0.8-9.2-1.8-12.5-5.5c0.4-0.8,1.2-1,2-1c2.8,1.4,5.6,1.9,8.8,2.3C55.9,67.2,62.3,68.4,66.9,73.3z"/>
	<path fill="#59191A" d="M130.3,91.1c2.2-0.4,4.5-0.8,6.7-1.2c1.8-1.5,4.1-1.9,6.1-2.9l0,0c0.3-0.4,0.6-0.7,1.1-1l0.1,0.1
		c1.3-0.9,2.5-1.4,2.8,0.8l0,0c-0.5,1.4-2,1.4-3,2l0,0c-0.5,0.5-1.3,0.5-1.7,1c-2.1,1-4.2,2.1-6.4,3.1c-4,0.1-7.9,2.4-12,0.7
		c-0.6,0-1.3,0-1.9,0.1c-1.1-0.4-2.3-0.9-3.7-1.5c0.6-0.5,1.2-0.9,1.7-1.4c0.6,0,1.2,0,1.7,0C124.6,91.8,127.4,91.7,130.3,91.1z"/>
	<path fill="#AC775A" d="M147,87c-0.9-0.3-1.9-0.6-2.8-0.8c-0.7-1.4-1.5-2.7-2.6-5c5.6,2.7,9.6-0.3,13.9-2
		C155.9,83.6,153.2,86,147,87z"/>
	<path fill="#804B28" d="M174,86c-0.3,0.3-0.7,0.7-1,1c-2.3,1.1-4.7,2.1-7,3.2c-0.6,0.3-1.3,0.5-1.9-0.1c4.3-3.3,8.6-6.7,12.9-10
		c0,0.6,0,1.3,0,1.9c-0.7,0.7-1.4,1.3-2,2c0,0.3-0.1,0.7,0,1C174.7,85.3,174.3,85.7,174,86z"/>
	<path fill="#59191A" d="M89,82.8L89,82.4c0.6-0.1,1.2-0.2,1.8-0.3c0.9,0.8,2.3,0,3.1,1l0,0c2,0.8,4.3,0.4,6,2l-0.1,0.1
		c2.2,1.1,4.4,2.2,6.6,3.3c0,0.3-0.1,0.5-0.1,0.8c-1.4-0.2-2.9-0.3-4.3-0.5c-0.7-0.3-1.3-0.6-2-0.9c-0.5,0.5-0.8,0.4-0.9-0.3
		c-0.6-0.2-1.3-0.4-1.9-0.7c-2.3-0.8-5-0.6-7.2-2l0,0C89.3,84.4,88.2,84.1,89,82.8z"/>
	<path fill="#601F1E" d="M41,64c-0.7,0.3-1.3,0.7-2,1l-0.4-0.1l-0.4,0c-0.8-0.9-2.4,0.1-3.1-1.2c-0.7-0.3-1.4-0.5-2-0.8
		c-0.3,0.4-0.6,0.4-0.9-0.1l0,0c-0.6-0.5-1.6-0.3-2-1.1c-0.7-0.3-1.4-0.5-2-0.8c-0.3,0.4-0.7,0.4-0.9-0.1l0,0
		c-0.7-0.7-2.3-0.2-2.4-1.7c0.2-0.7,0.6-1.1,1.3-1.3C31,60,36,62,41,64z"/>
	<path fill="#59191A" d="M26,57.9c-0.4,0.4-0.8,0.8-1.2,1.2c-0.6,0.5-1.2,0.5-1.8,0c-0.3-0.1-0.6-0.1-0.9-0.1
		c-0.4-0.3-0.7-0.6-1.1-0.9c-0.3-0.1-0.5-0.2-0.8-0.2c-2.2-1.1-5.2-0.8-6.4-3.6c0.2-0.3,0.4-0.5,0.6-0.8C18.2,55,22.1,56.5,26,57.9z
		"/>
	<path fill="#AC775A" d="M123.9,93.9c4-0.2,8-0.5,12-0.7C132,94.7,128.1,96.4,123.9,93.9z"/>
	<path fill="#AC775A" d="M13.8,54.3c2.1,1.2,4.3,2.4,6.4,3.6c-3.4,0.1-6.6-0.4-8.2-4C12.6,54.1,13.2,54.2,13.8,54.3z"/>
	<path fill="#AC775A" d="M59,72.9c3.4,1.3,6.9,2.7,10.3,4C65.3,77,61.8,76,59,72.9z"/>
	<path fill="#AC775A" d="M143,87c-2,1-4,1.9-6.1,2.9c-0.3-1.3-0.7-2.6-1-3.9C137.9,89.4,140.7,86.6,143,87z"/>
	<path fill="#621F22" d="M189.2,57.1c-1.1,0.7-2.2,1.4-3.2,2.2c-0.4-0.4-0.7-0.8-1.1-1.2c1-1.1,2-2.1,3-3.2
		C188.9,55.3,189.1,56.2,189.2,57.1z"/>
	<path fill="#5C1A22" d="M189.2,57.1c-0.4-0.7-0.8-1.5-1.3-2.2c1.2-0.5,2.4-0.9,3.6-1.4c0.2,0.3,0.5,0.5,0.7,0.8
		C191.3,55.3,190.3,56.2,189.2,57.1z"/>
	<path fill="#AC775A" d="M90.1,84.9c2.4,0.7,4.8,1.4,7.2,2C94.6,87,91.9,87.6,90.1,84.9z"/>
	<path fill="#AC775A" d="M74,76c-1.7-0.6-3.4-1.3-5-1.9C71.3,72.9,73.1,73.4,74,76z"/>
	<path fill="#AC775A" d="M99.9,85.1c-2-0.7-4-1.4-6-2C96.1,83.2,98.8,82,99.9,85.1z"/>
	<path fill="#AC775A" d="M89,82.8c0.3,0.7,0.7,1.4,1,2.1c-1.7-0.7-3.4-1.3-5-2C86.4,82.9,87.7,82.8,89,82.8z"/>
	<path fill="#AC775A" d="M70,76.9c1.4,0.7,2.7,1.3,4.1,2C72.4,78.8,70.3,79.8,70,76.9z"/>
	<path fill="#AC775A" d="M23,59.1c0.6,0,1.2,0,1.8,0c0.8,0.6,1.5,1.2,2.3,1.8C25.5,60.7,23.4,61.9,23,59.1z"/>
	<path fill="#6A2B25" d="M164.1,90.1c0.6,0,1.2,0.1,1.9,0.1c-0.6,0.6-1.2,1.2-1.8,1.8c-0.4,0-0.8,0-1.1,0
		C163.4,91.3,163.8,90.7,164.1,90.1z"/>
	<path fill="#AC775A" d="M54,71c1,0.3,2,0.6,3,1C55.4,73.7,54.4,73.2,54,71z"/>
	<path fill="#AC775A" d="M144,89c1-0.7,2-1.3,3-2C147,89.2,145.4,89,144,89z"/>
	<path fill="#AC775A" d="M136,86c-0.6,0.5-1.1,0.9-2,1.6c0-1.1,0-1.8,0-2.6C134.7,85.3,135.3,85.7,136,86z"/>
	<path fill="#AC775A" d="M93.9,83.1c-1-0.3-2.1-0.7-3.1-1C91.9,82.4,92.9,82.8,93.9,83.1z"/>
	<path fill="#AC775A" d="M82.1,81.9c1,0.3,2,0.7,3,1C84.1,82.6,83.1,82.2,82.1,81.9z"/>
	<path fill="#AC775A" d="M35.1,63.7c1,0.4,2.1,0.8,3.1,1.2C37.1,64.5,36.1,64.1,35.1,63.7z"/>
	<path fill="#AC775A" d="M74.1,78.9c1,0.3,2,0.7,3,1C76.1,79.6,75.1,79.2,74.1,78.9z"/>
	<path fill="#AC775A" d="M77.1,79.9c1.1,0.3,2.2,0.7,3.3,1C79.2,80.6,78.1,80.2,77.1,79.9z"/>
	<path fill="#AC775A" d="M9,52.1c0.4,0.3,0.7,0.5,1.1,0.8c-0.2,0.2-0.5,0.4-0.7,0.5C9.2,53,9.1,52.6,9,52.1z"/>
	<path fill="#AC775A" d="M30.1,61.8c0.7,0.4,1.3,0.8,2,1.1C31.4,62.5,30.7,62.2,30.1,61.8z"/>
	<path fill="#AC775A" d="M142.3,90c0.6-0.3,1.1-0.7,1.7-1C143.4,89.3,142.9,89.6,142.3,90z"/>
	<path fill="#AC775A" d="M27.1,60.9c0.3-0.1,0.6,0,0.9,0.1C27.7,60.9,27.4,60.9,27.1,60.9z"/>
	<path fill="#AC775A" d="M144.1,86.1c-0.4,0.3-0.7,0.6-1.1,1C143.4,86.7,143.7,86.4,144.1,86.1z"/>
	<path fill="#AC775A" d="M99.1,87.6c0.3,0.1,0.6,0.2,0.9,0.3c-0.2,0.2-0.4,0.4-0.7,0.6C99.3,88.2,99.2,87.9,99.1,87.6z"/>
	<path fill="#AC775A" d="M21,58.1c0.4,0.3,0.7,0.6,1.1,0.9C21.7,58.7,21.4,58.4,21,58.1z"/>
	<path fill="#AC775A" d="M81,81c0.4,0.3,0.7,0.6,1.1,1C81.7,81.6,81.3,81.3,81,81z"/>
	<path fill="#AC775A" d="M32.1,62.9c0.3-0.1,0.6-0.1,0.9,0.1C32.7,62.9,32.4,62.9,32.1,62.9z"/>
	<path fill="#642426" d="M69.2,93.7c5.7,1.8,11.5,3.5,17.1,5.4c1.7,0.6,3.2,1.8,4.8,2.7c0.3,0.5,0.3,1-0.2,1.4
		c-6.4-2.1-12.9-4.1-19.2-6.4C70.7,96.4,70.1,94.7,69.2,93.7z"/>
	<path fill="#55141B" d="M112,108.9c3.9,0.4,8,0.4,11.8,1.3c6.1,1.4,11.6-0.3,17.2-2.1c0.9,0,1.8,0.1,2.3,1
		c-7.4,4.6-15.5,3.5-23.5,2.6c-2.6-0.3-5.2-1.2-7.7-1.8c-0.2-0.2-0.3-0.5-0.2-0.7C111.9,109,111.9,108.9,112,108.9z"/>
	<path fill="#621F22" d="M112,108.9c0,0.3,0,0.7,0,1c-7-2.2-14-4.5-21.1-6.7c0.1-0.5,0.1-0.9,0.2-1.4c6.5,1.9,13.1,3.7,19.6,5.7
		C111.2,107.6,111.6,108.4,112,108.9z"/>
	<path fill="#621F22" d="M52.9,87.1c4,1.7,8.1,3.3,12.1,5c0.5,0.7,0.6,1.3,0,2c-5.5-2-10.9-3.9-16.4-5.9c0.5-0.4,0.9-0.8,1.4-1.2
		c0.7,0,1.3,0.1,2,0.1C52.3,86.7,52.6,86.7,52.9,87.1z"/>
	<path fill="#6A2B25" d="M143.3,109.1c-0.8-0.3-1.5-0.7-2.3-1c1.2-1.5,2.2-1.3,3.2,0.2C143.9,108.5,143.6,108.8,143.3,109.1z"/>
	<path fill="#733527" d="M65,94c0-0.7,0-1.3,0-2c2.2-1.9,2.6,0.5,3.6,1.5l-0.1,0.1c-0.8,0-1.7-0.2-2.5,0.3C65.7,94,65.3,94,65,94z"
		/>
	<path fill="#642426" d="M66,94c0.8-0.1,1.7-0.2,2.5-0.3C68.1,96.8,66.9,93.9,66,94z"/>
	<path fill="#ECE9E9" d="M35,85c0.1-0.5,0.3-1,0.4-1.5c0.5,0.2,1,0.4,1.5,0.5C36.3,84.4,35.7,84.7,35,85z"/>
	<path fill="#621F22" d="M145,107.9c0.5-0.3,1-0.6,1.4-0.8C146,107.3,145.5,107.6,145,107.9z"/>
	<path fill="#602126" d="M129,136c-0.3,0.2-0.7,0.4-0.2,0.1C128.2,136.2,128.6,136.1,129,136L129,136z"/>
	<polygon fill="#663439" points="117.9,135 118.2,135.2 118,135 	"/>
	<path fill="#6A2B25" d="M162.1,94c0.3-0.3,0.6-0.6,0.9-0.9C162.7,93.4,162.4,93.7,162.1,94z"/>
	<path fill="#733527" d="M42.9,82c0,0.4,0,0.7-0.1,1.1c-1.3-0.4-2.6-0.7-3.9-1.1C40.3,82,41.6,82,42.9,82z"/>
	<path fill="#ECE9E9" d="M35.2,83.7c-0.7,0.1-1.5,0.2-2.2,0.3c0-0.5,0.1-1.1,0.1-1.6C33.8,82.8,34.5,83.3,35.2,83.7z"/>
	<path fill="#733527" d="M37,81c0.4,0.3,0.7,0.6,1.1,0.9C37.7,81.6,37.3,81.3,37,81z"/>
	<path fill="#A67A4F" d="M117.7,167.9c-0.4-0.7-0.8-1.5-1.3-2.2c0.2-0.1,0.4-0.3,0.6-0.4c0.5,0.7,1,1.3,1.6,2
		C118.3,167.4,118,167.7,117.7,167.9z"/>
	<path fill="#875230" d="M132,163c0.6,0.6,1.2,1.2,1.8,1.8C133.2,164.2,132.6,163.6,132,163z"/>
	<path fill="#A67A4F" d="M126,168c-0.8-0.1-1.6-0.1-2.4-0.2c0-0.2,0.1-0.5,0.1-0.7c0.8,0.2,1.5,0.3,2.3,0.5
		C126.1,167.8,126,167.9,126,168z"/>
	<path fill="#A3774D" d="M43.1,48.2c-1.2-0.3-3.4-0.5-5.3-1.4c-2.5-1.2-4.2-3.2-3.9-6.3c0.3-3.2,2.5-5.6,5.1-6
		c3.3-0.6,6.9,0,10.2,0.8c2.9,0.7,4.9,3,4.5,6.3c-0.4,3.3-2.7,5.3-5.8,6.2C46.8,48.1,45.4,48,43.1,48.2z"/>
	<path fill="#A97E55" d="M151.8,52c0.5,0,0.1,0-0.2,0c-4.4-0.4-8.6-4.1-8.6-7.6c0-4.1,3.4-7,8.4-7.4c0.5,0,1,0,1.5,0
		c5.5,0.5,9.6,3.4,9.7,8.1C162.7,49.2,158.1,52.1,151.8,52z"/>
	<path fill="#A77C50" d="M122.3,73.4c-2.1-0.9-4.7-1.6-6.9-2.9c-3.5-2.2-3.4-6.8,0-9.1c4.2-2.8,10.7-2.2,14.2,0
		c3.8,2.4,3.3,8.6-1,10.6C126.9,72.8,124.8,72.9,122.3,73.4z"/>
	<path fill="#A4784F" d="M74.5,52.6c0.9-1.5,1.5-2.8,2.4-3.9c3-3.3,10.1-3.9,13.8-1.3c3,2.1,3.4,6.8,0.8,9.6
		c-3.6,3.8-11.3,3.9-14.8,0C75.7,55.9,75.3,54.3,74.5,52.6z"/>
	<path fill="#A4784F" d="M112,25.8c3.4-1.9,6.8-0.9,8.8,1.8c1.1,1.6,0.6,4.6,0.3,6.8c-0.1,1-1.5,2.3-2.6,2.7
		c-4.5,1.6-9.2,1.8-13.2-1.3c-1.4-1.1-2.3-3.8-2-5.5c0.5-2.6,2.5-4.7,5.8-4.2c0.1,0.3,0.2,0.6,0.2,1c-0.4,2.2-1.7,4.8,1.4,6
		c2.7,1.1,5.1,0.5,7-1.8c-0.9-2.3-2.6-1.3-4-1.4C110.4,29.7,110,28.3,112,25.8z"/>
	<path fill="#A3774D" d="M79,16.9c4-1.1,4.9,2,6.2,4.6c1.3,2.7-0.4,4.4-2.2,5.9c-3.6,2.9-12.2,2-15.2-1.4c-2.7-3-1.7-6.1,2.5-7.8
		c1.3,1.2,0.6,3.2,1.9,4.4C80.6,23.5,80.6,23.5,79,16.9z"/>
	<path fill="#733527" d="M112,25.8c-0.1,1-0.3,1.9-0.5,3.5c1.7-0.5,3-1.3,4.3-1.2c1.2,0.1,2.8,0.9,3.4,1.8c0.4,0.6-0.5,2.3-1.2,3.2
		c-0.5,0.7-1.8,0.7-2.7,1.1c-2.9,1.3-5.8,0.9-7.7-1.5c-1.9-2.4-0.2-4.7,1.4-6.7C110,26,111,25.9,112,25.8z"/>
	<path fill="#6A2B25" d="M79,16.9c0.7,0.9,1.8,1.7,2.1,2.7c0.4,1.1,0.6,2.8,0,3.6c-0.8,0.9-2.4,1.5-3.7,1.5
		c-2.1,0.1-4.1-0.4-7.2-0.8c0-1.6,0-3.6,0-5.7c1.6-0.4,3.2-0.8,4.8-1.2c0.5,0.7,0.2,1.6,0.7,2.3c1.3-0.4,0.4-1.9,1.3-2.4
		C77.7,16.9,78.3,16.9,79,16.9z"/>
	<path fill="#A3774D" d="M77,16.9c0.5,1.1,1,2.3,1.7,3.8c-2,0-3.6,0-6,0c1-1.6,1.6-2.6,2.2-3.7C75.7,17,76.3,16.9,77,16.9z"/>
	<path fill="#733527" d="M52.9,87.1c-0.3,0-0.6,0-0.9,0C52.3,87,52.6,87.1,52.9,87.1z"/>
	<path fill="#642426" d="M106.9,84c2.9,0.5,5.8,1,8.7,1.4c5.5,0.8,11,1.5,16.6,2.3c-3.8,2.3-8,1.2-12.1,0.9c-1.3-0.2-2.7-0.5-4-0.7
		c-1.5,0.3-3,0.6-4-1C110.4,85.9,108.6,84.9,106.9,84z"/>
	<path fill="#AF7A62" d="M112.1,86.8c1.3,0.3,2.6,0.7,4,1c-1,4.9-3.5,1.2-5.4,0.9C111.2,88,111.6,87.4,112.1,86.8z"/>
	<path fill="#AC775A" d="M130.3,91.1c-2.9,0-5.7,0-8.6,0C124.6,91.1,127.4,91.1,130.3,91.1z"/>
	<path fill="#621F22" d="M39.5,37.1c1,0.9,1.9,1.7,2.9,2.5c1.5-0.4,2.9-0.8,4.3-1.2c1.1,2.2,0.2,4.1-1.8,4c-2.4-0.1-4.7-1.3-7-2.3
		c-0.3-0.1,0.2-2,0.3-3C38.6,37.1,39,37.1,39.5,37.1z"/>
	<path fill="#733527" d="M145.9,43.6c1.5-1.5,3.1-3.2,4.6-4.8c0.3,0.3,0.7,0.5,1,0.8c-0.4,0.9-0.8,1.8-1.4,3.2
		c1.7,0.2,3.2,0.3,5,0.5c0.1-1.3,0.2-2.2,0.3-4.5c2,2.2,3.3,3.5,4.4,4.7C155.8,49.8,150.6,49.9,145.9,43.6z"/>
	<path fill="#804B28" d="M127.4,62.6c0.8,3,1.2,5-1.4,6.3c-3.2,1.6-6.9,1.3-9.4-0.8c-1.9-1.6-1.6-3.1-0.1-4.6
		c1.8,0.8,3.7,2.3,5.4,2.2C123.6,65.6,125.2,63.9,127.4,62.6z"/>
	<path fill="#6A2B25" d="M81.2,48.1c1.5,1.5,2.5,2.6,3.6,3.7c1.1-1.1,2.2-2.2,3.6-3.6c1.8,0.7,3.2,2.3,2.4,4.7
		c-0.9,2.7-3.6,3-6.1,3.1c-2.3,0.1-4.5-0.2-5.3-2.6C78.5,50.9,79.3,48.9,81.2,48.1z"/>
</g>
</svg>
