<?xml version="1.0" encoding="utf-8"?>
<!-- Generator: Adobe Illustrator 24.1.2, SVG Export Plug-In . SVG Version: 6.00 Build 0)  -->
<svg version="1.1" id="Layer_1" xmlns="http://www.w3.org/2000/svg" xmlns:xlink="http://www.w3.org/1999/xlink" x="0px" y="0px"
	 viewBox="0 0 130 200" enable-background="new 0 0 130 200" xml:space="preserve">
<g>
	<path fill="#0E2024" d="M0,48c0-2,0-4,0-6c1.4-8.6,3.1-17,9-23.9C16.4,9.4,25.5,3.7,36.8,1.9C40.2,1.3,43.6,0.5,47,0
		c3.7,0,7.3,0,11,0c4.1,1.5,8.5,0.9,12.6,2.3c21.6,7.2,35.2,22,41.5,43.7c4.1,13.9,5.8,28.3,9.8,42.3c3.3,11.7,5.4,23.6,7.6,35.6
		c0.2,1.7-0.5,3.6,0.5,5.2c0,1,0,2,0,3c-1.3,10-8,15.1-16.6,18.4c-3.4,1.3-7,2-10.5,3.1c-5,1.6-5.2,1.8-3.3,6.6
		c3.1,7.8,4.1,16.1,4.7,24.4c0.8,10.5-1.2,13.1-11.2,15.5c-1.3,0-2.7,0-4,0c-8.9-4.2-13.2-11.9-15.3-21.1
		c-1.4-6.1-2.8-12.2-4.2-18.6c-7,1.3-13.7,2.5-20.5,3.8c-0.8-0.1-1.4,0.2-2.1,0.5c-0.6,0-1.3,0.1-1.9,0.1c-0.9-0.7-2-0.8-3.1-0.5
		c-9.2-1.1-14.1-7.6-17-15.2c-4.1-11-7.3-22.3-10.6-33.6c-3.8-12.9-7.3-25.8-10.8-38.8C2.2,71.4,1.2,66.2,0,61c0-0.7,0-1.3,0-2"/>
	<path fill="#8F98A5" d="M0,51c0-1,0-2,0-3"/>
	<path fill="#393630" d="M42,164.2c1.3-1.6,2.4-1.7,3.1,0.5C44,164.5,43,164.4,42,164.2z"/>
	<path fill="#393630" d="M47,164.6c0.4-1.4,0.9-2,2.1-0.5C48.3,164.3,47.6,164.4,47,164.6z"/>
	<path fill="#BC714B" d="M118.8,99c2,9.5,4.2,18.9,5.8,28.4c0.8,5-1.4,9.5-5.5,12.6c-7.1,5.3-15.5,7.5-24.1,9
		c-2.4,0.4-4.6,0.4-6.9,1.8c-2.3,1.4-5.4,1.5-8.1,2.1c-7.6-0.6-14.7,2.4-22,3.5c-4,0.6-7.9,2.2-12,2.4c-1.8-0.6-3.3-1.6-4.1-3.3
		c-1.3-2.9-3.7-3.4-6.5-3.2c-1.6-0.8-2.5-2.3-3.1-3.8c-4.4-9.9-8.3-19.9-10.6-30.5c-1.7-7.8-4.4-15.3-6.5-23
		c-0.5-1.9-1.4-3.8-0.6-5.8c5.7-3.1,7.8-7.8,6.6-14.2c0.1-0.7,0.4-1.3,0.7-1.8c3.1-5.5,3.7-5.8,8.2-1.4c3.3,3.1,6.1,2.8,9.1-0.2
		c2.1-2.1,4.1-2.7,7.1-1.1c4.9,2.7,8.1,1.6,11.2-3.4c3.7-5.9,3.7-5.9,8.8-1.4c4.5,3.9,7.1,3.8,13.9-0.4c1-0.3,2.2-0.5,2.8,0.4
		c2.9,4.3,6.5,3.9,10.5,1.7c1.7-0.9,3.6-1.7,5.5-0.7c1.4,1.5-0.5,3,0.4,4.6c2.6,1.8,6.1-0.3,9,1.5c0.7,3.7-2.5,4-4.5,5.3
		c0.4,3.1,2.2,4.7,5.5,5.1c1.7,0.2,3.7,1,3.3,3.6c-1.4,2.8-1.7,5.5,0.2,8.6c1.7-1.3,0.8-3.6,2.3-4.7C118.3,92.6,116.5,96.7,118.8,99
		z"/>
	<path fill="#393630" d="M34.9,69.8c-2.5-3-4.2-5.4-6.2-7.5c-1.3-1.3-3.1-2.8-4.8-2.8c-0.9,0-2.1,2.6-2.8,4.2
		c-0.6,1.2-0.5,2.6-1.1,3.8c-0.6,1-1.6,2.5-2.5,2.5c-1.4,0-3.7-0.6-4.1-1.6c-1.3-3.1-3.4-5.1-6.1-6.8c-1.1-0.7-1.9-2.7-2.1-4.1
		c-0.3-2.8-0.3-5.7-0.1-8.5c0.6-6.7,1.5-13.4,4.3-19.7c4.8-10.5,13-17.3,23.5-20.9c19.3-6.7,37.5-3.5,54,8.4
		c1.1,0.8,1.7,2.2,2.5,3.4c0.3,0.5,0.4,1.3,0.9,1.6c8.3,4.7,11,13.2,14.5,21.2c1.1,2.6,1.7,5.5,2.6,8.3c-0.3,0.1-0.6,0.2-0.9,0.4
		c-1.3-2.1-2.3-4.3-3.8-6.2c-2.6-3.3-5.5-3.1-7.5,0.6c-1.1,2-1.5,4.3-2.1,6.5c-0.5,1.8-0.9,3.7-1.3,5.4c-3.4,0.5-3.8-1.9-4.6-3.6
		c-1.4-3.2-2.4-6.5-3.9-9.6c-1.5-3.2-4-4.5-6.3-3.3c-2.4,1.2-2.8,3.2-2,5.9c0.9,3.2,1.2,6.5,1.6,9.7c0.2,1.6,0,3.3-0.5,4.7
		c-1,2.8-3.2,3.5-5.3,1.4c-2.3-2.3-4.2-5.1-5.9-7.9c-1.3-2-2.7-3.9-5-2.9c-1.7,0.8-3.2,2.6-4.2,4.4c-0.9,1.5-0.7,3.5-1.3,5.2
		c-0.5,1.4-1.5,2.7-2.5,4.6c-3.7-5-7.6-8.8-9.2-14.3c-0.6-2.2-1.6-4.3-2.7-6.4c-0.4-0.7-1.6-1.5-2.3-1.5c-0.7,0.1-1.9,1.2-1.9,1.9
		c-0.2,3.3-0.3,6.6,0,9.8c0.2,3.4,0.9,6.9,1.2,10.3C36.7,67,35.9,67.9,34.9,69.8z"/>
	<path fill="#BD754F" d="M118.8,99c-0.6-0.8-1.3-1.5-1.8-2.4c-0.9-1.8-1.6-3.7-2.3-5.5c-2.2-0.6-2.6-2.3-2.7-4.2
		c-0.3-2.8-3-2.1-4.6-2.8c-1.1-0.5-2.6-0.3-4.1-0.4c0-1.5,0-2.8,0-4.2c-0.9-0.4-2-0.9-4.1-1.8c3.8-0.9,7.1-0.7,8.8-3.9
		c-4-1.1-8.7,1.8-11.8-3c0.8-0.9,1.7-2,2.6-3c-0.2-0.3-0.4-0.7-0.7-1c-2.5,1.4-5.3,4.1-7.6,3.8c-3-0.4-5.8-1.2-9.2,0.2
		c0.1-1.8,4.1-5-1.2-4.8c-0.6-0.5-0.8-1.2-0.6-2c1.1-4,3.3-4,6.1-1.6c1,0.8,2.1,1.6,2.8,2.7c0.5,0.9,1,0.8,1.7,0.1
		c5.8-2,5.9-8.2,9-13c4.3,3.2,7.1,7.1,10.9,9.8C112.9,74.3,115.8,86.7,118.8,99z"/>
	<path fill="#F0B090" d="M77.1,159.5c3-0.8,6-1.7,8.9-2.5c2.8,0.8,2.9,3.3,3.5,5.5c2.6,9.2,4.1,18.8,10.3,26.7
		c-0.3,1.1-0.5,2.2-0.8,3.3c-0.4,0.1-0.6,0.3-0.6,0.7c-0.2,0-0.3,0.1-0.4,0.4c-0.4,0-0.6,0.2-0.7,0.6c-1.1,0.3-2.2,0.6-3.4,0.9
		c-12.4-6.3-16.8-17.4-18.1-30.4C75.7,162.8,75.5,160.9,77.1,159.5z"/>
	<path fill="#F0B090" d="M14.8,89c2.3,8.1,4.6,16.2,6.8,24.3c0.6,2.1,0.8,4.2,1.4,6.2c0.8,2.8,1.5,5.5,2.5,8.2
		c3,7.8,6.2,15.5,9.4,23.2c0.2,0.4,0.7,0.7,1,1c3.6,0.9,5.3,5,9,5.8c6.3-1.4,12.5-3,18.9-4.1c5.3-0.9,10.6-3.3,16.1-0.8
		c-8.1,1.7-16.1,3.5-24.2,5.2c-2.1,0.5-4.2,0.8-6.3,1.3c-9.7,2.8-17.7-3.6-20.4-10.7c-3.2-8.4-5.6-17.1-8.1-25.7
		c-3.5-11.9-7-23.8-10.3-35.8C9.2,82,8.2,76.5,7,71c3.6-1.8,4.2,1,5.1,3.3c0.5,3.8,1.7,7.4,2.8,11C15.2,86.6,15.2,87.8,14.8,89z"/>
	<path fill="#6F4C3C" d="M80.1,64c0,0.7,0,1.3,0,2c-4.8,5.2-10.1,5.4-15,0.6c-1.3-1.2-2.5-2.5-3.4-3.4c-2.9,3.4-5.1,6.9-8.2,9.2
		c-3.8,2.8-7.5,0.3-10.1-2.2c-3.4,2-6.5,5.1-9.5,5.1c-2.8,0-5.5-3.5-8.7-5.8c-1,1.5-2.2,3.4-3.3,5.2c-0.7,1.6-1.9,2.3-3.6,1.6
		c-0.3-0.2-0.5-0.5-0.5-0.8c0-0.3,0-0.5,0.1-0.5c4.7-2.7,4.6-7.9,6.5-13.5c2.2,2.8,3.8,4.6,5.1,6.6c1.5,2.5,3.2,4.3,6.4,3.5
		c2.5-0.6,4.5-3.8,4-7.3c-0.5-3.6-1.6-7.1-2.4-10.6c-0.1-0.4-0.1-0.9-0.2-2.1c1.2,0.8,2.1,1.1,2.5,1.7c1.5,2.6,2.7,5.3,4.1,8
		c0.9,1.6,1.7,3.5,3,4.5c1.7,1.3,4.1,2.9,6,2.6c1.5-0.2,3-2.8,4-4.5c0.8-1.4,0.7-3.2,1.3-4.8c0.5-1.5,1.4-2.9,2.5-5.2
		c1.5,2.2,2.6,3.6,3.6,5c0.6,1,1.1,2.1,1.7,3c4,5.4,7.6,5.9,12.9,1.6C79.2,63.4,79.7,63.4,80.1,64z"/>
	<path fill="#724F3D" d="M80.1,64c-0.5,0-0.9-0.1-1.4-0.1c-0.3-6.5-0.7-13-1-20c3.2,1.6,4,4.5,5.2,7.2c1,2.3,1.3,5,2.8,6.8
		c1.4,1.8,3.8,3.6,5.9,3.8c2.7,0.3,3.3-2.7,3.7-5.1c0.5-2.6,1.1-5.2,1.8-7.7c0.3-1,1-1.9,2.8-3.6c0.7,1.1,1.8,2.2,1.9,3.4
		c0.4,6,8.3,7.2,8.3,13.4c-5-0.9-7.3-5.2-10.6-8.9c-2.6,5-2.3,11.8-9.4,13c-0.7,0.5-1.4,0.5-1.9-0.2c-1.8-1.5-3.5-2.9-5.7-4.7
		C81.6,62.1,80.9,63,80.1,64z"/>
	<path fill="#E5D1CB" d="M99.8,189.1c-1.5-1.4-3.7-2.6-4.3-4.3c-2.7-7.6-5-15.3-7.5-22.9c-0.5-1.7-1.3-3.3-2-4.9
		c1.6-0.6,3.3-1.2,4.7-1.7c0.6,0.4,1,0.5,1.1,0.7c2.5,8.3,5.2,16.5,7.4,24.8C100,183.4,99.7,186.3,99.8,189.1z"/>
	<path fill="#DB9169" d="M77.1,159.5c0.1,9,1.5,17.7,6.9,25.2c1.9,2.6,4.7,4.5,7,6.8c1.1,1.1,2,2.3,3,3.5c-6.6,1.4-11-1.7-13.3-7.5
		c-2-5-3.3-10.3-4.8-15.4c-1.1-3.7-2.3-7.4-3.7-11.9C74.2,159.8,75.6,159.7,77.1,159.5z"/>
	<path fill="#6F4C3C" d="M11,75c-0.6-2.1-0.9-4.5-4-4c-1.7-1.9-1.2-3.8,0-7c3.3,4.2,6.2,7.7,9,11.2c0.2,0.4,0.2,0.8-0.2,1.2
		c-0.6,0.4-1.3,0.5-2,0.4C12.6,76.6,11.8,75.9,11,75z"/>
	<path fill="#BC714B" d="M16.1,76.3c0-0.3-0.1-0.7-0.1-1c0.7,0,1.3,0,2,0c0,0.3-0.1,0.7-0.1,1c0.1,0.8-0.3,1.2-1.1,1.1
		C16.3,77.2,16,76.8,16.1,76.3z"/>
	<path fill="#393630" d="M98.4,193.1c0.2-0.2,0.4-0.5,0.6-0.7C99,192.7,98.8,192.9,98.4,193.1z"/>
	<path fill="#393630" d="M97.4,194c0.2-0.2,0.5-0.4,0.7-0.6C97.9,193.8,97.7,194,97.4,194z"/>
	<path fill="#BD754F" d="M16.1,76.3c0.6,0,1.2,0,1.8,0c1.3-0.4,2.7-0.9,4-1.3c-0.2,2.8,2.9,5.7-0.9,8.1c1.1,0.8,1.9,1.4,2.7,2
		c-4.1-0.6-5.1,5.1-9,4.1c-0.3-1-0.6-2-0.8-3c1.3-1.7,1.1-3.3,0.1-5c-1-1.6-1.7-3.3-0.1-4.9C14.7,76.1,15.4,76.2,16.1,76.3z"/>
	<path fill="#F0B090" d="M112,86.9c0.9,1.4,1.8,2.8,2.7,4.2c0,2.2,0,4.4,0,6.9c-3.6-0.3-4.6-2.7-4.5-4.9C110.3,91.1,108,88,112,86.9
		z"/>
	<path fill="#BD754F" d="M45,157.8c-4.4,0.2-6.6-3-9-5.8c0.8-0.7,1.7-1.4,2.1-1.8c2.1,1.3,3.7,2.3,5.4,3.3
		C41.7,155.8,45.1,156.1,45,157.8z"/>
	<path fill="#BD754F" d="M98.6,83.3c-2.6-1.5-4.9-2.8-8-4.6c1.6-0.5,2.8-0.8,4-1.1C94.8,80.3,100.7,79.3,98.6,83.3z"/>
	<path fill="#F0B090" d="M115.8,102.1c0.5,1.7,1,3.5,1.7,5.9c-3.4-1.7-3.4-1.7-2.9-5.4C114.9,102.4,115.3,102.2,115.8,102.1z"/>
	<path fill="#BC714B" d="M110.3,82.1c-1.9-0.6-3.4-1-6.1-1.9c1.5-1.1,2.5-2.4,3.4-2.4C110,78,110.9,79.5,110.3,82.1z"/>
	<path fill="#BC714B" d="M88.1,65.9c0.6,0.1,1.3,0.1,1.9,0.2c-0.2,0.9-0.3,1.8-0.5,2.7c-0.3,0-0.6,0-0.8,0.1
		C88.5,67.8,88.3,66.8,88.1,65.9z"/>
	<path fill="#BC714B" d="M14,76.1c0.6,1.8,0.9,3.7,1.9,5.2c1.6,2.8,1.7,3-1.9,4.7c-1-3.7-2-7.4-3-11C12,75.3,13,75.7,14,76.1z"/>
	<path fill="#BC714B" d="M18.8,82.4c-0.2-0.9-0.5-1.9-0.7-2.8c0.4-0.1,0.7-0.2,1.1-0.3c0.3,0.9,0.5,1.9,0.8,2.8
		C19.6,82.2,19.2,82.3,18.8,82.4z"/>
</g>
</svg>
