<?xml version="1.0" encoding="utf-8"?>
<!-- Generator: Adobe Illustrator 24.1.2, SVG Export Plug-In . SVG Version: 6.00 Build 0)  -->
<svg version="1.1" id="Layer_1" xmlns="http://www.w3.org/2000/svg" xmlns:xlink="http://www.w3.org/1999/xlink" x="0px" y="0px"
	 viewBox="0 0 126 200" enable-background="new 0 0 126 200" xml:space="preserve">
<g>
	<path fill="#141D23" d="M126,65c-0.3,0.3-0.9,0.6-0.9,1c-1.5,12.1-5.7,23.5-9.3,35.1c-4.6,14.9-9.2,29.8-13.8,44.6
		c-0.7,2.4-1.6,4.7-2.7,7c-4.1,8.7-10.8,13-20.3,12.1c-5.9-0.6-11.7-2.2-17.5-3.4c-1.3-0.3-2.5-0.5-3.4-0.7
		c-2.1,7.8-4.1,15.3-6.3,22.8c-0.8,2.8-2.3,5.5-3.5,8.2c-2.1,4.4-5.8,6.9-10.2,8.5c-0.7,0-1.3,0-2,0c-9.1-3-12.2-7.4-12.4-17.3
		c-0.2-7.8,2-15.1,4.7-22.2c0.7-2,1.9-3.9,1.5-6.5c-3.4-2.2-7.1-3.8-11.2-4.7c-3.6-0.8-7-2.2-10.2-4c-5-2.9-7.8-7.5-8.5-13.2
		c0-1,0-2,0-3c0.8-2,0.8-4,0-6c0-1.3,0-2.7,0-4c4.6-24.5,11.3-48.5,18.4-72.3c3.8-12.8,10.3-24.5,19.8-34.3
		C44.4,6.1,51.6,1.6,60.7,0.8C61.5,0.7,62.3,0.6,63,0c1,0,2,0,3,0c1.6,1,3.4,0.3,5.1,0.5c29.8-0.6,50.4,25.4,54,45.7
		c0.3,1.9-0.3,4,0.8,5.8C126,56.3,126,60.7,126,65z"/>
	<path fill="#707C85" d="M0,123c1.4,2.5,1.4,3.4,0,6C0,127,0,125,0,123z"/>
	<path fill="#A2A9B2" d="M71,0c0.1,0.2,0.2,0.5,0.1,0.7C69.4,0.5,67.7,0.2,66,0C67.7,0,69.3,0,71,0z"/>
	<path fill="#E46A85" d="M98.7,140.1c-0.1,0.3-0.3,0.7-0.4,1c-2,1.5-2.3,4-3.4,6c-4.7,8.7-12.3,12.5-22,10.8
		c-6.5-1.1-13-2.4-19.3-4.6c-1.9-0.7-3.9-0.7-5.8-1.1c-5.3-1.7-10.5-3.7-15.9-5.1c-5.1-1.3-9.7-3.4-14-6.4c-0.5-0.3-1.2-0.4-1.8-0.6
		c-6.6-5.2-8.1-12.3-7.4-20.1c0.3-2.8,0.8-5.6,1.6-8.3c6.5-21.4,9-43.7,16.3-64.9c2.7-7.8,6.5-14.9,11.4-21.5
		C47.2,13,59.5,7.1,74.5,6.5c0.8,0,1.7,0.1,2.4-0.5c3.6,1,7.2,2,10.7,3.2c0.8,0.3,1.1,1.7,1.6,2.7c-0.6,2-2.5,3-3.5,4.7
		c-3.8,7.1-3,12.9,3.1,18.2c2.6,2.2,3.4,4.6,2.8,7.9c-1.1,6,0.9,10.8,6.1,14.1c2.3,1.4,3.4,3.3,3.6,6.1c0.8,10.7,5,14.8,15.7,15.6
		c0.3,0,0.6,0.3,0.8,0.5c-2.2,6.9-4.5,13.8-6.6,20.8c-1.6,5.3-2.8,10.8-4.5,16.1c-2.4,7.4-5.1,14.8-7.7,22.1
		C98.5,138.7,97.9,139.3,98.7,140.1z"/>
	<path fill="#FDFCFC" d="M110.5,54.1c-2.4-0.2-4-0.2-5.6-0.5c-5.8-0.8-7.6-4-6.6-9.8c0.6-3.6,3.3-5.5,5-8.5
		c-2.3-1.2-4.4-2.3-6.6-3.3c-6-2.8-7.6-8.1-4-13.5c0.5-0.8,1-1.6,1.6-2.5c0.3-0.4,0.6-0.8,1.2-1.7c1.9,0.9,3.8,1.5,5.2,2.6
		c14.3,11,20,25.9,20,43.5c0,2.3-0.3,4.6-0.6,6.9c-0.2,1.6-0.6,3.2-0.9,4.7c-5.6,0.5-9.8-1.5-11.6-5.1
		C105.4,62.4,108.4,58.8,110.5,54.1z"/>
	<path fill="#FDFCFC" d="M76.9,6.1C72.9,7,69,7.8,65.1,8.8c-12.6,3-21.9,10.4-28.8,21.2c-7.6,11.9-11.3,25.3-14.5,38.9
		c-3.5,14.8-7.1,29.5-10.5,44.3c-0.8,3.7-1.1,7.5-1.4,11.3c-0.3,4.7,1.5,8.7,4.3,12.4c0.8,1,1.4,2.2,2,3.3c-0.7,0.3-1.5,1-2,0.8
		c-6.6-2-11.5-10.9-9.6-17.6c0.7-2.4-0.6-5.1,1.2-7.3c-1.9-1.9,0.9-2.6,1.2-4c2.2-10.5,4.8-20.9,7.5-31.2c2-7.7,4.7-15.2,6.7-22.8
		c3.2-12.2,8-23.5,15-34c0.5-0.7,1.3-1.3,1.9-1.9c0.8-0.8,1.8-1.4,2.5-2.4c6.6-9.8,16.2-14,27.6-14.6C71,5.1,73.9,5.7,76.9,6.1z"/>
	<path fill="#DDAB93" d="M39,155c3.4,1.1,6.8,2.2,10.2,3.3c0.4,0.6,0.6,1.2,0.4,1.9c-2.6,11.1-5.8,22.1-7.6,33.4
		c-1.8,2.3-4,1.8-6.3,1C29,181.9,30.4,164.1,39,155z"/>
	<path fill="#DB3562" d="M117.8,79c-3.4,1.1-6.9,1.9-9.9-0.7c-3.7-3.3-7.6-6.6-7.9-12.1c-0.1-2.1,0-4.3,0-6.3
		c-9.6-5.8-11.6-9.9-9-21.5c-1-0.8-2.1-1.7-3.3-2.5c-4.4-3-7.2-9.1-5-15.3c1.3-3.6,2.2-7.3,6.5-8.7c0.2,0.5,0.8,1.4,0.7,1.6
		c-4,4.1-3.9,9.2-3.7,15.1c3.1,2.7,6.7,5.8,10.5,9.2c-1.5,3.2-3.7,7-2,11.5c1.6,4.6,5.1,6.7,9.7,8.1c-1.4,4.8-1.9,9.3,1.2,13.4
		c3.1,4.1,7.6,5,12.5,5.6C118,77.4,117.9,78.2,117.8,79z"/>
	<path fill="#DB3562" d="M47.8,152.2c5.1-0.9,9.6,1.8,14.4,2.5c4.3,0.6,8.7,2.2,13,2.2c9.3,0,13.6-1.5,18.5-10.1
		c0.8-1.4,1.4-3,2.3-4.4c0.5-0.6,1.5-0.9,2.3-1.3c-1.6,4.2-2.7,8.6-4.8,12.5c-2.3,4.3-6.6,6.5-11.6,6.6c-5,0.2-9.9-0.5-14.7-2.1
		C60.8,156.1,54.3,154.1,47.8,152.2z"/>
	<path fill="#FDFCFC" d="M42,193.6c-0.8-12.4,4.2-23.7,7.2-35.3c1.2,0.3,2.5,0.6,4,1c-0.3,1.7-0.4,3.1-0.7,4.5
		c-1.5,6.1-3.3,12.2-4.4,18.3C47.2,186.7,45.6,190.6,42,193.6z"/>
	<path fill="#DA8F67" d="M39,155c-1.8,5.3-3.6,10.5-5.4,15.8c-2.3,6.7-1.9,13.2,1.5,19.5c0.6,1.2,0.5,2.8,0.7,4.2
		c-5.3-2-6.7-4.7-7-10c-0.5-10.7,3.5-20.4,6.6-30.8C36.7,154.2,37.9,154.6,39,155z"/>
	<path fill="#DB3562" d="M98.7,140.1c-0.4-0.2-0.8-0.3-1.2-0.5c0.5-0.5,1-1.1,1.5-1.6C98.9,138.7,98.8,139.4,98.7,140.1z"/>
</g>
</svg>
