<svg xmlns="http://www.w3.org/2000/svg" viewBox="0 0 539.02 513.92"><defs><style>.a{fill:#c7b68b;}.b{fill:#c1a87f;}.c{fill:#fef5c8;}.d{fill:#b19065;}.e{fill:#f4e497;}</style></defs><path class="a" d="M461,185.46c1.19,14.92-1.71,29.24-6,43.42-3.27,10.7-6.62,21.43-9.07,32.33a96.87,96.87,0,0,0-2.13,30.88c1.83,18.76,8.69,35.75,15.54,52.89,3.05,7.63,5.84,15.36,8.81,23q7.52,19.33,15.1,38.63,5.94,15.18,11.9,30.35c-3.18,1.18-6.37,2.31-9.52,3.54a98.42,98.42,0,0,1-22.24,5.93c-4.4.63-8.64,2.32-13,3.53a13.55,13.55,0,0,0-5.55-11c-2.81-2.08-3-3.9-1.42-6.66,4.52-7.89,7.06-16.24,5-26,1.73.41,2.94.76,4.17,1,4,.7,8.63-2,9.48-5.44,1-4.32-.76-7.24-5.66-8.79a59.27,59.27,0,0,0-10-2.67,5.48,5.48,0,0,1-4.75-3.62c-1.82-3.86-3.36-8-5.83-11.37-6-8.25-9.87-17.47-13.7-26.74-1.68-4.08-1-4.8,3.5-5.15,3.61-.29,7.26-.52,10.83-1.12a7.11,7.11,0,0,0,5.77-7.11c.13-3.9-1-6-5-6.84-3.28-.68-6.79-.31-10.2-.34-3.64,0-7.6.87-10.8-.31-1.66-.61-2-4.83-2.92-7.42-.12-.32-.25-.62-.34-.94a95.74,95.74,0,0,1-3.7-23.93c4.8-.32,9.2-.62,13.61-.9,4.93-.31,8-2.82,8.37-6.79.37-4.45-1.15-6.33-6.5-7.74a21.51,21.51,0,0,0-4.88-.59c-3.78-.08-7.56,0-11.61,0,0-5.54-.44-10.63.1-15.61,1-9.48,3.41-18.49,11.86-24.5a12.13,12.13,0,0,0,2.79-2.84c2.88-4,1.05-10-3.43-10.81-4-.72-8.07-.28-11.11,2.85-6.17,6.34-11.44,13.39-13.3,22.2-1.9,9-3.91,18.13-3,27.47.29,3.08-1,4.18-3.77,5.2q-12.69,4.77-25.13,10.24c-4.1,1.81-5.29,5.72-3.79,10,1.11,3.15,3.76,4.45,8.21,3.88a15.08,15.08,0,0,0,3.29-1c7.16-2.8,14.32-5.62,21.55-8.47a13.38,13.38,0,0,1,1.28,2.54c1.78,9.71,3.45,19.44,5.31,29.14.51,2.67-1,3.53-2.92,4.32-5.65,2.34-11.36,4.53-16.92,7.07a6.51,6.51,0,0,0-3.79,7.34c.69,4.05,3.27,6.17,7.31,6a29.32,29.32,0,0,0,7.66-1.74c3.45-1.15,6.73-2.81,10.19-3.88,2.63-.81,4.57-.64,6,2.86,4,9.54,8.83,18.76,13.28,28.12.61,1.28,1,2.68,1.75,4.76-3.18-.3-5.61-.56-8-.77-2.14-.18-4.37-.77-6.4-.36-6.1,1.21-9,5.68-4.92,11.61,1.2,1.76,4.06,2.79,6.36,3.36q9.6,2.36,19.38,4a4.33,4.33,0,0,1,3.88,3.18,24.88,24.88,0,0,1-.12,15.61c-1.14,3.36-2.45,3.88-5.34,1.61-5-4-9.88-8.21-14.83-12.3-2.9-2.39-5.57-5.28-8.86-6.91a10.17,10.17,0,0,0-7.88-.14c-1.58.75-2.45,4-2.71,6.27-.51,4.44,2.85,7.24,5.7,9.83,3.77,3.42,8,6.26,12,9.46a37.48,37.48,0,0,1,3.55,3.78l-.43,1.17c-6.69.44-13.4.63-20.06,1.38-6.39.73-9.65-2.62-12.42-7.68a52.39,52.39,0,0,0-6.91-9.53c-3.43-3.86-9.12-5-11.95-2.93-3.32,2.47-3.3,7.54,0,12.56l5.64,8.5c-3.23,1.3-6,2.41-8.72,3.5-5.14,2-8.09,5.58-7.84,11.33a78.63,78.63,0,0,0-8.53-1.63c-9.41-.79-18.83-1.44-28.25-2-11.92-.73-23.83-1.47-35.76-2-8.87-.37-17.54,0-26.2-3.75-9.41-4.07-19.62-6-27.72-13.14-6.12-5.37-13.9-8.72-19.44-14.88-1.93-2.14-2.89-5.17-4.88-7.23-9.22-9.49-13.9-21.46-17.84-33.58-2.42-7.44-4.36-15.14-4.26-23.33.14-11.52.32-23,3.25-34.14,1.2-4.58,3.44-8.87,4.87-13.4,2-6.44,4-12.91,5.49-19.48s3.16-13.46,3.38-20.23c.29-9.37-.65-18.83-4.4-27.63-3-6.95-6.49-13.68-9.52-20.61-1.57-3.6-2.61-7.43-3.9-11.16,7.75.25,14.7,3.43,21.86,5.86,15.87,5.4,31,12.75,48.22,14.29a79.59,79.59,0,0,0,27.79-2.73c10.33-2.72,20.32-6.77,30.63-9.64s20.77-5.1,31.63-5c16.81.16,33.63,0,50.44,0,10.75,0,21.44-.09,32.17-1.85C435.27,201.28,449.56,196.69,461,185.46Z"/><path class="b" d="M450.43,450c4.32-1.21,8.56-2.9,13-3.53a98.42,98.42,0,0,0,22.24-5.93c3.15-1.23,6.34-2.36,9.52-3.54a6.16,6.16,0,0,1,2.76,4.62c.43,2.86,2,5.52,2.95,8.32,2.23,6.89,5.84,11.92,13.26,14.68,8.16,3,15.31,8,20.33,15.75,4.27,6.55,5.87,13.51,3.42,20.66-1.18,3.44-4.36,6.84-7.53,8.82-10.39,6.48-21.16,4.56-31.17-.93-7-3.85-13.33-9.07-20.07-13.48-10.39-6.8-21.45-11.39-34.21-11.74a121.71,121.71,0,0,0-45.27,7.56c-13.68,4.94-27.51,9.57-41.54,13.34a205.53,205.53,0,0,1-32.13,5.8,406.39,406.39,0,0,1-41.7,2.19c-15.59,0-31.19-1.13-46.76-2-22.35-1.28-44.67-2.91-67-4.16-23.53-1.32-47.07-2.64-70.62-3.45-22.08-.76-44.16-.56-66,3.67a32.89,32.89,0,0,0-12.09,4.86c-4.9,3.18-14.09.79-17.7-4.79-5.65-8.7-5-17.77-.7-26.45a92.41,92.41,0,0,1,11-16.37A332.45,332.45,0,0,0,52,405.46a314.06,314.06,0,0,0,21.73-54.39,148.92,148.92,0,0,0,5.6-28.56c1.32-14.66-3.44-28.27-9.77-41.34-3.46-7.14-7-14.27-10.27-21.48a72.13,72.13,0,0,1-6.79-34.11c2.89,1,6.06,3.23,8.64,2.69,6.22-1.32,12.64-3.1,18.14-6.2a176.13,176.13,0,0,1,38.22-16c10.42-3,20.89-4.83,31.72-4.42,9.27.35,18.53.77,27.79,1.16,1.29,3.73,2.33,7.56,3.9,11.16,3,6.93,6.55,13.66,9.52,20.61,3.75,8.8,4.69,18.26,4.4,27.63-.22,6.77-1.87,13.56-3.38,20.23s-3.47,13-5.49,19.48c-1.43,4.53-3.67,8.82-4.87,13.4-2.93,11.18-3.11,22.62-3.25,34.14-.1,8.19,1.84,15.89,4.26,23.33,3.94,12.12,8.62,24.09,17.84,33.58,2,2.06,2.95,5.09,4.88,7.23,5.54,6.16,13.32,9.51,19.44,14.88,8.1,7.11,18.31,9.07,27.72,13.14,8.66,3.75,17.33,3.38,26.2,3.75,11.93.5,23.84,1.24,35.76,2,9.42.59,18.84,1.24,28.25,2a78.63,78.63,0,0,1,8.53,1.63c2.17,4.6,5.71,6.51,10.33,5.19a72.38,72.38,0,0,0,7.34-3c4.71-1.93,5.26-1.72,6.65,3,.7,2.37,1.07,4.84,1.74,7.22a9.15,9.15,0,0,0,1.57,3.52c2.15,2.49,8.18,3.51,11.15,2.09,3.75-1.77,5.55-5.48,4.78-10-.37-2.12-.85-4.21-1.28-6.32,9.4-.12,18.83-.71,28.2-.16,4.29.25,7.89-.25,11.43-2.39,1.52,1.24,3,2.47,4.55,3.72C441.83,457.81,449.14,455.62,450.43,450ZM97,260.92c-3.23,0-6-.13-8.84,0-5,.28-8.24,3.31-8.66,7.91a9.06,9.06,0,0,0,7.07,9.37c2.26.56,4.55,1,6.84,1.41,5,.9,6.45,2.93,6,8a53.44,53.44,0,0,0,0,7.27c.18,3-.49,5.08-3.74,6.08a8.76,8.76,0,0,0-4.31,3.05c-3.24,4.55-1.74,9.64,3.06,12.67,1.82,1.14,4.42,3,4.49,4.61.22,4.91-.53,9.88-1.09,14.81-.68,6.07-1.72,12.11-2.29,18.19-.37,3.82,2.41,6.12,5.25,7.87a6.4,6.4,0,0,0,7.53-.5c2.94-2.3,5.08-5.18,5.47-9.12,1-9.53,2.13-19,2.94-28.6.29-3.45,2-4,4.92-3.89,4.61.19,5.9.83,5.75,4.2-.21,4.78-.89,9.54-1.39,14.31-.5,4.93-1.3,9.85-1.44,14.79a7.05,7.05,0,0,0,6.78,7.25c4.83.39,9.22-2.06,10.29-6.87,1.76-7.9,2.78-16,4.16-23.95.38-2.23.94-4.42,1.47-6.85,2.68.61,4.76,1.23,6.88,1.53,4.42.62,8.86,1.47,13.3,1.48a9.33,9.33,0,0,0,9.11-7.77c.52-3.4-2.72-7.81-6.92-9.28a33.6,33.6,0,0,0-4.34-1.09c-5-1-10.11-1.93-15.1-3.13a3.77,3.77,0,0,1-2.29-2.52,104.36,104.36,0,0,1-1.07-11.84c-.13-4.44,1.42-5.72,5.76-5.1,3.77.54,7.5,1.5,11.28,1.77,7.09.5,11.9-2.1,12.83-8.73.67-4.82-3.68-8.65-10.14-9.39-5.42-.63-10.83-1.4-16.23-2.14-2.18-.3-3.47-1.16-3.65-3.8a101.07,101.07,0,0,0-1.88-13.74c-1.17-5.62-4.48-7.82-10-7.27-4.45.44-7.12,3.66-7.27,9.14a68.59,68.59,0,0,0,.33,10.44c.32,2.48-.74,3-2.68,2.91-6.52-.15-8.84-1.93-10.31-8.44-.94-4.18-1.27-8.51-2.22-12.69a9.47,9.47,0,0,0-8.38-7.36c-5.94-.36-10,4.59-9.19,11.42C95.55,251.65,96.27,255.89,97,260.92Zm94.45,218.44c1.14,2.14,1.93,3.95,3,5.57,3.12,4.73,8.13,5.18,12.26,1.32,3.18-3,3.94-6.72,4.09-10.82.23-6,.74-6.44,6.65-6.54.5,0,1,0,1.5,0,4.87-.33,7.6-3.11,7.82-7.95.27-5.73-2.74-9-9.89-10.26-5.95-1.07-6.13.33-6.11-7.51a20.67,20.67,0,0,0,0-2.49c-.73-6-5-9.35-10.84-7.79-2.47.66-4.54,2.86-6.7,4.29-.61-1.45-1.33-3.48-2.27-5.4-1.87-3.84-4.85-5-10-4a7.72,7.72,0,0,0-6.39,7.26c-.16,2.15,0,4.32,0,6.48,0,4.87,0,4.87-5,5.12-6.1.31-8.85,2.85-9,8.31s2.27,8.2,8.3,9a19.75,19.75,0,0,1,2.44.43c4.15,1.11,4.34,1.37,3.37,5.44-.68,2.91-1.76,5.74-2.24,8.67a40.77,40.77,0,0,0-.67,9.84c.25,2.72,1.22,5.53,4.66,6.35a10.73,10.73,0,0,0,13-7.1C190.15,485,190.67,482.44,191.45,479.36Z"/><path class="c" d="M102,54.33c.75-1,1.31-2.47,2.3-2.86,5.15-2,8.61-6.06,12.58-9.59a83.57,83.57,0,0,1,11.56-8.49c6-3.72,12.79-4.81,19.84-5.62,8.5-1,16.3,1.2,24.2,3.22,8.18,2.09,15.47,1.42,21.36-5.21,3.63-4.07,7.11-8.27,10.67-12.4,9-10.45,19.95-15,34-12.88,13,1.94,24.64,7.32,36.48,12.4,10.83,4.64,22,8.13,33.84,9,7.38.56,14.39-1.44,21.31-3.87a75.52,75.52,0,0,1,13.78-3.92c9.12-1.38,16.07,2.67,21.3,10,1.83,2.56,3.34,5.37,5.4,7.72C377,39.2,385.45,42.4,395.14,43c5.34.33,10.65,1.28,16,1.94-.93,3.61-.22,7.11.77,10.56a43.12,43.12,0,0,1-.39,25c-3.73,11.85-11,21.39-23,26.66-12.85,5.65-26.55,7.55-40.22,9.62-4.07.62-8.21.78-12.32,1.2-9,.93-18,2.65-27,2.69-24.1.09-48.19-.47-72.29-.89-7.44-.13-14.89-.58-22.32-1-4.12-.24-8.23-.7-12.33-1.12-9-.92-18-2-27-2.78-6.59-.57-13.23-.58-19.82-1.1-11-.87-22-2.07-33-2.9s-21.77-1.38-32.66-2.06c-.66,0-1.3-.25-2-.33l-14.23-1.63a8.7,8.7,0,0,0,.77-2.27c.45-7.13,4.72-12.57,8.75-17.76,4.83-6.23,10.8-11.57,16.14-17.43a32.3,32.3,0,0,0,4.14-6.06C104.83,60.12,104.82,57,102,54.33Z"/><path class="d" d="M102,54.33c2.87,2.68,2.88,5.79,1.12,9a32.3,32.3,0,0,1-4.14,6.06c-5.34,5.86-11.31,11.2-16.14,17.43-4,5.19-8.3,10.63-8.75,17.76a8.7,8.7,0,0,1-.77,2.27c0,4.32-.57,8.69-.08,12.94,1.53,13.28,8.64,24.36,21.55,29,11.85,4.27,24.31,4.36,36.68,5,1.83.1,3.67,0,5.48.16,9.36.91,18.69,2,28,2.81,9.72.83,19.46,1.26,29.18,2.08,10,.85,20,2,30,2.92q13.58,1.18,27.18,2c13,.77,26.11,1.69,39.17,1.95,16.81.34,33.64.09,50.45.07a33.68,33.68,0,0,0,3.48-.21c8.35-.92,16.71-1.83,25.06-2.78,6.87-.78,13.82-1.25,20.6-2.54a203.18,203.18,0,0,0,23.07-5.66c14.31-4.5,24.69-13.36,28-28.57a57.43,57.43,0,0,0-2.81-33.61c-3.13-8-6.84-15.81-10.3-23.69-2.2-5-.92-8.08,4.23-10,1,.45,2.45.6,3.12,1.38,4.25,4.92,8.72,9.7,12.38,15,6.35,9.24,10.26,19.8,14.48,30.09,2.46,6,3.26,12.63,4.81,19,2.81,11.54,2,23.29,2,35a15.77,15.77,0,0,1-1,4.8c-2.31,7.2-4.7,14.36-7.06,21.54-11.48,11.23-25.77,15.82-41.26,18.35-10.73,1.76-21.42,1.84-32.17,1.85-16.81,0-33.63.12-50.44,0-10.86-.11-21.32,2.12-31.63,5s-20.3,6.92-30.63,9.64A79.59,79.59,0,0,1,247.12,223c-17.21-1.54-32.35-8.89-48.22-14.29-7.16-2.43-14.11-5.61-21.86-5.86-9.26-.39-18.52-.81-27.79-1.16-10.83-.41-21.3,1.43-31.72,4.42a176.13,176.13,0,0,0-38.22,16c-5.5,3.1-11.92,4.88-18.14,6.2-2.58.54-5.75-1.71-8.64-2.69-2.08-2.07-4.43-3.93-6.17-6.25a37.4,37.4,0,0,1-6.91-17.72c-.94-7-1.89-14.05-2.27-21.11-.86-16.31,2-32.21,6.33-47.85A135.53,135.53,0,0,1,57.8,99.78c7.75-13.1,16.58-25.34,27.86-35.66a118.68,118.68,0,0,1,11.57-9.28C98.35,54,100.35,54.47,102,54.33Z"/><path class="e" d="M432.29,58.65c-5.15,1.94-6.43,5-4.23,10,3.46,7.88,7.17,15.67,10.3,23.69A57.43,57.43,0,0,1,441.17,126c-3.31,15.21-13.69,24.07-28,28.57a203.18,203.18,0,0,1-23.07,5.66c-6.78,1.29-13.73,1.76-20.6,2.54-8.35.95-16.71,1.86-25.06,2.78a33.68,33.68,0,0,1-3.48.21c-16.81,0-33.64.27-50.45-.07-13.06-.26-26.12-1.18-39.17-1.95q-13.6-.79-27.18-2c-10-.87-20-2.07-30-2.92-9.72-.82-19.46-1.25-29.18-2.08-9.36-.79-18.69-1.9-28-2.81-1.81-.18-3.65-.06-5.48-.16-12.37-.62-24.83-.71-36.68-5-12.91-4.65-20-15.73-21.55-29-.49-4.25,0-8.62.08-12.94l14.23,1.63c.65.08,1.29.29,2,.33,10.89.68,21.78,1.23,32.66,2.06s22,2,33,2.9c6.59.52,13.23.53,19.82,1.1,9,.77,18,1.86,27,2.78,4.1.42,8.21.88,12.33,1.12,7.43.43,14.88.88,22.32,1,24.1.42,48.19,1,72.29.89,9,0,18-1.76,27-2.69,4.11-.42,8.25-.58,12.32-1.2,13.67-2.07,27.37-4,40.22-9.62,12-5.27,19.26-14.81,23-26.66a43.12,43.12,0,0,0,.39-25c-1-3.45-1.7-7-.77-10.56a14.64,14.64,0,0,1,11,3.74C425.68,51.77,428.9,55.31,432.29,58.65Z"/><path class="d" d="M97,260.92c-.73-5-1.45-9.27-2-13.54-.79-6.83,3.25-11.78,9.19-11.42a9.47,9.47,0,0,1,8.38,7.36c.95,4.18,1.28,8.51,2.22,12.69,1.47,6.51,3.79,8.29,10.31,8.44,1.94.05,3-.43,2.68-2.91a68.59,68.59,0,0,1-.33-10.44c.15-5.48,2.82-8.7,7.27-9.14,5.55-.55,8.86,1.65,10,7.27A101.07,101.07,0,0,1,146.68,263c.18,2.64,1.47,3.5,3.65,3.8,5.4.74,10.81,1.51,16.23,2.14,6.46.74,10.81,4.57,10.14,9.39-.93,6.63-5.74,9.23-12.83,8.73-3.78-.27-7.51-1.23-11.28-1.77-4.34-.62-5.89.66-5.76,5.1a104.36,104.36,0,0,0,1.07,11.84,3.77,3.77,0,0,0,2.29,2.52c5,1.2,10.06,2.1,15.1,3.13a33.6,33.6,0,0,1,4.34,1.09c4.2,1.47,7.44,5.88,6.92,9.28a9.33,9.33,0,0,1-9.11,7.77c-4.44,0-8.88-.86-13.3-1.48-2.12-.3-4.2-.92-6.88-1.53-.53,2.43-1.09,4.62-1.47,6.85-1.38,8-2.4,16.05-4.16,23.95-1.07,4.81-5.46,7.26-10.29,6.87a7.05,7.05,0,0,1-6.78-7.25c.14-4.94.94-9.86,1.44-14.79.5-4.77,1.18-9.53,1.39-14.31.15-3.37-1.14-4-5.75-4.2-2.91-.13-4.63.44-4.92,3.89-.81,9.55-2,19.07-2.94,28.6-.39,3.94-2.53,6.82-5.47,9.12a6.4,6.4,0,0,1-7.53.5c-2.84-1.75-5.62-4-5.25-7.87.57-6.08,1.61-12.12,2.29-18.19.56-4.93,1.31-9.9,1.09-14.81-.07-1.62-2.67-3.47-4.49-4.61-4.8-3-6.3-8.12-3.06-12.67A8.76,8.76,0,0,1,95.67,301c3.25-1,3.92-3.1,3.74-6.08a53.44,53.44,0,0,1,0-7.27c.4-5.09-1.08-7.12-6-8-2.29-.41-4.58-.85-6.84-1.41a9.06,9.06,0,0,1-7.07-9.37c.42-4.6,3.64-7.63,8.66-7.91C91,260.79,93.77,260.92,97,260.92Zm20.41,29.76-.23,0A71.71,71.71,0,0,0,118,299c.56,2.63,3.48,3.36,8.32,3.27,3-.05,3.29-2.19,3.31-3.92,0-4.25-.51-8.51-.68-12.78-.09-2.22-1.31-2.55-3.2-2.81-8.93-1.21-8.37-2.85-8.38,7.4Z"/><path class="d" d="M191.45,479.36c-.78,3.08-1.3,5.68-2.11,8.18a10.73,10.73,0,0,1-13,7.1c-3.44-.82-4.41-3.63-4.66-6.35a40.77,40.77,0,0,1,.67-9.84c.48-2.93,1.56-5.76,2.24-8.67,1-4.07.78-4.33-3.37-5.44a19.75,19.75,0,0,0-2.44-.43c-6-.79-8.43-3.38-8.3-9s2.87-8,9-8.31c5-.25,5-.25,5-5.12,0-2.16-.11-4.33,0-6.48a7.72,7.72,0,0,1,6.39-7.26c5.18-1,8.16.18,10,4,.94,1.92,1.66,4,2.27,5.4,2.16-1.43,4.23-3.63,6.7-4.29,5.86-1.56,10.11,1.75,10.84,7.79a20.67,20.67,0,0,1,0,2.49c0,7.84.16,6.44,6.11,7.51,7.15,1.27,10.16,4.53,9.89,10.26-.22,4.84-3,7.62-7.82,7.95-.5,0-1,0-1.5,0-5.91.1-6.42.53-6.65,6.54-.15,4.1-.91,7.85-4.09,10.82-4.13,3.86-9.14,3.41-12.26-1.32C193.38,483.31,192.59,481.5,191.45,479.36Z"/><path class="a" d="M393,452.77l-1.1-2.47c2.67,0,4.89.19,7.06,0,8.9-.92,18-.29,26.49-4.28,3.89-1.83,5.38,1.79,7.18,4.23-3.54,2.14-7.14,2.64-11.43,2.39C411.86,452.06,402.43,452.65,393,452.77Z"/><path class="b" d="M117.41,290.68v-.5c0-10.25-.55-8.61,8.38-7.4,1.89.26,3.11.59,3.2,2.81.17,4.27.72,8.53.68,12.78,0,1.73-.28,3.87-3.31,3.92-4.84.09-7.76-.64-8.32-3.27a71.71,71.71,0,0,1-.86-8.32Z"/><path class="d" d="M450.43,450c-1.29,5.64-8.6,7.83-13.22,4-1.5-1.25-3-2.48-4.55-3.72-1.8-2.44-3.29-6.06-7.18-4.23-8.47,4-17.59,3.36-26.49,4.28-2.17.22-4.39,0-7.06,0l1.1,2.47c.43,2.11.91,4.2,1.28,6.32.77,4.49-1,8.2-4.78,10-3,1.42-9,.4-11.15-2.09a9.15,9.15,0,0,1-1.57-3.52c-.67-2.38-1-4.85-1.74-7.22-1.39-4.73-1.94-4.94-6.65-3a72.38,72.38,0,0,1-7.34,3c-4.62,1.32-8.16-.59-10.33-5.19-.25-5.75,2.7-9.29,7.84-11.33,2.75-1.09,5.49-2.2,8.72-3.5l-5.64-8.5c-3.33-5-3.35-10.09,0-12.56,2.83-2.11,8.52-.93,11.95,2.93a52.39,52.39,0,0,1,6.91,9.53c2.77,5.06,6,8.41,12.42,7.68,6.66-.75,13.37-.94,20.06-1.38l.43-1.17a37.48,37.48,0,0,0-3.55-3.78c-4-3.2-8.24-6-12-9.46-2.85-2.59-6.21-5.39-5.7-9.83.26-2.25,1.13-5.52,2.71-6.27a10.17,10.17,0,0,1,7.88.14c3.29,1.63,6,4.52,8.86,6.91,4.95,4.09,9.79,8.32,14.83,12.3,2.89,2.27,4.2,1.75,5.34-1.61a24.88,24.88,0,0,0,.12-15.61,4.33,4.33,0,0,0-3.88-3.18q-9.76-1.59-19.38-4c-2.3-.57-5.16-1.6-6.36-3.36-4-5.93-1.18-10.4,4.92-11.61,2-.41,4.26.18,6.4.36,2.43.21,4.86.47,8,.77-.76-2.08-1.14-3.48-1.75-4.76-4.45-9.36-9.26-18.58-13.28-28.12-1.47-3.5-3.41-3.67-6-2.86-3.46,1.07-6.74,2.73-10.19,3.88a29.32,29.32,0,0,1-7.66,1.74c-4,.22-6.62-1.9-7.31-6a6.51,6.51,0,0,1,3.79-7.34c5.56-2.54,11.27-4.73,16.92-7.07,1.93-.79,3.43-1.65,2.92-4.32-1.86-9.7-3.53-19.43-5.31-29.14a13.38,13.38,0,0,0-1.28-2.54c-7.23,2.85-14.39,5.67-21.55,8.47a15.08,15.08,0,0,1-3.29,1c-4.45.57-7.1-.73-8.21-3.88-1.5-4.28-.31-8.19,3.79-10q12.42-5.48,25.13-10.24c2.73-1,4.06-2.12,3.77-5.2-.87-9.34,1.14-18.44,3-27.47,1.86-8.81,7.13-15.86,13.3-22.2,3-3.13,7.07-3.57,11.11-2.85,4.48.8,6.31,6.77,3.43,10.81a12.13,12.13,0,0,1-2.79,2.84c-8.45,6-10.84,15-11.86,24.5-.54,5-.1,10.07-.1,15.61,4.05,0,7.83-.06,11.61,0a21.51,21.51,0,0,1,4.88.59c5.35,1.41,6.87,3.29,6.5,7.74-.33,4-3.44,6.48-8.37,6.79-4.41.28-8.81.58-13.61.9a95.74,95.74,0,0,0,3.7,23.93c.09.32.22.62.34.94.93,2.59,1.26,6.81,2.92,7.42,3.2,1.18,7.16.28,10.8.31,3.41,0,6.92-.34,10.2.34,4,.83,5.15,2.94,5,6.84a7.11,7.11,0,0,1-5.77,7.11c-3.57.6-7.22.83-10.83,1.12-4.46.35-5.18,1.07-3.5,5.15,3.83,9.27,7.74,18.49,13.7,26.74,2.47,3.41,4,7.51,5.83,11.37a5.48,5.48,0,0,0,4.75,3.62,59.27,59.27,0,0,1,10,2.67c4.9,1.55,6.7,4.47,5.66,8.79-.85,3.49-5.43,6.14-9.48,5.44-1.23-.22-2.44-.57-4.17-1,2.09,9.74-.45,18.09-5,26-1.57,2.76-1.39,4.58,1.42,6.66A13.55,13.55,0,0,1,450.43,450Z"/></svg>