<svg xmlns="http://www.w3.org/2000/svg" viewBox="0 0 43.33 27.25"><defs><style>.a{fill:#e3f7fa;}.b{fill:#4eaed1;}.c{fill:#b4b7ba;}.d{fill:#2a578c;}.e{fill:#4a809e;}.f{fill:#244973;}.g{fill:#047ea5;}.h{fill:#267fa2;}.i{fill:#92bad0;}.j{fill:#0b497e;}.k{fill:#1ca6d1;}.l{fill:#7bb8d5;}.m{fill:#c6ddea;}</style></defs><path class="a" d="M19.23,17.22l-.74.43h0a.9.9,0,0,1,.74-.43Z"/><path class="b" d="M16.31,11.35c0-1.52-.08-3,0-4.55.3-2.33,2.55-4,4.57-4.94a22.23,22.23,0,0,1,15-1c3.63.85,7.77,3.31,7.43,7.54a7.31,7.31,0,0,1-.65,1.49c-4.84,6.9-21.45,6.9-25.93-.38a.17.17,0,0,1,0-.19c.16-.09.24,0,.3.13,3.1,3.85,8.53,4.68,13.2,4.67s15.6-3,11.79-9.23C37.55-1.73,15-1.4,16.76,9.2c-.18.13-.21-.24-.33-.27,0,.71,0,1.41,0,2.11C16.43,11.15,16.47,11.3,16.31,11.35Z"/><path class="c" d="M19.22,17.21l-.74.43c-.19.1-.36.23-.57.11s-.1-.2-.12-.3a5.56,5.56,0,0,0-1.76-3,4.83,4.83,0,0,0,1.1-.85c.06-.07.14,0,.22,0,.8-.06,1.54-1.12,2.38-.46s1.71,2.11,1,3.19c0,.09-.11.11-.19.13Z"/><path class="d" d="M3.77,26.86C1.71,28.78-1.64,23,.94,22.06c.24,0,.48-.16.72,0C3,23.14,4.08,24.54,3.89,26.34A1.32,1.32,0,0,0,3.77,26.86Z"/><path class="e" d="M20.53,16.46l.14-.11c.88-1,0-2.53-.89-3.25s-1.65.34-2.47.54h-.18a5.17,5.17,0,0,1-.78-3.76c.06-.33-.13-1,.11-1.15.29.86-.27,4.93,1.31,4.32a3.57,3.57,0,0,1,1.17-.54,2.71,2.71,0,0,1,2.15,1.75,2.14,2.14,0,0,1,.19,1.6c-.2.39,0,.63.33.79,6.26,2.93,22.69,2.23,21.4-7.6l.3-.68c0,2.17.26,4.58-1.54,6.14C36.29,19.45,26.94,19.55,20.53,16.46Z"/><path class="f" d="M17.17,15.71A6.24,6.24,0,0,0,16,14.49a2,2,0,0,0-1.39-.2c-3.16,1.61-6.17,3.51-9.27,5.23l-.32.15c-1.34.85-2.75,1.58-4.11,2.39h.69A30.91,30.91,0,0,0,5.29,20c.09,0,.15,0,.18-.1h0c.48-.07.72-.64,1.23-.7a8.65,8.65,0,0,0,1-.53,4.16,4.16,0,0,1,.91-.56c.16-.11.24-.1.56-.32s.75-.36,1.14-.64a.94.94,0,0,1,.56-.3,6.2,6.2,0,0,0,1-.58c1.07-.41,1.91-1.2,3-1.63.15-.26.29,0,.43,0s.33.16.51.21.32.21.46.36a.71.71,0,0,1,.14.1,1.25,1.25,0,0,1,.57.92c.33.88.79,2.34-.29,2.73C12.38,21.43,8,23.73,3.82,26.39l0,.47c3.08-1.71,6.12-3.5,9.2-5.21,1.47-.86,3-1.66,4.45-2.55.46-.33.46-.85.49-1.35A14.16,14.16,0,0,0,17.17,15.71Z"/><path class="g" d="M20.72,13c6.53,2.91,17.19,2.94,21.91-3.15.07,0,.07-.15.16-.18s.14.15.14.25c.39,2.88-1.85,5.15-4.28,6.3a21.21,21.21,0,0,1-17,.29.3.3,0,0,1-.18-.4,2.9,2.9,0,0,0-.22-2,4.42,4.42,0,0,0-.63-.86C20.41,13.07,20.5,12.82,20.72,13Z"/><path class="h" d="M16.72,9.22v.1l.05.15a9,9,0,0,0,.49,3.2c0,.09.1.11.18.07.59-.15,1.1-.64,1.76-.46a.43.43,0,0,0,.29,0l1.22.7-.2,0a3.19,3.19,0,0,1,1,3.05c0,.23,0,.32.24.4a21.25,21.25,0,0,0,16.77-.3c2.54-1.35,4.81-3.3,4.35-6.47l-.22.14L43,9.05c1.64,9.79-15.34,10.67-21.51,7.63-.3-.14-.51-.37-.32-.77a2,2,0,0,0-.25-1.81c-.58-1.22-1.88-2-3.07-1-1.53,1-1.47-3.53-1.4-4.35Z"/><path class="g" d="M19.5,12.25c-.07,0-.15.13-.2.12-.73-.24-1.24.36-1.91.5-.81-.64-.57-2.43-.61-3.4A8.22,8.22,0,0,0,19.5,12.25Z"/><path class="i" d="M17.31,13.64c.75-.37,1.61-1.31,2.46-.65,1,.77,1.82,2.25.9,3.36a2.51,2.51,0,0,0-1.27-3.29C18.58,12.76,18.05,13.75,17.31,13.64Z"/><path class="j" d="M16.5,15.33l-.11-.17a2.3,2.3,0,0,1,.65,1c.45.89.76,2.23-.31,2.83-4.3,2.44-8.65,4.92-12.91,7.38a4.49,4.49,0,0,0-2-4,1.53,1.53,0,0,1-.19-.3c1.21-.69,2.43-1.38,3.63-2.08l.21-.11.27-.11a12.18,12.18,0,0,1,2-1.17s.08,0,.11-.05h0c2.29-1.39,4.57-2.78,6.94-4a1,1,0,0,1,.53,0,2.48,2.48,0,0,1,.57.26"/><path class="k" d="M41.64,4.26c-4.81-6-26.89-5.48-24.92,5a.07.07,0,0,0,0,.1c3.63,4.24,9.73,5.19,15.07,4.75C36.45,13.92,46.44,10.1,41.64,4.26Zm-1,4.05c-2.36,6.44-18.77,6.42-21.62.22,0-.06,0-.11,0-.16a10.58,10.58,0,0,1,5.63-3.81,1.38,1.38,0,0,0,.48-.17,20,20,0,0,1,10.15.19,12.64,12.64,0,0,1,2.86,1.34,13.8,13.8,0,0,1,2.51,2.32A.08.08,0,0,1,40.62,8.31Z"/><path class="l" d="M19,8.38l0,.15a5.14,5.14,0,0,1,0-2.14C21.85.25,38.3.19,40.72,6.76c.06.06,0,.16.05.22h0c-.07.43.08,1-.15,1.33a.05.05,0,0,1,0,0,7.72,7.72,0,0,1-.43-1.44c-1-2.82-4.34-3.6-6.91-4.21C28.67,1.8,22.7,2.19,19.65,6.16A19.25,19.25,0,0,0,19,8.38Z"/><path class="i" d="M19,8.38c.3-5.35,7.9-6.48,12.16-6.12,3.73.53,9,1.4,9.41,6C39.91,7.36,38.86,6.8,38.1,6c.1-.26.4-.46,0-.7-.83-.62-1.93-.4-2.87-.62l-1.55-.33c-.13-.07-.12-.16-.08-.29s.07-.39-.17-.56c-2.08-1-4.6-.88-6.85-.61C26,3,23.5,3.37,24.86,4.29c.13.15-.17.23-.24.34A11.39,11.39,0,0,0,19,8.38Z"/><path class="m" d="M24.88,4.37l-.57-.61c.21-.19.4-.47.64-.54a14,14,0,0,1,8.25,0c.58.14.64.37.47.94,0,0,0,.11.06.16a20.33,20.33,0,0,0-8.68.16A.16.16,0,0,1,24.88,4.37Z"/><path class="m" d="M35.28,4.64c.63.14,4.19.13,2.82,1.32C37.19,5.5,36.11,5.17,35.28,4.64Z"/></svg>