<svg xmlns="http://www.w3.org/2000/svg" viewBox="0 0 585.7711 748.7782"><defs><style>.a{fill:#4d4d4d;}.b{fill:#424242;}.c{fill:#353535;}.d{fill:#222;}.e{fill:#2a2a2a;}.f{fill:#1a1a1a;}.g{fill:#565656;}</style></defs><path class="a" d="M511.8231,532.8905c.0634.3275-.0259-.3326,0,0Z" transform="translate(0 0)"/><path class="a" d="M523.9526,655.3805c-4.0651-2.2849-1.604-12.261-6.765-14.609.7236-.5058-.735-1.4729-.0114-1.9787l-.2756.2787c-6.8719-40.5207-1.8447-64.6347-5.0775-106.181-.56-2.8913-.05-26.429.1054-20.3994-.7271-28.2132,2.7867-56.2613-2.7546-86.49-20.1556-40.0267-40.9951-79.8821-63.7611-118.6035C426.96,252.96,368.061,233.3156,317.61,218.4073c-7.0141-1.4028-23.2339-3.81-33.1449-5.5282-2.5882-1.4493-5.4945-3.0143-8.7809-4.7359l-2.0073-1.919q.3562-3.4909.7126-6.9819c24.1228-12.9358,59.2216-4.9271,81.2274-6.8984,20.5847-14.2793,33.1449-37.5118,56.8569-40.2993,14.5273-12.9915,11.442-48.106,1.0057-64.6113q-.4662-.5369-.9327-1.0738c-27.6886-34.2338-68.729-54.4379-106.1565-76.2847-10.5271-5.8-22.6323-18.7137-33.4707-1.3172-8.4089,23.6409-10.7922,50.95-17.4083,75.5389-1.7892,0-5.677-3.8015-6.7243-5.1067-11.7484-14.64-27.9032-27.1062-46.6142-33.3663a27.7421,27.7421,0,0,0-7.3679-2.1119c-.0577-.0137-.1141-.0314-.1719-.0449l.029.0247C176.38,41.1408,156.9549,56.6123,149.2371,72.227c5.8442,10.9878,12.0056,21.4183,16.9585,32.3941,2.31,5.12.33,14.3873,3.6378,16.4732,17.0077,10.7248,35.1013,19.7275,52.8157,29.3316q.6312,1.9012,1.2623,3.8025l3.0042,9.05c-7.74,16.081,1.8166,27.8563,9.9549,39.9847-.6365,1.6466-2.2553,4.6-3.2241,6.6892a89.1872,89.1872,0,0,0-11.4808,2.0694c-7.9619-.2269-15.6189-1.5743-23.0989-2.812-16.1831-2.6779-31.5356-4.8414-47.3408,5.9758l.0012-.0114c-87.8387,50.7089-92.6622,116.2693-79.7728,208.847,4.0187,32.323-5.9638,63.6513-12.841,94.907v0C48.1158,542.115,65.9062,571.63,39.84,590.8166q-9.971,7.9871-19.9418,15.9743l-9.9473,4.9016c-2.5075,2.9725-4.8188,2.6624-7.51,6.961C-.8111,623.8463-.2859,630.7991.9943,636.7867L30.84,658.8531l-.03-.0446a58.6018,58.6018,0,0,0,17.6592,9.89l-2.6631-.9148c61.226,40.053,136.4247,33.09,205.8364,38.0146,57.3944,9.0682,120.2264,19.17,177.8545,28.6592,46.6114,17.19,47.953,22.259,91.7257-3.81,20.2187-9.95,40.6438-19.5011,60.5534-30.0308,2.4278-1.284,2.2161-7.5589,3.9955-14.5282C566.6889,674.4313,544.7234,664.5054,523.9526,655.3805Z" transform="translate(0 0)"/><path class="b" d="M275.6846,208.1431c36.6741,19.213,26.7363,19.17,40.2543,51.087,15.1478,19.0422,32.6728,36.17,48.6527,54.58C450.65,403.46,349.2682,585.5511,235.4976,590.5965c-25.0414-.0417-49.5333,29.3458-54.1551,54.05-2.6433,14.1284-9.4066,27.4681-27.3746,26.993-70.6139-1.11-91.1273-7.4615-134.07-64.8488L39.84,590.8166c57.4821,18.6464,21.8738,41.4,120.0066,46.8474-47.2917-46.6161-81.2657-40.3984-100.7334-118.7354,6.8773-31.2558,16.86-62.5841,12.8411-94.9072,10.6158,44.8375-.9125,92.713,37.31,129.6044,14.88,15.121,24.3556,35.4415,37.6074,52.3675,3.6761,4.6952,12.0962,5.6764,18.34,8.3616,5.7923-19.967-9.3472-37.2663-8.8042-56.145,9.0636,5.3773,17.475,11.7968,26.2481,17.6345,2.1858-3.3366,4.5894-6.555,6.485-10.049,1.3885-2.5593,1.749-7.6743,3.1827-7.91,29.784-4.0622,28.3229-29.7472,44.0419-49.2006-4.5676,20.0887-8.591,37.7843-12.6145,55.48l8.0262,3.4822c10.96-13.4181,24.1938-25.6165,32.2308-40.602,24.9908-43.4485,115.53,1.3807,99.0412-128.2042-3.07-16.0739,1.0574-33.876-1.2286-49.8867-21.2715-12.64-18.0289-38.84-31.1739-56.0943-18.85-26.477-32.2006-62.3082-71.4494-56.7239-39.51,5.6786-40.0389-29.6946-108.1352-14.4622.3354-3.2762.5-4.8877.6654-6.4992l-.0233.0257c23.1184-15.84,45.2659-3.8963,70.4618-3.1782,12.9738-3.2784,26.353-3.1127,39.8649-2.8243l.0263-5.9343H236.8705c-8.1383-12.1284-17.6945-23.9037-9.9549-39.9847,8.783,2.5232,11.1579,1.6878,25.7486,5.88-11.2017-9.34-11.7554-10.4826-19.5188-15.9253-2.459-1.7239-6.9609-2.6184-10.4963-2.807-17.7144-9.6041-35.808-18.6068-52.8157-29.3316-3.3079-2.0859-1.3275-11.3535-3.6378-16.4731-4.9529-10.9759-11.1143-21.4064-16.9585-32.3941,9.6932-19.6113,37.8549-39.03,59.0249-22.7515,38.5038,32.223,6.72,54.37,34.7915,83.0624,5.3427,4.6134,8.696,11.5282,12.9609,17.3881,9.9795-20.9329.5711-43.6775-.5027-65.6295,6.6161-24.5887,8.9994-51.8981,17.4083-75.539,10.8384-17.3965,22.9436-4.4823,33.4707,1.3172C343.8183,31.9216,384.8586,52.1257,412.5473,86.36c-17.6551,11.8611-39.71,15.1252-59.9307,20.5126-7.9729,1.22-18.7168-11.1791-25.9889-12.6184-17.3572,3.2724-29.1987,23.4311-28.9164,48.5325.13,11.61-5.297,15.2932-16.1452,19.4114-11.0483,4.1941-19.38,15.543-28.9019,23.7591l21.0122,20.2761-.0115-.02m23.35-191.9283-10.37-.0677c-6.2257,26.725-5.7792,54.7537-8.7159,82.0229.0348,15.84-3.8517,32.6809,1.2306,47.924,2.7054-1.7752,5.0342-5.5474,5.8974-7.9771,4.0849-11.4977,9.76-20.6239,12.6045-32.4993,7.5824-31.65,33.3535-37.3583,58.1547-23.3526,5.6852,3.21,14.426,1.5783,21.6685,1.0067,1.5351-.1212,4.364-7.3513,3.7155-7.9-4.9443-4.1821-10.2448-8.3312-16.1243-10.9288-14.8325-5.6146-30.1311-8.7851-41.3607-20.9564C309.7926,33.9319,302.6537,30.046,297.0147,14.2841Zm-77.3741,112.207c-8.7226-14.0086-32.4653-25.3019-10.63-42.55,11.3957-18.8-29.48-18.2922-39.384-13.8077C172.3713,85.81,182.4,88.1023,184.153,96.86,181.2774,123.303,205.18,119.2562,219.6406,126.4911Z" transform="translate(0 0)"/><path class="c" d="M19.8982,606.7909C62.63,663.9771,83.4735,670.6323,153.9693,671.638c17.9666.4768,24.73-12.8629,27.3732-26.9913,4.6218-24.7044,29.1137-54.0919,54.15-54.0563,113.7685-5.0342,215.1625-187.1022,129.0985-276.7765-15.98-18.414-35.2307-34.77-50.375-53.8146-9.9152-17.9978-.4154-25.41-20.5938-42.76,11.9728,7.7695,24.4215,14.9151,35.737,23.5463,6.6105,5.0424,10.2731,14.4683,17.247,18.4135,52.169,23.6187,115.6554,52.6656,99.6042,121.609-11.8113-2.77-18.46-15.3008-30.3621-16.5008,4.3543,44.3963-14.8812,87.19-21.24,130.8992-1.0038,4.9326-.117,13.2527,3.0974,15.5758,66.6738,50.5282-26.8274,86.2422,25.9671,111.8157,25.9289,20.9243,2.856,27.1868-13.6346,35.8855-24.6707,13.6275-23.6738,13.1344-36.6279-10.657-5.0131-9.2069-14.9213-20.98-23.7-21.9868-35.2878-4.0469-70.9987-5.0441-106.5723-5.4361-7.3446-.081-14.9058,7.0515-21.917,11.5595-.5934.3816,1.2865,7.6162,3.6332,9.0842,25.52,16.2192,53.252,29.0157,75.5789,49.817-16.3344,17.0721-21.834,10.79-42.8164,10.5564-2.0149.0358-3.9839,2.8417-5.9743,4.3779-69.4117-4.9247-144.61,2.0383-205.8364-38.0147l14.3868,4.942c-13.8209-15.8061-34.536-23.3544-48.7893-38.4-3.0089-3.02,1.794-13.8189,3.0685-21.3576-.2477-.07-2.3842-.6727-4.5207-1.2755Z" transform="translate(0 0)"/><path class="d" d="M492.0222,664.2477c-13.2457,33.1136-31.24,52.5553-62.5258,70.21-57.628-9.489-120.46-19.591-177.8544-28.6591,5.6022-12.12,24.6586-5.8053,27.8078-5.9488,15.0372,1.2885,26.6333-1.62,41.0889-5.2666-8.2938-20.7336-21.8868-32.5756-42.659-44.5278,22.0727-12.6259,59.922,6.7455,68.8219,30.5241,1.4691,4.0171,14.4148,8.6778,16.07,7.0277,36.63-31.3878,111.6589,43.3786,90.8148-97.074-16.3357-60.4941,9.1059-60.61,4.0345-95.4192-9.8744-23.2348-28.4763-51.5812-7.1689-75.2859,9.41,3.6542,11.2055,7.0943,25.1947,5.7193.2545-56.0241-27.26-101.3431-60.055-144.5678-29.8661-24.2266-67.9141-38.027-97.9817-62.5722,50.4506,14.9083,109.3495,34.553,127.8024,88.99,22.766,38.7214,43.6055,78.5768,63.7611,118.6036,5.5413,30.2289,2.0275,58.2769,2.7546,86.49-.1554-6.03-.6656,17.5082-.1055,20.3994.0635.3275-.0258-.3326,0,0,3.2781,42.1282-1.9458,66.32,5.3647,107.881" transform="translate(0 0)"/><path class="e" d="M317.61,218.4073c30.0641,24.5439,68.1173,38.3465,97.981,62.5708,32.7877,43.2027,60.3092,88.5674,60.0557,144.5692-13.9711,1.4543-16.108-2.2644-25.1965-5.7205-21.3139,23.7659-2.7031,52.0192,7.1692,75.2867,5.108,34.5107-20.37,35.1869-4.03,95.4223,20.79,140.4925-54.0974,65.653-90.8178,97.0681-1.6557,1.6533-14.6014-3.0074-16.0707-7.0244-8.9243-23.76-81.9578-36.1221-58.2857-26.7279,25.4028,10.0809,28.721,21.6552,33.0014,42.8107-11.5718,2.2037-30.2874,6.5519-41.9673,3.1874,3.9439-4.3117,16.5366-4.96,20.9829-8.9855-22.3264-20.802-50.06-33.5972-75.579-49.8169-2.3466-1.4681-4.2265-8.7027-3.6331-9.0843,7.0112-4.508,14.5724-11.64,21.917-11.5595,35.5736.392,71.2845,1.3892,106.5723,5.4361,8.7789,1.0067,18.6871,12.78,23.7,21.9868,12.9541,23.7914,11.9572,24.2845,36.6289,10.6579,16.4491-8.7284,39.6044-14.9084,13.633-35.8859-52.78-25.5194,40.6932-61.3343-25.969-111.8176-3.2119-2.3217-4.0987-10.6418-3.098-15.5749,6.3647-43.7176,25.5946-86.49,21.2435-130.8987,11.8985,1.1992,18.5547,13.7329,30.3621,16.5008,15.9869-69.0693-47.3845-97.9189-99.6073-121.6053-6.9708-3.9489-10.6334-13.3748-17.2439-18.4172-11.7082-8.3278-23.5726-13.7824-36.2273-20.2629.0016-1.2713-13.46-7.2519-13.458-8.5233C287.9978,213.664,309.2867,216.7427,317.61,218.4073Z" transform="translate(0 0)"/><path class="f" d="M517.1761,638.7928c-.7235.5058.7351,1.4729.0116,1.9787,5.1609,2.348,2.7,12.3241,6.7649,14.609,20.7708,9.1249,42.7363,19.0508,61.8185,30.7083-1.7794,6.9693-1.5676,13.2442-3.9955,14.5283-19.91,10.53-40.3347,20.0808-60.5533,30.0307-43.7728,26.0688-45.1144,21-91.7259,3.81,31.3169-17.6792,49.2672-37.0866,62.5246-70.2111" transform="translate(0 0)"/><path class="c" d="M273.6764,206.2329l-21.0122-20.2761c9.5214-8.2161,17.8536-19.565,28.9019-23.7591,10.8482-4.1182,16.2757-7.8011,16.1452-19.4114-.2823-25.1014,11.5592-45.26,28.916-48.5316,7.2715,1.4406,18.018,13.8359,25.989,12.6154,20.2253-5.3873,42.27-8.647,59.931-20.51l.9327,1.0737c-2.51,4.296-8.0041,9.4463-7.0572,12.7522,7.311,25.5269,3.0934,37.6431-19.4778,49.8672-22.9987,10.3708-47.2916,18.2584-71.2775,25.9515-16.5041,6.085-39.4337-.7269-48.6219,18.224-.92,1.4153,2.0766,5.3778,3.4206,8.499l3.9237-3.4848Q274.0331,202.7376,273.6764,206.2329Z" transform="translate(0 0)"/><path class="c" d="M59.1132,518.9286c19.43,78.28,53.4726,72.1565,100.7334,118.7354-98.223-5.488-62.35-28.0852-120.0066-46.8474C65.9062,571.63,48.1158,542.115,59.1132,518.9286Z" transform="translate(0 0)"/><path class="e" d="M274.39,199.2424l-3.9237,3.4848c-1.344-3.1212-4.341-7.0837-3.4207-8.4984,9.1882-18.9511,32.1189-12.1407,48.6216-18.2264,23.9861-7.6911,48.2793-15.5791,71.2784-25.9486,22.5707-12.2252,26.7883-24.3414,19.4773-49.8683-.9469-3.3059,4.5468-8.4562,7.0572-12.7522,10.4362,16.5053,13.5215,51.62-1.0058,64.6113-23.7121,2.7875-36.2722,26.02-56.8569,40.2993C333.6115,194.3152,298.5127,186.3066,274.39,199.2424Z" transform="translate(0 0)"/><path class="c" d="M255.5117,84.2966c1.072,21.9566,10.4867,44.69.5027,65.63-4.2649-5.86-10.608-10.9875-15.1537-16.88-24.2015-31.3725-7.4434-56.8888-46.2273-89.3793,21.9118,5.1478,40.8538,18.9494,54.1539,35.5232C249.8347,80.495,253.7225,84.2966,255.5117,84.2966Z" transform="translate(0 0)"/><path class="e" d="M.9943,636.7866c-1.28-5.9875-1.8054-12.94,1.4462-18.1331,2.6916-4.2986,5.0029-3.9885,7.51-6.961,2.1365.6028,4.273,1.2055,4.5207,1.2755-1.2745,7.5387-6.0774,18.3371-3.0691,21.3583,14.2575,15.0479,34.9651,22.59,48.79,38.4C49.9863,669.293,39.84,666.4292,30.81,658.8085l.03.0447" transform="translate(0 0)"/><path class="c" d="M222.6491,150.4259c14.7207-2.1613,21.7239,11.5242,36.4231,22.0909l-32.1566-9.2382Q224.7825,156.8523,222.6491,150.4259Z" transform="translate(0 0)"/><path class="c" d="M236.8705,203.2633h25.1863l-.0263,5.9343c-9.1513,0-19.7338,1.9045-28.8851,1.9045C233.91,209.124,236.1058,205.2414,236.8705,203.2633Z" transform="translate(0 0)"/><path class="g" d="M180.9348,224.8613c-8.6459,12.0682-21.0087,19.1645-22.434,32.6334,22.6077,4.1011,38.7939-4.9223,48.7091-24.6953,1.1092-1.938,7.2394-1.0091,11.0417-1.41-1.1208,21.5646-16.1836,40.0659-21.9371,60.733,16.5061,26.8956,48.5976,20.1616,61.31-7.9531,10.5108,10.1729,21.2318,23.0252,34.8581,28.4761,12.0891,3.7008,13.458-5.3876,10.3447-13.47-6.46-16.77-14.3585-32.9856-22.97-52.3653,27.9107,21.0713,45.276,32.6315,43.061,69.4329,12.349,11.4447,11.9648,25.5083,11.53,41.0676.4722,25.4553,31.1652,37.4576,14.3981,65.4187-10.6515,17.5152-6.4478,46.437-25.2153,57.77,3.1416-25.6214,9.0274-50.8491,12.5611-76.3624.3884-3.262-4.5564-7.1718-7.0691-10.7656-6.0858-8.7043-12.09-17.4686-18.3383-26.0545-1.9381-2.663-4.7772-6.9437-6.8126-6.7315-3.0819.3212-8.0752,3.6865-8.3411,6.1765a714.3093,714.3093,0,0,1-18.38,131.384c-.6975,2.9193-17.379,4.6273-25.0732,2.1025-22.7655-31.06,38.6358-25.7252,1.3069-100.4239-26.84-61.5645-59.357-78.2012-94.3681-5.9719-5.2241,5.8192-10.9843.7737-11.0232-5.2246,2.9337-26.0272,5.9867-52.0554,9.8748-77.9532,2.2485-11.9121,8.8692-23.0344,10.3557-35.3151-5.3648.5165-14.2787-.6852-15.5,1.8374-9.7169,19.9676-15.2339,42.0079-23.7554,62.4749-1.0939,2.2387-6.3471,4.649-8.286,3.7906-17.0358-7.9213-5.0641-31.385-11.8753-45.5582-2.3464.9038-6.2241,1.2408-6.8011,2.7995-6.266,18.5855-14.32,36.8385-17.7482,56.2-2.1819-3.144-6.7166-6.7829-6.1757-9.3541C83.9613,283.8372,114.094,234.8078,180.9348,224.8613Z" transform="translate(0 0)"/><path class="g" d="M89.2453,496.1484C95.563,498.76,101.0554,502.81,107.1,506c-1.9007-25.5316-11.4172-49.4743-16.99-74.2829-.6259-2.6019,2.4451-6.0928,3.8055-9.1724,19.8064,18.8156,7.684,56.2076,33.7656,72.452-2.7082-11.0978-9.18-21.8059-5.072-33.36,3.5415,1.4758,8.9289,1.9594,10.3381,4.5811,13.7665,25.612,26.909,51.5608,40.0258,77.5164.5725,1.1327-.7131,4.6712-1.3171,4.718-17.0159,1.3188-34.23,4.3056-51.04,2.8178C105.0432,549.8923,84.1015,510.6121,89.2453,496.1484Z" transform="translate(0 0)"/><path class="a" d="M297.0147,14.2841c5.5666,15.6731,12.8684,19.7194,26.7011,27.2723,15.5808,17.4072,44.5564,13.8821,57.4845,31.885.4955.69-2.18,7.7784-3.7153,7.9-7.2425.5716-15.9833,2.2038-21.6685-1.0067-69.2333-30.0936-53.6765,56.9882-76.6566,63.829-5.0824-15.2371-1.1956-32.0886-1.2307-47.9237,2.9368-27.27,2.49-55.2971,8.716-82.0232Z" transform="translate(0 0)"/><path class="a" d="M219.6406,126.4911c-14.4611-7.2349-38.3632-3.1881-35.4893-29.63-1.6844-8.6547-11.8077-11.11-14.5251-26.7269,9.8421-4.4846,50.803-4.9914,39.385,13.8072C187.1774,101.1924,210.9155,112.4781,219.6406,126.4911Z" transform="translate(0 0)"/></svg>