<svg xmlns="http://www.w3.org/2000/svg" viewBox="0 0 423.28 187.88"><defs><style>.a{fill:#9b9ca1;}.b{fill:#b0b4c6;}.c{fill:#bdbec7;}.d{fill:#acafbe;}.e{fill:#a2a4ad;}.f{fill:#a7aab6;}.g{fill:#bbc1d2;}.h{fill:#e3e2e7;}.i{fill:#dcdce2;}.j{fill:#d0d1db;}.k{fill:#c6c8d5;}.l{fill:#d4d5df;}.m{fill:#eeecee;}</style></defs><path class="a" d="M195,188.85l-4-.1c-1.55-.91-3-2.44-4.67-2.62-5.79-.62-11.64-.77-17.46-1.1-5,.45-9.72-.91-14.49-2.1-6.52-1.62-13.22-2.66-19.62-4.67-8.63-2.71-17.11-5.94-25.52-9.26-6.89-2.73-13.58-5.92-20.36-8.91L90,158c4.38-.14,7.76-2.47,11-5l4.35-.73a36.54,36.54,0,0,0,8.41,3.71,8.19,8.19,0,0,1,2.3.77A31.15,31.15,0,0,0,138,163a48.48,48.48,0,0,0,12.79,2.84c7.24.66,14.33,2.94,21.52,4.33,4.18.81,8.43,1.21,12.65,1.8l14,2,5,1,5,1h3l4,1,15.74,1.21.07,1.77a21.19,21.19,0,0,1-4.75,1c-7.41-.2-14.82-.73-22.23-.84-2.5,0-5,.81-8.16,1.37,3.61,5,10.67-.18,13.25,6.1l-3.94.48Z" transform="translate(-2.77 -3.06)"/><path class="b" d="M55.85,32.67,70,28.08,71,34l-2,2-5,3c-9.6,3.28-16.25,10.36-22.7,17.69-.3.34.16,1.35.36,2.72,4.73-3.83,8.69-7.6,13.21-10.51,4.36-2.82,9.43-4.19,15.79-4.81-1.21,1.54-1.49,2.2-2,2.49-5,2.88-9.84,6-15,8.47-6.18,3-10.82,8.09-12.2,14.08-1.58,6.9-4.26,14.37-.71,21.75.53,1.09,0,2.66.27,3.93,1.23,5.56,3.21,10.68,9,13.18,3.31,2.83,6.69,5.57,9.92,8.5,5.43,4.93,10.59,10.19,16.24,14.87,2,1.69,3.2,3.09,2.78,5.66-2-1.36-4-2.7-6.06-4.08-4.62-3.16-9.57-6-13.76-9.63-3.83-3.34-6.69-7.76-10.25-11.44-2.6-2.68-3.89-7.2-8.86-6.87H39L39,102l-5.1-21.61H30l.92-14.9L25,62.06,29,58c4.08.59,6-2.22,8-5h0l2-2L54,39c2.84.09,4.57-1.1,4.93-4Z" transform="translate(-2.77 -3.06)"/><path class="c" d="M362.09,168.07a85.38,85.38,0,0,1-8.85,3.47c-3.87,1.07-7.9,1.51-11.81,2.43-12,2.83-23.89,6.18-36,8.53-11.76,2.3-23.69,3.82-35.59,5.31-8.17,1-16.42,1.43-24.64,2a17.16,17.16,0,0,1-3.37-.42c3.33-2.5,7.3-2.12,11.11-2.45,9.5-1,19-2,28.5-3.18.57-.07,1-1.21,2.3-2.9-4.1.45-6.95.86-9.82,1-6.44.42-12.89.69-19.33,1.09-.57,0-1.1.6-1.65.91h-8c-.31-3.12,1.35-3.91,4.18-4,3.75-.15,7.65-.24,11.2-1.3,9.69-2.87,19.65-3.57,29.59-4.6-.33,3.66-4.53.59-6.15,4,5.22-.47,9.74-.49,14.13-2.07l16-2c.13,1.25.26,2.5.39,3.8,15.6-2.36,30.33-6.16,44-12.9Z" transform="translate(-2.77 -3.06)"/><path class="d" d="M362.09,168.07l-3.75-3.15c-13.63,6.74-28.36,10.54-44,12.9-.13-1.3-.26-2.55-.39-3.8l3,0c1.59,1.68,1.79.31,2-.93l7-1.06c2.31,1,4.09.57,5-2l2-.05c2.48,1.71,3.37.11,4-1.95l2.94-.07c3.36.07,6.39-.52,8.07-3.91l4.94-1.09c5.21-2.19,10.44-4.36,15.63-6.62.27-.12.26-.89.39-1.35l4-1.06c5.06-2.57,10.14-5.1,15.15-7.78.53-.28.6-1.43.89-2.17l0,0L391,141c.31,0,.63,0,.94,0l2-.07,3-2,2-1L406,131a7.93,7.93,0,0,0,6-6l2-2,5.27-5.19C419,127,416,134.83,408.94,141c-.26-1-.52-2-.92-3.49-6.71,4.92-12.7,9.73-19.11,13.91s-13.16,7.72-20.31,11.85L371,164Z" transform="translate(-2.77 -3.06)"/><path class="e" d="M78,154c-5.26-.29-8.54-4.27-12.56-6.84A49.05,49.05,0,0,1,58.56,142c-4-3.66-7.68-7.56-11.51-11.36L47,129c1.41.25,2.84.42,4.22.78A26.9,26.9,0,0,1,54.39,131l.73-1.46c-3.78-4-8.11-7.18-14.12-7.56-4.7-3.22-9.45-6.37-14.07-9.71a25.55,25.55,0,0,1-5.79-5.21c-2.22-3-1.1-5,2.9-6.12L33,108l3,3,4,2c.31,2.77,2.49,1.73,4,2,.3.75.48,2,.91,2.14,4,.87,6.24,4,8.78,6.73,4.81,5.08,9.47,10.29,14.17,15.46a3.2,3.2,0,0,1,1,1.67c.16,4,2.89,5.22,6.14,6l1.75,2.07L78,153Z" transform="translate(-2.77 -3.06)"/><path class="e" d="M245,184h8v3c-3.81.33-7.78,0-11.11,2.45l-6.92.41c-5.95-.29-11.9-.64-17.85-.84a10.78,10.78,0,0,0-3.1.9h-7L205.94,188l3.94-.48c-2.58-6.28-9.64-1.09-13.25-6.1,3.14-.56,5.66-1.41,8.16-1.37,7.41.11,14.82.64,22.23.84a21.19,21.19,0,0,0,4.75-1l-.07-1.77L216,177l1-4h12c.13,2.75,2,3,4.17,3,1.94,0,4.12-.4,4.82,2.6l-2,3.88C238.8,185,242.06,183.62,245,184Z" transform="translate(-2.77 -3.06)"/><path class="f" d="M25,47l14-8,4,0c-3.35,3.48-6.55,7.11-10.08,10.4-3.37,3.13-7.19,5.76-10.58,8.87-1.7,1.56-2.75,3.67.72,4.76L21,68l-6.1-5.86c-2,.29-2.21,2.43-1.76,4.6a57.55,57.55,0,0,0,2.22,7.43c.15.42,1.07.56,1.63.83l0,4c.15,2,0,4,.52,5.91.72,2.57.05,3.78-2,4L7,84.49a30.24,30.24,0,0,0,0-4.82C6.62,77.54,7,74.94,4.13,74l2-8c2.88.2,4.05-1.24,3.83-4L21,52C23.93,51.62,25.12,49.84,25,47Z" transform="translate(-2.77 -3.06)"/><path class="d" d="M4.13,74c2.82,1,2.49,3.55,2.81,5.68a30.24,30.24,0,0,1,0,4.82l8.54,4.41c2.06-.23,2.73-1.44,2-4C17,83,17.17,81,17,79c2.65.11,3.08,1.87,3,4-.26.38-.83.91-.73,1.12,1.37,2.87,2.36,5.67,1.13,9C20.18,93.66,22.07,95,23,96l1.06,5c-4,1.08-5.12,3.08-2.9,6.12a25.55,25.55,0,0,0,5.79,5.21c4.62,3.34,9.37,6.49,14.07,9.71l1,3.09c-7-4.86-14.11-9.6-21-14.62A45.85,45.85,0,0,1,5.4,91.67C3,86,1.6,80.09,4.13,74Z" transform="translate(-2.77 -3.06)"/><path class="g" d="M291,11.9c6.43,1.35,13,2.28,19.26,4.14,7.42,2.2,14.61,5.16,21.86,7.88a13.19,13.19,0,0,1,2.76,1.9L338,31c-1.1-.27-2.21-.48-3.29-.81C329.1,28.46,323.53,26.72,318,25c-6-.11-12.16,2-18-1-.26-.13-.64,0-1,0-8.75-2-17.51-3.95-26.24-6.05-1-.24-1.85-1.26-2.77-1.92L286,18c7.32,2.5,14.94,2.83,22.69,3.1a17.69,17.69,0,0,0-5.85-3C298.89,16.91,294.91,16,291,15Z" transform="translate(-2.77 -3.06)"/><path class="h" d="M78,153l-1.26-3.95.15-4.1.18-2,.81-2.07L78,141l2-3c1.34-2,2.69-4.05,4-6.07l4.06-2.87,4.93-1,4,.94,3,1,4,2c.68,1.32,1.37,2.63,2.06,4l0,3h-4a4.19,4.19,0,0,0-4-4c-.41-2.16-1.34-2.71-3-1-3,0-6.34-.73-8,3a7.37,7.37,0,0,0,0,.94L83,141c-1.25.22-2.67.36-1,2v7.11c3.67,2.52,7,4.38,11,1.88,3-1.16,5.86-2.58,7-6l1,0,3.93,1.89-1,2L101.06,153c-3.28,2.55-6.66,4.88-11,5L85,158l-6-3Z" transform="translate(-2.77 -3.06)"/><path class="i" d="M121,14c6.81-1.65,13.57-3.59,20.45-4.88,7.59-1.42,15.27-2.36,22.94-3.28C170.54,5,176.78,4.62,183,4.05c.31,1.6.63,3.2.95,4.81L172,10l-10,1-9,1-5,1-9,1-13,3h-3Z" transform="translate(-2.77 -3.06)"/><path class="d" d="M360,35.94c5.29,1.84,10.81,3.23,15.83,5.64,8,3.83,15.69,8.34,23.47,12.62A7.85,7.85,0,0,1,401,56c0,.68,0,1.36,0,2-2.53-1.37-5.09-2.69-7.59-4.13-2.21-1.28-4.23-2.94-6.55-4-2.66-1.18-5.58-1.56-7.7-4-1-1.12-3-1.34-4.5-2L373.7,45a37,37,0,0,0,2.53,3.69c2.18,2.48,4.48,4.85,6.72,7.26-3,.48-4.21-2-6-3.52-3.42-2.82-6.09-6.78-11-7.47l-8-5C358.62,38.65,359.3,37.3,360,35.94Z" transform="translate(-2.77 -3.06)"/><path class="j" d="M184,8.86c-.32-1.61-.64-3.21-.95-4.81l42-1c-.34,1.61-.69,3.23-1,4.85Z" transform="translate(-2.77 -3.06)"/><path class="f" d="M371,164l-2.44-.79c7.15-4.13,13.93-7.68,20.31-11.85s12.4-9,19.11-13.91c.4,1.5.66,2.49.92,3.49l-5.1,5c-2.12-.05-3.82.45-3.89,3h0l-4,3c-4.29,4.89-10.22,7.19-15.89,9.77C377.27,163,374.06,163.28,371,164Z" transform="translate(-2.77 -3.06)"/><path class="h" d="M121,14l2,3c-2.8,1.33-5.53,2.89-8.43,4-7.72,2.81-15.51,5.41-23.27,8.11-5,1.74-10,3.52-15.29,5.37V32l11-5c1.56-.21,3.73.87,4.06-1.93L99,22l13-5c1.54-.26,3.76.85,4-2Z" transform="translate(-2.77 -3.06)"/><path class="k" d="M419.22,117.8,414,123c.53-2.74,1-5.48,1.6-8.2.45-2.12,1.05-4.22-1.67-5.81L405,115l4.92-12.21,5.52,2.54L419,101,419,99l2-.07c-.49,4.17-1,8.35-1.52,12.82l4.51-1.79C424.08,113.64,422.06,116,419.22,117.8Z" transform="translate(-2.77 -3.06)"/><path class="b" d="M400.94,58c0-.69,0-1.37,0-2a51.85,51.85,0,0,1,17.46,16.83C422.67,79.26,425.8,86,425.08,94l-3.06.07c-.65-8-1.27-16.12-8.78-21.37-.51-.35-.75-1.06-1.16-1.58q-3.57-4.57-7.15-9.13Z" transform="translate(-2.77 -3.06)"/><path class="k" d="M291,11.9,291,15l-4,0c-1-.64-2-1.69-3.15-1.85-5.61-.85-11.26-1.47-16.89-2.17l-1-4.89c6.88,1.3,13.77,2.53,20.63,3.94A22.31,22.31,0,0,1,291,11.9Z" transform="translate(-2.77 -3.06)"/><path class="b" d="M360,35.94c-.68,1.36-1.36,2.71-2,4.07l-7-3-6-3-7-3-3.11-5.16a56.33,56.33,0,0,1,6.49,1.9C347.6,30.36,353.78,33.19,360,35.94Z" transform="translate(-2.77 -3.06)"/><path class="k" d="M224,7.91c.34-1.62.69-3.24,1-4.85l19,1-1,4.88Z" transform="translate(-2.77 -3.06)"/><path class="l" d="M243,8.91,244,4l7,.91c2,2.52,5.58,2.87,10.08,1l5,.11,1,4.89L265,10.86c-.28-1.29-.56-2.53-2.05-.84Z" transform="translate(-2.77 -3.06)"/><path class="g" d="M87,27,76,32l-5,2-1-5.93,17-5V26Z" transform="translate(-2.77 -3.06)"/><path class="l" d="M422,94.08l3.06-.07c2,5.51.47,10.75-1.16,16l-4.51,1.79c.53-4.47,1-8.65,1.52-12.82C421.3,97.34,421.66,95.71,422,94.08Z" transform="translate(-2.77 -3.06)"/><path class="f" d="M42,125.07,41,122c6,.38,10.34,3.51,14.12,7.56L54.39,131a26.9,26.9,0,0,0-3.19-1.23c-1.38-.36-2.81-.53-4.22-.78l-1.86-.05Z" transform="translate(-2.77 -3.06)"/><path class="f" d="M55.85,32.67,58.94,35c-.36,2.88-2.09,4.07-4.93,4-.21-2.27-1.44-2-3.15-1.52A26.89,26.89,0,0,1,46,38l3-3Z" transform="translate(-2.77 -3.06)"/><path class="e" d="M168.86,185c5.82.33,11.67.48,17.46,1.1,1.63.18,3.12,1.71,4.67,2.62-6.79-.69-13.59-1.34-20.37-2.13C170,186.55,169.44,185.58,168.86,185Z" transform="translate(-2.77 -3.06)"/><path class="k" d="M87,26V23.05L97.9,19.94c1.78-.06,1.73.84,1.09,2L91,25Z" transform="translate(-2.77 -3.06)"/><path class="c" d="M214,189.9a10.78,10.78,0,0,1,3.1-.9c5.95.2,11.9.55,17.85.84a8,8,0,0,1-2.54,1q-7.92.15-15.84,0A8.2,8.2,0,0,1,214,189.9Z" transform="translate(-2.77 -3.06)"/><path class="c" d="M21,52,10,62l-1.11-.06A28.21,28.21,0,0,1,21,49.94Z" transform="translate(-2.77 -3.06)"/><path class="j" d="M99,22c.64-1.21.69-2.11-1.09-2L112,16v1Z" transform="translate(-2.77 -3.06)"/><path class="c" d="M205.94,188l1.05,1.88-12-1Z" transform="translate(-2.77 -3.06)"/><path class="b" d="M49,35l-3,3-3,1-4,0C41.64,35.94,45.45,35.79,49,35Z" transform="translate(-2.77 -3.06)"/><path class="k" d="M261,5.94c-4.5,1.87-8.11,1.52-10.08-1Z" transform="translate(-2.77 -3.06)"/><path class="d" d="M21,52l0-2.05L25,47C25.12,49.84,23.93,51.62,21,52Z" transform="translate(-2.77 -3.06)"/><path class="d" d="M8.89,61.94,10,62c.22,2.77-.95,4.21-3.83,4Z" transform="translate(-2.77 -3.06)"/><path class="d" d="M395.94,151.94l4-3Z" transform="translate(-2.77 -3.06)"/><path class="d" d="M400,149c.07-2.58,1.77-3.08,3.89-3Z" transform="translate(-2.77 -3.06)"/><path class="i" d="M112,17V16l4-1C115.74,17.85,113.52,16.74,112,17Z" transform="translate(-2.77 -3.06)"/><path class="c" d="M85,158l5,.05-1.15,2.06Z" transform="translate(-2.77 -3.06)"/><path class="d" d="M45.12,128.94,47,129l.07,1.64Z" transform="translate(-2.77 -3.06)"/><path class="b" d="M78,153l1,2-1-1Z" transform="translate(-2.77 -3.06)"/><path class="c" d="M185,171.93c-4.22-.59-8.47-1-12.65-1.8-7.19-1.39-14.28-3.67-21.52-4.33A48.48,48.48,0,0,1,138,163l0-3,10,1c1,1,1.84,2.48,3,2.77,6,1.55,12.15,2.84,18.26,4.08,1.51.3,3.5.76,3.76-1.84l1-.07,7.91.18c.26,1.27.53,2.53,2,.86l8,1.13a25.06,25.06,0,0,1-3.68,3.33C187.45,172,186.11,171.79,185,171.93Z" transform="translate(-2.77 -3.06)"/><path class="e" d="M138,160l0,3a31.15,31.15,0,0,1-21.89-6.2,8.19,8.19,0,0,0-2.3-.77,36.54,36.54,0,0,1-8.41-3.71l-4.35.73,2.85-3.13c1.67.48,3.34.94,5,1.44q6,1.81,12.06,3.67l1.92.06a43.86,43.86,0,0,0,3.67,2.62c1.07.63,2.7.68,3.37,1.54,1.92,2.43,3.89,1.93,6.07.71Z" transform="translate(-2.77 -3.06)"/><path class="f" d="M185,171.93c1.14-.14,2.48,0,3.37-.5A25.06,25.06,0,0,0,192,168.1L197,169l2,3c0,.67,0,1.34,0,2Z" transform="translate(-2.77 -3.06)"/><path class="f" d="M209,176l-5-1c0-1,0-2,0-3,0-.33,0-.66,0-1l3.11-.16,1.9.32C209,172.75,209,174.36,209,176Z" transform="translate(-2.77 -3.06)"/><path class="f" d="M217,173l-1,4-4-1c0-1,0-2,0-3Z" transform="translate(-2.77 -3.06)"/><path class="e" d="M204,172c0,1,0,2,0,3l-5-1c0-.67,0-1.34,0-2Z" transform="translate(-2.77 -3.06)"/><path class="e" d="M212,173c0,1,0,2,0,3h-3c0-1.61,0-3.22,0-4.82l2.92-.05Z" transform="translate(-2.77 -3.06)"/><path class="g" d="M50,108c-5.76-2.5-7.74-7.62-9-13.18-.28-1.27.26-2.84-.27-3.93-3.55-7.38-.87-14.85.71-21.75,1.38-6,6-11.06,12.2-14.08,5.15-2.51,10-5.59,15-8.47.49-.29.77-1,2-2.49-6.36.62-11.43,2-15.79,4.81-4.52,2.91-8.48,6.68-13.21,10.51C41.44,58,41,57,41.28,56.68,47.73,49.35,54.38,42.27,64,39c.42.62.8,1.75,1.26,1.78,3,.21,6.08.25,9.12.18A9.25,9.25,0,0,0,77,40l6,0c-.08.71.11,1.71-.29,2.06A30.46,30.46,0,0,1,79,44.56l.59,1.57L88,44a9.74,9.74,0,0,1-1.71,2c-5.54,3.68-11.19,7.19-16.63,11-1.06.74-3.78,1.66-1.61,4-.17,2.59-1.89,3.07-4,3l-2-4-4,3-.57-1.88c-6.15,2.53-9.27,7-10.52,14.12L53,76l1,3-10.2,3.32c-.22,4-.56,8.66-.66,13.3,0,.81,1,1.63,1.46,2.48C46.4,101.38,48.2,104.69,50,108Z" transform="translate(-2.77 -3.06)"/><path class="k" d="M50,108c-1.8-3.29-3.6-6.6-5.41-9.89-.47-.85-1.47-1.67-1.46-2.48.1-4.64.44-9.27.66-13.3L54,79l2,6c-4.28,2.19-2.39,7.22-5.1,10.23,4.72,10,10.55,18.52,21.1,22.76,1.47,3.71,4.48,5.9,7.72,7.87,2.31,1.4,4.52,2.87,4.31,6.06-1.34,2-2.69,4-4,6.07H79c0-.32,0-.65,0-1,.42-2.57-.74-4-2.78-5.66-5.65-4.68-10.81-9.94-16.24-14.87C56.69,113.55,53.31,110.81,50,108Z" transform="translate(-2.77 -3.06)"/><path class="g" d="M24,100.94,23,96l2.8-3.1c5.64,4.45,5.64,4.45,8.45,1.46L20,83c.11-2.14-.32-3.9-3-4l0-4,3.93-2.06A35.74,35.74,0,0,0,21,77.79c.38,2.37.73,5,4,5.17.67-.89,1.83-1.73,1.92-2.66.24-2.75.06-5.53,0-8.3l.86-1.08-.59-.34L27,72l-2,0c-.22-2.87-2.43-1.78-4-2V68l2.06-5,1.93-1,5.91,3.46L30,80.42h3.87L39,102l-8.12-3.34c.65,5.55,4.74,6.64,7.59,9.81L39,105h1l1,4c-.77,1.24,2.69,3.61-1.08,4.06l-4-2-3-3Z" transform="translate(-2.77 -3.06)"/><path class="f" d="M41,109l-1-4c5-.33,6.26,4.19,8.86,6.87,3.56,3.68,6.42,8.1,10.25,11.44,4.19,3.66,9.14,6.47,13.76,9.63,2,1.38,4,2.72,6.06,4.08,0,.32,0,.65,0,1l-1,3-.15-.06c-1.29.29-2.55.59-.81,2.07l-.18,2L75,147c-3.25-.76-6-2-6.14-6a3.2,3.2,0,0,0-1-1.67c-4.7-5.17-9.36-10.38-14.17-15.46-2.54-2.68-4.75-5.86-8.78-6.73-.43-.09-.61-1.39-.91-2.14C43.7,112.66,44.05,110,41,109Z" transform="translate(-2.77 -3.06)"/><path class="l" d="M83,40l-6,0c-.13-1.25-.26-2.5-.45-4.41-2,.83-3.43,1.46-4.9,2S69.09,37.78,69,36l2-2,5-2v2.42c5.26-1.85,10.27-3.63,15.29-5.37,7.76-2.7,15.55-5.3,23.27-8.11,2.9-1.06,5.63-2.62,8.43-4h3a31.68,31.68,0,0,0,5.24.76c2.59-.06,5.18-.5,7.78-.77h0c-.27.57-.42,1.52-.83,1.65-5,1.55-10,3-15,4.45-11.85,3.51-23.68,7.06-35.53,10.54-2.34.69-4.46,1.47-4.66,4.37Z" transform="translate(-2.77 -3.06)"/><path class="e" d="M25,62.06l-1.93,1c-3.47-1.09-2.42-3.2-.72-4.76,3.39-3.11,7.21-5.74,10.58-8.87C36.45,46.11,39.65,42.48,43,39l3-1a26.89,26.89,0,0,0,4.87-.51C52.57,37,53.8,36.74,54,39L39,51l-2,2h0c-3.89-.29-6.32,1.75-8,5Z" transform="translate(-2.77 -3.06)"/><path class="k" d="M69,36c.11,1.79,1.06,2.29,2.66,1.65s2.93-1.21,4.9-2c.19,1.91.32,3.16.45,4.41a9.25,9.25,0,0,1-2.63.94c-3,.07-6.09,0-9.12-.18-.46,0-.84-1.16-1.26-1.78Z" transform="translate(-2.77 -3.06)"/><path class="j" d="M39,105l-.59,3.52c-2.85-3.17-6.94-4.26-7.59-9.81L39,102Z" transform="translate(-2.77 -3.06)"/><path class="f" d="M29,58c1.68-3.25,4.11-5.29,8-5C35,55.77,33.07,58.58,29,58Z" transform="translate(-2.77 -3.06)"/><path class="f" d="M37,53l2-2Z" transform="translate(-2.77 -3.06)"/><path class="j" d="M396.91,138.93l-3,2-.79-1.61L392,141c-.31,0-.63,0-.94,0-2.21-.1-2.07,1.46-2.09,2.92l0,0c-6.39,0-10,5.48-15.16,7.8-.51.23-.6,1.41-.88,2.15L369,155c-4.81,1.92-9.64,3.78-14.4,5.82-.72.31-1.09,1.42-1.62,2.15L348,164.05c-2.79,1.09-6.14,1-8.07,3.91L337,168,333,170l-2,.05-5,2-7,1.06-2,.93-3,0-16,2c0-.7,0-1.41,0-2.11,0-.31,0-.63,0-.95l2-1,7-1c2.92-.46,5.82-1.13,8.75-1.32,5.31-.36,9.62-4.64,15.21-3.69,10.24-1.55,19.14-6.67,28.38-10.83,1-.44,1.13-2.7,1.66-4.12l12-6c4.21-1.72,7.92-4.94,13-4.16.49.07,1.16-.58,1.66-1,5.29-4.44,10.57-8.9,16.36-13.78l4,.95-2,4-7.06,6.94L396,135.45C396.48,137.28,396.7,138.1,396.91,138.93Z" transform="translate(-2.77 -3.06)"/><path class="f" d="M307,171l-7,1c-1.63-1.71-1.79-.29-2,1,0,.32,0,.64,0,.95L290,174c-9.94,1-19.9,1.73-29.59,4.6-3.55,1.06-7.45,1.15-11.2,1.3-2.83.12-4.49.91-4.18,4-2.95-.33-6.21,1-9.08-1.48l2-3.88c-.7-3-2.88-2.62-4.82-2.6-2.18,0-4-.26-4.17-3a69.65,69.65,0,0,0,7.23-.1c1-.11,1.89-1.14,2.83-1.76l8-.06c4,.22,8,.47,12.07.58.3,0,.63-1,.95-1.54l2-.06c3.7.22,7.39.48,11.09.59.3,0,.62-1,.93-1.57l5-.06c2,1.43,3.82,2,5-.89l4-.12c1.68,1.3,3.21,1.86,4-.84l10.9-1.06.84,1.55L305,166l3-.07C307.62,167.61,307.29,169.28,307,171Z" transform="translate(-2.77 -3.06)"/><path class="f" d="M253,187v-3c.55-.31,1.08-.87,1.65-.91,6.44-.4,12.89-.67,19.33-1.09,2.87-.18,5.72-.59,9.82-1-1.3,1.69-1.73,2.83-2.3,2.9C272,184.94,262.47,185.94,253,187Z" transform="translate(-2.77 -3.06)"/><path class="k" d="M290,174l7.93-.13c0,.7,0,1.41,0,2.11-4.39,1.58-8.91,1.6-14.13,2.07C285.45,174.61,289.65,177.68,290,174Z" transform="translate(-2.77 -3.06)"/><path class="l" d="M408,127l-4-.95c-5.79,4.88-11.07,9.34-16.36,13.78-.5.42-1.17,1.07-1.66,1-5-.78-8.75,2.44-13,4.16l-4-3,1-2c3.13-1.65,6.33-3.18,9.33-5,.6-.37.45-1.95.65-3l8-5c-.19,1.54-.39,3.08-.58,4.62l.95.62L396,124a21.71,21.71,0,0,0,9-9l8.93-6c2.72,1.59,2.12,3.69,1.67,5.81-.57,2.72-1.07,5.46-1.6,8.2l-2,2Z" transform="translate(-2.77 -3.06)"/><path class="c" d="M372.91,153.93c.28-.74.37-1.92.88-2.15,5.2-2.32,8.77-7.82,15.16-7.8-.29.74-.36,1.89-.89,2.17C383.05,148.83,378,151.36,372.91,153.93Z" transform="translate(-2.77 -3.06)"/><path class="c" d="M352.94,163c.53-.73.9-1.84,1.62-2.15,4.76-2,9.59-3.9,14.4-5.82-.13.46-.12,1.23-.39,1.35C363.38,158.6,358.15,160.77,352.94,163Z" transform="translate(-2.77 -3.06)"/><path class="k" d="M408,127l4-2a7.93,7.93,0,0,1-6,6Z" transform="translate(-2.77 -3.06)"/><path class="c" d="M339.93,168c1.93-2.87,5.28-2.82,8.07-3.91C346.32,167.44,343.29,168,339.93,168Z" transform="translate(-2.77 -3.06)"/><path class="c" d="M326,172l5-2C330.05,172.56,328.27,173,326,172Z" transform="translate(-2.77 -3.06)"/><path class="c" d="M333,170l4-1.95C336.33,170.09,335.44,171.69,333,170Z" transform="translate(-2.77 -3.06)"/><path class="k" d="M396.91,138.93c-.21-.83-.43-1.65-.91-3.48l2.89,2.48Z" transform="translate(-2.77 -3.06)"/><path class="k" d="M388.93,144c0-1.46-.12-3,2.09-2.92Z" transform="translate(-2.77 -3.06)"/><path class="k" d="M392,141l1.21-1.68.79,1.61Z" transform="translate(-2.77 -3.06)"/><path class="c" d="M317,174l2-.93C318.75,174.29,318.55,175.66,317,174Z" transform="translate(-2.77 -3.06)"/><path class="b" d="M41,109c3,1,2.66,3.7,3,6.05-1.54-.26-3.72.78-4-2C43.73,112.57,40.27,110.2,41,109Z" transform="translate(-2.77 -3.06)"/><path class="b" d="M75,147l1.9-2-.15,4.1Z" transform="translate(-2.77 -3.06)"/><path class="b" d="M33,108l3,3Z" transform="translate(-2.77 -3.06)"/><path class="c" d="M239,171.12c-.94.62-1.84,1.65-2.83,1.76a69.65,69.65,0,0,1-7.23.1H217l-5,0-.09-1.85Z" transform="translate(-2.77 -3.06)"/><path class="d" d="M21,68v2l-.09,2.92L17,75c-.56-.27-1.48-.41-1.63-.83a57.55,57.55,0,0,1-2.22-7.43c-.45-2.17-.27-4.31,1.76-4.6Z" transform="translate(-2.77 -3.06)"/><path class="b" d="M20,83,34.23,94.35c-2.81,3-2.81,3-8.45-1.46L23,96c-.91-1-2.8-2.33-2.59-2.9,1.23-3.31.24-6.11-1.13-9C19.16,83.9,19.73,83.37,20,83Z" transform="translate(-2.77 -3.06)"/><path class="j" d="M270,16c.92.66,1.75,1.68,2.77,1.92C281.45,20.05,290.21,22,299,24c-.64,1-1.29,2.07-1.92,3.11-.38.62-.72,1.26-1.08,1.89-5.9,2.23-11.78,1.13-17.71,0-3.05-.57-6.19-.71-9.29-1l-1.54-4.09c-5.75-.62-10.5-.38-14.7-1.79s-8,.54-11.94.28c-.24,0-.55,1.05-.82,1.61-1.54.25-3.74-.84-4,2h-5l-3.71-5.46L223,22.78c-6.51-3.58-13.34-2.65-20-2.78l-11-1V17a31.25,31.25,0,0,1,5.78-.95c13.4.24,26.8.61,40.21.94l21.64,2.26L260,16l2-1Z" transform="translate(-2.77 -3.06)"/><path class="k" d="M296,29c.36-.63.7-1.27,1.08-1.89.63-1,1.28-2.08,1.92-3.11.33,0,.71-.12,1,0,5.87,3,12,.88,18,1-.72,4.43,4.71,2.53,6,6.18l-8.53-2-.65,1.23a22.07,22.07,0,0,0,3.31,2.47c1.3.64,2.85.75,4.2,1.31,6.53,2.71,13,5.52,19.56,8.24,1.7.71,3.57,1.52,4.11-1.39l12,7.11V55c-1.35-.82-2.69-1.66-4.06-2.44-1.62-.91-2.75-.67-2.93,1.43l-8-2c-1.25-.36-2.84-.35-3.69-1.14-2.52-2.35-7.46-1.23-8.33-5.84L340.37,47l.32-1.35a61.72,61.72,0,0,0-18.49-7.53A181.66,181.66,0,0,1,296,29Z" transform="translate(-2.77 -3.06)"/><path class="e" d="M270,16l-8-1-2-.06-9-1-2.06-.85L238,13l-16-1c-.7-.32-1.41-.93-2.12-.93q-11.35-.12-22.73,0A6.27,6.27,0,0,0,195,12l-14,.13L173,12l-1-2,12-1.17,40-.95,19.05,1L263,10l2.05.84,1.94.08c5.63.7,11.28,1.32,16.89,2.17C285,13.27,286,14.32,287,15l-1,3Z" transform="translate(-2.77 -3.06)"/><path class="j" d="M346,41c-.54,2.91-2.41,2.1-4.11,1.39-6.53-2.72-13-5.53-19.56-8.24-1.35-.56-2.9-.67-4.2-1.31a22.07,22.07,0,0,1-3.31-2.47l.65-1.23,8.53,2c-1.28-3.65-6.71-1.75-6-6.18,5.57,1.72,11.14,3.46,16.72,5.17,1.08.33,2.19.54,3.29.81l7,3-6.56,1.85L342,39Z" transform="translate(-2.77 -3.06)"/><path class="d" d="M286,18l1-3,4,0c4,1,7.93,1.92,11.84,3.06a17.69,17.69,0,0,1,5.85,3C300.9,20.78,293.28,20.45,286,18Z" transform="translate(-2.77 -3.06)"/><path class="g" d="M106,136c-.69-1.32-1.38-2.63-2.06-4,.13-2,1.2-1.49,2.69-1.37,2.76.22,5.48,2.93,8.34.36h2c.08,2.14,1.59,2,3.06,1.91l4,0a71.48,71.48,0,0,0,6.92,2c9.68,1.76,19.38,3.37,29.07,5-.1,2.29-1.48,3-3.57,3-3,0-6,0-9.24,0,0,.43-.11,1.22-.19,2h-3c-2.86-.78-5.9-1.17-8.54-2.4-9-4.19-19-4-28.38-6.59Z" transform="translate(-2.77 -3.06)"/><path class="c" d="M84,131.92c.21-3.19-2-4.66-4.31-6.06-3.24-2-6.25-4.16-7.72-7.87-1.4-1.7-2.57-3.69-4.26-5-1.85-1.47-3.09-3-2.72-5.36.49-3.13-1.15-5.11-3.08-7.34a71,71,0,0,1-6.55-9.64C54.5,89.18,55.2,88.1,57,88c1.2,1.68,2.28,3.46,3.63,5A53.35,53.35,0,0,0,65,97l1,1c-1.65,3.29,1.81,3.46,3,5l1,2c-.61.74-1.88,1.71-1.71,2.18A16,16,0,0,0,71,112.39c4.33,4.93,8.83,9.71,13.39,14.43,1,1,2.44,1.5,3.68,2.23Z" transform="translate(-2.77 -3.06)"/><path class="b" d="M88.08,129.05c-1.24-.73-2.72-1.24-3.68-2.23-4.56-4.72-9.06-9.5-13.39-14.43a16,16,0,0,1-2.73-5.22c-.17-.47,1.1-1.44,1.71-2.18h0l3,3,6,5,1,0c2.45,2.94,4.69,6.1,7.45,8.73,1.35,1.28,3.65,1.56,5.52,2.29l1,1L93,128.05Z" transform="translate(-2.77 -3.06)"/><path class="d" d="M83,141l4-3.06A21.56,21.56,0,0,0,100,146c-1.1,3.41-3.92,4.83-7,6-2.09-4.42-6-6.83-10.08-9Z" transform="translate(-2.77 -3.06)"/><path class="e" d="M82.91,142.93c4.09,2.21,8,4.62,10.08,9-4,2.5-7.33.64-11-1.88V143Z" transform="translate(-2.77 -3.06)"/><path class="c" d="M100,146a21.56,21.56,0,0,1-13-8.07,7.37,7.37,0,0,1,0-.94c4.23.79,8.47,1.58,12.69,2.4A6.68,6.68,0,0,1,101,140v6Z" transform="translate(-2.77 -3.06)"/><path class="i" d="M94,125l-1-1,.55-3.06,10.5,3v4c-1.54.26-3.76-.84-4,2l-3-1C97.1,126.8,96.64,125.05,94,125Z" transform="translate(-2.77 -3.06)"/><path class="k" d="M101,140a6.68,6.68,0,0,0-1.34-.61c-4.22-.82-8.46-1.61-12.69-2.4,1.67-3.7,5-2.95,8-3l3,1a4.19,4.19,0,0,1,4,4Z" transform="translate(-2.77 -3.06)"/><path class="c" d="M121,155q-6-1.85-12.06-3.67c-1.67-.5-3.34-1-5-1.44l1-2h1L119,151Z" transform="translate(-2.77 -3.06)"/><path class="i" d="M106,147.89h-1L101,146v-6l1-1h4l1,3,0,2Z" transform="translate(-2.77 -3.06)"/><path class="j" d="M100,130c.25-2.85,2.47-1.75,4-2l11,2v1c-2.86,2.57-5.58-.14-8.34-.36-1.49-.12-2.56-.66-2.69,1.37Z" transform="translate(-2.77 -3.06)"/><path class="j" d="M94,125c2.69,0,3.15,1.8,3,4l-4-.94Z" transform="translate(-2.77 -3.06)"/><path class="j" d="M107,142l-1-3,0-3,1,0,.93,4Z" transform="translate(-2.77 -3.06)"/><path class="i" d="M98,135l-3-1C96.65,132.25,97.58,132.8,98,135Z" transform="translate(-2.77 -3.06)"/><path class="i" d="M78,141l1-3h1Z" transform="translate(-2.77 -3.06)"/><path class="b" d="M77.05,143c-1.74-1.48-.48-1.78.81-2.07Z" transform="translate(-2.77 -3.06)"/><path class="i" d="M82.91,142.93,82,143c-1.7-1.65-.28-1.79,1-2Z" transform="translate(-2.77 -3.06)"/><path class="k" d="M153,12l9-1c.94,3.81,4.1,1.1,6,2-1.09.64-2.16,1.77-3.29,1.83-3.9.23-7.82.1-11.74.1Z" transform="translate(-2.77 -3.06)"/><path class="j" d="M139,14l9-1v3l-9,1h0Z" transform="translate(-2.77 -3.06)"/><path class="k" d="M139,14v3c-2.6.27-5.19.71-7.78.77A31.68,31.68,0,0,1,126,17Z" transform="translate(-2.77 -3.06)"/><path class="d" d="M168,13.06c-1.91-.94-5.07,1.77-6-2l10-1,1,2v1Z" transform="translate(-2.77 -3.06)"/><path class="l" d="M148,16V13l5-1v3Z" transform="translate(-2.77 -3.06)"/><path class="g" d="M346,41l-4-2c.15-.9.3-1.8.54-3.28,1.76,1.06,3.07,1.95,4.47,2.65,1.71.85,3.47,1.45,4-1.36l7,3,8,5a16.09,16.09,0,0,0,1.6,2.26c5,5,10.09,9.92,15.07,14.94,1.5,1.5,2.77,3.23,4.55,5.33l.81-5.6c2.2,1.11,4.46,2.11,6.57,3.36,1.89,1.12,3.61,2.52,5.4,3.8-.53,1-1,2-1.6,2.89s-1.58,2-2.38,3v2l-2,0-2.3.36c-1,3.87-1.84,7.26-2.69,10.65l-1,2-5.8,2.13c1.16,2.81,2,4.85,2.83,6.89l-2,7c-4.14.57-4.1,4.12-5,7h0c-3,2.51-6.58,4.65-6.89,9.21-1,1.24-1.76,2.92-3.05,3.66-7.74,4.37-15.45,8.86-23.49,12.64-4.55,2.14-9.71,3-14.59,4.43,1.06-1,2-2.34,3.23-2.88,2.36-1,5-1.39,7.4-2.39,5.84-2.46,11.59-5.11,17.38-7.69l4-5,3-3,5.55-4c-3.1-3.53-6.45-3.87-13.58-2l2.21-5.25L348,115c.81-1.24,1.39-2.77,2.48-3.67,2.37-1.94,5-3.56,7.52-5.31a43.36,43.36,0,0,0,16-15c6.05-1.3,7.86-5.75,8.36-11.81l4.7-2.67-.72-1.73c-1.4-.92-2.68-2.26-4.22-2.67C380.23,71.61,379,71,379,69l3.33-.58a40.14,40.14,0,0,0-14.86-13c-.2,2.09-.33,3.33-.45,4.57l-3-1-2-2-4-2V48.11Z" transform="translate(-2.77 -3.06)"/><path class="e" d="M399.94,69.09c-1.79-1.28-3.51-2.68-5.4-3.8C392.43,64,390.17,63,388,61.93L383,56c-2.24-2.41-4.54-4.78-6.72-7.26A37,37,0,0,1,373.7,45l.9-1.12c1.53.62,3.54.84,4.5,2,2.12,2.47,5,2.85,7.7,4,2.32,1,4.34,2.69,6.55,4,2.5,1.44,5.06,2.76,7.59,4.13l4,4c-.07.83-.46,1.81-.15,2.47,1.3,2.8,2.8,5.51,4.27,8.31L407,75l-2,0-1-1C402.61,72.35,401.27,70.72,399.94,69.09Z" transform="translate(-2.77 -3.06)"/><path class="b" d="M383,56l5,5.94-.81,5.6c-1.78-2.1-3.05-3.83-4.55-5.33-5-5-10.06-9.94-15.07-14.94a16.09,16.09,0,0,1-1.6-2.26c4.88.69,7.55,4.65,11,7.47C378.74,54,380,56.47,383,56Z" transform="translate(-2.77 -3.06)"/><path class="l" d="M87,26l4-1c-.33,2.8-2.5,1.72-4.06,1.93Z" transform="translate(-2.77 -3.06)"/><path class="g" d="M405,115a21.71,21.71,0,0,1-9,9l-8,2v-3c3.65-3.51,7.76-6.66,10.87-10.6,5.09-6.46,10.07-13.21,9.17-22.27-.06-.68.59-1.43.91-2.14l7,3,0,3c-1.7,4.5-1.09,5.91,3,7l-3.56,4.33-5.52-2.54Z" transform="translate(-2.77 -3.06)"/><path class="f" d="M415.94,94l0-3c-.47-1.68-.6-3.58-1.48-5-2.32-3.78-5-7.36-7.49-11l2.1-2.2c-1.47-2.8-3-5.51-4.27-8.31-.31-.66.08-1.64.15-2.47q3.57,4.56,7.15,9.13c.41.52.65,1.23,1.16,1.58C420.75,78,421.37,86,422,94.08c-.36,1.63-.72,3.26-1.09,4.89L419,99Z" transform="translate(-2.77 -3.06)"/><path class="b" d="M415.94,94,419,99l0,1.95C414.85,99.9,414.24,98.49,415.94,94Z" transform="translate(-2.77 -3.06)"/><path class="k" d="M351,37c-.51,2.81-2.27,2.21-4,1.36-1.4-.7-2.71-1.59-4.47-2.65-.24,1.48-.39,2.38-.54,3.28l-3.57-3.14L345,34Z" transform="translate(-2.77 -3.06)"/><path class="k" d="M265,10.86,263,10C264.45,8.33,264.73,9.57,265,10.86Z" transform="translate(-2.77 -3.06)"/><path class="m" d="M239,171.12l-27.12,0-2.92.05-1.9-.32c-.55-2-1.52-2.53-3.12-.91l-7-.91L192,168.1,184,167l-2-.86-7.91-.18c-1-3.68,2.92-2.32,3.95-3.91l6,.2c.52,2.13,1.56,2.29,3,.82l3-.85,19,1.67a10.09,10.09,0,0,0,10,0l22-.78,10-.07h11c6-.35,12.09-.57,18.11-1.11,1.67-.15,3.26-1.24,4.88-1.9,2.27-.32,4.53-.77,6.82-.95,2.63-.21,3.35-1.71,3.16-4,2.23.07,4.56.58,6.68.13,8.81-1.89,17.57-4.06,26.35-6.13.23,2.66,2.47,2.38,3.68,1.74s1.56-2.44,2.3-3.74l2,0,5,1v4h-3l-4.85,2.06,3.5,2.8-2.68,3.06-4,1.1c-4.43,1-8.84,2-13.27,2.84-2.95.59-6.32-.69-8.74,2.09l-3,.07-2.06.08L292,167.15l-4,.84-4,.12-5,.89-5,.06-12,1-2,.06-13,1Z" transform="translate(-2.77 -3.06)"/><path class="j" d="M178,162c-1,1.59-5,.23-3.95,3.91l-1,.07-25-5-10-1-2-.07L134,158c-.64-3.31,2.41-2.93,4-4h5.12c2.8,3.65,7.25,2.71,10.92,3.92L159,158l4.91.18,2.18,1.74,3.82-.74c.49,2.11,1.52,2.41,3.08.92l4.91.09Z" transform="translate(-2.77 -3.06)"/><path class="k" d="M148,161l25,5c-.26,2.6-2.25,2.14-3.76,1.84-6.11-1.24-12.22-2.53-18.26-4.08C149.81,163.47,149,162,148,161Z" transform="translate(-2.77 -3.06)"/><path class="k" d="M181.94,166.11l2,.86C182.47,168.64,182.2,167.38,181.94,166.11Z" transform="translate(-2.77 -3.06)"/><path class="k" d="M138,154c-1.6,1.06-4.65.68-4,4l-11.09-2.92L121,155q-1-2-2-4l6,1.05v-5l11,1h2l7.35,3.16L143,152h-5.54Z" transform="translate(-2.77 -3.06)"/><path class="c" d="M122.9,155.05,134,158l2,1.95c-2.18,1.22-4.15,1.72-6.07-.71-.67-.86-2.3-.91-3.37-1.54A43.86,43.86,0,0,1,122.9,155.05Z" transform="translate(-2.77 -3.06)"/><path class="c" d="M197,169l7,.91V171c0,.33,0,.66,0,1l-5,0Z" transform="translate(-2.77 -3.06)"/><path class="k" d="M204,171v-1.07c1.6-1.62,2.57-1.08,3.12.91Z" transform="translate(-2.77 -3.06)"/><path class="b" d="M68.05,61.05c-2.17-2.39.55-3.31,1.61-4,5.44-3.81,11.09-7.32,16.63-11A9.74,9.74,0,0,0,88,44l8-1,.54,6L101,48l3,5-5,2-4,1c-.12-2.26-1.82-2.2-3.26-2a65.87,65.87,0,0,0-11.07,2.28c-1.54.53-4.43-.42-4.69,2.64Z" transform="translate(-2.77 -3.06)"/><path class="k" d="M96,43l-8,1-8.42,2.12L79,44.56A30.46,30.46,0,0,0,82.68,42c.4-.35.21-1.35.29-2.06l0-2h9c4.26,0,8.53.14,12.78-.08,1.11,0,2.17-1.22,3.25-1.88l6,0c1.63,1.68,1.79.28,2-1l5,0-.18,3.05c-1.87,2.09-6.29.64-5.8,5l-1,1-2,1-11,2c-1.76-1.49-.35-2.34.77-2.86,1.92-.89,4-1.39,6-2.26a9.53,9.53,0,0,0,2.15-1.9l-.47-.9c-3.61.64-7.24,1.18-10.81,2C97.63,41.3,96.85,42.32,96,43Z" transform="translate(-2.77 -3.06)"/><path class="l" d="M68.05,61.05,76,59l2,1c-3.31,1.83-6.81,3.39-9.9,5.55-9.69,6.75-14.44,13.26-7,24.7,1.42,2.18,2.61,4.52,3.9,6.78a53.35,53.35,0,0,1-4.33-4c-1.35-1.55-2.43-3.33-3.63-5l-1-3-2-6-1-3c-.15-4.76,1.26-8.87,5-12l4.58,3.29L64,64C66.16,64.12,67.88,63.64,68.05,61.05Z" transform="translate(-2.77 -3.06)"/><path class="b" d="M58,64c-3.73,3.14-5.14,7.25-5,12l-6.09-.76c1.25-7.08,4.37-11.59,10.52-14.12L58,63C58,63.32,58,63.65,58,64Z" transform="translate(-2.77 -3.06)"/><path class="k" d="M58,64c0-.33,0-.66,0-1l4-3,2,4-1.45,3.25Z" transform="translate(-2.77 -3.06)"/><path class="g" d="M56,85l1,3c-1.8.12-2.5,1.2-1.62,2.64a71,71,0,0,0,6.55,9.64c1.93,2.23,3.57,4.21,3.08,7.34-.37,2.4.87,3.89,2.72,5.36,1.69,1.34,2.86,3.33,4.26,5-10.55-4.24-16.38-12.79-21.1-22.76C53.6,92.22,51.71,87.19,56,85Z" transform="translate(-2.77 -3.06)"/><path class="j" d="M20.92,72.93,21,70c1.56.23,3.77-.86,4,2A19.57,19.57,0,0,0,25,83c-3.27-.21-3.62-2.8-4-5.17A35.74,35.74,0,0,1,20.92,72.93Z" transform="translate(-2.77 -3.06)"/><path class="i" d="M92,38H83c.2-2.9,2.32-3.68,4.66-4.37,11.85-3.48,23.68-7,35.53-10.54,5-1.48,10-2.9,15-4.45.41-.13.56-1.08.83-1.65l9-1,5-1c3.92,0,7.84.13,11.74-.1,1.13-.06,2.2-1.19,3.29-1.83l5-.07c2.86,1.33,5.69,2.37,8-.91L195,12c.37.3.74.87,1.11.87q12.38.09,24.74,0c.39,0,.77-.55,1.15-.84l16,1c0,1.32,0,2.64,0,4-13.41-.33-26.81-.7-40.21-.94A31.25,31.25,0,0,0,192,17a6.67,6.67,0,0,0-2.33-.7c-8.84.85-17.71,1.56-26.51,2.75C152.72,20.47,142.37,22.33,132,24l-25,6c-2.2.66-4.41,1.29-6.59,2C97,33.12,93.71,34.48,92,38Z" transform="translate(-2.77 -3.06)"/><path class="k" d="M330,161l4-1.1L358,152l3-1c-.53,1.42-.68,3.68-1.66,4.12-9.24,4.16-18.14,9.28-28.38,10.83C330.59,164.29,330.28,162.65,330,161Z" transform="translate(-2.77 -3.06)"/><path class="i" d="M361,151l-3,1c-.9-3.39-3.22-2-5.13-1.4-4.67,1.45-9.29,3-14.29,4.7-.25-1.44-.42-2.37-.58-3.29h3l19.39-7c2.86-1,5.74-2,8.61-3l4,3Z" transform="translate(-2.77 -3.06)"/><path class="b" d="M330,161c.31,1.64.62,3.28.94,4.93-5.59-.95-9.9,3.33-15.21,3.69-2.93.19-5.83.86-8.75,1.32.34-1.67.67-3.34,1-5,2.42-2.78,5.79-1.5,8.74-2.09C321.13,163,325.54,162,330,161Z" transform="translate(-2.77 -3.06)"/><path class="b" d="M297.94,172.94c.23-1.25.39-2.67,2-1Z" transform="translate(-2.77 -3.06)"/><path class="c" d="M247,171.06l13-1c-.32.54-.65,1.55-.95,1.54C255,171.53,251,171.28,247,171.06Z" transform="translate(-2.77 -3.06)"/><path class="c" d="M262,170l12-1c-.31.54-.63,1.57-.93,1.57C269.37,170.52,265.68,170.26,262,170Z" transform="translate(-2.77 -3.06)"/><path class="c" d="M279,169l5-.89C282.79,171,281,170.43,279,169Z" transform="translate(-2.77 -3.06)"/><path class="c" d="M288,168l4-.84C291.18,169.85,289.65,169.29,288,168Z" transform="translate(-2.77 -3.06)"/><path class="c" d="M302.92,166.09,305,166c-.41.54-.82,1.08-1.22,1.63Z" transform="translate(-2.77 -3.06)"/><path class="h" d="M369,142c-2.87,1-5.75,2-8.61,3L341,152v-4l19-6,11-4-1,2Z" transform="translate(-2.77 -3.06)"/><path class="k" d="M388,123v4l-8,5-3,1c-1.75-1.53-.23-2.2.81-2.93C381.15,127.69,384.56,125.35,388,123Z" transform="translate(-2.77 -3.06)"/><path class="j" d="M388,127v-1l8-2-7.64,8.21-.95-.62C387.56,130.06,387.76,128.52,388,127Z" transform="translate(-2.77 -3.06)"/><path class="i" d="M377,133l3-1c-.2,1-.05,2.61-.65,3-3,1.86-6.2,3.39-9.33,5l1-2c1-1,1.9-2,2.95-2.84S375.93,133.71,377,133Z" transform="translate(-2.77 -3.06)"/><path class="l" d="M296,29a181.66,181.66,0,0,0,26.24,9.09,61.72,61.72,0,0,1,18.49,7.53L340.37,47,330.93,45,328,45,325.92,43c-1.71-.39-3.42-.77-5.13-1.17L313,40l-10-3a28.35,28.35,0,0,0-4-.5c-1.78,0-3.57.49-5.34.4-3.57-.17-7.12-.6-10.69-.92-5.59-4-11.81-2.19-17.83-1.79-.78,0-1.44,1.82-2.16,2.79l-2,0c-3.58-8.43-10.37-11-15.53-6.09L248,34l-26-.1c-.36-2.73,1.34-4.14,3.57-4.54a14.63,14.63,0,0,1,6.32.18c2.6.72,4.43.18,6.51-2L236,26c.25-2.83,2.45-1.74,4-2,.53.32,1,.88,1.6.92,5.8.41,11.6.74,17.4,1.09,0,2.23.32,4.16,3.61,3.7L263,27l6,1c3.1.33,6.24.47,9.29,1C284.18,30.13,290.06,31.23,296,29Z" transform="translate(-2.77 -3.06)"/><path class="l" d="M132,24c10.39-1.67,20.74-3.53,31.16-4.95,8.8-1.19,17.67-1.9,26.51-2.75A6.67,6.67,0,0,1,192,17v2a18.65,18.65,0,0,1-3.64,1c-6.93.41-13.88.6-20.81,1.1a51.81,51.81,0,0,0-7.19,1.55l.21,1.57L202.62,22l.36-2c6.67.13,13.5-.8,20,2.78l4.28-2.25L231,26H218c-5.77.33-11.55.76-17.33.94-2.62.08-5.26-.35-7.89-.52a60.54,60.54,0,0,0-6.43-.36c-6.28.23-12.55.62-18.83.95-1.16.06-2.33,0-3.48.14Q150.5,28.55,137,30c-1-2.41-3.09-1.95-5-2Z" transform="translate(-2.77 -3.06)"/><path class="i" d="M203,20l-.36,2-42.07,2.21-.21-1.57a51.81,51.81,0,0,1,7.19-1.55c6.93-.5,13.88-.69,20.81-1.1A18.65,18.65,0,0,0,192,19Z" transform="translate(-2.77 -3.06)"/><path class="i" d="M218,26h18l2.38,1.53c-2.08,2.22-3.91,2.76-6.51,2a14.63,14.63,0,0,0-6.32-.18c-2.23.4-3.93,1.81-3.57,4.54l0,.13-4,0L216,33V31Q217,28.49,218,26Z" transform="translate(-2.77 -3.06)"/><path class="k" d="M269,28l-6-1-4-1c-5.8-.35-11.6-.68-17.4-1.09-.55,0-1.07-.6-1.6-.92.27-.56.58-1.63.82-1.61,4,.26,7.68-1.7,11.94-.28s9,1.17,14.7,1.79Z" transform="translate(-2.77 -3.06)"/><path class="l" d="M238,17c0-1.32,0-2.64,0-4l10.95.08c.29,1.26.55,2.56,2.06.85l9,1c0,.36,0,.72,0,1.07-.08.81-.17,1.61-.35,3.25Z" transform="translate(-2.77 -3.06)"/><path class="g" d="M260,16c0-.35,0-.71,0-1.07l2,.06Z" transform="translate(-2.77 -3.06)"/><path class="j" d="M364,59l3,1,2,1,1,1,6,5a41,41,0,0,0,.88,5.8c1.78,6,1.73,11.69-2.6,16.75-.28.32-.19,1-.28,1.44a43.36,43.36,0,0,1-16,15l-1-2L361,99.94c4.59-.78,6.78-3.52,7.85-9.8,4.09-3.6,4.44-9.28.15-15.87C368.24,80.19,367.6,85.1,367,90q-1.49,2-3,4l-3.38-1.59c-.23-1.25-.44-2.34-.64-3.43.8-3.07,4.2-5.27,3-9,.32-.67.63-1.35,1-2,0-1,0-2,0-2.95-.42-9.41-5.15-16.16-13-21,.18-2.1,1.31-2.34,2.93-1.43,1.37.78,2.71,1.62,4.06,2.44l4,2Z" transform="translate(-2.77 -3.06)"/><path class="g" d="M351,54c7.81,4.86,12.54,11.61,13,21-2.68-2.06-5.51-4-8-6.22s-4.27-5.83-8.41-6.94c-.23,1.27-.39,2.19-.56,3.12l-1,2c-2.72-2.24-5.6-4.33-8.14-6.75-7.55-7.21-17.51-9-26.84-12.24l-5-2c-.48-1.34-1-2.67-1.45-4-.54-1.66-1-3.34-1.54-5l10,3-2.28,2.7,35.51,14.5,1.28-1.8L343,52Z" transform="translate(-2.77 -3.06)"/><path class="b" d="M343,52l4.52,3.39-1.28,1.8-35.51-14.5L313,40l7.83,1.87c1.71.4,3.42.78,5.13,1.17L328,45l3,.05c.87,4.61,5.81,3.49,8.33,5.84C340.11,51.65,341.7,51.64,343,52Z" transform="translate(-2.77 -3.06)"/><path class="k" d="M222,12c-.38.29-.76.84-1.15.84q-12.37.06-24.74,0c-.37,0-.74-.57-1.11-.87a6.27,6.27,0,0,1,2.15-.89q11.37-.09,22.73,0C220.56,11.08,221.27,11.69,222,12Z" transform="translate(-2.77 -3.06)"/><path class="k" d="M181,12.08c-2.34,3.28-5.17,2.24-8,.91V12Z" transform="translate(-2.77 -3.06)"/><path class="g" d="M251,14c-1.51,1.71-1.77.41-2.06-.85Z" transform="translate(-2.77 -3.06)"/><path class="k" d="M147,145c.08-.78.15-1.57.19-2,3.24,0,6.24,0,9.24,0,2.09,0,3.47-.72,3.57-3a14.71,14.71,0,0,1,3.8.47c3.78,1.5,5.56-.76,7.2-3.49,5.47,0,11-.17,16.42.08,11.86.53,23.72,1.28,35.57,1.93a8.1,8.1,0,0,0,2.62,1q13.4.1,26.8,0a8.24,8.24,0,0,0,2.59-1l8-1,2,0c2.52.95,5.15,2.7,7-1l3,0c1.65,1.72,1.79.29,2-1l2.94-.94c-.08,1.81.4,3,2.59,3A7.36,7.36,0,0,1,285,139c-5.07,1-10.11,2.24-15.23,2.92-11.2,1.5-22.45,2.71-33.68,4-.77-.63-1.48-1.56-2.36-1.75-.44-.1-1.17,1.14-1.77,1.77H228c-.54-.31-1.09-.91-1.61-.87-3.55.23-7.1.51-10.62,1-.65.09-1.15,1.21-1.72,1.86-2.2-.43-4.41-.84-6.61-1.28-2.82-.55-5.63-1.12-8.44-1.69-2-.66-3.9-1.71-5.92-1.92A43.79,43.79,0,0,0,174,145a8.11,8.11,0,0,1-4.6-.31c-3.31-1-6.32-.32-8.44,2.3l-7-1Z" transform="translate(-2.77 -3.06)"/><path class="j" d="M171,137c-1.64,2.73-3.42,5-7.2,3.49A14.71,14.71,0,0,0,160,140c-9.69-1.67-19.39-3.28-29.07-5a71.48,71.48,0,0,1-6.92-2c4-.17,8-.61,11.91-.44,4.38.19,8.73.94,13.09,1.44,4,.4,8.11.69,12.14,1.22C164.43,135.62,167.69,136.36,171,137Z" transform="translate(-2.77 -3.06)"/><path class="d" d="M138,148h-2c-.12-2.26-1.85-1.74-3.27-2.05-3-.67-5.9-1.73-8.89-2.44-5.26-1.25-10.55-2.36-15.82-3.53l-.93-4c9.37,2.55,19.35,2.4,28.38,6.59,2.64,1.23,5.68,1.62,8.54,2.4v2Z" transform="translate(-2.77 -3.06)"/><path class="i" d="M149,134c-4.36-.5-8.71-1.25-13.09-1.44-4-.17-7.94.27-11.91.44l-4,0L117,131h-2v-1l1-3c4.59.33,9.18.69,13.78,1,5.82.34,11.48,2.95,17.48,1.24.38-.11,1.15,1.16,1.73,1.79C149,132,149,133,149,134Z" transform="translate(-2.77 -3.06)"/><path class="b" d="M144,147v-2h3l7,1v4h-4c-.84-.33-1.71-.61-2.51-1C146.29,148.36,145.15,147.66,144,147Z" transform="translate(-2.77 -3.06)"/><path class="j" d="M117,131l3.06,1.91C118.55,133,117,133.15,117,131Z" transform="translate(-2.77 -3.06)"/><path class="j" d="M66,98c2.93.17,5.66.75,7.12,3.73L72,103H69C67.76,101.46,64.3,101.29,66,98Z" transform="translate(-2.77 -3.06)"/><path class="k" d="M69,103h3l-2,2h0Z" transform="translate(-2.77 -3.06)"/><path class="l" d="M80,113l-1,0q-1-3-2-5.94l10,3,23,7v4a27.45,27.45,0,0,1-4.92-.52C96.68,118.06,88.33,115.51,80,113Z" transform="translate(-2.77 -3.06)"/><path class="k" d="M80,113c8.36,2.51,16.71,5.06,25.1,7.47A27.45,27.45,0,0,0,110,121q1.5,2,3,4l-9-1-10.5-3L92.94,124c-1.87-.73-4.17-1-5.52-2.29C84.66,119.1,82.42,115.94,80,113Z" transform="translate(-2.77 -3.06)"/><path class="g" d="M87,110l-10-3c-1.25.74-3.52-2.85-4,1l-3-3,2-2,1.08-1.25,2,.18c.51,3.06,2.13,2.41,3.93,1.19l4,1c.54,1,1,2,1.64,2.9S86.19,109,87,110Z" transform="translate(-2.77 -3.06)"/><path class="k" d="M73,108c.52-3.8,2.79-.21,4-1q1,3,2,5.94Z" transform="translate(-2.77 -3.06)"/><path class="h" d="M104,124l9,1,3,2-1,3-11-2Z" transform="translate(-2.77 -3.06)"/><path class="j" d="M125,147v5L119,151l-13-3.11,1-3.91C112.72,146.51,118.77,147.19,125,147Z" transform="translate(-2.77 -3.06)"/><path class="c" d="M125,147c-6.19.17-12.24-.51-18-3l0-2,1-2c5.27,1.17,10.56,2.28,15.82,3.53,3,.71,5.9,1.77,8.89,2.44,1.42.31,3.15-.21,3.27,2.05Z" transform="translate(-2.77 -3.06)"/><path class="d" d="M329.94,142.93l-2.06.84a21.36,21.36,0,0,0-4.06-.19c-5.29.73-10.57,1.6-15.85,2.41q-1.5-2.51-3-5l17-5c4.5-1.43,9-2.81,13.5-4.31,3.14-1.06,5.06-3.07,4.49-6.68l2-2,3-.08c3,3.58,4,4,7.79,2.12s7.57-4.05,11.7-6.28c.23,1.39.38,2.31.53,3.23l-3,3c-3,.35-4.12,2.16-4,5-5.79,2.58-11.54,5.23-17.38,7.69-2.38,1-5,1.36-7.4,2.39C331.91,140.59,331,141.94,329.94,142.93Z" transform="translate(-2.77 -3.06)"/><path class="l" d="M362,136.06c9.79-4.86,19.46-10.07,27.48-17.53,4.09-3.8,8.89-7.48,10.42-13.45l3.05-5.12c1.86-5.17.78-10.13-1.54-14.78C399.93,82.27,397.8,79.7,396,77V75l6,2,3,0,2,6,1.94,2v3c-.32.71-1,1.46-.91,2.14.9,9.06-4.08,15.81-9.17,22.27-3.11,3.94-7.22,7.09-10.87,10.6-3.4,2.36-6.81,4.7-10.19,7.08-1,.73-2.56,1.4-.81,2.93-1,.71-2.11,1.34-3.06,2.13s-2,1.88-2.95,2.84l-11,4-.06-4h0Z" transform="translate(-2.77 -3.06)"/><path class="k" d="M357,104l1,2c-2.52,1.75-5.15,3.37-7.52,5.31-1.09.9-1.67,2.43-2.48,3.67l-16,6-4,0c-2.63-.77-5-1.34-7.76.48-1.38.91-4.13-.27-6.27-.5,5.05-1.33,10.23-2.29,15.1-4.1,6.11-2.27,11.95-5.23,17.91-7.9Z" transform="translate(-2.77 -3.06)"/><path class="f" d="M396,77c1.83,2.73,4,5.3,5.41,8.21,2.32,4.65,3.4,9.61,1.54,14.78L398,101c-1-2-2.07-4-3.11-5.93-.33-1.35-.66-2.69-1-4,0-1.33,0-2.65,0-4,0-3.34,0-6.68,0-10Z" transform="translate(-2.77 -3.06)"/><path class="b" d="M365,122c-.15-.92-.3-1.84-.53-3.23-4.13,2.23-7.85,4.4-11.7,6.28s-4.83,1.46-7.79-2.12l1-1L348,120l8.95-4.06c7.13-1.83,10.48-1.49,13.58,2Z" transform="translate(-2.77 -3.06)"/><path class="l" d="M393.91,87c0,1.33,0,2.65,0,4-1,1.21-2.84,2.24-.89,4.1-3.76,8.18-7.58,16.32-15.06,21.94,0-1.35,0-2.69,0-4h0l5-7,2-7c.56-.27,1.54-.46,1.61-.84.56-2.7.93-5.45,1.36-8.18l1-2Z" transform="translate(-2.77 -3.06)"/><path class="l" d="M356.93,116,348,120l-2.08,1.91-1,1-3,.08-2,1-6,2-2,0c0-1.68,0-3.35,0-5l16-6,11.18-4.26Z" transform="translate(-2.77 -3.06)"/><path class="k" d="M374,91c.09-.49,0-1.12.28-1.44,4.33-5.06,4.38-10.72,2.6-16.75A41,41,0,0,1,376,67l3,2c.05,2,1.27,2.62,3.11,3.12,1.54.41,2.82,1.75,4.22,2.67l.72,1.73-4.7,2.67C381.81,85.24,380,89.69,374,91Z" transform="translate(-2.77 -3.06)"/><path class="b" d="M379,69l-3-2-6-5-1-1-2-1c.12-1.24.25-2.48.45-4.57a40.14,40.14,0,0,1,14.86,13Z" transform="translate(-2.77 -3.06)"/><path class="k" d="M393.91,87l-5,1c.85-3.39,1.71-6.78,2.69-10.65L394,77C393.94,80.33,393.92,83.67,393.91,87Z" transform="translate(-2.77 -3.06)"/><path class="k" d="M387.94,90c-.43,2.73-.8,5.48-1.36,8.18-.07.38-1.05.57-1.61.84-.84-2-1.67-4.08-2.83-6.89Z" transform="translate(-2.77 -3.06)"/><path class="k" d="M402,77l-6-2c.8-1,1.66-2,2.38-3s1.07-1.92,1.6-2.89c1.33,1.63,2.67,3.26,4,4.9C401.78,74,402,75.55,402,77Z" transform="translate(-2.77 -3.06)"/><path class="k" d="M378,113c0,1.35,0,2.69,0,4-1.84,2.35-3.47,5-6.91,5.17C371.38,117.64,374.92,115.5,378,113Z" transform="translate(-2.77 -3.06)"/><path class="k" d="M382.94,106l-5,7C378.84,110.1,378.8,106.55,382.94,106Z" transform="translate(-2.77 -3.06)"/><path class="b" d="M358,130c-.11-2.82,1.05-4.63,4-5Z" transform="translate(-2.77 -3.06)"/><path class="k" d="M364,59l-2-2Z" transform="translate(-2.77 -3.06)"/><path class="b" d="M407,83l-2-6c0-.69,0-1.37.05-2.06l2,0c2.52,3.66,5.17,7.24,7.49,11,.88,1.43,1,3.33,1.48,5l-7-3V85Z" transform="translate(-2.77 -3.06)"/><path class="g" d="M405,75c0,.69,0,1.37-.05,2.06l-3,0c0-1.43-.17-3,2-3Z" transform="translate(-2.77 -3.06)"/><path class="e" d="M163.89,158.14,159,158c0-1,0-2,0-3l1-.06h4l5,1,7,.06,9,1h7l18,1,24,1,9,1-2,3.14-22,.78-10,0-19-1.67-3.11-1.06-2.84,0-6.17-1-4.91-.09-3.08-.92-3.82.74Z" transform="translate(-2.77 -3.06)"/><path class="h" d="M275,156h5c.69.66,1.33,1.38,2.08,2,.93.73,1.94,1.35,2.91,2-1.62.66-3.21,1.75-4.88,1.9-6,.54-12.07.76-18.11,1.11-.91-1.38-1.83-2.75-3.05-4.58L263,158c3.09,0,6.2.15,9.28-.1C273.19,157.81,274.06,156.65,275,156Z" transform="translate(-2.77 -3.06)"/><path class="l" d="M263,158l-4.05.43L262,163H251v-3h5.6c.54-3.28-1-3.81-3-4-1.87-.18-3.72-.63-5.57-1,.53-.32,1-.89,1.59-.93,6.14-.41,12.28-.74,18.42-1.1l2,0c.22.85.44,1.7.81,3.1l-6.82-.75C263.62,156.25,263.29,157.11,263,158Z" transform="translate(-2.77 -3.06)"/><path class="i" d="M359.91,137.94l.06,4-19,6-5-1c4.93-2,9.82-4.11,14.79-6C353.74,139.8,356.85,138.93,359.91,137.94Z" transform="translate(-2.77 -3.06)"/><path class="h" d="M338,152c.16.92.33,1.85.58,3.29,5-1.65,9.62-3.25,14.29-4.7,1.91-.59,4.23-2,5.13,1.4l-24,7.93,2.68-3.06-3.5-2.8Z" transform="translate(-2.77 -3.06)"/><path class="l" d="M285,160c-1-.67-2-1.29-2.91-2-.75-.59-1.39-1.31-2.08-2l15-1c.19,2.32-.53,3.82-3.16,4C289.49,159.21,287.23,159.66,285,160Z" transform="translate(-2.77 -3.06)"/><path class="j" d="M251,160v3l-10,.07,2-3.14Z" transform="translate(-2.77 -3.06)"/><path class="j" d="M209,163.86l10,0A10.09,10.09,0,0,1,209,163.86Z" transform="translate(-2.77 -3.06)"/><path class="h" d="M328,149l6-2c-.74,1.3-1.19,3.15-2.3,3.74S328.2,151.66,328,149Z" transform="translate(-2.77 -3.06)"/><path class="c" d="M177.88,160.15l6.17,1-.12,1.11-6-.2Z" transform="translate(-2.77 -3.06)"/><path class="j" d="M183.93,162.22l.12-1.11,2.84,0L187,163C185.49,164.51,184.45,164.35,183.93,162.22Z" transform="translate(-2.77 -3.06)"/><path class="c" d="M187,163l-.09-1.91,3.11,1.06Z" transform="translate(-2.77 -3.06)"/><path class="c" d="M144,147c1.17.66,2.31,1.36,3.5,2,.8.41,1.67.69,2.51,1l1,4,3,3.86c-3.67-1.21-8.12-.27-10.92-3.92l-.09-2,2.3-.83L138,148Z" transform="translate(-2.77 -3.06)"/><path class="f" d="M154,157.89,151,154l8,1c0,1,0,2,0,3Z" transform="translate(-2.77 -3.06)"/><path class="m" d="M143,152l.09,2H138l-.51-2Z" transform="translate(-2.77 -3.06)"/><path class="c" d="M169.89,159.14l3.08.92C171.41,161.55,170.38,161.25,169.89,159.14Z" transform="translate(-2.77 -3.06)"/><path class="c" d="M163.89,158.14l2.18,1.74Z" transform="translate(-2.77 -3.06)"/><path class="d" d="M101,47l11-2c1.63,1.65,1.79.27,2-1l1-1,6,0,2,0,5.92-.07L135,41l2,0,2,1c2.24,4.27,5.7,1.07,8.67,1.84L148,41h2l3.69,3.45-2.15.56L140,48c-2.26.35-4.54.63-6.78,1.09-2.74.55-5.43,1.77-8.15,1.81C118,51,110.86,50.78,104,53l-3-5C101,47.67,101,47.34,101,47Z" transform="translate(-2.77 -3.06)"/><path class="g" d="M77.07,85c-1.49-9.2.2-17.69,7.05-25.86L78,60l-2-1c.26-3.06,3.15-2.11,4.69-2.64A65.87,65.87,0,0,1,91.73,54c1.44-.23,3.14-.29,3.26,2-2.94,1.28-6.41,2-7,6l-5.44,6.06,6,4.68.16-.73L95,73.08l-1,3c-2.27,0-3.22,1.28-3,3.35.17,1.88.63,3.73,1,5.59L87.61,81.2l.19-.15-7.16-4.49c-1.63,1.88-1.63,1.88.54,6.91Z" transform="translate(-2.77 -3.06)"/><path class="e" d="M104,53c6.87-2.21,14-2,21.06-2.1,2.72,0,5.41-1.26,8.15-1.81,2.24-.46,4.52-.74,6.78-1.09l0,2.55c-3.91,1.05-7.81,2.12-11.72,3.13a86.93,86.93,0,0,0-31,14.81Q98.11,61.75,99,55Z" transform="translate(-2.77 -3.06)"/><path class="f" d="M99,55q-.87,6.74-1.75,13.48a1,1,0,0,1-.15.54c-3.26-2-8.47-1.58-9.1-7,.59-4,4.06-4.71,7-6Z" transform="translate(-2.77 -3.06)"/><path class="g" d="M101,47c0,.33,0,.66,0,1l-4.48,1L96,43c.87-.66,1.65-1.68,2.62-1.9,3.57-.81,7.2-1.35,10.81-2l.47.9a9.53,9.53,0,0,1-2.15,1.9c-1.93.87-4,1.37-6,2.26C100.66,44.67,99.25,45.52,101,47Z" transform="translate(-2.77 -3.06)"/><path class="i" d="M132,28c1.92.05,4-.41,5,2l-3.6,2.72c2.58.14,4,.27,5.46.28,4.66,0,9.31,0,14,0,2.2,0,4.05.3,4.17,3.05l-20,3L135,40l-3,0c.47-1.53.94-3.07,1.52-5H121l-5,0-2,1-6,0-5.66-.48,0-1.11L107,33c6.23-1.32,12.47-2.67,18.71-4C127.78,28.61,129.89,28.34,132,28Z" transform="translate(-2.77 -3.06)"/><path class="j" d="M121,35H133.5c-.58,1.92-1.05,3.46-1.52,5l-3.07,2.91L123,43l-2,0-6,0c-.49-4.35,3.93-2.9,5.8-5Z" transform="translate(-2.77 -3.06)"/><path class="l" d="M107,33l-4.61,1.44,0,1.11L108,36c-1.08.66-2.14,1.83-3.25,1.88-4.25.22-8.52.09-12.78.08,1.73-3.5,5-4.86,8.42-6,2.18-.72,4.39-1.35,6.59-2Z" transform="translate(-2.77 -3.06)"/><path class="l" d="M87,38h0Z" transform="translate(-2.77 -3.06)"/><path class="j" d="M114,36l2-1C115.78,36.28,115.62,37.68,114,36Z" transform="translate(-2.77 -3.06)"/><path class="b" d="M114,44c-.22,1.25-.38,2.63-2,1Z" transform="translate(-2.77 -3.06)"/><path class="j" d="M107,33V30l25-6v4c-2.09.35-4.2.62-6.28,1.05C119.46,30.32,113.22,31.67,107,33Z" transform="translate(-2.77 -3.06)"/><path class="k" d="M303,37c.51,1.67,1,3.35,1.54,5,.45,1.36,1,2.69,1.45,4l-14-2.11-2.09-1.88L288,42,286,42l-3,0-1-2,1-4c3.57.32,7.12.75,10.69.92,1.77.09,3.56-.39,5.34-.4A28.35,28.35,0,0,1,303,37Z" transform="translate(-2.77 -3.06)"/><path class="j" d="M283,36l-1,4-2,1-8-1.89a4.46,4.46,0,0,0-6-.09l-2,0c-.35-.65-.7-1.3-1-1.95.72-1,1.38-2.74,2.16-2.79C271.15,33.8,277.37,32,283,36Z" transform="translate(-2.77 -3.06)"/><path class="j" d="M248,34l-2.54-3.15c5.16-4.93,11.95-2.34,15.53,6.09v1l-3,0c-.73-.65-1.37-1.6-2.22-1.88C253.22,35.24,250.58,34.68,248,34Z" transform="translate(-2.77 -3.06)"/><path class="c" d="M248,34c2.61.66,5.25,1.22,7.81,2,.85.28,1.49,1.23,2.22,1.88-1.15,0-2.3.08-3.45,0-7.63-.63-15.26-1.33-22.9-1.91-2.29-.17-4.62.16-6.89-.12-1-.12-1.86-1.21-2.78-1.86l0-.13Z" transform="translate(-2.77 -3.06)"/><path class="j" d="M259,26l4,1-.4,2.7C259.28,30.17,259,28.24,259,26Z" transform="translate(-2.77 -3.06)"/><path class="c" d="M261,38V37l2,0,1,1.95Z" transform="translate(-2.77 -3.06)"/><path class="k" d="M328,45,325.92,43Z" transform="translate(-2.77 -3.06)"/><path class="h" d="M157,36c-.12-2.75-2-3.07-4.17-3.05-4.65.05-9.3,0-14,0-1.44,0-2.88-.14-5.46-.28L137,30q13.5-1.43,27-2.85c1.15-.11,2.32-.08,3.48-.14,6.28-.33,12.55-.72,18.83-.95a60.54,60.54,0,0,1,6.43.36c2.63.17,5.27.6,7.89.52,5.78-.18,11.56-.61,17.33-.94q-1,2.51-2,5l-3,1-24,1c-2-1.31-3.89-2.22-5,1l-6,0-6,1Z" transform="translate(-2.77 -3.06)"/><path class="f" d="M261,38l3.05,1,2,0,6,.09L280,41l3,1,3,0,2,.06,1.93,0L292,43.94l14,2.11,5,2,2.33,2.87L310,54c-6.21-1.66-12.35-3.63-18.63-4.92C283.27,47.43,275.09,46.33,267,45l-1.5-1.92L264,45l-6-1c-2.34-2.89-5.61-2.91-8,0l-6-1c-.42-.64-.82-1.8-1.28-1.83a70.07,70.07,0,0,0-8.45,0c-.46,0-.85,1.19-1.27,1.83-1.84.12-4.27-.66-4,2.65-3.43-.19-6.85-.52-10.27-.57-9.25-.12-18.5-.13-27.75-.18l-.42-3.69L187,41h-9.63l2.56,4.67Q166,47.33,152,49c-4,.49-8,1-12.06,1.55L140,48l11.53-3,2.15-.56L150,41a11.65,11.65,0,0,1,2.74-1c6.76-.72,13.53-1.35,20.3-2H176c4.24-.33,8.48-.82,12.73-.93,6.1-.16,12.21-.2,18.31,0,4,.14,7.75-.44,11-3l4,0c.92.65,1.79,1.74,2.78,1.86,2.27.28,4.6,0,6.89.12,7.64.58,15.27,1.28,22.9,1.91,1.15.09,2.3,0,3.45,0Zm-52.45,2.51,0,1.25a50,50,0,0,0,12.93-.19l0-1.06Z" transform="translate(-2.77 -3.06)"/><path class="c" d="M218,34c-3.23,2.58-6.93,3.16-11,3-6.1-.21-12.21-.17-18.31,0-4.25.11-8.49.6-12.73.93l2-4,6,0,5-1,24-1,3,.94Z" transform="translate(-2.77 -3.06)"/><path class="l" d="M216,33,213,32l3-1Z" transform="translate(-2.77 -3.06)"/><path class="b" d="M347,65c.17-.93.33-1.85.56-3.12,4.14,1.11,5.82,4.56,8.41,6.94s5.31,4.16,8,6.22c0,1,0,2,0,2.95-1.25.24-2.66.4-1,2,1.19,3.73-2.21,5.93-3,9l-2,1c-3.25.12-3.53-1.49-2.37-4,.92-2,1.79-4,2.89-6.52L353,76l-2,0,0-3C351.07,69.58,351.37,66.1,347,65Z" transform="translate(-2.77 -3.06)"/><path class="b" d="M357,104l-10,5c-2.35,0-4.82-.48-7,.12-3.46.93-6.72,2.59-10.45,4.1L324,109l2-1c.82-.08,1.64-.11,2.45-.24,7.07-1.18,13.68-4.58,21.17-3.92,1.78.16,3.87-1.48,5.58-2.63A47.47,47.47,0,0,0,360,97l1.21,0L361,99.94Z" transform="translate(-2.77 -3.06)"/><path class="f" d="M367,90c.65-4.9,1.29-9.81,2.07-15.73,4.29,6.59,3.94,12.27-.15,15.87Z" transform="translate(-2.77 -3.06)"/><path class="k" d="M361.17,97,360,97l-3-.53c.37-2.36.69-4.42,1-6.48l2-1c.2,1.09.41,2.18.64,3.43L364,94Z" transform="translate(-2.77 -3.06)"/><path class="m" d="M361.17,97l2.8-3q1.5-2,3-4l1.92.14c-1.07,6.28-3.26,9-7.85,9.8Z" transform="translate(-2.77 -3.06)"/><path class="g" d="M363,80c-1.71-1.63-.3-1.79,1-2C363.59,78.64,363.28,79.32,363,80Z" transform="translate(-2.77 -3.06)"/><path class="k" d="M369,61l1,1Z" transform="translate(-2.77 -3.06)"/><path class="d" d="M310,54l3.32-3.09L311,48c9.33,3.22,19.29,5,26.84,12.24,2.54,2.42,5.42,4.51,8.14,6.75l1,6c-2.37-1.7-4.72-3.42-7.11-5.1C330.69,61.5,320.38,57.62,310,54Z" transform="translate(-2.77 -3.06)"/><path class="k" d="M346.91,73l-1-6,1-2c4.41,1.13,4.11,4.61,4,8l-3.13,0A5.91,5.91,0,0,1,346.91,73Z" transform="translate(-2.77 -3.06)"/><path class="e" d="M322,136l-17,5-17,3-8,1h-3c-5.38.34-10.77.53-16.13,1.08-3.32.34-6.58,1.24-9.87,1.89l-8,.09c-2.65,0-5.17-.47-7.94.65-1.94.78-4.67-.38-7.05-.68l0-2.07h3.95l4.13,0c11.23-1.33,22.48-2.54,33.68-4,5.12-.68,10.16-1.93,15.23-2.92l9-1.09,2-.92,8-1.07,2-.94,2,0,2-.94,8-2.05,2,.07Z" transform="translate(-2.77 -3.06)"/><path class="m" d="M279.92,135.07,277,136l-2,1-3,0-7,0c-1.66-1.69-1.8-.27-2,1l-8,1a25.47,25.47,0,0,0-4.65-.91c-8.78-.09-17.57,0-26.35,0-.09-1.87.2-3.41,2.38-4.06.67-.2,1.09-1.24,1.63-1.9h5l2.13,1.78L235,132l0-1,7,0,7,0,3,0,2.28,1.89,1.71-3,2,0,5,1h11c2.4,2,4.15.14,6-1l6,0v4Z" transform="translate(-2.77 -3.06)"/><path class="c" d="M154,150v-4l7,1c9.76,3.11,20,3,30,4l41,1v3.93l-22,0a15.39,15.39,0,0,0-3.61-.94c-4.8-.11-9.6,0-14.4,0h-7l-9-1h-7l-5-1h-4Z" transform="translate(-2.77 -3.06)"/><path class="h" d="M228,132c-.54.66-1,1.7-1.63,1.9-2.18.65-2.47,2.19-2.38,4.06l-1,1c-11.85-.65-23.71-1.4-35.57-1.93-5.46-.25-11-.07-16.42-.08-3.29-.6-6.55-1.34-9.85-1.78-4-.53-8.09-.82-12.14-1.22,0-1,0-2,0-3l13,1h8l10,1,7,1,8,1,17-3,3,4,4-1,3-3Z" transform="translate(-2.77 -3.06)"/><path class="l" d="M232,152l-41-1c-.43-3.34,1.15-4.82,4.4-5a17.86,17.86,0,0,0,3.59-1c2.81.57,5.62,1.14,8.44,1.69,2.2.44,4.41.85,6.61,1.28L228,148c2.38.3,5.11,1.46,7.05.68,2.77-1.12,5.29-.68,7.94-.65-.14,1.21-.29,2.43-.47,3.95Z" transform="translate(-2.77 -3.06)"/><path class="j" d="M199,145a17.86,17.86,0,0,1-3.59,1c-3.25.2-4.83,1.68-4.4,5-10-.95-20.24-.88-30-4,2.12-2.62,5.13-3.31,8.44-2.3a8.11,8.11,0,0,0,4.6.31,43.79,43.79,0,0,1,19-1.93C195.07,143.27,197,144.32,199,145Z" transform="translate(-2.77 -3.06)"/><path class="l" d="M279.92,135.07l6-1.09c2.32,0,4.7.28,6.93-.19,11.52-2.39,23-5,34.5-7.46.46-.1,1.06.46,1.59.71L320,131c-1.6-1.66-1.79-.3-2,.94L310,134c-1.59-1.64-1.79-.31-2,.94l-2,0c-1.58-1.62-1.79-.31-2,.94L296,137c-1.57-1.64-1.78-.33-2,.92L285,139a7.36,7.36,0,0,0-2.45-.94C280.32,138.08,279.84,136.88,279.92,135.07Z" transform="translate(-2.77 -3.06)"/><path class="l" d="M223,139l1-1c8.78,0,17.57,0,26.35,0a25.47,25.47,0,0,1,4.65.91,8.24,8.24,0,0,1-2.59,1q-13.41.1-26.8,0A8.1,8.1,0,0,1,223,139Z" transform="translate(-2.77 -3.06)"/><path class="f" d="M228,148,214,148c.57-.65,1.07-1.77,1.72-1.86,3.52-.49,7.07-.77,10.62-1,.52,0,1.07.56,1.61.87Z" transform="translate(-2.77 -3.06)"/><path class="l" d="M265,137l7,0c-1.86,3.7-4.49,1.95-7,1Z" transform="translate(-2.77 -3.06)"/><path class="f" d="M236.05,145.93l-4.13,0c.6-.63,1.33-1.87,1.77-1.77C234.57,144.37,235.28,145.3,236.05,145.93Z" transform="translate(-2.77 -3.06)"/><path class="l" d="M275,137l2-1C276.75,137.26,276.61,138.69,275,137Z" transform="translate(-2.77 -3.06)"/><path class="h" d="M265,137v1l-2,0C263.17,136.71,263.31,135.29,265,137Z" transform="translate(-2.77 -3.06)"/><path class="j" d="M187,134l-7-1a6,6,0,0,0-10-1h-3l-2.5-2.93L162,132l-13-1c-.58-.63-1.35-1.9-1.73-1.79-6,1.71-11.66-.9-17.48-1.24-4.6-.27-9.19-.63-13.78-1l-3-2-3-4v-4c4.36.82,8.78,1.43,13.06,2.55,2,.52,3.09.15,3.94-1.56,5.57.44,11.16.77,15.41,3.52l6.83-1.71,1.43,4.22,5.44-2.81,2.74,4.3,17.38-2.43c4.38,5.11,5.89,5.52,9.85,2.59-.34-1.47-.71-3-1.09-4.62h24c.06,1.9-.49,4.09,2.14,4.41,4.82-.76,9.63-1.13,14.45-1.45,2.68-.18,5.51-.07,5.39-4,5.67-.68,11.35-1.33,17-2,6.67-.82,13.37-1.44,20-2.58,9.35-1.61,18.64-3.6,28-5.43,2.19,2,.46,2.84-1.08,3.53-4.18,1.89-8.27,3.92-13.14,3.58-2.39-.17-4.86.55-7.27,1-2.65.46-2.57,2-1.49,4l-.1,1.91L247,127c-6.2.33-12.59-1-19.56,2.08L235,131l0,1L233,132H222l-3,3-4,1-3-4-17,3a4.18,4.18,0,0,0-4.52-4C188.4,131,187.08,131.73,187,134Z" transform="translate(-2.77 -3.06)"/><path class="g" d="M154,150l6,3c0,.66,0,1.33,0,2l-1,.06-8-1-1-4Z" transform="translate(-2.77 -3.06)"/><path class="b" d="M77.07,85l4.11-1.54c-2.17-5-2.17-5-.54-6.91l7.16,4.49-.19.15L92,85l1,3c-.61.74-1.78,1.5-1.75,2.21a46.23,46.23,0,0,0,.92,5.93L102,109,90,105c-1.09-1.72-1.85-3.85-3.36-5A12.89,12.89,0,0,1,82,94c-.61-1.73-1.46-3.41-3.84-3Z" transform="translate(-2.77 -3.06)"/><path class="k" d="M90,105,102,109l11.44,3.2.49-3.11a48.6,48.6,0,0,0,5.38,4.8A80.89,80.89,0,0,0,127,118c-.85,1.71-1.92,2.08-3.94,1.56-4.28-1.12-8.7-1.73-13.06-2.55l-23-7c-.8-1-1.66-2-2.38-3s-1.1-1.93-1.64-2.9a3.32,3.32,0,0,1,.93-.17Z" transform="translate(-2.77 -3.06)"/><path class="d" d="M90,105l-6.1-1.1c-1.71-3.55-3.44-7.09-5.11-10.65A15.14,15.14,0,0,1,78.12,91c2.38-.42,3.23,1.26,3.84,3a12.89,12.89,0,0,0,4.68,6C88.15,101.16,88.91,103.29,90,105Z" transform="translate(-2.77 -3.06)"/><path class="j" d="M79,103.1c-1.8,1.22-3.42,1.87-3.93-1.19Z" transform="translate(-2.77 -3.06)"/><path class="c" d="M280,145l8-1c-.17,2.47,0,4.73,3.1,5.15,2.11-.22,4.23-.15,6.34-.24,3.74-.16,7.81.8,10.57-2.91,5.28-.81,10.56-1.68,15.85-2.41a21.36,21.36,0,0,1,4.06.19c-5.28,1.52-10.48,3.42-15.85,4.47-6.59,1.3-13.32,1.9-20,2.79-2.38.58-5.45-1.65-7.11,1.78l-3.95,1c-1.09-1-2.23-2.74-3.25-2.68-2.62.17-5.19,1.17-7.77,1.83l-2,0c-.57-.65-1.07-1.75-1.74-1.87-3-.52-6.09-.6-9.09-1.16a49.88,49.88,0,0,1-6.19-2c3.29-.65,6.55-1.55,9.87-1.89,5.36-.55,10.75-.74,16.13-1.08l1.51,1.9Z" transform="translate(-2.77 -3.06)"/><path class="k" d="M270,153c2.58-.66,5.15-1.66,7.77-1.83,1-.06,2.16,1.73,3.25,2.68-1.88.07-3.78.08-5.65.3-.2,0-.26,1.21-.38,1.86-.9.66-1.77,1.82-2.71,1.89-3.08.25-6.19.1-9.28.1.32-.87.65-1.73,1-2.65l6.82.75C270.41,154.68,270.19,153.83,270,153Z" transform="translate(-2.77 -3.06)"/><path class="g" d="M398,101l4.88-1-3.05,5.12Z" transform="translate(-2.77 -3.06)"/><path class="k" d="M284.94,152.81c1.66-3.43,4.73-1.2,7.11-1.78Z" transform="translate(-2.77 -3.06)"/><path class="g" d="M393,95.09c-2-1.86-.13-2.89.89-4.1.34,1.34.67,2.68,1,4Z" transform="translate(-2.77 -3.06)"/><path class="i" d="M362,136.06l-2.06,1.88Z" transform="translate(-2.77 -3.06)"/><path class="b" d="M308,146c-2.76,3.71-6.83,2.75-10.57,2.91-2.11.09-4.23,0-6.34.24-3.07-.42-3.27-2.68-3.1-5.15l17-3Q306.48,143.49,308,146Z" transform="translate(-2.77 -3.06)"/><path class="f" d="M320,131l9-3.93,3-.07c1.56,1.69,1.79.37,2-.91l6-2v1c.57,3.61-1.35,5.62-4.49,6.68-4.48,1.5-9,2.88-13.5,4.31l-2-4Z" transform="translate(-2.77 -3.06)"/><path class="c" d="M340,125v-1l2-1Z" transform="translate(-2.77 -3.06)"/><path class="g" d="M407,83l1.94,2Z" transform="translate(-2.77 -3.06)"/><path class="h" d="M332,127l-3,.07c-.53-.25-1.13-.81-1.59-.71-11.51,2.47-23,5.07-34.5,7.46-2.23.47-4.61.15-6.93.19v-4c1.53-.34,3.05-.77,4.59-1s3.3-.06,4.9-.37c4.15-.81,8.24-1.89,12.39-2.65,5.94-1.1,11.92-2,17.85-3.08.86-.16,1.54-1.24,2.3-1.9l4,0c0,1.67,0,3.34,0,5C332,126.33,332,126.65,332,127Z" transform="translate(-2.77 -3.06)"/><path class="d" d="M324,109l5.56,4.19c3.73-1.51,7-3.17,10.45-4.1,2.19-.6,4.66-.12,7-.12-6,2.67-11.8,5.63-17.91,7.9-4.87,1.81-10.05,2.77-15.1,4.1l-2,0c.2-1.2.4-2.4.66-4a30,30,0,0,1-5.36-.09c-.85-.16-1.53-1.23-2.29-1.89l4-1c1.65,1.74,2.6,1.23,3-1l2,0c2.11.07,4.38.34,4-3Z" transform="translate(-2.77 -3.06)"/><path class="j" d="M312,121l2,0c2.14.23,4.89,1.41,6.27.5,2.78-1.82,5.13-1.25,7.76-.48-.76.66-1.44,1.74-2.3,1.9-5.93,1.12-11.91,2-17.85,3.08-4.15.76-8.24,1.84-12.39,2.65-1.6.31-3.28.15-4.9.37s-3.06.64-4.59,1l-6,0c-2.38-1.91-4.13-.06-6,1H263v-2a7.93,7.93,0,0,1,2.14-.95c6.22-.72,12.45-1.33,18.67-2,5.73-.65,11.45-1.38,17.17-2.08,1.59,1.76,1.79.39,2-.9l1-.1,2-1h4c1.62,1.7,1.79.3,2-1Z" transform="translate(-2.77 -3.06)"/><path class="g" d="M345.9,121.93,348,120Z" transform="translate(-2.77 -3.06)"/><path class="b" d="M332,127c0-.32,0-.64,0-1l2,0C333.74,127.34,333.51,128.66,332,127Z" transform="translate(-2.77 -3.06)"/><path class="h" d="M251,160l-8-.05-9-1V156l14-1c1.85.33,3.7.78,5.57,1,2.07.21,3.57.74,3,4Z" transform="translate(-2.77 -3.06)"/><path class="i" d="M234,156v2.89l-24-1,0-1.92,22,0Z" transform="translate(-2.77 -3.06)"/><path class="k" d="M210,156l0,1.92-18-1V155c4.8,0,9.6-.06,14.4,0A15.39,15.39,0,0,1,210,156Z" transform="translate(-2.77 -3.06)"/><path class="g" d="M176,154l9,1,0,1.94-9-1Z" transform="translate(-2.77 -3.06)"/><path class="j" d="M176,154v2l-7-.06c0-.65,0-1.3,0-1.95Z" transform="translate(-2.77 -3.06)"/><path class="i" d="M185,156.93l0-1.94h7v1.95Z" transform="translate(-2.77 -3.06)"/><path class="g" d="M169,154l0,1.95-5-1c0-.66,0-1.33,0-2Z" transform="translate(-2.77 -3.06)"/><path class="j" d="M164,153c0,.66,0,1.33,0,2h-4c0-.66,0-1.33,0-2Z" transform="translate(-2.77 -3.06)"/><path class="k" d="M234,156l-2-.05V152h10.52c.18-1.52.33-2.74.47-3.95l8-.09a49.88,49.88,0,0,0,6.19,2c3,.56,6.09.64,9.09,1.16.67.12,1.17,1.22,1.74,1.87-6.14.36-12.28.69-18.42,1.1-.55,0-1.06.61-1.59.93Z" transform="translate(-2.77 -3.06)"/><path class="c" d="M173,38c-6.77.65-13.54,1.28-20.3,2A11.65,11.65,0,0,0,150,41h-2l-9,1-2-1L137,39l20-3,15-1Z" transform="translate(-2.77 -3.06)"/><path class="f" d="M139,42l9-1-.34,2.85C144.68,43.06,141.22,46.26,139,42Z" transform="translate(-2.77 -3.06)"/><path class="c" d="M128.91,42.91,132,40l3,0v1Z" transform="translate(-2.77 -3.06)"/><path class="j" d="M135,41V40l2-.94L137,41Z" transform="translate(-2.77 -3.06)"/><path class="c" d="M121,43l2,0Z" transform="translate(-2.77 -3.06)"/><path class="l" d="M94.07,76.05c1.33,4,2,8.49,4.13,12a74.24,74.24,0,0,0,26.37,25.83c2.15,1.27,5,1.62,7.54,1.91C142.27,117,152.45,118,162.64,119c5.1.48,10.23.71,15.34,1,.43,2.27,1.42,2.66,3,.89l4,.12c.38,1.57.75,3.15,1.09,4.62-4,2.93-5.47,2.52-9.85-2.59l-17.38,2.43-2.74-4.3L150.66,124l-1.43-4.22-6.83,1.71c-4.25-2.75-9.84-3.08-15.41-3.52a80.89,80.89,0,0,1-7.69-4.13,48.6,48.6,0,0,1-5.38-4.8,3.67,3.67,0,0,1-1.43-.36A83.38,83.38,0,0,1,93,88l-1-3c-.33-1.86-.79-3.71-1-5.59C90.85,77.33,91.8,76,94.07,76.05Z" transform="translate(-2.77 -3.06)"/><path class="b" d="M97.09,69,95,73.08,88.73,72l-.16.73-6-4.68L88,62C88.62,67.44,93.83,67,97.09,69Z" transform="translate(-2.77 -3.06)"/><path class="c" d="M283,42l-3-1,2-1Z" transform="translate(-2.77 -3.06)"/><path class="c" d="M292,43.94l-2.09-1.88Z" transform="translate(-2.77 -3.06)"/><path class="c" d="M288,42,286,42Z" transform="translate(-2.77 -3.06)"/><path class="c" d="M272,39.06,266,39A4.46,4.46,0,0,1,272,39.06Z" transform="translate(-2.77 -3.06)"/><path class="l" d="M173,38l-1-3,6-1-2,4Z" transform="translate(-2.77 -3.06)"/><path class="l" d="M189,33l-5,1C185.09,30.78,187,31.69,189,33Z" transform="translate(-2.77 -3.06)"/><path class="a" d="M346.9,78.1c-8.73-4.35-17.27-9.17-26.25-12.94a215.65,215.65,0,0,0-43.11-12.74c-10.18-2-20.52-3-30.78-4.55-3.26-.49-6.51-1.15-9.76-1.72L236,45l0-1.89,8-.08,6,1,8,0,6,1h3c8.12,1.33,16.3,2.43,24.36,4.07,6.28,1.29,12.42,3.26,18.63,4.92,10.42,3.63,20.73,7.51,29.84,13.94,2.39,1.68,4.74,3.4,7.11,5.1a5.91,5.91,0,0,0,.94,0C347.53,74.71,347.22,76.41,346.9,78.1Z" transform="translate(-2.77 -3.06)"/><path class="c" d="M187,44.88l-7.12.8L177.33,41H187Z" transform="translate(-2.77 -3.06)"/><path class="b" d="M208.51,40.49h12.93l0,1.06a50,50,0,0,1-12.93.19Z" transform="translate(-2.77 -3.06)"/><path class="c" d="M244,43l-8,.08-3-.1c.42-.64.81-1.8,1.27-1.83a70.07,70.07,0,0,1,8.45,0C243.16,41.21,243.56,42.37,244,43Z" transform="translate(-2.77 -3.06)"/><path class="e" d="M233,43l3,.1L236,45,232,46l-3-.39C228.71,42.33,231.14,43.11,233,43Z" transform="translate(-2.77 -3.06)"/><path class="c" d="M258,44l-8,0C252.36,41.11,255.63,41.13,258,44Z" transform="translate(-2.77 -3.06)"/><path class="d" d="M187,44.88,187,41l3.6.19.42,3.69Z" transform="translate(-2.77 -3.06)"/><path class="b" d="M267,45h-3l1.5-1.91Z" transform="translate(-2.77 -3.06)"/><path class="g" d="M341,90l2-2c.91-.22,2.23-.15,2.65-.73,1.92-2.66,3.58-5.5,5.34-8.28,2.16,0,2-1.57,2-3l5.5,3.48c-1.1,2.49-2,4.51-2.89,6.52-1.16,2.51-.88,4.12,2.37,4-.32,2.06-.64,4.12-1,6.48l3,.53a47.47,47.47,0,0,1-4.8,4.2c-1.71,1.15-3.8,2.79-5.58,2.63-7.49-.66-14.1,2.74-21.17,3.92-.81.13-1.63.16-2.45.24l3.9-4.14L329,100a40.15,40.15,0,0,0,4.24-3.15C335.7,94.45,340,94.09,341,90Z" transform="translate(-2.77 -3.06)"/><path class="l" d="M351,79c-1.76,2.78-3.42,5.62-5.34,8.28-.42.58-1.74.51-2.65.73a28.46,28.46,0,0,0,1.7-3.29c.82-2.17,1.5-4.4,2.23-6.61.32-1.69.63-3.39,1-5.08L351,73l0,3C351,77,351,78,351,79Z" transform="translate(-2.77 -3.06)"/><path class="k" d="M351,79c0-1,0-2,.05-3l2,0C353,77.42,353.12,79,351,79Z" transform="translate(-2.77 -3.06)"/><path class="k" d="M329,100l.91,3.86L326,108l-2,1-6,1c-2.43-.49-3.27,1.17-4,3l-2,0-1-1v-5.18c2.66-1,5.07-1.88,7.41-2.88,2.13-.9,4.91-.94,5.58-3.93l2-1Z" transform="translate(-2.77 -3.06)"/><path class="b" d="M280,145l-1.49,1.91L277,145Z" transform="translate(-2.77 -3.06)"/><path class="k" d="M320,131v1l-2-.07C318.17,130.67,318.36,129.31,320,131Z" transform="translate(-2.77 -3.06)"/><path class="k" d="M307.93,134.9c.24-1.25.44-2.58,2-.94Z" transform="translate(-2.77 -3.06)"/><path class="k" d="M293.93,137.88c.25-1.25.46-2.56,2-.92Z" transform="translate(-2.77 -3.06)"/><path class="k" d="M303.93,135.89c.24-1.25.45-2.56,2-.94Z" transform="translate(-2.77 -3.06)"/><path class="f" d="M304,122.94l-1,.1-2,.9c-5.72.7-11.44,1.43-17.17,2.08-6.22.71-12.45,1.32-18.67,2A7.93,7.93,0,0,0,263,129l-5,.92-2,0-4-.1L249,129,247,127l25.9-3.07c1.56-.2,3.73,1,4.1-1.86l2-.08c1.7,1.48,3.37,1.54,5-.08l4-1c3.53.6,5.94-.28,8-3a5.75,5.75,0,0,1,.92-.1l2.15-1.78,4.75-1.16,1.18,0c.76.66,1.44,1.73,2.29,1.89a30,30,0,0,0,5.36.09c-.26,1.59-.46,2.79-.66,4l0,.07-2,1h-4C304.34,120.29,304.18,121.68,304,122.94Z" transform="translate(-2.77 -3.06)"/><path class="b" d="M247,127l2.05,2a6.31,6.31,0,0,0-.05,1l-7,1-7,0-7.56-1.9C234.38,126,240.77,127.33,247,127Z" transform="translate(-2.77 -3.06)"/><path class="h" d="M242,131l7-1v1.05Z" transform="translate(-2.77 -3.06)"/><path class="h" d="M252,129.86l4,.1-1.71,3L252,131Z" transform="translate(-2.77 -3.06)"/><path class="h" d="M274,131c1.88-1.08,3.63-2.93,6-1C278.11,131.11,276.36,132.94,274,131Z" transform="translate(-2.77 -3.06)"/><path class="h" d="M258,129.93l5-.92v2Z" transform="translate(-2.77 -3.06)"/><path class="j" d="M252,129.86V131l-3,0V130a6.31,6.31,0,0,1,.05-1Z" transform="translate(-2.77 -3.06)"/><path class="h" d="M233,132l2.06,0,.07,1.81Z" transform="translate(-2.77 -3.06)"/><path class="i" d="M170,132a6,6,0,0,1,10,1Z" transform="translate(-2.77 -3.06)"/><path class="i" d="M187,134c.12-2.24,1.44-3,3.51-3a4.18,4.18,0,0,1,4.52,4Z" transform="translate(-2.77 -3.06)"/><path class="i" d="M162,132l2.51-2.92L167,132Z" transform="translate(-2.77 -3.06)"/><path class="i" d="M212,132l3,4Z" transform="translate(-2.77 -3.06)"/><path class="i" d="M219,135l3-3Z" transform="translate(-2.77 -3.06)"/><path class="i" d="M296.88,117.9a5.75,5.75,0,0,0-.92.1l-8,3-4,1-5,.08-2,.08-4,0c-1.08-1.92-1.16-3.51,1.49-4,2.41-.42,4.88-1.14,7.27-1,4.87.34,9-1.69,13.14-3.58,1.54-.69,3.27-1.58,1.08-3.53l4-1c.8,2.32-.59,6,3.84,6L299,116.12Z" transform="translate(-2.77 -3.06)"/><path class="k" d="M209,121l22-1c.12,3.92-2.71,3.81-5.39,4-4.82.32-9.63.69-14.45,1.45C208.5,125.13,209.05,122.94,209,121Z" transform="translate(-2.77 -3.06)"/><path class="d" d="M273,122l4,0c-.37,2.82-2.54,1.66-4.1,1.86Z" transform="translate(-2.77 -3.06)"/><path class="d" d="M93,88a83.38,83.38,0,0,0,19.46,20.72,3.67,3.67,0,0,0,1.43.36l-.49,3.11L102,109,92.2,96.11a46.23,46.23,0,0,1-.92-5.93C91.25,89.47,92.42,88.71,93,88Z" transform="translate(-2.77 -3.06)"/><path class="l" d="M303.78,115c-4.43,0-3-3.7-3.84-6L324,100c-.67,3-3.45,3-5.58,3.93-2.34,1-4.75,1.85-7.41,2.88V112l-2,2-4,1Z" transform="translate(-2.77 -3.06)"/><path class="b" d="M314,113c.74-1.79,1.58-3.45,4-3C318.34,113.32,316.07,113.05,314,113Z" transform="translate(-2.77 -3.06)"/><path class="b" d="M309,114l2-2,1,1C311.55,115.2,310.6,115.71,309,114Z" transform="translate(-2.77 -3.06)"/><path class="k" d="M310,122l2-1C311.75,122.28,311.58,123.68,310,122Z" transform="translate(-2.77 -3.06)"/><path class="d" d="M304,122.94c.23-1.26.39-2.65,2-1Z" transform="translate(-2.77 -3.06)"/><path class="k" d="M301,123.94l2-.9C302.74,124.33,302.54,125.7,301,123.94Z" transform="translate(-2.77 -3.06)"/><path class="l" d="M329,100l-3-1,15-9c-1,4.07-5.27,4.43-7.78,6.81A40.15,40.15,0,0,1,329,100Z" transform="translate(-2.77 -3.06)"/><path class="f" d="M232,46,236,45l1,1.17Z" transform="translate(-2.77 -3.06)"/><path class="j" d="M181,120.92c-1.62,1.77-2.61,1.38-3-.89Z" transform="translate(-2.77 -3.06)"/><path class="d" d="M288,121l8-3C293.89,120.67,291.48,121.55,288,121Z" transform="translate(-2.77 -3.06)"/><path class="d" d="M279,122l5-.08C282.34,123.53,280.67,123.47,279,122Z" transform="translate(-2.77 -3.06)"/><path class="c" d="M296.88,117.9l2.15-1.78Z" transform="translate(-2.77 -3.06)"/></svg>